<svg xmlns="http://www.w3.org/2000/svg" xmlns:svg="http://www.w3.org/2000/svg" id="svg7384" width="16" height="16" version="1.1" style="enable-background:new"><metadata id="metadata90"/><title id="title8473">Gnome Symbolic Icons</title><g id="layer1" transform="translate(-212,-207.99989)"><path id="path3359" d="m 218,208 v 0.99805 0.002 3.58594 l -1.29297,-1.29297 A 1,1 0 0 0 216,211 h -1 V 211.9707 212 a 1,1 0 0 0 0.29297,0.70703 L 218,215.41406 v 1.17188 l -2.70703,2.70703 A 1,1 0 0 0 215,220 v 1 h 0.9707 a 1,1 0 0 0 0.0293,0 1,1 0 0 0 0.70703,-0.29297 L 218,219.41406 V 223 v 1 h 1 a 1.0001,1.0001 0 0 0 0.70703,-0.29297 l 2.56641,-2.56641 a 0.98884003,0.98884003 0 0 1 -0.26172,-0.67187 V 219 A 0.98884003,0.98884003 0 0 1 223,218.01172 h 0.42578 L 221.41406,216 l 2.29297,-2.29297 a 1.0001,1.0001 0 0 0 0,-1.41406 l -4,-4 A 1.0001,1.0001 0 0 0 219.0293,208 1.0001,1.0001 0 0 0 219,208 Z m 2,3.41406 L 221.58594,213 220,214.58594 Z m 0,6 L 221.58594,219 220,220.58594 Z" style="color:#000;font-style:normal;font-variant:normal;font-weight:400;font-stretch:normal;font-size:medium;line-height:normal;font-family:sans-serif;font-variant-ligatures:normal;font-variant-position:normal;font-variant-caps:normal;font-variant-numeric:normal;font-variant-alternates:normal;font-variant-east-asian:normal;font-feature-settings:normal;font-variation-settings:normal;text-indent:0;text-align:start;text-decoration:none;text-decoration-line:none;text-decoration-style:solid;text-decoration-color:#000;letter-spacing:normal;word-spacing:normal;text-transform:none;writing-mode:lr-tb;direction:ltr;text-orientation:mixed;dominant-baseline:auto;baseline-shift:baseline;text-anchor:start;white-space:normal;shape-padding:0;shape-margin:0;inline-size:0;clip-rule:nonzero;display:inline;overflow:visible;visibility:visible;opacity:.35;isolation:auto;mix-blend-mode:normal;color-interpolation:sRGB;color-interpolation-filters:linearRGB;solid-color:#000;solid-opacity:1;vector-effect:none;fill:#2e3436;fill-opacity:1;fill-rule:nonzero;stroke:none;stroke-width:2;stroke-linecap:butt;stroke-linejoin:miter;stroke-miterlimit:4;stroke-dasharray:none;stroke-dashoffset:0;stroke-opacity:1;color-rendering:auto;image-rendering:auto;shape-rendering:auto;text-rendering:auto;enable-background:accumulate;stop-color:#000"/><path id="path3761-2-3-5-4-8-9-8-0-1-6-3" d="m 222.99975,219 h 1.375 l 1.125,1.09375 L 226.5935,219 h 1.40625 v 1.46875 l -1.09375,1.0625 1.09375,1.0625 V 224 h -1.4375 l -1.0625,-1.0625 -1.0625,1.0625 h -1.4375 v -1.40625 l 1.0625,-1.0625 -1.0625,-1.0625 z" style="color:#bebebe;display:inline;overflow:visible;visibility:visible;fill:#2e3436;fill-opacity:1;stroke:none;stroke-width:2;marker:none;enable-background:new"/></g></svg>