<svg xmlns="http://www.w3.org/2000/svg" xmlns:svg="http://www.w3.org/2000/svg" id="svg7384" width="16" height="16" version="1.1" style="enable-background:new"><metadata id="metadata90"/><title id="title8473">Gnome Symbolic Icons</title><g id="layer1" transform="translate(-51.9998,-128)"><path id="rect4906-43-6" d="m 52.4998,135 h 2.000203 c 0.276999,0 0.499999,0.223 0.499999,0.5 v 1 c 0,0.277 -0.223,0.5 -0.499999,0.5 H 52.4998 c -0.276999,0 -0.499998,-0.223 -0.499998,-0.5 v -1 c 0,-0.277 0.222999,-0.5 0.499998,-0.5 z" style="color:#bebebe;display:inline;overflow:visible;visibility:visible;fill:#2e3436;fill-opacity:1;fill-rule:nonzero;stroke:none;stroke-width:2;marker:none;enable-background:new"/><path id="rect4906-4-6-6" d="M 65.4998,135 H 67.5 c 0.276889,0 0.4998,0.223 0.4998,0.5 v 1 c 0,0.277 -0.222911,0.5 -0.4998,0.5 H 65.4998 C 65.222911,137 65,136.777 65,136.5 v -1 c 0,-0.277 0.222911,-0.5 0.4998,-0.5 z" style="color:#bebebe;display:inline;overflow:visible;visibility:visible;fill:#2e3436;fill-opacity:1;fill-rule:nonzero;stroke:none;stroke-width:2;marker:none;enable-background:new"/><path id="rect8386" d="m -61.240255,137.5928 h 2.000203 c 0.276999,0 0.499999,0.223 0.499999,0.5 v 1 c 0,0.277 -0.223,0.5 -0.499999,0.5 h -2.000203 c -0.276999,0 -0.499998,-0.223 -0.499998,-0.5 v -1 c 0,-0.277 0.222999,-0.5 0.499998,-0.5 z" transform="rotate(-45)" style="color:#bebebe;display:inline;overflow:visible;visibility:visible;fill:#2e3436;fill-opacity:1;fill-rule:nonzero;stroke:none;stroke-width:2;marker:none;enable-background:new"/><path id="rect8388" d="m -48.240255,137.5928 h 2.0002 c 0.276889,0 0.4998,0.223 0.4998,0.5 v 1 c 0,0.277 -0.222911,0.5 -0.4998,0.5 h -2.0002 c -0.276889,0 -0.4998,-0.223 -0.4998,-0.5 v -1 c 0,-0.277 0.222911,-0.5 0.4998,-0.5 z" transform="rotate(-45)" style="color:#bebebe;display:inline;overflow:visible;visibility:visible;fill:#2e3436;fill-opacity:1;fill-rule:nonzero;stroke:none;stroke-width:2;marker:none;enable-background:new"/><path id="rect8390" d="m -143.5,58.999832 h 2.0002 c 0.277,0 0.5,0.223 0.5,0.5 v 1 c 0,0.277 -0.223,0.5 -0.5,0.5 H -143.5 c -0.277,0 -0.5,-0.223 -0.5,-0.5 v -1 c 0,-0.277 0.223,-0.5 0.5,-0.5 z" transform="rotate(-90)" style="color:#bebebe;display:inline;overflow:visible;visibility:visible;fill:#2e3436;fill-opacity:1;fill-rule:nonzero;stroke:none;stroke-width:2;marker:none;enable-background:new"/><path id="rect8392" d="m -130.50002,58.999832 h 2.0002 c 0.27689,0 0.4998,0.223 0.4998,0.5 v 1 c 0,0.277 -0.22291,0.5 -0.4998,0.5 h -2.0002 c -0.27689,0 -0.4998,-0.223 -0.4998,-0.5 v -1 c 0,-0.277 0.22291,-0.5 0.4998,-0.5 z" transform="rotate(-90)" style="color:#bebebe;display:inline;overflow:visible;visibility:visible;fill:#2e3436;fill-opacity:1;fill-rule:nonzero;stroke:none;stroke-width:2;marker:none;enable-background:new"/><path id="rect8394" d="m -146.09281,-54.740238 h 2.00021 c 0.277,0 0.5,0.223 0.5,0.5 v 1 c 0,0.277 -0.223,0.5 -0.5,0.5 h -2.00021 c -0.27699,0 -0.49999,-0.223 -0.49999,-0.5 v -1 c 0,-0.277 0.223,-0.5 0.49999,-0.5 z" transform="rotate(-135)" style="color:#bebebe;display:inline;overflow:visible;visibility:visible;fill:#2e3436;fill-opacity:1;fill-rule:nonzero;stroke:none;stroke-width:2;marker:none;enable-background:new"/><path id="rect8396" d="m -133.09282,-54.740238 h 2.0002 c 0.27689,0 0.4998,0.223 0.4998,0.5 v 1 c 0,0.277 -0.22291,0.5 -0.4998,0.5 h -2.0002 c -0.27689,0 -0.4998,-0.223 -0.4998,-0.5 v -1 c 0,-0.277 0.22291,-0.5 0.4998,-0.5 z" transform="rotate(-135)" style="color:#bebebe;display:inline;overflow:visible;visibility:visible;fill:#2e3436;fill-opacity:1;fill-rule:nonzero;stroke:none;stroke-width:2;marker:none;enable-background:new"/><g id="g3424" style="opacity:1"><path id="path3426" d="m 64,136 c 0,2.20914 -1.790861,4 -4,4 -2.209139,0 -4,-1.79086 -4,-4 0,-2.20914 1.790861,-4 4,-4 2.209139,0 4,1.79086 4,4 z" style="color:#000;font-style:normal;font-variant:normal;font-weight:400;font-stretch:normal;font-size:medium;line-height:normal;font-family:sans-serif;font-variant-ligatures:normal;font-variant-position:normal;font-variant-caps:normal;font-variant-numeric:normal;font-variant-alternates:normal;font-variant-east-asian:normal;font-feature-settings:normal;font-variation-settings:normal;text-indent:0;text-align:start;text-decoration:none;text-decoration-line:none;text-decoration-style:solid;text-decoration-color:#000;letter-spacing:normal;word-spacing:normal;text-transform:none;writing-mode:lr-tb;direction:ltr;text-orientation:mixed;dominant-baseline:auto;baseline-shift:baseline;text-anchor:start;white-space:normal;shape-padding:0;shape-margin:0;inline-size:0;clip-rule:nonzero;display:inline;overflow:visible;visibility:visible;isolation:auto;mix-blend-mode:normal;color-interpolation:sRGB;color-interpolation-filters:linearRGB;solid-color:#000;solid-opacity:1;vector-effect:none;fill:#2e3436;fill-opacity:1;fill-rule:nonzero;stroke-width:.499999;stroke-linecap:butt;stroke-linejoin:round;stroke-miterlimit:4;stroke-dasharray:none;stroke-dashoffset:0;stroke-opacity:1;color-rendering:auto;image-rendering:auto;shape-rendering:auto;text-rendering:auto;enable-background:new;stop-color:#000;stop-opacity:1;stroke:none"/><path id="path3428" d="M 60 131.75 C 57.655751 131.75 55.75 133.65575 55.75 136 C 55.75 138.34425 57.655751 140.25 60 140.25 C 62.344249 140.25 64.25 138.34425 64.25 136 C 64.25 133.65575 62.344249 131.75 60 131.75 z M 60 132.25 C 62.074029 132.25 63.75 133.92597 63.75 136 C 63.75 138.07403 62.074029 139.75 60 139.75 C 57.925971 139.75 56.25 138.07403 56.25 136 C 56.25 133.92597 57.925971 132.25 60 132.25 z" style="color:#000;font-style:normal;font-variant:normal;font-weight:400;font-stretch:normal;font-size:medium;line-height:normal;font-family:sans-serif;font-variant-ligatures:normal;font-variant-position:normal;font-variant-caps:normal;font-variant-numeric:normal;font-variant-alternates:normal;font-variant-east-asian:normal;font-feature-settings:normal;font-variation-settings:normal;text-indent:0;text-align:start;text-decoration:none;text-decoration-line:none;text-decoration-style:solid;text-decoration-color:#000;letter-spacing:normal;word-spacing:normal;text-transform:none;writing-mode:lr-tb;direction:ltr;text-orientation:mixed;dominant-baseline:auto;baseline-shift:baseline;text-anchor:start;white-space:normal;shape-padding:0;shape-margin:0;inline-size:0;clip-rule:nonzero;display:inline;overflow:visible;visibility:visible;isolation:auto;mix-blend-mode:normal;color-interpolation:sRGB;color-interpolation-filters:linearRGB;solid-color:#000;solid-opacity:1;vector-effect:none;fill-opacity:1;fill-rule:nonzero;stroke-width:.499999;stroke-linecap:butt;stroke-linejoin:round;stroke-miterlimit:4;stroke-dasharray:none;stroke-dashoffset:0;stroke-opacity:1;color-rendering:auto;image-rendering:auto;shape-rendering:auto;text-rendering:auto;enable-background:new;stop-color:#000;stop-opacity:1;stroke:none"/></g></g></svg>