<svg xmlns="http://www.w3.org/2000/svg" xmlns:svg="http://www.w3.org/2000/svg" id="svg7384" width="16.006" height="16" version="1.1" style="enable-background:new"><metadata id="metadata90"/><title id="title8473">Gnome Symbolic Icons</title><g id="layer4" transform="translate(-332,-788)"><path id="path4144" d="m 338,789 c -1.65685,0 -3,1.34315 -3,3 0,1.65685 1.34315,3 3,3 1.65685,0 3,-1.34315 3,-3 0,-1.65685 -1.34315,-3 -3,-3 z m -1.5,7 c -2.493,0 -4.5,2.007 -4.5,4.5 v 1.5 c 0,1 1,1 1,1 h 10 c 0,0 1,0 1,-1 v -1.5 c 0,-2.493 -2.007,-4.5 -4.5,-4.5 z" style="color:#bebebe;display:inline;overflow:visible;visibility:visible;fill:#2e3436;fill-opacity:1;fill-rule:nonzero;stroke:none;stroke-width:1.84615;marker:none;enable-background:accumulate"/><path id="path4360" d="m 344.00584,789.00326 v 1.99673 h -1.99999 v 1.99673 h 1.99999 v 1.99673 h 2.00001 v -1.99673 h 2 v -1.99673 h -2 v -1.99673 z" style="display:inline;fill:#2e3436;fill-opacity:1;stroke:none;enable-background:new"/></g></svg>