<svg xmlns="http://www.w3.org/2000/svg" xmlns:svg="http://www.w3.org/2000/svg" xmlns:xlink="http://www.w3.org/1999/xlink" id="svg11300" width="680" height="560" version="1.0" viewBox="0 0 680 560" style="display:inline;enable-background:new"><title id="title4162">Adwaita Icon Template</title><defs id="defs3"><linearGradient id="linearGradient1030"><stop style="stop-color:#2ec27e;stop-opacity:1" id="stop1026" offset="0"/><stop style="stop-color:#1e8053;stop-opacity:.91596639" id="stop1028" offset="1"/></linearGradient><clipPath id="clipPath5116" clipPathUnits="userSpaceOnUse"><path style="display:block;visibility:visible;fill:none;fill-opacity:1;fill-rule:nonzero;stroke:#000;stroke-width:1;stroke-linecap:round;stroke-linejoin:round;stroke-miterlimit:4;stroke-dashoffset:0;stroke-opacity:1;marker:none;marker-start:none;marker-mid:none;marker-end:none;enable-background:new" id="path5118" d="m 260.84293,54.9854 c 0,0 -131.33324,16.055843 -131.33324,16.055843 l -0.5,134.898067 c -10.19391,-3.45371 -35.35077,-2.85656 -50.86945,0.33875 -26.98001,5.55521 -46.31271,20.43475 -43.35318,33.09551 2.95954,12.66076 27.21146,18.52246 54.19148,12.96725 25.49564,-5.24958 47.59017,-18.81406 47.08547,-30.96656 l 0.96771,-117.86646 c 0,0 116.85559,-17.431532 116.85559,-17.431532 V 189.62526 c -63.48144,-9.28996 -94.32274,20.91872 -91.3632,33.57948 2.95954,12.66076 27.21147,18.52246 54.19148,12.96725 23.93948,-4.92917 41.07658,-17.11343 42.77256,-28.64407 z"/></clipPath><radialGradient id="radialGradient8983" cx="74.744" cy="155.824" r="55.042" fx="74.744" fy="155.824" gradientTransform="matrix(0.89376014,-0.20432974,0.08980013,0.39279544,-0.51372488,172.16642)" gradientUnits="userSpaceOnUse" xlink:href="#linearGradient6276"/><linearGradient id="linearGradient6276"><stop style="stop-color:#fff;stop-opacity:1" id="stop6278" offset="0"/><stop id="stop7340" offset=".399" style="stop-color:#fff;stop-opacity:.76"/><stop style="stop-color:#fff;stop-opacity:0" id="stop6280" offset="1"/></linearGradient><radialGradient id="radialGradient4666" cx="74.744" cy="155.824" r="55.042" fx="74.744" fy="155.824" gradientTransform="matrix(0.89376014,-0.20432974,0.08980013,0.39279544,-0.51372488,172.16642)" gradientUnits="userSpaceOnUse" xlink:href="#linearGradient6276"/><radialGradient id="radialGradient4676" cx="74.744" cy="155.824" r="55.042" fx="74.744" fy="155.824" gradientTransform="matrix(0.89376014,-0.20432974,0.08980013,0.39279544,-0.51372488,172.16642)" gradientUnits="userSpaceOnUse" xlink:href="#linearGradient6276"/><radialGradient id="radialGradient36371" cx="312.657" cy="2706.579" r="14.806" fx="312.657" fy="2706.579" gradientTransform="matrix(1.0547868,0.01688568,-0.01445121,0.90271444,21.98385,42.531798)" gradientUnits="userSpaceOnUse" xlink:href="#linearGradient36369"/><linearGradient id="linearGradient36369"><stop style="stop-color:#8ff0a4;stop-opacity:1" id="stop36365" offset="0"/><stop style="stop-color:#8ff0a4;stop-opacity:0" id="stop36367" offset="1"/></linearGradient><radialGradient id="radialGradient36375" cx="312.657" cy="2706.579" r="14.806" fx="312.657" fy="2706.579" gradientTransform="matrix(1.0547868,0.01688568,-0.01445121,0.90271444,76.48385,42.531798)" gradientUnits="userSpaceOnUse" xlink:href="#linearGradient36369"/><filter style="color-interpolation-filters:sRGB" id="filter1001" width="1.023" height="1.025" x="-.012" y="-.012"><feGaussianBlur id="feGaussianBlur1003" stdDeviation="1.91"/></filter><linearGradient id="linearGradient1032" x1="594.073" x2="594.073" y1="-188.477" y2="-160.289" gradientUnits="userSpaceOnUse" xlink:href="#linearGradient1030"/><radialGradient id="radialGradient36371-7" cx="312.657" cy="2706.579" r="14.806" fx="312.657" fy="2706.579" gradientTransform="matrix(0.43573908,0.00697559,-0.00596989,0.37291704,459.72081,-1175.9359)" gradientUnits="userSpaceOnUse" xlink:href="#linearGradient36369"/><radialGradient id="radialGradient36375-5" cx="312.657" cy="2706.579" r="14.806" fx="312.657" fy="2706.579" gradientTransform="matrix(0.43573908,0.00697559,-0.00596989,0.37291704,482.23511,-1175.9359)" gradientUnits="userSpaceOnUse" xlink:href="#linearGradient36369"/><linearGradient id="linearGradient1079" x1="594.073" x2="594.073" y1="-188.477" y2="-160.289" gradientTransform="matrix(0.65366012,0,0,0.65366012,197.18433,13.6922)" gradientUnits="userSpaceOnUse" xlink:href="#linearGradient1030"/><radialGradient id="radialGradient1081" cx="312.657" cy="2706.579" r="14.806" fx="312.657" fy="2706.579" gradientTransform="matrix(0.28482526,0.00455967,-0.00390228,0.24376099,497.68549,-754.9702)" gradientUnits="userSpaceOnUse" xlink:href="#linearGradient36369"/><radialGradient id="radialGradient1083" cx="312.657" cy="2706.579" r="14.806" fx="312.657" fy="2706.579" gradientTransform="matrix(0.28482526,0.00455967,-0.00390228,0.24376099,512.40218,-754.9702)" gradientUnits="userSpaceOnUse" xlink:href="#linearGradient36369"/><linearGradient id="linearGradient1091" x1="594.073" x2="594.073" y1="-188.477" y2="-160.289" gradientTransform="matrix(0.45025426,0,0,0.45025426,313.72283,30.680995)" gradientUnits="userSpaceOnUse" xlink:href="#linearGradient1030"/><radialGradient id="radialGradient1093" cx="312.657" cy="2706.579" r="14.806" fx="312.657" fy="2706.579" gradientTransform="matrix(0.19619338,0.00314079,-0.00268797,0.16790748,520.71408,-498.78915)" gradientUnits="userSpaceOnUse" xlink:href="#linearGradient36369"/><radialGradient id="radialGradient1095" cx="312.657" cy="2706.579" r="14.806" fx="312.657" fy="2706.579" gradientTransform="matrix(0.19619338,0.00314079,-0.00268797,0.16790748,530.85123,-498.78915)" gradientUnits="userSpaceOnUse" xlink:href="#linearGradient36369"/><linearGradient id="linearGradient1103" x1="594.073" x2="594.073" y1="-188.477" y2="-160.289" gradientTransform="matrix(0.35754778,0,0,0.35754778,364.43514,57.973501)" gradientUnits="userSpaceOnUse" xlink:href="#linearGradient1030"/><radialGradient id="radialGradient1105" cx="312.657" cy="2706.579" r="14.806" fx="312.657" fy="2706.579" gradientTransform="matrix(0.15579754,0.00249411,-0.00213452,0.13333566,528.80729,-362.47977)" gradientUnits="userSpaceOnUse" xlink:href="#linearGradient36369"/><radialGradient id="radialGradient1107" cx="312.657" cy="2706.579" r="14.806" fx="312.657" fy="2706.579" gradientTransform="matrix(0.15579754,0.00249411,-0.00213452,0.13333566,536.85722,-362.47977)" gradientUnits="userSpaceOnUse" xlink:href="#linearGradient36369"/></defs><metadata id="metadata4"/><g id="layer1" transform="translate(0,260)" style="display:inline"><g id="layer7" style="display:none"><rect id="rect6284" width="48" height="48" x="568" y="-196" style="display:inline;overflow:visible;visibility:visible;fill:#eeeeec;fill-opacity:1;fill-rule:nonzero;stroke:none;stroke-width:2;marker:none;enable-background:accumulate"/><rect style="display:inline;overflow:visible;visibility:visible;fill:#eeeeec;fill-opacity:1;fill-rule:nonzero;stroke:none;stroke-width:2;marker:none;enable-background:accumulate" id="rect6592" width="32" height="32" x="568" y="-116"/><rect id="rect6749" width="22" height="22" x="569" y="-58.941" style="display:inline;overflow:visible;visibility:visible;fill:#eeeeec;fill-opacity:1;fill-rule:nonzero;stroke:none;stroke-width:2;marker:none;enable-background:accumulate"/><rect style="display:inline;overflow:visible;visibility:visible;fill:#eeeeec;fill-opacity:1;fill-rule:nonzero;stroke:none;stroke-width:2;marker:none;enable-background:accumulate" id="rect6833" width="16" height="16" x="568" y="-12"/><rect style="display:inline;overflow:visible;visibility:visible;fill:#eeeeec;fill-opacity:1;fill-rule:nonzero;stroke:none;stroke-width:2;marker:none;enable-background:accumulate" id="rect8104" width="24" height="24" x="568" y="-60"/><text style="font-style:normal;font-variant:normal;font-weight:400;font-stretch:normal;font-size:18.30133247px;line-height:125%;font-family:Cantarell;-inkscape-font-specification:'Cantarell, Normal';text-align:start;writing-mode:lr-tb;text-anchor:start;display:inline;fill:#000;fill-opacity:1;stroke:none;enable-background:new" id="context" x="31.856" y="-303.7" xml:space="preserve"><tspan id="tspan2716" x="31.856" y="-303.7">mimetypes</tspan></text><text id="text3021" x="31.265" y="-277.901" xml:space="preserve" style="font-style:normal;font-variant:normal;font-weight:700;font-stretch:normal;font-size:18.30133247px;line-height:125%;font-family:Cantarell;-inkscape-font-specification:'Cantarell, Bold';text-align:start;writing-mode:lr-tb;text-anchor:start;display:inline;fill:#000;fill-opacity:1;stroke:none;enable-background:new"><tspan id="tspan3023" x="31.265" y="-277.901">audio-x-generic</tspan></text><rect style="display:inline;overflow:visible;visibility:visible;fill:#eeeeec;fill-opacity:1;fill-rule:nonzero;stroke:none;stroke-width:2;marker:none;enable-background:accumulate" id="rect13805" width="512" height="512" x="24" y="-236"/><path id="path13807" d="m 24,-236 v 512 h 511.875 v -512 h -36 V 240 H 60 v -476 z" style="display:inline;overflow:visible;visibility:visible;opacity:.4;fill:#729fcf;fill-opacity:1;fill-rule:nonzero;stroke:none;stroke-width:2;marker:none;enable-background:accumulate"/></g><g id="layer9" style="display:inline"><path style="display:inline;opacity:.4;vector-effect:none;fill:#000;fill-opacity:1;stroke:none;stroke-width:6.51673317;stroke-linecap:butt;stroke-linejoin:miter;stroke-miterlimit:4;stroke-dasharray:none;stroke-dashoffset:0;stroke-opacity:1;marker:none;marker-start:none;marker-mid:none;marker-end:none;paint-order:normal;enable-background:new;filter:url(#filter1001)" id="path18891-3" d="M 199.9375,-107 V 73.56836 C 186.7166,65.38775 171.4847,61.03684 155.9375,61 c -46.3919,0 -84,37.60808 -84,84 0,46.3919 37.6081,84 84,84 44.7959,-0.056 81.6657,-35.2549 83.7988,-80 h 0.2012 V 145 -59 H 427.8262 V 73.57422 C 414.603,65.38981 399.3675,61.03679 383.8164,61 c -46.3919,0 -84,37.60808 -84,84 0,46.3919 37.6081,84 84,84 44.7959,-0.056 81.6657,-35.2549 83.7988,-80 h 0.3223 v -288 h -236 c -16,0 -32,16 -32,32 z"/><g style="display:inline;stroke-width:.25;enable-background:new" id="g1903" transform="matrix(4,0,0,4,-1096.0625,-9844)"><title id="title1905">audio-x-generic</title><g id="g599" transform="matrix(0.25,0,0,0.25,0,2295)" style="stroke-width:.25"><path style="display:inline;opacity:1;vector-effect:none;fill:#33d17a;fill-opacity:1;stroke:none;stroke-width:6.51673317;stroke-linecap:butt;stroke-linejoin:miter;stroke-miterlimit:4;stroke-dasharray:none;stroke-dashoffset:0;stroke-opacity:1;marker:none;marker-start:none;marker-mid:none;marker-end:none;paint-order:normal;enable-background:new" id="path18891" d="m 1296,768 v 180.56836 c -13.2209,-8.18061 -28.4528,-12.53152 -44,-12.56836 -46.3919,0 -84,37.60808 -84,84 0,46.3919 37.6081,84 84,84 44.7959,-0.056 81.6657,-35.2549 83.7988,-80 H 1336 v -4 -204 h 187.8887 V 948.57422 C 1510.6655,940.38981 1495.43,936.03679 1479.8789,936 c -46.3919,0 -84,37.60808 -84,84 0,46.3919 37.6081,84 84,84 44.7959,-0.056 81.6657,-35.2549 83.7988,-80 H 1564 V 736 h -236 c -16,0 -32,16 -32,32 z" transform="translate(0,-212)"/><path style="display:inline;opacity:1;vector-effect:none;fill:#26a269;fill-opacity:1;stroke:none;stroke-width:6.51673317;stroke-linecap:butt;stroke-linejoin:miter;stroke-miterlimit:4;stroke-dasharray:none;stroke-dashoffset:0;stroke-opacity:1;marker:none;marker-start:none;marker-mid:none;marker-end:none;paint-order:normal;enable-background:new" id="path23900" d="m 1336,816 v 8 c 0,-4.88886 4.0236,-8 8.25,-8 h 179.6387 v -8 H 1344 c -4.1543,0 -8,3.93318 -8,8 z m -167.9023,200 c -0.062,1.3259 -0.098,2.6587 -0.098,4 0,46.3919 37.6081,84 84,84 44.7959,-0.056 81.6657,-35.2549 83.7988,-80 H 1336 v -4 -4 h -0.2012 c -2.1331,44.7451 -39.0029,79.944 -83.7988,80 -45.0506,0 -81.8139,-35.4661 -83.9023,-80 z m 227.8789,0 c -0.062,1.3259 -0.098,2.6587 -0.098,4 0,46.3919 37.6081,84 84,84 44.7959,-0.056 81.6657,-35.2549 83.7988,-80 H 1564 v -8 h -0.3223 c -2.1331,44.7451 -39.0029,79.944 -83.7988,80 -45.0506,0 -81.8139,-35.4661 -83.9023,-80 z" transform="translate(0,-212)"/></g><rect id="rect9125-7-1" width="128" height="128" x="280" y="2402" style="display:inline;opacity:1;vector-effect:none;fill:none;fill-opacity:1;stroke:none;stroke-width:1.25;stroke-linecap:butt;stroke-linejoin:miter;stroke-miterlimit:4;stroke-dasharray:none;stroke-dashoffset:0;stroke-opacity:1;marker:none;marker-start:none;marker-mid:none;marker-end:none;paint-order:normal;enable-background:new"/><ellipse style="display:inline;opacity:1;vector-effect:none;fill:url(#radialGradient36371);fill-opacity:1;stroke:none;stroke-width:.5;stroke-linecap:butt;stroke-linejoin:miter;stroke-miterlimit:4;stroke-dasharray:none;stroke-dashoffset:0;stroke-opacity:1;marker:none;marker-start:none;marker-mid:none;marker-end:none;paint-order:normal;enable-background:new" id="path35820" cx="314.032" cy="2492.454" rx="14.806" ry="14.806"/><ellipse id="ellipse36373" cx="368.532" cy="2492.454" rx="14.806" ry="14.806" style="display:inline;opacity:1;vector-effect:none;fill:url(#radialGradient36375);fill-opacity:1;stroke:none;stroke-width:.5;stroke-linecap:butt;stroke-linejoin:miter;stroke-miterlimit:4;stroke-dasharray:none;stroke-dashoffset:0;stroke-opacity:1;marker:none;marker-start:none;marker-mid:none;marker-end:none;paint-order:normal;enable-background:new"/></g><path style="display:inline;opacity:1;vector-effect:none;fill:#33d17a;fill-opacity:1;stroke:url(#linearGradient1032);stroke-width:1;stroke-linecap:butt;stroke-linejoin:miter;stroke-miterlimit:4;stroke-dasharray:none;stroke-dashoffset:0;stroke-opacity:1;marker:none;marker-start:none;marker-mid:none;marker-end:none;paint-order:normal;enable-background:new" id="path18891-6" d="m 584.48715,-188.16646 v 18.71279 c -1.37012,-0.84777 -2.94864,-1.29867 -4.55984,-1.30248 -4.80772,0 -8.70515,3.89742 -8.70515,8.70515 0,4.80773 3.89743,8.70515 8.70515,8.70515 4.64232,-0.006 8.33824,-3.65356 8.55931,-8.29062 h 0.0209 v -0.41453 -21.39109 h 20.03394 v 13.98903 c -1.37036,-0.84816 -2.94926,-1.29928 -4.56087,-1.30309 -4.80772,0 -8.70515,3.89742 -8.70515,8.70515 0,4.80773 3.89743,8.70515 8.70515,8.70515 4.64232,-0.006 8.33826,-3.65356 8.55932,-8.29062 h 0.0334 v -29.84624 h -24.76983 c -1.65812,0 -3.31625,1.65812 -3.31625,3.31625 z"/><circle style="display:inline;opacity:1;vector-effect:none;fill:url(#radialGradient36371-7);fill-opacity:1;stroke:none;stroke-width:1.99999988;stroke-linecap:butt;stroke-linejoin:miter;stroke-miterlimit:4;stroke-dasharray:none;stroke-dashoffset:0;stroke-opacity:1;marker:none;marker-start:none;marker-mid:none;marker-end:none;paint-order:normal;enable-background:new" id="path35820-6" cx="580.368" cy="-163.858" r="6.116"/><circle id="ellipse36373-2" cx="602.882" cy="-163.858" r="6.116" style="display:inline;opacity:1;vector-effect:none;fill:url(#radialGradient36375-5);fill-opacity:1;stroke:none;stroke-width:1.99999988;stroke-linecap:butt;stroke-linejoin:miter;stroke-miterlimit:4;stroke-dasharray:none;stroke-dashoffset:0;stroke-opacity:1;marker:none;marker-start:none;marker-mid:none;marker-end:none;paint-order:normal;enable-background:new"/><path id="path1073" d="m 578.55277,-109.30471 v 12.231805 c -0.89559,-0.554154 -1.92741,-0.84889 -2.98058,-0.85138 -3.14262,0 -5.69021,2.547589 -5.69021,5.690209 0,3.142622 2.54759,5.69021 5.69021,5.69021 3.0345,-0.0039 5.82537,-2.388186 5.96987,-5.419247 h 0.0136 v -0.270963 -14.232504 h 12.97039 v 9.394074 c -0.89575,-0.554409 -1.92782,-0.849289 -2.98127,-0.851779 -3.14261,0 -5.69021,2.547589 -5.69021,5.690209 0,3.142622 2.5476,5.69021 5.69021,5.69021 3.0345,-0.0039 5.8879,-2.388186 6.03239,-5.419247 h 0.0219 v -19.509297 h -16.87855 c -1.08385,0 -2.1677,1.08385 -2.1677,2.1677 z" style="display:inline;opacity:1;vector-effect:none;fill:#33d17a;fill-opacity:1;stroke:url(#linearGradient1079);stroke-width:1;stroke-linecap:butt;stroke-linejoin:miter;stroke-miterlimit:4;stroke-dasharray:none;stroke-dashoffset:0;stroke-opacity:1;marker:none;marker-start:none;marker-mid:none;marker-end:none;paint-order:normal;enable-background:new"/><circle id="circle1075" cx="576.548" cy="-93.415" r="3.998" style="display:inline;opacity:1;vector-effect:none;fill:url(#radialGradient1081);fill-opacity:1;stroke:none;stroke-width:2;stroke-linecap:butt;stroke-linejoin:miter;stroke-miterlimit:4;stroke-dasharray:none;stroke-dashoffset:0;stroke-opacity:1;marker:none;marker-start:none;marker-mid:none;marker-end:none;paint-order:normal;enable-background:new"/><circle style="display:inline;opacity:1;vector-effect:none;fill:url(#radialGradient1083);fill-opacity:1;stroke:none;stroke-width:2;stroke-linecap:butt;stroke-linejoin:miter;stroke-miterlimit:4;stroke-dasharray:none;stroke-dashoffset:0;stroke-opacity:1;marker:none;marker-start:none;marker-mid:none;marker-end:none;paint-order:normal;enable-background:new" id="circle1077" cx="591.264" cy="-93.415" r="3.998"/><path style="display:inline;opacity:1;vector-effect:none;fill:#33d17a;fill-opacity:1;stroke:url(#linearGradient1091);stroke-width:1;stroke-linecap:butt;stroke-linejoin:miter;stroke-miterlimit:4;stroke-dasharray:none;stroke-dashoffset:0;stroke-opacity:1;marker:none;marker-start:none;marker-mid:none;marker-end:none;paint-order:normal;enable-background:new" id="path1085" d="m 576.54209,-54.041755 v 8.425514 c -0.6169,-0.381712 -1.32764,-0.584732 -2.05308,-0.586448 -2.1647,0 -3.91953,1.754831 -3.91953,3.919531 0,2.164701 1.75483,3.919531 3.91953,3.919531 2.09022,-0.0027 3.88763,-1.64503 3.98717,-3.732886 h 0.009 v -0.186645 -10.178636 h 9.05927 v 6.845828 c -0.61701,-0.381888 -1.32792,-0.585007 -2.05356,-0.586723 -2.16469,0 -3.91953,1.754831 -3.91953,3.919531 0,2.164701 1.75484,3.919531 3.91953,3.919531 2.09023,-0.0027 3.93071,-1.64503 4.03023,-3.732886 h 0.0151 V -55.53491 h -11.50129 c -0.74657,0 -1.49315,0.746578 -1.49315,1.493155 z"/><circle style="display:inline;opacity:1;vector-effect:none;fill:url(#radialGradient1093);fill-opacity:1;stroke:none;stroke-width:2;stroke-linecap:butt;stroke-linejoin:miter;stroke-miterlimit:4;stroke-dasharray:none;stroke-dashoffset:0;stroke-opacity:1;marker:none;marker-start:none;marker-mid:none;marker-end:none;paint-order:normal;enable-background:new" id="circle1087" cx="575.036" cy="-43.097" r="2.754"/><circle id="circle1089" cx="585.173" cy="-43.097" r="2.754" style="display:inline;opacity:1;vector-effect:none;fill:url(#radialGradient1095);fill-opacity:1;stroke:none;stroke-width:2;stroke-linecap:butt;stroke-linejoin:miter;stroke-miterlimit:4;stroke-dasharray:none;stroke-dashoffset:0;stroke-opacity:1;marker:none;marker-start:none;marker-mid:none;marker-end:none;paint-order:normal;enable-background:new"/><path id="path1097" d="m 572.5659,-9.3049981 v 7.0442699 c -0.48988,-0.3031182 -0.74493,-0.1991718 -1.321,-0.2005345 -1.719,0 -2.84734,1.1283498 -2.84734,2.84734212 0,1.71899328 1.39351,3.11250728 3.11251,3.11250728 1.65984,-0.00214 2.99878,-1.3063216 3.07783,-2.96429212 h 0.007 V 0.38607942 -7.4758242 h 6.92883 v 5.2153144 c -0.48997,-0.303258 -1.05451,-0.4645552 -1.63074,-0.4659179 -1.71898,0 -3.11251,1.3935148 -3.11251,3.11250712 0,1.71899328 1.39353,3.11250728 3.11251,3.11250728 1.65986,-0.00214 3.47494,-1.3063216 3.55396,-2.96429212 h 0.012 V -10.490716 h -9.70772 c -0.59285,0 -1.18571,0.5928593 -1.18571,1.1857179 z" style="display:inline;opacity:1;vector-effect:none;fill:#33d17a;fill-opacity:1;stroke:url(#linearGradient1103);stroke-width:1;stroke-linecap:butt;stroke-linejoin:miter;stroke-miterlimit:4;stroke-dasharray:none;stroke-dashoffset:0;stroke-opacity:1;marker:none;marker-start:none;marker-mid:none;marker-end:none;paint-order:normal;enable-background:new"/><circle id="circle1099" cx="571.944" cy="-.613" r="2.187" style="display:inline;opacity:1;vector-effect:none;fill:url(#radialGradient1105);fill-opacity:1;stroke:none;stroke-width:2;stroke-linecap:butt;stroke-linejoin:miter;stroke-miterlimit:4;stroke-dasharray:none;stroke-dashoffset:0;stroke-opacity:1;marker:none;marker-start:none;marker-mid:none;marker-end:none;paint-order:normal;enable-background:new"/><circle style="display:inline;opacity:1;vector-effect:none;fill:url(#radialGradient1107);fill-opacity:1;stroke:none;stroke-width:2;stroke-linecap:butt;stroke-linejoin:miter;stroke-miterlimit:4;stroke-dasharray:none;stroke-dashoffset:0;stroke-opacity:1;marker:none;marker-start:none;marker-mid:none;marker-end:none;paint-order:normal;enable-background:new" id="circle1101" cx="579.994" cy="-.613" r="2.187"/></g></g></svg>