<svg xmlns="http://www.w3.org/2000/svg" xmlns:svg="http://www.w3.org/2000/svg" xmlns:xlink="http://www.w3.org/1999/xlink" id="svg11300" width="1300" height="600" version="1.0" style="display:inline;enable-background:new"><metadata id="metadata205"/><defs id="defs3"><linearGradient id="linearGradient1580"><stop style="stop-color:#e4e3e2;stop-opacity:1" id="stop1576" offset="0"/><stop style="stop-color:#b4b3af;stop-opacity:1" id="stop1578" offset="1"/></linearGradient><linearGradient id="linearGradient42158"><stop style="stop-color:#d3d7cf;stop-opacity:1" id="stop42154" offset="0"/><stop style="stop-color:#d3d7cf;stop-opacity:0" id="stop42156" offset="1"/></linearGradient><linearGradient id="linearGradient9510"><stop style="stop-color:#fff;stop-opacity:1" id="stop9512" offset="0"/><stop id="stop9514" offset=".128" style="stop-color:#f9f9f9;stop-opacity:1"/><stop id="stop9518" offset=".323" style="stop-color:#eeeeec;stop-opacity:1"/><stop style="stop-color:#989994;stop-opacity:1" id="stop10294" offset=".868"/><stop style="stop-color:#bec0bd;stop-opacity:1" id="stop9520" offset="1"/></linearGradient><linearGradient id="linearGradient8294"><stop style="stop-color:#fff;stop-opacity:1" id="stop8296" offset="0"/><stop style="stop-color:#eeeeec;stop-opacity:1" id="stop8298" offset="1"/></linearGradient><linearGradient id="linearGradient8276"><stop style="stop-color:#fff;stop-opacity:0" id="stop8278" offset="0"/><stop id="stop8284" offset=".141" style="stop-color:#fff;stop-opacity:1"/><stop style="stop-color:#fff;stop-opacity:0" id="stop8280" offset="1"/></linearGradient><clipPath id="clipPath4396-4" clipPathUnits="userSpaceOnUse"><path style="display:inline;fill:#000;fill-opacity:1;fill-rule:evenodd;stroke:none" id="path4398-9" d="m 79.40625,432.78125 c 4.95211,3.15625 10.09773,2.36004 13.8125,6.28125 0.20853,0.22012 0.41543,0.41335 0.625,0.625 -0.91227,0.0132 -3.36173,-0.64471 -5.8125,-0.21875 -2.03999,0.35455 -4.02605,-0.55433 -6.4375,1.03125 2.8086,-1.17696 5.05872,-0.41657 7.3125,-0.71875 1.75702,-0.23558 4.85952,0.60574 6.84375,1.75 3.19912,2.92004 6.06811,5.00342 6.65625,7.03125 0.75156,2.59125 0.93062,10.17703 0.96875,13.3125 -0.33977,-0.27402 -0.66062,-0.5645 -0.96875,-0.875 -0.68906,-0.71321 -1.34766,-1.47779 -2.15625,-2.0625 -0.77698,-0.56343 -1.58267,-1.08104 -2.21875,-1.8125 -0.66486,-0.8969 -1.44709,-1.69706 -2.1875,-2.53125 -0.70592,-0.72238 -1.45646,-1.39671 -2.125,-2.15625 -0.61554,-0.75741 -1.33614,-1.42319 -2.1875,-1.90625 -0.77581,-0.47272 -1.5828,-1.00327 -2.53125,-0.96875 -0.47451,-0.0791 -0.95887,-0.19127 -1.3125,-0.53125 -0.59769,-0.44175 -1.32432,-0.71337 -2.0625,-0.78125 l 0.125,0.0625 c 0.9109,0.24481 1.68179,0.8215 2.40625,1.40625 0.82464,0.41098 1.87022,0.34115 2.53125,1.0625 0.70456,0.74408 1.76065,1.14357 2.28125,2.0625 0.20942,0.35023 0.44974,0.66458 0.71875,0.96875 -0.70331,0.27896 -1.37908,1.26201 -1.875,1.59375 -1.29807,0.86836 -4.60919,-2.74752 -7.5,-2.40625 2.08544,-0.0469 5.75517,2.50843 6.46875,2.71875 0.55836,0.16459 -1.66639,2.10357 -3.375,3.03125 1.51744,-0.43138 3.97727,-2.51723 4.4375,-2.625 0.57771,-0.13527 1.16213,-1.94726 2.4375,-1.6875 0.26687,0.28232 0.53984,0.57255 0.78125,0.875 0.69303,0.78032 1.38577,1.54029 1.96875,2.40625 0.85162,1.06177 1.95474,1.87787 2.875,2.875 0.7471,0.7803 1.39506,1.64575 2.09375,2.46875 0.93323,1.12487 1.87928,2.25013 2.8125,3.375 0.42144,0.87267 1.03174,1.61036 1.65625,2.34375 0.66563,0.75999 1.30957,1.55781 1.8125,2.4375 0.59909,0.89138 1.1135,1.84141 1.5,2.84375 0.30827,0.94828 0.48395,1.92145 0.625,2.90625 0.19051,1.03702 0.34872,2.0991 0.25,3.15625 -0.14578,1.5715 -0.30651,3.14619 -0.4375,4.71875 -0.0217,0.7843 -0.12135,1.62135 0.25,2.34375 0.88575,0.56065 1.94401,0.69175 2.96875,0.75 0.86591,-0.0236 1.72648,-0.22461 2.46875,-0.6875 0.31904,-0.16231 0.63392,-0.49478 0.46875,-0.875 -0.18667,-1.01745 -0.40295,-2.03142 -0.5,-3.0625 -0.1344,-1.15271 -0.25974,-2.31102 -0.34375,-3.46875 -0.099,-1.09509 -0.14847,-2.18257 -0.1875,-3.28125 0.0322,-1.00198 0.0767,-2.03591 0.375,-3 0.32471,-0.94223 0.65194,-2.18347 1.25,-2.96875 0.85084,-1.04281 2.1162,-1.51624 3.09375,-2.4375 0.82415,-0.71738 1.68863,-1.38982 2.46875,-2.15625 0.75889,-0.71303 1.63356,-2.17099 2.3125,-2.96875 0.7624,-0.80646 1.48992,-0.89854 2.21875,-1.625 0.18969,-0.12973 0.38766,-0.25786 0.59375,-0.375 0.52915,-0.26792 1.04107,-0.57592 1.71875,-0.625 0.70029,0.0397 1.39399,-0.19008 2.09375,-0.0937 0.70007,0.0559 1.02933,0.72896 1.78125,0.65625 0.66535,-0.12321 1.35216,-0.12021 2.03125,-0.0625 -0.21541,-0.0835 -0.44604,-0.15445 -0.6875,-0.1875 -0.48981,-0.0904 -0.98368,0.0758 -1.46875,0.0313 -0.63207,-0.054 -0.8309,-0.55639 -1.375,-0.71875 -0.66242,-0.11588 -1.35944,0.10128 -2.03125,0.0625 -0.5382,-0.0737 -1.05528,0.0455 -1.59375,0.0313 0.76409,-1.1233 1.44323,-2.44724 2.25,-3.375 1.3398,-1.24472 2.98696,-2.48222 4.03125,-2.96875 1.39189,-0.64849 2.38459,0.15819 4.21875,-0.75 -2.03978,0.86066 -3.28052,-0.27726 -5.6875,1.125 -1.32634,0.76242 -2.21246,1.18656 -2.96875,1.71875 -1.58811,-1.34506 -0.70451,-6.06166 -2.09375,-8.78125 0.0827,-0.0958 0.125,-0.20732 0.125,-0.34375 1.54418,-0.65828 3.85538,-0.62579 5.34375,-0.34375 1.80941,0.34285 1.14282,0.69721 2.0625,0.75 0.8083,0.0464 2.21338,0.8335 3.34375,1.28125 1.22261,0.48428 1.53834,-0.0211 3.84375,1.21875 -1.65524,-1.12051 -3.34913,-1.13223 -3.59375,-1.40625 0.7457,-2.42944 3.79609,-2.88736 5.0625,-5.1875 -1.76435,2.59269 -4.05299,2.33985 -5.28125,5.09375 -1.22654,-0.34407 -2.44261,-0.89298 -3.0625,-1.28125 1.49793,-1.8748 -1.68651,-7.18964 -1.78125,-9 -0.11059,2.41309 2.83075,5.84705 1.25,8.8125 -3.16781,-1.25867 -5.75024,-0.78886 -7.4375,-0.40625 -0.0628,-0.0425 -0.14103,-0.0804 -0.21875,-0.0937 -1.38487,-2.04113 -0.95284,-3.54566 -2.5,-5.78125 0.85981,2.03517 1.03075,4.21454 1.875,5.96875 0.0201,0.0419 0.0431,0.0827 0.0625,0.125 -0.0386,0.0749 -0.0625,0.16002 -0.0625,0.25 0,0.22641 0.14749,0.41694 0.34375,0.5 0.92516,2.72077 0.58242,6.13236 0.8125,8.65625 -2.33949,-3.83923 -5.15618,-3.90227 -6.78125,-10.25 1.34906,7.76942 7.42824,8.46368 5.875,13.34375 -1.18921,1.23925 -3.11722,3.33597 -4.03125,4.25 -0.76285,0.67868 -1.59581,1.26835 -2.4375,1.84375 -0.87643,0.65389 -0.79689,1.13319 -1.71875,1.71875 -0.68733,0.46263 -2.24808,0.96188 -2.84375,1.4375 -0.77914,0.62211 -1.21036,1.46972 -1.875,2.3125 -0.35417,0.47917 -1.23958,0.61458 -1.5625,1.25 -0.32894,-1.33239 -1.28622,-3.80883 -3.09375,-4.84375 -0.89341,-0.51154 -1.89485,-1.4387 -2.625,-2.21875 -0.16244,-0.16986 -0.32136,-0.31728 -0.5,-0.46875 -1.2415,-3.00067 -1.37508,-6.70906 -1.65625,-10.0625 0.097,-0.0922 0.17429,-0.19076 0.28125,-0.28125 0.53668,-0.40499 1.03141,-0.85932 1.9375,-1.125 1.00361,-0.19673 1.64252,0.33535 2.6875,0.1875 1.01534,-0.18272 1.85205,-1.06453 2.84375,-1.375 0.83379,-0.32538 2.07498,-0.13823 3.0625,-0.3125 -1.14808,0.056 -2.26509,-0.14799 -3.375,0.1875 -0.91936,0.16193 -1.46612,1.11655 -2.34375,1.15625 -1.0076,0.1187 -1.63048,-0.40688 -2.59375,-0.21875 -0.80343,0.11401 -1.45915,0.39725 -2.21875,0.5625 -0.096,-0.0611 -0.4129,0.0496 -0.40625,-0.0625 -0.0616,-0.56577 -0.12813,-1.12745 -0.21875,-1.65625 -0.06,-3.89672 4.27346,-2.57015 5.15625,-3.25 0.58133,-0.44768 3.85453,-3.04945 6.75,-3.65625 -3.43517,0.61964 -6.89928,3.23605 -6.5625,2.40625 0.43039,-1.06043 0.76035,-7.91801 2.84375,-10.375 -3.23258,3.13778 -1.93744,10.59758 -4.28125,11.3125 -1.14933,0.35058 -3.94816,-0.0106 -4.4375,1.375 -0.10489,-0.29885 -0.21204,-0.57258 -0.34375,-0.84375 -0.84843,-1.74675 -3.20807,-3.66898 -5.71875,-5.84375 -0.24719,-1.22331 1.70858,-1.61353 1.90625,-2.125 0.15296,-0.39577 2.42162,-2.38883 3,-3.6875 -1.08179,1.42622 -3.17911,3.22298 -3.28125,2.71875 -0.13053,-0.6444 -2.23183,-4.07697 -1.96875,-5.90625 -0.63373,2.51321 2.51245,5.71105 1.53125,6.78125 -0.40432,0.441 -1.56827,1.00067 -1.8125,1.65625 -1.21315,-1.06576 -2.41928,-2.18039 -3.53125,-3.40625 -3.25105,-3.58405 -5.7455,-2.03174 -14.3125,-5.65625 z"/></clipPath><clipPath id="clipPath4719-3" clipPathUnits="userSpaceOnUse"><rect style="fill:#000;fill-opacity:1;stroke:none" id="rect4721-9" width="92" height="56" x="84" y="428"/></clipPath><linearGradient id="linearGradient3566"><stop style="stop-color:#000;stop-opacity:.21621622" id="stop3568" offset="0"/><stop id="stop3582" offset=".462" style="stop-color:#000;stop-opacity:1"/><stop style="stop-color:#000;stop-opacity:0" id="stop3570" offset="1"/></linearGradient><linearGradient id="linearGradient7124"><stop id="stop7126" offset="0" style="stop-color:#888a85;stop-opacity:1"/><stop id="stop7128" offset="1" style="stop-color:#d3d7cf;stop-opacity:1"/></linearGradient><linearGradient id="linearGradient6327"><stop id="stop6329" offset="0" style="stop-color:#888a85;stop-opacity:1"/><stop id="stop6331" offset="1" style="stop-color:#eeeeec;stop-opacity:1"/></linearGradient><linearGradient id="linearGradient5048"><stop id="stop5050" offset="0" style="stop-color:black;stop-opacity:0"/><stop id="stop5056" offset=".5" style="stop-color:black;stop-opacity:1"/><stop id="stop5052" offset="1" style="stop-color:black;stop-opacity:0"/></linearGradient><linearGradient id="linearGradient4928"><stop id="stop4930" offset="0" style="stop-color:#fce94f;stop-opacity:1"/><stop id="stop4932" offset="1" style="stop-color:#fce94f;stop-opacity:0"/></linearGradient><linearGradient id="linearGradient7138"><stop id="stop7140" offset="0" style="stop-color:#fff;stop-opacity:0"/><stop id="stop7146" offset=".357" style="stop-color:#fff;stop-opacity:0"/><stop id="stop7142" offset="1" style="stop-color:#fff;stop-opacity:1"/></linearGradient><linearGradient id="linearGradient6374"><stop id="stop6376" offset="0" style="stop-color:#555753;stop-opacity:1"/><stop id="stop6378" offset="1" style="stop-color:#888a85;stop-opacity:1"/></linearGradient><clipPath id="clipPath3379" clipPathUnits="userSpaceOnUse"><path style="display:inline;fill:#eeeeec;fill-opacity:1;stroke:none;stroke-width:2;stroke-linecap:round;stroke-linejoin:miter;stroke-miterlimit:4;stroke-dashoffset:.5;stroke-opacity:1;enable-background:new" id="path3381" d="m -235.75736,72 h 215.514735 c 2.350423,0 4.24264,1.892218 4.24264,4.24264 L -16,192 c 0,4 -4,8 -4,8 l -40,40 c 0,0 -4,4 -8,4 H -235.75736 C -238.10778,244 -240,242.10778 -240,239.75736 V 76.24264 C -240,73.892218 -238.10778,72 -235.75736,72 Z"/></clipPath><clipPath id="clipPath3387" clipPathUnits="userSpaceOnUse"><path style="display:inline;fill:#eeeeec;fill-opacity:1;stroke:none;stroke-width:2;stroke-linecap:round;stroke-linejoin:miter;stroke-miterlimit:4;stroke-dashoffset:.5;stroke-opacity:1;enable-background:new" id="path3389" d="m -555.75736,72 h 215.51473 c 2.35043,0 4.24265,1.892218 4.24265,4.24264 L -336,192 c 0,4 -4,8 -4,8 l -40,40 c 0,0 -4,4 -8,4 H -555.75736 C -558.10778,244 -560,242.10778 -560,239.75736 V 76.24264 C -560,73.892218 -558.10778,72 -555.75736,72 Z"/></clipPath><clipPath id="clipPath3483" clipPathUnits="userSpaceOnUse"><path id="path3485" d="m -235.75736,72 h 215.514735 c 2.350423,0 4.24264,1.892218 4.24264,4.24264 L -16,192 c 0,4 -4,8 -4,8 l -40,40 c 0,0 -4,4 -8,4 H -235.75736 C -238.10778,244 -240,242.10778 -240,239.75736 V 76.24264 C -240,73.892218 -238.10778,72 -235.75736,72 Z" style="display:inline;fill:#eeeeec;fill-opacity:1;stroke:none;stroke-width:2;stroke-linecap:round;stroke-linejoin:miter;stroke-miterlimit:4;stroke-dashoffset:.5;stroke-opacity:1;enable-background:new"/></clipPath><clipPath id="clipPath7488-1" clipPathUnits="userSpaceOnUse"><path style="color:#000;clip-rule:nonzero;display:inline;overflow:visible;visibility:visible;opacity:1;isolation:auto;mix-blend-mode:normal;color-interpolation:sRGB;color-interpolation-filters:linearRGB;solid-color:#000;solid-opacity:1;fill:none;fill-opacity:1;fill-rule:evenodd;stroke:#000;stroke-width:1.875;stroke-linecap:butt;stroke-linejoin:miter;stroke-miterlimit:4;stroke-dasharray:none;stroke-dashoffset:0;stroke-opacity:1;marker:none;marker-start:none;marker-mid:none;marker-end:none;paint-order:normal;color-rendering:auto;image-rendering:auto;shape-rendering:auto;text-rendering:auto;enable-background:accumulate" id="path7490-2" d="m 120,-200 v 445 h 315 v -365 a 16,16 0 0 0 -4.68555,-11.29883 v -0.0156 l -64,-64 -0.0117,0.004 A 16,16 0 0 0 355,-200 Z"/></clipPath><clipPath id="clipPath5492-4-7" clipPathUnits="userSpaceOnUse"><path style="color:#000;clip-rule:nonzero;display:inline;overflow:visible;visibility:visible;opacity:1;isolation:auto;mix-blend-mode:normal;color-interpolation:sRGB;color-interpolation-filters:linearRGB;solid-color:#000;solid-opacity:1;fill:none;fill-opacity:1;fill-rule:evenodd;stroke:#000;stroke-width:1;stroke-linecap:butt;stroke-linejoin:miter;stroke-miterlimit:4;stroke-dasharray:none;stroke-dashoffset:0;stroke-opacity:1;marker:none;marker-start:none;marker-mid:none;marker-end:none;paint-order:normal;color-rendering:auto;image-rendering:auto;shape-rendering:auto;text-rendering:auto;enable-background:accumulate" id="path5494-5-0" d="m 366.31445,-195.31445 v 0.0156 A 16,16 0 0 1 371,-184 v 48 h 48 a 16,16 0 0 1 11.30078,4.68555 h 0.0137 l -64,-64 z"/></clipPath><clipPath id="clipPath7488-1-7" clipPathUnits="userSpaceOnUse"><path style="color:#000;clip-rule:nonzero;display:inline;overflow:visible;visibility:visible;opacity:1;isolation:auto;mix-blend-mode:normal;color-interpolation:sRGB;color-interpolation-filters:linearRGB;solid-color:#000;solid-opacity:1;fill:none;fill-opacity:1;fill-rule:evenodd;stroke:#000;stroke-width:1.875;stroke-linecap:butt;stroke-linejoin:miter;stroke-miterlimit:4;stroke-dasharray:none;stroke-dashoffset:0;stroke-opacity:1;marker:none;marker-start:none;marker-mid:none;marker-end:none;paint-order:normal;color-rendering:auto;image-rendering:auto;shape-rendering:auto;text-rendering:auto;enable-background:accumulate" id="path7490-2-8" d="m 120,-200 v 445 h 315 v -365 a 16,16 0 0 0 -4.68555,-11.29883 v -0.0156 l -64,-64 -0.0117,0.004 A 16,16 0 0 0 355,-200 Z"/></clipPath><clipPath id="clipPath5492-4-7-9" clipPathUnits="userSpaceOnUse"><path style="color:#000;clip-rule:nonzero;display:inline;overflow:visible;visibility:visible;opacity:1;isolation:auto;mix-blend-mode:normal;color-interpolation:sRGB;color-interpolation-filters:linearRGB;solid-color:#000;solid-opacity:1;fill:none;fill-opacity:1;fill-rule:evenodd;stroke:#000;stroke-width:1;stroke-linecap:butt;stroke-linejoin:miter;stroke-miterlimit:4;stroke-dasharray:none;stroke-dashoffset:0;stroke-opacity:1;marker:none;marker-start:none;marker-mid:none;marker-end:none;paint-order:normal;color-rendering:auto;image-rendering:auto;shape-rendering:auto;text-rendering:auto;enable-background:accumulate" id="path5494-5-0-1" d="m 366.31445,-195.31445 v 0.0156 A 16,16 0 0 1 371,-184 v 48 h 48 a 16,16 0 0 1 11.30078,4.68555 h 0.0137 l -64,-64 z"/></clipPath><linearGradient id="linearGradient22437" x1="120" x2="120" y1="44.5" y2="-481" gradientTransform="matrix(0,0.23915927,-0.24065398,0,-160.93511,80.46846)" gradientUnits="userSpaceOnUse" xlink:href="#linearGradient8294"/><clipPath id="clipPath7488-1-7-7" clipPathUnits="userSpaceOnUse"><path style="color:#000;clip-rule:nonzero;display:inline;overflow:visible;visibility:visible;opacity:1;isolation:auto;mix-blend-mode:normal;color-interpolation:sRGB;color-interpolation-filters:linearRGB;solid-color:#000;solid-opacity:1;fill:none;fill-opacity:1;fill-rule:evenodd;stroke:#000;stroke-width:1.875;stroke-linecap:butt;stroke-linejoin:miter;stroke-miterlimit:4;stroke-dasharray:none;stroke-dashoffset:0;stroke-opacity:1;marker:none;marker-start:none;marker-mid:none;marker-end:none;paint-order:normal;color-rendering:auto;image-rendering:auto;shape-rendering:auto;text-rendering:auto;enable-background:accumulate" id="path7490-2-8-3" d="m 120,-200 v 445 h 315 v -365 a 16,16 0 0 0 -4.68555,-11.29883 v -0.0156 l -64,-64 -0.0117,0.004 A 16,16 0 0 0 355,-200 Z"/></clipPath><clipPath id="clipPath5492-4-7-9-4" clipPathUnits="userSpaceOnUse"><path style="color:#000;clip-rule:nonzero;display:inline;overflow:visible;visibility:visible;opacity:1;isolation:auto;mix-blend-mode:normal;color-interpolation:sRGB;color-interpolation-filters:linearRGB;solid-color:#000;solid-opacity:1;fill:none;fill-opacity:1;fill-rule:evenodd;stroke:#000;stroke-width:1;stroke-linecap:butt;stroke-linejoin:miter;stroke-miterlimit:4;stroke-dasharray:none;stroke-dashoffset:0;stroke-opacity:1;marker:none;marker-start:none;marker-mid:none;marker-end:none;paint-order:normal;color-rendering:auto;image-rendering:auto;shape-rendering:auto;text-rendering:auto;enable-background:accumulate" id="path5494-5-0-1-0" d="m 366.31445,-195.31445 v 0.0156 A 16,16 0 0 1 371,-184 v 48 h 48 a 16,16 0 0 1 11.30078,4.68555 h 0.0137 l -64,-64 z"/></clipPath><clipPath id="clipPath22433-4" clipPathUnits="userSpaceOnUse"><path style="color:#000;clip-rule:nonzero;display:inline;overflow:visible;visibility:visible;opacity:1;isolation:auto;mix-blend-mode:normal;color-interpolation:sRGB;color-interpolation-filters:linearRGB;solid-color:#000;solid-opacity:1;fill:url(#linearGradient22437);fill-opacity:1;fill-rule:evenodd;stroke:none;stroke-width:.44982275;stroke-linecap:butt;stroke-linejoin:miter;stroke-miterlimit:4;stroke-dasharray:none;stroke-dashoffset:0;stroke-opacity:1;marker:none;marker-start:none;marker-mid:none;marker-end:none;paint-order:normal;color-rendering:auto;image-rendering:auto;shape-rendering:auto;text-rendering:auto;enable-background:accumulate" id="path22435-9" d="m -112.80432,109.16757 h -107.09102 v 75.33517 h 87.8387 a 3.8504637,3.8265484 0 0 0 2.71911,-1.12059 h 0.004 l 15.40185,-15.30619 -9.8e-4,-0.003 a 3.8504637,3.8265484 0 0 0 1.12857,-2.70316 z"/></clipPath><clipPath id="clipPath4719-3-9" clipPathUnits="userSpaceOnUse"><rect style="fill:#000;fill-opacity:1;stroke:none" id="rect4721-9-7" width="92" height="56" x="84" y="428"/></clipPath><clipPath id="clipPath4396-4-6" clipPathUnits="userSpaceOnUse"><path style="display:inline;fill:#000;fill-opacity:1;fill-rule:evenodd;stroke:none" id="path4398-9-2" d="m 79.40625,432.78125 c 4.95211,3.15625 10.09773,2.36004 13.8125,6.28125 0.20853,0.22012 0.41543,0.41335 0.625,0.625 -0.91227,0.0132 -3.36173,-0.64471 -5.8125,-0.21875 -2.03999,0.35455 -4.02605,-0.55433 -6.4375,1.03125 2.8086,-1.17696 5.05872,-0.41657 7.3125,-0.71875 1.75702,-0.23558 4.85952,0.60574 6.84375,1.75 3.19912,2.92004 6.06811,5.00342 6.65625,7.03125 0.75156,2.59125 0.93062,10.17703 0.96875,13.3125 -0.33977,-0.27402 -0.66062,-0.5645 -0.96875,-0.875 -0.68906,-0.71321 -1.34766,-1.47779 -2.15625,-2.0625 -0.77698,-0.56343 -1.58267,-1.08104 -2.21875,-1.8125 -0.66486,-0.8969 -1.44709,-1.69706 -2.1875,-2.53125 -0.70592,-0.72238 -1.45646,-1.39671 -2.125,-2.15625 -0.61554,-0.75741 -1.33614,-1.42319 -2.1875,-1.90625 -0.77581,-0.47272 -1.5828,-1.00327 -2.53125,-0.96875 -0.47451,-0.0791 -0.95887,-0.19127 -1.3125,-0.53125 -0.59769,-0.44175 -1.32432,-0.71337 -2.0625,-0.78125 l 0.125,0.0625 c 0.9109,0.24481 1.68179,0.8215 2.40625,1.40625 0.82464,0.41098 1.87022,0.34115 2.53125,1.0625 0.70456,0.74408 1.76065,1.14357 2.28125,2.0625 0.20942,0.35023 0.44974,0.66458 0.71875,0.96875 -0.70331,0.27896 -1.37908,1.26201 -1.875,1.59375 -1.29807,0.86836 -4.60919,-2.74752 -7.5,-2.40625 2.08544,-0.0469 5.75517,2.50843 6.46875,2.71875 0.55836,0.16459 -1.66639,2.10357 -3.375,3.03125 1.51744,-0.43138 3.97727,-2.51723 4.4375,-2.625 0.57771,-0.13527 1.16213,-1.94726 2.4375,-1.6875 0.26687,0.28232 0.53984,0.57255 0.78125,0.875 0.69303,0.78032 1.38577,1.54029 1.96875,2.40625 0.85162,1.06177 1.95474,1.87787 2.875,2.875 0.7471,0.7803 1.39506,1.64575 2.09375,2.46875 0.93323,1.12487 1.87928,2.25013 2.8125,3.375 0.42144,0.87267 1.03174,1.61036 1.65625,2.34375 0.66563,0.75999 1.30957,1.55781 1.8125,2.4375 0.59909,0.89138 1.1135,1.84141 1.5,2.84375 0.30827,0.94828 0.48395,1.92145 0.625,2.90625 0.19051,1.03702 0.34872,2.0991 0.25,3.15625 -0.14578,1.5715 -0.30651,3.14619 -0.4375,4.71875 -0.0217,0.7843 -0.12135,1.62135 0.25,2.34375 0.88575,0.56065 1.94401,0.69175 2.96875,0.75 0.86591,-0.0236 1.72648,-0.22461 2.46875,-0.6875 0.31904,-0.16231 0.63392,-0.49478 0.46875,-0.875 -0.18667,-1.01745 -0.40295,-2.03142 -0.5,-3.0625 -0.1344,-1.15271 -0.25974,-2.31102 -0.34375,-3.46875 -0.099,-1.09509 -0.14847,-2.18257 -0.1875,-3.28125 0.0322,-1.00198 0.0767,-2.03591 0.375,-3 0.32471,-0.94223 0.65194,-2.18347 1.25,-2.96875 0.85084,-1.04281 2.1162,-1.51624 3.09375,-2.4375 0.82415,-0.71738 1.68863,-1.38982 2.46875,-2.15625 0.75889,-0.71303 1.63356,-2.17099 2.3125,-2.96875 0.7624,-0.80646 1.48992,-0.89854 2.21875,-1.625 0.18969,-0.12973 0.38766,-0.25786 0.59375,-0.375 0.52915,-0.26792 1.04107,-0.57592 1.71875,-0.625 0.70029,0.0397 1.39399,-0.19008 2.09375,-0.0937 0.70007,0.0559 1.02933,0.72896 1.78125,0.65625 0.66535,-0.12321 1.35216,-0.12021 2.03125,-0.0625 -0.21541,-0.0835 -0.44604,-0.15445 -0.6875,-0.1875 -0.48981,-0.0904 -0.98368,0.0758 -1.46875,0.0313 -0.63207,-0.054 -0.8309,-0.55639 -1.375,-0.71875 -0.66242,-0.11588 -1.35944,0.10128 -2.03125,0.0625 -0.5382,-0.0737 -1.05528,0.0455 -1.59375,0.0313 0.76409,-1.1233 1.44323,-2.44724 2.25,-3.375 1.3398,-1.24472 2.98696,-2.48222 4.03125,-2.96875 1.39189,-0.64849 2.38459,0.15819 4.21875,-0.75 -2.03978,0.86066 -3.28052,-0.27726 -5.6875,1.125 -1.32634,0.76242 -2.21246,1.18656 -2.96875,1.71875 -1.58811,-1.34506 -0.70451,-6.06166 -2.09375,-8.78125 0.0827,-0.0958 0.125,-0.20732 0.125,-0.34375 1.54418,-0.65828 3.85538,-0.62579 5.34375,-0.34375 1.80941,0.34285 1.14282,0.69721 2.0625,0.75 0.8083,0.0464 2.21338,0.8335 3.34375,1.28125 1.22261,0.48428 1.53834,-0.0211 3.84375,1.21875 -1.65524,-1.12051 -3.34913,-1.13223 -3.59375,-1.40625 0.7457,-2.42944 3.79609,-2.88736 5.0625,-5.1875 -1.76435,2.59269 -4.05299,2.33985 -5.28125,5.09375 -1.22654,-0.34407 -2.44261,-0.89298 -3.0625,-1.28125 1.49793,-1.8748 -1.68651,-7.18964 -1.78125,-9 -0.11059,2.41309 2.83075,5.84705 1.25,8.8125 -3.16781,-1.25867 -5.75024,-0.78886 -7.4375,-0.40625 -0.0628,-0.0425 -0.14103,-0.0804 -0.21875,-0.0937 -1.38487,-2.04113 -0.95284,-3.54566 -2.5,-5.78125 0.85981,2.03517 1.03075,4.21454 1.875,5.96875 0.0201,0.0419 0.0431,0.0827 0.0625,0.125 -0.0386,0.0749 -0.0625,0.16002 -0.0625,0.25 0,0.22641 0.14749,0.41694 0.34375,0.5 0.92516,2.72077 0.58242,6.13236 0.8125,8.65625 -2.33949,-3.83923 -5.15618,-3.90227 -6.78125,-10.25 1.34906,7.76942 7.42824,8.46368 5.875,13.34375 -1.18921,1.23925 -3.11722,3.33597 -4.03125,4.25 -0.76285,0.67868 -1.59581,1.26835 -2.4375,1.84375 -0.87643,0.65389 -0.79689,1.13319 -1.71875,1.71875 -0.68733,0.46263 -2.24808,0.96188 -2.84375,1.4375 -0.77914,0.62211 -1.21036,1.46972 -1.875,2.3125 -0.35417,0.47917 -1.23958,0.61458 -1.5625,1.25 -0.32894,-1.33239 -1.28622,-3.80883 -3.09375,-4.84375 -0.89341,-0.51154 -1.89485,-1.4387 -2.625,-2.21875 -0.16244,-0.16986 -0.32136,-0.31728 -0.5,-0.46875 -1.2415,-3.00067 -1.37508,-6.70906 -1.65625,-10.0625 0.097,-0.0922 0.17429,-0.19076 0.28125,-0.28125 0.53668,-0.40499 1.03141,-0.85932 1.9375,-1.125 1.00361,-0.19673 1.64252,0.33535 2.6875,0.1875 1.01534,-0.18272 1.85205,-1.06453 2.84375,-1.375 0.83379,-0.32538 2.07498,-0.13823 3.0625,-0.3125 -1.14808,0.056 -2.26509,-0.14799 -3.375,0.1875 -0.91936,0.16193 -1.46612,1.11655 -2.34375,1.15625 -1.0076,0.1187 -1.63048,-0.40688 -2.59375,-0.21875 -0.80343,0.11401 -1.45915,0.39725 -2.21875,0.5625 -0.096,-0.0611 -0.4129,0.0496 -0.40625,-0.0625 -0.0616,-0.56577 -0.12813,-1.12745 -0.21875,-1.65625 -0.06,-3.89672 4.27346,-2.57015 5.15625,-3.25 0.58133,-0.44768 3.85453,-3.04945 6.75,-3.65625 -3.43517,0.61964 -6.89928,3.23605 -6.5625,2.40625 0.43039,-1.06043 0.76035,-7.91801 2.84375,-10.375 -3.23258,3.13778 -1.93744,10.59758 -4.28125,11.3125 -1.14933,0.35058 -3.94816,-0.0106 -4.4375,1.375 -0.10489,-0.29885 -0.21204,-0.57258 -0.34375,-0.84375 -0.84843,-1.74675 -3.20807,-3.66898 -5.71875,-5.84375 -0.24719,-1.22331 1.70858,-1.61353 1.90625,-2.125 0.15296,-0.39577 2.42162,-2.38883 3,-3.6875 -1.08179,1.42622 -3.17911,3.22298 -3.28125,2.71875 -0.13053,-0.6444 -2.23183,-4.07697 -1.96875,-5.90625 -0.63373,2.51321 2.51245,5.71105 1.53125,6.78125 -0.40432,0.441 -1.56827,1.00067 -1.8125,1.65625 -1.21315,-1.06576 -2.41928,-2.18039 -3.53125,-3.40625 -3.25105,-3.58405 -5.7455,-2.03174 -14.3125,-5.65625 z"/></clipPath><clipPath id="clipPath25615" clipPathUnits="userSpaceOnUse"><path style="color:#000;clip-rule:nonzero;display:inline;overflow:visible;visibility:visible;opacity:1;isolation:auto;mix-blend-mode:normal;color-interpolation:sRGB;color-interpolation-filters:linearRGB;solid-color:#000;solid-opacity:1;fill:url(#linearGradient25619);fill-opacity:1;fill-rule:evenodd;stroke:none;stroke-width:.44982275;stroke-linecap:butt;stroke-linejoin:miter;stroke-miterlimit:4;stroke-dasharray:none;stroke-dashoffset:0;stroke-opacity:1;marker:none;marker-start:none;marker-mid:none;marker-end:none;paint-order:normal;color-rendering:auto;image-rendering:auto;shape-rendering:auto;text-rendering:auto;enable-background:accumulate" id="path25617" d="m -112.80432,90.198571 h -107.09102 v 94.304169 h 87.8387 c 1.01994,-9.7e-4 1.99786,-0.40391 2.71911,-1.12059 h 0.004 l 15.40185,-15.30619 -9.8e-4,-0.003 c 0.72175,-0.71685 1.12766,-1.68909 1.12857,-2.70316 z"/></clipPath><linearGradient id="linearGradient25619" x1="120" x2="120" y1="44.5" y2="-481" gradientTransform="matrix(0,0.23915927,-0.24065398,0,-160.93511,80.46846)" gradientUnits="userSpaceOnUse" xlink:href="#linearGradient8294"/><clipPath id="clipPath25615-3" clipPathUnits="userSpaceOnUse"><path style="color:#000;clip-rule:nonzero;display:inline;overflow:visible;visibility:visible;opacity:1;isolation:auto;mix-blend-mode:normal;color-interpolation:sRGB;color-interpolation-filters:linearRGB;solid-color:#000;solid-opacity:1;fill:url(#linearGradient25619);fill-opacity:1;fill-rule:evenodd;stroke:none;stroke-width:.44982275;stroke-linecap:butt;stroke-linejoin:miter;stroke-miterlimit:4;stroke-dasharray:none;stroke-dashoffset:0;stroke-opacity:1;marker:none;marker-start:none;marker-mid:none;marker-end:none;paint-order:normal;color-rendering:auto;image-rendering:auto;shape-rendering:auto;text-rendering:auto;enable-background:accumulate" id="path25617-0" d="m -112.80432,90.198571 h -107.09102 v 94.304169 h 87.8387 c 1.01994,-9.7e-4 1.99786,-0.40391 2.71911,-1.12059 h 0.004 l 15.40185,-15.30619 -9.8e-4,-0.003 c 0.72175,-0.71685 1.12766,-1.68909 1.12857,-2.70316 z"/></clipPath><clipPath id="clipPath4719-3-6" clipPathUnits="userSpaceOnUse"><rect style="fill:#000;fill-opacity:1;stroke:none" id="rect4721-9-5" width="92" height="56" x="84" y="428"/></clipPath><clipPath id="clipPath4396-4-0" clipPathUnits="userSpaceOnUse"><path style="display:inline;fill:#000;fill-opacity:1;fill-rule:evenodd;stroke:none" id="path4398-9-4" d="m 79.40625,432.78125 c 4.95211,3.15625 10.09773,2.36004 13.8125,6.28125 0.20853,0.22012 0.41543,0.41335 0.625,0.625 -0.91227,0.0132 -3.36173,-0.64471 -5.8125,-0.21875 -2.03999,0.35455 -4.02605,-0.55433 -6.4375,1.03125 2.8086,-1.17696 5.05872,-0.41657 7.3125,-0.71875 1.75702,-0.23558 4.85952,0.60574 6.84375,1.75 3.19912,2.92004 6.06811,5.00342 6.65625,7.03125 0.75156,2.59125 0.93062,10.17703 0.96875,13.3125 -0.33977,-0.27402 -0.66062,-0.5645 -0.96875,-0.875 -0.68906,-0.71321 -1.34766,-1.47779 -2.15625,-2.0625 -0.77698,-0.56343 -1.58267,-1.08104 -2.21875,-1.8125 -0.66486,-0.8969 -1.44709,-1.69706 -2.1875,-2.53125 -0.70592,-0.72238 -1.45646,-1.39671 -2.125,-2.15625 -0.61554,-0.75741 -1.33614,-1.42319 -2.1875,-1.90625 -0.77581,-0.47272 -1.5828,-1.00327 -2.53125,-0.96875 -0.47451,-0.0791 -0.95887,-0.19127 -1.3125,-0.53125 -0.59769,-0.44175 -1.32432,-0.71337 -2.0625,-0.78125 l 0.125,0.0625 c 0.9109,0.24481 1.68179,0.8215 2.40625,1.40625 0.82464,0.41098 1.87022,0.34115 2.53125,1.0625 0.70456,0.74408 1.76065,1.14357 2.28125,2.0625 0.20942,0.35023 0.44974,0.66458 0.71875,0.96875 -0.70331,0.27896 -1.37908,1.26201 -1.875,1.59375 -1.29807,0.86836 -4.60919,-2.74752 -7.5,-2.40625 2.08544,-0.0469 5.75517,2.50843 6.46875,2.71875 0.55836,0.16459 -1.66639,2.10357 -3.375,3.03125 1.51744,-0.43138 3.97727,-2.51723 4.4375,-2.625 0.57771,-0.13527 1.16213,-1.94726 2.4375,-1.6875 0.26687,0.28232 0.53984,0.57255 0.78125,0.875 0.69303,0.78032 1.38577,1.54029 1.96875,2.40625 0.85162,1.06177 1.95474,1.87787 2.875,2.875 0.7471,0.7803 1.39506,1.64575 2.09375,2.46875 0.93323,1.12487 1.87928,2.25013 2.8125,3.375 0.42144,0.87267 1.03174,1.61036 1.65625,2.34375 0.66563,0.75999 1.30957,1.55781 1.8125,2.4375 0.59909,0.89138 1.1135,1.84141 1.5,2.84375 0.30827,0.94828 0.48395,1.92145 0.625,2.90625 0.19051,1.03702 0.34872,2.0991 0.25,3.15625 -0.14578,1.5715 -0.30651,3.14619 -0.4375,4.71875 -0.0217,0.7843 -0.12135,1.62135 0.25,2.34375 0.88575,0.56065 1.94401,0.69175 2.96875,0.75 0.86591,-0.0236 1.72648,-0.22461 2.46875,-0.6875 0.31904,-0.16231 0.63392,-0.49478 0.46875,-0.875 -0.18667,-1.01745 -0.40295,-2.03142 -0.5,-3.0625 -0.1344,-1.15271 -0.25974,-2.31102 -0.34375,-3.46875 -0.099,-1.09509 -0.14847,-2.18257 -0.1875,-3.28125 0.0322,-1.00198 0.0767,-2.03591 0.375,-3 0.32471,-0.94223 0.65194,-2.18347 1.25,-2.96875 0.85084,-1.04281 2.1162,-1.51624 3.09375,-2.4375 0.82415,-0.71738 1.68863,-1.38982 2.46875,-2.15625 0.75889,-0.71303 1.63356,-2.17099 2.3125,-2.96875 0.7624,-0.80646 1.48992,-0.89854 2.21875,-1.625 0.18969,-0.12973 0.38766,-0.25786 0.59375,-0.375 0.52915,-0.26792 1.04107,-0.57592 1.71875,-0.625 0.70029,0.0397 1.39399,-0.19008 2.09375,-0.0937 0.70007,0.0559 1.02933,0.72896 1.78125,0.65625 0.66535,-0.12321 1.35216,-0.12021 2.03125,-0.0625 -0.21541,-0.0835 -0.44604,-0.15445 -0.6875,-0.1875 -0.48981,-0.0904 -0.98368,0.0758 -1.46875,0.0313 -0.63207,-0.054 -0.8309,-0.55639 -1.375,-0.71875 -0.66242,-0.11588 -1.35944,0.10128 -2.03125,0.0625 -0.5382,-0.0737 -1.05528,0.0455 -1.59375,0.0313 0.76409,-1.1233 1.44323,-2.44724 2.25,-3.375 1.3398,-1.24472 2.98696,-2.48222 4.03125,-2.96875 1.39189,-0.64849 2.38459,0.15819 4.21875,-0.75 -2.03978,0.86066 -3.28052,-0.27726 -5.6875,1.125 -1.32634,0.76242 -2.21246,1.18656 -2.96875,1.71875 -1.58811,-1.34506 -0.70451,-6.06166 -2.09375,-8.78125 0.0827,-0.0958 0.125,-0.20732 0.125,-0.34375 1.54418,-0.65828 3.85538,-0.62579 5.34375,-0.34375 1.80941,0.34285 1.14282,0.69721 2.0625,0.75 0.8083,0.0464 2.21338,0.8335 3.34375,1.28125 1.22261,0.48428 1.53834,-0.0211 3.84375,1.21875 -1.65524,-1.12051 -3.34913,-1.13223 -3.59375,-1.40625 0.7457,-2.42944 3.79609,-2.88736 5.0625,-5.1875 -1.76435,2.59269 -4.05299,2.33985 -5.28125,5.09375 -1.22654,-0.34407 -2.44261,-0.89298 -3.0625,-1.28125 1.49793,-1.8748 -1.68651,-7.18964 -1.78125,-9 -0.11059,2.41309 2.83075,5.84705 1.25,8.8125 -3.16781,-1.25867 -5.75024,-0.78886 -7.4375,-0.40625 -0.0628,-0.0425 -0.14103,-0.0804 -0.21875,-0.0937 -1.38487,-2.04113 -0.95284,-3.54566 -2.5,-5.78125 0.85981,2.03517 1.03075,4.21454 1.875,5.96875 0.0201,0.0419 0.0431,0.0827 0.0625,0.125 -0.0386,0.0749 -0.0625,0.16002 -0.0625,0.25 0,0.22641 0.14749,0.41694 0.34375,0.5 0.92516,2.72077 0.58242,6.13236 0.8125,8.65625 -2.33949,-3.83923 -5.15618,-3.90227 -6.78125,-10.25 1.34906,7.76942 7.42824,8.46368 5.875,13.34375 -1.18921,1.23925 -3.11722,3.33597 -4.03125,4.25 -0.76285,0.67868 -1.59581,1.26835 -2.4375,1.84375 -0.87643,0.65389 -0.79689,1.13319 -1.71875,1.71875 -0.68733,0.46263 -2.24808,0.96188 -2.84375,1.4375 -0.77914,0.62211 -1.21036,1.46972 -1.875,2.3125 -0.35417,0.47917 -1.23958,0.61458 -1.5625,1.25 -0.32894,-1.33239 -1.28622,-3.80883 -3.09375,-4.84375 -0.89341,-0.51154 -1.89485,-1.4387 -2.625,-2.21875 -0.16244,-0.16986 -0.32136,-0.31728 -0.5,-0.46875 -1.2415,-3.00067 -1.37508,-6.70906 -1.65625,-10.0625 0.097,-0.0922 0.17429,-0.19076 0.28125,-0.28125 0.53668,-0.40499 1.03141,-0.85932 1.9375,-1.125 1.00361,-0.19673 1.64252,0.33535 2.6875,0.1875 1.01534,-0.18272 1.85205,-1.06453 2.84375,-1.375 0.83379,-0.32538 2.07498,-0.13823 3.0625,-0.3125 -1.14808,0.056 -2.26509,-0.14799 -3.375,0.1875 -0.91936,0.16193 -1.46612,1.11655 -2.34375,1.15625 -1.0076,0.1187 -1.63048,-0.40688 -2.59375,-0.21875 -0.80343,0.11401 -1.45915,0.39725 -2.21875,0.5625 -0.096,-0.0611 -0.4129,0.0496 -0.40625,-0.0625 -0.0616,-0.56577 -0.12813,-1.12745 -0.21875,-1.65625 -0.06,-3.89672 4.27346,-2.57015 5.15625,-3.25 0.58133,-0.44768 3.85453,-3.04945 6.75,-3.65625 -3.43517,0.61964 -6.89928,3.23605 -6.5625,2.40625 0.43039,-1.06043 0.76035,-7.91801 2.84375,-10.375 -3.23258,3.13778 -1.93744,10.59758 -4.28125,11.3125 -1.14933,0.35058 -3.94816,-0.0106 -4.4375,1.375 -0.10489,-0.29885 -0.21204,-0.57258 -0.34375,-0.84375 -0.84843,-1.74675 -3.20807,-3.66898 -5.71875,-5.84375 -0.24719,-1.22331 1.70858,-1.61353 1.90625,-2.125 0.15296,-0.39577 2.42162,-2.38883 3,-3.6875 -1.08179,1.42622 -3.17911,3.22298 -3.28125,2.71875 -0.13053,-0.6444 -2.23183,-4.07697 -1.96875,-5.90625 -0.63373,2.51321 2.51245,5.71105 1.53125,6.78125 -0.40432,0.441 -1.56827,1.00067 -1.8125,1.65625 -1.21315,-1.06576 -2.41928,-2.18039 -3.53125,-3.40625 -3.25105,-3.58405 -5.7455,-2.03174 -14.3125,-5.65625 z"/></clipPath><clipPath id="clipPath7488-1-7-8" clipPathUnits="userSpaceOnUse"><path style="color:#000;clip-rule:nonzero;display:inline;overflow:visible;visibility:visible;opacity:1;isolation:auto;mix-blend-mode:normal;color-interpolation:sRGB;color-interpolation-filters:linearRGB;solid-color:#000;solid-opacity:1;fill:none;fill-opacity:1;fill-rule:evenodd;stroke:#000;stroke-width:1.875;stroke-linecap:butt;stroke-linejoin:miter;stroke-miterlimit:4;stroke-dasharray:none;stroke-dashoffset:0;stroke-opacity:1;marker:none;marker-start:none;marker-mid:none;marker-end:none;paint-order:normal;color-rendering:auto;image-rendering:auto;shape-rendering:auto;text-rendering:auto;enable-background:accumulate" id="path7490-2-8-0" d="m 120,-200 v 445 h 315 v -365 a 16,16 0 0 0 -4.68555,-11.29883 v -0.0156 l -64,-64 -0.0117,0.004 A 16,16 0 0 0 355,-200 Z"/></clipPath><clipPath id="clipPath5492-4-7-9-8" clipPathUnits="userSpaceOnUse"><path style="color:#000;clip-rule:nonzero;display:inline;overflow:visible;visibility:visible;opacity:1;isolation:auto;mix-blend-mode:normal;color-interpolation:sRGB;color-interpolation-filters:linearRGB;solid-color:#000;solid-opacity:1;fill:none;fill-opacity:1;fill-rule:evenodd;stroke:#000;stroke-width:1;stroke-linecap:butt;stroke-linejoin:miter;stroke-miterlimit:4;stroke-dasharray:none;stroke-dashoffset:0;stroke-opacity:1;marker:none;marker-start:none;marker-mid:none;marker-end:none;paint-order:normal;color-rendering:auto;image-rendering:auto;shape-rendering:auto;text-rendering:auto;enable-background:accumulate" id="path5494-5-0-1-7" d="m 366.31445,-195.31445 v 0.0156 A 16,16 0 0 1 371,-184 v 48 h 48 a 16,16 0 0 1 11.30078,4.68555 h 0.0137 l -64,-64 z"/></clipPath><linearGradient id="linearGradient42162-3" x1="88.448" x2="88.448" y1="57.249" y2="24.163" gradientTransform="matrix(6.2866243,0,0,6.2866243,-503.03899,-252.04302)" gradientUnits="userSpaceOnUse" xlink:href="#linearGradient42158"/><radialGradient id="radialGradient1370" cx="105.224" cy="148.63" r="160" fx="105.224" fy="148.63" gradientTransform="matrix(-0.84951661,-2.088811,-1.1326494,1.1646366,309.8606,276.6937)" gradientUnits="userSpaceOnUse" xlink:href="#linearGradient1634"/><linearGradient id="linearGradient1634"><stop id="stop1630" offset="0" style="stop-color:#e0371b;stop-opacity:1"/><stop id="stop1632" offset="1" style="stop-color:#f6d32d;stop-opacity:1"/></linearGradient><radialGradient id="radialGradient1388" cx="352.98" cy="275.93" r="192" fx="352.98" fy="275.93" gradientTransform="matrix(0.92527368,1.6026212,0.97903709,-0.56524733,-184.62409,-188.72426)" gradientUnits="userSpaceOnUse" xlink:href="#linearGradient1352"/><linearGradient id="linearGradient1352"><stop style="stop-color:#50db81;stop-opacity:1" id="stop1348" offset="0"/><stop style="stop-color:#8ff0a4;stop-opacity:.00414938" id="stop1350" offset="1"/></linearGradient><radialGradient id="radialGradient1638" cx="527.624" cy="194.651" r="192" fx="527.624" fy="194.651" gradientTransform="matrix(0,-1.395307,-1.4234719,1.3355771e-7,681.2048,934.1969)" gradientUnits="userSpaceOnUse" xlink:href="#linearGradient1644"/><linearGradient id="linearGradient1644"><stop id="stop1640" offset="0" style="stop-color:#4a86cf;stop-opacity:1"/><stop id="stop1642" offset="1" style="stop-color:#87bae1;stop-opacity:0"/></linearGradient><filter style="color-interpolation-filters:sRGB" id="filter1527" width="1.021" height="1.027" x="-.011" y="-.014"><feGaussianBlur id="feGaussianBlur1529" stdDeviation="2.001"/></filter><radialGradient id="radialGradient1570" cx="105.224" cy="148.63" r="160" fx="105.224" fy="148.63" gradientTransform="matrix(-0.08015595,-0.19708924,-0.1068709,0.10988899,573.3662,-188.35357)" gradientUnits="userSpaceOnUse" xlink:href="#linearGradient1634"/><radialGradient id="radialGradient1572" cx="352.98" cy="275.93" r="192" fx="352.98" fy="275.93" gradientTransform="matrix(0.08730394,0.15121491,0.09237677,-0.05333378,526.70922,-260.57434)" gradientUnits="userSpaceOnUse" xlink:href="#linearGradient1352"/><radialGradient id="radialGradient1574" cx="527.624" cy="194.651" r="192" fx="527.624" fy="194.651" gradientTransform="matrix(0,-0.13165385,-0.1343114,1.2601808e-8,608.4043,-126.31494)" gradientUnits="userSpaceOnUse" xlink:href="#linearGradient1644"/><linearGradient id="linearGradient1657" x1="569.784" x2="569.784" y1="-224.304" y2="-195.679" gradientUnits="userSpaceOnUse" xlink:href="#linearGradient1580"/><radialGradient id="radialGradient1673" cx="105.224" cy="148.63" r="160" fx="105.224" fy="148.63" gradientTransform="matrix(-0.05219838,-0.12834654,-0.06959543,0.07156085,570.7009,-127.82747)" gradientUnits="userSpaceOnUse" xlink:href="#linearGradient1634"/><radialGradient id="radialGradient1675" cx="352.98" cy="275.93" r="192" fx="352.98" fy="275.93" gradientTransform="matrix(0.05685322,0.09847271,0.06015671,-0.03473151,540.3174,-174.85839)" gradientUnits="userSpaceOnUse" xlink:href="#linearGradient1352"/><radialGradient id="radialGradient1677" cx="527.624" cy="194.651" r="192" fx="527.624" fy="194.651" gradientTransform="matrix(0,-0.08573435,-0.08746495,0,593.51806,-87.427316)" gradientUnits="userSpaceOnUse" xlink:href="#linearGradient1644"/><linearGradient id="linearGradient1809" x1="569.784" x2="569.784" y1="-224.304" y2="-195.679" gradientTransform="matrix(0.6512103,0,0,0.6512103,197.31891,-5.1697265)" gradientUnits="userSpaceOnUse" xlink:href="#linearGradient1580"/><radialGradient id="radialGradient1825" cx="105.224" cy="148.63" r="160" fx="105.224" fy="148.63" gradientTransform="matrix(-0.03918173,-0.09634099,-0.05224052,0.05371583,565.67084,-86.48206)" gradientUnits="userSpaceOnUse" xlink:href="#linearGradient1634"/><radialGradient id="radialGradient1827" cx="352.98" cy="275.93" r="192" fx="352.98" fy="275.93" gradientTransform="matrix(0.04267583,0.07391674,0.04515552,-0.02607056,542.86402,-121.78504)" gradientUnits="userSpaceOnUse" xlink:href="#linearGradient1352"/><radialGradient id="radialGradient1829" cx="527.624" cy="194.651" r="192" fx="527.624" fy="194.651" gradientTransform="matrix(0,-0.06435493,-0.06565394,0,582.7981,-56.15643)" gradientUnits="userSpaceOnUse" xlink:href="#linearGradient1644"/><linearGradient id="linearGradient2045" x1="569.784" x2="569.784" y1="-224.304" y2="-195.679" gradientTransform="matrix(0.48881901,0,0,0.48881901,285.39852,5.5887191)" gradientUnits="userSpaceOnUse" xlink:href="#linearGradient1580"/><radialGradient id="radialGradient2061" cx="105.224" cy="148.63" r="160" fx="105.224" fy="148.63" gradientTransform="matrix(-0.02786254,-0.06850907,-0.03714878,0.03819788,562.20796,-50.0439)" gradientUnits="userSpaceOnUse" xlink:href="#linearGradient1634"/><radialGradient id="radialGradient2063" cx="352.98" cy="275.93" r="192" fx="352.98" fy="275.93" gradientTransform="matrix(0.03034722,0.05256296,0.03211054,-0.01853904,545.98979,-75.148215)" gradientUnits="userSpaceOnUse" xlink:href="#linearGradient1352"/><radialGradient id="radialGradient2065" cx="527.624" cy="194.651" r="192" fx="527.624" fy="194.651" gradientTransform="matrix(0,-0.04576346,-0.04668719,0,574.38734,-28.479028)" gradientUnits="userSpaceOnUse" xlink:href="#linearGradient1644"/><linearGradient id="linearGradient2277" x1="569.784" x2="569.784" y1="-224.304" y2="-195.679" gradientTransform="matrix(0.34760426,0,0,0.34760426,362.90341,15.428587)" gradientUnits="userSpaceOnUse" xlink:href="#linearGradient1580"/></defs><g id="layer1" transform="translate(0,300)" style="display:inline"><g id="layer6" style="display:none"><rect id="rect6284" width="48" height="48" x="546" y="-235" style="display:inline;overflow:visible;visibility:visible;fill:#eeeeec;fill-opacity:1;fill-rule:nonzero;stroke:none;stroke-width:2;marker:none;enable-background:accumulate"/><rect id="rect6592" width="32" height="32" x="553" y="-159" style="display:inline;overflow:visible;visibility:visible;fill:#eeeeec;fill-opacity:1;fill-rule:nonzero;stroke:none;stroke-width:2;marker:none;enable-background:accumulate"/><rect id="rect6749" width="22" height="22" x="553" y="-108" style="display:inline;overflow:visible;visibility:visible;fill:#eeeeec;fill-opacity:1;fill-rule:nonzero;stroke:none;stroke-width:2;marker:none;enable-background:accumulate"/><rect id="rect6833" width="16" height="16" x="553" y="-66" style="display:inline;overflow:visible;visibility:visible;fill:#eeeeec;fill-opacity:1;fill-rule:nonzero;stroke:none;stroke-width:2;marker:none;enable-background:accumulate"/><rect id="rect8104" width="24" height="24" x="552" y="-109" style="display:inline;overflow:visible;visibility:visible;fill:#eeeeec;fill-opacity:1;fill-rule:nonzero;stroke:none;stroke-width:2;marker:none;enable-background:accumulate"/><rect id="rect6282" width="512" height="512" x="20" y="-234" style="display:inline;overflow:visible;visibility:visible;fill:#eeeeec;fill-opacity:1;fill-rule:nonzero;stroke:none;stroke-width:4;marker:none;enable-background:accumulate"/><text id="context" x="30.971" y="-263.486" xml:space="preserve" style="font-style:normal;font-weight:400;font-size:18.30070686px;font-family:'Bitstream Vera Sans';display:inline;fill:#000;fill-opacity:1;stroke:none;enable-background:new"><tspan id="tspan2716" x="30.971" y="-263.486">mimetypes</tspan></text><text id="icon-name" x="201.971" y="-263.486" xml:space="preserve" style="font-style:normal;font-variant:normal;font-weight:700;font-stretch:normal;font-size:18.30070686px;line-height:125%;font-family:'Droid Sans';-inkscape-font-specification:'Droid Sans Bold';text-align:start;writing-mode:lr-tb;text-anchor:start;display:inline;fill:#000;fill-opacity:1;stroke:none;enable-background:new"><tspan id="tspan3023" x="201.971" y="-263.486">image-x-generic</tspan></text><path id="path13807" d="M 20.125,-234 V 278 H 532 V -234 H 496 V 242 H 56.125 v -476 z" style="display:inline;overflow:visible;visibility:visible;opacity:.4;fill:#729fcf;fill-opacity:1;fill-rule:nonzero;stroke:none;stroke-width:2;marker:none;enable-background:accumulate"/></g><g id="layer2" style="display:inline"><g id="g1456"><path style="opacity:.4;vector-effect:none;fill:#000;fill-opacity:1;stroke:none;stroke-width:.5;stroke-linecap:butt;stroke-linejoin:miter;stroke-miterlimit:4;stroke-dasharray:none;stroke-dashoffset:0;stroke-opacity:1;marker:none;marker-start:none;marker-mid:none;marker-end:none;paint-order:normal;filter:url(#filter1527)" id="path1525" d="m 84.125,-121.2769 h 384 c 17.728,0 32,14.272 32,32 V 111 L 380.1247,231 H 84.125 c -17.728,0 -32,-14.272 -32,-32 V -89.2769 c 0,-17.728 14.272,-32 32,-32 z"/><path id="rect1003" d="m 84.125,-122.2769 h 384 c 17.728,0 32,14.272 32,32 V 110 L 380.1247,230 H 84.125 c -17.728,0 -32,-14.272 -32,-32 V -90.2769 c 0,-17.728 14.272,-32 32,-32 z" style="opacity:1;vector-effect:none;fill:#f6f5f4;fill-opacity:1;stroke:none;stroke-width:.5;stroke-linecap:butt;stroke-linejoin:miter;stroke-miterlimit:4;stroke-dasharray:none;stroke-dashoffset:0;stroke-opacity:1;marker:none;marker-start:none;marker-mid:none;marker-end:none;paint-order:normal"/><path style="display:inline;opacity:1;vector-effect:none;fill:#deddda;fill-opacity:1;stroke:none;stroke-width:.5;stroke-linecap:butt;stroke-linejoin:round;stroke-miterlimit:4;stroke-dasharray:none;stroke-dashoffset:0;stroke-opacity:1;enable-background:new" id="rect26812-9" d="m 500.12532,110.4996 -88.00028,4e-4 c -17.7284,0 -31.9998,14.2716 -31.99992,31.9996 L 380.125,230 Z"/><path style="opacity:1;vector-effect:none;fill:#f6f5f4;fill-opacity:1;stroke:url(#linearGradient1657);stroke-width:1;stroke-linecap:butt;stroke-linejoin:miter;stroke-miterlimit:4;stroke-dasharray:none;stroke-dashoffset:0;stroke-opacity:1;marker:none;marker-start:none;marker-mid:none;marker-end:none;paint-order:normal" id="path1560" d="m 551.625,-226.4442 h 36.78299 c 1.71247,0 3.08563,1.37884 3.09116,3.09135 v 19.34719 l -11.59225,11.59245 H 551.625 c -1.71247,0 -3.09133,-1.37867 -3.09133,-3.09136 v -27.84828 c 0,-1.71252 1.37886,-3.09135 3.09133,-3.09135 z"/><path id="path1562" d="m 590.87425,-204.01672 h -7.99362 c -1.6105,0 -2.90684,1.29632 -2.90684,2.90686 v 7.94821 z" style="display:inline;opacity:1;vector-effect:none;fill:#deddda;fill-opacity:1;stroke:none;stroke-width:.49999997;stroke-linecap:butt;stroke-linejoin:round;stroke-miterlimit:4;stroke-dasharray:none;stroke-dashoffset:0;stroke-opacity:1;enable-background:new"/><path id="path1659" d="m 556.5428,-152.49991 h 23.95347 c 1.11518,0 2.01299,0.89792 2.01299,2.01312 v 12.46651 l -7.54899,7.54913 H 556.5428 c -1.11518,0 -2.01311,-0.89781 -2.01311,-2.01313 v -18.00251 c 0,-1.11521 0.89793,-2.01312 2.01311,-2.01312 z" style="opacity:1;vector-effect:none;fill:#f6f5f4;fill-opacity:1;stroke:url(#linearGradient1809);stroke-width:.99999994;stroke-linecap:butt;stroke-linejoin:miter;stroke-miterlimit:4;stroke-dasharray:none;stroke-dashoffset:0;stroke-opacity:1;marker:none;marker-start:none;marker-mid:none;marker-end:none;paint-order:normal"/><path style="display:inline;opacity:1;vector-effect:none;fill:#deddda;fill-opacity:1;stroke:none;stroke-width:.49999994;stroke-linecap:butt;stroke-linejoin:round;stroke-miterlimit:4;stroke-dasharray:none;stroke-dashoffset:0;stroke-opacity:1;enable-background:new" id="path1661" d="m 582.10233,-138.02748 h -5.20554 c -1.04878,0 -1.89296,0.84418 -1.89296,1.89298 v 5.17595 z"/><path style="opacity:1;vector-effect:none;fill:#f6f5f4;fill-opacity:1;stroke:url(#linearGradient2045);stroke-width:1;stroke-linecap:butt;stroke-linejoin:miter;stroke-miterlimit:4;stroke-dasharray:none;stroke-dashoffset:0;stroke-opacity:1;marker:none;marker-start:none;marker-mid:none;marker-end:none;paint-order:normal" id="path1811" d="m 555.04331,-105.48818 h 17.98026 c 0.83708,0 1.51101,0.67401 1.51101,1.51111 v 9.843963 l -5.66652,5.666618 h -13.82475 c -0.83708,0 -1.51108,-0.673927 -1.51108,-1.511119 v -13.999462 c 0,-0.83712 0.674,-1.51111 1.51108,-1.51111 z"/><path id="path1813" d="m 573.71875,-93.976636 h -3.4604 c -0.69719,0 -1.25835,0.561172 -1.25835,1.258367 v 3.503296 z" style="display:inline;opacity:1;vector-effect:none;fill:#deddda;fill-opacity:1;stroke:none;stroke-width:.5;stroke-linecap:butt;stroke-linejoin:round;stroke-miterlimit:4;stroke-dasharray:none;stroke-dashoffset:0;stroke-opacity:1;enable-background:new"/><path id="path2047" d="m 554.58811,-63.496848 h 12.84845 c 0.59527,0 1.07451,0.479297 1.07451,1.074567 v 6.890767 l -4.02954,4.029592 h -9.89342 c -0.59526,0 -1.07455,-0.479237 -1.07455,-1.074572 v -9.845787 c 0,-0.595285 0.47929,-1.074567 1.07455,-1.074567 z" style="opacity:1;vector-effect:none;fill:#f6f5f4;fill-opacity:1;stroke:url(#linearGradient2277);stroke-width:1;stroke-linecap:butt;stroke-linejoin:miter;stroke-miterlimit:4;stroke-dasharray:none;stroke-dashoffset:0;stroke-opacity:1;marker:none;marker-start:none;marker-mid:none;marker-end:none;paint-order:normal"/><path style="display:inline;opacity:1;vector-effect:none;fill:#deddda;fill-opacity:1;stroke:none;stroke-width:.5;stroke-linecap:butt;stroke-linejoin:round;stroke-miterlimit:4;stroke-dasharray:none;stroke-dashoffset:0;stroke-opacity:1;enable-background:new" id="path2049" d="m 567.93092,-55.500002 h -2.55274 c -0.51434,0 -0.92828,0.413977 -0.92828,0.928301 v 2.584398 z"/></g><path style="display:inline;opacity:1;vector-effect:none;fill:url(#radialGradient1370);fill-opacity:1;stroke:none;stroke-width:.5;stroke-linecap:butt;stroke-linejoin:miter;stroke-miterlimit:4;stroke-dasharray:none;stroke-dashoffset:0;stroke-opacity:1;marker:none;marker-start:none;marker-mid:none;marker-end:none;paint-order:normal;enable-background:new" id="rect1007" d="m 84.125,-90 v 288 h 296 v -55.5 c 1.2e-4,-17.728 14.2716,-32 32,-32 h 56 V -90 Z"/><path style="display:inline;opacity:1;vector-effect:none;fill:url(#radialGradient1388);fill-opacity:1;stroke:none;stroke-width:.5;stroke-linecap:butt;stroke-linejoin:miter;stroke-miterlimit:4;stroke-dasharray:none;stroke-dashoffset:0;stroke-opacity:1;marker:none;marker-start:none;marker-mid:none;marker-end:none;paint-order:normal;enable-background:new" id="rect1338" d="M 84.125 210 L 84.125 498 L 380.125 498 L 380.125 442.5 C 380.12512 424.772 394.3966 410.5 412.125 410.5 L 468.125 410.5 L 468.125 210 L 84.125 210 z" transform="translate(0,-300)"/><path style="display:inline;opacity:1;vector-effect:none;fill:url(#radialGradient1638);fill-opacity:1;stroke:none;stroke-width:.5;stroke-linecap:butt;stroke-linejoin:miter;stroke-miterlimit:4;stroke-dasharray:none;stroke-dashoffset:0;stroke-opacity:1;marker:none;marker-start:none;marker-mid:none;marker-end:none;paint-order:normal;enable-background:new" id="rect1636" d="m 84.125,-90 v 288 h 296 v -55.5 c 1.2e-4,-17.728 14.2716,-32 32,-32 h 56 V -90 Z"/><rect id="rect1646" width="0" height="0" x="20.125" y="-326" transform="scale(1,-1)" style="opacity:.32000002;fill:#87bae1;fill-opacity:0;stroke:#3d3d3d;stroke-width:.5;stroke-linejoin:round;stroke-miterlimit:4;stroke-dasharray:none;stroke-opacity:1"/><rect style="opacity:.32000002;fill:#f7da50;fill-opacity:1;stroke:none;stroke-width:.5;stroke-linejoin:round;stroke-miterlimit:4;stroke-dasharray:none;stroke-opacity:1" id="rect1380" width="0" height="0" x="20.125" y="-186"/><rect id="rect9125-7-0-9" width="512" height="512" x="20.125" y="-234" style="display:inline;opacity:1;vector-effect:none;fill:none;fill-opacity:1;stroke:none;stroke-width:5;stroke-linecap:butt;stroke-linejoin:miter;stroke-miterlimit:4;stroke-dasharray:none;stroke-dashoffset:0;stroke-opacity:1;marker:none;marker-start:none;marker-mid:none;marker-end:none;paint-order:normal;enable-background:new"/><path id="path1564" d="m 552.06698,-222.95287 v 26.92421 h 27.929 v -4.98668 c 10e-6,-1.67274 0.99304,-3.01938 2.66578,-3.01938 h 5.28386 v -18.91815 z" style="display:inline;opacity:1;vector-effect:none;fill:url(#radialGradient1570);fill-opacity:1;stroke:none;stroke-width:.5;stroke-linecap:butt;stroke-linejoin:miter;stroke-miterlimit:4;stroke-dasharray:none;stroke-dashoffset:0;stroke-opacity:1;marker:none;marker-start:none;marker-mid:none;marker-end:none;paint-order:normal;enable-background:new"/><path id="path1566" d="m 552.06698,-222.95287 v 26.92421 h 27.929 v -4.98668 c 10e-6,-1.67274 0.99304,-3.01938 2.66578,-3.01938 h 5.28386 v -18.91815 z" style="display:inline;opacity:1;vector-effect:none;fill:url(#radialGradient1572);fill-opacity:1;stroke:none;stroke-width:.5;stroke-linecap:butt;stroke-linejoin:miter;stroke-miterlimit:4;stroke-dasharray:none;stroke-dashoffset:0;stroke-opacity:1;marker:none;marker-start:none;marker-mid:none;marker-end:none;paint-order:normal;enable-background:new"/><path id="path1568" d="m 552.06698,-222.95287 v 26.92421 h 27.929 v -4.98668 c 10e-6,-1.67274 0.99304,-3.01938 2.66578,-3.01938 h 5.28386 v -18.91815 z" style="display:inline;opacity:1;vector-effect:none;fill:url(#radialGradient1574);fill-opacity:1;stroke:none;stroke-width:.5;stroke-linecap:butt;stroke-linejoin:miter;stroke-miterlimit:4;stroke-dasharray:none;stroke-dashoffset:0;stroke-opacity:1;marker:none;marker-start:none;marker-mid:none;marker-end:none;paint-order:normal;enable-background:new"/><path style="display:inline;opacity:1;vector-effect:none;fill:url(#radialGradient1673);fill-opacity:1;stroke:none;stroke-width:.49999997;stroke-linecap:butt;stroke-linejoin:miter;stroke-miterlimit:4;stroke-dasharray:none;stroke-dashoffset:0;stroke-opacity:1;marker:none;marker-start:none;marker-mid:none;marker-end:none;paint-order:normal;enable-background:new" id="path1663" d="m 557.0074,-150.00534 v 17.00299 h 17.96668 v -3.02641 c 1e-5,-1.08932 0.64669,-1.96626 1.736,-1.96626 h 3.3083 v -12.01032 z"/><path style="display:inline;opacity:1;vector-effect:none;fill:url(#radialGradient1675);fill-opacity:1;stroke:none;stroke-width:.49999997;stroke-linecap:butt;stroke-linejoin:miter;stroke-miterlimit:4;stroke-dasharray:none;stroke-dashoffset:0;stroke-opacity:1;marker:none;marker-start:none;marker-mid:none;marker-end:none;paint-order:normal;enable-background:new" id="path1665" d="m 557.0074,-150.00534 v 17.00299 h 17.96668 v -3.02641 c 1e-5,-1.08932 0.64669,-1.96626 1.736,-1.96626 h 3.3083 v -12.01032 z"/><path style="display:inline;opacity:1;vector-effect:none;fill:url(#radialGradient1677);fill-opacity:1;stroke:none;stroke-width:.49999997;stroke-linecap:butt;stroke-linejoin:miter;stroke-miterlimit:4;stroke-dasharray:none;stroke-dashoffset:0;stroke-opacity:1;marker:none;marker-start:none;marker-mid:none;marker-end:none;paint-order:normal;enable-background:new" id="path1667" d="m 557.0074,-150.00534 v 17.00299 h 17.96668 v -3.02641 c 1e-5,-1.08932 0.64669,-1.96626 1.736,-1.96626 h 3.3083 v -12.01032 z"/><path id="path1815" d="m 556.01077,-102.95276 v 11.967552 h 12.97814 v -1.520417 c 2e-5,-0.81768 0.48544,-1.475938 1.30308,-1.475938 h 1.75411 v -8.971197 z" style="display:inline;opacity:1;vector-effect:none;fill:url(#radialGradient1825);fill-opacity:1;stroke:none;stroke-width:.5;stroke-linecap:butt;stroke-linejoin:miter;stroke-miterlimit:4;stroke-dasharray:none;stroke-dashoffset:0;stroke-opacity:1;marker:none;marker-start:none;marker-mid:none;marker-end:none;paint-order:normal;enable-background:new"/><path id="path1817" d="m 556.01077,-102.95276 v 11.967552 h 12.97814 v -1.520417 c 2e-5,-0.81768 0.48544,-1.475938 1.30308,-1.475938 h 1.75411 v -8.971197 z" style="display:inline;opacity:1;vector-effect:none;fill:url(#radialGradient1827);fill-opacity:1;stroke:none;stroke-width:.5;stroke-linecap:butt;stroke-linejoin:miter;stroke-miterlimit:4;stroke-dasharray:none;stroke-dashoffset:0;stroke-opacity:1;marker:none;marker-start:none;marker-mid:none;marker-end:none;paint-order:normal;enable-background:new"/><path id="path1819" d="m 556.01077,-102.95276 v 11.967552 h 12.97814 v -1.520417 c 2e-5,-0.81768 0.48544,-1.475938 1.30308,-1.475938 h 1.75411 v -8.971197 z" style="display:inline;opacity:1;vector-effect:none;fill:url(#radialGradient1829);fill-opacity:1;stroke:none;stroke-width:.5;stroke-linecap:butt;stroke-linejoin:miter;stroke-miterlimit:4;stroke-dasharray:none;stroke-dashoffset:0;stroke-opacity:1;marker:none;marker-start:none;marker-mid:none;marker-end:none;paint-order:normal;enable-background:new"/><path style="display:inline;opacity:1;vector-effect:none;fill:url(#radialGradient2061);fill-opacity:1;stroke:none;stroke-width:.5;stroke-linecap:butt;stroke-linejoin:miter;stroke-miterlimit:4;stroke-dasharray:none;stroke-dashoffset:0;stroke-opacity:1;marker:none;marker-start:none;marker-mid:none;marker-end:none;paint-order:normal;enable-background:new" id="path2051" d="m 555.02607,-61.975136 v 8.979001 h 9.46329 v -1.456182 c 10e-6,-0.581461 0.34518,-1.049558 0.9266,-1.049558 h 1.57552 v -6.473261 z"/><path style="display:inline;opacity:1;vector-effect:none;fill:url(#radialGradient2063);fill-opacity:1;stroke:none;stroke-width:.5;stroke-linecap:butt;stroke-linejoin:miter;stroke-miterlimit:4;stroke-dasharray:none;stroke-dashoffset:0;stroke-opacity:1;marker:none;marker-start:none;marker-mid:none;marker-end:none;paint-order:normal;enable-background:new" id="path2053" d="m 555.02607,-61.975136 v 8.979001 h 9.46329 v -1.456182 c 10e-6,-0.581461 0.34518,-1.049558 0.9266,-1.049558 h 1.57552 v -6.473261 z"/><path style="display:inline;opacity:1;vector-effect:none;fill:url(#radialGradient2065);fill-opacity:1;stroke:none;stroke-width:.5;stroke-linecap:butt;stroke-linejoin:miter;stroke-miterlimit:4;stroke-dasharray:none;stroke-dashoffset:0;stroke-opacity:1;marker:none;marker-start:none;marker-mid:none;marker-end:none;paint-order:normal;enable-background:new" id="path2055" d="m 555.02607,-61.975136 v 8.979001 h 9.46329 v -1.456182 c 10e-6,-0.581461 0.34518,-1.049558 0.9266,-1.049558 h 1.57552 v -6.473261 z"/></g></g><g id="layer4" transform="translate(0,300)" style="display:inline"><g id="layer5" style="display:none"><rect id="rect2685" width="48" height="48" x="1203" y="-235" style="display:inline;overflow:visible;visibility:visible;fill:#eeeeec;fill-opacity:1;fill-rule:nonzero;stroke:none;stroke-width:2;marker:none;enable-background:accumulate"/><rect id="rect2687" width="32" height="32" x="1210" y="-159" style="display:inline;overflow:visible;visibility:visible;fill:#eeeeec;fill-opacity:1;fill-rule:nonzero;stroke:none;stroke-width:2;marker:none;enable-background:accumulate"/><rect id="rect2689" width="22" height="22" x="1211" y="-108" style="display:inline;overflow:visible;visibility:visible;fill:#eeeeec;fill-opacity:1;fill-rule:nonzero;stroke:none;stroke-width:2;marker:none;enable-background:accumulate"/><rect id="rect2691" width="16" height="16" x="1211" y="-66" style="display:inline;overflow:visible;visibility:visible;fill:#eeeeec;fill-opacity:1;fill-rule:nonzero;stroke:none;stroke-width:2;marker:none;enable-background:accumulate"/><rect id="rect2693" width="24" height="24" x="1210" y="-109" style="display:inline;overflow:visible;visibility:visible;fill:#eeeeec;fill-opacity:1;fill-rule:nonzero;stroke:none;stroke-width:2;marker:none;enable-background:accumulate"/><rect id="rect2695" width="512" height="512" x="678" y="-234" style="display:inline;overflow:visible;visibility:visible;fill:#eeeeec;fill-opacity:1;fill-rule:nonzero;stroke:none;stroke-width:4;marker:none;enable-background:accumulate"/><text id="text2697" x="676.971" y="-263.486" xml:space="preserve" style="font-style:normal;font-weight:400;font-size:18.30070686px;font-family:'Bitstream Vera Sans';display:inline;fill:#000;fill-opacity:1;stroke:none;enable-background:new"><tspan id="tspan2699" x="676.971" y="-263.486">status</tspan></text><text id="text2701" x="1096.971" y="-263.486" xml:space="preserve" style="font-style:normal;font-variant:normal;font-weight:700;font-stretch:normal;font-size:18.30070686px;line-height:125%;font-family:'Droid Sans';-inkscape-font-specification:'Droid Sans Bold';text-align:start;writing-mode:lr-tb;text-anchor:start;display:inline;fill:#000;fill-opacity:1;stroke:none;enable-background:new"><tspan id="tspan2703" x="1096.971" y="-263.486">image-missing</tspan></text><path id="path13807-6" d="m 678,-234 v 512 h 511.875 v -512 h -36 V 242 H 714 v -476 z" style="display:inline;overflow:visible;visibility:visible;opacity:.4;fill:#729fcf;fill-opacity:1;fill-rule:nonzero;stroke:none;stroke-width:2;marker:none;enable-background:accumulate"/></g><g id="layer8"><use style="display:inline;enable-background:new" id="use1491" width="100%" height="100%" x="0" y="0" transform="translate(658)" xlink:href="#g1456"/><g style="display:inline;fill:#eeeeec;enable-background:new" id="g19746" transform="matrix(6.2866243,0,0,6.2866243,-1004.0696,-1620.6471)"><path style="color:#bebebe;display:inline;overflow:visible;visibility:visible;fill:#deddda;fill-opacity:1;fill-rule:nonzero;stroke:none;stroke-width:1.78124988;marker:none;enable-background:new" id="path18112" d="m 87.90625,40.09375 c -0.5255,-0.0286 -1.03823,0.28305 -1.4375,0.96875 l -6.25,11.59375 C 79.68528,53.61964 80.26697,55 81.3125,55 h 13.15625 c 0.98172,0 1.90311,-1.15939 1.21875,-2.34375 L 89.375,41.125 c -0.39872,-0.64617 -0.94325,-1.00262 -1.46875,-1.03125 z m 0.0625,3.9375 C 88.51323,44.01405 89.01724,44.51802 89,45.0625 V 49 c 0.007,0.52831 -0.47163,1 -1,1 -0.52836,0 -1.00747,-0.47169 -1,-1 v -3.9375 c -0.008,-0.4666 0.3541,-0.91253 0.8125,-1 0.0511,-0.0145 0.10345,-0.02495 0.15625,-0.03125 z M 88,51 c 0.552285,0 1,0.447715 1,1 0,0.552285 -0.447715,1 -1,1 -0.552285,0 -1,-0.447715 -1,-1 0,-0.552285 0.447715,-1 1,-1 z" transform="translate(221.0002,217)"/></g><g id="g2281" transform="matrix(0.93433841,0,0,0.93433841,939.35543,-458.14961)" style="display:inline;fill:#eeeeec;stroke-width:6.72842264;enable-background:new"><path id="path2279" d="m 87.90625,40.09375 c -0.5255,-0.0286 -1.03823,0.28305 -1.4375,0.96875 l -6.25,11.59375 C 79.68528,53.61964 80.26697,55 81.3125,55 h 13.15625 c 0.98172,0 1.90311,-1.15939 1.21875,-2.34375 L 89.375,41.125 c -0.39872,-0.64617 -0.94325,-1.00262 -1.46875,-1.03125 z m 0.0625,3.9375 C 88.51323,44.01405 89.01724,44.51802 89,45.0625 V 49 c 0.007,0.52831 -0.47163,1 -1,1 -0.52836,0 -1.00747,-0.47169 -1,-1 v -3.9375 c -0.008,-0.4666 0.3541,-0.91253 0.8125,-1 0.0511,-0.0145 0.10345,-0.02495 0.15625,-0.03125 z M 88,51 c 0.552285,0 1,0.447715 1,1 0,0.552285 -0.447715,1 -1,1 -0.552285,0 -1,-0.447715 -1,-1 0,-0.552285 0.447715,-1 1,-1 z" transform="translate(221.0002,217)" style="color:#bebebe;display:inline;overflow:visible;visibility:visible;fill:#c0bfbc;fill-opacity:1;fill-rule:nonzero;stroke:none;stroke-width:11.98500347;marker:none;enable-background:new"/></g><g style="display:inline;fill:#c0bfbc;stroke-width:11.72722054;enable-background:new" id="g2285" transform="matrix(0.53607109,0,0,0.53607109,1060.8661,-283.74272)"><path style="color:#bebebe;display:inline;overflow:visible;visibility:visible;fill:#c0bfbc;fill-opacity:1;fill-rule:nonzero;stroke:none;stroke-width:20.88911057;marker:none;enable-background:new" id="path2283" d="m 87.90625,40.09375 c -0.5255,-0.0286 -1.03823,0.28305 -1.4375,0.96875 l -6.25,11.59375 C 79.68528,53.61964 80.26697,55 81.3125,55 h 13.15625 c 0.98172,0 1.90311,-1.15939 1.21875,-2.34375 L 89.375,41.125 c -0.39872,-0.64617 -0.94325,-1.00262 -1.46875,-1.03125 z m 0.0625,3.9375 C 88.51323,44.01405 89.01724,44.51802 89,45.0625 V 49 c 0.007,0.52831 -0.47163,1 -1,1 -0.52836,0 -1.00747,-0.47169 -1,-1 v -3.9375 c -0.008,-0.4666 0.3541,-0.91253 0.8125,-1 0.0511,-0.0145 0.10345,-0.02495 0.15625,-0.03125 z M 88,51 c 0.552285,0 1,0.447715 1,1 0,0.552285 -0.447715,1 -1,1 -0.552285,0 -1,-0.447715 -1,-1 0,-0.552285 0.447715,-1 1,-1 z" transform="translate(221.0002,217)"/></g><g id="g2289" transform="matrix(0.53607109,0,0,0.53607109,1056.8981,-238.84381)" style="display:inline;fill:#c0bfbc;stroke-width:11.72722054;enable-background:new"><path id="path2287" d="m 87.90625,40.09375 c -0.5255,-0.0286 -1.03823,0.28305 -1.4375,0.96875 l -6.25,11.59375 C 79.68528,53.61964 80.26697,55 81.3125,55 h 13.15625 c 0.98172,0 1.90311,-1.15939 1.21875,-2.34375 L 89.375,41.125 c -0.39872,-0.64617 -0.94325,-1.00262 -1.46875,-1.03125 z m 0.0625,3.9375 C 88.51323,44.01405 89.01724,44.51802 89,45.0625 V 49 c 0.007,0.52831 -0.47163,1 -1,1 -0.52836,0 -1.00747,-0.47169 -1,-1 v -3.9375 c -0.008,-0.4666 0.3541,-0.91253 0.8125,-1 0.0511,-0.0145 0.10345,-0.02495 0.15625,-0.03125 z M 88,51 c 0.552285,0 1,0.447715 1,1 0,0.552285 -0.447715,1 -1,1 -0.552285,0 -1,-0.447715 -1,-1 0,-0.552285 0.447715,-1 1,-1 z" transform="translate(221.0002,217)" style="color:#bebebe;display:inline;overflow:visible;visibility:visible;fill:#c0bfbc;fill-opacity:1;fill-rule:nonzero;stroke:none;stroke-width:20.88911057;marker:none;enable-background:new"/></g><path style="color:#bebebe;display:inline;overflow:visible;visibility:visible;fill:#c0bfbc;fill-opacity:1;fill-rule:nonzero;stroke:none;stroke-width:11.19804859;marker:none;enable-background:new" id="path2291" d="m 1219.4492,-61.8457 c -0.2817,-0.01533 -0.5555,0.14999 -0.7695,0.51758 l -3.3516,6.21679 c -0.286,0.51645 0.026,1.25586 0.586,1.25586 h 6.1289 c -0.014,-0.06935 -0.043,-0.13338 -0.043,-0.20703 v -0.875 c 0,-0.58863 0.4739,-1.0625 1.0625,-1.0625 h 0.072 l -2.8985,-5.29297 c -0.2138,-0.34639 -0.5054,-0.53739 -0.7871,-0.55273 z m 0.035,2.10937 c 0.2919,-0.0092 0.562,0.26086 0.5527,0.55274 v 2.11132 c 0,0.28322 -0.2539,0.53711 -0.5371,0.53711 -0.2833,0 -0.5392,-0.25389 -0.5352,-0.53711 v -2.11132 c 0,-0.25013 0.1899,-0.48827 0.4356,-0.53516 0.027,-0.0078 0.055,-0.0142 0.084,-0.01758 z M 1219.5,-56 c 0.296,0 0.5371,0.23909 0.5371,0.53516 0,0.29606 -0.2411,0.53711 -0.5371,0.53711 -0.2961,0 -0.5352,-0.24105 -0.5352,-0.53711 0,-0.29607 0.2391,-0.53516 0.5352,-0.53516 z"/></g></g><g id="g26013" transform="translate(0,300)"><g style="display:none" id="g25973"><rect style="display:inline;overflow:visible;visibility:visible;fill:#eeeeec;fill-opacity:1;fill-rule:nonzero;stroke:none;stroke-width:2;marker:none;enable-background:accumulate" id="rect25951" width="48" height="48" x="1203" y="405"/><rect style="display:inline;overflow:visible;visibility:visible;fill:#eeeeec;fill-opacity:1;fill-rule:nonzero;stroke:none;stroke-width:2;marker:none;enable-background:accumulate" id="rect25953" width="32" height="32" x="1210" y="481"/><rect style="display:inline;overflow:visible;visibility:visible;fill:#eeeeec;fill-opacity:1;fill-rule:nonzero;stroke:none;stroke-width:2;marker:none;enable-background:accumulate" id="rect25955" width="22" height="22" x="1211.028" y="532"/><rect style="display:inline;overflow:visible;visibility:visible;fill:#eeeeec;fill-opacity:1;fill-rule:nonzero;stroke:none;stroke-width:2;marker:none;enable-background:accumulate" id="rect25957" width="16" height="16" x="1211" y="574"/><rect style="display:inline;overflow:visible;visibility:visible;fill:#eeeeec;fill-opacity:1;fill-rule:nonzero;stroke:none;stroke-width:2;marker:none;enable-background:accumulate" id="rect25959" width="24" height="24" x="1210.028" y="531"/><rect style="display:inline;overflow:visible;visibility:visible;fill:#eeeeec;fill-opacity:1;fill-rule:nonzero;stroke:none;stroke-width:4;marker:none;enable-background:accumulate" id="rect25961" width="512" height="512" x="678" y="406"/><text style="font-style:normal;font-weight:400;font-size:18.30070686px;font-family:'Bitstream Vera Sans';display:inline;fill:#000;fill-opacity:1;stroke:none;enable-background:new" id="text25965" x="676.971" y="376.514" xml:space="preserve"><tspan id="tspan25963" x="676.971" y="376.514">status</tspan></text><text style="font-style:normal;font-variant:normal;font-weight:700;font-stretch:normal;font-size:18.30070686px;line-height:125%;font-family:'Droid Sans';-inkscape-font-specification:'Droid Sans Bold';text-align:start;writing-mode:lr-tb;text-anchor:start;display:inline;fill:#000;fill-opacity:1;stroke:none;enable-background:new" id="text25969" x="1096.971" y="376.514" xml:space="preserve"><tspan id="tspan25967" x="1096.971" y="376.514">image-loading</tspan></text><path style="display:inline;overflow:visible;visibility:visible;opacity:.4;fill:#729fcf;fill-opacity:1;fill-rule:nonzero;stroke:none;stroke-width:2;marker:none;enable-background:accumulate" id="path25971" d="m 678,406 v 512 h 511.875 V 406 h -36 V 882 H 714 V 406 Z"/></g><g id="g26011"><use style="display:inline;enable-background:new" id="use1508" width="100%" height="100%" x="0" y="0" transform="translate(0,640)" xlink:href="#use1491"/><g style="display:inline" id="g28107" transform="matrix(6.25,0,0,6.25,1264.9988,22)"><g style="display:inline" id="use28105" transform="translate(-79.9998,-176)"><rect id="rect26046" width="16" height="16" x="20" y="276" style="color:#bebebe;display:inline;overflow:visible;visibility:visible;fill:none;stroke:none;stroke-width:1;marker:none"/><circle style="display:inline;fill:#deddda;fill-opacity:1;stroke:none" id="circle26048" cx="28" cy="209" r="1" transform="matrix(2.000025,0,0,2.000025,-33.000875,-134.0052)"/><circle id="circle26050" cx="28" cy="209" r="1" transform="matrix(2,0,0,2,-28.00015,-134)" style="display:inline;fill:#deddda;fill-opacity:1;stroke:none"/><circle style="display:inline;fill:#deddda;fill-opacity:1;stroke:none" id="circle26052" cx="28" cy="209" r="1" transform="matrix(2,0,0,2,-23.0002,-134)"/></g></g><g id="g2309" transform="translate(1279.9998,322)" style="display:inline;stroke-width:6.25"><g id="g2307" transform="translate(-79.9998,-176)" style="display:inline;stroke-width:6.25"><rect style="color:#bebebe;display:inline;overflow:visible;visibility:visible;fill:none;stroke:none;stroke-width:6.25;marker:none" id="rect2299" width="16" height="16" x="20" y="276"/><circle id="circle2301" cx="28" cy="209" r="1" transform="matrix(2.000025,0,0,2.000025,-33.000875,-134.0052)" style="display:inline;fill:#9a9996;fill-opacity:1;stroke:none;stroke-width:6.25"/><circle style="display:inline;fill:#9a9996;fill-opacity:1;stroke:none;stroke-width:6.25" id="circle2303" cx="28" cy="209" r="1" transform="matrix(2,0,0,2,-28.00015,-134)"/><circle id="circle2305" cx="28" cy="209" r="1" transform="matrix(2,0,0,2,-23.0002,-134)" style="display:inline;fill:#9a9996;fill-opacity:1;stroke:none;stroke-width:6.25"/></g></g><g style="display:inline;stroke-width:8.33333302" id="g2321" transform="matrix(0.75,0,0,0.75,1265.7817,417.5)"><g style="display:inline;stroke-width:8.33333302" id="g2319" transform="translate(-79.9998,-176)"><rect id="rect2311" width="16" height="16" x="20" y="276" style="color:#bebebe;display:inline;overflow:visible;visibility:visible;fill:none;stroke:none;stroke-width:8.33333302;marker:none"/><circle style="display:inline;fill:#9a9996;fill-opacity:1;stroke:none;stroke-width:16.66687393" id="circle2313" cx="22.293" cy="284" r="2"/><circle id="circle2315" cx="27.705" cy="284" r="2" style="display:inline;fill:#9a9996;fill-opacity:1;stroke:none;stroke-width:16.66666603"/><circle style="display:inline;fill:#9a9996;fill-opacity:1;stroke:none;stroke-width:8.33333302" id="circle2317" cx="28" cy="209" r="1" transform="matrix(2,0,0,2,-23.0002,-134)"/></g></g><g id="g2333" transform="matrix(0.75,0,0,0.75,1260.8124,461.5625)" style="display:inline;stroke-width:8.33333302"><g id="g2331" transform="translate(-79.9998,-176)" style="display:inline;stroke-width:8.33333302"><rect style="color:#bebebe;display:inline;overflow:visible;visibility:visible;fill:none;stroke:none;stroke-width:8.33333302;marker:none" id="rect2323" width="16" height="16" x="20" y="276"/><circle id="circle2325" cx="22.293" cy="284" r="2" style="display:inline;fill:#9a9996;fill-opacity:1;stroke:none;stroke-width:16.66687393"/><circle style="display:inline;fill:#9a9996;fill-opacity:1;stroke:none;stroke-width:16.66666603" id="circle2327" cx="27.705" cy="284" r="2"/><circle id="circle2329" cx="28" cy="209" r="1" transform="matrix(2,0,0,2,-23.0002,-134)" style="display:inline;fill:#9a9996;fill-opacity:1;stroke:none;stroke-width:8.33333302"/></g></g><g style="display:inline;stroke-width:8.33333302" id="g2345" transform="matrix(0.75,0,0,0.75,1258.166,501.20712)"><g style="display:inline;stroke-width:8.33333302" id="g2343" transform="translate(-79.9998,-176)"><rect id="rect2335" width="16" height="16" x="20" y="276" style="color:#bebebe;display:inline;overflow:visible;visibility:visible;fill:none;stroke:none;stroke-width:8.33333302;marker:none"/><circle style="display:inline;fill:#9a9996;fill-opacity:1;stroke:none;stroke-width:16.66687393" id="circle2337" cx="22.293" cy="284" r="2"/><circle id="circle2339" cx="27.705" cy="284" r="2" style="display:inline;fill:#9a9996;fill-opacity:1;stroke:none;stroke-width:16.66666603"/><circle style="display:inline;fill:#9a9996;fill-opacity:1;stroke:none;stroke-width:8.33333302" id="circle2341" cx="28" cy="209" r="1" transform="matrix(2,0,0,2,-23.0002,-134)"/></g></g></g></g></svg>