<svg xmlns="http://www.w3.org/2000/svg" xmlns:svg="http://www.w3.org/2000/svg" xmlns:xlink="http://www.w3.org/1999/xlink" id="svg11300" width="680" height="560" enable-background="new" version="1.0" viewBox="0 0 680 560" style="display:inline;enable-background:new"><title id="title4162">Adwaita Icon Template</title><defs id="defs3"><linearGradient id="linearGradient1764"><stop style="stop-color:#9a9996;stop-opacity:1" id="stop1760" offset="0"/><stop style="stop-color:#deddda;stop-opacity:1" id="stop1762" offset="1"/></linearGradient><linearGradient id="linearGradient2327"><stop id="stop2315" offset="0" style="stop-color:#e6f0fc;stop-opacity:1"/><stop style="stop-color:#cadff8;stop-opacity:.99607843" id="stop2317" offset=".23"/><stop id="stop2319" offset=".384" style="stop-color:#d4e5f9;stop-opacity:.99215686"/><stop style="stop-color:#b2d0f4;stop-opacity:.96470588" id="stop2321" offset=".589"/><stop style="stop-color:#d0e3f9;stop-opacity:.96470588" id="stop2323" offset=".753"/><stop id="stop2325" offset="1" style="stop-color:#98c1f1;stop-opacity:.96638656"/></linearGradient><linearGradient id="linearGradient2270"><stop style="stop-color:#e6f0fc;stop-opacity:1" id="stop2266" offset="0"/><stop id="stop2278" offset=".075" style="stop-color:#92bdf0;stop-opacity:.99607843"/><stop style="stop-color:#b6d3f5;stop-opacity:.99215686" id="stop2280" offset=".23"/><stop id="stop2276" offset=".888" style="stop-color:#599ae8;stop-opacity:.96470588"/><stop id="stop2274" offset=".948" style="stop-color:#d0e3f9;stop-opacity:.96470588"/><stop style="stop-color:#98c1f1;stop-opacity:.96638656" id="stop2268" offset="1"/></linearGradient><linearGradient id="linearGradient2171"><stop id="stop2159" offset="0" style="stop-color:#e7e6e4;stop-opacity:1"/><stop style="stop-color:#aaa69e;stop-opacity:.96218485" id="stop2161" offset=".173"/><stop id="stop2163" offset=".513" style="stop-color:#d6d4d0;stop-opacity:.90980392"/><stop id="stop2165" offset=".714" style="stop-color:#f0efee;stop-opacity:.97254902"/><stop style="stop-color:#c6c3be;stop-opacity:1" id="stop2167" offset=".941"/><stop id="stop2169" offset="1" style="stop-color:#e8e7e5;stop-opacity:1"/></linearGradient><linearGradient id="linearGradient2157-3" x1="375" x2="175" y1="-102" y2="-102" gradientTransform="translate(-174.6956,186.87683)" gradientUnits="userSpaceOnUse" xlink:href="#linearGradient2171"/><linearGradient id="linearGradient2272-9" x1="84.215" x2="479.439" y1="144.029" y2="144.029" gradientTransform="translate(-84.215098,-48.057543)" gradientUnits="userSpaceOnUse" xlink:href="#linearGradient2270"/><linearGradient id="linearGradient2313-0" x1="164.215" x2="374.439" y1="144.029" y2="144.029" gradientTransform="translate(-174.6956,186.87683)" gradientUnits="userSpaceOnUse" xlink:href="#linearGradient2327"/><clipPath id="clipPath1337" clipPathUnits="userSpaceOnUse"><path id="path1339" d="m 64,176.41406 a 59.999995,59.999995 0 0 0 -60,60 59.999995,59.999995 0 0 0 60,60 59.999995,59.999995 0 0 0 60,-60 59.999995,59.999995 0 0 0 -60,-60 z m 0,48 a 12.000072,12.000072 0 0 1 12,12 12.000072,12.000072 0 0 1 -12,12 12.000072,12.000072 0 0 1 -12,-12 12.000072,12.000072 0 0 1 12,-12 z" style="display:inline;opacity:1;fill:#dc8add;fill-opacity:1;stroke:none;stroke-width:.01129822px;stroke-linecap:butt;stroke-linejoin:miter;stroke-miterlimit:4;stroke-dasharray:none;stroke-dashoffset:0;stroke-opacity:1;marker:none;marker-start:none;marker-mid:none;marker-end:none;paint-order:normal;enable-background:new"/></clipPath><radialGradient id="radialGradient1721" cx="64.224" cy="105.853" r="60" fx="64.224" fy="105.853" gradientTransform="matrix(3.7868744,0.00906705,-0.02231445,9.3196639,8.698163,-871.1912)" gradientUnits="userSpaceOnUse" xlink:href="#linearGradient1719"/><linearGradient id="linearGradient1719"><stop style="stop-color:#eae9e7;stop-opacity:1" id="stop1715" offset="0"/><stop id="stop1723" offset=".208" style="stop-color:#cac8c4;stop-opacity:.95275593"/><stop style="stop-color:#ebeae9;stop-opacity:.97244096" id="stop1725" offset=".745"/><stop style="stop-color:#d5d3cf;stop-opacity:.92519683" id="stop1717" offset="1"/></linearGradient><clipPath id="clipPath1337-5" clipPathUnits="userSpaceOnUse"><path id="path1339-0" d="m 64,176.41406 a 59.999995,59.999995 0 0 0 -60,60 59.999995,59.999995 0 0 0 60,60 59.999995,59.999995 0 0 0 60,-60 59.999995,59.999995 0 0 0 -60,-60 z m 0,48 a 12.000072,12.000072 0 0 1 12,12 12.000072,12.000072 0 0 1 -12,12 12.000072,12.000072 0 0 1 -12,-12 12.000072,12.000072 0 0 1 12,-12 z" style="display:inline;opacity:1;fill:#dc8add;fill-opacity:1;stroke:none;stroke-width:.01129822px;stroke-linecap:butt;stroke-linejoin:miter;stroke-miterlimit:4;stroke-dasharray:none;stroke-dashoffset:0;stroke-opacity:1;marker:none;marker-start:none;marker-mid:none;marker-end:none;paint-order:normal;enable-background:new"/></clipPath><linearGradient id="linearGradient1766" x1="311.859" x2="280.653" y1="-526.367" y2="-557.573" gradientUnits="userSpaceOnUse" xlink:href="#linearGradient1764"/><linearGradient id="linearGradient1772" x1="311.859" x2="280.653" y1="-526.367" y2="-557.573" gradientTransform="matrix(0.14460988,0,0,0.14460988,254.25074,-462.2401)" gradientUnits="userSpaceOnUse" xlink:href="#linearGradient1764"/><clipPath id="clipPath1776" clipPathUnits="userSpaceOnUse"><path style="display:inline;opacity:1;fill:#dc8add;fill-opacity:1;stroke:none;stroke-width:.01129823px;stroke-linecap:butt;stroke-linejoin:miter;stroke-miterlimit:4;stroke-dasharray:none;stroke-dashoffset:0;stroke-opacity:1;marker:none;marker-start:none;marker-mid:none;marker-end:none;paint-order:normal;enable-background:new" id="path1778" d="m 63.999988,176.41405 c -33.137083,0 -59.9999905,26.86294 -59.9999905,60.00002 0,33.13708 26.8629075,59.99999 59.9999905,59.99999 33.137084,0 60.000022,-26.86291 60.000022,-59.99999 0,-33.13711 -26.86291,-60.00002 -60.000022,-60.00002 z m 0,49.87484 c 5.591959,2e-5 10.125156,4.53322 10.125184,10.12518 -5.6e-5,5.59196 -4.533225,10.12513 -10.125184,10.12516 -5.591958,-6e-5 -10.125098,-4.5332 -10.125155,-10.12516 2.8e-5,-5.59196 4.533197,-10.12513 10.125155,-10.12518 z"/></clipPath><linearGradient id="linearGradient1821" x1="311.859" x2="280.653" y1="-526.367" y2="-557.573" gradientUnits="userSpaceOnUse" xlink:href="#linearGradient1764"/><linearGradient id="linearGradient1823" x1="311.859" x2="280.653" y1="-526.367" y2="-557.573" gradientUnits="userSpaceOnUse" xlink:href="#linearGradient1764"/><linearGradient id="linearGradient1825" x1="311.859" x2="280.653" y1="-526.367" y2="-557.573" gradientTransform="matrix(0.17644434,0,0,0.17644434,244.78847,-445.03724)" gradientUnits="userSpaceOnUse" xlink:href="#linearGradient1764"/><linearGradient id="linearGradient1847" x1="311.859" x2="280.653" y1="-526.367" y2="-557.573" gradientUnits="userSpaceOnUse" xlink:href="#linearGradient1764"/><linearGradient id="linearGradient1849" x1="311.859" x2="280.653" y1="-526.367" y2="-557.573" gradientUnits="userSpaceOnUse" xlink:href="#linearGradient1764"/><linearGradient id="linearGradient1851" x1="311.859" x2="280.653" y1="-526.367" y2="-557.573" gradientTransform="matrix(0.15331891,0,0,0.15331891,251.66211,-457.53388)" gradientUnits="userSpaceOnUse" xlink:href="#linearGradient1764"/><linearGradient id="linearGradient1873" x1="311.859" x2="280.653" y1="-526.367" y2="-557.573" gradientUnits="userSpaceOnUse" xlink:href="#linearGradient1764"/><linearGradient id="linearGradient1875" x1="311.859" x2="280.653" y1="-526.367" y2="-557.573" gradientUnits="userSpaceOnUse" xlink:href="#linearGradient1764"/><linearGradient id="linearGradient1877" x1="311.859" x2="280.653" y1="-526.367" y2="-557.573" gradientTransform="matrix(0.20365686,0,0,0.20365686,236.69999,-430.33204)" gradientUnits="userSpaceOnUse" xlink:href="#linearGradient1764"/></defs><metadata id="metadata4"/><g id="layer1" transform="translate(0,260)" style="display:inline"><g id="layer7" style="display:none"><rect id="rect6284" width="48" height="48" x="568" y="-196" style="display:inline;overflow:visible;visibility:visible;fill:#eeeeec;fill-opacity:1;fill-rule:nonzero;stroke:none;stroke-width:2;marker:none;enable-background:accumulate"/><rect style="display:inline;overflow:visible;visibility:visible;fill:#eeeeec;fill-opacity:1;fill-rule:nonzero;stroke:none;stroke-width:2;marker:none;enable-background:accumulate" id="rect6592" width="32" height="32" x="568" y="-116"/><rect id="rect6749" width="22" height="22" x="569" y="-58.941" style="display:inline;overflow:visible;visibility:visible;fill:#eeeeec;fill-opacity:1;fill-rule:nonzero;stroke:none;stroke-width:2;marker:none;enable-background:accumulate"/><rect style="display:inline;overflow:visible;visibility:visible;fill:#eeeeec;fill-opacity:1;fill-rule:nonzero;stroke:none;stroke-width:2;marker:none;enable-background:accumulate" id="rect6833" width="16" height="16" x="568" y="-12"/><rect style="display:inline;overflow:visible;visibility:visible;fill:#eeeeec;fill-opacity:1;fill-rule:nonzero;stroke:none;stroke-width:2;marker:none;enable-background:accumulate" id="rect8104" width="24" height="24" x="568" y="-60"/><text style="font-style:normal;font-variant:normal;font-weight:400;font-stretch:normal;font-size:18.30133247px;line-height:125%;font-family:Cantarell;-inkscape-font-specification:'Cantarell, Normal';text-align:start;writing-mode:lr-tb;text-anchor:start;display:inline;fill:#000;fill-opacity:1;stroke:none;enable-background:new" id="context" x="31.856" y="-303.7" xml:space="preserve"><tspan id="tspan2716" x="31.856" y="-303.7">devices</tspan></text><text id="text3021" x="31.265" y="-277.901" xml:space="preserve" style="font-style:normal;font-variant:normal;font-weight:700;font-stretch:normal;font-size:18.30133247px;line-height:125%;font-family:Cantarell;-inkscape-font-specification:'Cantarell, Bold';text-align:start;writing-mode:lr-tb;text-anchor:start;display:inline;fill:#000;fill-opacity:1;stroke:none;enable-background:new"><tspan id="tspan3023" x="31.265" y="-277.901">media-optical</tspan></text><rect style="display:inline;overflow:visible;visibility:visible;fill:#eeeeec;fill-opacity:1;fill-rule:nonzero;stroke:none;stroke-width:2;marker:none;enable-background:accumulate" id="rect13805" width="512" height="512" x="24" y="-236"/><path id="path13807" d="m 24,-236 v 512 h 511.875 v -512 h -36 V 240 H 60 v -476 z" style="display:inline;overflow:visible;visibility:visible;opacity:.4;fill:#729fcf;fill-opacity:1;fill-rule:nonzero;stroke:none;stroke-width:2;marker:none;enable-background:accumulate"/></g><g id="layer9" style="display:inline"><g style="display:inline;enable-background:new" id="g1311" clip-path="url(#clipPath1337-5)" transform="matrix(3.7868852,0,0,3.7868852,36.640227,-878.05976)"><rect style="display:inline;opacity:1;fill:#d5d3cf;fill-opacity:1;stroke:none;stroke-width:.01129822px;stroke-linecap:butt;stroke-linejoin:miter;stroke-miterlimit:4;stroke-dasharray:none;stroke-dashoffset:0;stroke-opacity:1;marker:none;marker-start:none;marker-mid:none;marker-end:none;paint-order:normal;enable-background:new" id="rect978-4" width="112" height="114" x="8" y="180.415" rx="56" ry="56"/><path id="path981-8" d="m 72,20.414062 a 59.999995,59.999995 0 0 0 -60,60 59.999995,59.999995 0 0 0 60,59.999998 59.999995,59.999995 0 0 0 60,-59.999998 59.999995,59.999995 0 0 0 -60,-60 z m 0,48 a 12.000072,12.000072 0 0 1 12,12 12.000072,12.000072 0 0 1 -12,12 12.000072,12.000072 0 0 1 -12,-12 12.000072,12.000072 0 0 1 12,-12 z" transform="translate(-8,156)" style="display:inline;opacity:1;fill:#f6f5f4;fill-opacity:1;stroke:none;stroke-width:.01129822px;stroke-linecap:butt;stroke-linejoin:miter;stroke-miterlimit:4;stroke-dasharray:none;stroke-dashoffset:0;stroke-opacity:1;marker:none;marker-start:none;marker-mid:none;marker-end:none;paint-order:normal;enable-background:new"/><circle style="opacity:.48800001;vector-effect:none;fill:none;fill-opacity:1;fill-rule:nonzero;stroke:#000;stroke-width:1;stroke-linecap:butt;stroke-linejoin:miter;stroke-miterlimit:4;stroke-dasharray:none;stroke-dashoffset:0;stroke-opacity:1;marker:none;marker-start:none;marker-mid:none;marker-end:none;paint-order:normal" id="circle1272" cx="64" cy="236.5" r="58.085"/><circle id="path1402" cx="64" cy="236.5" r="15.5" style="opacity:.48800001;vector-effect:none;fill:none;fill-opacity:1;fill-rule:nonzero;stroke:#000;stroke-width:2.90625;stroke-linecap:butt;stroke-linejoin:miter;stroke-miterlimit:4;stroke-dasharray:none;stroke-dashoffset:0;stroke-opacity:1;marker:none;marker-start:none;marker-mid:none;marker-end:none;paint-order:normal"/><circle style="opacity:.48800001;vector-effect:none;fill:none;fill-opacity:1;fill-rule:nonzero;stroke:#000;stroke-width:.99999994;stroke-linecap:butt;stroke-linejoin:miter;stroke-miterlimit:4;stroke-dasharray:none;stroke-dashoffset:0;stroke-opacity:1;marker:none;marker-start:none;marker-mid:none;marker-end:none;paint-order:normal" id="circle1393" cx="212.486" cy="121.976" r="18.495" transform="rotate(45)"/><path style="opacity:.05;vector-effect:none;fill:#000;fill-opacity:.92913382;fill-rule:nonzero;stroke:none;stroke-width:6;stroke-linecap:round;stroke-linejoin:miter;stroke-miterlimit:4;stroke-dasharray:none;stroke-dashoffset:0;stroke-opacity:.94881891;marker:none;marker-start:none;marker-mid:none;marker-end:none;paint-order:normal" id="path1894" d="m 128,209.71216 -64,26.7019 73.664,23.14913"/><path id="path1896" d="M 9.1139431,278.93952 64.022236,236.58305 -13.12316,233.28835" style="opacity:.05;vector-effect:none;fill:#000;fill-opacity:.92913382;fill-rule:nonzero;stroke:none;stroke-width:6;stroke-linecap:round;stroke-linejoin:miter;stroke-miterlimit:4;stroke-dasharray:none;stroke-dashoffset:0;stroke-opacity:.94881891;marker:none;marker-start:none;marker-mid:none;marker-end:none;paint-order:normal"/></g><path id="path1709" d="m 279.00088,-28.22951 a 45.442623,45.442623 0 0 0 -45.44262,45.44263 45.442623,45.442623 0 0 0 0.1333,3.39486 45.442623,45.442623 0 0 1 45.30932,-42.83171 45.442623,45.442623 0 0 1 45.30948,42.04771 45.442623,45.442623 0 0 0 0.13314,-2.61086 45.442623,45.442623 0 0 0 -45.44262,-45.44263 z M 51.980065,21 c -0.0746,1.26175 -0.1386,2.52407 -0.192373,3.78689 C 51.787692,150.27324 153.51445,252 279.00081,252 404.48716,252 506.21392,150.27324 506.21392,24.78689 506.17982,23.52422 506.13552,22.2619 506.08062,21 504.01446,144.9532 402.97104,244.37083 279.00065,244.42623 155.05329,244.33875 54.045584,144.93021 51.979838,21 Z" style="display:inline;opacity:.73999999;vector-effect:none;fill:url(#radialGradient1721);fill-opacity:1;fill-rule:nonzero;stroke:none;stroke-width:22.72131157;stroke-linecap:round;stroke-linejoin:miter;stroke-miterlimit:4;stroke-dasharray:none;stroke-dashoffset:0;stroke-opacity:1;marker:none;marker-start:none;marker-mid:none;marker-end:none;paint-order:normal;enable-background:new"/></g><g id="g1797"><g style="display:inline;enable-background:new;stroke-width:.95625359" id="g1739" clip-path="url(#clipPath1776)" transform="matrix(0.35358272,0,0,0.35358272,569.65667,-255.55514)"><rect style="display:inline;opacity:1;fill:#d5d3cf;fill-opacity:1;stroke:none;stroke-width:.01080396px;stroke-linecap:butt;stroke-linejoin:miter;stroke-miterlimit:4;stroke-dasharray:none;stroke-dashoffset:0;stroke-opacity:1;marker:none;marker-start:none;marker-mid:none;marker-end:none;paint-order:normal;enable-background:new" id="rect1725" width="112" height="114" x="8" y="180.415" rx="53.55" ry="53.55"/><path id="path1727" d="m 72,20.414062 c -33.137086,-3e-6 -60.000003,26.862914 -60,60 -2e-6,33.137088 26.862915,59.999998 60,59.999998 33.13709,0 60,-26.86291 60,-59.999998 0,-33.137086 -26.86291,-60.000003 -60,-60 z m 0,50.828193 c 5.065437,3e-5 9.171777,4.10637 9.171807,9.171807 -3e-5,5.065437 -4.10637,9.171777 -9.171807,9.171807 -5.065437,-3e-5 -9.171777,-4.10637 -9.171807,-9.171807 3e-5,-5.065437 4.10637,-9.171777 9.171807,-9.171807 z" transform="translate(-8,156)" style="display:inline;opacity:1;fill:#f6f5f4;fill-opacity:1;stroke:none;stroke-width:.01080396px;stroke-linecap:butt;stroke-linejoin:miter;stroke-miterlimit:4;stroke-dasharray:none;stroke-dashoffset:0;stroke-opacity:1;marker:none;marker-start:none;marker-mid:none;marker-end:none;paint-order:normal;enable-background:new"/><circle id="circle1731" cx="64" cy="236.5" r="17.199" style="opacity:.217;vector-effect:none;fill:none;fill-opacity:1;fill-rule:nonzero;stroke:#000;stroke-width:6.27647161;stroke-linecap:butt;stroke-linejoin:miter;stroke-miterlimit:4;stroke-dasharray:none;stroke-dashoffset:0;stroke-opacity:1;marker:none;marker-start:none;marker-mid:none;marker-end:none;paint-order:normal"/><circle style="opacity:.217;vector-effect:none;fill:none;fill-opacity:1;fill-rule:nonzero;stroke:#000;stroke-width:3.07556057;stroke-linecap:butt;stroke-linejoin:miter;stroke-miterlimit:4;stroke-dasharray:none;stroke-dashoffset:0;stroke-opacity:1;marker:none;marker-start:none;marker-mid:none;marker-end:none;paint-order:normal" id="circle1733" cx="212.486" cy="121.976" r="24.377" transform="rotate(45)"/><path style="opacity:.05;vector-effect:none;fill:#000;fill-opacity:.92913382;fill-rule:nonzero;stroke:none;stroke-width:5.73752213;stroke-linecap:round;stroke-linejoin:miter;stroke-miterlimit:4;stroke-dasharray:none;stroke-dashoffset:0;stroke-opacity:.94881891;marker:none;marker-start:none;marker-mid:none;marker-end:none;paint-order:normal" id="path1735" d="m 128,209.71216 -64,26.7019 73.664,23.14913"/><path id="path1737" d="M 9.1139431,278.93952 64.022236,236.58305 -13.12316,233.28835" style="opacity:.05;vector-effect:none;fill:#000;fill-opacity:.92913382;fill-rule:nonzero;stroke:none;stroke-width:5.73752213;stroke-linecap:round;stroke-linejoin:miter;stroke-miterlimit:4;stroke-dasharray:none;stroke-dashoffset:0;stroke-opacity:.94881891;marker:none;marker-start:none;marker-mid:none;marker-end:none;paint-order:normal"/></g><circle style="display:inline;opacity:1;vector-effect:none;fill:none;fill-opacity:1;fill-rule:nonzero;stroke:url(#linearGradient1766);stroke-width:1.00000012;stroke-linecap:butt;stroke-linejoin:miter;stroke-miterlimit:4;stroke-dasharray:none;stroke-dashoffset:0;stroke-opacity:1;marker:none;marker-start:none;marker-mid:none;marker-end:none;paint-order:normal;enable-background:new" id="circle1733-5" cx="297.234" cy="-540.385" r="21.545" transform="rotate(45)"/><circle id="circle1768" cx="297.234" cy="-540.385" r="21.545" transform="rotate(45)" style="display:inline;opacity:1;vector-effect:none;fill:none;fill-opacity:1;fill-rule:nonzero;stroke:url(#linearGradient1766);stroke-width:1.00000012;stroke-linecap:butt;stroke-linejoin:miter;stroke-miterlimit:4;stroke-dasharray:none;stroke-dashoffset:0;stroke-opacity:1;marker:none;marker-start:none;marker-mid:none;marker-end:none;paint-order:normal;enable-background:new"/><circle style="display:inline;opacity:1;vector-effect:none;fill:none;fill-opacity:1;fill-rule:nonzero;stroke:url(#linearGradient1772);stroke-width:1.00000012;stroke-linecap:butt;stroke-linejoin:miter;stroke-miterlimit:4;stroke-dasharray:none;stroke-dashoffset:0;stroke-opacity:1;marker:none;marker-start:none;marker-mid:none;marker-end:none;paint-order:normal;enable-background:new" id="circle1770" cx="297.234" cy="-540.385" r="3.116" transform="rotate(45)"/></g><g id="g1819" transform="matrix(0.67439442,0,0,0.67439442,184.52577,15.954817)" style="stroke-width:1.48281193"><g id="g1811" clip-path="url(#clipPath1776)" transform="matrix(0.35358272,0,0,0.35358272,569.65667,-255.55514)" style="display:inline;stroke-width:1.41794407;enable-background:new"><rect id="rect1799" width="112" height="114" x="8" y="180.415" rx="79.405" ry="79.405" style="display:inline;opacity:1;fill:#d5d3cf;fill-opacity:1;stroke:none;stroke-width:.01602024px;stroke-linecap:butt;stroke-linejoin:miter;stroke-miterlimit:4;stroke-dasharray:none;stroke-dashoffset:0;stroke-opacity:1;marker:none;marker-start:none;marker-mid:none;marker-end:none;paint-order:normal;enable-background:new"/><path style="display:inline;opacity:1;fill:#f6f5f4;fill-opacity:1;stroke:none;stroke-width:.01602024px;stroke-linecap:butt;stroke-linejoin:miter;stroke-miterlimit:4;stroke-dasharray:none;stroke-dashoffset:0;stroke-opacity:1;marker:none;marker-start:none;marker-mid:none;marker-end:none;paint-order:normal;enable-background:new" id="path1801" d="m 72,20.414062 c -33.137086,-3e-6 -60.000003,26.862914 -60,60 -2e-6,33.137088 26.862915,59.999998 60,59.999998 33.13709,0 60,-26.86291 60,-59.999998 0,-33.137086 -26.86291,-60.000003 -60,-60 z m 0,50.828193 c 5.065437,3e-5 9.171777,4.10637 9.171807,9.171807 -3e-5,5.065437 -4.10637,9.171777 -9.171807,9.171807 -5.065437,-3e-5 -9.171777,-4.10637 -9.171807,-9.171807 3e-5,-5.065437 4.10637,-9.171777 9.171807,-9.171807 z" transform="translate(-8,156)"/><circle style="opacity:.21700003;vector-effect:none;fill:none;fill-opacity:1;fill-rule:nonzero;stroke:#000;stroke-width:9.30682278;stroke-linecap:butt;stroke-linejoin:miter;stroke-miterlimit:4;stroke-dasharray:none;stroke-dashoffset:0;stroke-opacity:1;marker:none;marker-start:none;marker-mid:none;marker-end:none;paint-order:normal" id="circle1803" cx="64" cy="236.5" r="21.132"/><path id="path1807" d="m 128,209.71216 -64,26.7019 73.664,23.14913" style="opacity:.05;vector-effect:none;fill:#000;fill-opacity:.92913382;fill-rule:nonzero;stroke:none;stroke-width:8.50766563;stroke-linecap:round;stroke-linejoin:miter;stroke-miterlimit:4;stroke-dasharray:none;stroke-dashoffset:0;stroke-opacity:.94881891;marker:none;marker-start:none;marker-mid:none;marker-end:none;paint-order:normal"/><path style="opacity:.05;vector-effect:none;fill:#000;fill-opacity:.92913382;fill-rule:nonzero;stroke:none;stroke-width:8.50766563;stroke-linecap:round;stroke-linejoin:miter;stroke-miterlimit:4;stroke-dasharray:none;stroke-dashoffset:0;stroke-opacity:.94881891;marker:none;marker-start:none;marker-mid:none;marker-end:none;paint-order:normal" id="path1809" d="M 9.1139431,278.93952 64.022236,236.58305 -13.12316,233.28835"/></g><circle id="circle1813" cx="297.234" cy="-540.385" r="21.545" transform="rotate(45)" style="display:inline;opacity:1;vector-effect:none;fill:none;fill-opacity:1;fill-rule:nonzero;stroke:url(#linearGradient1821);stroke-width:1.48281193;stroke-linecap:butt;stroke-linejoin:miter;stroke-miterlimit:4;stroke-dasharray:none;stroke-dashoffset:0;stroke-opacity:1;marker:none;marker-start:none;marker-mid:none;marker-end:none;paint-order:normal;enable-background:new"/><circle style="display:inline;opacity:1;vector-effect:none;fill:none;fill-opacity:1;fill-rule:nonzero;stroke:url(#linearGradient1823);stroke-width:1.48281193;stroke-linecap:butt;stroke-linejoin:miter;stroke-miterlimit:4;stroke-dasharray:none;stroke-dashoffset:0;stroke-opacity:1;marker:none;marker-start:none;marker-mid:none;marker-end:none;paint-order:normal;enable-background:new" id="circle1815" cx="297.234" cy="-540.385" r="21.545" transform="rotate(45)"/><circle id="circle1817" cx="297.234" cy="-540.385" r="3.801" transform="rotate(45)" style="display:inline;opacity:1;vector-effect:none;fill:none;fill-opacity:1;fill-rule:nonzero;stroke:url(#linearGradient1825);stroke-width:1.48281205;stroke-linecap:butt;stroke-linejoin:miter;stroke-miterlimit:4;stroke-dasharray:none;stroke-dashoffset:0;stroke-opacity:1;marker:none;marker-start:none;marker-mid:none;marker-end:none;paint-order:normal;enable-background:new"/></g><g style="stroke-width:2.0446682" id="g1845" transform="matrix(0.48907694,0,0,0.48907694,290.29571,36.162357)"><g style="display:inline;stroke-width:1.95522106;enable-background:new" id="g1837" clip-path="url(#clipPath1776)" transform="matrix(0.35358272,0,0,0.35358272,569.65667,-255.55514)"><rect style="display:inline;opacity:1;fill:#d5d3cf;fill-opacity:1;stroke:none;stroke-width:.02209052px;stroke-linecap:butt;stroke-linejoin:miter;stroke-miterlimit:4;stroke-dasharray:none;stroke-dashoffset:0;stroke-opacity:1;marker:none;marker-start:none;marker-mid:none;marker-end:none;paint-order:normal;enable-background:new" id="rect1827" width="112" height="114" x="8" y="180.415" rx="109.492" ry="109.492"/><path id="path1829" d="m 72,20.414062 c -33.137086,-3e-6 -60.000003,26.862914 -60,60 -2e-6,33.137088 26.862915,59.999998 60,59.999998 33.13709,0 60,-26.86291 60,-59.999998 0,-33.137086 -26.86291,-60.000003 -60,-60 z m 0,50.828193 c 5.065437,3e-5 9.171777,4.10637 9.171807,9.171807 -3e-5,5.065437 -4.10637,9.171777 -9.171807,9.171807 -5.065437,-3e-5 -9.171777,-4.10637 -9.171807,-9.171807 3e-5,-5.065437 4.10637,-9.171777 9.171807,-9.171807 z" transform="translate(-8,156)" style="display:inline;opacity:1;fill:#f6f5f4;fill-opacity:1;stroke:none;stroke-width:.02209052px;stroke-linecap:butt;stroke-linejoin:miter;stroke-miterlimit:4;stroke-dasharray:none;stroke-dashoffset:0;stroke-opacity:1;marker:none;marker-start:none;marker-mid:none;marker-end:none;paint-order:normal;enable-background:new"/><circle id="circle1831" cx="64" cy="236.5" r="23.657" style="opacity:.21700003;vector-effect:none;fill:none;fill-opacity:1;fill-rule:nonzero;stroke:#000;stroke-width:12.83329964;stroke-linecap:butt;stroke-linejoin:miter;stroke-miterlimit:4;stroke-dasharray:none;stroke-dashoffset:0;stroke-opacity:1;marker:none;marker-start:none;marker-mid:none;marker-end:none;paint-order:normal"/><path style="opacity:.05;vector-effect:none;fill:#000;fill-opacity:.92913382;fill-rule:nonzero;stroke:none;stroke-width:11.73132801;stroke-linecap:round;stroke-linejoin:miter;stroke-miterlimit:4;stroke-dasharray:none;stroke-dashoffset:0;stroke-opacity:.94881891;marker:none;marker-start:none;marker-mid:none;marker-end:none;paint-order:normal" id="path1833" d="m 128,209.71216 -64,26.7019 73.664,23.14913"/><path id="path1835" d="M 9.1139431,278.93952 64.022236,236.58305 -13.12316,233.28835" style="opacity:.05;vector-effect:none;fill:#000;fill-opacity:.92913382;fill-rule:nonzero;stroke:none;stroke-width:11.73132801;stroke-linecap:round;stroke-linejoin:miter;stroke-miterlimit:4;stroke-dasharray:none;stroke-dashoffset:0;stroke-opacity:.94881891;marker:none;marker-start:none;marker-mid:none;marker-end:none;paint-order:normal"/></g><circle style="display:inline;opacity:1;vector-effect:none;fill:none;fill-opacity:1;fill-rule:nonzero;stroke:url(#linearGradient1847);stroke-width:2.0446682;stroke-linecap:butt;stroke-linejoin:miter;stroke-miterlimit:4;stroke-dasharray:none;stroke-dashoffset:0;stroke-opacity:1;marker:none;marker-start:none;marker-mid:none;marker-end:none;paint-order:normal;enable-background:new" id="circle1839" cx="297.234" cy="-540.385" r="21.545" transform="rotate(45)"/><circle id="circle1841" cx="297.234" cy="-540.385" r="21.545" transform="rotate(45)" style="display:inline;opacity:1;vector-effect:none;fill:none;fill-opacity:1;fill-rule:nonzero;stroke:url(#linearGradient1849);stroke-width:2.0446682;stroke-linecap:butt;stroke-linejoin:miter;stroke-miterlimit:4;stroke-dasharray:none;stroke-dashoffset:0;stroke-opacity:1;marker:none;marker-start:none;marker-mid:none;marker-end:none;paint-order:normal;enable-background:new"/><circle style="display:inline;opacity:1;vector-effect:none;fill:none;fill-opacity:1;fill-rule:nonzero;stroke:url(#linearGradient1851);stroke-width:2.04466844;stroke-linecap:butt;stroke-linejoin:miter;stroke-miterlimit:4;stroke-dasharray:none;stroke-dashoffset:0;stroke-opacity:1;marker:none;marker-start:none;marker-mid:none;marker-end:none;paint-order:normal;enable-background:new" id="circle1843" cx="297.234" cy="-540.385" r="3.303" transform="rotate(45)"/></g><g id="g1871" transform="matrix(0.34577936,0,0,0.34577936,371.21144,55.431985)" style="stroke-width:2.89201784"><g id="g1863" clip-path="url(#clipPath1776)" transform="matrix(0.35358272,0,0,0.35358272,569.65667,-255.55514)" style="display:inline;stroke-width:2.76550198;enable-background:new"><rect id="rect1853" width="112" height="114" x="8" y="180.415" rx="154.868" ry="154.868" style="display:inline;opacity:1;fill:#d5d3cf;fill-opacity:1;stroke:none;stroke-width:.03124526px;stroke-linecap:butt;stroke-linejoin:miter;stroke-miterlimit:4;stroke-dasharray:none;stroke-dashoffset:0;stroke-opacity:1;marker:none;marker-start:none;marker-mid:none;marker-end:none;paint-order:normal;enable-background:new"/><path style="display:inline;opacity:1;fill:#f6f5f4;fill-opacity:1;stroke:none;stroke-width:.03124526px;stroke-linecap:butt;stroke-linejoin:miter;stroke-miterlimit:4;stroke-dasharray:none;stroke-dashoffset:0;stroke-opacity:1;marker:none;marker-start:none;marker-mid:none;marker-end:none;paint-order:normal;enable-background:new" id="path1855" d="m 72,20.414062 c -33.137086,-3e-6 -60.000003,26.862914 -60,60 -2e-6,33.137088 26.862915,59.999998 60,59.999998 33.13709,0 60,-26.86291 60,-59.999998 0,-33.137086 -26.86291,-60.000003 -60,-60 z m 0,50.828193 c 5.065437,3e-5 9.171777,4.10637 9.171807,9.171807 -3e-5,5.065437 -4.10637,9.171777 -9.171807,9.171807 -5.065437,-3e-5 -9.171777,-4.10637 -9.171807,-9.171807 3e-5,-5.065437 4.10637,-9.171777 9.171807,-9.171807 z" transform="translate(-8,156)"/><circle style="opacity:.21700003;vector-effect:none;fill:none;fill-opacity:1;fill-rule:nonzero;stroke:#000;stroke-width:8.17918301;stroke-linecap:butt;stroke-linejoin:miter;stroke-miterlimit:4;stroke-dasharray:none;stroke-dashoffset:0;stroke-opacity:1;marker:none;marker-start:none;marker-mid:none;marker-end:none;paint-order:normal" id="circle1857" cx="64" cy="236.5" r="28.769"/><path id="path1859" d="m 128,209.71216 -64,26.7019 73.664,23.14913" style="opacity:.05;vector-effect:none;fill:#000;fill-opacity:.92913382;fill-rule:nonzero;stroke:none;stroke-width:16.59301567;stroke-linecap:round;stroke-linejoin:miter;stroke-miterlimit:4;stroke-dasharray:none;stroke-dashoffset:0;stroke-opacity:.94881891;marker:none;marker-start:none;marker-mid:none;marker-end:none;paint-order:normal"/><path style="opacity:.05;vector-effect:none;fill:#000;fill-opacity:.92913382;fill-rule:nonzero;stroke:none;stroke-width:16.59301567;stroke-linecap:round;stroke-linejoin:miter;stroke-miterlimit:4;stroke-dasharray:none;stroke-dashoffset:0;stroke-opacity:.94881891;marker:none;marker-start:none;marker-mid:none;marker-end:none;paint-order:normal" id="path1861" d="M 9.1139431,278.93952 64.022236,236.58305 -13.12316,233.28835"/></g><circle id="circle1865" cx="297.234" cy="-540.385" r="21.545" transform="rotate(45)" style="display:inline;opacity:1;vector-effect:none;fill:none;fill-opacity:1;fill-rule:nonzero;stroke:url(#linearGradient1873);stroke-width:2.89201784;stroke-linecap:butt;stroke-linejoin:miter;stroke-miterlimit:4;stroke-dasharray:none;stroke-dashoffset:0;stroke-opacity:1;marker:none;marker-start:none;marker-mid:none;marker-end:none;paint-order:normal;enable-background:new"/><circle style="display:inline;opacity:1;vector-effect:none;fill:none;fill-opacity:1;fill-rule:nonzero;stroke:url(#linearGradient1875);stroke-width:2.89201784;stroke-linecap:butt;stroke-linejoin:miter;stroke-miterlimit:4;stroke-dasharray:none;stroke-dashoffset:0;stroke-opacity:1;marker:none;marker-start:none;marker-mid:none;marker-end:none;paint-order:normal;enable-background:new" id="circle1867" cx="297.234" cy="-540.385" r="21.545" transform="rotate(45)"/><circle id="circle1869" cx="297.234" cy="-540.385" r="4.388" transform="rotate(45)" style="display:inline;opacity:1;vector-effect:none;fill:none;fill-opacity:1;fill-rule:nonzero;stroke:url(#linearGradient1877);stroke-width:2.89201808;stroke-linecap:butt;stroke-linejoin:miter;stroke-miterlimit:4;stroke-dasharray:none;stroke-dashoffset:0;stroke-opacity:1;marker:none;marker-start:none;marker-mid:none;marker-end:none;paint-order:normal;enable-background:new"/></g></g></svg>