<svg xmlns="http://www.w3.org/2000/svg" xmlns:svg="http://www.w3.org/2000/svg" xmlns:xlink="http://www.w3.org/1999/xlink" id="svg11300" width="400" height="300" version="1.0" style="display:inline;enable-background:new"><metadata id="metadata162"/><defs id="defs3"><linearGradient id="linearGradient4082-1" x1="369.938" x2="369.938" y1="236.19" y2="229.367" gradientTransform="matrix(0,-1,1,0,212,410)" gradientUnits="userSpaceOnUse" xlink:href="#linearGradient4573-7"/><linearGradient id="linearGradient4573-7"><stop style="stop-color:#7c0000;stop-opacity:1" id="stop4575-5" offset="0"/><stop style="stop-color:#a40000;stop-opacity:1" id="stop4577-8" offset="1"/></linearGradient><linearGradient id="linearGradient4084-0" x1="370.857" x2="370.857" y1="221.989" y2="237.425" gradientTransform="matrix(0,-1,1,0,212,410)" gradientUnits="userSpaceOnUse" xlink:href="#linearGradient5155-3-1-4-8"/><linearGradient id="linearGradient5155-3-1-4-8"><stop style="stop-color:#ef2929;stop-opacity:1" id="stop5157-4-6-4-4" offset="0"/><stop id="stop5159-5-5-1-8" offset=".422" style="stop-color:#b80000;stop-opacity:1"/><stop style="stop-color:#e01010;stop-opacity:1" id="stop5161-7-3-6-18" offset="1"/></linearGradient><linearGradient id="linearGradient3500-2" x1="369.938" x2="369.938" y1="236.19" y2="229.367" gradientTransform="matrix(0,-1,1,0,209,513)" gradientUnits="userSpaceOnUse" xlink:href="#linearGradient4573-7"/><linearGradient id="linearGradient3502-79" x1="312.247" x2="312.247" y1="186.886" y2="197.186" gradientTransform="matrix(0,-1,1,0,248.5,456.5)" gradientUnits="userSpaceOnUse" xlink:href="#linearGradient5155-3-1-4-8"/><linearGradient id="linearGradient3523-7" x1="369.938" x2="369.938" y1="236.19" y2="229.367" gradientTransform="matrix(0,-1,1,0,203.5,541.5)" gradientUnits="userSpaceOnUse" xlink:href="#linearGradient4573-7"/><linearGradient id="linearGradient3525-0" x1="312.247" x2="312.247" y1="196.492" y2="184.831" gradientTransform="matrix(0,-1,1,0,243,485)" gradientUnits="userSpaceOnUse" xlink:href="#linearGradient4051-8-3-8-27-0-8"/><linearGradient id="linearGradient4051-8-3-8-27-0-8"><stop id="stop4053-1-4-2-2-1-25" offset="0" style="stop-color:#f57373;stop-opacity:1"/><stop style="stop-color:#c00;stop-opacity:1" id="stop4055-0-8-0-7-1-1" offset=".279"/><stop id="stop4057-7-8-5-5-0-1" offset="1" style="stop-color:#ef2929;stop-opacity:1"/></linearGradient><linearGradient id="linearGradient4579-9" x1="304.5" x2="310.081" y1="-111.5" y2="-111.5" gradientTransform="matrix(0,-1,1,0,421,198)" gradientUnits="userSpaceOnUse" xlink:href="#linearGradient4573-7"/><linearGradient id="linearGradient4455-7-2" x1="312.247" x2="312.247" y1="196.138" y2="187.607" gradientTransform="translate(-5,-4)" gradientUnits="userSpaceOnUse" xlink:href="#linearGradient4051-8-3-8-27-0-8"/><linearGradient id="linearGradient2976-9" x1="40.25" x2="40.25" y1="31.625" y2="43.25" gradientTransform="translate(-12.020815,0)" gradientUnits="userSpaceOnUse" xlink:href="#linearGradient6365-2"/><linearGradient id="linearGradient6365-2"><stop id="stop6367-8" offset="0" style="stop-color:#fff;stop-opacity:1"/><stop id="stop6369-2" offset="1" style="stop-color:#fff;stop-opacity:0"/></linearGradient><filter id="filter6421-0" width="1.283" height="1.208" x="-.142" y="-.104" color-interpolation-filters="sRGB"><feGaussianBlur id="feGaussianBlur6423-9" stdDeviation="2.07"/></filter><radialGradient id="radialGradient2988-9" cx="27.884" cy="7.14" r="9.723" fx="27.884" fy="7.14" gradientTransform="matrix(0.9006895,0,0,0.4973205,285.82236,215.55655)" gradientUnits="userSpaceOnUse" xlink:href="#linearGradient9868-5"/><linearGradient id="linearGradient9868-5"><stop id="stop9870-1" offset="0" style="stop-color:#4e4e4e;stop-opacity:1"/><stop id="stop9872-0" offset="1" style="stop-color:#616161;stop-opacity:0"/></linearGradient><linearGradient id="linearGradient2992-4" x1="46.846" x2="18.031" y1="19.804" y2="27.759" gradientTransform="matrix(0.3502365,0,0,0.354829,299.0971,218.91617)" gradientUnits="userSpaceOnUse" xlink:href="#linearGradient9854-8"/><linearGradient id="linearGradient9854-8"><stop id="stop9856-0" offset="0" style="stop-color:#4e4e4e;stop-opacity:1"/><stop id="stop9858-5" offset="1" style="stop-color:#ababab;stop-opacity:1"/></linearGradient><filter id="filter6451-7" width="1.134" height="1.239" x="-.067" y="-.12" color-interpolation-filters="sRGB"><feGaussianBlur id="feGaussianBlur6453-4" stdDeviation=".769"/></filter><linearGradient id="linearGradient2996-5" x1="18.729" x2="18.729" y1="44" y2="29.068" gradientTransform="matrix(0.4193549,0,0,0.4273376,303.17002,215.19715)" gradientUnits="userSpaceOnUse" xlink:href="#linearGradient6467-0"/><linearGradient id="linearGradient6467-0"><stop id="stop6469-2" offset="0" style="stop-color:#babdb6;stop-opacity:1"/><stop id="stop6471-7" offset="1" style="stop-color:#babdb6;stop-opacity:0"/></linearGradient><linearGradient id="linearGradient3013-8" x1="40.25" x2="40.25" y1="31.625" y2="43.25" gradientTransform="translate(-12.020815,0)" gradientUnits="userSpaceOnUse" xlink:href="#linearGradient6365-2"/><linearGradient id="linearGradient3025-3" x1="31.079" x2="33.711" y1="21.511" y2="18.064" gradientTransform="matrix(0.7964847,0,0,0.7951099,284.59661,165.66784)" gradientUnits="userSpaceOnUse" xlink:href="#linearGradient9896-4"/><linearGradient id="linearGradient9896-4"><stop id="stop9898-8" offset="0" style="stop-color:#cecece;stop-opacity:1"/><stop id="stop9900-2" offset="1" style="stop-color:#9e9e9e;stop-opacity:1"/></linearGradient><linearGradient id="linearGradient3028-9" x1="31.853" x2="34.007" y1="19.108" y2="24.765" gradientTransform="matrix(0.7964847,0,0,0.7951099,283.70764,165.66784)" gradientUnits="userSpaceOnUse" xlink:href="#linearGradient9880-5"/><linearGradient id="linearGradient9880-5"><stop id="stop9882-5" offset="0" style="stop-color:#525252;stop-opacity:1"/><stop id="stop9884-0" offset="1" style="stop-color:#525252;stop-opacity:0"/></linearGradient><radialGradient id="radialGradient3031-7" cx="27.884" cy="7.14" r="9.723" fx="27.884" fy="7.14" gradientTransform="matrix(0.9006895,0,0,0.4973205,284.82236,173.55655)" gradientUnits="userSpaceOnUse" xlink:href="#linearGradient9868-5"/><linearGradient id="linearGradient3035-8" x1="46.846" x2="18.031" y1="19.804" y2="27.759" gradientTransform="matrix(0.3502365,0,0,0.354829,298.0971,176.91617)" gradientUnits="userSpaceOnUse" xlink:href="#linearGradient9854-8"/><linearGradient id="linearGradient3039-2" x1="18.729" x2="18.729" y1="44" y2="29.068" gradientTransform="matrix(0.4193549,0,0,0.4273376,302.17002,173.19715)" gradientUnits="userSpaceOnUse" xlink:href="#linearGradient6467-0"/><linearGradient id="linearGradient3056-1" x1="40.25" x2="40.25" y1="31.625" y2="43.25" gradientTransform="translate(-12.020815,0)" gradientUnits="userSpaceOnUse" xlink:href="#linearGradient6365-2"/><linearGradient id="linearGradient3071-8" x1="31.079" x2="33.711" y1="21.511" y2="18.064" gradientTransform="matrix(0.7964847,0,0,0.7951099,284.59661,114.66785)" gradientUnits="userSpaceOnUse" xlink:href="#linearGradient9896-4"/><linearGradient id="linearGradient3074-4" x1="31.853" x2="34.007" y1="19.108" y2="24.765" gradientTransform="matrix(0.7964847,0,0,0.7951099,283.70764,114.66785)" gradientUnits="userSpaceOnUse" xlink:href="#linearGradient9880-5"/><radialGradient id="radialGradient3077-2" cx="27.884" cy="7.14" r="9.723" fx="27.884" fy="7.14" gradientTransform="matrix(0.9006895,0,0,0.4973205,284.82236,122.55655)" gradientUnits="userSpaceOnUse" xlink:href="#linearGradient9868-5"/><linearGradient id="linearGradient3081-7" x1="46.846" x2="18.031" y1="19.804" y2="27.759" gradientTransform="matrix(0.3502365,0,0,0.354829,298.0971,125.91617)" gradientUnits="userSpaceOnUse" xlink:href="#linearGradient9854-8"/><linearGradient id="linearGradient3085-3" x1="18.729" x2="18.729" y1="44" y2="29.068" gradientTransform="matrix(0.4193549,0,0,0.4273376,302.17002,122.19715)" gradientUnits="userSpaceOnUse" xlink:href="#linearGradient6467-0"/><linearGradient id="linearGradient3100-9" x1="40.25" x2="40.25" y1="31.625" y2="43.25" gradientTransform="translate(283.97918,50)" gradientUnits="userSpaceOnUse" xlink:href="#linearGradient6365-2"/><linearGradient id="linearGradient3103-9" x1="31.079" x2="33.711" y1="21.511" y2="18.064" gradientTransform="matrix(0.7964847,0,0,0.7951099,278.59661,38.667845)" gradientUnits="userSpaceOnUse" xlink:href="#linearGradient9896-4"/><linearGradient id="linearGradient3106-3" x1="31.853" x2="34.007" y1="19.108" y2="24.765" gradientTransform="matrix(0.7964847,0,0,0.7951099,277.70764,38.667845)" gradientUnits="userSpaceOnUse" xlink:href="#linearGradient9880-5"/><radialGradient id="radialGradient3109-5" cx="27.884" cy="7.14" r="9.723" fx="27.884" fy="7.14" gradientTransform="matrix(0.9006895,0,0,0.4973205,278.82236,46.556554)" gradientUnits="userSpaceOnUse" xlink:href="#linearGradient9868-5"/><linearGradient id="linearGradient3113-7" x1="46.846" x2="18.031" y1="19.804" y2="27.759" gradientTransform="matrix(0.3502365,0,0,0.354829,292.0971,49.916166)" gradientUnits="userSpaceOnUse" xlink:href="#linearGradient9854-8"/><linearGradient id="linearGradient3117-5" x1="18.729" x2="18.729" y1="44" y2="29.068" gradientTransform="matrix(0.4193549,0,0,0.4273376,296.17002,46.19715)" gradientUnits="userSpaceOnUse" xlink:href="#linearGradient6467-0"/></defs><g id="layer1" style="display:inline"><g id="layer6" style="display:none"><rect id="rect6284" width="48" height="48" x="296" y="50" style="fill:#eeeeec;fill-opacity:1;fill-rule:nonzero;stroke:none;stroke-width:2;marker:none;visibility:visible;display:inline;overflow:visible;enable-background:accumulate"/><rect id="rect6592" width="32" height="32" x="303" y="126" style="fill:#eeeeec;fill-opacity:1;fill-rule:nonzero;stroke:none;stroke-width:2;marker:none;visibility:visible;display:inline;overflow:visible;enable-background:accumulate"/><rect id="rect6749" width="22" height="22" x="303" y="177" style="fill:#eeeeec;fill-opacity:1;fill-rule:nonzero;stroke:none;stroke-width:2;marker:none;visibility:visible;display:inline;overflow:visible;enable-background:accumulate"/><rect id="rect6833" width="16" height="16" x="303" y="219" style="fill:#eeeeec;fill-opacity:1;fill-rule:nonzero;stroke:none;stroke-width:2;marker:none;visibility:visible;display:inline;overflow:visible;enable-background:accumulate"/><rect id="rect8104" width="24" height="24" x="302" y="176" style="fill:#eeeeec;fill-opacity:1;fill-rule:nonzero;stroke:none;stroke-width:2;marker:none;visibility:visible;display:inline;overflow:visible;enable-background:accumulate"/><text id="context" x="20.971" y="21.514" xml:space="preserve" style="font-size:18.30070686px;font-style:normal;font-weight:400;fill:#000;fill-opacity:1;stroke:none;display:inline;enable-background:new;font-family:Bitstream Vera Sans"><tspan id="tspan2716" x="20.971" y="21.514">actions</tspan></text><text id="icon-name" x="191.971" y="21.514" xml:space="preserve" style="font-size:18.30070686px;font-style:normal;font-variant:normal;font-weight:700;font-stretch:normal;text-align:start;line-height:125%;writing-mode:lr-tb;text-anchor:start;fill:#000;fill-opacity:1;stroke:none;display:inline;enable-background:new;font-family:Droid Sans;-inkscape-font-specification:Droid Sans Bold"><tspan id="tspan3023" x="191.971" y="21.514">application-exit</tspan></text></g><g id="layer2" style="display:inline"><rect style="color:#000;fill:#eeeeec;fill-opacity:1;fill-rule:evenodd;stroke:#555753;stroke-width:1.00000048;stroke-linecap:butt;stroke-linejoin:miter;stroke-miterlimit:10;stroke-opacity:1;stroke-dasharray:none;stroke-dashoffset:0;marker:none;visibility:visible;display:inline;overflow:visible;enable-background:new" id="rect9828" width="31.996" height="41.942" x="297.481" y="52.569" rx=".707" ry=".707"/><rect style="color:#000;fill:url(#linearGradient3117-5);fill-opacity:1;fill-rule:evenodd;stroke:none;stroke-width:1;marker:none;visibility:visible;display:inline;overflow:visible;enable-background:new" id="rect9840" width="31" height="26.759" x="297.979" y="67.241"/><path style="opacity:.55428569;fill:#000;fill-opacity:1;fill-rule:evenodd;stroke:none;display:inline;filter:url(#filter6451-7);enable-background:new" id="path6425" d="M 298.10418,93.875 319.47919,85 c 0,0 3.51354,-2.219584 0.25,-3.5 -3.41501,-1.33984 -7,0.5 -7,0.5 l -14.62501,11.875 z"/><path style="color:#000;fill:url(#linearGradient3113-7);fill-opacity:1;fill-rule:evenodd;stroke:none;stroke-width:1;marker:none;visibility:visible;display:inline;overflow:visible;enable-background:new" id="path9852" d="m 298.01685,93.944859 -0.0388,-40.890334 19.9423,0.04419 0.0442,29.919456 -19.94765,10.926684 z"/><path style="opacity:.42222224;color:#000;fill:#fff;fill-opacity:1;fill-rule:nonzero;stroke:none;stroke-width:3;marker:none;visibility:visible;display:block;overflow:visible;enable-background:new" id="path1360" d="m 297.94899,93.944859 20.1481,-10.88249 -18.56156,8.927223 0,-38.979261 -1.57046,0 -0.0161,40.934528 z"/><path style="color:#000;fill:url(#radialGradient3109-5);fill-opacity:1;fill-rule:evenodd;stroke:none;stroke-width:1;marker:none;visibility:visible;display:inline;overflow:visible;enable-background:new" id="path9866" d="m 298.024,93.757359 -0.0448,-40.702834 19.94113,0 -0.17925,30.626563 -19.71706,10.076271 z"/><path style="color:#000;fill:url(#linearGradient3106-3);fill-opacity:1;fill-rule:evenodd;stroke:none;stroke-width:1;marker:none;visibility:visible;display:inline;overflow:visible;enable-background:new" id="path9878" d="m 313.62221,68.456195 1.92245,2.452776 -1.45841,4.817165 c 0,0 0.26516,1.502602 1.03856,0.486136 0.7734,-1.016466 2.97246,-3.582054 2.58536,-5.457981 -0.28726,-1.392116 -1.08276,-2.055028 -1.08276,-2.055028 l -3.0052,-0.243068 z"/><path style="color:#000;fill:url(#linearGradient3103-9);fill-opacity:1;fill-rule:evenodd;stroke:none;stroke-width:1;marker:none;visibility:visible;display:inline;overflow:visible;enable-background:new" id="path9862" d="m 315.45627,67.35134 c 0,0 2.16327,1.001718 2.2318,1.878253 0.10178,1.301722 -4.24264,5.435883 -4.24264,5.435883 -0.50823,0.618718 -1.34792,0.06629 -0.88388,-0.53033 0,0 3.4666,-4.117973 3.24827,-4.441515 -0.27361,-0.405457 -1.96664,-1.038563 -1.96664,-1.038563 -1.01647,-0.7513 0.26762,-2.305463 1.61309,-1.303728 z"/><path style="opacity:.87428571;fill:url(#linearGradient3100-9);fill-opacity:1;fill-rule:evenodd;stroke:none;display:inline;filter:url(#filter6421-0);enable-background:new" id="path6355" d="m 318.22919,53.5 -0.5,29.75 -18.00001,9.75 29.25001,0.25 -0.25,-39.75 -10.5,0 z"/><rect style="color:#000;fill:#eeeeec;fill-opacity:1;fill-rule:evenodd;stroke:#555753;stroke-width:1.00000048;stroke-linecap:butt;stroke-linejoin:miter;stroke-miterlimit:10;stroke-opacity:1;stroke-dasharray:none;stroke-dashoffset:0;marker:none;visibility:visible;display:inline;overflow:visible;enable-background:new" id="rect84" width="21" height="29" x="303.5" y="127.5" rx=".707" ry=".707"/><rect style="color:#000;fill:url(#linearGradient3085-3);fill-opacity:1;fill-rule:evenodd;stroke:none;stroke-width:1;marker:none;visibility:visible;display:inline;overflow:visible;enable-background:new" id="rect86" width="20" height="18.271" x="304" y="137.729"/><path style="opacity:.55428569;fill:#000;fill-opacity:1;fill-rule:evenodd;stroke:none;display:inline;filter:url(#filter6451-7);enable-background:new" id="path88" d="M 2.1041847,43.875 23.479185,35 c 0,0 3.513541,-2.219584 0.25,-3.5 -3.415001,-1.33984 -7,0.5 -7,0.5 L 2.1041847,43.875 z" transform="matrix(0.6676964,0,0,0.6669145,302.49211,126.23077)"/><path style="color:#000;fill:url(#linearGradient3081-7);fill-opacity:1;fill-rule:evenodd;stroke:none;stroke-width:1;marker:none;visibility:visible;display:inline;overflow:visible;enable-background:new" id="path90" d="M 304.02556,155.53823 304,128 l 13.12864,0.0298 0.0291,20.14972 -13.13217,7.35875 z"/><path style="opacity:.42222224;color:#000;fill:#fff;fill-opacity:1;fill-rule:nonzero;stroke:none;stroke-width:3;marker:none;visibility:visible;display:block;overflow:visible;enable-background:new" id="path92" d="m 304,155.53823 13.24626,-7.32107 -12.20319,6.00569 0,-26.22285 -1.03249,0 L 304,155.53823 z"/><path style="color:#000;fill:url(#radialGradient3077-2);fill-opacity:1;fill-rule:evenodd;stroke:none;stroke-width:1;marker:none;visibility:visible;display:inline;overflow:visible;enable-background:new" id="path94" d="M 304.0295,155.41318 304,128 l 13.12822,0 -0.118,20.62686 -12.98072,6.78632 z"/><path style="color:#000;fill:url(#linearGradient3074-4);fill-opacity:1;fill-rule:evenodd;stroke:none;stroke-width:1;marker:none;visibility:visible;display:inline;overflow:visible;enable-background:new" id="path96" d="m 312.82171,138.4452 1.94339,2.47659 -1.4743,4.86395 c 0,0 0.26805,1.51719 1.04988,0.49085 0.78182,-1.02633 3.00483,-3.61683 2.61352,-5.51098 -0.29039,-1.40563 -1.09455,-2.07498 -1.09455,-2.07498 l -3.03794,-0.24543 z"/><path style="color:#000;fill:url(#linearGradient3071-8);fill-opacity:1;fill-rule:evenodd;stroke:none;stroke-width:1;marker:none;visibility:visible;display:inline;overflow:visible;enable-background:new" id="path98" d="m 314.67575,137.32962 c 0,0 2.18683,1.01144 2.25612,1.89649 0.10289,1.31436 -4.28887,5.48867 -4.28887,5.48867 -0.51377,0.62472 -1.3626,0.0669 -0.89351,-0.53548 0,0 3.50437,-4.15796 3.28366,-4.48465 -0.27659,-0.40939 -1.98807,-1.04865 -1.98807,-1.04865 -1.02754,-0.75859 0.27054,-2.32784 1.63067,-1.31638 z"/><path style="opacity:.87428571;fill:url(#linearGradient3056-1);fill-opacity:1;fill-rule:evenodd;stroke:none;display:inline;filter:url(#filter6421-0);enable-background:new" id="path100" d="m 22.229185,3.5 -0.5,29.75 -18.0000003,9.75 29.2500003,0.25 -0.25,-39.75 -10.5,0 z" transform="matrix(0.6676964,0,0,0.6901895,302.49211,126.1493)"/><rect style="color:#000;fill:#eeeeec;fill-opacity:1;fill-rule:evenodd;stroke:#555753;stroke-width:1.00000036;stroke-linecap:butt;stroke-linejoin:miter;stroke-miterlimit:10;stroke-opacity:1;stroke-dasharray:none;stroke-dashoffset:0;marker:none;visibility:visible;display:inline;overflow:visible;enable-background:new" id="rect113" width="14" height="20" x="303.5" y="178.5" rx=".707" ry=".707"/><rect style="color:#000;fill:url(#linearGradient3039-2);fill-opacity:1;fill-rule:evenodd;stroke:none;stroke-width:1;marker:none;visibility:visible;display:inline;overflow:visible;enable-background:new" id="rect115" width="13" height="12.64" x="304" y="185.36"/><path style="opacity:.8857143;fill:#000;fill-opacity:1;fill-rule:evenodd;stroke:none;display:inline;filter:url(#filter6451-7);enable-background:new" id="path117" d="M 2.1041847,43.875 23.479185,35 c 0,0 3.513541,-2.219584 0.25,-3.5 -3.415001,-1.33984 -7,0.5 -7,0.5 L 2.1041847,43.875 z" transform="matrix(0.5356634,0,0,0.5347389,301.63126,174.37416)"/><path style="color:#000;fill:url(#linearGradient3035-8);fill-opacity:1;fill-rule:evenodd;stroke:none;stroke-width:1;marker:none;visibility:visible;display:inline;overflow:visible;enable-background:new" id="path119" d="M 304.01684,197.30457 304,179 l 8.64585,0.0198 0.0192,13.39346 -8.64817,4.89133 z"/><path style="opacity:.42222224;color:#000;fill:#fff;fill-opacity:1;fill-rule:nonzero;stroke:none;stroke-width:3;marker:none;visibility:visible;display:block;overflow:visible;enable-background:new" id="path121" d="m 304,197.30457 8.72441,-4.86629 -8.03741,3.99196 0,-17.43024 -0.68003,0 -0.007,18.30457 z"/><path style="color:#000;fill:url(#radialGradient3031-7);fill-opacity:1;fill-rule:evenodd;stroke:none;stroke-width:1;marker:none;visibility:visible;display:inline;overflow:visible;enable-background:new" id="path123" d="M 304.01943,197.22071 304,179 l 8.64521,0 -0.0777,13.71004 -8.54807,4.51067 z"/><path style="color:#000;fill:url(#linearGradient3028-9);fill-opacity:1;fill-rule:evenodd;stroke:none;stroke-width:1;marker:none;visibility:visible;display:inline;overflow:visible;enable-background:new" id="path125" d="m 309.20683,185.13804 1.5312,1.95023 -1.1616,3.83017 c 0,0 0.2112,1.19474 0.8272,0.38654 0.616,-0.80821 2.36751,-2.84813 2.05919,-4.3397 -0.2288,-1.10688 -0.86239,-1.63397 -0.86239,-1.63397 l -2.3936,-0.19327 z"/><path style="color:#000;fill:url(#linearGradient3025-3);fill-opacity:1;fill-rule:evenodd;stroke:none;stroke-width:1;marker:none;visibility:visible;display:inline;overflow:visible;enable-background:new" id="path127" d="m 310.66763,184.25956 c 0,0 1.72301,0.79648 1.77759,1.49342 0.0811,1.03501 -3.37919,4.32212 -3.37919,4.32212 -0.4048,0.49195 -1.0736,0.0527 -0.704,-0.42167 0,0 2.76109,-3.27424 2.5872,-3.53149 -0.21793,-0.32238 -1.5664,-0.82577 -1.5664,-0.82577 -0.8096,-0.59737 0.21315,-1.8331 1.2848,-1.03661 z"/><path style="opacity:.87428571;fill:url(#linearGradient3013-8);fill-opacity:1;fill-rule:evenodd;stroke:none;display:inline;filter:url(#filter6421-0);enable-background:new" id="path129" d="m 22.229185,3.5 -0.5,29.75 -18.0000003,9.75 29.2500003,0.25 -0.25,-39.75 -10.5,0 z" transform="matrix(0.448057,0,0,0.4725975,302.82366,177.56016)"/><rect style="color:#000;fill:#eeeeec;fill-opacity:1;fill-rule:evenodd;stroke:#555753;stroke-width:1.00000048;stroke-linecap:butt;stroke-linejoin:miter;stroke-miterlimit:10;stroke-opacity:1;stroke-dasharray:none;stroke-dashoffset:0;marker:none;visibility:visible;display:inline;overflow:visible;enable-background:new" id="rect140" width="14" height="15" x="303.5" y="219.5" rx=".707" ry=".707"/><rect style="color:#000;fill:url(#linearGradient2996-5);fill-opacity:1;fill-rule:evenodd;stroke:none;stroke-width:1;marker:none;visibility:visible;display:inline;overflow:visible;enable-background:new" id="rect142" width="13" height="11.435" x="304" y="222.565"/><path style="opacity:.8857143;fill:#000;fill-opacity:1;fill-rule:evenodd;stroke:none;display:inline;filter:url(#filter6451-7);enable-background:new" id="path144" d="M 2.1041847,43.875 23.479185,35 c 0,0 3.513541,-2.219584 0.25,-3.5 -3.415001,-1.33984 -7,0.5 -7,0.5 L 2.1041847,43.875 z" transform="matrix(0.4015756,0,0,0.4316719,301.9134,216.10073)"/><path style="color:#000;fill:url(#linearGradient2992-4);fill-opacity:1;fill-rule:evenodd;stroke:none;stroke-width:1;marker:none;visibility:visible;display:inline;overflow:visible;enable-background:new" id="path146" d="M 304.0136,234.50908 304,220 l 6.98452,0.0157 0.0155,10.61629 -6.9864,3.87711 z"/><path style="opacity:.42222224;color:#000;fill:#fff;fill-opacity:1;fill-rule:nonzero;stroke:none;stroke-width:3;marker:none;visibility:visible;display:block;overflow:visible;enable-background:new" id="path148" d="m 304,234.50908 7,-3.85726 -6.44879,3.16422 0,-13.81604 -0.54562,0 -0.006,14.50908 z"/><path style="color:#000;fill:url(#radialGradient2988-9);fill-opacity:1;fill-rule:evenodd;stroke:none;stroke-width:1;marker:none;visibility:visible;display:inline;overflow:visible;enable-background:new" id="path150" d="M 304.01573,234.42521 304,220 l 7,0 -0.0629,10.85415 -6.92135,3.57106 z"/><path style="opacity:.87428571;fill:url(#linearGradient2976-9);fill-opacity:1;fill-rule:evenodd;stroke:none;display:inline;filter:url(#filter6421-0);enable-background:new" id="path152" d="m 22.229185,3.5 -0.5,29.75 -18.0000003,9.75 29.2500003,0.25 -0.25,-39.75 -10.5,0 z" transform="matrix(0.448057,0,0,0.3416666,301.85139,219.22292)"/><g style="display:inline;enable-background:new" id="g4484" transform="matrix(0,1,-1,0,546,-184)"><g id="g4059-2-0-1" transform="matrix(0,-1,1,0,522.5,541.5)" style="display:inline;enable-background:new"><path id="path3960-3-8-4-9" d="m 307.5,-111.5 5,0 m -4,-3 -2,3 2,3" style="fill:none;stroke:url(#linearGradient4579-9);stroke-width:4;stroke-linecap:round;stroke-linejoin:miter;stroke-miterlimit:4;stroke-opacity:1;stroke-dasharray:none;display:inline;enable-background:new"/><path id="path3960-8-2-0" d="m 307.5,188.5 5,0 m -4,-3 -2,3 2,3" transform="translate(0,-300)" style="fill:none;stroke:url(#linearGradient4455-7-2);stroke-width:2;stroke-linecap:round;stroke-linejoin:miter;stroke-miterlimit:4;stroke-opacity:1;stroke-dasharray:none"/></g></g><g style="display:inline;enable-background:new" id="g3518" transform="matrix(0,1,-1,0,491,-246)"><path id="path3960-3-8-4-0-4" d="m 434,174 0,-6 m -4,4 4,3 4,-3" style="fill:none;stroke:url(#linearGradient3523-7);stroke-width:4;stroke-linecap:round;stroke-linejoin:miter;stroke-miterlimit:4;stroke-opacity:1;stroke-dasharray:none;display:inline;enable-background:new"/><path id="path3960-8-2-2-7" d="m 434,174 0,-6 m -4,4 4,3 4,-3" style="fill:none;stroke:url(#linearGradient3525-0);stroke-width:2;stroke-linecap:round;stroke-linejoin:miter;stroke-miterlimit:4;stroke-opacity:1;stroke-dasharray:none;display:inline;enable-background:new"/></g><g style="display:inline;enable-background:new" id="g3494" transform="matrix(0,1,-1,0,469,-297)"><path id="path3960-3-8-4-0-8-6" d="m 439,146 0,-9 m -5,6 5,4 5,-4" style="fill:none;stroke:url(#linearGradient3500-2);stroke-width:6;stroke-linecap:round;stroke-linejoin:miter;stroke-miterlimit:4;stroke-opacity:1;stroke-dasharray:none;display:inline;enable-background:new"/><path id="path3960-8-2-2-8-5" d="m 439,146 0,-9 m -5,6 5,4 5,-4" style="fill:none;stroke:url(#linearGradient3502-79);stroke-width:4;stroke-linecap:round;stroke-linejoin:miter;stroke-miterlimit:4;stroke-opacity:1;stroke-dasharray:none;display:inline;enable-background:new"/><path id="path3960-8-2-2-8-7-1" d="m 438.96875,135.46875 c -0.78543,0.0163 -1.4852,0.74583 -1.46875,1.53125 l 0,6.90625 -2.5625,-2.0625 c -0.58712,-0.61142 -1.71343,-0.56418 -2.2473,0.0942 -0.53386,0.65843 -0.34727,1.77019 0.3723,2.21825 l 5.9375,4.75 5.9375,-4.75 c 0.71957,-0.44806 0.90616,-1.55982 0.3723,-2.21825 -0.53387,-0.65843 -1.66018,-0.70567 -2.2473,-0.0942 l -2.5625,2.0625 0,-6.90625 c 0.0169,-0.80625 -0.725,-1.54815 -1.53125,-1.53125 z" style="font-size:medium;font-style:normal;font-variant:normal;font-weight:400;font-stretch:normal;text-indent:0;text-align:start;text-decoration:none;line-height:normal;letter-spacing:normal;word-spacing:normal;text-transform:none;direction:ltr;block-progression:tb;writing-mode:lr-tb;text-anchor:start;opacity:.4;color:#000;fill:none;stroke:#fcaf3e;stroke-width:1;stroke-miterlimit:4;stroke-dasharray:none;marker:none;visibility:visible;display:inline;overflow:visible;enable-background:new;font-family:Bitstream Vera Sans;-inkscape-font-specification:Bitstream Vera Sans"/></g><g style="display:inline;enable-background:new" id="g4074" transform="translate(-0.99999996,3.9782776e-8)"><g id="g3486" transform="matrix(0,1,-1,0,402,-366)" style="display:inline;enable-background:new"><g style="display:inline;enable-background:new" id="g5386" transform="translate(0,30)"><path id="path3960-3-8-4-0-5-5" d="m 439.5,45.5 0,-14 m -8,9 8,6 8,-6" style="fill:none;stroke:url(#linearGradient4082-1);stroke-width:7;stroke-linecap:round;stroke-linejoin:miter;stroke-miterlimit:4;stroke-opacity:1;stroke-dasharray:none;display:inline;enable-background:new"/><path id="path3960-3-8-4-0-5-6-8" d="m 439.5,45.5 0,-14 m -8,9 8,6 8,-6" style="fill:none;stroke:url(#linearGradient4084-0);stroke-width:5;stroke-linecap:round;stroke-linejoin:miter;stroke-miterlimit:4;stroke-opacity:1;stroke-dasharray:none;display:inline;enable-background:new"/><path id="path3960-3-8-4-0-5-6-0-5" d="M 439.46875,29.46875 C 438.42155,29.48509 437.48361,30.452796 437.5,31.5 l 0,11 -4.8125,-3.59375 c -0.81894,-0.767613 -2.30117,-0.635808 -2.97181,0.264263 -0.67064,0.90007 -0.37297,2.358079 0.59681,2.923237 L 439.5,49 l 9.1875,-6.90625 c 0.96978,-0.565158 1.26745,-2.023167 0.59681,-2.923237 -0.67064,-0.900071 -2.15287,-1.031876 -2.97181,-0.264263 L 441.5,42.5 l 0,-11 c 0.0167,-1.068036 -0.96321,-2.047962 -2.03125,-2.03125 z" style="font-size:medium;font-style:normal;font-variant:normal;font-weight:400;font-stretch:normal;text-indent:0;text-align:start;text-decoration:none;line-height:normal;letter-spacing:normal;word-spacing:normal;text-transform:none;direction:ltr;block-progression:tb;writing-mode:lr-tb;text-anchor:start;opacity:.4;color:#000;fill:none;stroke:#fcaf3e;stroke-width:1;stroke-miterlimit:4;stroke-dasharray:none;marker:none;visibility:visible;display:inline;overflow:visible;enable-background:new;font-family:Bitstream Vera Sans;-inkscape-font-specification:Bitstream Vera Sans"/></g></g><path id="path3960-3-8-4-0-5-6-8-6" d="m 332.09375,82.3125 c 0.42542,-0.310887 0.52964,-0.980826 0.21875,-1.40625 L 327.5,74.5 m 14.01424,-1 c 0,-0.528365 -0.48593,-1.007472 -1.01424,-1 l -13,0 m 4.8125,-6.40625 c 0.48781,-0.635117 -0.18036,-1.734359 -0.96875,-1.59375 -0.26083,0.0416 -0.50271,0.191334 -0.65625,0.40625 L 324.25,73.5" style="font-size:medium;font-style:normal;font-variant:normal;font-weight:400;font-stretch:normal;text-indent:0;text-align:start;text-decoration:none;line-height:normal;letter-spacing:normal;word-spacing:normal;text-transform:none;direction:ltr;block-progression:tb;writing-mode:lr-tb;text-anchor:start;opacity:.5;color:#000;fill:none;stroke:#fff;stroke-width:1;stroke-linecap:round;stroke-miterlimit:4;stroke-dasharray:none;marker:none;visibility:visible;display:inline;overflow:visible;enable-background:new;font-family:Abandoned Bitplane;-inkscape-font-specification:Abandoned Bitplane"/></g><path style="font-size:medium;font-style:normal;font-variant:normal;font-weight:400;font-stretch:normal;text-indent:0;text-align:start;text-decoration:none;line-height:normal;letter-spacing:normal;word-spacing:normal;text-transform:none;direction:ltr;block-progression:tb;writing-mode:lr-tb;text-anchor:start;opacity:.5;color:#000;fill:none;stroke:#fff;stroke-width:1;stroke-linecap:round;marker:none;visibility:visible;display:inline;overflow:visible;enable-background:new;font-family:Abandoned Bitplane;-inkscape-font-specification:Abandoned Bitplane" id="path3960-8-2-2-8-5-3" d="m 326.38957,147.46749 c 0.22915,-0.19095 0.22155,-0.59773 -0.0146,-0.77999 l -2.47101,-3.09456 M 332.50712,142 c 0,-0.26418 -0.24296,-0.50374 -0.50712,-0.5 l -7.96875,0 m 2.34375,-4.1875 c 0.27652,-0.31886 -0.0907,-0.91566 -0.5,-0.8125 -0.10037,0.0339 -0.18935,0.10064 -0.25,0.1875 L 321.375,142"/><path style="font-size:medium;font-style:normal;font-variant:normal;font-weight:400;font-stretch:normal;text-indent:0;text-align:start;text-decoration:none;line-height:normal;letter-spacing:normal;word-spacing:normal;text-transform:none;direction:ltr;block-progression:tb;writing-mode:lr-tb;text-anchor:start;opacity:.7;color:#000;fill:none;stroke:#fcaf3e;stroke-width:1;stroke-linecap:round;stroke-linejoin:miter;stroke-miterlimit:4;stroke-opacity:1;stroke-dasharray:none;stroke-dashoffset:0;marker:none;visibility:visible;display:inline;overflow:visible;enable-background:new;font-family:Abandoned Bitplane;-inkscape-font-specification:Abandoned Bitplane" id="path3960-8-2-2-7-6" d="m 323.50712,188 c 0,-0.26418 -0.24296,-0.50374 -0.50712,-0.5 l -5,0 m 1.31253,4.9063 c 0.21272,-0.16363 0.25737,-0.50607 0.0937,-0.71878 l -1.6864,-2.23396 m 1.68642,-5.14106 c 0.30142,-0.32425 -0.11334,-0.95858 -0.53125,-0.8125 -0.11155,0.0277 -0.21279,0.0952 -0.28125,0.1875 L 315.375,188"/><path style="font-size:medium;font-style:normal;font-variant:normal;font-weight:400;font-stretch:normal;text-indent:0;text-align:start;text-decoration:none;line-height:normal;letter-spacing:normal;word-spacing:normal;text-transform:none;direction:ltr;block-progression:tb;writing-mode:lr-tb;text-anchor:start;opacity:.7;color:#000;fill:none;stroke:#fcaf3e;stroke-width:1;stroke-linecap:round;stroke-linejoin:miter;stroke-miterlimit:4;stroke-opacity:1;stroke-dasharray:none;stroke-dashoffset:0;marker:none;visibility:visible;display:inline;overflow:visible;enable-background:new;font-family:Abandoned Bitplane;-inkscape-font-specification:Abandoned Bitplane" id="path3960-8-2-0-4" d="m 313.40625,224.28125 c 0.22946,-0.32261 -0.11094,-0.85449 -0.5,-0.78125 -0.12733,0.0284 -0.24224,0.10883 -0.3125,0.21875 L 310.40625,227 m 7.10087,0 c 0,-0.26418 -0.24296,-0.50374 -0.50712,-0.5 l -4,0 m 0.32839,3.97434 c 0.23642,-0.16368 0.27594,-0.54714 0.0779,-0.75559 l -1.02633,-1.55038"/></g></g><g id="layer3" style="display:none"><rect id="rect6282" width="256" height="256" x="20" y="30" style="fill:#eeeeec;fill-opacity:1;fill-rule:nonzero;stroke:none;stroke-width:2;marker:none;visibility:visible;display:inline;overflow:visible;enable-background:accumulate"/></g></svg>