<svg xmlns="http://www.w3.org/2000/svg" xmlns:svg="http://www.w3.org/2000/svg" xmlns:xlink="http://www.w3.org/1999/xlink" id="svg11300" width="400" height="300" version="1.0" style="display:inline;enable-background:new"><title id="title8836">Optical Drive</title><metadata id="metadata154"/><defs id="defs3"><linearGradient id="linearGradient7002"><stop id="stop7004" offset="0" style="stop-color:#eeeeec;stop-opacity:1"/><stop id="stop7006" offset="1" style="stop-color:#babdb6;stop-opacity:1"/></linearGradient><linearGradient id="linearGradient6992"><stop id="stop6994" offset="0" style="stop-color:#fff;stop-opacity:.15384616"/><stop id="stop7000" offset=".51" style="stop-color:#fff;stop-opacity:1"/><stop id="stop6996" offset="1" style="stop-color:#fff;stop-opacity:0"/></linearGradient><linearGradient id="linearGradient7007"><stop id="stop7009" offset="0" style="stop-color:#c4a000;stop-opacity:1"/><stop id="stop7011" offset="1" style="stop-color:#c4a000;stop-opacity:0"/></linearGradient><linearGradient id="linearGradient7447"><stop id="stop7449" offset="0" style="stop-color:#fff;stop-opacity:1"/><stop id="stop7451" offset="1" style="stop-color:#fff;stop-opacity:0"/></linearGradient><linearGradient id="linearGradient7233"><stop id="stop7235" offset="0" style="stop-color:#000;stop-opacity:1"/><stop id="stop7237" offset="1" style="stop-color:#000;stop-opacity:0"/></linearGradient><linearGradient id="linearGradient7223"><stop id="stop7225" offset="0" style="stop-color:#fce94f;stop-opacity:.78431374"/><stop id="stop7227" offset="1" style="stop-color:#edd400;stop-opacity:.78431374"/></linearGradient><linearGradient id="linearGradient7215"><stop id="stop7217" offset="0" style="stop-color:#fff;stop-opacity:1"/><stop id="stop7219" offset="1" style="stop-color:#fff;stop-opacity:0"/></linearGradient><linearGradient id="linearGradient7207"><stop id="stop7209" offset="0" style="stop-color:#fff;stop-opacity:1"/><stop id="stop7211" offset="1" style="stop-color:#fff;stop-opacity:0"/></linearGradient><linearGradient id="linearGradient7010"><stop id="stop7012" offset="0" style="stop-color:#888a85;stop-opacity:1"/><stop id="stop7014" offset="1" style="stop-color:#babdb6;stop-opacity:1"/></linearGradient><linearGradient id="linearGradient6979"><stop id="stop6981" offset="0" style="stop-color:#fff;stop-opacity:1"/><stop id="stop6983" offset="1" style="stop-color:#fff;stop-opacity:0"/></linearGradient><linearGradient id="linearGradient6969"><stop id="stop6973" offset="0" style="stop-color:#000;stop-opacity:1"/><stop id="stop6975" offset="1" style="stop-color:#000;stop-opacity:0"/></linearGradient><linearGradient id="linearGradient6967"><stop id="stop6969" offset="0" style="stop-color:#fff;stop-opacity:1"/><stop id="stop6971" offset="1" style="stop-color:#fff;stop-opacity:0"/></linearGradient><linearGradient id="linearGradient7065"><stop id="stop7067" offset="0" style="stop-color:#888a85;stop-opacity:1"/><stop id="stop7073" offset=".704" style="stop-color:#cfd0ce;stop-opacity:1"/><stop id="stop7069" offset="1" style="stop-color:#888a85;stop-opacity:1"/></linearGradient><linearGradient id="linearGradient7033"><stop id="stop7035" offset="0" style="stop-color:#000;stop-opacity:1"/><stop id="stop7037" offset="1" style="stop-color:#000;stop-opacity:0"/></linearGradient><linearGradient id="linearGradient6978"><stop id="stop6980" offset="0" style="stop-color:#babdb6;stop-opacity:1"/><stop id="stop6982" offset="1" style="stop-color:#555753;stop-opacity:0"/></linearGradient><linearGradient id="linearGradient6970"><stop id="stop6972" offset="0" style="stop-color:#fff;stop-opacity:1"/><stop id="stop6974" offset="1" style="stop-color:#eeeeec;stop-opacity:0"/></linearGradient><linearGradient id="linearGradient6939"><stop id="stop6941" offset="0" style="stop-color:#babdb6;stop-opacity:1"/><stop id="stop7051" offset=".247" style="stop-color:#ededed;stop-opacity:1"/><stop id="stop7053" offset=".534" style="stop-color:#b6b9b1;stop-opacity:1"/><stop id="stop7049" offset=".832" style="stop-color:#e9eae8;stop-opacity:1"/><stop id="stop6943" offset="1" style="stop-color:#b5b9b2;stop-opacity:1"/></linearGradient><radialGradient id="radialGradient6977" cx="28.638" cy="43.934" r="10.076" fx="28.638" fy="43.934" gradientTransform="matrix(1,0,0,0.2982456,0,30.830973)" gradientUnits="userSpaceOnUse" xlink:href="#linearGradient6969"/><linearGradient id="linearGradient7133" x1="13.5" x2="38.758" y1="-2.371" y2="51.564" gradientTransform="translate(3,0)" gradientUnits="userSpaceOnUse" xlink:href="#linearGradient7010"/><linearGradient id="linearGradient7139" x1="3.712" x2="3.712" y1="3.527" y2="5.011" gradientTransform="translate(13,0)" gradientUnits="userSpaceOnUse" xlink:href="#linearGradient6978"/><linearGradient id="linearGradient7141" x1="23.125" x2="29.625" y1="1.5" y2="78.125" gradientTransform="translate(3,0)" gradientUnits="userSpaceOnUse" xlink:href="#linearGradient6979"/><linearGradient id="linearGradient7143" x1="9.531" x2="11.468" y1="17.563" y2="17.563" gradientTransform="translate(16,2)" gradientUnits="userSpaceOnUse" xlink:href="#linearGradient6967"/><linearGradient id="linearGradient7145" x1="12.688" x2="12.688" y1="17.55" y2="21.501" gradientTransform="matrix(0.5,0,0,1,27.5,1)" gradientUnits="userSpaceOnUse" xlink:href="#linearGradient7033"/><linearGradient id="linearGradient7147" x1="12.688" x2="12.688" y1="17.55" y2="21.501" gradientTransform="matrix(0.5,0,0,1,21.5,1)" gradientUnits="userSpaceOnUse" xlink:href="#linearGradient7033"/><linearGradient id="linearGradient7149" x1="20.462" x2="20.462" y1="15.327" y2="11.747" gradientTransform="translate(18,0)" gradientUnits="userSpaceOnUse" xlink:href="#linearGradient7065"/><linearGradient id="linearGradient7151" x1="3.801" x2="3.801" y1="9.581" y2="7.998" gradientTransform="translate(13,0)" gradientUnits="userSpaceOnUse" xlink:href="#linearGradient6970"/><linearGradient id="linearGradient7153" x1="23.125" x2="29.625" y1="1.5" y2="78.125" gradientTransform="translate(3,0)" gradientUnits="userSpaceOnUse" xlink:href="#linearGradient6979"/><linearGradient id="linearGradient7155" x1="-5.837" x2="22" y1="8.048" y2="33.137" gradientTransform="translate(17,0)" gradientUnits="userSpaceOnUse" xlink:href="#linearGradient6939"/><radialGradient id="radialGradient7457" cx="28.638" cy="43.934" r="10.076" fx="28.638" fy="43.934" gradientTransform="matrix(1,0,0,0.2982456,0,30.830973)" gradientUnits="userSpaceOnUse" xlink:href="#linearGradient6969"/><linearGradient id="linearGradient7023" x1="15.75" x2="4.527" y1="37" y2="-.524" gradientTransform="matrix(0,-1,1,0,-22.968749,49.03125)" gradientUnits="userSpaceOnUse" xlink:href="#linearGradient7223"/><linearGradient id="linearGradient7025" x1="24.375" x2="-6.594" y1="26" y2="26" gradientTransform="matrix(0,-1,1,0,-22.968749,49.03125)" gradientUnits="userSpaceOnUse" xlink:href="#linearGradient7207"/><radialGradient id="radialGradient7027" cx="3.031" cy="40.625" r="13" fx="3.031" fy="40.625" gradientTransform="matrix(1.450655,0,0,1.2623489,-1.3660485,-18.001669)" gradientUnits="userSpaceOnUse" xlink:href="#linearGradient7007"/><linearGradient id="linearGradient7029" x1="21.625" x2="5.241" y1="19.875" y2="19.875" gradientTransform="matrix(0,-1,1,0,-22.968749,49.03125)" gradientUnits="userSpaceOnUse" xlink:href="#linearGradient7215"/><linearGradient id="linearGradient7031" x1="11.225" x2="9" y1="26.522" y2="26.522" gradientTransform="matrix(0,-1,1,0,-22.968749,49.03125)" gradientUnits="userSpaceOnUse" xlink:href="#linearGradient7233"/><linearGradient id="linearGradient7034" x1="14.625" x2="20.625" y1="28.125" y2="10.625" gradientTransform="matrix(0,-1,1,0,-22.968749,49.03125)" gradientUnits="userSpaceOnUse" xlink:href="#linearGradient7447"/><radialGradient id="radialGradient7001" cx="28.638" cy="43.934" r="10.076" fx="28.638" fy="43.934" gradientTransform="matrix(1,0,0,0.2982456,0,30.830973)" gradientUnits="userSpaceOnUse" xlink:href="#linearGradient6969"/><linearGradient id="linearGradient6998" x1="30" x2="31" y1="8.375" y2="39" gradientUnits="userSpaceOnUse" xlink:href="#linearGradient6992"/><radialGradient id="radialGradient7008" cx="24.5" cy="14" r="10.5" fx="24.5" fy="14" gradientTransform="matrix(1,0,0,0.6666667,0,4.6666667)" gradientUnits="userSpaceOnUse" xlink:href="#linearGradient7002"/><linearGradient id="linearGradient7358"><stop id="stop7360" offset="0" style="stop-color:#000;stop-opacity:1"/><stop id="stop7362" offset="1" style="stop-color:#000;stop-opacity:0"/></linearGradient><linearGradient id="linearGradient7323"><stop id="stop7325" offset="0" style="stop-color:#fff;stop-opacity:1"/><stop id="stop7327" offset="1" style="stop-color:#fff;stop-opacity:0"/></linearGradient><linearGradient id="linearGradient6958"><stop id="stop6960" offset="0" style="stop-color:#fff;stop-opacity:1"/><stop id="stop6962" offset="1" style="stop-color:#fff;stop-opacity:0"/></linearGradient><linearGradient id="linearGradient6955"><stop id="stop6957" offset="0" style="stop-color:#fff;stop-opacity:1"/><stop id="stop6959" offset="1" style="stop-color:#fff;stop-opacity:0"/></linearGradient><linearGradient id="linearGradient6945" x1="6.36" x2="18" y1="2.568" y2="41.976" gradientTransform="translate(10,0)" gradientUnits="userSpaceOnUse" xlink:href="#linearGradient6939"/><linearGradient id="linearGradient6961" x1="9.016" x2="22.226" y1="8.177" y2="34.39" gradientTransform="translate(10,0)" gradientUnits="userSpaceOnUse" xlink:href="#linearGradient6955"/><linearGradient id="linearGradient7039" x1="12.688" x2="12.688" y1="17.55" y2="23.322" gradientTransform="translate(10,-1)" gradientUnits="userSpaceOnUse" xlink:href="#linearGradient6958"/><linearGradient id="linearGradient7043" x1="12.688" x2="12.688" y1="17.55" y2="21.501" gradientTransform="matrix(0.5,0,0,1,14.5,-4)" gradientUnits="userSpaceOnUse" xlink:href="#linearGradient7033"/><linearGradient id="linearGradient7047" x1="12.688" x2="12.688" y1="17.55" y2="21.501" gradientTransform="matrix(0.5,0,0,1,18.5,-4)" gradientUnits="userSpaceOnUse" xlink:href="#linearGradient7033"/><linearGradient id="linearGradient7071" x1="20.462" x2="20.462" y1="15.327" y2="11.747" gradientTransform="matrix(1,0,0,0.75,7,2.875)" gradientUnits="userSpaceOnUse" xlink:href="#linearGradient7065"/><linearGradient id="linearGradient7338" x1="15.75" x2="4.527" y1="37" y2="-.524" gradientTransform="matrix(0,-0.630369,0.6573241,0,-23.089941,30.858135)" gradientUnits="userSpaceOnUse" xlink:href="#linearGradient7223"/><radialGradient id="radialGradient7340" cx="3.031" cy="40.625" r="13" fx="3.031" fy="40.625" gradientTransform="matrix(0.9535505,0,0,0.7957456,-8.8899656,-11.39734)" gradientUnits="userSpaceOnUse" xlink:href="#linearGradient7007"/><linearGradient id="linearGradient7342" x1="11.297" x2="28.65" y1="26.989" y2="26.807" gradientTransform="matrix(0,-0.7262133,0.6852294,0,-23.815932,32.577613)" gradientUnits="userSpaceOnUse" xlink:href="#linearGradient7215"/><linearGradient id="linearGradient7344" x1="11.225" x2="9" y1="26.522" y2="26.522" gradientTransform="matrix(0,-1.0000003,1,0,-27.999999,35.000002)" gradientUnits="userSpaceOnUse" xlink:href="#linearGradient7233"/><linearGradient id="linearGradient7346" x1="-10.563" x2="-9.875" y1="17.563" y2="25.563" gradientUnits="userSpaceOnUse" xlink:href="#linearGradient7323"/><radialGradient id="radialGradient7364" cx="23.789" cy="31" r="3.789" fx="23.789" fy="31" gradientTransform="matrix(1,0,0,0.263951,0,22.81752)" gradientUnits="userSpaceOnUse" xlink:href="#linearGradient7358"/><radialGradient id="radialGradient7368" cx="23.789" cy="31" r="3.789" fx="23.789" fy="31" gradientTransform="matrix(1,0,0,0.263951,0,22.81752)" gradientUnits="userSpaceOnUse" xlink:href="#linearGradient7358"/><linearGradient id="linearGradient6931"><stop id="stop6933" offset="0" style="stop-color:#a1a29e;stop-opacity:1"/><stop id="stop6935" offset="1" style="stop-color:#888a85;stop-opacity:0"/></linearGradient><linearGradient id="linearGradient6937" x1="15.563" x2="15.563" y1="18.873" y2="22.003" gradientTransform="translate(1,0)" gradientUnits="userSpaceOnUse" xlink:href="#linearGradient6931"/><linearGradient id="linearGradient6976" x1="3.801" x2="3.801" y1="9.581" y2="7.998" gradientTransform="translate(-1,-2)" gradientUnits="userSpaceOnUse" xlink:href="#linearGradient6970"/><linearGradient id="linearGradient6984" x1="3.712" x2="3.712" y1="3.527" y2="5.011" gradientTransform="translate(-1,0)" gradientUnits="userSpaceOnUse" xlink:href="#linearGradient6978"/><linearGradient id="linearGradient6973" x1="9.531" x2="11.157" y1="17.563" y2="17.563" gradientTransform="translate(0,-1)" gradientUnits="userSpaceOnUse" xlink:href="#linearGradient6967"/></defs><g id="layer6" style="display:none"><rect id="rect6284" width="48" height="48" x="296" y="50" style="fill:#eeeeec;fill-opacity:1;fill-rule:nonzero;stroke:none;stroke-width:2;marker:none;visibility:visible;display:inline;overflow:visible;enable-background:accumulate"/><rect id="rect6592" width="32" height="32" x="303" y="126" style="fill:#eeeeec;fill-opacity:1;fill-rule:nonzero;stroke:none;stroke-width:2;marker:none;visibility:visible;display:inline;overflow:visible;enable-background:accumulate"/><rect id="rect6749" width="22" height="22" x="303" y="177" style="fill:#eeeeec;fill-opacity:1;fill-rule:nonzero;stroke:none;stroke-width:2;marker:none;visibility:visible;display:inline;overflow:visible;enable-background:accumulate"/><rect id="rect6833" width="16" height="16" x="303" y="219" style="fill:#eeeeec;fill-opacity:1;fill-rule:nonzero;stroke:none;stroke-width:2;marker:none;visibility:visible;display:inline;overflow:visible;enable-background:accumulate"/><text id="context" x="20.971" y="21.514" xml:space="preserve" style="font-size:18.30070686px;font-style:normal;font-weight:400;fill:#000;fill-opacity:1;stroke:none;display:inline;enable-background:new;font-family:Bitstream Vera Sans"><tspan id="tspan2716" x="20.971" y="21.514">categories</tspan></text><text id="icon-name" x="191.971" y="21.514" xml:space="preserve" style="font-size:18.30070686px;font-style:normal;font-variant:normal;font-weight:700;font-stretch:normal;text-align:start;line-height:125%;writing-mode:lr-tb;text-anchor:start;fill:#000;fill-opacity:1;stroke:none;display:inline;enable-background:new;font-family:Droid Sans;-inkscape-font-specification:Droid Sans Bold"><tspan id="tspan3023" x="191.971" y="21.514">applications-engineering</tspan></text></g><g id="layer2" style="display:inline"><g id="g48" transform="translate(296,50) scale(1.000000,1.000000)" style="display:inline;enable-background:new"><path id="path5940" d="M 34.5,6.5 L 39.5,6.5 C 39.5,5.190363 36.277627,3.8466306 34.5,3.5 L 34.5,6.5 z" style="fill:#babdb6;fill-rule:evenodd;stroke:#888a85;stroke-width:1px;stroke-linecap:butt;stroke-linejoin:miter;stroke-opacity:1"/><rect id="rect6988" width="4" height="2" x="33.5" y="12.5" rx="0" ry="0" style="opacity:1;fill:#eeeeec;fill-opacity:1;fill-rule:evenodd;stroke:#babdb6;stroke-width:.99999994;stroke-linecap:round;stroke-linejoin:miter;stroke-miterlimit:10;stroke-dasharray:none;stroke-opacity:1"/><path id="path7455" d="M 38.714097 43.934135 A 10.076272 3.0052037 0 1 1 18.561553,43.934135 A 10.076272 3.0052037 0 1 1 38.714097 43.934135 z" transform="matrix(2.2997063,0,0,0.8336219,-43.165305,7.3703375)" style="opacity:.1;fill:url(#radialGradient7457);fill-opacity:1;fill-rule:evenodd;stroke:none;stroke-width:1;stroke-linecap:round;stroke-linejoin:round;stroke-miterlimit:4;stroke-dasharray:none;stroke-opacity:1"/><g id="g7015" transform="translate(20,3)"><path id="rect7157" d="M -14.46875,40.53125 L 20.531251,40.53125 L 20.531251,35.53125 L 16.531251,35.53125 C 16.537461,35.364911 16.531251,35.137012 16.531251,34.96875 C 16.531251,27.51675 10.48325,21.468749 3.03125,21.468749 C -4.42075,21.468749 -10.46875,27.51675 -10.468751,34.96875 C -10.46875,35.137012 -10.44371,35.364911 -10.437499,35.53125 L -14.468749,35.53125 L -14.46875,40.53125 z M -5.46875,34.96875 C -5.46875,30.27675 -1.66075,26.468749 3.03125,26.468749 C 7.723251,26.46875 11.531251,30.27675 11.531251,34.96875 C 11.531251,35.135849 11.540881,35.366437 11.531251,35.53125 L -5.468749,35.53125 C -5.478378,35.366437 -5.46875,35.135849 -5.46875,34.96875 z" style="fill:url(#linearGradient7023);fill-opacity:1;fill-rule:evenodd;stroke:#c4a000;stroke-width:.99999994;stroke-linecap:round;stroke-linejoin:round;stroke-miterlimit:4;stroke-dasharray:none;stroke-opacity:1"/><path id="path7176" d="M -13.468749,39.53125 L 19.531251,39.53125 L 19.531251,36.53125 L 16.531251,36.53125 C 16.260539,36.531354 16.001349,36.42171 15.812894,36.227366 C 15.624439,36.033021 15.522819,35.770581 15.531251,35.5 C 15.535263,35.392527 15.531251,35.161616 15.531251,34.96875 C 15.531251,28.057813 9.942188,22.46875 3.031251,22.46875 C -3.879685,22.468751 -9.468748,28.057813 -9.468749,34.96875 C -9.468749,35.037815 -9.446178,35.267556 -9.437499,35.5 C -9.429067,35.770581 -9.530687,36.033021 -9.719142,36.227366 C -9.907597,36.42171 -10.166787,36.531354 -10.437499,36.53125 L -13.468749,36.53125 L -13.468749,39.53125 z" style="fill:none;fill-opacity:1;fill-rule:evenodd;stroke:url(#linearGradient7025);stroke-width:1;stroke-linecap:round;stroke-linejoin:miter;stroke-miterlimit:4;stroke-opacity:1"/><path id="path7243" d="M -9.968749,32.875 L -8.562499,33.28125 C -8.486258,32.953184 -8.383835,32.629706 -8.281249,32.3125 L -9.718749,31.90625 L -9.968749,32.875 z M -8.749999,29.4375 L -7.406249,30.25 C -7.24979,29.964996 -7.084544,29.676575 -6.906249,29.40625 L -8.281249,28.5625 L -8.749999,29.4375 z M -6.749999,26.4375 L -5.531249,27.71875 C -5.300173,27.477073 -5.062817,27.25287 -4.812499,27.03125 L -6.062499,25.71875 L -6.749999,26.4375 z M -4.031249,24.09375 L -3.124999,25.78125 C -2.853543,25.615143 -2.566277,25.456821 -2.281249,25.3125 L -3.218749,23.59375 L -4.031249,24.09375 z M -0.874999,22.5625 L -0.374999,24.53125 C -0.074232,24.440522 0.221124,24.379348 0.531251,24.3125 L 0.031251,22.3125 L -0.874999,22.5625 z M 2.562501,24.0625 C 2.718812,24.056335 2.873481,24.03125 3.031251,24.03125 C 3.189021,24.03125 3.34369,24.056335 3.500001,24.0625 L 3.500001,21.96875 L 2.562501,21.96875 L 2.562501,24.0625 z M 5.531251,24.3125 C 5.841378,24.379348 6.136734,24.440522 6.437501,24.53125 L 6.937501,22.5625 L 6.031251,22.3125 L 5.531251,24.3125 z M 8.343751,25.3125 C 8.628779,25.456821 8.916045,25.615143 9.187501,25.78125 L 10.093751,24.09375 L 9.281251,23.59375 L 8.343751,25.3125 z M 10.875001,27.03125 C 11.125319,27.25287 11.362675,27.477073 11.593751,27.71875 L 12.812501,26.4375 L 12.125001,25.71875 L 10.875001,27.03125 z M 12.968751,29.40625 C 13.147046,29.676575 13.312292,29.964996 13.468751,30.25 L 14.812501,29.4375 L 14.343751,28.5625 L 12.968751,29.40625 z M 14.343751,32.3125 C 14.446337,32.629706 14.54876,32.953184 14.625001,33.28125 L 16.031251,32.875 L 15.781251,31.90625 L 14.343751,32.3125 z" style="opacity:1;fill:url(#radialGradient7027);fill-opacity:1;fill-rule:evenodd;stroke:none;stroke-width:1px;stroke-linecap:butt;stroke-linejoin:miter;stroke-opacity:1"/><path id="path7194" d="M -6.468749,35.6875 C -6.470215,35.656267 -6.470215,35.624983 -6.468749,35.59375 C -6.483809,35.335971 -6.468749,35.097433 -6.468749,34.96875 C -6.468748,29.735687 -2.201812,25.46875 3.031251,25.46875 C 8.264315,25.468752 12.531251,29.735687 12.531251,34.96875 C 12.531251,35.097429 12.546314,35.335961 12.531251,35.59375 C 12.498155,36.121464 12.060001,36.532234 11.531251,36.53125 L -5.468749,36.53125 C -5.965341,36.537301 -6.391146,36.178028 -6.468749,35.6875 L -6.468749,35.6875 z" style="fill:none;fill-opacity:1;fill-rule:evenodd;stroke:url(#linearGradient7029);stroke-width:1;stroke-linecap:round;stroke-linejoin:miter;stroke-miterlimit:4;stroke-opacity:1"/><path id="path7231" d="M -10.968749,40.03125 L -9.968749,40.03125 L -9.968749,38.03125 L -10.968749,38.03125 L -10.968749,40.03125 z M -8.968749,40.03125 L -7.968749,40.03125 L -7.968749,37.03125 L -8.968749,37.03125 L -8.968749,40.03125 z M -6.968749,40.03125 L -5.968749,40.03125 L -5.968749,38.03125 L -6.968749,38.03125 L -6.968749,40.03125 z M -4.968749,40.03125 L -3.968749,40.03125 L -3.968749,37.03125 L -4.968749,37.03125 L -4.968749,40.03125 z M -2.968749,40.03125 L -1.968749,40.03125 L -1.968749,38.03125 L -2.968749,38.03125 L -2.968749,40.03125 z M -0.968749,40.03125 L 0.031251,40.03125 L 0.031251,37.03125 L -0.968749,37.03125 L -0.968749,40.03125 z M 1.031251,40.03125 L 2.031251,40.03125 L 2.031251,38.03125 L 1.031251,38.03125 L 1.031251,40.03125 z M 3.031251,40.03125 L 4.031251,40.03125 L 4.031251,37.03125 L 3.031251,37.03125 L 3.031251,40.03125 z M 5.031251,40.03125 L 6.031251,40.03125 L 6.031251,38.03125 L 5.031251,38.03125 L 5.031251,40.03125 z M 7.031251,40.03125 L 8.031251,40.03125 L 8.031251,37.03125 L 7.031251,37.03125 L 7.031251,40.03125 z M 9.031251,40.03125 L 10.031251,40.03125 L 10.031251,38.03125 L 9.031251,38.03125 L 9.031251,40.03125 z M 11.031251,40.03125 L 12.031251,40.03125 L 12.031251,37.03125 L 11.031251,37.03125 L 11.031251,40.03125 z M 13.031251,40.03125 L 14.031251,40.03125 L 14.031251,38.03125 L 13.031251,38.03125 L 13.031251,40.03125 z M 15.031251,40.03125 L 16.031251,40.03125 L 16.031251,37.03125 L 15.031251,37.03125 L 15.031251,40.03125 z M 17.031251,40.03125 L 18.031251,40.03125 L 18.031251,38.03125 L 17.031251,38.03125 L 17.031251,40.03125 z" style="opacity:.2;fill:url(#linearGradient7031);fill-opacity:1;fill-rule:evenodd;stroke:none;stroke-width:1;stroke-linecap:round;stroke-linejoin:miter;stroke-miterlimit:10;stroke-dasharray:none;stroke-opacity:1"/><path id="path7441" d="M -13.968749,40.03125 L 0.593751,40.03125 C 0.37446,38.63343 0.759709,37.310929 1.468751,36.03125 L -5.468749,36.03125 C -5.712065,36.035538 -5.923138,35.864041 -5.968749,35.625 C -5.970052,35.604187 -5.970052,35.583313 -5.968749,35.5625 C -5.981094,35.351204 -5.968749,35.116641 -5.968749,34.96875 C -5.968748,30.006219 -1.93128,25.96875 3.031251,25.96875 C 4.752389,25.968751 6.35001,26.471025 7.718751,27.3125 C 8.310494,25.803539 8.297826,24.256638 7.093751,22.625 C 5.817424,22.2064 4.44784,21.96875 3.031251,21.96875 C -4.150217,21.968751 -9.968748,27.787281 -9.968749,34.96875 C -9.968748,35.087413 -9.944944,35.300608 -9.937499,35.5 C -9.928876,35.637931 -9.967782,35.774363 -10.062499,35.875 C -10.157217,35.975637 -10.299299,36.031505 -10.437499,36.03125 L -13.968749,36.03125 L -13.968749,40.03125 z" style="opacity:.66044778;fill:url(#linearGradient7034);fill-opacity:1;fill-rule:evenodd;stroke:none;stroke-width:.99999994;stroke-linecap:round;stroke-linejoin:round;stroke-miterlimit:4;stroke-dasharray:none;stroke-opacity:1"/></g><path id="rect7003" d="M 28.5 25.625 L 28.5 31.46875 C 30.350354 33.02837 31.53125 35.36118 31.53125 37.96875 C 31.531249 38.135849 31.54088 38.366437 31.53125 38.53125 L 28.5 38.53125 L 28.5 42.5 L 30.5 42.5 L 30.5 43.53125 L 32.5625 43.53125 L 32.5625 42.5 L 34.5 42.5 L 34.5 30.875 C 33.075536 28.580293 30.989069 26.730777 28.5 25.625 z" style="opacity:.1;fill:#000;fill-opacity:1;fill-rule:evenodd;stroke:#000;stroke-width:1;stroke-linecap:round;stroke-linejoin:miter;stroke-miterlimit:4;stroke-dasharray:none;stroke-opacity:1"/><path id="path6959" d="M 38.714097 43.934135 A 10.076272 3.0052037 0 1 1 18.561553,43.934135 A 10.076272 3.0052037 0 1 1 38.714097 43.934135 z" transform="matrix(1.4561403,0,0,0.6672439,-12.007411,16.680014)" style="opacity:.07;fill:url(#radialGradient6977);fill-opacity:1;fill-rule:evenodd;stroke:none;stroke-width:1;stroke-linecap:round;stroke-linejoin:round;stroke-miterlimit:4;stroke-dasharray:none;stroke-opacity:1"/><path id="path6999" d="M 38.714097 43.934135 A 10.076272 3.0052037 0 1 1 18.561553,43.934135 A 10.076272 3.0052037 0 1 1 38.714097 43.934135 z" transform="matrix(0.4298246,0,0,0.4907733,18.091146,24.963427)" style="opacity:.20641786;fill:url(#radialGradient7001);fill-opacity:1;fill-rule:evenodd;stroke:none;stroke-width:1;stroke-linecap:round;stroke-linejoin:round;stroke-miterlimit:4;stroke-dasharray:none;stroke-opacity:1"/><rect id="rect5983" width="2.058" height="6" x="29.5" y="40.5" style="opacity:1;fill:#d3d7cf;fill-opacity:1;fill-rule:evenodd;stroke:#888a85;stroke-width:1;stroke-linecap:round;stroke-linejoin:round;stroke-miterlimit:4;stroke-dasharray:none;stroke-opacity:1"/><path id="path5931" d="M 33.5,0.5 L 26.5,0.5 C 24.465147,0.5 15.472272,2.5277282 15.472272,2.5277282 C 14.60347,3.0293312 14.5,3.9407971 14.5,5.5 L 25.5,5.5 C 25.5,4.2942382 26.271356,4.5 27.5,4.5 L 27.5,41.5 L 33.5,41.5 L 33.5,5.53125 C 35.757372,5.53125 39.5,4.0332335 39.5,2.5 L 33.5,2.5 L 33.5,0.5 z" style="fill:url(#linearGradient7155);fill-opacity:1;fill-rule:evenodd;stroke:url(#linearGradient7133);stroke-width:1px;stroke-linecap:butt;stroke-linejoin:miter;stroke-opacity:1"/><path id="rect6994" d="M 28,8 L 28,9 L 31,9 L 31,8 L 28,8 z M 28,10 L 28,11 L 30,11 L 30,10 L 28,10 z M 28,12 L 28,13 L 31,13 L 31,12 L 28,12 z M 28,14 L 28,15 L 30,15 L 30,14 L 28,14 z M 28,16 L 28,17 L 31,17 L 31,16 L 28,16 z M 28,18 L 28,19 L 30,19 L 30,18 L 28,18 z M 28,20 L 28,21 L 31,21 L 31,20 L 28,20 z M 28,22 L 28,23 L 30,23 L 30,22 L 28,22 z M 28,24 L 28,25 L 31,25 L 31,24 L 28,24 z M 28,26 L 28,27 L 30,27 L 30,26 L 28,26 z M 28,28 L 28,29 L 31,29 L 31,28 L 28,28 z M 28,30 L 28,31 L 30,31 L 30,30 L 28,30 z M 28,32 L 28,33 L 31,33 L 31,32 L 28,32 z M 28,34 L 28,35 L 30,35 L 30,34 L 28,34 z M 28,36 L 28,37 L 31,37 L 31,36 L 28,36 z M 28,38 L 28,39 L 30,39 L 30,38 L 28,38 z" style="opacity:1;fill:url(#linearGradient6998);fill-opacity:1;fill-rule:evenodd;stroke:none;stroke-width:1;stroke-linecap:round;stroke-linejoin:miter;stroke-miterlimit:10;stroke-dasharray:none;stroke-opacity:1"/><path id="path5947" d="M 26.5,1.46875 C 24.534243,1.6746333 17.734452,2.541974 15.96875,3.375 C 15.489964,3.6248717 15.564849,3.9837677 15.53125,4.53125 L 24.725682,4.4870558 C 25.013054,3.6048007 25.739748,3.4649587 27.035961,3.4649587 C 28.356994,3.4649587 28.46875,3.8774068 28.46875,4.5 L 28.46875,40.53125 L 32.53125,40.53125 L 32.53125,5.53125 C 32.533235,4.9970483 32.965798,4.5644846 33.5,4.5625 C 34.762466,4.619225 37.132816,3.7443895 37.426126,3.46875 L 33.5,3.46875 C 32.965798,3.4667654 32.533235,3.0342017 32.53125,2.5 L 32.53125,1.46875 L 26.5,1.46875 z" style="opacity:.77985074;fill:none;fill-opacity:1;fill-rule:evenodd;stroke:url(#linearGradient7153);stroke-width:1px;stroke-linecap:butt;stroke-linejoin:miter;stroke-opacity:1"/><path id="rect6990" d="M 14.5,7.5 C 14.5,9.059203 14.599948,9.967147 15.46875,10.46875 L 26,12.5 C 26.373164,12.685835 26.5,13 26.5,13.5 L 26.5,18.5 L 25.5,18.5 C 24.946,18.5 24.5,18.946 24.5,19.5 C 24.5,20.054 24.946,20.5 25.5,20.5 L 26.5,20.5 L 28.5,20.5 L 28.5,8.5 L 26.5,8.5 C 25.483472,8.501351 25.5,8.404322 25.5,7.5 L 14.5,7.5 z M 32.5,8.5 L 32.5,20.5 L 34.5,20.5 L 34.5,8.5 L 32.5,8.5 z" style="opacity:1;fill:url(#radialGradient7008);fill-opacity:1;fill-rule:evenodd;stroke:#888a85;stroke-width:1;stroke-linecap:round;stroke-linejoin:miter;stroke-miterlimit:10;stroke-dasharray:none;stroke-opacity:1"/><g id="g6926" transform="translate(17,0)" style="opacity:.3619403"><path id="path6920" d="M -1.484375,8.5 C -1.484375,9.0073099 -1.4131302,9.39605 -1.03125,9.59375 L 9.34375,11.5625 C 9.3754959,11.571365 9.406784,11.581795 9.4375,11.59375 C 9.7848985,11.766754 10.109841,12.07814 10.28125,12.4375 C 10.452659,12.79686 10.5,13.165442 10.5,13.5 L 10.5,9.5 L 9.5,9.5 C 8.5,9.5 7.8425048,9.2679806 7.5994369,8.5 L -1.484375,8.5 z" style="fill:none;fill-rule:evenodd;stroke:#fff;stroke-width:1px;stroke-linecap:butt;stroke-linejoin:miter;stroke-opacity:1"/><path id="path6922" d="M 10.5,20 L 10.5,12.5" style="fill:none;fill-rule:evenodd;stroke:#fff;stroke-width:1px;stroke-linecap:butt;stroke-linejoin:miter;stroke-opacity:1"/><path id="path6924" d="M 16.5,20 L 16.5,9" style="fill:none;fill-rule:evenodd;stroke:#fff;stroke-width:1px;stroke-linecap:butt;stroke-linejoin:miter;stroke-opacity:1"/></g><path id="rect6965" d="M 19,8 L 19,9.03125 C 19,9.5679375 18.567937,10 18.03125,10 L 15.641735,10 C 15.641735,10 15,9.5399631 15,9.03125 L 15,8 L 19,8 z" style="opacity:1;fill:url(#linearGradient7151);fill-opacity:1;fill-rule:evenodd;stroke:none;stroke-width:1;stroke-linecap:round;stroke-linejoin:miter;stroke-miterlimit:10;stroke-opacity:1"/><rect id="rect6986" width="2" height="4" x="36.5" y="11.5" rx=".483" ry=".483" style="opacity:1;fill:#eeeeec;fill-opacity:1;fill-rule:evenodd;stroke:url(#linearGradient7149);stroke-width:1;stroke-linecap:round;stroke-linejoin:miter;stroke-miterlimit:10;stroke-dasharray:none;stroke-opacity:1"/><rect id="rect6992" width="1" height="1" x="37" y="13" style="opacity:.21268658;fill:#000;fill-opacity:1;fill-rule:evenodd;stroke:none;stroke-width:1;stroke-linecap:round;stroke-linejoin:miter;stroke-miterlimit:10;stroke-dasharray:none;stroke-opacity:1"/><path id="path7041" d="M 27,12 L 27,13 L 28,13 L 28,12 L 27,12 z M 27,14 L 27,15 L 28,15 L 28,14 L 27,14 z M 27,16 L 27,17 L 28,17 L 28,16 L 27,16 z M 27,18 L 27,19 L 28,19 L 28,18 L 27,18 z" style="opacity:.15671644;fill:url(#linearGradient7147);fill-opacity:1;fill-rule:evenodd;stroke:none;stroke-width:1;stroke-linecap:round;stroke-linejoin:miter;stroke-miterlimit:10;stroke-dasharray:none;stroke-opacity:1"/><path id="path7045" d="M 33,12 L 33,13 L 34,13 L 34,12 L 33,12 z M 33,14 L 33,15 L 34,15 L 34,14 L 33,14 z M 33,16 L 33,17 L 34,17 L 34,16 L 33,16 z M 33,18 L 33,19 L 34,19 L 34,18 L 33,18 z" style="opacity:.1;fill:url(#linearGradient7145);fill-opacity:1;fill-rule:evenodd;stroke:none;stroke-width:1;stroke-linecap:round;stroke-linejoin:miter;stroke-miterlimit:10;stroke-dasharray:none;stroke-opacity:1"/><path id="path6965" d="M 25.5,19.5 L 27.5,19.5" style="opacity:.53731342;fill:none;fill-opacity:1;fill-rule:evenodd;stroke:url(#linearGradient7143);stroke-width:1px;stroke-linecap:round;stroke-linejoin:miter;stroke-opacity:1"/><path id="path6989" d="M 27.5,9.5 L 26,9.5 C 25.5,9.5 24.687825,8.9889515 24.610485,8.5 L 15.515625,8.5" style="opacity:.53358209;fill:none;fill-rule:evenodd;stroke:#fff;stroke-width:1px;stroke-linecap:round;stroke-linejoin:miter;stroke-opacity:1"/><path id="path7135" d="M 37.426126,3.46875 L 33.5,3.46875 C 32.965798,3.4667654 32.533235,3.0342017 32.53125,2.5 L 32.53125,1.46875 L 26.5,1.46875 C 24.534243,1.6746333 17.734452,2.541974 15.96875,3.375" style="opacity:1;fill:none;fill-opacity:1;fill-rule:evenodd;stroke:url(#linearGradient7141);stroke-width:1px;stroke-linecap:round;stroke-linejoin:miter;stroke-opacity:1"/><path id="path6968" d="M 19,5 L 19,3.96875 C 19,3.4320625 18.567937,3 18.03125,3 L 15.610485,3 C 15.610485,3 15,3.4600369 15,3.96875 L 15,5 L 19,5 z" style="opacity:1;fill:url(#linearGradient7139);fill-opacity:1;fill-rule:evenodd;stroke:none;stroke-width:1;stroke-linecap:round;stroke-linejoin:miter;stroke-miterlimit:10;stroke-opacity:1"/><rect id="rect7011" width="1" height="1" x="33" y="9" style="opacity:.53358208;fill:#fff;fill-opacity:1;fill-rule:evenodd;stroke:none;stroke-width:1;stroke-linecap:round;stroke-linejoin:miter;stroke-miterlimit:4;stroke-dasharray:none;stroke-opacity:1"/></g><g id="g32" transform="translate(303,126) scale(1.000000,1.000000)" style="display:inline;enable-background:new"><path id="path161" d="M 25.5,6.5 L 27.5,6.5 L 24.5,3.5 L 25.5,6.5 z" style="fill:#555753;fill-rule:evenodd;stroke:#555753;stroke-width:1px;stroke-linecap:butt;stroke-linejoin:round;stroke-opacity:1"/><path id="path7366" d="M 27.577164 31 A 3.7885823 1 0 1 1 20,31 A 3.7885823 1 0 1 1 27.577164 31 z" transform="matrix(3.9592647,0,0,1.5,-77.185293,-17)" style="opacity:.24253731;fill:url(#radialGradient7368);fill-opacity:1;fill-rule:evenodd;stroke:none;stroke-width:1;stroke-linecap:round;stroke-linejoin:miter;stroke-miterlimit:4;stroke-dasharray:none;stroke-opacity:1"/><path id="path7348" d="M 27.577164 31 A 3.7885823 1 0 1 1 20,31 A 3.7885823 1 0 1 1 27.577164 31 z" transform="matrix(1.4517303,0,0,1.5,-12.034605,-16)" style="opacity:.30970149;fill:url(#radialGradient7364);fill-opacity:1;fill-rule:evenodd;stroke:none;stroke-width:1;stroke-linecap:round;stroke-linejoin:miter;stroke-miterlimit:4;stroke-dasharray:none;stroke-opacity:1"/><g id="g7331" transform="translate(23,4)"><path id="path166" d="M -17.502687,25.499998 L 5.5036571,25.499998 L 5.5063431,22.5 L 2.8770467,22.5 C 2.8811287,22.395145 2.8770467,22.251485 2.8770467,22.145417 C 2.8770467,17.447908 -1.1011361,13.483588 -5.9995153,13.483588 C -10.897895,13.483588 -14.870705,17.447908 -14.870705,22.145417 C -14.870705,22.251485 -14.854245,22.395145 -14.850163,22.5 L -17.5,22.5 L -17.502687,25.499998 z M -11.584084,22.145417 C -11.584084,19.187726 -9.08368,16.635433 -5.9995153,16.635433 C -2.91535,16.635434 -0.40957381,19.187726 -0.40957381,22.145417 C -0.40957381,22.250752 -0.40324378,22.396107 -0.40957381,22.5 L -11.584084,22.5 C -11.590413,22.396107 -11.584084,22.250752 -11.584084,22.145417 z" style="fill:url(#linearGradient7338);fill-opacity:1;fill-rule:evenodd;stroke:#c4a000;stroke-width:.99999994;stroke-linecap:round;stroke-linejoin:round;stroke-miterlimit:4;stroke-dasharray:none;stroke-opacity:1"/><path id="path168" d="M -14.544728,20.673735 L -13.620366,20.929823 C -13.570251,20.72302 -13.502926,20.51911 -13.435494,20.319153 L -14.380397,20.063065 L -14.544728,20.673735 z M -13.743614,18.506842 L -12.860335,19.019017 C -12.757491,18.839359 -12.648871,18.657547 -12.531673,18.487143 L -13.435494,17.955269 L -13.743614,18.506842 z M -12.428966,16.615735 L -11.627852,17.423395 C -11.47596,17.27105 -11.319941,17.129719 -11.155401,16.990017 L -11.977056,16.162657 L -12.428966,16.615735 z M -10.641866,15.138308 L -10.046166,16.202055 C -9.8677316,16.097347 -9.6789047,15.997545 -9.4915489,15.90657 L -10.10779,14.823123 L -10.641866,15.138308 z M -8.5671869,14.173055 L -8.2385249,15.414094 C -8.0408235,15.356902 -7.8466789,15.31834 -7.6428249,15.276201 L -7.971487,14.015463 L -8.5671869,14.173055 z M -6.3076353,15.118609 C -6.2048883,15.114722 -6.1032207,15.09891 -5.9995147,15.09891 C -5.8958086,15.09891 -5.794141,15.114722 -5.691394,15.118609 L -5.691394,13.798773 L -6.3076353,13.798773 L -6.3076353,15.118609 z M -4.3562044,15.276201 C -4.1523505,15.31834 -3.9582058,15.356902 -3.7605044,15.414094 L -3.4318424,14.173055 L -4.0275424,14.015463 L -4.3562044,15.276201 z M -2.5074804,15.90657 C -2.3201246,15.997545 -2.1312977,16.097347 -1.9528632,16.202055 L -1.3571632,15.138308 L -1.891239,14.823123 L -2.5074804,15.90657 z M -0.84362876,16.990017 C -0.6790887,17.129719 -0.52306888,17.27105 -0.37117706,17.423395 L 0.42993669,16.615735 L -0.02197363,16.162657 L -0.84362876,16.990017 z M 0.53264358,18.487143 C 0.64984118,18.657547 0.75846136,18.839359 0.86130563,19.019017 L 1.7445849,18.506842 L 1.4364642,17.955269 L 0.53264358,18.487143 z M 1.4364642,20.319153 C 1.5038965,20.51911 1.5712216,20.72302 1.6213366,20.929823 L 2.5456986,20.673735 L 2.3813676,20.063065 L 1.4364642,20.319153 z" style="fill:url(#radialGradient7340);fill-opacity:1;fill-rule:evenodd;stroke:none;stroke-width:1px;stroke-linecap:butt;stroke-linejoin:miter;stroke-opacity:1"/><path id="path170" d="M -12.509648,22.887202 C -12.510653,22.864521 -12.510653,22.841801 -12.509648,22.81912 C -12.519968,22.631917 -12.509648,22.458687 -12.509648,22.365236 C -12.509647,18.564916 -9.5858176,15.466209 -5.9999692,15.466209 C -2.4141201,15.46621 0.50970966,18.564916 0.50970966,22.365236 C 0.50970966,22.458685 0.52003127,22.63191 0.50970966,22.81912 C 0.48703131,23.202353 0.18679532,23.500659 -0.1755197,23.499945 L -11.82442,23.499945 C -12.164698,23.504339 -12.456471,23.243431 -12.509648,22.887202 L -12.509648,22.887202 z" style="opacity:.7;fill:none;fill-opacity:1;fill-rule:evenodd;stroke:url(#linearGradient7342);stroke-width:.99999988;stroke-linecap:round;stroke-linejoin:miter;stroke-miterlimit:4;stroke-opacity:1"/><path id="path172" d="M -16,26 L -14.999999,26 L -14.999999,24 L -16,24 L -16,26 z M -14.000001,26 L -13,26 L -13,24 L -14.000001,24 L -14.000001,26 z M -12.000001,26 L -11.000001,26 L -11.000001,24 L -12.000001,24 L -12.000001,26 z M -9.999999,26 L -8.9999996,26 L -8.9999996,24 L -9.999999,24 L -9.999999,26 z M -8.0000002,26 L -7.0000001,26 L -7.0000001,24 L -8.0000002,24 L -8.0000002,26 z M -6.0000001,26 L -5.0000002,26 L -5.0000002,24 L -6.0000001,24 L -6.0000001,26 z M -4.0000002,26 L -3.0000001,26 L -3.0000001,24 L -4.0000002,24 L -4.0000002,26 z M -2.0000001,26 L -1.0000002,26 L -1.0000002,24 L -2.0000001,24 L -2.0000001,26 z M -2e-07,26 L 0.9999999,26 L 0.9999999,24 L -2e-07,24 L -2e-07,26 z M 1.9999998,26 L 2.9999998,26 L 2.9999998,24 L 1.9999998,24 L 1.9999998,26 z" style="opacity:.2;fill:url(#linearGradient7344);fill-opacity:1;fill-rule:evenodd;stroke:none;stroke-width:1;stroke-linecap:round;stroke-linejoin:miter;stroke-miterlimit:10;stroke-dasharray:none;stroke-opacity:1"/><path id="path7319" d="M -6,14.5 C -10.332413,14.5 -13.84375,18.046931 -13.84375,22.15625 C -13.84375,22.084352 -13.822244,22.218463 -13.8125,22.46875 C -13.807104,22.74676 -13.913014,23.015402 -14.106678,23.214934 C -14.300342,23.414466 -14.565703,23.528346 -14.84375,23.53125 L -16.46875,23.53125 L -16.46875,24.46875 L 4.46875,24.46875 L 4.46875,23.53125 L 2.875,23.53125 C 2.5969528,23.528346 2.3315917,23.414466 2.1379281,23.214934 C 1.9442645,23.015402 1.8383543,22.74676 1.84375,22.46875 C 1.8454504,22.425072 1.84375,22.289059 1.84375,22.15625 C 1.8437501,18.046932 -1.667587,14.5 -6,14.5 z" style="opacity:.7;fill:none;fill-opacity:1;fill-rule:evenodd;stroke:url(#linearGradient7346);stroke-width:1;stroke-linecap:round;stroke-linejoin:miter;stroke-miterlimit:4;stroke-dasharray:none;stroke-opacity:1"/></g><rect id="rect5967" width="2" height="6.5" x="21.5" y="24" style="opacity:1;fill:#d3d7cf;fill-opacity:1;fill-rule:evenodd;stroke:#888a85;stroke-width:1;stroke-linecap:round;stroke-linejoin:miter;stroke-miterlimit:4;stroke-dasharray:none;stroke-opacity:1"/><path id="path176" d="M 23.5,0.5 L 19.5,0.5 C 17.465147,0.5 13.472272,1.5277282 13.472272,1.5277282 C 12.60347,2.0293312 12.5,1.9407971 12.5,3.5 L 20.5,3.5 L 20.5,27.5 L 24.5,27.5 L 24.5,5.53125 L 27.5,2.5 L 24.5,2.5 L 24.5,1.5 L 23.5,0.5 z" style="fill:url(#linearGradient6945);fill-opacity:1;fill-rule:evenodd;stroke:#a1a29e;stroke-width:1px;stroke-linecap:butt;stroke-linejoin:miter;stroke-opacity:1"/><path id="path178" d="M 21,8 L 21,9 L 24,9 L 24,8 L 21,8 z M 21,10 L 21,11 L 23,11 L 23,10 L 21,10 z M 21,12 L 21,13 L 24,13 L 24,12 L 21,12 z M 21,14 L 21,15 L 23,15 L 23,14 L 21,14 z M 21,16 L 21,17 L 24,17 L 24,16 L 21,16 z M 21,18 L 21,19 L 23,19 L 23,18 L 21,18 z M 21,20 L 21,21 L 24,21 L 24,20 L 21,20 z" style="opacity:.69402986;fill:url(#linearGradient7039);fill-opacity:1;fill-rule:evenodd;stroke:none;stroke-width:1;stroke-linecap:round;stroke-linejoin:miter;stroke-miterlimit:10;stroke-dasharray:none;stroke-opacity:1"/><path id="path180" d="M 19.5,1.5 C 16.632284,1.7272266 15.856788,1.9289841 13.53125,2.53125 L 21.46875,2.5 L 21.46875,26.53125 L 23.53125,26.53125 L 23.53125,5.53125 C 23.533235,4.9970483 23.965798,4.5644846 24.5,4.5625 L 24.5,3.46875 C 23.965798,3.4667654 23.533235,3.0342017 23.53125,2.5 L 23.5,1.5 L 19.5,1.5 z" style="opacity:.92537315;fill:none;fill-opacity:1;fill-rule:evenodd;stroke:url(#linearGradient6961);stroke-width:1px;stroke-linecap:butt;stroke-linejoin:miter;stroke-opacity:1"/><path id="path182" d="M 12.5,5.5 C 12.5,7.059203 12.599948,6.967147 13.46875,7.46875 L 19,8.5 C 19.373164,8.685835 19.5,9 19.5,9.5 L 19.5,13.5 L 18.5,13.5 C 17.946,13.5 17.5,13.946 17.5,14.5 C 17.5,15.054 17.946,15.5 18.5,15.5 L 19.5,15.5 L 21.5,15.5 L 21.5,5.5 L 12.5,5.5 z M 23.5,5.5 L 23.5,15.5 L 25.5,15.5 L 25.5,5.5 L 23.5,5.5 z" style="opacity:1;fill:#babdb6;fill-opacity:1;fill-rule:evenodd;stroke:#888a85;stroke-width:1;stroke-linecap:round;stroke-linejoin:miter;stroke-miterlimit:10;stroke-dasharray:none;stroke-opacity:1"/><g id="g184" transform="translate(10,-3)" style="opacity:.6268657"><path id="path186" d="M 3.515625,9.5 C 5.7070904,10.581809 8.6239684,9.5622795 10.28125,11.4375 C 10.452659,11.79686 10.5,13.165442 10.5,13.5 L 10.5,9.5 L 3.515625,9.5 z" style="fill:none;fill-rule:evenodd;stroke:#fff;stroke-width:1px;stroke-linecap:butt;stroke-linejoin:miter;stroke-opacity:1"/><path id="path188" d="M 10.5,18 L 10.5,12.5" style="fill:none;fill-rule:evenodd;stroke:#fff;stroke-width:1px;stroke-linecap:butt;stroke-linejoin:miter;stroke-opacity:1"/><path id="path190" d="M 14.5,18 L 14.5,9" style="fill:none;fill-rule:evenodd;stroke:#fff;stroke-width:1px;stroke-linecap:butt;stroke-linejoin:miter;stroke-opacity:1"/></g><rect id="rect192" width="2" height="3" x="25.5" y="11.5" rx=".483" ry=".362" style="opacity:1;fill:#eeeeec;fill-opacity:1;fill-rule:evenodd;stroke:url(#linearGradient7071);stroke-width:1;stroke-linecap:round;stroke-linejoin:miter;stroke-miterlimit:10;stroke-dasharray:none;stroke-opacity:1"/><rect id="rect194" width="1" height="1" x="26" y="13" style="opacity:.21268658;fill:#000;fill-opacity:1;fill-rule:evenodd;stroke:none;stroke-width:1;stroke-linecap:round;stroke-linejoin:miter;stroke-miterlimit:10;stroke-dasharray:none;stroke-opacity:1"/><path id="path196" d="M 20,7 L 20,8 L 21,8 L 21,7 L 20,7 z M 20,9 L 20,10 L 21,10 L 21,9 L 20,9 z M 20,11 L 20,12 L 21,12 L 21,11 L 20,11 z M 20,13 L 20,14 L 21,14 L 21,13 L 20,13 z" style="opacity:.15671644;fill:url(#linearGradient7043);fill-opacity:1;fill-rule:evenodd;stroke:none;stroke-width:1;stroke-linecap:round;stroke-linejoin:miter;stroke-miterlimit:10;stroke-dasharray:none;stroke-opacity:1"/><path id="path198" d="M 24,7 L 24,8 L 25,8 L 25,7 L 24,7 z M 24,9 L 24,10 L 25,10 L 25,9 L 24,9 z M 24,11 L 24,12 L 25,12 L 25,11 L 24,11 z M 24,13 L 24,14 L 25,14 L 25,13 L 24,13 z" style="opacity:.1;fill:url(#linearGradient7047);fill-opacity:1;fill-rule:evenodd;stroke:none;stroke-width:1;stroke-linecap:round;stroke-linejoin:miter;stroke-miterlimit:10;stroke-dasharray:none;stroke-opacity:1"/><rect id="rect6950" width="3" height="1" x="13" y="2" style="opacity:1;fill:#d3d7cf;fill-opacity:1;fill-rule:evenodd;stroke:none;stroke-width:1;stroke-linecap:round;stroke-linejoin:miter;stroke-miterlimit:10;stroke-dasharray:none;stroke-opacity:1"/><rect id="rect6952" width="3" height="1" x="13" y="6" style="opacity:1;fill:#fff;fill-opacity:1;fill-rule:evenodd;stroke:none;stroke-width:1;stroke-linecap:round;stroke-linejoin:miter;stroke-miterlimit:10;stroke-dasharray:none;stroke-opacity:1"/><rect id="rect5978" width="1" height="1" x="25" y="3" style="opacity:1;fill:#fff;fill-opacity:1;fill-rule:evenodd;stroke:none;stroke-width:1;stroke-linecap:round;stroke-linejoin:miter;stroke-miterlimit:10;stroke-dasharray:none;stroke-opacity:1"/></g><g id="g22" transform="translate(303,177) scale(1.000000,1.000000)" style="display:inline;enable-background:new"><path id="path6950" d="M 16.5,0.5 L 10.5,0.5 C 8.4651474,0.5 1.4722718,1.5277282 1.4722718,1.5277282 C 0.6034698,2.0293312 0.5,2.9407971 0.5,4.5 L 11.5,4.5 L 16.5,5.53125 C 18.757372,5.53125 21.5,4.0332335 21.5,2.5 L 16.5,2.5 L 16.5,0.5 z" style="fill:url(#linearGradient6945);fill-opacity:1;fill-rule:evenodd;stroke:url(#linearGradient6937);stroke-width:1px;stroke-linecap:butt;stroke-linejoin:miter;stroke-opacity:1"/><path id="path5979" d="M 0.5,6.5 C 0.5,8.059203 0.5999481,8.967147 1.46875,9.46875 L 10,10.5 C 10.373164,10.685835 10.5,11 10.5,11.5 L 10.5,17.5 L 12.5,17.5 L 12.5,6.5 L 0.5,6.5 z M 15.5,6.5 L 15.5,17.5 L 17.5,17.5 L 17.5,6.5 L 15.5,6.5 z" style="opacity:1;fill:#babdb6;fill-opacity:1;fill-rule:evenodd;stroke:#888a85;stroke-width:1;stroke-linecap:round;stroke-linejoin:miter;stroke-miterlimit:10;stroke-dasharray:none;stroke-opacity:1"/><path id="path206" d="M 17.5,6.5 L 21.5,6.5 C 21.5,5.190363 19.277627,3.8466306 17.5,3.5 L 17.5,6.5 z" style="fill:#babdb6;fill-rule:evenodd;stroke:#888a85;stroke-width:1px;stroke-linecap:butt;stroke-linejoin:miter;stroke-opacity:1"/><rect id="rect208" width="4" height="2" x="16.5" y="11.5" rx="0" ry="0" style="opacity:1;fill:#eeeeec;fill-opacity:1;fill-rule:evenodd;stroke:#babdb6;stroke-width:.99999994;stroke-linecap:round;stroke-linejoin:miter;stroke-miterlimit:10;stroke-dasharray:none;stroke-opacity:1"/><path id="path210" d="M 16.5,0.5 L 10.5,0.5 C 8.4651474,0.5 1.4722718,1.5277282 1.4722718,1.5277282 C 0.6034698,2.0293312 0.5,2.9407971 0.5,4.5 L 11.5,4.5 L 11.5,23.5 L 16.5,23.5 L 16.5,5.53125 C 18.757372,5.53125 21.5,4.0332335 21.5,2.5 L 16.5,2.5 L 16.5,0.5 z" style="fill:url(#linearGradient6945);fill-opacity:1;fill-rule:evenodd;stroke:url(#linearGradient6937);stroke-width:1px;stroke-linecap:butt;stroke-linejoin:miter;stroke-opacity:1"/><path id="path212" d="M 12,8 L 12,9 L 15,9 L 15,8 L 12,8 z M 12,10 L 12,11 L 14,11 L 14,10 L 12,10 z M 12,12 L 12,13 L 15,13 L 15,12 L 12,12 z M 12,14 L 12,15 L 14,15 L 14,14 L 12,14 z M 12,16 L 12,17 L 15,17 L 15,16 L 12,16 z M 12,18 L 12,19 L 14,19 L 14,18 L 12,18 z M 12,20 L 12,21 L 15,21 L 15,20 L 12,20 z" style="opacity:.69402986;fill:url(#linearGradient7039);fill-opacity:1;fill-rule:evenodd;stroke:none;stroke-width:1;stroke-linecap:round;stroke-linejoin:miter;stroke-miterlimit:10;stroke-dasharray:none;stroke-opacity:1"/><path id="path214" d="M 10.5,1.46875 C 8.5342433,1.6746333 4.1719522,2.198224 1.96875,2.53125 C 1.4899645,2.7811217 1.564849,2.9837677 1.53125,3.53125 L 11.5,3.53125 C 12.034202,3.5332346 12.466765,3.9657983 12.46875,4.5 L 12.46875,23.53125 L 15.53125,22.53125 L 15.53125,5.53125 C 15.533235,4.9970483 15.965798,4.5644846 16.5,4.5625 C 17.413616,4.5625 18.529559,4.2262836 19.34375,3.75 C 19.531517,3.6401606 19.484557,3.5841981 19.625,3.46875 L 16.5,3.46875 C 15.965798,3.4667654 15.533235,3.0342017 15.53125,2.5 L 15.53125,1.46875 L 10.5,1.46875 z" style="opacity:.77985075;fill:none;fill-opacity:1;fill-rule:evenodd;stroke:url(#linearGradient6961);stroke-width:1px;stroke-linecap:butt;stroke-linejoin:miter;stroke-opacity:1"/><path id="path216" d="M 0.5,6.5 C 0.5,8.059203 0.5999481,8.967147 1.46875,9.46875 L 10,10.5 C 10.373164,10.685835 10.5,11 10.5,11.5 L 10.5,15.5 L 9.5,15.5 C 8.946,15.5 8.5,15.946 8.5,16.5 C 8.5,17.054 8.946,17.5 9.5,17.5 L 10.5,17.5 L 12.5,17.5 L 12.5,6.5 L 0.5,6.5 z M 15.5,6.5 L 15.5,17.5 L 17.5,17.5 L 17.5,6.5 L 15.5,6.5 z" style="opacity:1;fill:#babdb6;fill-opacity:1;fill-rule:evenodd;stroke:#888a85;stroke-width:1;stroke-linecap:round;stroke-linejoin:miter;stroke-miterlimit:10;stroke-dasharray:none;stroke-opacity:1"/><g id="g218" transform="translate(1,-1)" style="opacity:.6268657"><path id="path220" d="M 0.515625,8.5 C 0.515625,9.0073099 0.6806198,9.3023 1.0625,9.5 C 4.334805,10.073037 10.388561,10.113478 10.28125,11.4375 C 10.452659,11.79686 10.5,13.165442 10.5,13.5 L 10.5,8.5 L 0.515625,8.5 z" style="fill:none;fill-rule:evenodd;stroke:#fff;stroke-width:1px;stroke-linecap:butt;stroke-linejoin:miter;stroke-opacity:1"/><path id="path222" d="M 10.5,18 L 10.5,12.5" style="fill:none;fill-rule:evenodd;stroke:#fff;stroke-width:1px;stroke-linecap:butt;stroke-linejoin:miter;stroke-opacity:1"/><path id="path224" d="M 15.5,18 L 15.5,9" style="fill:none;fill-rule:evenodd;stroke:#fff;stroke-width:1px;stroke-linecap:butt;stroke-linejoin:miter;stroke-opacity:1"/></g><path id="path226" d="M 5,6 L 5,7.03125 C 5,7.5679375 4.5679375,8 4.03125,8 L 1.6417354,8 C 1.6417354,8 1,7.5399631 1,7.03125 L 1,6 L 5,6 z" style="opacity:1;fill:url(#linearGradient6976);fill-opacity:1;fill-rule:evenodd;stroke:none;stroke-width:1;stroke-linecap:round;stroke-linejoin:miter;stroke-miterlimit:10;stroke-opacity:1"/><path id="path228" d="M 5,5 L 5,3.96875 C 5,3.4320625 4.5679375,3 4.03125,3 L 1.6104854,3 C 1.6104854,3 1,3.4600369 1,3.96875 L 1,5 L 5,5 z" style="opacity:1;fill:url(#linearGradient6984);fill-opacity:1;fill-rule:evenodd;stroke:none;stroke-width:1;stroke-linecap:round;stroke-linejoin:miter;stroke-miterlimit:10;stroke-opacity:1"/><rect id="rect230" width="2" height="4" x="19.5" y="10.5" rx=".483" ry=".483" style="opacity:1;fill:#eeeeec;fill-opacity:1;fill-rule:evenodd;stroke:url(#linearGradient7071);stroke-width:1;stroke-linecap:round;stroke-linejoin:miter;stroke-miterlimit:10;stroke-dasharray:none;stroke-opacity:1"/><rect id="rect232" width="1" height="1" x="20" y="12" style="opacity:.21268658;fill:#000;fill-opacity:1;fill-rule:evenodd;stroke:none;stroke-width:1;stroke-linecap:round;stroke-linejoin:miter;stroke-miterlimit:10;stroke-dasharray:none;stroke-opacity:1"/><path id="path234" d="M 11,9 L 11,10 L 12,10 L 12,9 L 11,9 z M 11,11 L 11,12 L 12,12 L 12,11 L 11,11 z M 11,13 L 11,14 L 12,14 L 12,13 L 11,13 z M 11,15 L 11,16 L 12,16 L 12,15 L 11,15 z" style="opacity:.15671644;fill:url(#linearGradient7043);fill-opacity:1;fill-rule:evenodd;stroke:none;stroke-width:1;stroke-linecap:round;stroke-linejoin:miter;stroke-miterlimit:10;stroke-dasharray:none;stroke-opacity:1"/><path id="path236" d="M 16,9 L 16,10 L 17,10 L 17,9 L 16,9 z M 16,11 L 16,12 L 17,12 L 17,11 L 16,11 z M 16,13 L 16,14 L 17,14 L 17,13 L 16,13 z M 16,15 L 16,16 L 17,16 L 17,15 L 16,15 z" style="opacity:.1;fill:url(#linearGradient7047);fill-opacity:1;fill-rule:evenodd;stroke:none;stroke-width:1;stroke-linecap:round;stroke-linejoin:miter;stroke-miterlimit:10;stroke-dasharray:none;stroke-opacity:1"/><path id="path238" d="M 9.5,16.5 L 11.5,16.5" style="opacity:.53731342;fill:none;fill-opacity:1;fill-rule:evenodd;stroke:url(#linearGradient6973);stroke-width:1px;stroke-linecap:round;stroke-linejoin:miter;stroke-opacity:1"/></g><g id="g16" transform="translate(303,219) scale(1.000000,1.000000)" style="display:inline;enable-background:new"><path id="path241" d="M 13.5,6.5 L 15.5,6.5 L 12.5,3.5 L 13.5,6.5 z" style="fill:#555753;fill-rule:evenodd;stroke:#555753;stroke-width:1px;stroke-linecap:butt;stroke-linejoin:round;stroke-opacity:1"/><path id="path243" d="M 11.5,0.5 L 7.5,0.5 C 5.4651474,0.5 1.4722718,1.5277282 1.4722718,1.5277282 C 0.6034698,2.0293312 0.5,1.9407971 0.5,3.5 L 8.5,3.5 L 8.5,23.5 L 12.5,23.5 L 12.5,5.53125 L 15.5,2.5 L 12.5,2.5 L 12.5,1.5 L 11.5,0.5 z" style="fill:url(#linearGradient6945);fill-opacity:1;fill-rule:evenodd;stroke:#a1a29e;stroke-width:1px;stroke-linecap:butt;stroke-linejoin:miter;stroke-opacity:1"/><path id="path245" d="M 9,8 L 9,9 L 12,9 L 12,8 L 9,8 z M 9,10 L 9,11 L 11,11 L 11,10 L 9,10 z M 9,12 L 9,13 L 12,13 L 12,12 L 9,12 z M 9,14 L 9,15 L 11,15 L 11,14 L 9,14 z M 9,16 L 9,17 L 12,17 L 12,16 L 9,16 z M 9,18 L 9,19 L 11,19 L 11,18 L 9,18 z M 9,20 L 9,21 L 12,21 L 12,20 L 9,20 z" style="opacity:.69402986;fill:url(#linearGradient7039);fill-opacity:1;fill-rule:evenodd;stroke:none;stroke-width:1;stroke-linecap:round;stroke-linejoin:miter;stroke-miterlimit:10;stroke-dasharray:none;stroke-opacity:1"/><path id="path247" d="M 7.5,1.5 C 4.6322839,1.7272266 3.8567877,1.9289841 1.53125,2.53125 L 9.46875,2.5 L 9.46875,22.53125 L 11.53125,22.53125 L 11.53125,5.53125 C 11.533235,4.9970483 11.965798,4.5644846 12.5,4.5625 L 12.5,3.46875 C 11.965798,3.4667654 11.533235,3.0342017 11.53125,2.5 L 11.5,1.5 L 7.5,1.5 z" style="opacity:.92537313;fill:none;fill-opacity:1;fill-rule:evenodd;stroke:url(#linearGradient6961);stroke-width:1px;stroke-linecap:butt;stroke-linejoin:miter;stroke-opacity:1"/><path id="path249" d="M 0.5,5.5 C 0.5,7.059203 0.5999481,6.967147 1.46875,7.46875 L 7,8.5 C 7.373164,8.685835 7.5,9 7.5,9.5 L 7.5,13.5 L 6.5,13.5 C 5.946,13.5 5.5,13.946 5.5,14.5 C 5.5,15.054 5.946,15.5 6.5,15.5 L 7.5,15.5 L 9.5,15.5 L 9.5,5.5 L 0.5,5.5 z M 11.5,5.5 L 11.5,15.5 L 13.5,15.5 L 13.5,5.5 L 11.5,5.5 z" style="opacity:1;fill:#babdb6;fill-opacity:1;fill-rule:evenodd;stroke:#888a85;stroke-width:1;stroke-linecap:round;stroke-linejoin:miter;stroke-miterlimit:10;stroke-dasharray:none;stroke-opacity:1"/><g id="g251" transform="translate(-2,-3)" style="opacity:.6268657"><path id="path253" d="M 3.515625,9.5 C 5.7070904,10.581809 8.6239684,9.5622795 10.28125,11.4375 C 10.452659,11.79686 10.5,13.165442 10.5,13.5 L 10.5,9.5 L 3.515625,9.5 z" style="fill:none;fill-rule:evenodd;stroke:#fff;stroke-width:1px;stroke-linecap:butt;stroke-linejoin:miter;stroke-opacity:1"/><path id="path255" d="M 10.5,18 L 10.5,12.5" style="fill:none;fill-rule:evenodd;stroke:#fff;stroke-width:1px;stroke-linecap:butt;stroke-linejoin:miter;stroke-opacity:1"/><path id="path257" d="M 14.5,18 L 14.5,9" style="fill:none;fill-rule:evenodd;stroke:#fff;stroke-width:1px;stroke-linecap:butt;stroke-linejoin:miter;stroke-opacity:1"/></g><rect id="rect259" width="2" height="3" x="13.5" y="11.5" rx=".483" ry=".362" style="opacity:1;fill:#eeeeec;fill-opacity:1;fill-rule:evenodd;stroke:url(#linearGradient7071);stroke-width:1;stroke-linecap:round;stroke-linejoin:miter;stroke-miterlimit:10;stroke-dasharray:none;stroke-opacity:1"/><rect id="rect261" width="1" height="1" x="14" y="13" style="opacity:.21268658;fill:#000;fill-opacity:1;fill-rule:evenodd;stroke:none;stroke-width:1;stroke-linecap:round;stroke-linejoin:miter;stroke-miterlimit:10;stroke-dasharray:none;stroke-opacity:1"/><path id="path263" d="M 8,7 L 8,8 L 9,8 L 9,7 L 8,7 z M 8,9 L 8,10 L 9,10 L 9,9 L 8,9 z M 8,11 L 8,12 L 9,12 L 9,11 L 8,11 z M 8,13 L 8,14 L 9,14 L 9,13 L 8,13 z" style="opacity:.15671644;fill:url(#linearGradient7043);fill-opacity:1;fill-rule:evenodd;stroke:none;stroke-width:1;stroke-linecap:round;stroke-linejoin:miter;stroke-miterlimit:10;stroke-dasharray:none;stroke-opacity:1"/><path id="path265" d="M 12,7 L 12,8 L 13,8 L 13,7 L 12,7 z M 12,9 L 12,10 L 13,10 L 13,9 L 12,9 z M 12,11 L 12,12 L 13,12 L 13,11 L 12,11 z M 12,13 L 12,14 L 13,14 L 13,13 L 12,13 z" style="opacity:.1;fill:url(#linearGradient7047);fill-opacity:1;fill-rule:evenodd;stroke:none;stroke-width:1;stroke-linecap:round;stroke-linejoin:miter;stroke-miterlimit:10;stroke-dasharray:none;stroke-opacity:1"/><path id="path267" d="M 6.5,17.5 L 8.5,17.5" style="opacity:.53731342;fill:none;fill-opacity:1;fill-rule:evenodd;stroke:url(#linearGradient6973);stroke-width:1px;stroke-linecap:round;stroke-linejoin:miter;stroke-opacity:1"/><rect id="rect269" width="3" height="1" x="1" y="2" style="opacity:1;fill:#d3d7cf;fill-opacity:1;fill-rule:evenodd;stroke:none;stroke-width:1;stroke-linecap:round;stroke-linejoin:miter;stroke-miterlimit:10;stroke-dasharray:none;stroke-opacity:1"/><rect id="rect271" width="3" height="1" x="1" y="6" style="opacity:1;fill:#fff;fill-opacity:1;fill-rule:evenodd;stroke:none;stroke-width:1;stroke-linecap:round;stroke-linejoin:miter;stroke-miterlimit:10;stroke-dasharray:none;stroke-opacity:1"/><rect id="rect273" width="1" height="1" x="13" y="3" style="opacity:1;fill:#fff;fill-opacity:1;fill-rule:evenodd;stroke:none;stroke-width:1;stroke-linecap:round;stroke-linejoin:miter;stroke-miterlimit:10;stroke-dasharray:none;stroke-opacity:1"/></g></g></svg>