<svg xmlns="http://www.w3.org/2000/svg" xmlns:svg="http://www.w3.org/2000/svg" xmlns:xlink="http://www.w3.org/1999/xlink" id="svg11300" width="400" height="300" version="1.0" style="display:inline;enable-background:new"><title id="title8836">Optical Drive</title><metadata id="metadata154"/><defs id="defs3"><filter id="filter9752" width="1.097" height="1.735" x="-.048" y="-.368"><feGaussianBlur id="feGaussianBlur9754" stdDeviation=".766"/></filter><linearGradient id="linearGradient10081"><stop style="stop-color:#fff;stop-opacity:1" id="stop10083" offset="0"/><stop style="stop-color:#fff;stop-opacity:0" id="stop10085" offset="1"/></linearGradient><linearGradient id="linearGradient9983"><stop style="stop-color:#dc1e1e;stop-opacity:1" id="stop9985" offset="0"/><stop style="stop-color:#a40000;stop-opacity:1" id="stop9987" offset="1"/></linearGradient><linearGradient id="linearGradient3035"><stop id="stop3037" offset="0" style="stop-color:#babdb6;stop-opacity:1"/><stop id="stop3039" offset="1" style="stop-color:white;stop-opacity:1"/></linearGradient><linearGradient id="linearGradient3023"><stop id="stop3025" offset="0" style="stop-color:#f9afaf;stop-opacity:1"/><stop id="stop3027" offset="1" style="stop-color:#ef2929;stop-opacity:1"/></linearGradient><linearGradient id="linearGradient3009"><stop id="stop3011" offset="0" style="stop-color:white;stop-opacity:1"/><stop id="stop3013" offset="1" style="stop-color:white;stop-opacity:0"/></linearGradient><linearGradient id="linearGradient2953"><stop id="stop2955" offset="0" style="stop-color:#d3d7cf;stop-opacity:1"/><stop id="stop2957" offset=".414" style="stop-color:#eeeeec;stop-opacity:1"/><stop id="stop2959" offset="1" style="stop-color:#babdb6;stop-opacity:1"/></linearGradient><linearGradient id="linearGradient2947"><stop id="stop2949" offset="0" style="stop-color:white;stop-opacity:1"/><stop id="stop2951" offset="1" style="stop-color:white;stop-opacity:.47104248"/></linearGradient><linearGradient id="linearGradient2941"><stop id="stop2943" offset="0" style="stop-color:white;stop-opacity:1"/><stop id="stop2945" offset="1" style="stop-color:#eeeeec;stop-opacity:1"/></linearGradient><linearGradient id="linearGradient2933"><stop id="stop2935" offset="0" style="stop-color:#babdb6;stop-opacity:1"/><stop id="stop2937" offset="1" style="stop-color:#d3d7cf;stop-opacity:1"/></linearGradient><linearGradient id="linearGradient2918"><stop id="stop2920" offset="0" style="stop-color:black"/><stop id="stop2922" offset="1" style="stop-color:black;stop-opacity:0"/></linearGradient><linearGradient id="linearGradient2861"><stop id="stop2863" offset="0" style="stop-color:#c00;stop-opacity:1"/><stop id="stop2869" offset=".23" style="stop-color:#ef2929;stop-opacity:1"/><stop id="stop2865" offset="1" style="stop-color:#c00;stop-opacity:1"/></linearGradient><linearGradient id="linearGradient2848"><stop id="stop2850" offset="0" style="stop-color:white;stop-opacity:1"/><stop id="stop2852" offset="1" style="stop-color:white;stop-opacity:0"/></linearGradient><linearGradient id="linearGradient5024"><stop id="stop5026" offset="0" style="stop-color:#555753"/><stop id="stop5028" offset="1" style="stop-color:#555753;stop-opacity:0"/></linearGradient><linearGradient id="linearGradient5565"><stop id="stop5567" offset="0" style="stop-color:#f24e4e;stop-opacity:1"/><stop id="stop5569" offset="1" style="stop-color:#c10000;stop-opacity:1"/></linearGradient><linearGradient id="linearGradient5540"><stop id="stop5542" offset="0" style="stop-color:black;stop-opacity:1"/><stop id="stop5544" offset="1" style="stop-color:black;stop-opacity:0"/></linearGradient><radialGradient id="radialGradient6719" cx="605.714" cy="486.648" r="117.143" fx="605.714" fy="486.648" gradientTransform="matrix(-2.774389,0,0,1.969706,112.7623,-872.8854)" gradientUnits="userSpaceOnUse" xlink:href="#linearGradient5060"/><linearGradient id="linearGradient5060"><stop id="stop5062" offset="0" style="stop-color:black;stop-opacity:1"/><stop id="stop5064" offset="1" style="stop-color:black;stop-opacity:0"/></linearGradient><radialGradient id="radialGradient6717" cx="605.714" cy="486.648" r="117.143" fx="605.714" fy="486.648" gradientTransform="matrix(2.774389,0,0,1.969706,-1891.633,-872.8854)" gradientUnits="userSpaceOnUse" xlink:href="#linearGradient5060"/><linearGradient id="linearGradient5048"><stop id="stop5050" offset="0" style="stop-color:black;stop-opacity:0"/><stop id="stop5056" offset=".5" style="stop-color:black;stop-opacity:1"/><stop id="stop5052" offset="1" style="stop-color:black;stop-opacity:0"/></linearGradient><linearGradient id="linearGradient6715" x1="302.857" x2="302.857" y1="366.648" y2="609.505" gradientTransform="matrix(2.774389,0,0,1.969706,-1892.179,-872.8854)" gradientUnits="userSpaceOnUse" xlink:href="#linearGradient5048"/><linearGradient id="linearGradient8128" x1="10.788" x2="9.66" y1="13.257" y2="7.004" gradientTransform="translate(0.357548,3.418157)" gradientUnits="userSpaceOnUse" xlink:href="#linearGradient5024"/><linearGradient id="linearGradient8145" x1="-.31" x2="19.211" y1="26.6" y2="38.364" gradientTransform="matrix(1,0,0,0.997033,8.000011,-2.918415)" gradientUnits="userSpaceOnUse" xlink:href="#linearGradient2941"/><radialGradient id="radialGradient2881" cx="30.155" cy="27.99" r="3.712" fx="30.155" fy="27.99" gradientTransform="matrix(0.952381,0,0,0.490991,1.435937,14.25112)" gradientUnits="userSpaceOnUse" xlink:href="#linearGradient5540"/><linearGradient id="linearGradient2916" x1="11.163" x2="10.535" y1="17.507" y2="9.691" gradientTransform="translate(0.357548,4.418157)" gradientUnits="userSpaceOnUse" xlink:href="#linearGradient2918"/><linearGradient id="linearGradient2939" x1="41.41" x2="12.286" y1="45.26" y2="37.5" gradientUnits="userSpaceOnUse" xlink:href="#linearGradient2933"/><linearGradient id="linearGradient2979" x1="29.743" x2="29.743" y1="7.562" y2="5.7" gradientUnits="userSpaceOnUse" xlink:href="#linearGradient2848"/><linearGradient id="linearGradient2982" x1="30" x2="30" y1="7.9" y2="10.433" gradientTransform="matrix(1.333335,0,0,1.218181,-10.50002,-1.20001)" gradientUnits="userSpaceOnUse" xlink:href="#linearGradient5565"/><linearGradient id="linearGradient2985" x1="27.97" x2="30" y1="7.866" y2="32.192" gradientTransform="matrix(1.199995,0,0,1.090909,-6.49985,0.499987)" gradientUnits="userSpaceOnUse" xlink:href="#linearGradient2947"/><linearGradient id="linearGradient2988" x1="27.857" x2="34.071" y1="17.714" y2="17.714" gradientTransform="matrix(1.142855,0,0,1.083333,-5.928468,0.624995)" gradientUnits="userSpaceOnUse" xlink:href="#linearGradient2953"/><linearGradient id="linearGradient3015" x1="11.75" x2="12.5" y1="33.063" y2="43.125" gradientUnits="userSpaceOnUse" xlink:href="#linearGradient3009"/><linearGradient id="linearGradient3020" x1="14.219" x2="19.724" y1="27.734" y2="27.734" gradientUnits="userSpaceOnUse" xlink:href="#linearGradient2861"/><radialGradient id="radialGradient3029" cx="17.969" cy="28.031" r="3" fx="17.969" fy="28.031" gradientTransform="matrix(1.54223,0,0,0.514076,-9.743189,12.93355)" gradientUnits="userSpaceOnUse" xlink:href="#linearGradient3023"/><radialGradient id="radialGradient3041" cx="17.237" cy="27.869" r="3" fx="17.237" fy="27.869" gradientTransform="matrix(1.125173,0,0,0.375057,-2.15759,16.83718)" gradientUnits="userSpaceOnUse" xlink:href="#linearGradient3035"/><linearGradient id="linearGradient8155"><stop id="stop8157" offset="0" style="stop-color:white;stop-opacity:1"/><stop id="stop8159" offset="1" style="stop-color:white;stop-opacity:.38431373"/></linearGradient><linearGradient id="linearGradient5206"><stop id="stop5208" offset="0" style="stop-color:white;stop-opacity:1"/><stop id="stop5210" offset="1" style="stop-color:white;stop-opacity:0"/></linearGradient><linearGradient id="linearGradient6117"><stop id="stop6119" offset="0" style="stop-color:#eeeeec;stop-opacity:1"/><stop id="stop6125" offset=".5" style="stop-color:#fdfdfd;stop-opacity:1"/><stop id="stop6121" offset="1" style="stop-color:#cecec8;stop-opacity:1"/></linearGradient><linearGradient id="linearGradient6123" x1="27.857" x2="34.071" y1="17.714" y2="17.714" gradientTransform="matrix(0.857141,0,0,0.833333,-7.071369,-1.25)" gradientUnits="userSpaceOnUse" xlink:href="#linearGradient6117"/><linearGradient id="linearGradient5212" x1="30" x2="30" y1="21.964" y2="25.071" gradientTransform="matrix(0.806701,0,0,0.848017,-4.717808,-1.164093)" gradientUnits="userSpaceOnUse" xlink:href="#linearGradient5206"/><radialGradient id="radialGradient5546" cx="30.155" cy="27.99" r="3.712" fx="30.155" fy="27.99" gradientTransform="matrix(0.952381,0,0,0.490991,1.435937,14.25112)" gradientUnits="userSpaceOnUse" xlink:href="#linearGradient5540"/><linearGradient id="linearGradient5571" x1="30" x2="30" y1="7.336" y2="9.202" gradientTransform="matrix(0.666667,0,0,0.799999,-0.499984,-0.900005)" gradientUnits="userSpaceOnUse" xlink:href="#linearGradient5565"/><linearGradient id="linearGradient8161" x1="27.562" x2="27.477" y1="27.467" y2="35.763" gradientTransform="matrix(0.780388,0,0,0.785714,-4.105738,0.821442)" gradientUnits="userSpaceOnUse" xlink:href="#linearGradient8155"/><linearGradient id="linearGradient9989" x1="311.188" x2="311.188" y1="177.625" y2="180.381" gradientTransform="translate(4.625,0)" gradientUnits="userSpaceOnUse" xlink:href="#linearGradient9983"/><linearGradient id="linearGradient10029" x1="302.857" x2="302.857" y1="366.648" y2="609.505" gradientTransform="matrix(2.774389,0,0,1.969706,-1892.179,-872.8854)" gradientUnits="userSpaceOnUse" xlink:href="#linearGradient5048"/><radialGradient id="radialGradient10031" cx="605.714" cy="486.648" r="117.143" fx="605.714" fy="486.648" gradientTransform="matrix(2.774389,0,0,1.969706,-1891.633,-872.8854)" gradientUnits="userSpaceOnUse" xlink:href="#linearGradient5060"/><radialGradient id="radialGradient10033" cx="605.714" cy="486.648" r="117.143" fx="605.714" fy="486.648" gradientTransform="matrix(-2.774389,0,0,1.969706,112.7623,-872.8854)" gradientUnits="userSpaceOnUse" xlink:href="#linearGradient5060"/><radialGradient id="radialGradient10041" cx="30.155" cy="27.99" r="3.712" fx="30.155" fy="27.99" gradientTransform="matrix(0.952381,0,0,0.490991,1.435937,14.25112)" gradientUnits="userSpaceOnUse" xlink:href="#linearGradient5540"/><linearGradient id="linearGradient10053" x1="30" x2="30" y1="7.336" y2="9.202" gradientTransform="matrix(0.3772612,0,0,0.4527126,269.85893,177.18242)" gradientUnits="userSpaceOnUse" xlink:href="#linearGradient5565"/><linearGradient id="linearGradient10056" x1="30" x2="30" y1="21.964" y2="25.071" gradientTransform="matrix(0.4565052,0,0,0.4798856,278.9461,172.30315)" gradientUnits="userSpaceOnUse" xlink:href="#linearGradient5206"/><linearGradient id="linearGradient10059" x1="27.857" x2="34.071" y1="17.714" y2="17.714" gradientTransform="matrix(0.4850488,0,0,0.4715761,266.14024,176.98437)" gradientUnits="userSpaceOnUse" xlink:href="#linearGradient6117"/><linearGradient id="linearGradient10064" x1="27.562" x2="27.477" y1="27.467" y2="35.763" gradientTransform="matrix(0.4416149,0,0,0.4446289,267.81847,178.15658)" gradientUnits="userSpaceOnUse" xlink:href="#linearGradient8155"/><linearGradient id="linearGradient10070" x1="-.31" x2="19.211" y1="26.6" y2="38.364" gradientTransform="matrix(0.5658915,0,0,0.5642125,274.66901,176.04022)" gradientUnits="userSpaceOnUse" xlink:href="#linearGradient2941"/><linearGradient id="linearGradient10073" x1="10.788" x2="9.66" y1="13.257" y2="7.004" gradientTransform="matrix(0.5658915,0,0,0.5658915,270.3442,179.62604)" gradientUnits="userSpaceOnUse" xlink:href="#linearGradient5024"/><linearGradient id="linearGradient10087" x1="313.066" x2="313.066" y1="177.243" y2="180.158" gradientTransform="translate(3,0)" gradientUnits="userSpaceOnUse" xlink:href="#linearGradient10081"/><linearGradient id="linearGradient10095" x1="320.438" x2="322.656" y1="184" y2="184" gradientTransform="translate(-6,0)" gradientUnits="userSpaceOnUse" xlink:href="#linearGradient6117"/><linearGradient id="linearGradient10107" x1="10.788" x2="9.66" y1="13.257" y2="7.004" gradientTransform="matrix(0.5658915,0,0,0.5658915,303.00187,176.66603)" gradientUnits="userSpaceOnUse" xlink:href="#linearGradient5024"/><filter id="filter10115" width="1.198" height="1.304" x="-.099" y="-.152"><feGaussianBlur id="feGaussianBlur10117" stdDeviation=".292"/></filter><linearGradient id="linearGradient11790" x1="10.788" x2="9.66" y1="13.257" y2="7.004" gradientTransform="matrix(0.5658915,0,0,0.5658915,318.75187,218.16603)" gradientUnits="userSpaceOnUse" xlink:href="#linearGradient5024"/><linearGradient id="linearGradient11792" x1="320.438" x2="322.656" y1="184" y2="184" gradientTransform="translate(9.7500003,41.5)" gradientUnits="userSpaceOnUse" xlink:href="#linearGradient6117"/><linearGradient id="linearGradient11794" x1="313.066" x2="313.066" y1="177.243" y2="180.158" gradientTransform="translate(18.75,41.5)" gradientUnits="userSpaceOnUse" xlink:href="#linearGradient10081"/><linearGradient id="linearGradient11796" x1="311.188" x2="311.188" y1="177.625" y2="180.381" gradientTransform="translate(20.375,41.5)" gradientUnits="userSpaceOnUse" xlink:href="#linearGradient9983"/><linearGradient id="linearGradient11806" x1="320.438" x2="322.656" y1="184" y2="184" gradientTransform="matrix(1,0,0,0.7692308,-7.999999,82.96154)" gradientUnits="userSpaceOnUse" xlink:href="#linearGradient6117"/><linearGradient id="linearGradient11810" x1="311.188" x2="311.188" y1="177.625" y2="180.381" gradientTransform="matrix(1,0,0,0.75,2.625001,86.25)" gradientUnits="userSpaceOnUse" xlink:href="#linearGradient9983"/><linearGradient id="linearGradient11816" x1="10.788" x2="8.837" y1="13.257" y2="3.028" gradientTransform="matrix(0.5658915,0,0,0.5658915,302.00187,216.38979)" gradientUnits="userSpaceOnUse" xlink:href="#linearGradient5024"/></defs><g id="layer6" style="display:none"><rect id="rect6284" width="48" height="48" x="296" y="50" style="fill:#eeeeec;fill-opacity:1;fill-rule:nonzero;stroke:none;stroke-width:2;marker:none;visibility:visible;display:inline;overflow:visible;enable-background:accumulate"/><rect id="rect6592" width="32" height="32" x="303" y="126" style="fill:#eeeeec;fill-opacity:1;fill-rule:nonzero;stroke:none;stroke-width:2;marker:none;visibility:visible;display:inline;overflow:visible;enable-background:accumulate"/><rect id="rect6749" width="22" height="22" x="303" y="177" style="fill:#eeeeec;fill-opacity:1;fill-rule:nonzero;stroke:none;stroke-width:2;marker:none;visibility:visible;display:inline;overflow:visible;enable-background:accumulate"/><rect id="rect6833" width="16" height="16" x="303" y="219" style="fill:#eeeeec;fill-opacity:1;fill-rule:nonzero;stroke:none;stroke-width:2;marker:none;visibility:visible;display:inline;overflow:visible;enable-background:accumulate"/><text id="context" x="20.971" y="21.514" xml:space="preserve" style="font-size:18.30070686px;font-style:normal;font-weight:400;fill:#000;fill-opacity:1;stroke:none;display:inline;enable-background:new;font-family:Bitstream Vera Sans"><tspan id="tspan2716" x="20.971" y="21.514">categories</tspan></text><text id="icon-name" x="191.971" y="21.514" xml:space="preserve" style="font-size:18.30070686px;font-style:normal;font-variant:normal;font-weight:700;font-stretch:normal;text-align:start;line-height:125%;writing-mode:lr-tb;text-anchor:start;fill:#000;fill-opacity:1;stroke:none;display:inline;enable-background:new;font-family:Droid Sans;-inkscape-font-specification:Droid Sans Bold"><tspan id="tspan3023" x="191.971" y="21.514">applications-games</tspan></text></g><g id="layer2" style="display:inline"><g id="g48" transform="translate(296,50)" style="display:inline;enable-background:new"><g id="g3952" transform="matrix(1.842671e-2,0,0,3.233675e-2,40.38938,32.87305)" style="opacity:.5;display:inline"><rect id="rect3954" width="1339.633" height="478.357" x="-1559.252" y="-150.697" style="opacity:.40206185;fill:url(#linearGradient6715);fill-opacity:1;fill-rule:nonzero;stroke:none;stroke-width:1;stroke-linecap:round;stroke-linejoin:miter;marker:none;marker-start:none;marker-mid:none;marker-end:none;stroke-miterlimit:4;stroke-dasharray:none;stroke-dashoffset:0;stroke-opacity:1;visibility:visible;display:inline;overflow:visible"/><path id="path3956" d="M -219.61876,-150.68038 C -219.61876,-150.68038 -219.61876,327.65041 -219.61876,327.65041 C -76.744594,328.55086 125.78146,220.48075 125.78138,88.454235 C 125.78138,-43.572302 -33.655436,-150.68036 -219.61876,-150.68038 z" style="opacity:.40206185;fill:url(#radialGradient6717);fill-opacity:1;fill-rule:nonzero;stroke:none;stroke-width:1;stroke-linecap:round;stroke-linejoin:miter;marker:none;marker-start:none;marker-mid:none;marker-end:none;stroke-miterlimit:4;stroke-dasharray:none;stroke-dashoffset:0;stroke-opacity:1;visibility:visible;display:inline;overflow:visible"/><path id="path3958" d="M -1559.2523,-150.68038 C -1559.2523,-150.68038 -1559.2523,327.65041 -1559.2523,327.65041 C -1702.1265,328.55086 -1904.6525,220.48075 -1904.6525,88.454235 C -1904.6525,-43.572302 -1745.2157,-150.68036 -1559.2523,-150.68038 z" style="opacity:.40206185;fill:url(#radialGradient6719);fill-opacity:1;fill-rule:nonzero;stroke:none;stroke-width:1;stroke-linecap:round;stroke-linejoin:miter;marker:none;marker-start:none;marker-mid:none;marker-end:none;stroke-miterlimit:4;stroke-dasharray:none;stroke-dashoffset:0;stroke-opacity:1;visibility:visible;display:inline;overflow:visible"/></g><path id="path2912" d="M 21.357548,25.851145 C 25.413543,16.46711 7.283475,23.287862 5.5,19.250898 C 3.9996713,15.854847 21.276649,16.264088 12.369033,9.5" style="opacity:.1;fill:none;fill-opacity:.75;fill-rule:evenodd;stroke:url(#linearGradient2916);stroke-width:1px;stroke-linecap:round;stroke-linejoin:round;stroke-opacity:1"/><path id="path8126" d="M 21.357548,24.851145 C 25.413543,15.46711 7.2834752,22.287862 5.5,18.250898 C 3.9996713,14.854847 21.276649,15.264088 12.369033,8.5" style="fill:none;fill-opacity:.75;fill-rule:evenodd;stroke:url(#linearGradient8128);stroke-width:1px;stroke-linecap:round;stroke-linejoin:round;stroke-opacity:1"/><path id="path8137" d="M 13.34375,23.5 C 12.336524,23.502808 11.903738,23.952055 11.625,24.65625 L 7.53125,35 L 7.5,38.96875 C 7.5,39.810299 8.1897011,40.5 9.03125,40.5 L 38.96875,40.5 C 39.810299,40.5 40.5,39.810297 40.5,38.96875 L 40.5,35 L 36.375,24.625 C 36.103729,23.944107 35.338391,23.499996 34.5,23.5 L 13.34375,23.5 z" style="fill:url(#linearGradient8145);fill-opacity:1;fill-rule:evenodd;stroke:#888a85;stroke-width:1px;stroke-linecap:butt;stroke-linejoin:round;stroke-opacity:1"/><rect id="rect5213" width="31.98" height="5" x="8" y="35" rx=".983" ry=".983" style="opacity:1;fill:url(#linearGradient2939);fill-opacity:1;stroke:none;stroke-width:1;stroke-linecap:butt;stroke-linejoin:round;stroke-miterlimit:4;stroke-dasharray:none;stroke-opacity:1"/><path id="path3031" d="M 20,27 A 3,1 0 1 1 14,27 A 3,1 0 1 1 20,27 z" transform="matrix(1.666667,0,0,2.48437,-11.33333,-38.59362)" style="opacity:1;fill:url(#radialGradient3041);fill-opacity:1;stroke:none;stroke-width:1;stroke-linecap:round;stroke-linejoin:round;stroke-miterlimit:4;stroke-dasharray:none;stroke-dashoffset:0;stroke-opacity:1"/><path id="path3007" d="M 13.34375,24.5 C 12.988411,24.500991 12.882848,24.572505 12.8125,24.625 C 12.742152,24.677495 12.663468,24.776169 12.5625,25.03125 L 8.53125,35.21875 L 8.5,38.96875 C 8.5,39.263925 8.7360754,39.5 9.03125,39.5 L 38.96875,39.5 C 39.263923,39.5 39.5,39.263921 39.5,38.96875 L 39.5,35.21875 L 35.4375,25 C 35.350246,24.780991 34.985243,24.499998 34.5,24.5 L 13.34375,24.5 z" style="fill:none;fill-opacity:1;fill-rule:evenodd;stroke:url(#linearGradient3015);stroke-width:1px;stroke-linecap:butt;stroke-linejoin:round;stroke-opacity:1"/><path id="path5223" d="M 8.6236514,35.5 L 39.46527,35.5" style="fill:none;fill-opacity:.75;fill-rule:evenodd;stroke:#fff;stroke-width:.99999964px;stroke-linecap:round;stroke-linejoin:miter;stroke-opacity:1"/><path id="path5538" d="M 33.991632,27.99898 A 3.7123106,2.0708127 0 1 1 26.567011,27.99898 A 3.7123106,2.0708127 0 1 1 33.991632,27.99898 z" transform="matrix(1.809853,0,0,2.278696,-24.95737,-34.76991)" style="opacity:.4;fill:url(#radialGradient2881);fill-opacity:1;stroke:none;stroke-width:1;stroke-linecap:butt;stroke-linejoin:bevel;stroke-miterlimit:4;stroke-dasharray:none;stroke-opacity:1"/><rect id="rect4311" width="8" height="26" x="25.5" y="5.5" rx="3.454" ry="3.022" style="fill:url(#linearGradient2988);fill-opacity:1;stroke:#888a85;stroke-width:.99999952;stroke-linecap:butt;stroke-linejoin:bevel;stroke-miterlimit:4;stroke-dasharray:none;stroke-opacity:1"/><path id="path2965" d="M 28.96875,6 C 27.284933,6 26,7.1578409 26,8.53125 L 26,11.5 C 26,12.873409 27.284932,14.03125 28.96875,14.03125 L 30.03125,14.03125 C 31.715067,14.03125 33,12.873407 33,11.5 L 33,8.53125 C 33,7.1578412 31.715067,6 30.03125,6 L 28.96875,6 z" style="opacity:.8;fill:#fff;fill-opacity:1;stroke:none;stroke-width:.99999952;stroke-linecap:butt;stroke-linejoin:bevel;stroke-miterlimit:4;stroke-opacity:1"/><rect id="rect5211" width="6" height="24" x="26.5" y="6.5" rx="2.483" ry="2.069" style="fill:none;fill-opacity:1;stroke:url(#linearGradient2985);stroke-width:.99999923;stroke-linecap:butt;stroke-linejoin:bevel;stroke-miterlimit:4;stroke-dasharray:none;stroke-opacity:1"/><rect id="rect4315" width="4" height="7" x="27.5" y="5.5" rx="1.502" ry="1.502" style="fill:url(#linearGradient2982);fill-opacity:1;stroke:#a40000;stroke-width:.99999815;stroke-linecap:butt;stroke-linejoin:bevel;stroke-miterlimit:4;stroke-dasharray:none;stroke-opacity:1"/><rect id="rect1925" width="3" height="2" x="28" y="6" rx=".945" ry=".945" style="opacity:.61800764;fill:url(#linearGradient2979);fill-opacity:1;stroke:none;stroke-width:1;stroke-linecap:butt;stroke-linejoin:bevel;stroke-miterlimit:4;stroke-dasharray:none;stroke-opacity:1"/><path id="path4316" d="M 31,7.125 A 0.8214286,0.6964286 0 1 1 29.357143,7.125 A 0.8214286,0.6964286 0 1 1 31,7.125 z" transform="matrix(0.608687,0,0,0.717948,10.1307,2.368148)" style="opacity:.7;fill:#fff;fill-opacity:1;stroke:none;stroke-width:1;stroke-linecap:butt;stroke-linejoin:bevel;stroke-miterlimit:4;stroke-dasharray:none;stroke-opacity:1"/><path id="path4313" d="M 17,25.5 C 15.062439,25.5 13.5,26.171996 13.5,27 L 13.5,28 C 13.5,28.828004 15.062439,29.5 17,29.5 C 18.937561,29.5 20.53125,28.828003 20.53125,28 L 20.53125,27 C 20.53125,26.171996 18.93756,25.5 17,25.5 z" style="fill:url(#linearGradient3020);fill-opacity:1;stroke:#a40000;stroke-width:1;stroke-linecap:butt;stroke-linejoin:bevel;stroke-miterlimit:4;stroke-dasharray:none;stroke-opacity:1"/><path id="path2871" d="M 20,27 A 3,1 0 1 1 14,27 A 3,1 0 1 1 20,27 z" style="fill:url(#radialGradient3029);fill-opacity:1;stroke:none;stroke-width:1;stroke-linecap:round;stroke-linejoin:round;stroke-miterlimit:4;stroke-dasharray:none;stroke-dashoffset:0;stroke-opacity:1"/></g><g id="g32" transform="translate(303,126)" style="display:inline;enable-background:new"><rect style="opacity:.2;fill:#000;fill-opacity:1;fill-rule:nonzero;stroke:none;stroke-width:1;stroke-linecap:round;stroke-linejoin:miter;marker:none;marker-start:none;marker-mid:none;marker-end:none;stroke-miterlimit:4;stroke-dasharray:none;stroke-dashoffset:0;stroke-opacity:1;visibility:visible;display:inline;overflow:visible;filter:url(#filter9752);enable-background:new" id="rect9756" width="38" height="5" x="301" y="91" rx="3.578" ry="1.562" transform="matrix(0.5493425,0,0,1.0000004,-165.22711,-24.000035)"/><g id="g122" transform="matrix(1.581682e-2,0,0,1.99214e-2,29.56805,25.82551)" style="display:inline"><rect id="rect124" width="1339.633" height="478.357" x="-1559.252" y="-150.697" style="opacity:.40206185;fill:url(#linearGradient6715);fill-opacity:1;fill-rule:nonzero;stroke:none;stroke-width:1;stroke-linecap:round;stroke-linejoin:miter;marker:none;marker-start:none;marker-mid:none;marker-end:none;stroke-miterlimit:4;stroke-dasharray:none;stroke-dashoffset:0;stroke-opacity:1;visibility:visible;display:inline;overflow:visible"/><path id="path126" d="M -219.61876,-150.68038 C -219.61876,-150.68038 -219.61876,327.65041 -219.61876,327.65041 C -76.744594,328.55086 125.78146,220.48075 125.78138,88.454235 C 125.78138,-43.572302 -33.655436,-150.68036 -219.61876,-150.68038 z" style="opacity:.40206185;fill:url(#radialGradient6717);fill-opacity:1;fill-rule:nonzero;stroke:none;stroke-width:1;stroke-linecap:round;stroke-linejoin:miter;marker:none;marker-start:none;marker-mid:none;marker-end:none;stroke-miterlimit:4;stroke-dasharray:none;stroke-dashoffset:0;stroke-opacity:1;visibility:visible;display:inline;overflow:visible"/><path id="path128" d="M -1559.2523,-150.68038 C -1559.2523,-150.68038 -1559.2523,327.65041 -1559.2523,327.65041 C -1702.1265,328.55086 -1904.6525,220.48075 -1904.6525,88.454235 C -1904.6525,-43.572302 -1745.2157,-150.68036 -1559.2523,-150.68038 z" style="opacity:.40206185;fill:url(#radialGradient6719);fill-opacity:1;fill-rule:nonzero;stroke:none;stroke-width:1;stroke-linecap:round;stroke-linejoin:miter;marker:none;marker-start:none;marker-mid:none;marker-end:none;stroke-miterlimit:4;stroke-dasharray:none;stroke-dashoffset:0;stroke-opacity:1;visibility:visible;display:inline;overflow:visible"/></g><path id="path130" d="M 13.607662,17.74991 C 12.369413,11.881665 8.571303,15.280324 5.7427629,13.433046 C 3.2979693,11.836388 4.1686415,5.9951968 4.1686415,5.9951968" style="fill:none;fill-opacity:.75;fill-rule:evenodd;stroke:url(#linearGradient8128);stroke-width:1px;stroke-linecap:round;stroke-linejoin:round;stroke-opacity:1"/><path id="path132" d="M 6.545235,18.442083 C 6.953301,17.853573 7.361368,17.515675 8.082298,17.535787 L 23.099687,17.499988 C 23.6511,17.515675 24.098227,17.746171 24.441067,18.406281 L 28.478279,25.209213 L 28.478279,29.653476 C 28.494183,30.209917 28.023414,30.515747 27.691694,30.499367 L 3.3293684,30.499367 C 2.9281236,30.468013 2.5616411,30.042843 2.5427834,29.653476 L 2.5427834,25.209213 L 6.545235,18.442083 z" style="fill:url(#linearGradient8145);fill-opacity:1;fill-rule:evenodd;stroke:#888a85;stroke-width:.99999958px;stroke-linecap:butt;stroke-linejoin:round;stroke-opacity:1"/><path id="path4319" d="M 7.1499869,21.059951 L 7.1499869,22.750161 C 7.1499869,22.750161 7.8179812,23.538383 10.048184,23.544734 C 12.252337,23.551085 12.974479,22.733512 12.974479,22.733512 L 12.969642,21.059951 C 12.969642,21.059951 12.201446,21.949146 10.053022,21.949146 C 7.9273929,21.949146 7.1499869,21.059951 7.1499869,21.059951 z" style="fill:#a40000;fill-opacity:1;fill-rule:evenodd;stroke:none;stroke-width:1.0000006px;stroke-linecap:butt;stroke-linejoin:round;stroke-opacity:1"/><path id="path135" d="M 22.928571,26.464285 A 3.9642856,1.6785715 0 1 1 14.999999,26.464285 A 3.9642856,1.6785715 0 1 1 22.928571,26.464285 z" transform="matrix(0.644009,0,0,0.702609,-2.160135,2.587975)" style="opacity:1;fill:#c00;fill-opacity:1;stroke:#a40000;stroke-width:1.48661053;stroke-linecap:butt;stroke-linejoin:bevel;stroke-miterlimit:4;stroke-dasharray:none;stroke-opacity:1"/><rect id="rect137" width="25.155" height="5" x="2.915" y="25" rx="0" ry="0" style="opacity:.7;fill:#babdb6;fill-opacity:1;stroke:none;stroke-width:1;stroke-linecap:butt;stroke-linejoin:round;stroke-miterlimit:4;stroke-dasharray:none;stroke-opacity:1"/><path id="path5225" d="M 7.4194714,18.5 L 3.3079494,25.398629 L 3.3079494,29.500004 L 27.499993,29.500004 L 27.499993,25.438254 L 23.388472,18.5 L 7.4194714,18.5 z" style="opacity:.61809046;fill:none;fill-opacity:1;fill-rule:evenodd;stroke:url(#linearGradient8161);stroke-width:.99999964px;stroke-linecap:butt;stroke-linejoin:round;stroke-opacity:1"/><path id="path140" d="M 3.4052048,25.478177 L 27.664759,25.478177" style="fill:none;fill-opacity:.75;fill-rule:evenodd;stroke:#fff;stroke-width:.99999964px;stroke-linecap:round;stroke-linejoin:miter;stroke-opacity:1"/><path id="path142" d="M 33.991632,27.99898 A 3.7123106,2.0708127 0 1 1 26.567011,27.99898 A 3.7123106,2.0708127 0 1 1 33.991632,27.99898 z" transform="matrix(1.507019,0,0,1.6878,-25.85105,-25.62057)" style="opacity:.30653268;fill:url(#radialGradient5546);fill-opacity:1;stroke:none;stroke-width:1;stroke-linecap:butt;stroke-linejoin:bevel;stroke-miterlimit:4;stroke-dasharray:none;stroke-opacity:1"/><rect id="rect144" width="6" height="20" x="16.5" y="2.5" rx="3.022" ry="3.022" style="opacity:1;fill:url(#linearGradient6123);fill-opacity:1;stroke:#888a85;stroke-width:.99999928;stroke-linecap:butt;stroke-linejoin:bevel;stroke-miterlimit:4;stroke-dasharray:none;stroke-opacity:1"/><rect id="rect146" width="4.034" height="18.656" x="17.466" y="3.5" rx="2.069" ry="2.069" style="opacity:.8;fill:none;fill-opacity:1;stroke:url(#linearGradient5212);stroke-width:.99999911;stroke-linecap:butt;stroke-linejoin:bevel;stroke-miterlimit:4;stroke-dasharray:none;stroke-opacity:1"/><rect id="rect148" width="2" height="4" x="18.5" y="3.5" rx=".875" ry=".875" style="opacity:1;fill:url(#linearGradient5571);fill-opacity:1;stroke:#a40000;stroke-width:.99999803;stroke-linecap:butt;stroke-linejoin:bevel;stroke-miterlimit:4;stroke-dasharray:none;stroke-opacity:1"/><path id="path150" d="M 31,7.125 A 0.8214286,0.6964286 0 1 1 29.357143,7.125 A 0.8214286,0.6964286 0 1 1 31,7.125 z" transform="matrix(0.608696,0,0,0.717949,1.130433,0.384615)" style="opacity:.7;fill:#fff;fill-opacity:1;stroke:none;stroke-width:1;stroke-linecap:butt;stroke-linejoin:bevel;stroke-miterlimit:4;stroke-dasharray:none;stroke-opacity:1"/><path id="path6461" d="M 31,7.125 A 0.8214286,0.6964286 0 1 1 29.357143,7.125 A 0.8214286,0.6964286 0 1 1 31,7.125 z" transform="matrix(0.888008,0,0,0.564491,-17.47522,16.7669)" style="opacity:.7;fill:#fff;fill-opacity:1;stroke:none;stroke-width:1;stroke-linecap:butt;stroke-linejoin:bevel;stroke-miterlimit:4;stroke-dasharray:none;stroke-opacity:1"/><rect id="rect153" width="1" height="2" x="19" y="4" rx=".5" ry=".5" style="opacity:.17587938;fill:#fff;fill-opacity:1;stroke:none;stroke-width:1;stroke-linecap:butt;stroke-linejoin:bevel;stroke-miterlimit:4;stroke-dasharray:none;stroke-opacity:1"/></g><path style="fill:none;fill-opacity:.75;fill-rule:evenodd;stroke:url(#linearGradient10107);stroke-width:1.00000012px;stroke-linecap:round;stroke-linejoin:round;stroke-opacity:1;display:inline;enable-background:new" id="path10105" d="M 310.5,184.77624 C 309.79929,181.45545 307.64997,183.15776 306.04932,182.1124 C 304.66583,181.20886 305.57838,178.14645 305.57838,178.14645"/><path style="fill:#eeeeec;fill-opacity:1;fill-rule:evenodd;stroke:#888a85;stroke-width:1;stroke-linecap:round;stroke-linejoin:miter;marker:none;marker-start:none;marker-mid:none;marker-end:none;stroke-miterlimit:4;stroke-dashoffset:0;stroke-opacity:1;visibility:visible;display:inline;overflow:visible;enable-background:accumulate" id="rect9201" d="M 307.93696,185.5 L 318.97465,185.5 C 319.48316,185.5 320.33449,185.90938 320.55546,186.41789 L 322.5,191.53103 L 322.5,195.58211 C 322.5,196.09062 322.09062,196.5 321.58211,196.5 L 305.41789,196.5 C 304.90938,196.5 304.5,196.09062 304.5,195.58211 L 304.5,191.35425 L 306.48874,186.41789 C 306.66551,185.90938 307.42845,185.5 307.93696,185.5 z"/><rect style="opacity:1;fill:#babdb6;fill-opacity:1;fill-rule:evenodd;stroke:none;stroke-width:1;stroke-linecap:round;stroke-linejoin:miter;marker:none;marker-start:none;marker-mid:none;marker-end:none;stroke-miterlimit:4;stroke-dasharray:none;stroke-dashoffset:0;stroke-opacity:1;visibility:visible;display:inline;overflow:visible;enable-background:accumulate" id="rect9205" width="17" height="3" x="305" y="193" rx="0" ry="0"/><path style="opacity:.5;fill:none;fill-opacity:1;fill-rule:evenodd;stroke:#fff;stroke-width:1;stroke-linecap:round;stroke-linejoin:miter;marker:none;marker-start:none;marker-mid:none;marker-end:none;stroke-miterlimit:4;stroke-dashoffset:0;stroke-opacity:1;visibility:visible;display:inline;overflow:visible;enable-background:accumulate" id="path9977" d="M 319.42327,186.52821 L 321.45039,191.46702 L 321.45039,195.51596 L 305.54962,195.51596 L 305.54962,191.31155 L 307.57159,186.52821 L 319.42327,186.52821 z"/><rect style="opacity:.5;fill:#888a85;fill-opacity:1;fill-rule:evenodd;stroke:none;stroke-width:1;stroke-linecap:round;stroke-linejoin:miter;marker:none;marker-start:none;marker-mid:none;marker-end:none;stroke-miterlimit:4;stroke-dasharray:none;stroke-dashoffset:0;stroke-opacity:1;visibility:visible;display:inline;overflow:visible;enable-background:accumulate;filter:url(#filter10115)" id="rect10109" width="7.072" height="4.624" x="312.442" y="186.934" rx="1.193" ry="1.193"/><rect style="opacity:1;fill:url(#linearGradient10095);fill-opacity:1;fill-rule:evenodd;stroke:#888a85;stroke-width:1;stroke-linecap:round;stroke-linejoin:miter;marker:none;marker-start:none;marker-mid:none;marker-end:none;stroke-miterlimit:4;stroke-dasharray:none;stroke-dashoffset:0;stroke-opacity:1;visibility:visible;display:inline;overflow:visible;enable-background:accumulate;color:#000" id="rect9979" width="5" height="13" x="313.5" y="177.5" rx="1.625" ry="1.625"/><rect style="opacity:1;fill:url(#linearGradient10087);fill-opacity:1;fill-rule:evenodd;stroke:none;stroke-width:1;stroke-linecap:round;stroke-linejoin:miter;marker:none;marker-start:none;marker-mid:none;marker-end:none;stroke-miterlimit:4;stroke-dasharray:none;stroke-dashoffset:0;stroke-opacity:1;visibility:visible;display:inline;overflow:visible;enable-background:accumulate" id="rect10079" width="1" height="2" x="315" y="178"/><rect style="opacity:.5;fill:none;fill-opacity:1;fill-rule:evenodd;stroke:#fff;stroke-width:1;stroke-linecap:round;stroke-linejoin:miter;marker:none;marker-start:none;marker-mid:none;marker-end:none;stroke-miterlimit:4;stroke-dasharray:none;stroke-dashoffset:0;stroke-opacity:1;visibility:visible;display:inline;overflow:visible;enable-background:accumulate" id="rect10097" width="3" height="11" x="314.5" y="178.5" rx=".741" ry=".741"/><rect style="opacity:1;fill:url(#linearGradient9989);fill-opacity:1;fill-rule:evenodd;stroke:none;stroke-width:1;stroke-linecap:round;stroke-linejoin:miter;marker:none;marker-start:none;marker-mid:none;marker-end:none;stroke-miterlimit:4;stroke-dasharray:none;stroke-dashoffset:0;stroke-opacity:1;visibility:visible;display:inline;overflow:visible;enable-background:accumulate" id="rect9981" width="2" height="4" x="315" y="177" rx="0" ry="0"/><rect style="opacity:.5;fill:#888a85;fill-opacity:1;fill-rule:evenodd;stroke:none;stroke-width:1;stroke-linecap:round;stroke-linejoin:miter;marker:none;marker-start:none;marker-mid:none;marker-end:none;stroke-miterlimit:4;stroke-dasharray:none;stroke-dashoffset:0;stroke-opacity:1;visibility:visible;display:inline;overflow:visible;enable-background:accumulate" id="rect10103" width="2" height="1" x="315" y="181" rx="0" ry="0"/><path style="fill:#c00;fill-opacity:1;stroke:#a40000;stroke-width:2.1062355;stroke-linecap:butt;stroke-linejoin:bevel;stroke-miterlimit:4;stroke-dasharray:none;stroke-opacity:1;display:inline;enable-background:new" id="path10121" d="M 22.928571,26.464285 A 3.9642856,1.6785715 0 1 1 14.999999,26.464285 A 3.9642856,1.6785715 0 1 1 22.928571,26.464285 z" transform="matrix(0.3783787,0,0,0.595744,301.82432,172.73406)"/><path style="fill:none;fill-opacity:.75;fill-rule:evenodd;stroke:#fff;stroke-width:.9999997px;stroke-linecap:round;stroke-linejoin:miter;stroke-opacity:1;display:inline;enable-background:new" id="path10123" d="M 306.50924,192.5 L 320.49079,192.5"/><rect style="opacity:.5;fill:#888a85;fill-opacity:1;fill-rule:evenodd;stroke:none;stroke-width:1;stroke-linecap:round;stroke-linejoin:miter;marker:none;marker-start:none;marker-mid:none;marker-end:none;stroke-miterlimit:4;stroke-dasharray:none;stroke-dashoffset:0;stroke-opacity:1;visibility:visible;display:inline;overflow:visible;enable-background:accumulate" id="rect11784" width="2" height="1" x="313" y="222" rx="0" ry="0"/><path style="fill:none;fill-opacity:.75;fill-rule:evenodd;stroke:url(#linearGradient11816);stroke-width:1.00000011999999994px;stroke-linecap:round;stroke-linejoin:round;stroke-opacity:1;display:inline;enable-background:new" id="path11814" d="M 309.5,225.10938 C 309.37742,221.31984 307.09191,222.53869 305.49126,221.49333 C 304.10777,220.58979 304.57838,217.87021 304.57838,217.87021"/><rect style="opacity:1;fill:#eeeeec;fill-opacity:1;fill-rule:evenodd;stroke:#888a85;stroke-width:.99999994;stroke-linecap:round;stroke-linejoin:miter;marker:none;marker-start:none;marker-mid:none;marker-end:none;stroke-miterlimit:4;stroke-dasharray:none;stroke-dashoffset:0;stroke-opacity:1;visibility:visible;display:inline;overflow:visible;enable-background:accumulate" id="rect11798" width="14" height="9" x="304.5" y="225.5" rx="1.063" ry="1.063"/><rect style="opacity:1;fill:#babdb6;fill-opacity:1;fill-rule:evenodd;stroke:none;stroke-width:1;stroke-linecap:round;stroke-linejoin:miter;marker:none;marker-start:none;marker-mid:none;marker-end:none;stroke-miterlimit:4;stroke-dasharray:none;stroke-dashoffset:0;stroke-opacity:1;visibility:visible;display:inline;overflow:visible;enable-background:accumulate" id="rect11800" width="13" height="2" x="305" y="232" rx="0" ry="0"/><path style="fill:#c00;fill-opacity:1;stroke:#a40000;stroke-width:2.57960248;stroke-linecap:butt;stroke-linejoin:bevel;stroke-miterlimit:4;stroke-dasharray:none;stroke-opacity:1;display:inline;enable-background:new" id="path11802" d="M 22.928571,26.464285 A 3.9642856,1.6785715 0 1 1 14.999999,26.464285 A 3.9642856,1.6785715 0 1 1 22.928571,26.464285 z" transform="matrix(0.2522522,0,0,0.595744,303.71622,212.73406)"/><rect style="opacity:.5;fill:none;fill-opacity:1;fill-rule:evenodd;stroke:#fff;stroke-width:.99999994000000003;stroke-linecap:round;stroke-linejoin:miter;marker:none;marker-start:none;marker-mid:none;marker-end:none;stroke-miterlimit:4;stroke-dasharray:none;stroke-dashoffset:0;stroke-opacity:1;visibility:visible;display:inline;overflow:visible;enable-background:accumulate" id="rect11818" width="12.063" height="7.063" x="305.438" y="226.5" rx="0" ry="0"/><rect style="opacity:1;fill:url(#linearGradient11806);fill-opacity:1;fill-rule:evenodd;stroke:#888a85;stroke-width:1;stroke-linecap:round;stroke-linejoin:miter;marker:none;marker-start:none;marker-mid:none;marker-end:none;stroke-miterlimit:4;stroke-dasharray:none;stroke-dashoffset:0;stroke-opacity:1;visibility:visible;display:inline;overflow:visible;enable-background:accumulate" id="rect11804" width="5" height="10" x="311.5" y="219.5" rx="1.375" ry="1.375"/><rect style="opacity:.5;fill:none;fill-opacity:1;fill-rule:evenodd;stroke:#fff;stroke-width:.99999994;stroke-linecap:round;stroke-linejoin:miter;marker:none;marker-start:none;marker-mid:none;marker-end:none;stroke-miterlimit:4;stroke-dasharray:none;stroke-dashoffset:0;stroke-opacity:1;visibility:visible;display:inline;overflow:visible;enable-background:accumulate" id="rect11812" width="3" height="8" x="312.5" y="220.5" rx=".741" ry=".741"/><rect style="opacity:1;fill:url(#linearGradient11810);fill-opacity:1;fill-rule:evenodd;stroke:none;stroke-width:1;stroke-linecap:round;stroke-linejoin:miter;marker:none;marker-start:none;marker-mid:none;marker-end:none;stroke-miterlimit:4;stroke-dasharray:none;stroke-dashoffset:0;stroke-opacity:1;visibility:visible;display:inline;overflow:visible;enable-background:accumulate" id="rect11808" width="2" height="3" x="313" y="219" rx="0" ry="0"/><rect style="opacity:.5;fill:#fff;fill-opacity:1;fill-rule:evenodd;stroke:none;stroke-width:1;stroke-linecap:round;stroke-linejoin:miter;marker:none;marker-start:none;marker-mid:none;marker-end:none;stroke-miterlimit:4;stroke-dasharray:none;stroke-dashoffset:0;stroke-opacity:1;visibility:visible;display:inline;overflow:visible;enable-background:accumulate" id="rect11820" width="1" height="1" x="313" y="220" rx="0" ry="0"/></g></svg>