<svg xmlns="http://www.w3.org/2000/svg" xmlns:svg="http://www.w3.org/2000/svg" xmlns:xlink="http://www.w3.org/1999/xlink" id="svg11300" width="400" height="300" version="1.0" style="display:inline;enable-background:new"><title id="title3071">New Bookmark</title><metadata id="metadata154"/><defs id="defs3"><linearGradient id="linearGradient4485"><stop style="stop-color:#000;stop-opacity:1" id="stop4487" offset="0"/><stop style="stop-color:#000;stop-opacity:0" id="stop4489" offset="1"/></linearGradient><linearGradient id="linearGradient4477"><stop style="stop-color:#000;stop-opacity:1" id="stop4479" offset="0"/><stop style="stop-color:#000;stop-opacity:0" id="stop4481" offset="1"/></linearGradient><linearGradient id="linearGradient4240"><stop style="stop-color:#000;stop-opacity:1" id="stop4242" offset="0"/><stop style="stop-color:#000;stop-opacity:0" id="stop4244" offset="1"/></linearGradient><linearGradient id="linearGradient4061"><stop style="stop-color:#fff;stop-opacity:1" id="stop4063" offset="0"/><stop style="stop-color:#fff;stop-opacity:0" id="stop4065" offset="1"/></linearGradient><linearGradient id="linearGradient3715"><stop style="stop-color:#f57900;stop-opacity:1" id="stop3717" offset="0"/><stop id="stop3723" offset=".732" style="stop-color:#fedfb2;stop-opacity:1"/><stop style="stop-color:#fcaf3e;stop-opacity:1" id="stop3719" offset="1"/></linearGradient><linearGradient id="linearGradient3705"><stop style="stop-color:#fcaf3e;stop-opacity:1" id="stop3707" offset="0"/><stop style="stop-color:#ce5c00;stop-opacity:1" id="stop3709" offset="1"/></linearGradient><linearGradient id="linearGradient3697"><stop style="stop-color:#fff;stop-opacity:1" id="stop3699" offset="0"/><stop style="stop-color:#fff;stop-opacity:0" id="stop3701" offset="1"/></linearGradient><filter id="filter3871-0" width="1.106" height="2.917" x="-.053" y="-.958"><feGaussianBlur id="feGaussianBlur3873-5" stdDeviation=".799"/></filter><filter id="filter3913-4" width="1.185" height="4.329" x="-.092" y="-1.665"><feGaussianBlur id="feGaussianBlur3915-1" stdDeviation="1.387"/></filter><linearGradient id="linearGradient12-paper-sheet-orig-2"><stop id="stop17-paper-sheet-orig-1" offset="0" style="stop-color:#fff;stop-opacity:1"/><stop id="stop18-paper-sheet-orig-0" offset="1" style="stop-color:#fff;stop-opacity:0"/></linearGradient><linearGradient id="linearGradient4-paper-sheet-orig-7"><stop id="stop8-paper-sheet-orig-2" offset="0" style="stop-color:#fff;stop-opacity:1"/><stop id="stop9-paper-sheet-orig-2" offset="1" style="stop-color:#fff;stop-opacity:0"/></linearGradient><linearGradient id="linearGradient10-paper-sheet-orig-3"><stop style="stop-color:#555753;stop-opacity:1" id="stop15-paper-sheet-orig-7" offset="0"/><stop style="stop-color:#babdb6;stop-opacity:1" id="stop16-paper-sheet-orig-8" offset="1"/></linearGradient><linearGradient id="linearGradient3-paper-sheet-orig-08"><stop style="stop-color:#fff;stop-opacity:1" id="stop6-paper-sheet-orig-1" offset="0"/><stop style="stop-color:#d3d7cf;stop-opacity:1" id="stop7-paper-sheet-orig-2" offset="1"/></linearGradient><radialGradient id="radialGradient3089" cx="-30.25" cy="35.357" r="18" fx="-30.25" fy="35.357" gradientTransform="matrix(2.62697,0,0,1.27316,402.248,105.684)" gradientUnits="userSpaceOnUse" xlink:href="#linearGradient3-paper-sheet-orig-08"/><linearGradient id="linearGradient3091" x1="-42.66" x2="-54.261" y1="62.992" y2="1.142" gradientTransform="matrix(0.657442,0,0,0.65795,342.67,126.191)" gradientUnits="userSpaceOnUse" xlink:href="#linearGradient10-paper-sheet-orig-3"/><radialGradient id="radialGradient3093" cx="4" cy="5.3" r="17" fx="4" fy="5.3" gradientTransform="matrix(2.10351,0,0,1.31213,-4.41403,-4.9543)" gradientUnits="userSpaceOnUse" xlink:href="#linearGradient4-paper-sheet-orig-7"/><linearGradient id="linearGradient3095" x1="-26.754" x2="-25" y1="11.566" y2="9.813" gradientUnits="userSpaceOnUse" xlink:href="#linearGradient12-paper-sheet-orig-2"/><radialGradient id="radialGradient3115" cx="-30.25" cy="35.357" r="18" fx="-30.25" fy="35.357" gradientTransform="matrix(2.62697,0,0,1.27316,402.248,105.684)" gradientUnits="userSpaceOnUse" xlink:href="#linearGradient3-paper-sheet-orig-08"/><linearGradient id="linearGradient3117" x1="-42.66" x2="-54.261" y1="62.992" y2="1.142" gradientTransform="matrix(0.657442,0,0,0.65795,342.67,126.191)" gradientUnits="userSpaceOnUse" xlink:href="#linearGradient10-paper-sheet-orig-3"/><radialGradient id="radialGradient3119" cx="4" cy="5.3" r="17" fx="4" fy="5.3" gradientTransform="matrix(2.10351,0,0,1.31213,-4.41403,-4.9543)" gradientUnits="userSpaceOnUse" xlink:href="#linearGradient4-paper-sheet-orig-7"/><linearGradient id="linearGradient3121" x1="-26.754" x2="-25" y1="11.566" y2="9.813" gradientUnits="userSpaceOnUse" xlink:href="#linearGradient12-paper-sheet-orig-2"/><radialGradient id="radialGradient3141" cx="-30.25" cy="35.357" r="18" fx="-30.25" fy="35.357" gradientTransform="matrix(2.62697,0,0,1.27316,402.248,105.684)" gradientUnits="userSpaceOnUse" xlink:href="#linearGradient3-paper-sheet-orig-08"/><linearGradient id="linearGradient3143" x1="-42.66" x2="-54.261" y1="62.992" y2="1.142" gradientTransform="matrix(0.657442,0,0,0.65795,342.67,126.191)" gradientUnits="userSpaceOnUse" xlink:href="#linearGradient10-paper-sheet-orig-3"/><radialGradient id="radialGradient3145" cx="4" cy="5.3" r="17" fx="4" fy="5.3" gradientTransform="matrix(2.10351,0,0,1.31213,-4.41403,-4.9543)" gradientUnits="userSpaceOnUse" xlink:href="#linearGradient4-paper-sheet-orig-7"/><linearGradient id="linearGradient3147" x1="-26.754" x2="-25" y1="11.566" y2="9.813" gradientUnits="userSpaceOnUse" xlink:href="#linearGradient12-paper-sheet-orig-2"/><radialGradient id="radialGradient3167" cx="-30.25" cy="35.357" r="18" fx="-30.25" fy="35.357" gradientTransform="matrix(2.62697,0,0,1.27316,402.248,105.684)" gradientUnits="userSpaceOnUse" xlink:href="#linearGradient3-paper-sheet-orig-08"/><linearGradient id="linearGradient3169" x1="-42.66" x2="-54.261" y1="62.992" y2="1.142" gradientTransform="matrix(0.657442,0,0,0.65795,342.67,126.191)" gradientUnits="userSpaceOnUse" xlink:href="#linearGradient10-paper-sheet-orig-3"/><radialGradient id="radialGradient3171" cx="4" cy="5.3" r="17" fx="4" fy="5.3" gradientTransform="matrix(2.10351,0,0,1.31213,-4.41403,-4.9543)" gradientUnits="userSpaceOnUse" xlink:href="#linearGradient4-paper-sheet-orig-7"/><linearGradient id="linearGradient3173" x1="-26.754" x2="-25" y1="11.566" y2="9.813" gradientUnits="userSpaceOnUse" xlink:href="#linearGradient12-paper-sheet-orig-2"/><radialGradient id="radialGradient3703" cx="310.5" cy="226.071" r="3.531" fx="310.5" fy="226.071" gradientTransform="matrix(7.0324468,1.7270927,-0.69862075,2.8446726,-1715.137,-953.98462)" gradientUnits="userSpaceOnUse" xlink:href="#linearGradient3697"/><linearGradient id="linearGradient3713" x1="310.5" x2="310.5" y1="218.418" y2="224.44" gradientUnits="userSpaceOnUse" xlink:href="#linearGradient3705"/><linearGradient id="linearGradient3721" x1="310.5" x2="310.5" y1="230.802" y2="220.213" gradientUnits="userSpaceOnUse" xlink:href="#linearGradient3715"/><radialGradient id="radialGradient6563" cx="311.469" cy="828.531" r="3.281" fx="311.469" fy="828.531" gradientUnits="userSpaceOnUse" xlink:href="#linearGradient6557"/><linearGradient id="linearGradient6557"><stop style="stop-color:#fce94f;stop-opacity:1" id="stop6559" offset="0"/><stop id="stop6565" offset=".673" style="stop-color:#fce94f;stop-opacity:1"/><stop style="stop-color:#fce94f;stop-opacity:0" id="stop6561" offset="1"/></linearGradient><radialGradient id="radialGradient6618" cx="310.555" cy="818.491" r="5.219" fx="310.555" fy="818.491" gradientTransform="matrix(1.4568049,-1.0676476,1.020526,1.3927904,-978.41153,10.883447)" gradientUnits="userSpaceOnUse" xlink:href="#linearGradient6620"/><linearGradient id="linearGradient6620"><stop id="stop6622" offset="0" style="stop-color:#fff;stop-opacity:1"/><stop style="stop-color:#fff;stop-opacity:1" id="stop6624" offset=".33"/><stop id="stop6626" offset="1" style="stop-color:#fce94f;stop-opacity:1"/></linearGradient><radialGradient id="radialGradient6634" cx="309.365" cy="816.907" r="5.219" fx="309.365" fy="816.907" gradientTransform="matrix(2.3368166,-1.7125851,1.5904448,2.1724707,-1714.5967,-426.00779)" gradientUnits="userSpaceOnUse" xlink:href="#linearGradient6628"/><linearGradient id="linearGradient6628"><stop style="stop-color:#edd400;stop-opacity:1" id="stop6630" offset="0"/><stop style="stop-color:#c4a000;stop-opacity:1" id="stop6632" offset="1"/></linearGradient><radialGradient id="radialGradient6563-9" cx="311.469" cy="828.531" r="3.281" fx="311.469" fy="828.531" gradientUnits="userSpaceOnUse" xlink:href="#linearGradient6557-8"/><linearGradient id="linearGradient6557-8"><stop style="stop-color:#fce94f;stop-opacity:1" id="stop6559-1" offset="0"/><stop id="stop6565-6" offset=".673" style="stop-color:#fce94f;stop-opacity:1"/><stop style="stop-color:#fce94f;stop-opacity:0" id="stop6561-9" offset="1"/></linearGradient><radialGradient id="radialGradient6618-0" cx="310.555" cy="818.491" r="5.219" fx="310.555" fy="818.491" gradientTransform="matrix(1.4568049,-1.0676476,1.020526,1.3927904,-978.41153,10.883447)" gradientUnits="userSpaceOnUse" xlink:href="#linearGradient6620-4"/><linearGradient id="linearGradient6620-4"><stop id="stop6622-7" offset="0" style="stop-color:#fff;stop-opacity:1"/><stop style="stop-color:#fff;stop-opacity:1" id="stop6624-7" offset=".33"/><stop id="stop6626-4" offset="1" style="stop-color:#fce94f;stop-opacity:1"/></linearGradient><radialGradient id="radialGradient6634-3" cx="309.365" cy="816.907" r="5.219" fx="309.365" fy="816.907" gradientTransform="matrix(2.3368166,-1.7125851,1.5904448,2.1724707,-1714.5967,-426.00779)" gradientUnits="userSpaceOnUse" xlink:href="#linearGradient6628-0"/><linearGradient id="linearGradient6628-0"><stop style="stop-color:#edd400;stop-opacity:1" id="stop6630-4" offset="0"/><stop style="stop-color:#c4a000;stop-opacity:1" id="stop6632-2" offset="1"/></linearGradient><linearGradient id="linearGradient3715-2"><stop style="stop-color:#f57900;stop-opacity:1" id="stop3717-0" offset="0"/><stop id="stop3723-4" offset=".732" style="stop-color:#fedfb2;stop-opacity:1"/><stop style="stop-color:#fcaf3e;stop-opacity:1" id="stop3719-2" offset="1"/></linearGradient><linearGradient id="linearGradient3705-3"><stop style="stop-color:#fcaf3e;stop-opacity:1" id="stop3707-0" offset="0"/><stop style="stop-color:#ce5c00;stop-opacity:1" id="stop3709-4" offset="1"/></linearGradient><linearGradient id="linearGradient3910" x1="310.5" x2="310.5" y1="230.802" y2="219.1" gradientTransform="matrix(1,0,0,1.25,3,-96.875005)" gradientUnits="userSpaceOnUse" xlink:href="#linearGradient3715-2"/><linearGradient id="linearGradient3912" x1="310.5" x2="310.5" y1="218.018" y2="224.44" gradientTransform="matrix(1,0,0,1.25,3,-96.875005)" gradientUnits="userSpaceOnUse" xlink:href="#linearGradient3705-3"/><radialGradient id="radialGradient4067" cx="313.323" cy="185.989" r="3.531" fx="313.323" fy="185.989" gradientTransform="matrix(15.59168,2.882641e-7,-6.2667399e-8,3.3895654,-4573.7956,-445.67149)" gradientUnits="userSpaceOnUse" xlink:href="#linearGradient4061"/><radialGradient id="radialGradient5833" cx="311.469" cy="828.531" r="3.281" fx="311.469" fy="828.531" gradientUnits="userSpaceOnUse" xlink:href="#linearGradient6557-0"/><linearGradient id="linearGradient6557-0"><stop style="stop-color:#fce94f;stop-opacity:1" id="stop6559-6" offset="0"/><stop id="stop6565-7" offset=".673" style="stop-color:#fce94f;stop-opacity:1"/><stop style="stop-color:#fce94f;stop-opacity:0" id="stop6561-95" offset="1"/></linearGradient><linearGradient id="linearGradient6620-6"><stop id="stop6622-5" offset="0" style="stop-color:#fff;stop-opacity:1"/><stop style="stop-color:#fff;stop-opacity:1" id="stop6624-9" offset=".33"/><stop id="stop6626-1" offset="1" style="stop-color:#fce94f;stop-opacity:1"/></linearGradient><linearGradient id="linearGradient6633"><stop id="stop6635" offset="0" style="stop-color:#edd400;stop-opacity:1"/><stop id="stop6637" offset="1" style="stop-color:#c4a000;stop-opacity:1"/></linearGradient><radialGradient id="radialGradient7628" cx="316.086" cy="785.157" r="5.5" fx="316.086" fy="785.157" gradientTransform="matrix(2.2045703,0,0,1.7886049,-381.74752,-619.00808)" gradientUnits="userSpaceOnUse" xlink:href="#linearGradient6620-6"/><radialGradient id="radialGradient7630" cx="309.365" cy="816.907" r="5.219" fx="309.365" fy="816.907" gradientTransform="matrix(4.6360798,-0.00278316,0,3.8683345,-1120.2848,-2374.9385)" gradientUnits="userSpaceOnUse" xlink:href="#linearGradient6633"/><linearGradient id="linearGradient3715-2-3"><stop style="stop-color:#f57900;stop-opacity:1" id="stop3717-0-2" offset="0"/><stop id="stop3723-4-3" offset=".732" style="stop-color:#fedfb2;stop-opacity:1"/><stop style="stop-color:#fcaf3e;stop-opacity:1" id="stop3719-2-6" offset="1"/></linearGradient><linearGradient id="linearGradient3705-3-8"><stop style="stop-color:#fcaf3e;stop-opacity:1" id="stop3707-0-1" offset="0"/><stop style="stop-color:#ce5c00;stop-opacity:1" id="stop3709-4-4" offset="1"/></linearGradient><linearGradient id="linearGradient4136" x1="310.5" x2="310.5" y1="230.802" y2="219.1" gradientTransform="matrix(1.2499991,0,0,2.7500001,-69.624705,-553.12505)" gradientUnits="userSpaceOnUse" xlink:href="#linearGradient3715-2-3"/><linearGradient id="linearGradient4138" x1="310.5" x2="310.5" y1="218.018" y2="224.44" gradientTransform="matrix(1.2499991,0,0,2.7500001,-69.624705,-553.12505)" gradientUnits="userSpaceOnUse" xlink:href="#linearGradient3705-3-8"/><filter id="filter4236" width="1.494" height="1.112" x="-.247" y="-.056"><feGaussianBlur id="feGaussianBlur4238" stdDeviation="1.03"/></filter><linearGradient id="linearGradient4246" x1="322.664" x2="322.664" y1="55.722" y2="50.467" gradientTransform="translate(1.625,0)" gradientUnits="userSpaceOnUse" xlink:href="#linearGradient4240"/><radialGradient id="radialGradient6804" cx="38.659" cy="9.341" r="8.342" fx="38.659" fy="9.341" gradientUnits="userSpaceOnUse" xlink:href="#linearGradient2378"/><linearGradient id="linearGradient2378"><stop id="stop2380" offset="0" style="stop-color:#fff;stop-opacity:1"/><stop style="stop-color:#fefede;stop-opacity:.91836733" id="stop4146" offset=".25"/><stop style="stop-color:#f5f328;stop-opacity:1" id="stop2386" offset=".5"/><stop id="stop2382" offset="1" style="stop-color:#f5f32d;stop-opacity:0"/></linearGradient><radialGradient id="radialGradient4336" cx="38.659" cy="9.341" r="8.342" fx="38.659" fy="9.341" gradientUnits="userSpaceOnUse" xlink:href="#linearGradient2378"/><linearGradient id="linearGradient3715-2-3-2"><stop style="stop-color:#f57900;stop-opacity:1" id="stop3717-0-2-8" offset="0"/><stop id="stop3723-4-3-5" offset=".732" style="stop-color:#fedfb2;stop-opacity:1"/><stop style="stop-color:#fcaf3e;stop-opacity:1" id="stop3719-2-6-0" offset="1"/></linearGradient><linearGradient id="linearGradient3705-3-8-8"><stop style="stop-color:#fcaf3e;stop-opacity:1" id="stop3707-0-1-6" offset="0"/><stop style="stop-color:#ce5c00;stop-opacity:1" id="stop3709-4-4-4" offset="1"/></linearGradient><linearGradient id="linearGradient4360" x1="310.5" x2="310.5" y1="230.802" y2="219.1" gradientTransform="matrix(0.99999982,0,0,1.8125001,8.0000644,-271.34378)" gradientUnits="userSpaceOnUse" xlink:href="#linearGradient3715-2-3-2"/><linearGradient id="linearGradient4362" x1="310.5" x2="310.5" y1="218.018" y2="224.44" gradientTransform="matrix(0.99999982,0,0,1.8125001,8.0000644,-271.34378)" gradientUnits="userSpaceOnUse" xlink:href="#linearGradient3705-3-8-8"/><radialGradient id="radialGradient6812" cx="38.659" cy="9.341" r="8.342" fx="38.659" fy="9.341" gradientUnits="userSpaceOnUse" xlink:href="#linearGradient2378-4"/><linearGradient id="linearGradient2378-4"><stop id="stop2380-7" offset="0" style="stop-color:#fff;stop-opacity:1"/><stop style="stop-color:#fefede;stop-opacity:.91836733" id="stop4146-9" offset=".25"/><stop style="stop-color:#f5f328;stop-opacity:1" id="stop2386-0" offset=".5"/><stop id="stop2382-5" offset="1" style="stop-color:#f5f32d;stop-opacity:0"/></linearGradient><linearGradient id="linearGradient4483" x1="322.667" x2="322.667" y1="131.878" y2="129.006" gradientUnits="userSpaceOnUse" xlink:href="#linearGradient4477"/><linearGradient id="linearGradient4491" x1="319.95" x2="319.95" y1="146.508" y2="135.105" gradientUnits="userSpaceOnUse" xlink:href="#linearGradient4485"/><linearGradient id="linearGradient3715-2-3-2-4"><stop style="stop-color:#f57900;stop-opacity:1" id="stop3717-0-2-8-1" offset="0"/><stop id="stop3723-4-3-5-8" offset=".732" style="stop-color:#fedfb2;stop-opacity:1"/><stop style="stop-color:#fcaf3e;stop-opacity:1" id="stop3719-2-6-0-2" offset="1"/></linearGradient><linearGradient id="linearGradient3705-3-8-8-2"><stop style="stop-color:#fcaf3e;stop-opacity:1" id="stop3707-0-1-6-8" offset="0"/><stop style="stop-color:#ce5c00;stop-opacity:1" id="stop3709-4-4-4-6" offset="1"/></linearGradient><linearGradient id="linearGradient4515" x1="310.5" x2="310.5" y1="230.802" y2="219.1" gradientTransform="matrix(0.99999982,0,0,1.8125001,8.00006,-271.34378)" gradientUnits="userSpaceOnUse" xlink:href="#linearGradient3715-2-3-2-4"/><linearGradient id="linearGradient4517" x1="310.5" x2="310.5" y1="218.018" y2="224.44" gradientTransform="matrix(0.99999982,0,0,1.8125001,8.00006,-271.34378)" gradientUnits="userSpaceOnUse" xlink:href="#linearGradient3705-3-8-8-2"/></defs><g id="layer6" style="display:none"><rect id="rect6284" width="48" height="48" x="296" y="50" style="fill:#eeeeec;fill-opacity:1;fill-rule:nonzero;stroke:none;stroke-width:2;marker:none;visibility:visible;display:inline;overflow:visible;enable-background:accumulate"/><rect id="rect6592" width="32" height="32" x="303" y="126" style="fill:#eeeeec;fill-opacity:1;fill-rule:nonzero;stroke:none;stroke-width:2;marker:none;visibility:visible;display:inline;overflow:visible;enable-background:accumulate"/><rect id="rect8358" width="24" height="24" x="302" y="176" style="fill:#fff;fill-opacity:1;fill-rule:nonzero;stroke:none;visibility:visible;display:inline"/><rect id="rect6749" width="22" height="22" x="303" y="177" style="fill:#eeeeec;fill-opacity:1;fill-rule:nonzero;stroke:none;stroke-width:2;marker:none;visibility:visible;display:inline;overflow:visible;enable-background:accumulate"/><rect id="rect6833" width="16" height="16" x="303" y="219" style="fill:#eeeeec;fill-opacity:1;fill-rule:nonzero;stroke:none;stroke-width:2;marker:none;visibility:visible;display:inline;overflow:visible;enable-background:accumulate"/><text id="context" x="20.971" y="21.514" xml:space="preserve" style="font-size:18.30070686px;font-style:normal;font-weight:400;fill:#000;fill-opacity:1;stroke:none;display:inline;enable-background:new;font-family:Bitstream Vera Sans"><tspan id="tspan2716" x="20.971" y="21.514">actions</tspan></text><text id="icon-name" x="191.971" y="21.514" xml:space="preserve" style="font-size:18.30070686px;font-style:normal;font-variant:normal;font-weight:700;font-stretch:normal;text-align:start;line-height:125%;writing-mode:lr-tb;text-anchor:start;fill:#000;fill-opacity:1;stroke:none;display:inline;enable-background:new;font-family:Droid Sans;-inkscape-font-specification:Droid Sans Bold"><tspan id="tspan3023" x="191.971" y="21.514">bookmark-new</tspan></text></g><g id="layer2" style="display:inline"><g style="display:inline" id="use19007" transform="translate(95.99994,523)"><g id="g3073" transform="translate(350.044,1.01491)"><g id="g3075" transform="matrix(0.675069,0,0,0.699557,147.391,88.6938)" style="display:inline"><rect style="opacity:.475;fill:#000;fill-opacity:1;stroke:none;display:inline;filter:url(#filter3913-4)" id="rect3077" width="36" height="2" x="306" y="91" rx="7.524" ry="2" transform="matrix(1.1189,0,0,1.17678,-38.2578,-16.0867)"/><rect style="opacity:.71499999;fill:#000;fill-opacity:1;stroke:none;filter:url(#filter3871-0)" id="rect3079" width="36" height="2" x="306" y="91" rx="6.392" ry="2" transform="matrix(1.01334,0,0,1,-4.05753,0)"/></g></g><g id="g3081" transform="translate(397.044,-0.985092)"><path style="fill:url(#radialGradient3089);fill-opacity:1;stroke:url(#linearGradient3091);stroke-width:1;stroke-miterlimit:4;display:inline" id="path3083" d="m 308.82705,128.49344 c 0,0 11.48954,0 12.47571,0 2.54893,0.048 4.27337,1.64488 5.91697,3.28975 1.64361,1.64487 3.02928,3.45596 3.28721,5.92155 0,0.98692 0,16.43305 0,16.43305 0,0.7377 -0.59343,1.33159 -1.33057,1.33159 l -20.34932,0 c -0.73713,0 -1.33057,-0.59389 -1.33057,-1.33159 l 0,-24.31275 c 0,-0.73771 0.59344,-1.3316 1.33057,-1.3316 z"/><path style="fill:url(#radialGradient3093);fill-opacity:1;stroke:none;display:inline" id="path3085" d="m 8.53125,4.28125 c -0.6964677,0 -1.25,0.5535322 -1.25,1.25 l 0,36.9375 c 0,0.696468 0.5535322,1.25 1.25,1.25 l 30.9375,0 c 0.696467,0 1.25,-0.553534 1.25,-1.25 l 0,-24.96875 c 0,-1.325561 -0.512526,-4.168776 -2.28125,-5.9375 l -5,-5 C 31.668776,4.7937758 28.825561,4.28125 27.5,4.28125 l -18.96875,0 z" transform="matrix(0.657442,0,0,0.65795,303.223,126.191)"/><path style="fill:none;stroke:url(#linearGradient3095);stroke-width:1.52046001;stroke-miterlimit:4;display:inline" id="path3087" d="m -51.46875,5.0625 c -0.271718,0 -0.46875,0.1970315 -0.46875,0.46875 l 0,36.9375 c 0,0.271717 0.197033,0.46875 0.46875,0.46875 l 30.9375,0 c 0.271717,0 0.46875,-0.197033 0.46875,-0.46875 l 0,-24.96875 c 0,-1.151122 -0.525052,-3.837552 -2.0625,-5.375 l -5,-5 C -28.662448,5.5875517 -31.348878,5.0625 -32.5,5.0625 l -18.96875,0 z" transform="matrix(0.657442,0,0,0.65795,342.67,126.191)"/></g></g><g style="display:inline" id="use19013" transform="translate(133.99994,523)"><g id="g3099" transform="translate(350.044,1.01491)"><g id="g3101" transform="matrix(0.675069,0,0,0.699557,147.391,88.6938)" style="display:inline"><rect style="opacity:.475;fill:#000;fill-opacity:1;stroke:none;display:inline;filter:url(#filter3913-4)" id="rect3103" width="36" height="2" x="306" y="91" rx="7.524" ry="2" transform="matrix(1.1189,0,0,1.17678,-38.2578,-16.0867)"/><rect style="opacity:.71499999;fill:#000;fill-opacity:1;stroke:none;filter:url(#filter3871-0)" id="rect3105" width="36" height="2" x="306" y="91" rx="6.392" ry="2" transform="matrix(1.01334,0,0,1,-4.05753,0)"/></g></g><g id="g3107" transform="translate(397.044,-0.985092)"><path style="fill:url(#radialGradient3115);fill-opacity:1;stroke:url(#linearGradient3117);stroke-width:1;stroke-miterlimit:4;display:inline" id="path3109" d="m 308.82705,128.49344 c 0,0 11.48954,0 12.47571,0 2.54893,0.048 4.27337,1.64488 5.91697,3.28975 1.64361,1.64487 3.02928,3.45596 3.28721,5.92155 0,0.98692 0,16.43305 0,16.43305 0,0.7377 -0.59343,1.33159 -1.33057,1.33159 l -20.34932,0 c -0.73713,0 -1.33057,-0.59389 -1.33057,-1.33159 l 0,-24.31275 c 0,-0.73771 0.59344,-1.3316 1.33057,-1.3316 z"/><path style="fill:url(#radialGradient3119);fill-opacity:1;stroke:none;display:inline" id="path3111" d="m 8.53125,4.28125 c -0.6964677,0 -1.25,0.5535322 -1.25,1.25 l 0,36.9375 c 0,0.696468 0.5535322,1.25 1.25,1.25 l 30.9375,0 c 0.696467,0 1.25,-0.553534 1.25,-1.25 l 0,-24.96875 c 0,-1.325561 -0.512526,-4.168776 -2.28125,-5.9375 l -5,-5 C 31.668776,4.7937758 28.825561,4.28125 27.5,4.28125 l -18.96875,0 z" transform="matrix(0.657442,0,0,0.65795,303.223,126.191)"/><path style="fill:none;stroke:url(#linearGradient3121);stroke-width:1.52046001;stroke-miterlimit:4;display:inline" id="path3113" d="m -51.46875,5.0625 c -0.271718,0 -0.46875,0.1970315 -0.46875,0.46875 l 0,36.9375 c 0,0.271717 0.197033,0.46875 0.46875,0.46875 l 30.9375,0 c 0.271717,0 0.46875,-0.197033 0.46875,-0.46875 l 0,-24.96875 c 0,-1.151122 -0.525052,-3.837552 -2.0625,-5.375 l -5,-5 C -28.662448,5.5875517 -31.348878,5.0625 -32.5,5.0625 l -18.96875,0 z" transform="matrix(0.657442,0,0,0.65795,342.67,126.191)"/></g></g><g style="display:inline" id="use19019" transform="translate(133.99994,523)"><g id="g3125" transform="translate(350.044,1.01491)"><g id="g3127" transform="matrix(0.675069,0,0,0.699557,147.391,88.6938)" style="display:inline"><rect style="opacity:.475;fill:#000;fill-opacity:1;stroke:none;display:inline;filter:url(#filter3913-4)" id="rect3129" width="36" height="2" x="306" y="91" rx="7.524" ry="2" transform="matrix(1.1189,0,0,1.17678,-38.2578,-16.0867)"/><rect style="opacity:.71499999;fill:#000;fill-opacity:1;stroke:none;filter:url(#filter3871-0)" id="rect3131" width="36" height="2" x="306" y="91" rx="6.392" ry="2" transform="matrix(1.01334,0,0,1,-4.05753,0)"/></g></g><g id="g3133" transform="translate(397.044,-0.985092)"><path style="fill:url(#radialGradient3141);fill-opacity:1;stroke:url(#linearGradient3143);stroke-width:1;stroke-miterlimit:4;display:inline" id="path3135" d="m 308.82705,128.49344 c 0,0 11.48954,0 12.47571,0 2.54893,0.048 4.27337,1.64488 5.91697,3.28975 1.64361,1.64487 3.02928,3.45596 3.28721,5.92155 0,0.98692 0,16.43305 0,16.43305 0,0.7377 -0.59343,1.33159 -1.33057,1.33159 l -20.34932,0 c -0.73713,0 -1.33057,-0.59389 -1.33057,-1.33159 l 0,-24.31275 c 0,-0.73771 0.59344,-1.3316 1.33057,-1.3316 z"/><path style="fill:url(#radialGradient3145);fill-opacity:1;stroke:none;display:inline" id="path3137" d="m 8.53125,4.28125 c -0.6964677,0 -1.25,0.5535322 -1.25,1.25 l 0,36.9375 c 0,0.696468 0.5535322,1.25 1.25,1.25 l 30.9375,0 c 0.696467,0 1.25,-0.553534 1.25,-1.25 l 0,-24.96875 c 0,-1.325561 -0.512526,-4.168776 -2.28125,-5.9375 l -5,-5 C 31.668776,4.7937758 28.825561,4.28125 27.5,4.28125 l -18.96875,0 z" transform="matrix(0.657442,0,0,0.65795,303.223,126.191)"/><path style="fill:none;stroke:url(#linearGradient3147);stroke-width:1.52046001;stroke-miterlimit:4;display:inline" id="path3139" d="m -51.46875,5.0625 c -0.271718,0 -0.46875,0.1970315 -0.46875,0.46875 l 0,36.9375 c 0,0.271717 0.197033,0.46875 0.46875,0.46875 l 30.9375,0 c 0.271717,0 0.46875,-0.197033 0.46875,-0.46875 l 0,-24.96875 c 0,-1.151122 -0.525052,-3.837552 -2.0625,-5.375 l -5,-5 C -28.662448,5.5875517 -31.348878,5.0625 -32.5,5.0625 l -18.96875,0 z" transform="matrix(0.657442,0,0,0.65795,342.67,126.191)"/></g></g><g style="display:inline" id="use19025" transform="translate(133.99994,523)"><g id="g3151" transform="translate(350.044,1.01491)"><g id="g3153" transform="matrix(0.675069,0,0,0.699557,147.391,88.6938)" style="display:inline"><rect style="opacity:.475;fill:#000;fill-opacity:1;stroke:none;display:inline;filter:url(#filter3913-4)" id="rect3155" width="36" height="2" x="306" y="91" rx="7.524" ry="2" transform="matrix(1.1189,0,0,1.17678,-38.2578,-16.0867)"/><rect style="opacity:.71499999;fill:#000;fill-opacity:1;stroke:none;filter:url(#filter3871-0)" id="rect3157" width="36" height="2" x="306" y="91" rx="6.392" ry="2" transform="matrix(1.01334,0,0,1,-4.05753,0)"/></g></g><g id="g3159" transform="translate(397.044,-0.985092)"><path style="fill:url(#radialGradient3167);fill-opacity:1;stroke:url(#linearGradient3169);stroke-width:1;stroke-miterlimit:4;display:inline" id="path3161" d="m 308.82705,128.49344 c 0,0 11.48954,0 12.47571,0 2.54893,0.048 4.27337,1.64488 5.91697,3.28975 1.64361,1.64487 3.02928,3.45596 3.28721,5.92155 0,0.98692 0,16.43305 0,16.43305 0,0.7377 -0.59343,1.33159 -1.33057,1.33159 l -20.34932,0 c -0.73713,0 -1.33057,-0.59389 -1.33057,-1.33159 l 0,-24.31275 c 0,-0.73771 0.59344,-1.3316 1.33057,-1.3316 z"/><path style="fill:url(#radialGradient3171);fill-opacity:1;stroke:none;display:inline" id="path3163" d="m 8.53125,4.28125 c -0.6964677,0 -1.25,0.5535322 -1.25,1.25 l 0,36.9375 c 0,0.696468 0.5535322,1.25 1.25,1.25 l 30.9375,0 c 0.696467,0 1.25,-0.553534 1.25,-1.25 l 0,-24.96875 c 0,-1.325561 -0.512526,-4.168776 -2.28125,-5.9375 l -5,-5 C 31.668776,4.7937758 28.825561,4.28125 27.5,4.28125 l -18.96875,0 z" transform="matrix(0.657442,0,0,0.65795,303.223,126.191)"/><path style="fill:none;stroke:url(#linearGradient3173);stroke-width:1.52046001;stroke-miterlimit:4;display:inline" id="path3165" d="m -51.46875,5.0625 c -0.271718,0 -0.46875,0.1970315 -0.46875,0.46875 l 0,36.9375 c 0,0.271717 0.197033,0.46875 0.46875,0.46875 l 30.9375,0 c 0.271717,0 0.46875,-0.197033 0.46875,-0.46875 l 0,-24.96875 c 0,-1.151122 -0.525052,-3.837552 -2.0625,-5.375 l -5,-5 C -28.662448,5.5875517 -31.348878,5.0625 -32.5,5.0625 l -18.96875,0 z" transform="matrix(0.657442,0,0,0.65795,342.67,126.191)"/></g></g><path style="color:#000;fill:url(#linearGradient3721);fill-opacity:1;fill-rule:nonzero;stroke:url(#linearGradient3713);stroke-width:1;stroke-linecap:round;stroke-linejoin:round;stroke-miterlimit:4;stroke-opacity:1;stroke-dasharray:none;stroke-dashoffset:0;marker:none;visibility:visible;display:inline;overflow:visible;enable-background:accumulate" id="rect3666" d="m 306.5,219.5 8,0 0,15 -1,0 c 0,0 -3,-3 -3,-3 l -3,3 -1,0 0,-15 z"/><path style="opacity:.52653061;color:#000;fill:none;stroke:url(#radialGradient3703);stroke-width:.99999988;stroke-linecap:round;stroke-linejoin:miter;stroke-miterlimit:4;stroke-opacity:1;stroke-dashoffset:0;marker:none;visibility:visible;display:inline;overflow:visible;enable-background:accumulate" id="path3695" d="m 307.46875,220.46875 0,12.6875 2.34375,-2.34375 a 0.96884687,0.96884687 0 0 1 1.375,0 l 2.34375,2.34375 0,-12.6875 -6.0625,0 z"/><g style="display:inline;enable-background:new" id="g5769" transform="translate(2.9943372,-605.00206)"><path id="path6555" d="m 314.75,828.53125 a 3.28125,3.28125 0 1 1 -6.5625,0 3.28125,3.28125 0 1 1 6.5625,0 z" transform="matrix(1.3952382,0,0,1.5285715,-124.02618,-437.45357)" style="fill:url(#radialGradient6563-9);fill-opacity:1;fill-rule:evenodd;stroke:none"/><g id="g6589"><path id="path6567" d="m 308.83947,815.80081 c -0.5926,0.1165 -0.98214,0.68689 -0.875,1.28125 l 0.50428,2.13669 -1.375,1.3125 c -0.29515,0.29621 -0.39798,0.73356 -0.26574,1.13025 0.13223,0.39669 0.4769,0.68487 0.89074,0.74475 l 1.84375,0.28125 0.8125,1.6875 c 0.17654,0.38985 0.56218,0.64284 0.9901,0.64953 0.42791,0.007 0.82126,-0.23413 1.0099,-0.61828 l 0.875,-1.71875 1.84375,-0.25 c 0.41384,-0.0599 0.75851,-0.34806 0.89074,-0.74475 0.13224,-0.39669 0.0294,-0.83404 -0.26574,-1.13025 l -1.34375,-1.3125 0.3125,-1.875 c 0.0726,-0.41926 -0.10183,-0.84298 -0.44852,-1.08966 -0.34669,-0.24669 -0.80417,-0.27258 -1.17648,-0.0666 l -1.65625,0.875 -1.81678,-1.16794 c -0.22737,-0.129 -0.49308,-0.17329 -0.75,-0.125 l 0,0 0,10e-6 z" transform="matrix(0.6218253,0.4554915,-0.4557177,0.6215166,491.13684,177.83564)" style="fill:url(#radialGradient6618-0);fill-opacity:1;fill-rule:evenodd;stroke:url(#radialGradient6634-3);stroke-width:1.16769898;stroke-linecap:round;stroke-linejoin:round;stroke-miterlimit:4;stroke-opacity:1;stroke-dashoffset:.3612;display:inline"/><rect style="fill:#fff;fill-opacity:1;fill-rule:evenodd;stroke:none" id="rect6569" width="1.016" height=".994" x="307.989" y="828.008"/><rect style="fill:#fff;fill-opacity:1;fill-rule:evenodd;stroke:none;display:inline" id="rect6571" width="1.016" height=".994" x="312.989" y="828.008"/><rect style="fill:#fff;fill-opacity:1;fill-rule:evenodd;stroke:none;display:inline" id="rect6573" width="1.016" height=".994" x="311.989" y="831.008"/><rect style="fill:#fff;fill-opacity:1;fill-rule:evenodd;stroke:none;display:inline" id="rect6575" width="1.016" height=".994" x="308.989" y="831.008"/></g></g><path style="opacity:.08979594;color:#000;fill:#000;fill-opacity:1;fill-rule:nonzero;stroke:#000;stroke-width:.99999994;stroke-linecap:round;stroke-linejoin:round;stroke-miterlimit:4;stroke-opacity:1;stroke-dasharray:none;stroke-dashoffset:0;marker:none;visibility:visible;display:inline;overflow:visible;enable-background:accumulate" id="rect3666-0-6" d="m 310.5,178.5 8,0 0,20 -4,-4 -4,4 0,-20 z"/><path style="color:#000;fill:url(#linearGradient3910);fill-opacity:1;fill-rule:nonzero;stroke:url(#linearGradient3912);stroke-width:.99999994;stroke-linecap:round;stroke-linejoin:round;stroke-miterlimit:4;stroke-opacity:1;stroke-dasharray:none;stroke-dashoffset:0;marker:none;visibility:visible;display:inline;overflow:visible;enable-background:accumulate" id="rect3666-0" d="m 309.5,177.5 8,0 0,20 -4,-4 -4,4 0,-20 z"/><path style="opacity:.40408164;color:#000;fill:none;stroke:url(#radialGradient4067);stroke-width:1;stroke-linecap:round;stroke-linejoin:miter;stroke-miterlimit:4;stroke-opacity:1;stroke-dasharray:none;stroke-dashoffset:0;marker:none;visibility:visible;display:inline;overflow:visible;enable-background:accumulate" id="path4059" d="m 310.46875,178.46875 0,16.6875 2.34375,-2.34375 a 0.96884687,0.96884687 0 0 1 1.375,0 l 2.34375,2.34375 0,-16.6875 -6.0625,0 z"/><g style="display:inline" id="g6613" transform="matrix(1,0,0,0.9708308,1.99175,-580.79601)"><path id="path5780" d="m 314.75,828.53125 a 3.28125,3.28125 0 1 1 -6.5625,0 3.28125,3.28125 0 1 1 6.5625,0 z" transform="matrix(1.8238243,0,0,1.9718012,-252.07986,-846.22894)" style="fill:url(#radialGradient5833);fill-opacity:1;fill-rule:evenodd;stroke:none"/><path style="fill:url(#radialGradient7628);fill-opacity:1;fill-rule:evenodd;stroke:url(#radialGradient7630);stroke-width:.91342044;stroke-linecap:round;stroke-linejoin:round;stroke-miterlimit:4;stroke-opacity:1;stroke-dashoffset:.3612;display:inline" id="path5784" d="m 317.05321,782.565 c -0.59616,-0.2509 -1.30626,-0.026 -1.59508,0.50526 l -0.93349,1.97867 -2.05486,0.24065 c -0.45041,0.0631 -0.82267,0.34886 -0.96201,0.73855 -0.13937,0.38969 -0.022,0.81663 0.3033,1.10335 l 1.43998,1.28884 -0.37303,1.80237 c -0.096,0.40993 0.0801,0.83279 0.45205,1.08567 0.37194,0.25286 0.873,0.29033 1.28644,0.0962 l 1.87699,-0.85068 1.78232,0.86942 c 0.40248,0.19217 0.89128,0.16408 1.26318,-0.0726 0.37191,-0.23665 0.56332,-0.64144 0.49468,-1.04608 l -0.33577,-1.81369 1.48307,-1.29948 c 0.33401,-0.289 0.45369,-0.72444 0.30782,-1.11979 -0.14587,-0.39534 -0.53146,-0.68048 -0.99158,-0.73328 l -2.02022,-0.26748 -0.84486,-1.97327 c -0.11682,-0.23338 -0.32192,-0.42209 -0.57893,-0.53262 l 0,0 0,-10e-6 z"/></g><path style="opacity:.32244897;color:#000;fill:url(#linearGradient4246);fill-opacity:1;fill-rule:nonzero;stroke:none;stroke-width:.99999982;marker:none;visibility:visible;display:inline;overflow:visible;filter:url(#filter4236);enable-background:accumulate" id="rect3666-0-2-4" d="m 314.12501,51.5 9.99999,0 0,44.000003 -5,-5.000001 -4.99999,5.000001 0,-44.000003 z"/><path style="color:#000;fill:url(#linearGradient4136);fill-opacity:1;fill-rule:nonzero;stroke:url(#linearGradient4138);stroke-width:.99999981999999998;stroke-linecap:round;stroke-linejoin:miter;stroke-miterlimit:4;stroke-opacity:1;stroke-dasharray:none;stroke-dashoffset:0;marker:none;visibility:visible;display:inline;overflow:visible;enable-background:accumulate" id="rect3666-0-2" d="m 313.50001,50.499998 9.99999,0 0,44.000003 -5,-5.000001 -4.99999,5.000001 0,-44.000003 z"/><path style="opacity:.2;color:#000;fill:none;stroke:#fff;stroke-width:1;stroke-linecap:round;stroke-linejoin:miter;stroke-miterlimit:4;stroke-opacity:1;stroke-dasharray:none;stroke-dashoffset:0;marker:none;visibility:visible;display:inline;overflow:visible;enable-background:accumulate" id="path4305" d="m 312.5,51.5 0,40.625 3.3125,-3.3125 a 0.99446835,0.99446835 0 0 1 1.375,0 l 3.3125,3.3125 0,-40.625 -8,0 z" transform="translate(2,0)"/><g style="display:inline" id="g6800" transform="translate(-68.856555,-607.23182)"><g id="g4332" transform="translate(-3.6982233,2.8875631)"><path style="fill:url(#radialGradient4336);fill-opacity:1;fill-rule:evenodd;stroke:none;display:inline" id="path2388" d="m 47.000506,9.3411446 c 0,4.6069664 -3.734684,8.3416514 -8.341651,8.3416514 -4.606966,0 -8.341651,-3.734685 -8.341651,-8.3416514 0,-4.6069667 3.734685,-8.341651 8.341651,-8.341651 4.606967,0 8.341651,3.7346843 8.341651,8.341651 z" transform="matrix(1.14985,0,0,1.14985,352.40467,653.4909)"/><path style="fill:#fff;fill-opacity:1;fill-rule:evenodd;stroke:none;stroke-width:.5;marker:none;visibility:visible;display:inline;overflow:visible" id="path1345" d="m 44.520054,15.50279 c -0.507171,0.878446 -4.594703,-0.160823 -5.521351,0.251748 -0.926648,0.41257 -2.889414,4.145604 -3.88159,3.934711 -0.992177,-0.210894 -1.266891,-4.419519 -1.945618,-5.173323 -0.678728,-0.753803 -4.835582,-1.466933 -4.94161,-2.475719 -0.106028,-1.008786 3.811722,-2.5705906 4.318893,-3.4490369 0.507171,-0.8784463 -0.09914,-5.0522193 0.827507,-5.4647895 0.926648,-0.4125703 3.622664,2.8308064 4.614841,3.0417001 0.992176,0.2108936 4.77431,-1.6555099 5.453037,-0.9017066 0.678728,0.7538034 -1.572792,4.3201254 -1.466764,5.3289109 0.106027,1.008786 3.049826,4.029058 2.542655,4.907505 z" transform="matrix(0.674116,0.299577,-0.299577,0.674116,375.46413,645.80753)"/></g></g><path style="color:#000;fill:url(#linearGradient4491);fill-opacity:1;fill-rule:nonzero;stroke:url(#linearGradient4483);stroke-width:.99999976000000002;stroke-linecap:round;stroke-linejoin:miter;stroke-miterlimit:4;stroke-opacity:1;stroke-dasharray:none;stroke-dashoffset:0;marker:none;visibility:visible;display:inline;overflow:visible;enable-background:accumulate;opacity:.13061224" id="rect3666-0-2-1-3" d="m 315.50001,127.5 7.99999,0 0,29 -4,-3.29546 -3.99999,3.29546 0,-29 z"/><path style="color:#000;fill:url(#linearGradient4360);fill-opacity:1;fill-rule:nonzero;stroke:url(#linearGradient4362);stroke-width:.99999976000000002;stroke-linecap:round;stroke-linejoin:miter;stroke-miterlimit:4;stroke-opacity:1;stroke-dasharray:none;stroke-dashoffset:0;marker:none;visibility:visible;display:inline;overflow:visible;enable-background:accumulate" id="rect3666-0-2-1" d="m 314.50001,126.5 7.99999,0 0,29 -4,-3.29546 -3.99999,3.29546 0,-29 z"/><path style="color:#000;fill:none;fill-opacity:1;fill-rule:nonzero;stroke:#fff;stroke-width:.99999976000000002;stroke-linecap:round;stroke-linejoin:miter;stroke-miterlimit:4;stroke-opacity:1;stroke-dasharray:none;stroke-dashoffset:0;marker:none;visibility:visible;display:inline;overflow:visible;enable-background:accumulate;opacity:.15" id="path4550" d="m 315.53125,127.53125 0,25.8125 2.3125,-1.90625 a 1.0165677,1.0165677 0 0 1 1.3125,0 l 2.3125,1.90625 0,-25.8125 -5.9375,0 z"/><g style="display:inline" id="g6806" transform="matrix(0.7797745,0,0,0.7797745,13.0207,-384.43035)"><path id="path6808" d="m 47.000506,9.3411446 c 0,4.6069664 -3.734684,8.3416514 -8.341651,8.3416514 -4.606966,0 -8.341651,-3.734685 -8.341651,-8.3416514 0,-4.6069667 3.734685,-8.341651 8.341651,-8.341651 4.606967,0 8.341651,3.7346843 8.341651,8.341651 z" transform="matrix(1.14985,0,0,1.14985,352.40467,653.4909)" style="fill:url(#radialGradient6812);fill-opacity:1;fill-rule:evenodd;stroke:none;display:inline"/><path id="path6810" d="m 44.520054,15.50279 c -0.507171,0.878446 -4.594703,-0.160823 -5.521351,0.251748 -0.926648,0.41257 -2.889414,4.145604 -3.88159,3.934711 -0.992177,-0.210894 -1.266891,-4.419519 -1.945618,-5.173323 -0.678728,-0.753803 -4.835582,-1.466933 -4.94161,-2.475719 -0.106028,-1.008786 3.811722,-2.5705906 4.318893,-3.4490369 0.507171,-0.8784463 -0.09914,-5.0522193 0.827507,-5.4647895 0.926648,-0.4125703 3.622664,2.8308064 4.614841,3.0417001 0.992176,0.2108936 4.77431,-1.6555099 5.453037,-0.9017066 0.678728,0.7538034 -1.572792,4.3201254 -1.466764,5.3289109 0.106027,1.008786 3.049826,4.029058 2.542655,4.907505 z" transform="matrix(0.6214654,0.2761791,-0.2761791,0.6214654,377.14851,647.212)" style="fill:#fff;fill-opacity:1;fill-rule:evenodd;stroke:none;stroke-width:.5;marker:none;visibility:visible;display:inline;overflow:visible"/></g></g></svg>