<svg xmlns="http://www.w3.org/2000/svg" xmlns:svg="http://www.w3.org/2000/svg" xmlns:xlink="http://www.w3.org/1999/xlink" id="svg11300" width="400" height="300" version="1.0" style="display:inline;enable-background:new"><title id="title8836">Optical Drive</title><metadata id="metadata154"/><defs id="defs3"><linearGradient id="linearGradient4801"><stop id="stop4803" offset="0" style="stop-color:#8ae234;stop-opacity:1"/><stop id="stop4805" offset="1" style="stop-color:#6dc714;stop-opacity:1"/></linearGradient><linearGradient id="linearGradient2844"><stop id="stop2846" offset="0" style="stop-color:white;stop-opacity:1"/><stop id="stop2848" offset="1" style="stop-color:white;stop-opacity:0"/></linearGradient><linearGradient id="linearGradient2964"><stop id="stop2966" offset="0" style="stop-color:black;stop-opacity:1"/><stop id="stop2968" offset="1" style="stop-color:black;stop-opacity:0"/></linearGradient><linearGradient id="linearGradient2946"><stop id="stop2948" offset="0" style="stop-color:#8ae234;stop-opacity:1"/><stop id="stop2950" offset="1" style="stop-color:#73d216;stop-opacity:1"/></linearGradient><linearGradient id="linearGradient2894"><stop id="stop2896" offset="0" style="stop-color:white;stop-opacity:1"/><stop id="stop2898" offset="1" style="stop-color:white;stop-opacity:.43629342"/></linearGradient><radialGradient id="radialGradient2478" cx="17.316" cy="-18.434" r="20.989" fx="17.316" fy="-18.434" gradientTransform="matrix(0.7779357,-0.5099058,0.2249132,0.3431361,8.710057,35.620936)" gradientUnits="userSpaceOnUse" xlink:href="#linearGradient2946"/><radialGradient id="radialGradient2480" cx="7.091" cy="22.562" r="5.47" fx="7.091" fy="22.562" gradientTransform="matrix(1.3852938,0,0,1.1828585,-2.1985396,-3.7252664)" gradientUnits="userSpaceOnUse" xlink:href="#linearGradient4801"/><radialGradient id="radialGradient2482" cx="35.408" cy="21.518" r="5.456" fx="35.408" fy="21.518" gradientTransform="matrix(1.065299,0,0,1.069873,-2.349853,-1.383156)" gradientUnits="userSpaceOnUse" xlink:href="#linearGradient2946"/><linearGradient id="linearGradient3887" x1="72.375" x2="72.375" y1="28.301" y2="31.376" gradientTransform="translate(-118,2)" gradientUnits="userSpaceOnUse" xlink:href="#linearGradient2844"/><linearGradient id="linearGradient3890" x1="92.587" x2="92.587" y1="6.541" y2="10.352" gradientTransform="translate(-118,2)" gradientUnits="userSpaceOnUse" xlink:href="#linearGradient2844"/><linearGradient id="linearGradient2751" x1="22.547" x2="21.578" y1="14.128" y2="11.299" gradientUnits="userSpaceOnUse" xlink:href="#linearGradient2894"/><linearGradient id="linearGradient6229" x1="72.375" x2="72.375" y1="28.301" y2="31.376" gradientTransform="translate(-118,2)" gradientUnits="userSpaceOnUse" xlink:href="#linearGradient2844"/><linearGradient id="linearGradient6232" x1="92.587" x2="92.587" y1="6.541" y2="10.352" gradientTransform="translate(-118,2)" gradientUnits="userSpaceOnUse" xlink:href="#linearGradient2844"/><radialGradient id="radialGradient6242" cx="24.218" cy="29" r="24.218" fx="24.218" fy="29" gradientTransform="matrix(0.8644729,0,0,0.1591846,-129.80583,33.593328)" gradientUnits="userSpaceOnUse" xlink:href="#linearGradient2964"/><radialGradient id="radialGradient6244" cx="17.316" cy="-18.434" r="20.989" fx="17.316" fy="-18.434" gradientTransform="matrix(0.7779357,-0.5099058,0.2249132,0.3431361,8.710057,35.620936)" gradientUnits="userSpaceOnUse" xlink:href="#linearGradient2946"/><radialGradient id="radialGradient6246" cx="7.091" cy="22.562" r="5.47" fx="7.091" fy="22.562" gradientTransform="matrix(1.3852938,0,0,1.1828585,-2.1985396,-3.7252664)" gradientUnits="userSpaceOnUse" xlink:href="#linearGradient4801"/><radialGradient id="radialGradient6248" cx="35.408" cy="21.518" r="5.456" fx="35.408" fy="21.518" gradientTransform="matrix(1.065299,0,0,1.069873,-2.349853,-1.383156)" gradientUnits="userSpaceOnUse" xlink:href="#linearGradient2946"/><linearGradient id="linearGradient6250" x1="22.547" x2="21.578" y1="14.128" y2="11.299" gradientUnits="userSpaceOnUse" xlink:href="#linearGradient2894"/><radialGradient id="radialGradient6279" cx="24.218" cy="29" r="24.218" fx="24.218" fy="29" gradientTransform="matrix(0.3936701,0,0,0.1423215,-124.50253,34.082362)" gradientUnits="userSpaceOnUse" xlink:href="#linearGradient2964"/><radialGradient id="radialGradient6193" cx="17.316" cy="-18.434" r="20.989" fx="17.316" fy="-18.434" gradientTransform="matrix(0.7779357,-0.5099058,0.2249132,0.3431361,8.710057,35.620936)" gradientUnits="userSpaceOnUse" xlink:href="#linearGradient2946"/><radialGradient id="radialGradient6195" cx="7.091" cy="22.562" r="5.47" fx="7.091" fy="22.562" gradientTransform="matrix(1.3852938,0,0,1.1828585,-2.1985396,-3.7252664)" gradientUnits="userSpaceOnUse" xlink:href="#linearGradient4801"/><radialGradient id="radialGradient6197" cx="35.408" cy="21.518" r="5.456" fx="35.408" fy="21.518" gradientTransform="matrix(1.065299,0,0,1.069873,-2.349853,-1.383156)" gradientUnits="userSpaceOnUse" xlink:href="#linearGradient2946"/><linearGradient id="linearGradient6199" x1="22.547" x2="22.174" y1="14.128" y2="12.956" gradientUnits="userSpaceOnUse" xlink:href="#linearGradient2894"/><linearGradient id="linearGradient6201" x1="92.587" x2="92.587" y1="6.541" y2="10.352" gradientTransform="translate(-118,2)" gradientUnits="userSpaceOnUse" xlink:href="#linearGradient2844"/><linearGradient id="linearGradient6203" x1="72.375" x2="72.375" y1="28.301" y2="31.376" gradientTransform="translate(-118,2)" gradientUnits="userSpaceOnUse" xlink:href="#linearGradient2844"/><radialGradient id="radialGradient6205" cx="24.218" cy="29" r="24.218" fx="24.218" fy="29" gradientTransform="matrix(0.8106455,0,0,0.244745,-59.805832,30.548802)" gradientUnits="userSpaceOnUse" xlink:href="#linearGradient2964"/><linearGradient id="linearGradient8172"><stop id="stop8174" offset="0" style="stop-color:#fff;stop-opacity:1"/><stop id="stop8176" offset="1" style="stop-color:#fff;stop-opacity:0"/></linearGradient><linearGradient id="linearGradient4833"><stop id="stop4835" offset="0" style="stop-color:#8ae234;stop-opacity:1"/><stop id="stop4837" offset="1" style="stop-color:#63b513;stop-opacity:1"/></linearGradient><linearGradient id="linearGradient4827"><stop id="stop4829" offset="0" style="stop-color:#8ae234;stop-opacity:1"/><stop id="stop4831" offset="1" style="stop-color:#63b612;stop-opacity:1"/></linearGradient><linearGradient id="linearGradient4000"><stop id="stop4002" offset="0" style="stop-color:#4e9a06;stop-opacity:1"/><stop id="stop4004" offset="1" style="stop-color:#4e9a06;stop-opacity:0"/></linearGradient><linearGradient id="linearGradient3992"><stop id="stop3994" offset="0" style="stop-color:#4e9a06;stop-opacity:1"/><stop id="stop3996" offset="1" style="stop-color:#4e9a06;stop-opacity:0"/></linearGradient><radialGradient id="radialGradient6428" cx="24.218" cy="29" r="24.218" fx="24.218" fy="29" gradientTransform="matrix(0.3201244,0,0,9.6649949e-2,0.174649,15.356416)" gradientUnits="userSpaceOnUse" xlink:href="#linearGradient2964"/><radialGradient id="radialGradient6430" cx="18.706" cy="-31.017" r="20.989" fx="18.706" fy="-31.017" gradientTransform="matrix(0.772611,-0.8991781,0.313033,0.268969,10.144147,45.704498)" gradientUnits="userSpaceOnUse" xlink:href="#linearGradient2946"/><radialGradient id="radialGradient6432" cx="6.829" cy="22.956" r="5.47" fx="6.829" fy="22.956" gradientTransform="matrix(1.172449,1.635808e-7,-1.396764e-7,1.001117,-0.689313,0.375097)" gradientUnits="userSpaceOnUse" xlink:href="#linearGradient4827"/><linearGradient id="linearGradient6434" x1="4.57" x2="4.57" y1="31.585" y2="24.446" gradientUnits="userSpaceOnUse" xlink:href="#linearGradient4000"/><radialGradient id="radialGradient6436" cx="36.315" cy="22.349" r="5.456" fx="36.315" fy="22.349" gradientTransform="matrix(1.065299,0,0,1.069873,-2.349853,-1.383156)" gradientUnits="userSpaceOnUse" xlink:href="#linearGradient4833"/><linearGradient id="linearGradient6438" x1="-46.397" x2="-46.397" y1="17.728" y2="14.6" gradientUnits="userSpaceOnUse" xlink:href="#linearGradient3992"/><linearGradient id="linearGradient6442" x1="92.587" x2="92.391" y1="6.541" y2="11.931" gradientTransform="matrix(0.5037656,0,0,0.5037656,-31.56548,-0.928401)" gradientUnits="userSpaceOnUse" xlink:href="#linearGradient2844"/><linearGradient id="linearGradient6444" x1="72.375" x2="72.55" y1="28.301" y2="32" gradientTransform="matrix(0.5037656,0,0,0.5037656,-31.56548,-0.928401)" gradientUnits="userSpaceOnUse" xlink:href="#linearGradient2844"/><radialGradient id="radialGradient8180" cx="-17.568" cy="15.218" r="4.807" fx="-17.568" fy="15.218" gradientTransform="matrix(1.5722652,0,0,1.70162,10.053399,-10.411161)" gradientUnits="userSpaceOnUse" xlink:href="#linearGradient8172"/><linearGradient id="linearGradient8080"><stop id="stop8082" offset="0" style="stop-color:#fff;stop-opacity:1"/><stop id="stop8084" offset="1" style="stop-color:#fff;stop-opacity:0"/></linearGradient><linearGradient id="linearGradient8047"><stop id="stop8049" offset="0" style="stop-color:#8ae234;stop-opacity:1"/><stop id="stop8051" offset="1" style="stop-color:#4e9a06;stop-opacity:1"/></linearGradient><linearGradient id="linearGradient8041"><stop id="stop8043" offset="0" style="stop-color:#8ae234;stop-opacity:1"/><stop id="stop8045" offset="1" style="stop-color:#4e9a06;stop-opacity:1"/></linearGradient><linearGradient id="linearGradient8035"><stop id="stop8037" offset="0" style="stop-color:#8ae234;stop-opacity:1"/><stop id="stop8039" offset="1" style="stop-color:#73d216;stop-opacity:1"/></linearGradient><radialGradient id="radialGradient8101" cx="-.824" cy="69.481" r="6.967" fx="-.824" fy="69.481" gradientTransform="matrix(0.8697734,-0.1649201,4.9824296e-2,0.3044848,-3.5691186,47.688095)" gradientUnits="userSpaceOnUse" xlink:href="#linearGradient8035"/><radialGradient id="radialGradient8103" cx="1.982" cy="29.696" r="1.75" fx="1.982" fy="29.696" gradientTransform="matrix(1.4038271,1.3365368,-0.7424561,0.7071009,21.426678,5.6116883)" gradientUnits="userSpaceOnUse" xlink:href="#linearGradient8047"/><radialGradient id="radialGradient8105" cx="2.178" cy="30.248" r="1.75" fx="2.178" fy="30.248" gradientTransform="matrix(1.7142168,1.6320697,-0.8708059,0.8293388,24.772562,0.9521771)" gradientUnits="userSpaceOnUse" xlink:href="#linearGradient8041"/><radialGradient id="radialGradient8107" cx="8.042" cy="49.821" r="3.254" fx="8.042" fy="49.821" gradientTransform="matrix(1.5173424,-0.8760381,0.516805,0.8951324,-29.908126,12.345027)" gradientUnits="userSpaceOnUse" xlink:href="#linearGradient8080"/></defs><g id="layer6" style="display:none"><rect id="rect6284" width="48" height="48" x="296" y="50" style="fill:#eeeeec;fill-opacity:1;fill-rule:nonzero;stroke:none;stroke-width:2;marker:none;visibility:visible;display:inline;overflow:visible;enable-background:accumulate"/><rect id="rect6592" width="32" height="32" x="303" y="126" style="fill:#eeeeec;fill-opacity:1;fill-rule:nonzero;stroke:none;stroke-width:2;marker:none;visibility:visible;display:inline;overflow:visible;enable-background:accumulate"/><rect id="rect6749" width="22" height="22" x="303" y="177" style="fill:#eeeeec;fill-opacity:1;fill-rule:nonzero;stroke:none;stroke-width:2;marker:none;visibility:visible;display:inline;overflow:visible;enable-background:accumulate"/><rect id="rect6833" width="16" height="16" x="303" y="219" style="fill:#eeeeec;fill-opacity:1;fill-rule:nonzero;stroke:none;stroke-width:2;marker:none;visibility:visible;display:inline;overflow:visible;enable-background:accumulate"/><text id="context" x="20.971" y="21.514" xml:space="preserve" style="font-size:18.30070686px;font-style:normal;font-weight:400;fill:#000;fill-opacity:1;stroke:none;display:inline;enable-background:new;font-family:Bitstream Vera Sans"><tspan id="tspan2716" x="20.971" y="21.514">actions</tspan></text><text id="icon-name" x="191.971" y="21.514" xml:space="preserve" style="font-size:18.30070686px;font-style:normal;font-variant:normal;font-weight:700;font-stretch:normal;text-align:start;line-height:125%;writing-mode:lr-tb;text-anchor:start;fill:#000;fill-opacity:1;stroke:none;display:inline;enable-background:new;font-family:Droid Sans;-inkscape-font-specification:Droid Sans Bold"><tspan id="tspan3023" x="191.971" y="21.514">call-start</tspan></text></g><g id="layer2" style="display:inline"><g id="g48" transform="translate(296,50)" style="display:inline;enable-background:new"><g id="g6807" transform="translate(131,0)"><rect id="rect2972" width="41.872" height="7.71" x="-129.806" y="34.354" style="opacity:.1261261;fill:url(#radialGradient6242);fill-opacity:1;stroke:none"/><rect id="rect6277" width="19.068" height="6.894" x="-124.503" y="34.763" style="opacity:.43243247;fill:url(#radialGradient6279);fill-opacity:1;stroke:none;display:inline"/><g id="g6252" transform="translate(-70,0)"><g id="g2924" transform="matrix(-0.707107,0.707107,-0.707107,-0.707107,-0.7216,24.39662)"><rect id="rect2926" width="12.034" height="4" x="-3.934" y="28.027" rx="1.481" ry="1.481" transform="matrix(0.965926,-0.258819,0.258819,0.965926,0,0)" style="fill:#8ae234;fill-opacity:1;stroke:#4e9a06;stroke-width:1.00000119;stroke-linecap:round;stroke-linejoin:miter;stroke-miterlimit:4;stroke-opacity:1;stroke-dasharray:none;stroke-dashoffset:0"/><rect id="rect2928" width="12.034" height="4" x="-50.305" y="15.6" rx="1.481" ry="1.481" transform="matrix(-0.965926,-0.258819,-0.258819,0.965926,0,0)" style="fill:#8ae234;fill-opacity:1;stroke:#4e9a06;stroke-width:1.00000107;stroke-linecap:round;stroke-linejoin:miter;stroke-miterlimit:4;stroke-opacity:1;stroke-dasharray:none;stroke-dashoffset:0"/><path id="path2930" d="M 24,14.5 C 13.540342,14.5 4.9369948,19.115197 4.0625,25 3.4945247,26.229253 3.3411412,27.653245 3.71875,29.0625 3.8062083,29.388899 3.9270339,29.702183 4.0625,30 l 11.40625,-3.0625 c -0.03159,-0.32565 -0.06879,-0.673601 -0.15625,-1 C 15.104309,25.160519 14.74048,24.477891 14.28125,23.875 15.658933,21.324703 19.487863,19.5 24,19.5 c 4.512138,0 8.341068,1.824703 9.71875,4.375 -0.457667,0.601943 -0.792292,1.287323 -1,2.0625 -0.08746,0.326399 -0.155909,0.674351 -0.1875,1 L 43.9375,30 c 0.135466,-0.297817 0.256289,-0.611102 0.34375,-0.9375 0.385521,-1.438785 0.222381,-2.90981 -0.375,-4.15625 C 42.954722,19.066284 34.403892,14.5 24,14.5 z" style="fill:url(#radialGradient6244);fill-opacity:1;stroke:#4e9a06;stroke-width:1;stroke-linecap:round;stroke-linejoin:miter;stroke-miterlimit:4;stroke-opacity:1;stroke-dasharray:none;stroke-dashoffset:0"/><path id="path2932" d="m 10.28125,18.03125 c -0.7076331,-0.09867 -1.4467104,-0.04224 -2.1875,0.15625 -2.9519842,0.790983 -4.6969265,3.799155 -3.90625,6.75 0.041914,0.156427 0.098507,0.315709 0.15625,0.46875 l 10.59375,-2.8125 c -0.0242,-0.184845 -0.05013,-0.368466 -0.09375,-0.53125 -0.593055,-2.213312 -2.428746,-3.733726 -4.5625,-4.03125 z" transform="translate(0,4)" style="fill:url(#radialGradient6246);fill-opacity:1;stroke:none"/><path id="path2934" d="m 37.75,18.03125 c -2.132084,0.297292 -3.969903,1.819646 -4.5625,4.03125 -0.04755,0.177465 -0.06187,0.35027 -0.09375,0.53125 l 10.5625,2.8125 c 0.0577,-0.152925 0.114376,-0.312478 0.15625,-0.46875 0.790818,-2.951373 -0.926037,-5.959827 -3.875,-6.75 -0.740248,-0.198349 -1.480457,-0.254838 -2.1875,-0.15625 z" transform="translate(0,4)" style="fill:url(#radialGradient6248);fill-opacity:1;stroke:none"/><path id="path2936" d="m 24,11.53125 c -5.078343,0 -9.708139,1.144485 -13.09375,2.9375 -3.3856109,1.793015 -5.4416808,4.192119 -5.8125,6.6875 A 1.0300627,1.0300627 0 0 1 5,21.4375 c -0.4705562,1.018412 -0.5959184,2.169392 -0.28125,3.34375 -0.041434,-0.154633 -0.011095,-0.11633 0.0625,0.125 0.025041,0.08211 -0.00749,0.06629 0,0.125 a 1.0300627,1.0300627 0 0 1 0,0.03125 c 0.00332,0.04069 0.033013,0.06588 0.03125,0.09375 -0.00703,-0.08744 1.453e-4,-0.02233 0.03125,0.09375 a 1.0300627,1.0300627 0 0 1 0,0.03125 l 0.25,0.96875 c 0.068492,0.255614 0.260584,0.385025 0.53125,0.3125 a 1.0300627,1.0300627 0 0 1 0.03125,0 l 8.75,-2.34375 c 0.255614,-0.06849 0.385025,-0.260583 0.3125,-0.53125 a 1.0300627,1.0300627 0 0 1 0,-0.03125 l -0.25,-0.96875 0,-0.03125 c 9.03e-4,0.0084 0.01431,0.02884 -0.03125,-0.0625 a 1.0300627,1.0300627 0 0 1 -0.09375,-0.25 c -0.03883,-0.184053 -0.05693,-0.220826 -0.03125,-0.125 C 14.142918,21.58586 13.85979,21.01337 13.46875,20.5 A 1.0300627,1.0300627 0 0 1 13.375,19.375 c 1.659329,-3.071665 5.835187,-4.90625 10.625,-4.90625 4.789814,0 8.965672,1.834585 10.625,4.90625 A 1.0300627,1.0300627 0 0 1 34.53125,20.5 c -0.376083,0.49464 -0.637086,1.064097 -0.8125,1.71875 -0.0053,0.01967 -0.01847,0.04236 -0.03125,0.09375 a 1.0300627,1.0300627 0 0 1 -0.09375,0.25 c -0.04667,0.08349 -0.06329,0.101454 -0.0625,0.09375 l 0,0.03125 -0.25,0.96875 a 1.0300627,1.0300627 0 0 1 0,0.03125 c -0.07252,0.270666 0.05689,0.462759 0.3125,0.53125 l 8.75,2.34375 a 1.0300627,1.0300627 0 0 1 0.03125,0 c 0.270668,0.07252 0.462758,-0.05689 0.53125,-0.3125 l 0.25,-0.96875 a 1.0300627,1.0300627 0 0 1 0,-0.03125 c 0.0311,-0.116081 0.03828,-0.181191 0.03125,-0.09375 a 1.0300627,1.0300627 0 0 1 0.03125,-0.25 c 0.07359,-0.241318 0.103931,-0.279617 0.0625,-0.125 0.321296,-1.199093 0.179965,-2.409967 -0.3125,-3.4375 A 1.0300627,1.0300627 0 0 1 42.875,21.0625 C 42.471132,18.583777 40.407544,16.213918 37.03125,14.4375 33.654956,12.661082 29.051262,11.53125 24,11.53125 z" transform="translate(-1.7626838e-7,4.0000004)" style="opacity:.41891898;fill:none;stroke:url(#linearGradient6250);stroke-width:1;stroke-linecap:round;stroke-linejoin:miter;stroke-miterlimit:4;stroke-opacity:1;stroke-dasharray:none;stroke-dashoffset:0"/></g><path id="path2867" d="m -25.40625,8.0625 -2.375,4.125 c 0.457297,0.501182 1.112349,0.8125 1.84375,0.8125 1.379999,0 2.499997,-1.12 2.5,-2.5 0,-1.196763 -0.845015,-2.192714 -1.96875,-2.4375 z" style="opacity:.8;fill:url(#linearGradient6232);fill-opacity:1;stroke:none;display:inline"/><path id="path2876" d="m -44.1875,29.6875 -4.15625,2.4375 c 0.280181,1.074325 1.244558,1.875 2.40625,1.875 1.379999,0 2.499997,-1.12 2.5,-2.5 0,-0.7061 -0.278764,-1.357739 -0.75,-1.8125 z" style="opacity:.8;fill:url(#linearGradient6229);fill-opacity:1;stroke:none;display:inline"/><path id="path2864" d="m 91.96875,6.578125 a 0.734375,0.734375 0 1 1 -1.46875,0 0.734375,0.734375 0 1 1 1.46875,0 z" transform="translate(-118.5,1.1875)" style="fill:#ecfbdd;fill-opacity:1;stroke:none"/><path id="path2866" d="m 91.96875,6.578125 a 0.734375,0.734375 0 1 1 -1.46875,0 0.734375,0.734375 0 1 1 1.46875,0 z" transform="translate(-136.96875,22.15625)" style="fill:#ecfbdd;fill-opacity:1;stroke:none;display:inline"/><g id="g6005" style="display:inline"><g id="g6009" transform="matrix(-0.707107,0.707107,-0.707107,-0.707107,-0.7216,24.39662)"><rect id="rect6011" width="12.034" height="4" x="-3.934" y="28.027" rx="1.481" ry="1.481" transform="matrix(0.965926,-0.258819,0.258819,0.965926,0,0)" style="fill:#8ae234;fill-opacity:1;stroke:#4e9a06;stroke-width:1.00000119;stroke-linecap:round;stroke-linejoin:miter;stroke-miterlimit:4;stroke-opacity:1;stroke-dasharray:none;stroke-dashoffset:0"/><rect id="rect6013" width="12.034" height="4" x="-50.305" y="15.6" rx="1.481" ry="1.481" transform="matrix(-0.965926,-0.258819,-0.258819,0.965926,0,0)" style="fill:#8ae234;fill-opacity:1;stroke:#4e9a06;stroke-width:1.00000107;stroke-linecap:round;stroke-linejoin:miter;stroke-miterlimit:4;stroke-opacity:1;stroke-dasharray:none;stroke-dashoffset:0"/><path id="path6015" d="M 24,14.5 C 13.540342,14.5 4.9369948,19.115197 4.0625,25 3.4945247,26.229253 3.3411412,27.653245 3.71875,29.0625 3.8062083,29.388899 3.9270339,29.702183 4.0625,30 l 11.40625,-3.0625 c -0.03159,-0.32565 -0.06879,-0.673601 -0.15625,-1 C 15.104309,25.160519 14.74048,24.477891 14.28125,23.875 15.658933,21.324703 19.487863,19.5 24,19.5 c 4.512138,0 8.341068,1.824703 9.71875,4.375 -0.457667,0.601943 -0.792292,1.287323 -1,2.0625 -0.08746,0.326399 -0.155909,0.674351 -0.1875,1 L 43.9375,30 c 0.135466,-0.297817 0.256289,-0.611102 0.34375,-0.9375 0.385521,-1.438785 0.222381,-2.90981 -0.375,-4.15625 C 42.954722,19.066284 34.403892,14.5 24,14.5 z" style="fill:url(#radialGradient2478);fill-opacity:1;stroke:#4e9a06;stroke-width:1;stroke-linecap:round;stroke-linejoin:miter;stroke-miterlimit:4;stroke-opacity:1;stroke-dasharray:none;stroke-dashoffset:0"/><path id="path6017" d="m 10.28125,18.03125 c -0.7076331,-0.09867 -1.4467104,-0.04224 -2.1875,0.15625 -2.9519842,0.790983 -4.6969265,3.799155 -3.90625,6.75 0.041914,0.156427 0.098507,0.315709 0.15625,0.46875 l 10.59375,-2.8125 c -0.0242,-0.184845 -0.05013,-0.368466 -0.09375,-0.53125 -0.593055,-2.213312 -2.428746,-3.733726 -4.5625,-4.03125 z" transform="translate(0,4)" style="fill:url(#radialGradient2480);fill-opacity:1;stroke:none"/><path id="path6019" d="m 37.75,18.03125 c -2.132084,0.297292 -3.969903,1.819646 -4.5625,4.03125 -0.04755,0.177465 -0.06187,0.35027 -0.09375,0.53125 l 10.5625,2.8125 c 0.0577,-0.152925 0.114376,-0.312478 0.15625,-0.46875 0.790818,-2.951373 -0.926037,-5.959827 -3.875,-6.75 -0.740248,-0.198349 -1.480457,-0.254838 -2.1875,-0.15625 z" transform="translate(0,4)" style="fill:url(#radialGradient2482);fill-opacity:1;stroke:none"/><path id="path6021" d="m 24,11.53125 c -5.078343,0 -9.708139,1.144485 -13.09375,2.9375 -3.3856109,1.793015 -5.4416808,4.192119 -5.8125,6.6875 A 1.0300627,1.0300627 0 0 1 5,21.4375 c -0.4705562,1.018412 -0.5959184,2.169392 -0.28125,3.34375 -0.041434,-0.154633 -0.011095,-0.11633 0.0625,0.125 0.025041,0.08211 -0.00749,0.06629 0,0.125 a 1.0300627,1.0300627 0 0 1 0,0.03125 c 0.00332,0.04069 0.033013,0.06588 0.03125,0.09375 -0.00703,-0.08744 1.453e-4,-0.02233 0.03125,0.09375 a 1.0300627,1.0300627 0 0 1 0,0.03125 l 0.25,0.96875 c 0.068492,0.255614 0.260584,0.385025 0.53125,0.3125 a 1.0300627,1.0300627 0 0 1 0.03125,0 l 8.75,-2.34375 c 0.255614,-0.06849 0.385025,-0.260583 0.3125,-0.53125 a 1.0300627,1.0300627 0 0 1 0,-0.03125 l -0.25,-0.96875 0,-0.03125 c 9.03e-4,0.0084 0.01431,0.02884 -0.03125,-0.0625 a 1.0300627,1.0300627 0 0 1 -0.09375,-0.25 c -0.03883,-0.184053 -0.05693,-0.220826 -0.03125,-0.125 C 14.142918,21.58586 13.85979,21.01337 13.46875,20.5 A 1.0300627,1.0300627 0 0 1 13.375,19.375 c 1.659329,-3.071665 5.835187,-4.90625 10.625,-4.90625 4.789814,0 8.965672,1.834585 10.625,4.90625 A 1.0300627,1.0300627 0 0 1 34.53125,20.5 c -0.376083,0.49464 -0.637086,1.064097 -0.8125,1.71875 -0.0053,0.01967 -0.01847,0.04236 -0.03125,0.09375 a 1.0300627,1.0300627 0 0 1 -0.09375,0.25 c -0.04667,0.08349 -0.06329,0.101454 -0.0625,0.09375 l 0,0.03125 -0.25,0.96875 a 1.0300627,1.0300627 0 0 1 0,0.03125 c -0.07252,0.270666 0.05689,0.462759 0.3125,0.53125 l 8.75,2.34375 a 1.0300627,1.0300627 0 0 1 0.03125,0 c 0.270668,0.07252 0.462758,-0.05689 0.53125,-0.3125 l 0.25,-0.96875 a 1.0300627,1.0300627 0 0 1 0,-0.03125 c 0.0311,-0.116081 0.03828,-0.181191 0.03125,-0.09375 a 1.0300627,1.0300627 0 0 1 0.03125,-0.25 c 0.07359,-0.241318 0.103931,-0.279617 0.0625,-0.125 0.321296,-1.199093 0.179965,-2.409967 -0.3125,-3.4375 A 1.0300627,1.0300627 0 0 1 42.875,21.0625 C 42.471132,18.583777 40.407544,16.213918 37.03125,14.4375 33.654956,12.661082 29.051262,11.53125 24,11.53125 z" transform="translate(-1.7626838e-7,4.0000004)" style="opacity:.41891898;fill:none;stroke:url(#linearGradient2751);stroke-width:1;stroke-linecap:round;stroke-linejoin:miter;stroke-miterlimit:4;stroke-opacity:1;stroke-dasharray:none;stroke-dashoffset:0"/></g><path id="path6023" d="m -25.40625,8.0625 -2.375,4.125 c 0.457297,0.501182 1.112349,0.8125 1.84375,0.8125 1.379999,0 2.499997,-1.12 2.5,-2.5 0,-1.196763 -0.845015,-2.192714 -1.96875,-2.4375 z" style="opacity:.90540538;fill:url(#linearGradient3890);fill-opacity:1;stroke:none;display:inline"/><path id="path6025" d="m -44.1875,29.6875 -4.15625,2.4375 c 0.280181,1.074325 1.244558,1.875 2.40625,1.875 1.379999,0 2.499997,-1.12 2.5,-2.5 0,-0.7061 -0.278764,-1.357739 -0.75,-1.8125 z" style="opacity:.90540538;fill:url(#linearGradient3887);fill-opacity:1;stroke:none;display:inline"/><path id="path6027" d="m 91.96875,6.578125 a 0.734375,0.734375 0 1 1 -1.46875,0 0.734375,0.734375 0 1 1 1.46875,0 z" transform="translate(-118.5,1.1875)" style="fill:#ecfbdd;fill-opacity:1;stroke:none"/><path id="path6029" d="m 91.96875,6.578125 a 0.734375,0.734375 0 1 1 -1.46875,0 0.734375,0.734375 0 1 1 1.46875,0 z" transform="translate(-136.96875,22.15625)" style="fill:#ecfbdd;fill-opacity:1;stroke:none;display:inline"/></g></g></g></g><g id="g32" transform="translate(303,126)" style="display:inline;enable-background:new"><g id="g6165" transform="matrix(0.6671139,0,0,0.6671139,40.723871,-0.732604)" style="display:inline"><rect id="rect6167" width="39.265" height="11.855" x="-59.806" y="31.719" style="opacity:.2;fill:url(#radialGradient6205);fill-opacity:1;stroke:none"/><g id="g6169" transform="matrix(-0.707107,0.707107,-0.707107,-0.707107,-0.7216,24.39662)"><rect id="rect6171" width="12.034" height="4" x="-3.93" y="28.783" rx="2" ry="2" transform="matrix(0.9659258,-0.258819,0.258819,0.9659258,0,0)" style="fill:#8ae234;fill-opacity:1;stroke:#4e9a06;stroke-width:1.49899638;stroke-linecap:round;stroke-linejoin:miter;stroke-miterlimit:4;stroke-opacity:1;stroke-dasharray:none;stroke-dashoffset:0"/><rect id="rect6173" width="12.034" height="4" x="-50.685" y="16.252" rx="2" ry="2" transform="matrix(-0.9659258,-0.258819,-0.258819,0.9659258,0,0)" style="fill:#8ae234;fill-opacity:1;stroke:#4e9a06;stroke-width:1.49899614;stroke-linecap:round;stroke-linejoin:miter;stroke-miterlimit:4;stroke-opacity:1;stroke-dasharray:none;stroke-dashoffset:0"/><path id="path6175" d="M 24,14.5 C 13.540342,14.5 4.9369948,19.115197 4.0625,25 3.4945247,26.229253 3.3411412,27.653245 3.71875,29.0625 3.8062083,29.388899 3.9270339,29.702183 4.0625,30 l 11.40625,-3.0625 c -0.03159,-0.32565 -0.06879,-0.673601 -0.15625,-1 C 15.104309,25.160519 14.74048,24.477891 14.28125,23.875 15.658933,21.324703 19.487863,19.5 24,19.5 c 4.512138,0 8.341068,1.824703 9.71875,4.375 -0.457667,0.601943 -0.792292,1.287323 -1,2.0625 -0.08746,0.326399 -0.155909,0.674351 -0.1875,1 L 43.9375,30 c 0.135466,-0.297817 0.256289,-0.611102 0.34375,-0.9375 0.385521,-1.438785 0.222381,-2.90981 -0.375,-4.15625 C 42.954722,19.066284 34.403892,14.5 24,14.5 z" style="fill:url(#radialGradient6193);fill-opacity:1;stroke:#4e9a06;stroke-width:1.49899435;stroke-linecap:round;stroke-linejoin:miter;stroke-miterlimit:4;stroke-opacity:1;stroke-dasharray:none;stroke-dashoffset:0"/><path id="path6177" d="m 10.28125,18.03125 c -0.7076331,-0.09867 -1.4467104,-0.04224 -2.1875,0.15625 -2.9519842,0.790983 -4.6969265,3.799155 -3.90625,6.75 0.041914,0.156427 0.098507,0.315709 0.15625,0.46875 l 10.59375,-2.8125 c -0.0242,-0.184845 -0.05013,-0.368466 -0.09375,-0.53125 -0.593055,-2.213312 -2.428746,-3.733726 -4.5625,-4.03125 z" transform="translate(0,4)" style="fill:url(#radialGradient6195);fill-opacity:1;stroke:none"/><path id="path6179" d="m 37.75,18.03125 c -2.132084,0.297292 -3.969903,1.819646 -4.5625,4.03125 -0.04755,0.177465 -0.06187,0.35027 -0.09375,0.53125 l 10.5625,2.8125 c 0.0577,-0.152925 0.114376,-0.312478 0.15625,-0.46875 0.790818,-2.951373 -0.926037,-5.959827 -3.875,-6.75 -0.740248,-0.198349 -1.480457,-0.254838 -2.1875,-0.15625 z" transform="translate(0,4)" style="fill:url(#radialGradient6197);fill-opacity:1;stroke:none"/><path id="path6181" d="m 24,11.96875 c -5.014472,0 -9.566124,1.122623 -12.875,2.875 -3.3088761,1.752377 -5.282189,4.068097 -5.625,6.375 -0.011714,0.139195 -0.043284,0.275998 -0.09375,0.40625 -0.4294813,0.929514 -0.5693808,1.987181 -0.28125,3.0625 -0.065116,-0.243015 -0.035152,-0.226467 0.0625,0.09375 0.00634,0.0208 -0.0054,0.01155 0,0.03125 0.03214,0.101583 0.053097,0.20637 0.0625,0.3125 -0.013005,-0.161852 -0.034107,-0.09604 0,0.03125 1.112e-4,0.01042 1.112e-4,0.02083 0,0.03125 l 0.3905307,1.608966 c 0.00786,0.02935 -0.019499,-0.01765 0.03125,-0.03125 l 8.7812503,-2.34375 c 0.02935,-0.0079 0.0136,0.0195 0,-0.03125 C 14.45292,24.3798 14.312389,23.760416 14.3125,23.75 l -0.25,-1 c 0.04318,0.161153 0.04273,0.179577 -0.03125,0.03125 -0.05587,-0.108909 -0.09786,-0.224393 -0.125,-0.34375 -0.04967,-0.235435 -0.04339,-0.286935 0,-0.125 C 13.752947,21.740363 13.487289,21.225624 13.125,20.75 12.784621,20.297186 12.735939,19.688669 13,19.1875 c 1.778079,-3.29149 6.09311,-5.15625 11,-5.15625 4.906891,0 9.221922,1.864759 11,5.15625 0.264061,0.501169 0.215379,1.109686 -0.125,1.5625 -0.341684,0.449397 -0.588203,0.958664 -0.75,1.5625 -0.0028,0.01057 -0.01747,0.03835 -0.03125,0.09375 -0.02453,0.130075 -0.06658,0.256224 -0.125,0.375 -0.05805,0.10385 -0.06281,0.117798 -0.03125,0 l -0.156313,1.530873 c 1.11e-4,0.01042 1.11e-4,0.02083 0,0.03125 -0.0136,0.05075 -0.02935,0.02339 0,0.03125 l 8.78125,2.34375 c 0,0 -0.0703,-0.532771 -0.06244,-0.562123 l 0.25,-0.96875 c -1.11e-4,-0.01042 -1.11e-4,-0.02083 0,-0.03125 0.03411,-0.127285 0.013,-0.193103 0,-0.03125 0.007,-0.116667 0.02802,-0.232071 0.0625,-0.34375 0.09765,-0.320201 0.127612,-0.336742 0.0625,-0.09375 0.294216,-1.098031 0.16698,-2.221016 -0.28125,-3.15625 -0.05842,-0.118776 -0.100473,-0.244925 -0.125,-0.375 C 42.095196,18.863576 40.112545,16.548801 36.8125,14.8125 33.512455,13.076199 28.987729,11.96875 24,11.96875 z" transform="translate(-1.7626838e-7,4.0000004)" style="opacity:.61711713;fill:none;stroke:url(#linearGradient6199);stroke-width:1.49899399;stroke-linecap:round;stroke-linejoin:round;stroke-miterlimit:4;stroke-opacity:1;stroke-dashoffset:0"/></g><path id="path6183" d="m -25.40625,8.0625 -2.375,4.125 c 0.457297,0.501182 1.112349,0.8125 1.84375,0.8125 1.379999,0 2.499997,-1.12 2.5,-2.5 0,-1.196763 -0.845015,-2.192714 -1.96875,-2.4375 z" style="fill:url(#linearGradient6201);fill-opacity:1;stroke:none;display:inline"/><path id="path6185" d="m -44.1875,29.6875 -4.15625,2.4375 c 0.280181,1.074325 1.244558,1.875 2.40625,1.875 1.379999,0 2.499997,-1.12 2.5,-2.5 0,-0.7061 -0.278764,-1.357739 -0.75,-1.8125 z" style="fill:url(#linearGradient6203);fill-opacity:1;stroke:none;display:inline"/><path id="path6187" d="m 91.96875,6.578125 a 0.734375,0.734375 0 1 1 -1.46875,0 0.734375,0.734375 0 1 1 1.46875,0 z" transform="translate(-118.5,1.1875)" style="fill:#ecfbdd;fill-opacity:1;stroke:none"/><path id="path6189" d="m 91.96875,6.578125 a 0.734375,0.734375 0 1 1 -1.46875,0 0.734375,0.734375 0 1 1 1.46875,0 z" transform="translate(-136.96875,22.15625)" style="fill:#ecfbdd;fill-opacity:1;stroke:none;display:inline"/></g></g><g id="g22" transform="translate(303,177)" style="display:inline;enable-background:new"><g id="g2662" transform="translate(30,-1)"><g id="g6412" transform="translate(-28,2)"><rect id="rect2492" width="15.506" height="4.681" x=".175" y="15.819" style="opacity:.2;fill:url(#radialGradient6428);fill-opacity:1;stroke:none"/><g id="g6398"><g id="g2500" transform="matrix(-0.3562162,0.3562162,-0.3562162,-0.3562162,27.515344,10.354246)"><path id="path2542" d="m 24,14 c -5.303646,0 -10.15621,1.157384 -13.8125,3.09375 -3.5921579,1.902402 -6.0310705,4.597641 -6.5625,7.6875 -0.00949,0.05516 -0.054263,0.100819 -0.0625,0.15625 -0.5616663,1.298513 -0.7372588,2.781405 -0.34375,4.25 0.096588,0.360471 0.2311795,0.715066 0.375,1.03125 A 0.50193566,0.50193566 0 0 0 4.1875,30.5 l 11.40625,-3.0625 a 0.50193566,0.50193566 0 0 0 0.375,-0.5625 C 15.93682,26.545861 15.91383,26.190666 15.8125,25.8125 15.622524,25.103498 15.29073,24.473822 14.90625,23.90625 16.261027,21.720619 19.771266,20 24,20 c 4.251374,0 7.786748,1.734917 9.125,3.9375 -0.376767,0.570626 -0.72025,1.180837 -0.90625,1.875 -0.09359,0.349296 -0.152499,0.7017 -0.1875,1.0625 a 0.50193566,0.50193566 0 0 0 0.375,0.5625 L 43.8125,30.5 a 0.50193566,0.50193566 0 0 0 0.59375,-0.28125 c 0.143822,-0.316186 0.27841,-0.670785 0.375,-1.03125 0.40502,-1.511558 0.197792,-3.047133 -0.40625,-4.375 l 0.03125,0 c -0.0074,-0.04572 -0.0542,-0.07947 -0.0625,-0.125 -0.560744,-3.076812 -3.032904,-5.735038 -6.625,-7.625 C 34.073494,15.144569 29.275372,14 24,14 z" style="fill:url(#radialGradient6430);fill-opacity:1;stroke:#448705;stroke-width:1.78654456;stroke-linecap:round;stroke-linejoin:round;stroke-miterlimit:4;stroke-opacity:1;stroke-dasharray:none;stroke-dashoffset:0"/><path id="path2508" d="m 10.28125,18.03125 c -0.7076331,-0.09867 -1.4467104,-0.04224 -2.1875,0.15625 -2.9519842,0.790983 -4.6969265,3.799155 -3.90625,6.75 0.041914,0.156427 0.098507,0.315709 0.15625,0.46875 l 10.59375,-2.8125 c -0.0242,-0.184845 -0.05013,-0.368466 -0.09375,-0.53125 -0.593055,-2.213312 -2.428746,-3.733726 -4.5625,-4.03125 z" transform="translate(0,4)" style="fill:url(#radialGradient6432);fill-opacity:1;stroke:none"/><rect id="rect2502" width="12.034" height="4" x="-4.05" y="28.702" rx="1.481" ry="1.481" transform="matrix(0.9659258,-0.258819,0.258819,0.9659258,0,0)" style="fill:#8ae234;fill-opacity:1;stroke:url(#linearGradient6434);stroke-width:1.58803964;stroke-linecap:round;stroke-linejoin:miter;stroke-miterlimit:4;stroke-opacity:1;stroke-dasharray:none;stroke-dashoffset:0"/><path id="path2510" d="m 37.75,18.03125 c -2.132084,0.297292 -3.969903,1.819646 -4.5625,4.03125 -0.04755,0.177465 -0.06187,0.35027 -0.09375,0.53125 l 10.5625,2.8125 c 0.0577,-0.152925 0.114376,-0.312478 0.15625,-0.46875 0.790818,-2.951373 -0.926037,-5.959827 -3.875,-6.75 -0.740248,-0.198349 -1.480457,-0.254838 -2.1875,-0.15625 z" transform="translate(0,4)" style="fill:url(#radialGradient6436);fill-opacity:1;stroke:none"/><rect id="rect2504" width="12.034" height="4" x="-50.541" y="16.243" rx="1.481" ry="1.481" transform="matrix(-0.9659258,-0.258819,-0.258819,0.9659258,0,0)" style="fill:#8ae234;fill-opacity:1;stroke:url(#linearGradient6438);stroke-width:1.58803964;stroke-linecap:round;stroke-linejoin:miter;stroke-miterlimit:4;stroke-opacity:1;stroke-dasharray:none;stroke-dashoffset:0"/></g><path id="path2514" d="m 15.080066,2.125678 -1.196443,2.078033 c 0.23037,0.252478 0.560363,0.409309 0.928818,0.409309 0.695196,0 1.259412,-0.564217 1.259414,-1.259414 0,-0.602888 -0.42569,-1.104614 -0.991789,-1.227928 z" style="opacity:.8;fill:url(#linearGradient6442);fill-opacity:1;stroke:none;display:inline"/><path id="path2516" d="m 5.618718,13.019609 -2.093775,1.227929 c 0.141145,0.541207 0.626965,0.94456 1.212186,0.94456 0.695196,0 1.259412,-0.564217 1.259414,-1.259414 0,-0.355709 -0.140432,-0.683982 -0.377825,-0.913075 z" style="opacity:.8;fill:url(#linearGradient6444);fill-opacity:1;stroke:none;display:inline"/><path id="path2518" d="m 91.96875,6.578125 a 0.734375,0.734375 0 1 1 -1.46875,0 0.734375,0.734375 0 1 1 1.46875,0 z" transform="matrix(0.6645941,0,0,0.6808511,-46.62189,-2.478724)" style="fill:#ecfbdd;fill-opacity:1;stroke:none"/><path id="path2520" d="m 91.96875,6.578125 a 0.734375,0.734375 0 1 1 -1.46875,0 0.734375,0.734375 0 1 1 1.46875,0 z" transform="matrix(0.6808513,0,0,0.6808513,-57.617046,8.021275)" style="fill:#ecfbdd;fill-opacity:1;stroke:none;display:inline"/><path id="path2791" d="m 91.96875,6.578125 a 0.734375,0.734375 0 1 1 -1.46875,0 0.734375,0.734375 0 1 1 1.46875,0 z" transform="matrix(0.6808513,0,0,0.6808513,-51.797703,9.341781)" style="fill:#ecfbdd;fill-opacity:1;stroke:none;display:inline"/></g></g><path id="path8163" d="m -13.375,3.65625 c -0.06785,0.1205689 -0.169233,0.3535784 -0.34375,0.625 -0.02751,0.042794 -0.03091,0.048678 -0.0625,0.09375 -0.559966,0.9859836 -1.127924,1.9500382 -1.65625,2.90625 0.08532,0.08035 0.269141,0.3711069 0.4375,0.5625 0.09552,0.067999 0.44738,0.1712763 0.9375,0.46875 0.24506,0.1487369 0.556467,0.3786889 0.71875,0.78125 0.137941,0.342177 0.08052,0.7155113 0,1.0625 l 0.0625,0 c -0.0075,0.06635 -0.05299,0.121792 -0.0625,0.1875 -0.396592,2.740932 -2.445283,4.95507 -4.875,5.9375 a 0.96411183,0.96411183 0 0 1 -0.125,0.03125 c -0.229463,0.05854 -0.801585,0.261928 -1.4375,0.34375 -0.317958,0.04091 -0.678718,0.06554 -1.09375,-0.09375 -0.415032,-0.159286 -0.843837,-0.584818 -0.96875,-1.0625 A 0.96411183,0.96411183 0 0 1 -21.875,15.34375 c -0.02211,-0.221104 -0.177973,-0.289374 -0.65625,-0.625 a 0.96411183,0.96411183 0 0 1 -0.1875,-0.1875 c -0.0463,0.01762 -0.0891,0.0032 -0.125,0.03125 a 0.96411183,0.96411183 0 0 1 -0.09375,0.09375 c -1.134628,0.663506 -2.274974,1.305885 -3.375,1.96875 0.06388,0.123723 0.138961,0.378573 0.21875,0.6875 l 0.03125,0 c 0.130504,0.359281 0.776971,0.895774 1.34375,1.1875 a 0.96411183,0.96411183 0 0 1 0.03125,0 c 0.72118,0.389061 1.506767,0.646819 2.21875,0.625 a 0.96411183,0.96411183 0 0 1 0.03125,0 c 2.578219,-0.03395 4.998398,-1.455681 7.03125,-3.25 2.241228,-2.056349 4.140885,-4.63756 4.59375,-7.53125 l -0.03125,0 c 0.152837,-1.0945348 0.0078,-2.223086 -0.5625,-3.03125 a 0.96411183,0.96411183 0 0 1 -0.125,-0.1875 c -0.262213,-0.6481786 -0.785657,-1.2307368 -1.3125,-1.34375 l 0,-0.03125 c -0.09134,-0.00595 -0.212482,0.052225 -0.28125,0.03125 -0.138645,-0.042288 -0.178637,-0.08265 -0.25,-0.125 z" style="opacity:.30180179;fill:none;stroke:#fff;stroke-width:1;stroke-linecap:round;stroke-linejoin:round;stroke-miterlimit:4;stroke-opacity:1;stroke-dasharray:none;stroke-dashoffset:0;display:inline"/><path id="path8167" d="m -20.875,16.5625 c -0.415032,-0.159286 -0.843837,-0.584818 -0.96875,-1.0625 -0.01471,-0.05113 -0.02516,-0.103394 -0.03125,-0.15625 -0.02211,-0.221104 -0.177973,-0.289374 -0.65625,-0.625 -0.07084,-0.05357 -0.133934,-0.116662 -0.1875,-0.1875 -0.0463,0.01762 -0.0891,0.0032 -0.125,0.03125 -0.02906,0.03336 -0.06039,0.06469 -0.09375,0.09375 -1.134628,0.663506 -2.274974,1.305885 -3.375,1.96875 m 13.46875,-12.84375 0,-0.03125 c -0.09134,-0.00595 -0.212482,0.052225 -0.28125,0.03125 -0.138645,-0.042288 -0.178637,-0.08265 -0.25,-0.125 -0.06785,0.1205689 -0.169233,0.3535784 -0.34375,0.625 -0.02751,0.042794 -0.03091,0.048678 -0.0625,0.09375 -0.559966,0.9859836 -1.127924,1.9500382 -1.65625,2.90625 0.08532,0.08035 0.269141,0.3711069 0.4375,0.5625" style="opacity:.41891892;fill:none;stroke:#fff;stroke-width:1;stroke-linecap:round;stroke-linejoin:round;stroke-miterlimit:4;stroke-opacity:1;stroke-dashoffset:0;display:inline"/><path id="path8170" d="m -15.4375,7.28125 c 0.08532,0.08035 0.269141,0.3711069 0.4375,0.5625 0.09552,0.067999 0.44738,0.1712763 0.9375,0.46875 0.24506,0.1487369 0.556467,0.3786889 0.71875,0.78125 0.137941,0.342177 0.08052,0.7155113 0,1.0625 l 0.0625,0 c -0.0075,0.06635 -0.05299,0.121792 -0.0625,0.1875 -0.396592,2.740932 -2.445283,4.95507 -4.875,5.9375 -0.04092,0.01319 -0.08268,0.02363 -0.125,0.03125 -0.229463,0.05854 -0.801585,0.261928 -1.4375,0.34375 -0.317958,0.04091 -0.678718,0.06554 -1.09375,-0.09375 -0.415032,-0.159286 -0.843837,-0.584818 -0.96875,-1.0625 -0.01471,-0.05113 -0.02516,-0.103394 -0.03125,-0.15625" style="opacity:.56756759;fill:none;stroke:url(#radialGradient8180);stroke-width:1;stroke-linecap:round;stroke-linejoin:round;stroke-miterlimit:4;stroke-opacity:1;stroke-dashoffset:0;display:inline"/></g></g><g id="g16" transform="translate(303,219)" style="display:inline;enable-background:new"><g id="g8088" transform="translate(0,-40)"><g id="g7984" transform="matrix(-0.7503429,0.7504588,-0.6970499,-0.6971576,55.72467,96.476402)" style="fill:#c00;stroke:none;display:inline"><path id="path7986" d="m -0.5,65.5 c -3.5,0 -6.9625267,1 -6.9625267,5 0,2 4.644876,1 4.644876,0.125 0,-0.65178 0,-0.625 0,-0.625 0,-1.5 0.4644876,-1.5 2.3176507,-1.5 1.8531631,0 2.3272253,0 2.3272253,1.5 0,0 0,-0.02678 0,0.625 0,0.875 4.644876,1.875 4.644876,-0.125 0,-4 -3.4721013,-5 -6.9721013,-5 z" style="fill:url(#radialGradient8101);fill-opacity:1;stroke:none;display:inline"/></g><path id="use7988" d="m 4.5,29.5 a 1.75,1.5 0 1 1 -3.5,0 1.75,1.5 0 1 1 3.5,0 z" transform="matrix(-0.9957856,0.9959394,-1.0455751,-1.0457366,37.574644,79.074207)" style="fill:url(#radialGradient8103);fill-opacity:1;stroke:none"/><path id="path7990" d="m 4.5,29.5 a 1.75,1.5 0 1 1 -3.5,0 1.75,1.5 0 1 1 3.5,0 z" transform="matrix(-0.9957856,0.9959394,-1.0455751,-1.0457366,44.545143,72.102631)" style="fill:url(#radialGradient8105);fill-opacity:1;stroke:none;display:inline"/><path id="path7992" d="m -0.5,56.34375 c -1.6699341,0 -3.2806745,0.245927 -4.375,0.875 -1.0943255,0.629073 -1.75,1.524263 -1.75,3.28125 0,0.173794 -0.046596,0.125531 0.1875,0.21875 0.2340958,0.09322 0.7220998,0.140415 1.21875,0.09375 0.4966502,-0.04666 1.0101727,-0.201961 1.34375,-0.34375 0.1134163,-0.04821 0.1627681,-0.05832 0.21875,-0.09375 l 0,-0.375 c 0,-0.417907 0.032474,-0.762468 0.15625,-1.125 0.123776,-0.362532 0.4046286,-0.7506 0.75,-0.9375 0.6907428,-0.373801 1.3234184,-0.28125 2.25,-0.28125 0.92658155,0 1.5592572,-0.09255 2.25,0.28125 0.3453714,0.1869 0.626224,0.574968 0.75,0.9375 0.123776,0.362532 0.15625,0.707093 0.15625,1.125 l 0,0.375 c 0.055982,0.03543 0.1053337,0.04554 0.21875,0.09375 0.3335773,0.141789 0.8470998,0.297085 1.34375,0.34375 0.4966502,0.04666 0.9846542,-5.31e-4 1.21875,-0.09375 0.2340958,-0.09322 0.1875,-0.04496 0.1875,-0.21875 0,-1.756987 -0.6556745,-2.652177 -1.75,-3.28125 -1.0943255,-0.629073 -2.7050659,-0.875 -4.375,-0.875 z" transform="matrix(-0.7503429,0.7504588,-0.6970499,-0.6971576,48.754172,89.504825)" style="opacity:.3;fill:none;stroke:#fff;stroke-width:.87989759;stroke-linecap:round;stroke-linejoin:round;stroke-miterlimit:4;stroke-opacity:1;stroke-dasharray:none;stroke-dashoffset:0;display:inline"/><g id="g7994" transform="matrix(-0.7503429,0.7504588,-0.6970499,-0.6971576,38.754171,89.504826)" style="fill:none;display:inline"><path id="path7996" d="m -7.1636202,48.326913 c -3.4999998,0 -6.9625268,1 -6.9625268,5 0,2 4.6448761,1 4.6448761,0.125 0,-0.65178 0,-0.625 0,-0.625 0,-1.5 0.4644876,-1.5 2.3176507,-1.5 1.8531631,0 2.3272253,0 2.3272253,1.5 0,0 0,-0.02678 0,0.625 0,0.875 4.64487599,1.875 4.64487599,-0.125 0,-4 -3.47210129,-5 -6.97210129,-5 z" style="fill:none;stroke:#448705;stroke-width:.87989759;stroke-linecap:round;stroke-linejoin:round;stroke-miterlimit:4;stroke-opacity:1;stroke-dasharray:none;stroke-dashoffset:0;display:inline"/></g><path id="path8000" d="m 3.5,28.75 a 0.75,0.75 0 1 1 -1.5,0 0.75,0.75 0 1 1 1.5,0 z" transform="matrix(-0.9293998,0.9295434,-0.9293998,-0.9295434,40.790465,67.653909)" style="opacity:.56306308;fill:#fff;fill-opacity:1;stroke:none;display:inline"/><path id="path8067" d="m 2.65625,60.375 c 0.055982,0.03543 0.1053337,0.04554 0.21875,0.09375 0.3335773,0.141789 0.8470998,0.297085 1.34375,0.34375 0.4966502,0.04666 0.9846542,-5.31e-4 1.21875,-0.09375 C 5.6715958,60.625531 5.625,60.673794 5.625,60.5 m -12.25,0 c 0,0.173794 -0.046596,0.125531 0.1875,0.21875 0.2340958,0.09322 0.7220998,0.140415 1.21875,0.09375 0.4966502,-0.04666 1.0101727,-0.201961 1.34375,-0.34375 0.1134163,-0.04821 0.1627681,-0.05832 0.21875,-0.09375" transform="matrix(-0.7503429,0.7504588,-0.6970499,-0.6971576,48.754172,89.504825)" style="opacity:.68468472;fill:none;stroke:#fff;stroke-width:.87989759;stroke-linecap:round;stroke-linejoin:round;stroke-miterlimit:4;stroke-opacity:1;stroke-dashoffset:0;display:inline"/><path id="path8053" d="m 3.5,28.75 a 0.75,0.75 0 1 1 -1.5,0 0.75,0.75 0 1 1 1.5,0 z" transform="matrix(-0.9293998,0.9295434,-0.9293998,-0.9295434,33.790465,74.682348)" style="opacity:.56306308;fill:#fff;fill-opacity:1;stroke:none;display:inline"/><path id="path8070" d="m 9.413226,44.67007 c 0.074551,0.07456 0.18887,0.1889 0.217828,0.217862 0.026062,0.02607 0.038217,0.03822 0.043565,0.04357 0.291302,0.291347 0.507112,0.555931 0.66694,0.901561 0.159829,0.345631 0.219596,0.826944 0.09073,1.21643 -0.257736,0.778972 -0.796972,1.189246 -1.492226,1.884608 -0.695254,0.695361 -1.105465,1.234681 -1.884317,1.492456 -0.389425,0.128889 -0.870664,0.06911 -1.216241,-0.09074 -0.345577,-0.159853 -0.61012,-0.375696 -0.901422,-0.667043 -0.00535,-0.0053 -0.017504,-0.01751 -0.043566,-0.04357" style="opacity:.94144143;fill:none;stroke:url(#radialGradient8107);stroke-width:.89999998;stroke-linecap:round;stroke-linejoin:round;stroke-miterlimit:4;stroke-opacity:1;stroke-dashoffset:0;display:inline"/></g></g></g></svg>