<svg xmlns="http://www.w3.org/2000/svg" xmlns:svg="http://www.w3.org/2000/svg" xmlns:xlink="http://www.w3.org/1999/xlink" id="svg11300" width="400" height="300" version="1.0" style="display:inline;enable-background:new"><title id="title8836">Optical Drive</title><metadata id="metadata154"/><defs id="defs3"><linearGradient id="linearGradient4444"><stop id="stop4446" offset="0" style="stop-color:#000;stop-opacity:1"/><stop id="stop4448" offset="1" style="stop-color:#000;stop-opacity:0"/></linearGradient><linearGradient id="linearGradient4436"><stop id="stop4438" offset="0" style="stop-color:#000;stop-opacity:1"/><stop id="stop4440" offset="1" style="stop-color:#000;stop-opacity:0"/></linearGradient><linearGradient id="linearGradient4428"><stop id="stop4430" offset="0" style="stop-color:#000;stop-opacity:1"/><stop id="stop4432" offset="1" style="stop-color:#000;stop-opacity:0"/></linearGradient><linearGradient id="linearGradient2844"><stop id="stop2846" offset="0" style="stop-color:white;stop-opacity:1"/><stop id="stop2848" offset="1" style="stop-color:white;stop-opacity:0"/></linearGradient><linearGradient id="linearGradient2910"><stop id="stop2912" offset="0" style="stop-color:#ef2929;stop-opacity:1"/><stop id="stop2914" offset="1" style="stop-color:#c00;stop-opacity:1"/></linearGradient><linearGradient id="linearGradient2894"><stop id="stop2896" offset="0" style="stop-color:white;stop-opacity:1"/><stop id="stop2898" offset="1" style="stop-color:white;stop-opacity:.43629342"/></linearGradient><radialGradient id="radialGradient2867" cx="-51" cy="35.37" r="9" fx="-51" fy="35.37" gradientTransform="matrix(0.6111111,0,0,0.2222221,38.666667,31.140002)" gradientUnits="userSpaceOnUse" xlink:href="#linearGradient4444"/><radialGradient id="radialGradient2869" cx="-51" cy="35.37" r="9" fx="-51" fy="35.37" gradientTransform="matrix(0.6111111,0,0,0.2222221,74.666667,31.140002)" gradientUnits="userSpaceOnUse" xlink:href="#linearGradient4444"/><radialGradient id="radialGradient2871" cx="-51" cy="35.37" r="9" fx="-51" fy="35.37" gradientTransform="matrix(1,0,0,0.4033312,0,83.104189)" gradientUnits="userSpaceOnUse" xlink:href="#linearGradient4444"/><radialGradient id="radialGradient2873" cx="-21" cy="35.37" r="9" fx="-21" fy="35.37" gradientTransform="matrix(1,0,0,0.4033312,0,83.104189)" gradientUnits="userSpaceOnUse" xlink:href="#linearGradient4436"/><radialGradient id="radialGradient2875" cx="-35.782" cy="43" r="25.782" fx="-35.782" fy="43" gradientTransform="matrix(1,0,0,0.1551494,0,88.328574)" gradientUnits="userSpaceOnUse" xlink:href="#linearGradient4428"/><radialGradient id="radialGradient2877" cx="44.231" cy="1.228" r="20.989" fx="44.231" fy="1.228" gradientTransform="matrix(1.82365,0,-3.597168e-8,0.352977,-129.24312,81.94153)" gradientUnits="userSpaceOnUse" xlink:href="#linearGradient2910"/><radialGradient id="radialGradient2879" cx="5.543" cy="19.583" r="5.47" fx="5.543" fy="19.583" gradientTransform="matrix(1.172449,1.635808e-7,-1.396764e-7,1.001117,-0.689313,0.375097)" gradientUnits="userSpaceOnUse" xlink:href="#linearGradient2910"/><radialGradient id="radialGradient2881" cx="35.986" cy="19.671" r="5.456" fx="35.986" fy="19.671" gradientTransform="matrix(1.065299,0,0,1.069873,-2.349853,-1.383156)" gradientUnits="userSpaceOnUse" xlink:href="#linearGradient2910"/><radialGradient id="radialGradient2883" cx="10.714" cy="1.347" r="19.954" fx="10.714" fy="1.347" gradientTransform="matrix(2.0055393,-0.537381,0.1076452,0.4017375,-12.008424,17.149937)" gradientUnits="userSpaceOnUse" xlink:href="#linearGradient2894"/><linearGradient id="linearGradient2885" x1="8.55" x2="8.55" y1="28.997" y2="32.226" gradientUnits="userSpaceOnUse" xlink:href="#linearGradient2844"/><linearGradient id="linearGradient2887" x1="8.55" x2="8.55" y1="28.997" y2="32.226" gradientUnits="userSpaceOnUse" xlink:href="#linearGradient2844"/><radialGradient id="radialGradient2889" cx="10.714" cy="1.347" r="19.954" fx="10.714" fy="1.347" gradientTransform="matrix(2.0055393,-0.537381,0.1076452,0.4017375,-72.008424,88.149937)" gradientUnits="userSpaceOnUse" xlink:href="#linearGradient2894"/><radialGradient id="radialGradient6085" cx="-51" cy="35.37" r="9" fx="-51" fy="35.37" gradientTransform="matrix(1,0,0,0.4033312,0,83.104189)" gradientUnits="userSpaceOnUse" xlink:href="#linearGradient4444"/><radialGradient id="radialGradient6087" cx="-21" cy="35.37" r="9" fx="-21" fy="35.37" gradientTransform="matrix(1,0,0,0.4033312,0,83.104189)" gradientUnits="userSpaceOnUse" xlink:href="#linearGradient4436"/><radialGradient id="radialGradient6089" cx="-35.782" cy="43" r="25.782" fx="-35.782" fy="43" gradientTransform="matrix(1,0,0,0.1551494,0,88.328574)" gradientUnits="userSpaceOnUse" xlink:href="#linearGradient4428"/><radialGradient id="radialGradient6091" cx="44.231" cy="1.228" r="20.989" fx="44.231" fy="1.228" gradientTransform="matrix(1.82365,0,-3.597168e-8,0.352977,-129.24312,81.94153)" gradientUnits="userSpaceOnUse" xlink:href="#linearGradient2910"/><radialGradient id="radialGradient6093" cx="5.543" cy="19.583" r="5.47" fx="5.543" fy="19.583" gradientTransform="matrix(1.172449,1.635808e-7,-1.396764e-7,1.001117,-0.689313,0.375097)" gradientUnits="userSpaceOnUse" xlink:href="#linearGradient2910"/><radialGradient id="radialGradient6095" cx="35.986" cy="19.671" r="5.456" fx="35.986" fy="19.671" gradientTransform="matrix(1.065299,0,0,1.069873,-2.349853,-1.383156)" gradientUnits="userSpaceOnUse" xlink:href="#linearGradient2910"/><linearGradient id="linearGradient6099" x1="8.55" x2="8.55" y1="28.997" y2="32.226" gradientUnits="userSpaceOnUse" xlink:href="#linearGradient2844"/><linearGradient id="linearGradient6101" x1="8.55" x2="8.55" y1="28.997" y2="32.226" gradientUnits="userSpaceOnUse" xlink:href="#linearGradient2844"/><radialGradient id="radialGradient6115" cx="10.714" cy="1.347" r="19.954" fx="10.714" fy="1.347" gradientTransform="matrix(2.0055393,-0.537381,0.1076452,0.4017375,-72.008424,88.149937)" gradientUnits="userSpaceOnUse" xlink:href="#linearGradient2894"/><radialGradient id="radialGradient6210" cx="10.714" cy="1.347" r="19.954" fx="10.714" fy="1.347" gradientTransform="matrix(2.0055393,-0.537381,0.1076452,0.4017375,-72.008424,88.149937)" gradientUnits="userSpaceOnUse" xlink:href="#linearGradient2894"/><linearGradient id="linearGradient2964"><stop id="stop2966" offset="0" style="stop-color:black;stop-opacity:1"/><stop id="stop2968" offset="1" style="stop-color:black;stop-opacity:0"/></linearGradient><radialGradient id="radialGradient6465" cx="24.218" cy="29" r="24.218" fx="24.218" fy="29" gradientTransform="matrix(0.2163844,0,0,9.2904069e-2,13.206521,15.05577)" gradientUnits="userSpaceOnUse" xlink:href="#linearGradient2964"/><radialGradient id="radialGradient6467" cx="24.218" cy="29" r="24.218" fx="24.218" fy="29" gradientTransform="matrix(0.2163844,0,0,9.2904069e-2,-1.6875011,15.05577)" gradientUnits="userSpaceOnUse" xlink:href="#linearGradient2964"/><radialGradient id="radialGradient6469" cx="24.218" cy="29" r="24.218" fx="24.218" fy="29" gradientTransform="matrix(0.3201244,0,0,7.2258703e-2,3.4941895,13.654488)" gradientUnits="userSpaceOnUse" xlink:href="#linearGradient2964"/><linearGradient id="linearGradient6471" x1="92.587" x2="92.587" y1="6.541" y2="10.352" gradientTransform="matrix(-0.3562161,-0.3562161,0.3562161,-0.3562161,32.788047,51.249814)" gradientUnits="userSpaceOnUse" xlink:href="#linearGradient2844"/><linearGradient id="linearGradient6473" x1="72.375" x2="72.375" y1="28.301" y2="31.376" gradientTransform="matrix(-0.3562161,-0.3562161,0.3562161,-0.3562161,32.788047,51.249814)" gradientUnits="userSpaceOnUse" xlink:href="#linearGradient2844"/><radialGradient id="radialGradient6475" cx="13.566" cy="4.124" r="20.989" fx="13.566" fy="4.124" gradientTransform="matrix(1.82365,0,-3.597168e-8,0.352977,-130.24312,81.94153)" gradientUnits="userSpaceOnUse" xlink:href="#linearGradient2910"/><radialGradient id="radialGradient6477" cx="5.543" cy="19.583" r="5.47" fx="5.543" fy="19.583" gradientTransform="matrix(1.172449,1.635808e-7,-1.396764e-7,1.001117,-0.689313,0.375097)" gradientUnits="userSpaceOnUse" xlink:href="#linearGradient2910"/><radialGradient id="radialGradient6479" cx="35.986" cy="19.671" r="5.456" fx="35.986" fy="19.671" gradientTransform="matrix(1.065299,0,0,1.069873,-2.349853,-1.383156)" gradientUnits="userSpaceOnUse" xlink:href="#linearGradient2910"/><radialGradient id="radialGradient6481" cx="10.714" cy="1.347" r="19.954" fx="10.714" fy="1.347" gradientTransform="matrix(2.005539,-0.537382,9.849159e-2,0.367575,-11.99609,17.19597)" gradientUnits="userSpaceOnUse" xlink:href="#linearGradient2894"/><linearGradient id="linearGradient6483" x1="8.55" x2="8.55" y1="28.997" y2="32.226" gradientUnits="userSpaceOnUse" xlink:href="#linearGradient2844"/><linearGradient id="linearGradient6485" x1="8.55" x2="8.55" y1="28.997" y2="32.226" gradientUnits="userSpaceOnUse" xlink:href="#linearGradient2844"/><linearGradient id="linearGradient7974"><stop id="stop7976" offset="0" style="stop-color:#fff;stop-opacity:1"/><stop id="stop7978" offset="1" style="stop-color:#fff;stop-opacity:0"/></linearGradient><linearGradient id="linearGradient7966"><stop id="stop7968" offset="0" style="stop-color:#fff;stop-opacity:1"/><stop id="stop7970" offset="1" style="stop-color:#fff;stop-opacity:0"/></linearGradient><linearGradient id="linearGradient7944"><stop id="stop7946" offset="0" style="stop-color:#fff;stop-opacity:1"/><stop id="stop7948" offset="1" style="stop-color:#ef2929;stop-opacity:0"/></linearGradient><linearGradient id="linearGradient7921"><stop id="stop7923" offset="0" style="stop-color:#ef2929;stop-opacity:1"/><stop id="stop7925" offset="1" style="stop-color:#c00;stop-opacity:1"/></linearGradient><linearGradient id="linearGradient7589"><stop id="stop7591" offset="0" style="stop-color:#ef2929;stop-opacity:1"/><stop id="stop7593" offset="1" style="stop-color:#c00;stop-opacity:1"/></linearGradient><radialGradient id="radialGradient8122" cx="-.824" cy="69.481" r="6.967" fx="-.824" fy="69.481" gradientTransform="matrix(0.8697734,-0.1649201,4.9824296e-2,0.3044848,-3.5691186,47.688095)" gradientUnits="userSpaceOnUse" xlink:href="#linearGradient7921"/><radialGradient id="radialGradient8126" cx="-3.403" cy="53.837" r="6.563" fx="-3.403" fy="53.837" gradientTransform="matrix(1.7524516,0,0,0.9356785,2.5606285,6.2821263)" gradientUnits="userSpaceOnUse" xlink:href="#linearGradient7944"/><linearGradient id="linearGradient8128" x1="2.75" x2="3.125" y1="28.375" y2="29.5" gradientUnits="userSpaceOnUse" xlink:href="#linearGradient7966"/><linearGradient id="linearGradient8130" x1="2.75" x2="3.125" y1="28.375" y2="29.5" gradientUnits="userSpaceOnUse" xlink:href="#linearGradient7974"/><radialGradient id="radialGradient2999" cx="2.002" cy="28.565" r="1.75" fx="2.002" fy="28.565" gradientTransform="matrix(1.4277134,0,0,0.6733297,-0.9034566,9.4649603)" gradientUnits="userSpaceOnUse" xlink:href="#linearGradient7589"/></defs><g id="layer6" style="display:none"><rect id="rect6284" width="48" height="48" x="296" y="50" style="fill:#eeeeec;fill-opacity:1;fill-rule:nonzero;stroke:none;stroke-width:2;marker:none;visibility:visible;display:inline;overflow:visible;enable-background:accumulate"/><rect id="rect6592" width="32" height="32" x="303" y="126" style="fill:#eeeeec;fill-opacity:1;fill-rule:nonzero;stroke:none;stroke-width:2;marker:none;visibility:visible;display:inline;overflow:visible;enable-background:accumulate"/><rect id="rect6749" width="22" height="22" x="303" y="177" style="fill:#eeeeec;fill-opacity:1;fill-rule:nonzero;stroke:none;stroke-width:2;marker:none;visibility:visible;display:inline;overflow:visible;enable-background:accumulate"/><rect id="rect6833" width="16" height="16" x="303" y="219" style="fill:#eeeeec;fill-opacity:1;fill-rule:nonzero;stroke:none;stroke-width:2;marker:none;visibility:visible;display:inline;overflow:visible;enable-background:accumulate"/><text id="context" x="20.971" y="21.514" xml:space="preserve" style="font-size:18.30070686px;font-style:normal;font-weight:400;fill:#000;fill-opacity:1;stroke:none;display:inline;enable-background:new;font-family:Bitstream Vera Sans"><tspan id="tspan2716" x="20.971" y="21.514">actions</tspan></text><text id="icon-name" x="191.971" y="21.514" xml:space="preserve" style="font-size:18.30070686px;font-style:normal;font-variant:normal;font-weight:700;font-stretch:normal;text-align:start;line-height:125%;writing-mode:lr-tb;text-anchor:start;fill:#000;fill-opacity:1;stroke:none;display:inline;enable-background:new;font-family:Droid Sans;-inkscape-font-specification:Droid Sans Bold"><tspan id="tspan3023" x="191.971" y="21.514">call-stop</tspan></text></g><g id="layer2" style="display:inline"><g id="g48" transform="translate(296,50)" style="display:inline;enable-background:new"><g id="g2850" transform="translate(-1,0)"><rect id="rect6289" width="11" height="4" x="2" y="37" style="opacity:.2;fill:url(#radialGradient2867);fill-opacity:1;stroke:none;display:inline"/><rect id="rect6293" width="11" height="4" x="38" y="37" style="opacity:.2;fill:url(#radialGradient2869);fill-opacity:1;stroke:none;display:inline"/><g id="g6045" transform="translate(61,-60)"><rect id="rect3075" width="18" height="7.26" x="-60" y="93.74" style="opacity:.2;fill:url(#radialGradient2871);fill-opacity:1;stroke:none;display:inline"/><rect id="rect3083" width="18" height="7.26" x="-30" y="93.74" style="opacity:.2;fill:url(#radialGradient2873);fill-opacity:1;stroke:none;display:inline"/><rect id="rect2954" width="51.563" height="8" x="-61.563" y="91" style="opacity:.06756759;fill:url(#radialGradient2875);fill-opacity:1;stroke:none"/><rect id="rect2814" width="12.034" height="4" x="-79.23" y="77.215" rx="1.481" ry="1.481" transform="matrix(0.9659258,-0.258819,0.258819,0.9659258,0,0)" style="fill:#c00;fill-opacity:1;stroke:#a40000;stroke-width:1.0000037;stroke-linecap:round;stroke-linejoin:miter;stroke-miterlimit:4;stroke-opacity:1;stroke-dasharray:none;stroke-dashoffset:0"/><rect id="rect2828" width="12.034" height="4" x="-9.69" y="95.846" rx="1.481" ry="1.481" transform="matrix(-0.9659258,-0.258819,-0.258819,0.9659258,0,0)" style="fill:#c00;fill-opacity:1;stroke:#a40000;stroke-width:1.00000358;stroke-linecap:round;stroke-linejoin:miter;stroke-miterlimit:4;stroke-opacity:1;stroke-dasharray:none;stroke-dashoffset:0"/><path id="path2759" d="m -36,81.5 c -10.459658,0 -19.063005,4.615197 -19.9375,10.5 -0.567975,1.229253 -0.721359,2.653245 -0.34375,4.0625 0.08746,0.326399 0.208284,0.639683 0.34375,0.9375 l 11.40625,-3.0625 c -0.03159,-0.32565 -0.06879,-0.673601 -0.15625,-1 -0.208191,-0.776981 -0.57202,-1.459609 -1.03125,-2.0625 1.377683,-2.550297 5.206613,-4.375 9.71875,-4.375 4.512138,0 8.341068,1.824703 9.71875,4.375 -0.457667,0.601943 -0.792292,1.287323 -1,2.0625 -0.08746,0.326399 -0.155909,0.674351 -0.1875,1 L -16.0625,97 c 0.135466,-0.297817 0.256289,-0.611102 0.34375,-0.9375 0.385521,-1.438785 0.222381,-2.90981 -0.375,-4.15625 C -17.045278,86.066284 -25.596108,81.5 -36,81.5 z" style="fill:url(#radialGradient2877);fill-opacity:1;stroke:#a40000;stroke-width:1;stroke-linecap:round;stroke-linejoin:miter;stroke-miterlimit:4;stroke-opacity:1;stroke-dasharray:none;stroke-dashoffset:0"/><path id="path2855" d="m 10.28125,18.03125 c -0.7076331,-0.09867 -1.4467104,-0.04224 -2.1875,0.15625 -2.9519842,0.790983 -4.6969265,3.799155 -3.90625,6.75 0.041914,0.156427 0.098507,0.315709 0.15625,0.46875 l 10.59375,-2.8125 c -0.0242,-0.184845 -0.05013,-0.368466 -0.09375,-0.53125 -0.593055,-2.213312 -2.428746,-3.733726 -4.5625,-4.03125 z" transform="translate(-60,71)" style="fill:url(#radialGradient2879);fill-opacity:1;stroke:none"/><path id="path2875" d="m 37.75,18.03125 c -2.132084,0.297292 -3.969903,1.819646 -4.5625,4.03125 -0.04755,0.177465 -0.06187,0.35027 -0.09375,0.53125 l 10.5625,2.8125 c 0.0577,-0.152925 0.114376,-0.312478 0.15625,-0.46875 0.790818,-2.951373 -0.926037,-5.959827 -3.875,-6.75 -0.740248,-0.198349 -1.480457,-0.254838 -2.1875,-0.15625 z" transform="translate(-60,71)" style="fill:url(#radialGradient2881);fill-opacity:1;stroke:none"/><path id="path2892" d="m 24,11.53125 c -5.078343,0 -9.708139,1.144485 -13.09375,2.9375 -3.3856109,1.793015 -5.4416808,4.192119 -5.8125,6.6875 A 1.0300627,1.0300627 0 0 1 5,21.4375 c -0.4705562,1.018412 -0.5959184,2.169392 -0.28125,3.34375 -0.041434,-0.154633 -0.011095,-0.11633 0.0625,0.125 0.025041,0.08211 -0.00749,0.06629 0,0.125 a 1.0300627,1.0300627 0 0 1 0,0.03125 c 0.00332,0.04069 0.033013,0.06588 0.03125,0.09375 -0.00703,-0.08744 1.453e-4,-0.02233 0.03125,0.09375 a 1.0300627,1.0300627 0 0 1 0,0.03125 l 0.25,0.96875 c 0.068492,0.255614 0.260584,0.385025 0.53125,0.3125 a 1.0300627,1.0300627 0 0 1 0.03125,0 l 8.75,-2.34375 c 0.255614,-0.06849 0.385025,-0.260583 0.3125,-0.53125 a 1.0300627,1.0300627 0 0 1 0,-0.03125 l -0.25,-0.96875 0,-0.03125 c 9.03e-4,0.0084 0.01431,0.02884 -0.03125,-0.0625 a 1.0300627,1.0300627 0 0 1 -0.09375,-0.25 c -0.03883,-0.184053 -0.05693,-0.220826 -0.03125,-0.125 C 14.142918,21.58586 13.85979,21.01337 13.46875,20.5 A 1.0300627,1.0300627 0 0 1 13.375,19.375 c 1.659329,-3.071665 5.835187,-4.90625 10.625,-4.90625 4.789814,0 8.965672,1.834585 10.625,4.90625 A 1.0300627,1.0300627 0 0 1 34.53125,20.5 c -0.376083,0.49464 -0.637086,1.064097 -0.8125,1.71875 -0.0053,0.01967 -0.01847,0.04236 -0.03125,0.09375 a 1.0300627,1.0300627 0 0 1 -0.09375,0.25 c -0.04667,0.08349 -0.06329,0.101454 -0.0625,0.09375 l 0,0.03125 -0.25,0.96875 a 1.0300627,1.0300627 0 0 1 0,0.03125 c -0.07252,0.270666 0.05689,0.462759 0.3125,0.53125 l 8.75,2.34375 a 1.0300627,1.0300627 0 0 1 0.03125,0 c 0.270668,0.07252 0.462758,-0.05689 0.53125,-0.3125 l 0.25,-0.96875 a 1.0300627,1.0300627 0 0 1 0,-0.03125 c 0.0311,-0.116081 0.03828,-0.181191 0.03125,-0.09375 a 1.0300627,1.0300627 0 0 1 0.03125,-0.25 c 0.07359,-0.241318 0.103931,-0.279617 0.0625,-0.125 0.321296,-1.199093 0.179965,-2.409967 -0.3125,-3.4375 A 1.0300627,1.0300627 0 0 1 42.875,21.0625 C 42.471132,18.583777 40.407544,16.213918 37.03125,14.4375 33.654956,12.661082 29.051262,11.53125 24,11.53125 z" transform="translate(-60,71)" style="opacity:.34234236;fill:none;stroke:url(#radialGradient2883);stroke-width:1;stroke-linecap:round;stroke-linejoin:miter;stroke-miterlimit:4;stroke-opacity:1;stroke-dasharray:none;stroke-dashoffset:0"/><path id="path2852" d="m 11.755651,30.852661 a 2.9831069,1.8561553 0 1 1 -5.9662139,0 2.9831069,1.8561553 0 1 1 5.9662139,0 z" transform="matrix(1,0,0,1.077496,-31.25565,58.756381)" style="opacity:.5;fill:url(#linearGradient2885);fill-opacity:1;stroke:none;display:inline"/><path id="path2861" d="m 11.755651,30.852661 a 2.9831069,1.8561553 0 1 1 -5.9662139,0 2.9831069,1.8561553 0 1 1 5.9662139,0 z" transform="matrix(1,0,0,1.077496,-60.25565,58.756381)" style="opacity:.5;fill:url(#linearGradient2887);fill-opacity:1;stroke:none;display:inline"/><path id="path2793" d="m -17.65625,97.5625 c 0.270668,0.07252 0.494008,-0.05688 0.5625,-0.3125 l 0.25,-0.96875 c -1.58e-4,-0.01042 -1.58e-4,-0.02083 0,-0.03125 0.0311,-0.116081 0.03828,-0.181191 0.03125,-0.09375 1.48e-4,-0.0843 0.01064,-0.168259 0.03125,-0.25 0.07359,-0.241318 0.103931,-0.279617 0.0625,-0.125 0.321296,-1.199093 0.179965,-2.409967 -0.3125,-3.4375 -0.04465,-0.08874 -0.07623,-0.18347 -0.09375,-0.28125 -0.403868,-2.478723 -2.467456,-4.848582 -5.84375,-6.625 -3.376294,-1.776418 -7.979988,-2.90625 -13.03125,-2.90625 -5.078343,0 -9.708139,1.144485 -13.09375,2.9375 -3.385611,1.793015 -5.441681,4.192119 -5.8125,6.6875 -0.01752,0.09778 -0.0491,0.192511 -0.09375,0.28125 -0.470556,1.018412 -0.595918,2.169392 -0.28125,3.34375 -0.04143,-0.154633 -0.01109,-0.11633 0.0625,0.125 0.02504,0.08211 -0.0075,0.06629 0,0.125 1.58e-4,0.01042 1.58e-4,0.02083 0,0.03125 0.0033,0.0407 0.03301,0.06588 0.03125,0.09375 -0.007,-0.08744 1.45e-4,-0.02233 0.03125,0.09375 1.58e-4,0.01042 1.58e-4,0.02083 0,0.03125 l 0.25,1 c 0.06849,0.255614 0.260584,0.353775 0.53125,0.28125" style="opacity:.2342342;fill:none;stroke:url(#radialGradient2889);stroke-width:1;stroke-linecap:round;stroke-linejoin:miter;stroke-miterlimit:4;stroke-opacity:1;stroke-dashoffset:0;display:inline"/></g></g></g><g id="g32" transform="translate(303,126)" style="display:inline;enable-background:new"><g id="g6059" transform="matrix(0.6603451,0,0,0.6603451,39.84661,-40.287916)" style="display:inline"><rect id="rect6061" width="18" height="7.26" x="-60" y="93.74" style="opacity:.2;fill:url(#radialGradient6085);fill-opacity:1;stroke:none;display:inline"/><rect id="rect6063" width="18" height="7.26" x="-30" y="93.74" style="opacity:.2;fill:url(#radialGradient6087);fill-opacity:1;stroke:none;display:inline"/><rect id="rect6065" width="51.563" height="8" x="-61.563" y="91" style="opacity:.06756759;fill:url(#radialGradient6089);fill-opacity:1;stroke:none"/><rect id="rect6067" width="12.034" height="4" x="-79.23" y="77.215" rx="1.481" ry="1.481" transform="matrix(0.9659258,-0.258819,0.258819,0.9659258,0,0)" style="fill:#c00;fill-opacity:1;stroke:#a40000;stroke-width:1.5143652;stroke-linecap:round;stroke-linejoin:miter;stroke-miterlimit:4;stroke-opacity:1;stroke-dasharray:none;stroke-dashoffset:0"/><rect id="rect6069" width="12.034" height="4" x="-9.69" y="95.846" rx="1.481" ry="1.481" transform="matrix(-0.9659258,-0.258819,-0.258819,0.9659258,0,0)" style="fill:#c00;fill-opacity:1;stroke:#a40000;stroke-width:1.51436508;stroke-linecap:round;stroke-linejoin:miter;stroke-miterlimit:4;stroke-opacity:1;stroke-dasharray:none;stroke-dashoffset:0"/><path id="path6071" d="m -36,81.5 c -10.459658,0 -19.063005,4.615197 -19.9375,10.5 -0.567975,1.229253 -0.721359,2.653245 -0.34375,4.0625 0.08746,0.326399 0.208284,0.639683 0.34375,0.9375 l 11.40625,-3.0625 c -0.03159,-0.32565 -0.06879,-0.673601 -0.15625,-1 -0.208191,-0.776981 -0.57202,-1.459609 -1.03125,-2.0625 1.377683,-2.550297 5.206613,-4.375 9.71875,-4.375 4.512138,0 8.341068,1.824703 9.71875,4.375 -0.457667,0.601943 -0.792292,1.287323 -1,2.0625 -0.08746,0.326399 -0.155909,0.674351 -0.1875,1 L -16.0625,97 c 0.135466,-0.297817 0.256289,-0.611102 0.34375,-0.9375 0.385521,-1.438785 0.222381,-2.90981 -0.375,-4.15625 C -17.045278,86.066284 -25.596108,81.5 -36,81.5 z" style="fill:url(#radialGradient6091);fill-opacity:1;stroke:#a40000;stroke-width:1.36292374;stroke-linecap:round;stroke-linejoin:miter;stroke-miterlimit:4;stroke-opacity:1;stroke-dasharray:none;stroke-dashoffset:0"/><path id="path6073" d="m 10.28125,18.03125 c -0.7076331,-0.09867 -1.4467104,-0.04224 -2.1875,0.15625 -2.9519842,0.790983 -4.6969265,3.799155 -3.90625,6.75 0.041914,0.156427 0.098507,0.315709 0.15625,0.46875 l 10.59375,-2.8125 c -0.0242,-0.184845 -0.05013,-0.368466 -0.09375,-0.53125 -0.593055,-2.213312 -2.428746,-3.733726 -4.5625,-4.03125 z" transform="translate(-60,71)" style="fill:url(#radialGradient6093);fill-opacity:1;stroke:none"/><path id="path6075" d="m 37.75,18.03125 c -2.132084,0.297292 -3.969903,1.819646 -4.5625,4.03125 -0.04755,0.177465 -0.06187,0.35027 -0.09375,0.53125 l 10.5625,2.8125 c 0.0577,-0.152925 0.114376,-0.312478 0.15625,-0.46875 0.790818,-2.951373 -0.926037,-5.959827 -3.875,-6.75 -0.740248,-0.198349 -1.480457,-0.254838 -2.1875,-0.15625 z" transform="translate(-60,71)" style="fill:url(#radialGradient6095);fill-opacity:1;stroke:none"/><path id="path6077" d="m -36,83.09375 c -4.993143,0 -9.529249,1.136195 -12.8125,2.875 -3.28325,1.738805 -5.197792,4.037288 -5.53125,6.28125 -0.02074,0.151017 -0.06282,0.298322 -0.125,0.4375 -0.415764,0.899827 -0.529268,1.926505 -0.25,2.96875 -0.07302,-0.27253 -0.07444,-0.252811 0.03125,0.09375 0.0066,0.02167 -0.0057,0.01067 0,0.03125 0.01299,0.05154 0.02342,0.103683 0.03125,0.15625 0.0141,0.06183 0.02454,0.124439 0.03125,0.1875 -0.015,-0.186702 -0.0039,-0.131031 0.03125,0 1.01e-4,0.01042 1.01e-4,0.02083 0,0.03125 l 0.21875,0.8125 8.5,-2.28125 -0.21875,-0.84375 c -0.05692,-0.119389 -0.0989,-0.245339 -0.125,-0.375 -0.05329,-0.252594 -0.08056,-0.309012 -0.03125,-0.125 -0.147867,-0.551849 -0.397312,-1.03698 -0.75,-1.5 -0.370724,-0.500468 -0.419411,-1.169909 -0.125,-1.71875 1.817736,-3.3649 6.179012,-5.21875 11.125,-5.21875 4.945989,0 9.307265,1.853849 11.125,5.21875 0.294411,0.548841 0.245724,1.218282 -0.125,1.71875 -0.330197,0.434289 -0.5615,0.913134 -0.71875,1.5 -0.002,0.0075 -0.01713,0.037 -0.03125,0.09375 -0.03603,0.131098 -0.08854,0.257102 -0.15625,0.375 l -0.21875,0.875 8.5,2.28125 0.21875,-0.8125 c -1.01e-4,-0.01042 -1.01e-4,-0.02083 0,-0.03125 0.03511,-0.131026 0.04625,-0.186703 0.03125,0 0.0059,-0.12703 0.02692,-0.252908 0.0625,-0.375 0.105682,-0.346543 0.10427,-0.366254 0.03125,-0.09375 0.285173,-1.064282 0.183457,-2.158088 -0.25,-3.0625 -0.07297,-0.137509 -0.125599,-0.284877 -0.15625,-0.4375 -0.363431,-2.230543 -2.287917,-4.495847 -5.5625,-6.21875 -3.274583,-1.722903 -7.783487,-2.84375 -12.75,-2.84375 z" style="opacity:.27477477;fill:none;stroke:url(#radialGradient6210);stroke-width:1.51435959;stroke-linecap:round;stroke-linejoin:miter;stroke-miterlimit:4;stroke-opacity:1;stroke-dashoffset:0"/><path id="path6079" d="m 11.755651,30.852661 a 2.9831069,1.8561553 0 1 1 -5.9662139,0 2.9831069,1.8561553 0 1 1 5.9662139,0 z" transform="matrix(1,0,0,1.077496,-31.25565,58.756381)" style="opacity:.5;fill:url(#linearGradient6099);fill-opacity:1;stroke:none;display:inline"/><path id="path6081" d="m 11.755651,30.852661 a 2.9831069,1.8561553 0 1 1 -5.9662139,0 2.9831069,1.8561553 0 1 1 5.9662139,0 z" transform="matrix(1,0,0,1.077496,-60.25565,58.756381)" style="opacity:.5;fill:url(#linearGradient6101);fill-opacity:1;stroke:none;display:inline"/><g id="g6105"><path id="path6110" d="m -17.65625,97.03125 c 0.03119,-0.0028 0.06256,-0.0028 0.09375,0 l 0.1875,-0.75 c -2.4e-4,-0.0158 -2.4e-4,-0.01545 0,-0.03125 0.0053,-0.04278 0.01581,-0.08475 0.03125,-0.125 9.33e-4,-0.04229 -0.0044,-0.08298 0,-0.125 0.0026,-0.01065 5.03e-4,0.01566 0.03125,-0.0625 0.0077,-0.05225 -0.01293,-0.10495 0,-0.15625 0.01,-0.01085 0.02041,-0.02127 0.03125,-0.03125 0.02023,-0.06633 0.0147,-0.109927 0.03125,-0.15625 0.0063,-0.01771 0.02615,-0.04775 0.03125,-0.0625 0.245833,-1.033009 0.140816,-2.088105 -0.28125,-2.96875 -0.06772,-0.13459 -0.12967,-0.257948 -0.15625,-0.40625 -0.366251,-2.247849 -2.279743,-4.522796 -5.5625,-6.25 C -26.500905,84.179363 -31.028104,83.0625 -36,83.0625 c -4.998376,0 -9.552709,1.132069 -12.84375,2.875 -3.290842,1.742825 -5.195186,4.050997 -5.53125,6.3125 -0.02658,0.148302 -0.08853,0.30291 -0.15625,0.4375 -0.404851,0.876208 -0.492333,1.833971 -0.25,2.84375 0.0051,0.01475 0.02492,0.04479 0.03125,0.0625 0.01655,0.04632 0.01102,0.08992 0.03125,0.15625 0.0094,0.03093 -0.0039,0.0786 0,0.125 6.9e-5,1.42e-4 0.02741,0.05273 0.03125,0.0625 0.0034,0.0083 -0.0038,0.01887 0,0.03125 0.0044,0.01527 0.0297,0.02486 0.03125,0.03125 0.01031,0.04261 -0.01176,0.08111 0,0.125 3.06e-4,0.01041 3.06e-4,0.02084 0,0.03125 0.01177,0.02013 0.02221,0.041 0.03125,0.0625 l 0.21875,0.8125 c 0.01041,-3.06e-4 0.02084,-3.06e-4 0.03125,0" style="opacity:.44144143;fill:none;stroke:url(#radialGradient6115);stroke-width:1.51435959;stroke-linecap:round;stroke-linejoin:miter;stroke-miterlimit:4;stroke-opacity:1;stroke-dashoffset:0;display:inline"/></g></g></g><g id="g22" transform="translate(303,177)" style="display:inline;enable-background:new"><g id="g6446" transform="translate(0,-70)"><g id="g4644" transform="translate(0,70)"><rect id="rect4636" width="10.481" height="4.5" x="13.207" y="15.5" style="opacity:.13999999;fill:url(#radialGradient6465);fill-opacity:1;stroke:none;display:inline"/><rect id="rect4640" width="10.481" height="4.5" x="-1.688" y="15.5" style="opacity:.13999999;fill:url(#radialGradient6467);fill-opacity:1;stroke:none;display:inline"/><rect id="rect4628" width="15.506" height="3.5" x="3.494" y="14" style="opacity:.1;fill:url(#radialGradient6469);fill-opacity:1;stroke:none;display:inline"/><path id="path4032" d="m 1.964224,16.106872 2.3154043,-0.623379 c 0.015633,-0.341425 -0.1068109,-0.685662 -0.367348,-0.946199 -0.4915778,-0.491578 -1.2895009,-0.491577 -1.7810804,0 C 1.7048936,14.9636 1.6511282,15.619382 1.964224,16.106872 z" style="opacity:.8;fill:url(#linearGradient6471);fill-opacity:1;stroke:none;display:inline"/><path id="path4034" d="m 16.35758,15.093882 2.3488,0.612246 c 0.282886,-0.482496 0.224573,-1.111236 -0.18924,-1.52505 -0.491578,-0.491577 -1.289501,-0.491577 -1.78108,0 -0.251525,0.251525 -0.384348,0.582949 -0.37848,0.912804 z" style="opacity:.8;fill:url(#linearGradient6473);fill-opacity:1;stroke:none;display:inline"/><path id="path4036" d="m 91.96875,6.578125 a 0.734375,0.734375 0 1 1 -1.46875,0 0.734375,0.734375 0 1 1 1.46875,0 z" transform="matrix(-0.469939,-0.469939,0.4814344,-0.4814344,42.338293,62.992548)" style="fill:#ecfbdd;fill-opacity:1;stroke:none"/><path id="path4038" d="m 91.96875,6.578125 a 0.734375,0.734375 0 1 1 -1.46875,0 0.734375,0.734375 0 1 1 1.46875,0 z" transform="matrix(-0.4814346,-0.4814346,0.4814346,-0.4814346,57.537663,63.342677)" style="fill:#ecfbdd;fill-opacity:1;stroke:none;display:inline"/></g><g id="g4611" transform="matrix(0.5125654,0,0,0.5269462,29.9657,35.54972)"><rect id="rect4549" width="12.034" height="4" x="-80.196" y="76.956" rx="1.481" ry="1.481" transform="matrix(0.9659258,-0.258819,0.258819,0.9659258,0,0)" style="fill:#c00;fill-opacity:1;stroke:#a40000;stroke-width:1.92417181;stroke-linecap:round;stroke-linejoin:miter;stroke-miterlimit:4;stroke-opacity:1;stroke-dasharray:none;stroke-dashoffset:0"/><rect id="rect4551" width="12.034" height="4" x="-8.724" y="96.105" rx="1.481" ry="1.481" transform="matrix(-0.9659258,-0.258819,-0.258819,0.9659258,0,0)" style="fill:#c00;fill-opacity:1;stroke:#a40000;stroke-width:1.92417157;stroke-linecap:round;stroke-linejoin:miter;stroke-miterlimit:4;stroke-opacity:1;stroke-dasharray:none;stroke-dashoffset:0"/><path id="path4553" d="m -37,81.5 c -10.459658,0 -19.063005,4.615197 -19.9375,10.5 -0.567975,1.229253 -0.721359,2.653245 -0.34375,4.0625 0.08746,0.326399 0.208284,0.639683 0.34375,0.9375 l 11.40625,-3.0625 c -0.03159,-0.32565 -0.06879,-0.673601 -0.15625,-1 -0.208191,-0.776981 -0.57202,-1.459609 -1.03125,-2.0625 1.377683,-2.550297 5.206613,-4.375 9.71875,-4.375 4.512138,0 8.341068,1.824703 9.71875,4.375 -0.457667,0.601943 -0.792292,1.287323 -1,2.0625 -0.08746,0.326399 -0.155909,0.674351 -0.1875,1 L -17.0625,97 c 0.135466,-0.297817 0.256289,-0.611102 0.34375,-0.9375 0.385521,-1.438785 0.222381,-2.90981 -0.375,-4.15625 C -18.045278,86.066284 -26.596108,81.5 -37,81.5 z" style="fill:url(#radialGradient6475);fill-opacity:1;stroke:#a40000;stroke-width:1.92416465;stroke-linecap:round;stroke-linejoin:miter;stroke-miterlimit:4;stroke-opacity:1;stroke-dasharray:none;stroke-dashoffset:0"/><path id="path4555" d="m 10.28125,18.03125 c -0.7076331,-0.09867 -1.4467104,-0.04224 -2.1875,0.15625 -2.9519842,0.790983 -4.6969265,3.799155 -3.90625,6.75 0.041914,0.156427 0.098507,0.315709 0.15625,0.46875 l 10.59375,-2.8125 c -0.0242,-0.184845 -0.05013,-0.368466 -0.09375,-0.53125 -0.593055,-2.213312 -2.428746,-3.733726 -4.5625,-4.03125 z" transform="translate(-61,71)" style="fill:url(#radialGradient6477);fill-opacity:1;stroke:none"/><path id="path4557" d="m 37.75,18.03125 c -2.132084,0.297292 -3.969903,1.819646 -4.5625,4.03125 -0.04755,0.177465 -0.06187,0.35027 -0.09375,0.53125 l 10.5625,2.8125 c 0.0577,-0.152925 0.114376,-0.312478 0.15625,-0.46875 0.790818,-2.951373 -0.926037,-5.959827 -3.875,-6.75 -0.740248,-0.198349 -1.480457,-0.254838 -2.1875,-0.15625 z" transform="translate(-61,71)" style="fill:url(#radialGradient6479);fill-opacity:1;stroke:none"/><path id="path4559" d="m 35.28125,21.0625 c -0.303335,0.398959 -0.540883,0.827816 -0.6875,1.375 -1.13e-4,4.23e-4 0.0149,0.03387 0,0.09375 -0.05425,0.154443 -0.127746,0.301434 -0.21875,0.4375 8.4e-5,0.01042 8.4e-5,0.02083 0,0.03125 l -0.125,0.46875 7.90625,2.09375 0.125,-0.46875 c -8.4e-5,-0.01042 -8.4e-5,-0.02083 0,-0.03125 -8.4e-5,-0.01042 -8.4e-5,-0.02083 0,-0.03125 0.0086,-0.126738 0.02949,-0.252336 0.0625,-0.375 0.124467,-0.408142 0.154012,-0.435266 0.0625,-0.09375 0.264027,-0.985364 0.148914,-1.980164 -0.25,-2.8125 -0.0879,-0.167066 -0.151064,-0.346019 -0.1875,-0.53125 C 41.628991,19.133492 39.808791,16.941576 36.59375,15.25 33.378709,13.558424 28.9169,12.4375 24,12.4375 c -4.943266,0 -9.432921,1.105429 -12.65625,2.8125 C 8.1204212,16.957071 6.3115862,19.18447 6,21.28125 c -0.026527,0.183619 -0.079142,0.362508 -0.15625,0.53125 -0.3836892,0.830408 -0.5085455,1.785095 -0.25,2.75 -0.091517,-0.341547 -0.061972,-0.314414 0.0625,0.09375 0.014546,0.07227 0.024979,0.145301 0.03125,0.21875 0.014546,0.07227 0.024979,0.145301 0.03125,0.21875 L 5.84375,25.5625 13.75,23.46875 13.59375,22.875 c 0.06623,0.247181 0.0839,0.293216 0,0.125 -0.07176,-0.148987 -0.124269,-0.306503 -0.15625,-0.46875 -0.06176,-0.292719 -0.06314,-0.329387 0,-0.09375 -0.135155,-0.504407 -0.388513,-0.941455 -0.71875,-1.375 -0.469047,-0.614608 -0.530355,-1.448395 -0.15625,-2.125" transform="translate(-61,71)" style="opacity:.58620689;fill:none;stroke:url(#radialGradient6481);stroke-width:1.92416465;stroke-linecap:round;stroke-linejoin:miter;stroke-miterlimit:4;stroke-opacity:1;stroke-dashoffset:0"/><path id="path4561" d="m 11.755651,30.852661 a 2.9831069,1.8561553 0 1 1 -5.9662139,0 2.9831069,1.8561553 0 1 1 5.9662139,0 z" transform="matrix(1,0,0,1.077496,-32.25565,58.756381)" style="opacity:.5;fill:url(#linearGradient6483);fill-opacity:1;stroke:none;display:inline"/><path id="path4563" d="m 11.755651,30.852661 a 2.9831069,1.8561553 0 1 1 -5.9662139,0 2.9831069,1.8561553 0 1 1 5.9662139,0 z" transform="matrix(1,0,0,1.077496,-61.25565,58.756381)" style="opacity:.5;fill:url(#linearGradient6485);fill-opacity:1;stroke:none;display:inline"/></g></g></g><g id="g16" transform="translate(303,219)" style="display:inline;enable-background:new"><g id="g8109" transform="translate(0,-20)"><g id="g7065" transform="matrix(1.076455,0,0,1,8.5330742,-40)" style="fill:#c00;stroke:none;display:inline"><path id="path7067" d="m -0.5,65.5 c -3.5,0 -6.9625267,1 -6.9625267,5 0,2 4.644876,1 4.644876,0.125 0,-0.65178 0,-0.625 0,-0.625 0,-1.5 0.4644876,-1.5 2.3176507,-1.5 1.8531631,0 2.3272253,0 2.3272253,1.5 0,0 0,-0.02678 0,0.625 0,0.875 4.644876,1.875 4.644876,-0.125 0,-4 -3.4721013,-5 -6.9721013,-5 z" style="fill:url(#radialGradient8122);fill-opacity:1;stroke:none;display:inline"/></g><use id="use7117" width="16" height="16" x="0" y="0" transform="translate(10,0)" xlink:href="#path7097"/><path id="path7097" d="m 4.5,29.5 a 1.75,1.5 0 1 1 -3.5,0 1.75,1.5 0 1 1 3.5,0 z" transform="matrix(1.4285714,0,0,1.5000003,-0.9285714,-14.500009)" style="fill:url(#radialGradient2999);fill-opacity:1;stroke:none"/><path id="path7952" d="m -0.5,56.34375 c -1.6699341,0 -3.2806745,0.245927 -4.375,0.875 -1.0943255,0.629073 -1.75,1.524263 -1.75,3.28125 0,0.173794 -0.046596,0.125531 0.1875,0.21875 0.2340958,0.09322 0.7220998,0.140415 1.21875,0.09375 0.4966502,-0.04666 1.0101727,-0.201961 1.34375,-0.34375 0.1134163,-0.04821 0.1627681,-0.05832 0.21875,-0.09375 l 0,-0.375 c 0,-0.417907 0.032474,-0.762468 0.15625,-1.125 0.123776,-0.362532 0.4046286,-0.7506 0.75,-0.9375 0.6907428,-0.373801 1.3234184,-0.28125 2.25,-0.28125 0.92658155,0 1.5592572,-0.09255 2.25,0.28125 0.3453714,0.1869 0.626224,0.574968 0.75,0.9375 0.123776,0.362532 0.15625,0.707093 0.15625,1.125 l 0,0.375 c 0.055982,0.03543 0.1053337,0.04554 0.21875,0.09375 0.3335773,0.141789 0.8470998,0.297085 1.34375,0.34375 0.4966502,0.04666 0.9846542,-5.31e-4 1.21875,-0.09375 0.2340958,-0.09322 0.1875,-0.04496 0.1875,-0.21875 0,-1.756987 -0.6556745,-2.652177 -1.75,-3.28125 -1.0943255,-0.629073 -2.7050659,-0.875 -4.375,-0.875 z" transform="matrix(1.076455,0,0,1,8.533074,-30)" style="opacity:.15315312;fill:none;stroke:#fff;stroke-width:.86745018;stroke-linecap:round;stroke-linejoin:round;stroke-miterlimit:4;stroke-opacity:1;stroke-dasharray:none;stroke-dashoffset:0;display:inline"/><g id="g7101" transform="matrix(1.076455,0,0,1,8.5330742,-30)" style="fill:none;display:inline"><path id="path7103" d="m -0.5,55.5 c -3.5,0 -6.9625267,1 -6.9625267,5 0,2 4.644876,1 4.644876,0.125 0,-0.65178 0,-0.625 0,-0.625 0,-1.5 0.4644876,-1.5 2.3176507,-1.5 1.8531631,0 2.3272253,0 2.3272253,1.5 0,0 0,-0.02678 0,0.625 0,0.875 4.644876,1.875 4.644876,-0.125 0,-4 -3.4721013,-5 -6.9721013,-5 z" style="fill:none;stroke:#8c0000;stroke-width:.86745018;stroke-linecap:round;stroke-linejoin:round;stroke-miterlimit:4;stroke-opacity:1;stroke-dasharray:none;stroke-dashoffset:0;display:inline"/></g><path id="path7931" d="M 5.4375,60.71875 C 5.6715958,60.625531 5.625,60.673794 5.625,60.5 c 0,-1.756987 -0.6556745,-2.652177 -1.75,-3.28125 -1.0943255,-0.629073 -2.7050659,-0.875 -4.375,-0.875 -1.6699341,0 -3.2806745,0.245927 -4.375,0.875 -1.0943255,0.629073 -1.75,1.524263 -1.75,3.28125 0,0.173794 -0.046596,0.125531 0.1875,0.21875" transform="matrix(1.076455,0,0,1,8.5330742,-30)" style="opacity:.58558559;fill:none;stroke:url(#radialGradient8126);stroke-width:.86745018;stroke-linecap:round;stroke-linejoin:round;stroke-miterlimit:4;stroke-opacity:1;stroke-dashoffset:0;display:inline"/><path id="path7954" d="m 3.5,28.75 a 0.75,0.75 0 1 1 -1.5,0 0.75,0.75 0 1 1 1.5,0 z" transform="matrix(1.3333333,0,0,1.3333333,-0.6666666,-9.3333324)" style="opacity:.56306308;fill:url(#linearGradient8128);fill-opacity:1;stroke:none"/><path id="path7956" d="m 3.5,28.75 a 0.75,0.75 0 1 1 -1.5,0 0.75,0.75 0 1 1 1.5,0 z" transform="matrix(1.3333333,0,0,1.3333333,8.3333334,-9.3333324)" style="opacity:.56306308;fill:url(#linearGradient8130);fill-opacity:1;stroke:none;display:inline"/><path id="path7982" d="m 3.5,28.75 a 0.75,0.75 0 1 1 -1.5,0 0.75,0.75 0 1 1 1.5,0 z" transform="matrix(1.0000003,0,0,1.0000011,2.9999993,-2.5000317)" style="opacity:.41891892;fill:#fff;fill-opacity:1;stroke:none;display:inline"/></g></g></g></svg>