<svg xmlns="http://www.w3.org/2000/svg" xmlns:svg="http://www.w3.org/2000/svg" xmlns:xlink="http://www.w3.org/1999/xlink" id="svg11300" width="400" height="300" version="1.0" style="display:inline;enable-background:new"><title id="title8836">Optical Drive</title><metadata id="metadata154"/><defs id="defs3"><filter id="filter9786"><feGaussianBlur id="feGaussianBlur9788" stdDeviation=".36"/></filter><linearGradient id="linearGradient9774"><stop style="stop-color:#fff;stop-opacity:1" id="stop9776" offset="0"/><stop style="stop-color:#fcaf3e;stop-opacity:0" id="stop9778" offset="1"/></linearGradient><filter id="filter9753"><feGaussianBlur id="feGaussianBlur9755" stdDeviation=".586"/></filter><linearGradient id="linearGradient9821"><stop style="stop-color:#a40000;stop-opacity:1" id="stop9823" offset="0"/><stop style="stop-color:#7c0000;stop-opacity:1" id="stop9825" offset="1"/></linearGradient><filter id="filter9809" width="1.228" height="1.849" x="-.114" y="-.425"><feGaussianBlur id="feGaussianBlur9811" stdDeviation="2.698"/></filter><clipPath id="clipPath9749" clipPathUnits="userSpaceOnUse"><path id="path9751" d="M 654.5,522.125 A 28.5,28.5 0 1 1 597.5,522.125 A 28.5,28.5 0 1 1 654.5,522.125 z" transform="matrix(1.2631579,0,0,1.2631579,-158.73685,-139.52632)" style="opacity:1;fill:#999;fill-opacity:1;fill-rule:nonzero;stroke:none;stroke-width:2;stroke-linecap:round;stroke-linejoin:round;marker:none;marker-start:none;marker-mid:none;marker-end:none;stroke-miterlimit:4;stroke-dasharray:none;stroke-dashoffset:0;stroke-opacity:0;visibility:visible;display:inline;overflow:visible;enable-background:new"/></clipPath><linearGradient id="linearGradient9966"><stop style="stop-color:#000;stop-opacity:1" id="stop9968" offset="0"/><stop style="stop-color:#000;stop-opacity:0" id="stop9970" offset="1"/></linearGradient><linearGradient id="linearGradient11416"><stop style="stop-color:#2e3436;stop-opacity:1" id="stop11418" offset="0"/><stop style="stop-color:#2e3436;stop-opacity:0" id="stop11420" offset="1"/></linearGradient><radialGradient id="radialGradient10061" cx="626" cy="505.223" r="30.536" fx="626" fy="505.223" gradientTransform="matrix(1.4481919,1.4653496e-7,-2.6752458e-7,2.643915,-280.568,-832.47254)" gradientUnits="userSpaceOnUse" xlink:href="#linearGradient10048"/><linearGradient id="linearGradient10030"><stop style="stop-color:#ef2929;stop-opacity:1" id="stop10032" offset="0"/><stop style="stop-color:#c00;stop-opacity:1" id="stop10034" offset="1"/></linearGradient><radialGradient id="radialGradient10036" cx="613.09" cy="497.249" r="30.281" fx="613.09" fy="497.249" gradientTransform="matrix(1.6457762,0,0,1.3558483,-395.91882,-176.94534)" gradientUnits="userSpaceOnUse" xlink:href="#linearGradient10030"/><radialGradient id="radialGradient10026" cx="623.017" cy="516.146" r="28.5" fx="623.017" fy="516.146" gradientTransform="matrix(2.8652336,0,0,1.8648144,-1164.5305,-448.92116)" gradientUnits="userSpaceOnUse" xlink:href="#linearGradient9757"/><linearGradient id="linearGradient10048"><stop style="stop-color:#f4e3d7;stop-opacity:1" id="stop10050" offset="0"/><stop style="stop-color:#f4e3d7;stop-opacity:0" id="stop10052" offset="1"/></linearGradient><radialGradient id="radialGradient10090" cx="626" cy="505.223" r="30.536" fx="626" fy="505.223" gradientTransform="matrix(1.4481919,1.4653496e-7,-2.6752458e-7,2.643915,-280.568,-832.47254)" gradientUnits="userSpaceOnUse" xlink:href="#linearGradient10048"/><linearGradient id="linearGradient10136"><stop id="stop10138" offset="0" style="stop-color:#ef2929;stop-opacity:1"/><stop id="stop10140" offset="1" style="stop-color:#c00;stop-opacity:1"/></linearGradient><radialGradient id="radialGradient10088" cx="613.09" cy="497.249" r="30.281" fx="613.09" fy="497.249" gradientTransform="matrix(1.6457762,0,0,1.3558483,-395.91882,-176.94534)" gradientUnits="userSpaceOnUse" xlink:href="#linearGradient10136"/><linearGradient id="linearGradient9757"><stop style="stop-color:#ef2929;stop-opacity:1" id="stop9759" offset="0"/><stop style="stop-color:#c00;stop-opacity:1" id="stop9761" offset="1"/></linearGradient><radialGradient id="radialGradient10086" cx="623.017" cy="516.146" r="28.5" fx="623.017" fy="516.146" gradientTransform="matrix(2.8652336,0,0,1.8648144,-1164.5305,-448.92116)" gradientUnits="userSpaceOnUse" xlink:href="#linearGradient9757"/><linearGradient id="linearGradient4510"><stop id="stop4512" offset="0" style="stop-color:white;stop-opacity:1"/><stop id="stop4514" offset="1" style="stop-color:white;stop-opacity:0"/></linearGradient><linearGradient id="linearGradient4493"><stop id="stop4495" offset="0" style="stop-color:black;stop-opacity:1"/><stop id="stop4497" offset="1" style="stop-color:black;stop-opacity:0"/></linearGradient><linearGradient id="linearGradient4465"><stop id="stop4467" offset="0" style="stop-color:white;stop-opacity:1"/><stop id="stop4469" offset="1" style="stop-color:white;stop-opacity:0"/></linearGradient><linearGradient id="linearGradient4447"><stop id="stop4449" offset="0" style="stop-color:#c00;stop-opacity:1"/><stop id="stop4451" offset="1" style="stop-color:#ad0000;stop-opacity:1"/></linearGradient><linearGradient id="linearGradient4453" x1="16.573" x2="17.905" y1="12.237" y2="41.063" gradientUnits="userSpaceOnUse" xlink:href="#linearGradient4447"/><linearGradient id="linearGradient4471" x1="17.499" x2="15.688" y1="14.068" y2="36.616" gradientUnits="userSpaceOnUse" xlink:href="#linearGradient4465"/><radialGradient id="radialGradient4499" cx="16" cy="27.875" r="12.125" fx="16" fy="27.875" gradientTransform="matrix(1,0,0,0.28866,0,19.82861)" gradientUnits="userSpaceOnUse" xlink:href="#linearGradient4493"/><radialGradient id="radialGradient4516" cx="15.688" cy="10.565" r="14.563" fx="15.688" fy="10.565" gradientTransform="matrix(3.390737,0,0,4.314717,-32.15161,-24.08889)" gradientUnits="userSpaceOnUse" xlink:href="#linearGradient4510"/><radialGradient id="radialGradient10622" cx="623.017" cy="516.146" r="28.5" fx="623.017" fy="516.146" gradientTransform="matrix(2.8652336,0,0,1.8648144,-1164.5305,-448.92116)" gradientUnits="userSpaceOnUse" xlink:href="#linearGradient9757"/><radialGradient id="radialGradient10624" cx="613.09" cy="497.249" r="30.281" fx="613.09" fy="497.249" gradientTransform="matrix(1.6457762,0,0,1.3558483,-395.91882,-176.94534)" gradientUnits="userSpaceOnUse" xlink:href="#linearGradient10030"/><radialGradient id="radialGradient10626" cx="626" cy="505.223" r="30.536" fx="626" fy="505.223" gradientTransform="matrix(1.4481919,1.4653496e-7,-2.6752458e-7,2.643915,-280.568,-832.47254)" gradientUnits="userSpaceOnUse" xlink:href="#linearGradient10048"/><radialGradient id="radialGradient10634" cx="623.017" cy="516.146" r="28.5" fx="623.017" fy="516.146" gradientTransform="matrix(2.8652336,0,0,1.8648144,-1164.5305,-448.92116)" gradientUnits="userSpaceOnUse" xlink:href="#linearGradient9757"/><radialGradient id="radialGradient10636" cx="613.09" cy="497.249" r="30.281" fx="613.09" fy="497.249" gradientTransform="matrix(1.6457762,0,0,1.3558483,-395.91882,-176.94534)" gradientUnits="userSpaceOnUse" xlink:href="#linearGradient10030"/><radialGradient id="radialGradient10638" cx="626" cy="505.223" r="30.536" fx="626" fy="505.223" gradientTransform="matrix(1.4481919,1.4653496e-7,-2.6752458e-7,2.643915,-280.568,-832.47254)" gradientUnits="userSpaceOnUse" xlink:href="#linearGradient10048"/><radialGradient id="radialGradient11422" cx="306.672" cy="207.163" r="9.391" fx="306.672" fy="207.163" gradientTransform="matrix(-1.1000001,8.0172001e-7,-2.0423431e-7,-0.5709801,653.92422,312.92664)" gradientUnits="userSpaceOnUse" xlink:href="#linearGradient11416"/><filter id="filter11424" width="1.186" height="1.435" x="-.093" y="-.218"><feGaussianBlur id="feGaussianBlur11426" stdDeviation=".729"/></filter><radialGradient id="radialGradient23221" cx="626" cy="522.125" r="28.5" fx="626" fy="522.125" gradientUnits="userSpaceOnUse" xlink:href="#linearGradient9966"/><radialGradient id="radialGradient23223" cx="626" cy="522.125" r="28.5" fx="626" fy="522.125" gradientUnits="userSpaceOnUse" xlink:href="#linearGradient9966"/><radialGradient id="radialGradient23225" cx="624.912" cy="511.288" r="28.5" fx="624.912" fy="511.288" gradientTransform="matrix(2.596679,4.8094854e-7,-3.0608868e-7,1.6525969,-996.69591,-337.02023)" gradientUnits="userSpaceOnUse" xlink:href="#linearGradient9757"/><radialGradient id="radialGradient23227" cx="606.092" cy="493.228" r="29.292" fx="606.092" fy="493.228" gradientTransform="matrix(1.7842444,0,0,1.0999409,-476.65721,-49.610233)" gradientUnits="userSpaceOnUse" xlink:href="#linearGradient9821"/><radialGradient id="radialGradient23229" cx="632" cy="465.281" r="28.344" fx="632" fy="465.281" gradientTransform="matrix(-1.2866605,-6.2181406e-7,2.6044901e-7,-0.5389223,1445.1694,736.7509)" gradientUnits="userSpaceOnUse" xlink:href="#linearGradient9774"/><radialGradient id="radialGradient27486" cx="626" cy="522.125" r="28.5" fx="626" fy="522.125" gradientUnits="userSpaceOnUse" xlink:href="#linearGradient9966"/><radialGradient id="radialGradient27488" cx="626" cy="522.125" r="28.5" fx="626" fy="522.125" gradientUnits="userSpaceOnUse" xlink:href="#linearGradient9966"/><radialGradient id="radialGradient27490" cx="624.912" cy="511.288" r="28.5" fx="624.912" fy="511.288" gradientTransform="matrix(2.596679,4.8094854e-7,-3.0608868e-7,1.6525969,-996.69591,-337.02023)" gradientUnits="userSpaceOnUse" xlink:href="#linearGradient9757"/><radialGradient id="radialGradient27492" cx="606.092" cy="493.228" r="29.292" fx="606.092" fy="493.228" gradientTransform="matrix(1.7842444,0,0,1.0999409,-476.65721,-49.610233)" gradientUnits="userSpaceOnUse" xlink:href="#linearGradient9821"/><radialGradient id="radialGradient27494" cx="632" cy="465.281" r="28.344" fx="632" fy="465.281" gradientTransform="matrix(-1.2866605,-6.2181406e-7,2.6044901e-7,-0.5389223,1445.1694,736.7509)" gradientUnits="userSpaceOnUse" xlink:href="#linearGradient9774"/></defs><g id="layer6" style="display:none"><rect id="rect6284" width="48" height="48" x="296" y="50" style="fill:#eeeeec;fill-opacity:1;fill-rule:nonzero;stroke:none;stroke-width:2;marker:none;visibility:visible;display:inline;overflow:visible;enable-background:accumulate"/><rect id="rect6592" width="32" height="32" x="303" y="126" style="fill:#eeeeec;fill-opacity:1;fill-rule:nonzero;stroke:none;stroke-width:2;marker:none;visibility:visible;display:inline;overflow:visible;enable-background:accumulate"/><rect id="rect6749" width="22" height="22" x="303" y="177" style="fill:#eeeeec;fill-opacity:1;fill-rule:nonzero;stroke:none;stroke-width:2;marker:none;visibility:visible;display:inline;overflow:visible;enable-background:accumulate"/><rect id="rect6833" width="16" height="16" x="303" y="219" style="fill:#eeeeec;fill-opacity:1;fill-rule:nonzero;stroke:none;stroke-width:2;marker:none;visibility:visible;display:inline;overflow:visible;enable-background:accumulate"/><text id="context" x="20.971" y="21.514" xml:space="preserve" style="font-size:18.30070686px;font-style:normal;font-weight:400;fill:#000;fill-opacity:1;stroke:none;display:inline;enable-background:new;font-family:Bitstream Vera Sans"><tspan id="tspan2716" x="20.971" y="21.514">status</tspan></text><text id="icon-name" x="191.971" y="21.514" xml:space="preserve" style="font-size:18.30070686px;font-style:normal;font-variant:normal;font-weight:700;font-stretch:normal;text-align:start;line-height:125%;writing-mode:lr-tb;text-anchor:start;fill:#000;fill-opacity:1;stroke:none;display:inline;enable-background:new;font-family:Droid Sans;-inkscape-font-specification:Droid Sans Bold"><tspan id="tspan3023" x="191.971" y="21.514">dialog-error</tspan></text><rect id="rect6282" width="256" height="256" x="16" y="28" style="fill:#eeeeec;fill-opacity:1;fill-rule:nonzero;stroke:none;stroke-width:2;marker:none;visibility:visible;display:inline;overflow:visible;enable-background:accumulate"/></g><g id="layer2" style="display:inline"><path style="opacity:.6;fill:url(#radialGradient11422);fill-opacity:1;fill-rule:evenodd;stroke:none;stroke-width:1;stroke-linecap:butt;stroke-linejoin:miter;marker:none;marker-start:none;marker-mid:none;marker-end:none;stroke-miterlimit:4;stroke-dasharray:none;stroke-dashoffset:0;stroke-opacity:1;visibility:visible;display:inline;overflow:visible;filter:url(#filter11424);enable-background:accumulate" id="path10640" d="M 325.97622,194.64108 A 9.3912621,4.0216699 0 1 1 307.1937,194.64108 A 9.3912621,4.0216699 0 1 1 325.97622,194.64108 z" transform="matrix(0.9583374,0,0,0.7459589,10.604778,50.805755)"/><g id="g48" transform="translate(296,50)" style="display:inline;enable-background:new"><g id="g7435" transform="matrix(1.566667,0,0,1.566667,-8.925566,-23.94764)"><path id="path4491" d="M 28.125,27.875 A 12.125,3.5 0 1 1 3.875,27.875 A 12.125,3.5 0 1 1 28.125,27.875 z" transform="matrix(1.048831,0,0,1.266216,4.200952,5.457764)" style="opacity:1;fill:url(#radialGradient4499);fill-opacity:1;fill-rule:nonzero;stroke:none;stroke-width:1;stroke-linecap:butt;stroke-linejoin:miter;marker:none;marker-start:none;marker-mid:none;marker-end:none;stroke-miterlimit:4;stroke-dasharray:none;stroke-dashoffset:0;stroke-opacity:1;visibility:visible;display:inline;overflow:visible"/><path id="path4445" d="M 30.25,15.8125 A 14.5625,14.5625 0 1 1 1.125,15.8125 A 14.5625,14.5625 0 1 1 30.25,15.8125 z" transform="matrix(0.933363,0,0,0.933002,6.398445,15.32924)" style="opacity:1;fill:url(#linearGradient4453);fill-opacity:1;fill-rule:nonzero;stroke:#a40000;stroke-width:.68400139;stroke-linecap:butt;stroke-linejoin:miter;marker:none;marker-start:none;marker-mid:none;marker-end:none;stroke-miterlimit:4;stroke-dasharray:none;stroke-dashoffset:0;stroke-opacity:1;visibility:visible;display:inline;overflow:visible"/><path id="path4455" d="M 30.25,15.8125 A 14.5625,14.5625 0 1 1 1.125,15.8125 A 14.5625,14.5625 0 1 1 30.25,15.8125 z" transform="matrix(0.888101,0,0,0.887757,7.108489,16.04467)" style="opacity:.29896904;fill:none;fill-opacity:1;fill-rule:nonzero;stroke:url(#linearGradient4471);stroke-width:.71886134;stroke-linecap:butt;stroke-linejoin:miter;marker:none;marker-start:none;marker-mid:none;marker-end:none;stroke-miterlimit:4;stroke-dasharray:none;stroke-dashoffset:0;stroke-opacity:1;visibility:visible;display:inline;overflow:visible"/><rect id="rect4481" width="16.828" height="2.5" x="12.487" y="28.69" style="opacity:1;fill:#fff;fill-opacity:1;fill-rule:nonzero;stroke:none;stroke-width:1;stroke-linecap:butt;stroke-linejoin:miter;marker:none;marker-start:none;marker-mid:none;marker-end:none;stroke-miterlimit:4;stroke-dasharray:none;stroke-dashoffset:0;stroke-opacity:1;visibility:visible;display:inline;overflow:visible"/><path id="path4501" d="M 21.040575,16.966928 C 13.902047,16.966928 8.1084657,22.758268 8.1084655,29.894035 C 8.1084655,30.776528 8.1894189,31.640948 8.3582275,32.473908 C 8.3600399,32.482851 8.3563964,32.492711 8.3582275,32.501647 C 19.651759,32.873049 25.883146,36.245235 33.806176,32.002318 C 33.918674,31.316904 33.972684,30.611112 33.972684,29.894035 C 33.972684,22.758269 28.179103,16.966928 21.040575,16.966928 z" style="opacity:.17525772;fill:url(#radialGradient4516);fill-opacity:1;fill-rule:nonzero;stroke:none;stroke-width:1;stroke-linecap:butt;stroke-linejoin:miter;marker:none;marker-start:none;marker-mid:none;marker-end:none;stroke-miterlimit:4;stroke-dasharray:none;stroke-dashoffset:0;stroke-opacity:1;visibility:visible;display:inline;overflow:visible"/></g></g><g id="g32" transform="translate(303,126)" style="display:inline;enable-background:new"><g id="g42" transform="matrix(1.566667,0,0,1.566667,-8.925566,-23.94764)"><path id="path44" d="M 28.125,27.875 A 12.125,3.5 0 1 1 3.875,27.875 A 12.125,3.5 0 1 1 28.125,27.875 z" transform="matrix(0.717263,0,0,0.866261,4.194372,8.532313)" style="opacity:1;fill:url(#radialGradient4499);fill-opacity:1;fill-rule:nonzero;stroke:none;stroke-width:1;stroke-linecap:butt;stroke-linejoin:miter;marker:none;marker-start:none;marker-mid:none;marker-end:none;stroke-miterlimit:4;stroke-dasharray:none;stroke-dashoffset:0;stroke-opacity:1;visibility:visible;display:inline;overflow:visible"/><path id="path46" d="M 30.25,15.8125 A 14.5625,14.5625 0 1 1 1.125,15.8125 A 14.5625,14.5625 0 1 1 30.25,15.8125 z" transform="matrix(0.638298,0,0,0.638298,5.697169,15.28572)" style="opacity:1;fill:url(#linearGradient4453);fill-opacity:1;fill-rule:nonzero;stroke:#a40000;stroke-width:1;stroke-linecap:butt;stroke-linejoin:miter;marker:none;marker-start:none;marker-mid:none;marker-end:none;stroke-miterlimit:4;stroke-dasharray:none;stroke-dashoffset:0;stroke-opacity:1;visibility:visible;display:inline;overflow:visible"/><path id="path48" d="M 30.25,15.8125 A 14.5625,14.5625 0 1 1 1.125,15.8125 A 14.5625,14.5625 0 1 1 30.25,15.8125 z" transform="matrix(0.594466,0,0,0.594466,6.384777,15.97881)" style="opacity:.29896904;fill:none;fill-opacity:1;fill-rule:nonzero;stroke:url(#linearGradient4471);stroke-width:1.07373273;stroke-linecap:butt;stroke-linejoin:miter;marker:none;marker-start:none;marker-mid:none;marker-end:none;stroke-miterlimit:4;stroke-dasharray:none;stroke-dashoffset:0;stroke-opacity:1;visibility:visible;display:inline;overflow:visible"/><rect id="rect50" width="10.899" height="1.915" x="10.165" y="24.222" style="opacity:1;fill:#fff;fill-opacity:1;fill-rule:nonzero;stroke:none;stroke-width:1;stroke-linecap:butt;stroke-linejoin:miter;marker:none;marker-start:none;marker-mid:none;marker-end:none;stroke-miterlimit:4;stroke-dasharray:none;stroke-dashoffset:0;stroke-opacity:1;visibility:visible;display:inline;overflow:visible"/><path id="path52" d="M 15.710469,16.40612 C 10.828651,16.40612 6.866599,20.368171 6.8665989,25.24999 C 6.8665989,25.853734 6.9219604,26.445113 7.0374033,27.014968 C 7.0386428,27.021087 7.0361511,27.027832 7.0374033,27.033946 C 14.760701,27.288034 19.022154,29.595061 24.440469,26.692338 C 24.517403,26.223423 24.554339,25.740567 24.554339,25.24999 C 24.554339,20.368172 20.592288,16.40612 15.710469,16.40612 z" style="opacity:.17525772;fill:url(#radialGradient4516);fill-opacity:1;fill-rule:nonzero;stroke:none;stroke-width:1;stroke-linecap:butt;stroke-linejoin:miter;marker:none;marker-start:none;marker-mid:none;marker-end:none;stroke-miterlimit:4;stroke-dasharray:none;stroke-dashoffset:0;stroke-opacity:1;visibility:visible;display:inline;overflow:visible"/></g></g><path style="fill:url(#radialGradient10026);fill-opacity:1;fill-rule:nonzero;stroke:url(#radialGradient10036);stroke-width:3.77689457;stroke-linecap:round;stroke-linejoin:round;marker:none;marker-start:none;marker-mid:none;marker-end:none;stroke-miterlimit:4;stroke-dasharray:none;stroke-dashoffset:0;stroke-opacity:1;visibility:visible;display:inline;overflow:visible;enable-background:new" id="path10024" d="M 654.5,522.125 A 28.5,28.5 0 1 1 597.5,522.125 A 28.5,28.5 0 1 1 654.5,522.125 z" transform="matrix(0.2647674,0,0,0.264768,145.26434,88.766725)"/><rect style="fill:#fff;fill-opacity:1;fill-rule:nonzero;stroke:none;stroke-width:2;stroke-linecap:round;stroke-linejoin:round;marker:none;marker-start:none;marker-mid:none;marker-end:none;stroke-miterlimit:4;stroke-dasharray:none;stroke-dashoffset:0;stroke-opacity:1;visibility:visible;display:inline;overflow:visible;enable-background:new" id="rect10028" width="10" height="2" x="306" y="226" rx=".172" ry=".187"/><path style="opacity:.5;fill:none;fill-opacity:1;fill-rule:nonzero;stroke:url(#radialGradient10061);stroke-width:4.38747072;stroke-linecap:round;stroke-linejoin:round;marker:none;marker-start:none;marker-mid:none;marker-end:none;stroke-miterlimit:4;stroke-dasharray:none;stroke-dashoffset:0;stroke-opacity:1;visibility:visible;display:inline;overflow:visible;enable-background:new" id="path10038" d="M 654.5,522.125 A 28.5,28.5 0 1 1 597.5,522.125 A 28.5,28.5 0 1 1 654.5,522.125 z" transform="matrix(0.2279216,0,0,0.2279219,168.3253,108.00051)"/><path style="fill:url(#radialGradient10634);fill-opacity:1;fill-rule:nonzero;stroke:url(#radialGradient10636);stroke-width:2.99960971;stroke-linecap:round;stroke-linejoin:round;marker:none;marker-start:none;marker-mid:none;marker-end:none;stroke-miterlimit:4;stroke-dasharray:none;stroke-dashoffset:0;stroke-opacity:1;visibility:visible;display:inline;overflow:visible;enable-background:new" id="path10616" d="M 654.5,522.125 A 28.5,28.5 0 1 1 597.5,522.125 A 28.5,28.5 0 1 1 654.5,522.125 z" transform="matrix(0.3333349,0,0,0.3334183,105.33233,13.916416)"/><rect style="fill:#fff;fill-opacity:1;fill-rule:nonzero;stroke:none;stroke-width:2;stroke-linecap:round;stroke-linejoin:round;marker:none;marker-start:none;marker-mid:none;marker-end:none;stroke-miterlimit:4;stroke-dasharray:none;stroke-dashoffset:0;stroke-opacity:1;visibility:visible;display:inline;overflow:visible;enable-background:new" id="rect10618" width="12" height="3" x="308" y="186" rx=".172" ry=".187"/><path style="opacity:.5;fill:none;fill-opacity:1;fill-rule:nonzero;stroke:url(#radialGradient10638);stroke-width:3.35162115;stroke-linecap:round;stroke-linejoin:round;marker:none;marker-start:none;marker-mid:none;marker-end:none;stroke-miterlimit:4;stroke-dasharray:none;stroke-dashoffset:0;stroke-opacity:1;visibility:visible;display:inline;overflow:visible;enable-background:new" id="path10620" d="M 654.5,522.125 A 28.5,28.5 0 1 1 597.5,522.125 A 28.5,28.5 0 1 1 654.5,522.125 z" transform="matrix(0.2982452,0,0,0.2984811,127.2985,32.148847)"/></g><g id="layer4" style="display:inline"><g style="display:inline;enable-background:new" id="g13514" transform="matrix(2.701314,0,0,2.701314,-1565.4191,-1260.7562)"><path style="opacity:.5;fill:url(#radialGradient23221);fill-opacity:1;fill-rule:nonzero;stroke:none;stroke-width:2;stroke-linecap:round;stroke-linejoin:round;marker:none;marker-start:none;marker-mid:none;marker-end:none;stroke-miterlimit:4;stroke-dasharray:none;stroke-dashoffset:0;stroke-opacity:0;visibility:visible;display:inline;overflow:visible;enable-background:new" id="path9964" d="M 654.5,522.125 A 28.5,28.5 0 1 1 597.5,522.125 A 28.5,28.5 0 1 1 654.5,522.125 z" transform="matrix(1.4015861,0,0,0.3928143,-245.33811,352.34709)"/><path style="opacity:1;fill:url(#radialGradient23223);fill-opacity:1;fill-rule:nonzero;stroke:none;stroke-width:2;stroke-linecap:round;stroke-linejoin:round;marker:none;marker-start:none;marker-mid:none;marker-end:none;stroke-miterlimit:4;stroke-dasharray:none;stroke-dashoffset:0;stroke-opacity:0;visibility:visible;display:inline;overflow:visible;enable-background:new" id="path9974" d="M 654.5,522.125 A 28.5,28.5 0 1 1 597.5,522.125 A 28.5,28.5 0 1 1 654.5,522.125 z" transform="matrix(1.0110678,0,0,0.2833659,-0.8736485,410.44229)"/><g id="g9978"><g id="g9743" clip-path="url(#clipPath9749)" transform="matrix(1.109589,0,0,1.109589,-69.205451,-53.041072)"><path id="path8925" d="M 654.5,522.125 A 28.5,28.5 0 1 1 597.5,522.125 A 28.5,28.5 0 1 1 654.5,522.125 z" transform="matrix(1.2631579,0,0,1.2631579,-158.73685,-139.52632)" style="opacity:1;fill:url(#radialGradient23225);fill-opacity:1;fill-rule:nonzero;stroke:none;stroke-width:2;stroke-linecap:round;stroke-linejoin:round;marker:none;marker-start:none;marker-mid:none;marker-end:none;stroke-miterlimit:4;stroke-dasharray:none;stroke-dashoffset:0;stroke-opacity:0;visibility:visible;display:inline;overflow:visible;enable-background:new"/><path style="opacity:1;fill:#fff;fill-opacity:1;fill-rule:nonzero;stroke:none;stroke-width:2;stroke-linecap:round;stroke-linejoin:round;marker:none;marker-start:none;marker-mid:none;marker-end:none;stroke-miterlimit:4;stroke-dasharray:none;stroke-dashoffset:0;stroke-opacity:0;visibility:visible;display:inline;overflow:visible;filter:url(#filter9809);enable-background:new" id="path9790" d="M 603.65625,537.75 C 609.74599,546.93257 620.16391,553.00001 632,553 C 643.83608,553 654.25401,546.93257 660.34375,537.75 C 653.98228,545.77546 643.66164,551 632,551 C 620.33834,551 610.01771,545.77546 603.65625,537.75 z"/><path id="path9741" d="M 654.5,522.125 A 28.5,28.5 0 1 1 597.5,522.125 A 28.5,28.5 0 1 1 654.5,522.125 z" transform="matrix(1.2631579,0,0,1.2631579,-158.73685,-139.52632)" style="opacity:1;fill:none;fill-opacity:1;fill-rule:nonzero;stroke:url(#radialGradient23227);stroke-width:.79236704;stroke-linecap:round;stroke-linejoin:round;marker:none;marker-start:none;marker-mid:none;marker-end:none;stroke-miterlimit:4;stroke-dasharray:none;stroke-dashoffset:0;stroke-opacity:1;visibility:visible;display:inline;overflow:visible;filter:url(#filter9753);enable-background:new"/><path style="opacity:.8;fill:url(#radialGradient23229);fill-opacity:1;fill-rule:nonzero;stroke:none;stroke-width:2;stroke-linecap:round;stroke-linejoin:round;marker:none;marker-start:none;marker-mid:none;marker-end:none;stroke-miterlimit:4;stroke-dasharray:none;stroke-dashoffset:0;stroke-opacity:0;visibility:visible;display:inline;overflow:visible;filter:url(#filter9786);enable-background:new" id="path9772" d="M 632,486 C 620.16392,486 609.74599,492.06743 603.65625,501.25 C 610.01771,493.22454 620.33836,488 632,488 C 643.66163,488.00001 653.98228,493.22454 660.34375,501.25 C 654.254,492.06743 643.83607,486 632,486 z"/></g><rect style="opacity:1;fill:#fff;fill-opacity:1;fill-rule:nonzero;stroke:none;stroke-width:2;stroke-linecap:round;stroke-linejoin:round;marker:none;marker-start:none;marker-mid:none;marker-end:none;stroke-miterlimit:4;stroke-dasharray:none;stroke-dashoffset:0;stroke-opacity:1;visibility:visible;display:inline;overflow:visible;enable-background:new" id="rect9829" width="64" height="16" x="600" y="516" rx=".37" ry=".37"/></g></g></g></svg>