<svg xmlns="http://www.w3.org/2000/svg" xmlns:svg="http://www.w3.org/2000/svg" xmlns:xlink="http://www.w3.org/1999/xlink" id="svg11300" width="400" height="300" version="1.0" style="display:inline;enable-background:new"><title id="title8836">Optical Drive</title><metadata id="metadata154"/><defs id="defs3"><linearGradient id="linearGradient3305"><stop style="stop-color:#fff;stop-opacity:1" id="stop3307" offset="0"/><stop style="stop-color:#fff;stop-opacity:0" id="stop3309" offset="1"/></linearGradient><linearGradient id="linearGradient8751"><stop style="stop-color:#b45000;stop-opacity:1" id="stop8753" offset="0"/><stop style="stop-color:#f57900;stop-opacity:1" id="stop8755" offset="1"/></linearGradient><linearGradient id="linearGradient11223" x1="4.191" x2="47.32" y1="11.113" y2="56.052" gradientUnits="userSpaceOnUse"><stop id="stop11225" offset="0" style="stop-color:#fff;stop-opacity:1"/><stop id="stop11227" offset="1" style="stop-color:#fff;stop-opacity:0"/></linearGradient><filter id="filter5468"><feGaussianBlur id="feGaussianBlur5470" stdDeviation="2.348"/></filter><linearGradient id="linearGradient5551" x1="85.688" x2="89.832" y1="52.708" y2="154.198" gradientUnits="userSpaceOnUse" xlink:href="#linearGradient5343"/><linearGradient id="linearGradient5402"><stop style="stop-color:#fff;stop-opacity:1" id="stop5404" offset="0"/><stop style="stop-color:#fff;stop-opacity:0" id="stop5406" offset="1"/></linearGradient><radialGradient id="radialGradient5408" cx="79.377" cy="44.534" r="50.668" fx="79.377" fy="44.534" gradientTransform="matrix(1.6739663,0,0,1.6098814,-53.178311,-27.61411)" gradientUnits="userSpaceOnUse" xlink:href="#linearGradient5402"/><filter id="filter5393" width="1.073" height="2.167" x="-.037" y="-.584"><feGaussianBlur id="feGaussianBlur5395" stdDeviation="3.161"/></filter><filter id="filter5339"><feGaussianBlur id="feGaussianBlur5341" stdDeviation=".783"/></filter><linearGradient id="linearGradient5343"><stop style="stop-color:#fff;stop-opacity:1" id="stop5345" offset="0"/><stop style="stop-color:#fff;stop-opacity:0" id="stop5347" offset="1"/></linearGradient><linearGradient id="linearGradient5349" x1="85.688" x2="89.832" y1="52.708" y2="154.198" gradientUnits="userSpaceOnUse" xlink:href="#linearGradient5343"/><linearGradient id="linearGradient5252"><stop id="stop5256" offset="0" style="stop-color:#fed496;stop-opacity:1"/><stop id="stop5254" offset="1" style="stop-color:#fcaf3e;stop-opacity:1"/></linearGradient><radialGradient id="radialGradient5258" cx="85.837" cy="52.855" r="53.631" fx="85.837" fy="52.855" gradientTransform="matrix(2.9649475,0,0,2.798458,-168.66561,-93.568577)" gradientUnits="userSpaceOnUse" xlink:href="#linearGradient5252"/><linearGradient id="linearGradient5244"><stop style="stop-color:#f57900;stop-opacity:1" id="stop5246" offset="0"/><stop style="stop-color:#be5d00;stop-opacity:1" id="stop5248" offset="1"/></linearGradient><linearGradient id="linearGradient5250" x1="94.645" x2="103.887" y1="37.144" y2="184.591" gradientUnits="userSpaceOnUse" xlink:href="#linearGradient5244"/><filter id="filter5232" width="1.19" height="2.852" x="-.095" y="-.926"><feGaussianBlur id="feGaussianBlur5234" stdDeviation="8.872"/></filter><filter id="filter5760" width="1.056" height="1.544" x="-.028" y="-.272"><feGaussianBlur id="feGaussianBlur5762" stdDeviation="2.607"/></filter><radialGradient id="radialGradient10039" cx="79.377" cy="44.534" r="50.668" fx="79.377" fy="44.534" gradientTransform="matrix(0.1980196,0,0,0.1904388,294.50053,214.06736)" gradientUnits="userSpaceOnUse" xlink:href="#linearGradient5402"/><radialGradient id="radialGradient10120" cx="79.377" cy="44.534" r="50.668" fx="79.377" fy="44.534" gradientTransform="matrix(0.2527298,0,0,0.2430545,293.06756,169.79774)" gradientUnits="userSpaceOnUse" xlink:href="#linearGradient5402"/><linearGradient id="linearGradient10153" x1="30.742" x2="30.841" y1="23.197" y2="45.93" gradientTransform="matrix(0.7131359,0,-3.1042582e-3,0.7398444,299.06585,164.5109)" gradientUnits="userSpaceOnUse" xlink:href="#linearGradient11223"/><linearGradient id="linearGradient3948" x1="29.296" x2="29.404" y1="23.051" y2="47.924" gradientTransform="matrix(0.646153,0,-2.812685e-3,0.671002,2.320937,4.636421)" gradientUnits="userSpaceOnUse" xlink:href="#linearGradient11223"/><radialGradient id="radialGradient11069" cx="79.377" cy="44.534" r="50.668" fx="79.377" fy="44.534" gradientTransform="matrix(0.3446429,0,0,0.3314489,290.64326,116.83586)" gradientUnits="userSpaceOnUse" xlink:href="#linearGradient5402"/><radialGradient id="radialGradient11189" cx="10.789" cy="18.438" r="3.174" fx="10.789" fy="18.438" gradientTransform="matrix(3.1664345,0,0,2.9768053,-23.374294,-36.321335)" gradientUnits="userSpaceOnUse" xlink:href="#linearGradient5252"/><radialGradient id="radialGradient11197" cx="314.14" cy="181.81" r="6.61" fx="314.14" fy="181.81" gradientTransform="matrix(2.4941586,0,0,2.3469628,-469.37458,-243.64069)" gradientUnits="userSpaceOnUse" xlink:href="#linearGradient5252"/><radialGradient id="radialGradient11205" cx="15.979" cy="22.668" r="5.825" fx="15.979" fy="22.668" gradientTransform="matrix(2.8946843,0,0,2.7262632,-30.275303,-38.952907)" gradientUnits="userSpaceOnUse" xlink:href="#linearGradient5252"/><filter id="filter11277" width="1.057" height="1.831" x="-.028" y="-.416"><feGaussianBlur id="feGaussianBlur11279" stdDeviation=".52"/></filter><linearGradient id="linearGradient8765" x1="16.282" x2="15.982" y1="32.206" y2="20.377" gradientUnits="userSpaceOnUse" xlink:href="#linearGradient8751"/><linearGradient id="linearGradient8773" x1="324.875" x2="324.875" y1="197.106" y2="181.608" gradientUnits="userSpaceOnUse" xlink:href="#linearGradient8751"/><linearGradient id="linearGradient8781" x1="10.791" x2="10.791" y1="24.86" y2="17.912" gradientUnits="userSpaceOnUse" xlink:href="#linearGradient8751"/><filter id="filter3290" width="1.139" height="3.038" x="-.069" y="-1.019"><feGaussianBlur id="feGaussianBlur3292" stdDeviation="1.273"/></filter><filter id="filter3301" width="1.13" height="2.557" x="-.065" y="-.779"><feGaussianBlur id="feGaussianBlur3303" stdDeviation="1.105"/></filter><linearGradient id="linearGradient3350" x1="356.224" x2="367.692" y1="66.084" y2="108.881" gradientTransform="translate(-60,0)" gradientUnits="userSpaceOnUse" xlink:href="#linearGradient5244"/><linearGradient id="linearGradient3352" x1="21.898" x2="21.898" y1="41.58" y2="24.25" gradientTransform="matrix(1.566667,0,0,1.566667,267.08507,25.16008)" gradientUnits="userSpaceOnUse" xlink:href="#linearGradient8751"/><radialGradient id="radialGradient3354" cx="21.081" cy="27.926" r="8.803" fx="21.081" fy="27.926" gradientTransform="matrix(4.3782515,0,0,4.1269482,207.81454,-48.389615)" gradientUnits="userSpaceOnUse" xlink:href="#linearGradient5252"/><linearGradient id="linearGradient3356" x1="22.858" x2="23.02" y1="27.42" y2="64.619" gradientTransform="matrix(1.0123066,0,-4.4065408e-3,1.0512367,270.72121,32.423808)" gradientUnits="userSpaceOnUse" xlink:href="#linearGradient11223"/><radialGradient id="radialGradient3358" cx="79.377" cy="44.534" r="50.668" fx="79.377" fy="44.534" gradientTransform="matrix(0.5111798,0,0,0.4916103,257.55424,38.311797)" gradientUnits="userSpaceOnUse" xlink:href="#linearGradient5402"/><linearGradient id="linearGradient3360" x1="311.875" x2="311.875" y1="91.875" y2="88.945" gradientUnits="userSpaceOnUse" xlink:href="#linearGradient3305"/><filter id="filter3369" width="1.069" height="2.019" x="-.035" y="-.509"><feGaussianBlur id="feGaussianBlur3371" stdDeviation=".637"/></filter><linearGradient id="linearGradient3387" x1="14.111" x2="20.112" y1="19.543" y2="36.036" gradientUnits="userSpaceOnUse" xlink:href="#linearGradient5244"/><linearGradient id="linearGradient3391" x1="311.875" x2="311.875" y1="91.875" y2="88.945" gradientUnits="userSpaceOnUse" xlink:href="#linearGradient3305"/><filter id="filter3395" width="1.106" height="2.55" x="-.053" y="-.775"><feGaussianBlur id="feGaussianBlur3397" stdDeviation=".969"/></filter></defs><g id="layer1" style="display:inline"><g id="layer6" style="display:none"><rect id="rect6284" width="48" height="48" x="296" y="50" style="fill:#eeeeec;fill-opacity:1;fill-rule:nonzero;stroke:none;stroke-width:2;marker:none;visibility:visible;display:inline;overflow:visible;enable-background:accumulate"/><rect id="rect6592" width="32" height="32" x="303" y="126" style="fill:#eeeeec;fill-opacity:1;fill-rule:nonzero;stroke:none;stroke-width:2;marker:none;visibility:visible;display:inline;overflow:visible;enable-background:accumulate"/><rect id="rect6749" width="22" height="22" x="303" y="177" style="fill:#eeeeec;fill-opacity:1;fill-rule:nonzero;stroke:none;stroke-width:2;marker:none;visibility:visible;display:inline;overflow:visible;enable-background:accumulate"/><rect id="rect6833" width="16" height="16" x="303" y="219" style="fill:#eeeeec;fill-opacity:1;fill-rule:nonzero;stroke:none;stroke-width:2;marker:none;visibility:visible;display:inline;overflow:visible;enable-background:accumulate"/><rect id="rect8104" width="24" height="24" x="302" y="176" style="fill:#eeeeec;fill-opacity:1;fill-rule:nonzero;stroke:none;stroke-width:2;marker:none;visibility:visible;display:inline;overflow:visible;enable-background:accumulate"/><rect id="rect6282" width="256" height="256" x="16" y="28" style="fill:#eeeeec;fill-opacity:1;fill-rule:nonzero;stroke:none;stroke-width:2;marker:none;visibility:visible;display:inline;overflow:visible;enable-background:accumulate"/><text id="context" x="20.971" y="21.514" xml:space="preserve" style="font-size:18.30070686px;font-style:normal;font-weight:400;fill:#000;fill-opacity:1;stroke:none;display:inline;enable-background:new;font-family:Bitstream Vera Sans"><tspan id="tspan2716" x="20.971" y="21.514">status</tspan></text><text id="icon-name" x="191.971" y="21.514" xml:space="preserve" style="font-size:18.30070686px;font-style:normal;font-variant:normal;font-weight:700;font-stretch:normal;text-align:start;line-height:125%;writing-mode:lr-tb;text-anchor:start;fill:#000;fill-opacity:1;stroke:none;display:inline;enable-background:new;font-family:Droid Sans;-inkscape-font-specification:Droid Sans Bold"><tspan id="tspan3023" x="191.971" y="21.514">dialog-warning</tspan></text></g><g id="layer2" style="display:inline"><g style="display:inline;enable-background:new" id="g10021" transform="translate(303,219)"><g id="g7435" transform="matrix(1.566667,0,0,1.566667,-8.925566,-23.94764)"><path id="path10024" d="M 15.471133,23.595538 L 11.349793,15.936936 C 11.231333,15.724197 11.016983,15.606008 10.778264,15.606008 C 10.539543,15.606008 10.324094,15.747833 10.203834,15.960573 L 6.1131848,23.619178 C 6.0168964,23.808278 6.0157965,24.068293 6.134357,24.257394 C 6.252917,24.446495 6.4434938,24.541045 6.6822145,24.541045 L 14.894203,24.541045 C 15.132924,24.541045 15.348273,24.422858 15.444561,24.233756 C 15.56472,24.044654 15.565722,23.808278 15.471133,23.595538 z" style="fill:#f57900;fill-opacity:1;fill-rule:nonzero;stroke:url(#linearGradient8781);stroke-width:.63829826999999995;stroke-miterlimit:4;stroke-dasharray:none;stroke-opacity:1"/><path style="fill:url(#radialGradient11189);fill-opacity:1;fill-rule:nonzero;stroke:none;stroke-miterlimit:4" id="path10026" d="M 7.6410107,23.351404 C 7.5758548,23.458465 7.6401856,23.544115 7.7480155,23.544115 L 13.829618,23.544115 C 13.937449,23.544115 14.002513,23.458465 13.938275,23.351404 L 10.878725,17.655737 C 10.814485,17.548676 10.728223,17.548676 10.684632,17.655737 L 7.6410107,23.351404 z"/><path style="fill:#121312;fill-opacity:1;fill-rule:nonzero;stroke:none;stroke-width:2.46129537;stroke-miterlimit:4" id="path10028" d="M 10.643864,21.654268 L 10.166337,19.112304 L 11.440026,19.117291 L 10.952526,21.656668 L 10.643864,21.654268 z"/><rect id="rect1906" width="1.277" height=".693" x="10.165" y="22.307" rx="0" ry="0" style="opacity:1;fill:#000;fill-opacity:1;stroke:none;stroke-width:1;stroke-linecap:square;stroke-linejoin:round;stroke-miterlimit:4;stroke-dasharray:none;stroke-dashoffset:1.20000057;stroke-opacity:1"/></g></g><path id="path10037" d="M 310.93619,219.78214 C 310.54948,219.78214 310.20106,220.01425 310.00625,220.36281 L 304.33826,231.09286 L 316.09924,228.28622 L 311.86192,220.32284 C 311.67002,219.97428 311.32291,219.78214 310.93619,219.78214 z" style="opacity:.47126435;fill:url(#radialGradient10039);fill-opacity:1;fill-rule:nonzero;stroke:none;stroke-width:.63829809;stroke-miterlimit:4;stroke-dasharray:none;stroke-opacity:1;display:inline;enable-background:new"/><path id="path11291" d="M 324.33756,196.52932 L 315.3606,179.70818 C 315.10257,179.24093 314.63568,178.98134 314.11571,178.98134 C 313.59574,178.98134 313.12645,179.29285 312.86451,179.7601 L 303.9544,196.58124 C 303.74466,196.99657 303.74227,197.56766 304.00051,197.983 C 304.25876,198.39834 304.67386,198.606 305.19384,198.606 L 323.08091,198.606 C 323.60088,198.606 324.06995,198.34642 324.27968,197.93108 C 324.54141,197.51574 324.54359,196.99657 324.33756,196.52932 z" style="opacity:.1;fill:#000;fill-opacity:1;fill-rule:nonzero;stroke:#000;stroke-width:1.0000002400000001;stroke-miterlimit:4;stroke-dasharray:none;stroke-opacity:1;display:inline;enable-background:new"/><path id="path11289" d="M 324.33756,195.52932 L 315.3606,178.70818 C 315.10257,178.24093 314.63568,177.98134 314.11571,177.98134 C 313.59574,177.98134 313.12645,178.29285 312.86451,178.7601 L 303.9544,195.58124 C 303.74466,195.99657 303.74227,196.56766 304.00051,196.983 C 304.25876,197.39834 304.67386,197.606 305.19384,197.606 L 323.08091,197.606 C 323.60088,197.606 324.06995,197.34642 324.27968,196.93108 C 324.54141,196.51574 324.54359,195.99657 324.33756,195.52932 z" style="fill:#000;fill-opacity:1;fill-rule:nonzero;stroke:#000;stroke-width:1.0000002400000001;stroke-miterlimit:4;stroke-dasharray:none;stroke-opacity:1;display:inline;enable-background:new;opacity:.15"/><path id="path10109" d="M 324.33756,194.52932 L 315.3606,177.70818 C 315.10257,177.24093 314.63568,176.98134 314.11571,176.98134 C 313.59574,176.98134 313.12645,177.29285 312.86451,177.7601 L 303.9544,194.58124 C 303.74466,194.99657 303.74227,195.56766 304.00051,195.983 C 304.25876,196.39834 304.67386,196.606 305.19384,196.606 L 323.08091,196.606 C 323.60088,196.606 324.06995,196.34642 324.27968,195.93108 C 324.54141,195.51574 324.54359,194.99657 324.33756,194.52932 z" style="fill:#f57900;fill-opacity:1;fill-rule:nonzero;stroke:url(#linearGradient8773);stroke-width:1.0000002400000001;stroke-miterlimit:4;stroke-dasharray:none;stroke-opacity:1"/><path style="fill:url(#radialGradient11197);fill-opacity:1;fill-rule:nonzero;stroke:none;stroke-miterlimit:4" id="path10111" d="M 307.58389,193.60007 C 307.44821,193.82321 307.58217,194.00173 307.80671,194.00173 L 320.4708,194.00173 C 320.69534,194.00173 320.83083,193.82321 320.69706,193.60007 L 314.32597,181.72864 C 314.19221,181.50549 314.01257,181.50549 313.9218,181.72864 L 307.58389,193.60007 z"/><path id="path1325" d="M 322.91893,193.8044 L 314.91222,178.86677 C 314.57123,178.22137 314.6257,178.0143 314.10748,178.0143 C 313.66176,178.0143 313.60533,178.31587 313.28324,178.92508 L 305.3654,193.85064 C 304.90563,194.6911 304.6354,194.99857 304.8567,195.36849 C 305.078,195.73841 305.40634,195.62988 306.45621,195.65401 L 322.01824,195.65401 C 322.99566,195.66607 323.21583,195.68011 323.39567,195.31019 C 323.62007,194.94026 323.34785,194.55839 322.91893,193.8044 z" style="opacity:.69999999999999996;fill:none;fill-opacity:1;fill-rule:nonzero;stroke:url(#linearGradient10153);stroke-width:1.0000002400000001;stroke-miterlimit:4;stroke-dasharray:none;stroke-opacity:1"/><g id="g10114" transform="matrix(0.5034939,0,0,0.4796868,302.07132,175.63768)" style="fill:#121312;fill-opacity:1;fill-rule:nonzero;stroke:#000;stroke-width:1.76948965;stroke-miterlimit:4"><path id="path10116" d="M 23.9,36.5 C 22.6,36.5 21.6,35.5 21.6,34.2 C 21.6,32.8 22.5,31.9 23.9,31.9 C 25.3,31.9 26.1,32.8 26.2,34.2 C 26.2,35.5 25.3,36.5 23.9,36.5 L 23.9,36.5 z M 23.167629,29.066754 L 21.9,19.1 L 25.9,19.1 L 24.632371,30.709518 L 23.167629,29.066754 z" style="fill:#121312;fill-opacity:1;stroke:none"/></g><path id="path10118" d="M 314.04417,177.09144 C 313.55062,177.09144 313.10593,177.38768 312.8573,177.83254 L 305.62332,191.52716 L 320.6337,187.94508 L 315.22567,177.78153 C 314.98075,177.33667 314.53773,177.09144 314.04417,177.09144 z" style="opacity:.47126435;fill:url(#radialGradient10120);fill-opacity:1;fill-rule:nonzero;stroke:none;stroke-width:.63829809;stroke-miterlimit:4;stroke-dasharray:none;stroke-opacity:1;display:inline;enable-background:new"/><g id="g3399" transform="translate(0,-9.8477183)"><rect id="rect11281" width="44" height="3" x="298" y="91" rx="3.25" ry="1.5" transform="matrix(0.6705525,0,0,0.89407,104.45092,80.152071)" style="opacity:.3;fill:#000;fill-opacity:1;stroke:none;stroke-width:1;stroke-linecap:round;stroke-linejoin:miter;stroke-miterlimit:4;stroke-dasharray:none;stroke-opacity:1;display:inline;filter:url(#filter11277);enable-background:new"/><rect id="rect11283" width="44" height="3" x="298" y="91" rx="3.25" ry="1.5" transform="matrix(0.6705525,0,0,1.0617081,104.45092,64.468768)" style="opacity:.5;fill:#000;fill-opacity:1;stroke:none;stroke-width:1;stroke-linecap:round;stroke-linejoin:miter;stroke-miterlimit:4;stroke-dasharray:none;stroke-opacity:1;display:inline;filter:url(#filter3395);enable-background:new"/></g><g id="g11039" transform="translate(302.917,124.9919)"><g id="g11041" transform="matrix(1.566667,0,0,1.566667,-8.925566,-23.94764)"><path id="path11057" d="M 24.964759,31.668454 L 17.054822,16.833614 C 16.827466,16.421535 16.416074,16.192603 15.957907,16.192603 C 15.499739,16.192603 15.086236,16.467321 14.855426,16.8794 L 7.0043917,31.714242 C 6.819589,32.080534 6.8174779,32.584186 7.0450267,32.950478 C 7.2725746,33.31677 7.6383416,33.499916 8.0965096,33.499916 L 23.857479,33.499916 C 24.315646,33.499916 24.728957,33.270984 24.913761,32.904691 C 25.144379,32.538399 25.146298,32.080534 24.964759,31.668454 z" style="fill:url(#linearGradient3387);fill-opacity:1;fill-rule:nonzero;stroke:url(#linearGradient8765);stroke-width:.63829791999999996;stroke-miterlimit:4;stroke-dasharray:none;stroke-opacity:1"/><path style="fill:url(#radialGradient11205);fill-opacity:1;fill-rule:nonzero;stroke:none;stroke-miterlimit:4" id="path11059" d="M 10.202469,30.848938 C 10.082918,31.045735 10.200955,31.203173 10.398806,31.203173 L 21.557607,31.203173 C 21.755459,31.203173 21.874842,31.045735 21.756973,30.848938 L 16.143175,20.379324 C 16.025305,20.182527 15.867025,20.182527 15.787043,20.379324 L 10.202469,30.848938 z"/><path id="path11061" d="M 24.093759,31.20417 L 16.839094,17.616404 C 16.530124,17.031058 16.419304,16.843256 15.949758,16.843256 C 15.545911,16.843256 15.334607,17.116765 15.042767,17.669284 L 7.8686237,31.246108 C 7.4520355,32.008367 7.4074018,32.20706 7.6079187,32.54256 C 7.8084343,32.878061 8.065887,32.859788 9.0171502,32.881673 L 23.117497,32.881673 C 24.003106,32.892614 24.202596,32.825181 24.365542,32.48968 C 24.568871,32.154179 24.482386,31.887999 24.093759,31.20417 z" style="opacity:.7;fill:none;fill-opacity:1;fill-rule:nonzero;stroke:url(#linearGradient3948);stroke-width:.63829798;stroke-miterlimit:4;stroke-dasharray:none;stroke-opacity:1"/><g id="g11063" transform="matrix(0.371688,0,0,0.377392,7.064967,16.27672)" style="fill:#121312;fill-opacity:1;fill-rule:nonzero;stroke:#000;stroke-width:1.48204494;stroke-miterlimit:4"><path id="path11065" d="M 23.9,36.5 C 22.6,36.5 21.6,35.5 21.6,34.2 C 21.6,32.8 22.5,31.9 23.9,31.9 C 25.3,31.9 26.1,32.8 26.2,34.2 C 26.2,35.5 25.3,36.5 23.9,36.5 L 23.9,36.5 z M 23.167629,29.066754 L 21.9,19.1 L 25.9,19.1 L 24.632371,30.709518 L 23.167629,29.066754 z" style="fill:#121312;fill-opacity:1;stroke:none"/></g></g></g><path id="path11067" d="M 319.24867,126.78214 C 318.57562,126.78214 317.96921,127.18612 317.63016,127.79276 L 307.76531,146.46786 L 328.23469,141.58304 L 320.85986,127.7232 C 320.52586,127.11656 319.92173,126.78214 319.24867,126.78214 z" style="opacity:.47126435;fill:url(#radialGradient11069);fill-opacity:1;fill-rule:nonzero;stroke:none;stroke-width:.63829809;stroke-miterlimit:4;stroke-dasharray:none;stroke-opacity:1;display:inline;enable-background:new"/><rect style="opacity:.5;fill:#000;fill-opacity:1;stroke:none;stroke-width:1;stroke-linecap:round;stroke-linejoin:miter;stroke-miterlimit:4;stroke-dasharray:none;stroke-opacity:1;filter:url(#filter3290)" id="rect11249" width="44" height="3" x="298" y="91" rx="3.25" ry="1.5" transform="matrix(1,0,0,0.8333333,0,16.291667)"/><rect style="opacity:.3;fill:#000;fill-opacity:1;stroke:none;stroke-width:1;stroke-linecap:round;stroke-linejoin:miter;stroke-miterlimit:4;stroke-dasharray:none;stroke-opacity:1;display:inline;filter:url(#filter3369);enable-background:new" id="rect3363" width="44" height="3" x="298" y="91" rx="3.25" ry="1.5" transform="matrix(1,0,0,0.8333333,0,16.291667)"/><g id="g3340" transform="translate(20,0)"><path style="fill:url(#linearGradient3350);fill-opacity:1;fill-rule:nonzero;stroke:url(#linearGradient3352);stroke-width:1.0000006;stroke-miterlimit:4;stroke-dasharray:none;stroke-opacity:1" id="path11155" d="M 321.38815,89.210357 L 302.65888,54.054926 C 302.12055,53.078387 301.14644,52.535866 300.06159,52.535866 C 298.97673,52.535866 297.99764,53.186889 297.45112,54.163431 L 278.86132,89.318863 C 278.42375,90.186898 278.41875,91.380446 278.95754,92.248482 C 279.49633,93.116517 280.3624,93.550534 281.44726,93.550534 L 318.76631,93.550534 C 319.85117,93.550534 320.82981,93.008013 321.26739,92.139976 C 321.81345,91.271941 321.818,90.186898 321.38815,89.210357 z"/><path id="path11157" d="M 286.43378,87.268257 C 286.1507,87.734624 286.43019,88.10772 286.89867,88.10772 L 313.32063,88.10772 C 313.78911,88.10772 314.07179,87.734624 313.7927,87.268257 L 300.50026,62.457497 C 300.22117,61.99113 299.84639,61.99113 299.65701,62.457497 L 286.43378,87.268257 z" style="fill:url(#radialGradient3354);fill-opacity:1;fill-rule:nonzero;stroke:none;stroke-miterlimit:4"/><path style="opacity:.7;fill:none;fill-opacity:1;fill-rule:nonzero;stroke:url(#linearGradient3356);stroke-width:1.00000072;stroke-miterlimit:4;stroke-dasharray:none;stroke-opacity:1" id="path11159" d="M 319.70872,88.410306 L 302.18855,55.566874 C 301.44238,54.152016 301.17474,53.698072 300.04078,53.698072 C 299.06548,53.698072 298.55518,54.359181 297.85038,55.694692 L 280.52467,88.511677 C 279.5186,90.354157 279.41081,90.834424 279.89506,91.645373 C 280.37931,92.456324 281.00107,92.412155 283.29839,92.465053 L 317.35102,92.465053 C 319.48979,92.491502 319.97156,92.328504 320.36508,91.517556 C 320.85612,90.706604 320.64726,90.063213 319.70872,88.410306 z"/><g style="fill:#121312;fill-opacity:1;fill-rule:nonzero;stroke:#000;stroke-width:.98018837;stroke-miterlimit:4" id="g11161" transform="matrix(0.8800893,0,0,0.8943381,279.00476,52.735221)"><path style="fill:#121312;fill-opacity:1;stroke:none" id="path11163" d="M 23.9,36.5 C 22.6,36.5 21.6,35.5 21.6,34.2 C 21.6,32.8 22.5,31.9 23.9,31.9 C 25.3,31.9 26.1,32.8 26.2,34.2 C 26.2,35.5 25.3,36.5 23.9,36.5 L 23.9,36.5 z M 23.167629,29.066754 L 21.9,19.1 L 25.9,19.1 L 24.632371,30.709518 L 23.167629,29.066754 z"/></g><path style="opacity:.47126435;fill:url(#radialGradient3358);fill-opacity:1;fill-rule:nonzero;stroke:none;stroke-width:.63829809;stroke-miterlimit:4;stroke-dasharray:none;stroke-opacity:1;display:inline;enable-background:new" id="path11179" d="M 299.98224,53.06428 C 298.98396,53.06428 298.08452,53.663465 297.58163,54.563254 L 282.94994,82.262453 L 313.31044,75.017218 L 302.37197,54.460079 C 301.8766,53.560291 300.98053,53.06428 299.98224,53.06428 z"/><path id="path3296" d="M 339.9375,88.96875 C 339.66805,89.21683 339.25744,89.375001 338.78125,89.375 L 301.4375,89.375 C 300.93899,89.375 300.60935,89.257892 300.34375,89.03125 L 299.90625,89.84375 C 299.66445,90.32339 299.68819,91.14174 299.96875,91.59375 C 300.32048,92.16043 300.68149,92.375 301.4375,92.375 L 338.78125,92.375 C 339.46629,92.375 340.00749,92.01282 340.21875,91.59375 C 340.24945,91.55922 340.27797,91.53069 340.3125,91.5 C 340.61471,91.0196 340.61663,90.37843 340.3125,89.6875 L 339.9375,88.96875 z" transform="matrix(1,0,0,1.2201835,-20,-20.33945)" style="opacity:.4;fill:url(#linearGradient3360);fill-opacity:1;fill-rule:nonzero;stroke:none;stroke-width:.63829809;stroke-miterlimit:4;stroke-dasharray:none;stroke-opacity:1;display:inline;filter:url(#filter3301);enable-background:new"/></g><path id="path3389" d="M 339.9375,88.96875 C 339.66805,89.21683 339.25744,89.375001 338.78125,89.375 L 301.4375,89.375 C 300.93899,89.375 300.60935,89.257892 300.34375,89.03125 L 299.90625,89.84375 C 299.66445,90.32339 299.68819,91.14174 299.96875,91.59375 C 300.32048,92.16043 300.68149,92.375 301.4375,92.375 L 338.78125,92.375 C 339.46629,92.375 340.00749,92.01282 340.21875,91.59375 C 340.24945,91.55922 340.27797,91.53069 340.3125,91.5 C 340.61471,91.0196 340.61663,90.37843 340.3125,89.6875 L 339.9375,88.96875 z" transform="matrix(0.6691729,0,0,0.8165138,104.911,76.949541)" style="opacity:.4;fill:url(#linearGradient3391);fill-opacity:1;fill-rule:nonzero;stroke:none;stroke-width:.63829809;stroke-miterlimit:4;stroke-dasharray:none;stroke-opacity:1;display:inline;filter:url(#filter3301);enable-background:new"/></g><g id="layer4" style="display:inline"><g id="g9958" transform="matrix(1.566667,0,0,1.566667,9.244317,10.530731)"><rect style="opacity:.65517243;fill:#000;fill-opacity:1;fill-rule:nonzero;stroke:none;stroke-width:2;stroke-linecap:butt;stroke-linejoin:miter;marker:none;marker-start:none;marker-mid:none;marker-end:none;stroke-miterlimit:10;stroke-dasharray:none;stroke-dashoffset:0;stroke-opacity:1;visibility:visible;display:block;overflow:visible;filter:url(#filter5760);enable-background:accumulate" id="rect5125" width="224" height="23" x="15" y="209" rx="12.037" ry="12.79" transform="matrix(0.6098021,0,0,0.5739318,9.3160883,25.010383)"/><rect id="rect4573" width="224" height="23" x="15" y="209" rx="11.5" ry="12.219" transform="matrix(0.6382976,0,0,0.6007511,5.6971683,21.011632)" style="opacity:.65517243;fill:#000;fill-opacity:1;fill-rule:nonzero;stroke:none;stroke-width:2;stroke-linecap:butt;stroke-linejoin:miter;marker:none;marker-start:none;marker-mid:none;marker-end:none;stroke-miterlimit:10;stroke-dasharray:none;stroke-dashoffset:0;stroke-opacity:1;visibility:visible;display:block;overflow:visible;filter:url(#filter5232);enable-background:accumulate"/><path id="path6485" d="M 157.74232,141.64108 L 94.445558,22.674116 C 92.62622,19.369479 89.33418,17.533572 85.667845,17.533572 C 82.0015,17.533572 78.692581,19.736655 76.845594,23.041297 L 14.020183,142.00827 C 12.541359,144.94572 12.524465,148.98472 14.345352,151.92218 C 16.166232,154.85963 19.093166,156.32836 22.759511,156.32836 L 148.88167,156.32836 C 152.548,156.32836 155.85539,154.49245 157.33422,151.55499 C 159.17967,148.61753 159.19503,144.94572 157.74232,141.64108 z" style="fill:url(#linearGradient5250);fill-opacity:1;fill-rule:nonzero;stroke:none;stroke-width:.63829809;stroke-miterlimit:4;stroke-dasharray:none;stroke-opacity:1"/><path style="fill:url(#radialGradient5258);fill-opacity:1;fill-rule:nonzero;stroke:none;stroke-miterlimit:4" id="path6496" d="M 32.648373,137.43821 C 31.547582,139.25423 32.634433,140.70698 34.456163,140.70698 L 137.20227,140.70698 C 139.024,140.70698 140.12321,139.25423 139.03798,137.43821 L 87.348188,40.830157 C 86.262885,39.014216 84.805504,39.014216 84.069055,40.830157 L 32.648373,137.43821 z"/><g id="g6498" transform="matrix(2.9743185,0,0,3.0264653,14.504915,17.569898)" style="fill:#121312;fill-opacity:1;fill-rule:nonzero;stroke:#000;stroke-width:.18500587;stroke-miterlimit:4"><path id="path6500" d="M 23.9,36.5 C 22.6,36.5 21.6,35.5 21.6,34.2 C 21.6,32.8 22.5,31.9 23.9,31.9 C 25.3,31.9 26.1,32.8 26.2,34.2 C 26.2,35.5 25.3,36.5 23.9,36.5 L 23.9,36.5 z M 23.167629,29.066754 L 21.9,19.1 L 25.9,19.1 L 24.632371,30.709518 L 23.167629,29.066754 z" style="fill:#121312;fill-opacity:1;stroke:none"/></g><path id="path5262" d="M 85.500504,18.317748 C 81.889951,18.317748 78.637056,20.484944 76.818173,23.739293 L 14.941842,140.89172 C 14.026098,142.71072 13.684172,144.96158 13.998976,147.099 C 14.156824,146.01385 14.472393,144.96716 14.941842,144.03466 L 76.818173,26.882219 C 78.637056,23.627872 81.889951,21.460675 85.500504,21.460675 C 89.111049,21.460675 92.351892,23.254651 94.143548,26.509004 L 156.49131,143.68113 C 156.92746,144.67319 157.21795,145.69728 157.37529,146.7259 C 157.68234,144.69142 157.3769,142.55281 156.49131,140.53819 L 94.143548,23.366075 C 92.351892,20.111728 89.111049,18.317748 85.500504,18.317748 z" transform="matrix(0.955552,0,0,0.955552,3.808628,3.0378953)" style="fill:url(#linearGradient5349);fill-opacity:1;fill-rule:nonzero;stroke:none;stroke-width:.63829809;stroke-miterlimit:4;stroke-dasharray:none;stroke-opacity:1;filter:url(#filter5339)"/><path id="path5351" d="M 30,218 L 226,218 L 237,205 L 224,213 L 17.372582,214 L 30,218 z" transform="matrix(0.6382977,0,0,0.6382977,5.6971686,15.285724)" style="opacity:.28160921;fill:#fff;fill-opacity:1;fill-rule:nonzero;stroke:none;stroke-width:2;stroke-linecap:butt;stroke-linejoin:miter;marker:none;marker-start:none;marker-mid:none;marker-end:none;stroke-miterlimit:10;stroke-dasharray:none;stroke-dashoffset:0;stroke-opacity:1;visibility:visible;display:block;overflow:visible;filter:url(#filter5393);enable-background:accumulate"/><path id="path5397" d="M 85.761126,20.695974 C 82.49201,20.695974 79.546735,22.658222 77.899863,25.604823 L 29.985275,116.31167 L 129.40716,92.585631 L 93.586819,25.266891 C 91.964594,22.320301 89.03024,20.695974 85.761126,20.695974 z" style="opacity:.47126435;fill:url(#radialGradient5408);fill-opacity:1;fill-rule:nonzero;stroke:none;stroke-width:.63829809;stroke-miterlimit:4;stroke-dasharray:none;stroke-opacity:1"/><path style="fill:url(#linearGradient5551);fill-opacity:1;fill-rule:nonzero;stroke:none;stroke-width:.63829809;stroke-miterlimit:4;stroke-dasharray:none;stroke-opacity:1;filter:url(#filter5468)" id="path5410" d="M 85.500504,18.317748 C 81.889951,18.317748 78.637056,20.484944 76.818173,23.739293 L 14.941842,140.89172 C 14.026098,142.71072 13.684172,144.96158 13.998976,147.099 C 14.156824,146.01385 14.472393,144.96716 14.941842,144.03466 L 76.818173,26.882219 C 78.637056,23.627872 81.889951,21.460675 85.500504,21.460675 C 89.111049,21.460675 92.351892,23.254651 94.143548,26.509004 L 156.49131,143.68113 C 156.92746,144.67319 157.21795,145.69728 157.37529,146.7259 C 157.68234,144.69142 157.3769,142.55281 156.49131,140.53819 L 94.143548,23.366075 C 92.351892,20.111728 89.111049,18.317748 85.500504,18.317748 z" transform="matrix(0.955552,0,0,0.955552,3.808628,3.0378953)"/></g></g><g id="g10306" transform="translate(-457.73144,-1.374928)" style="enable-background:new"><g id="layer3" style="display:none"><rect style="fill:#eeeeec;fill-opacity:1;fill-rule:nonzero;stroke:none;stroke-width:2;marker:none;visibility:visible;display:inline;overflow:visible;enable-background:accumulate" id="rect6282-8" width="256" height="256" x="20" y="20"/><rect id="rect6284-8" width="48" height="48" x="296.063" y="39.996" style="fill:#eeeeec;fill-opacity:1;fill-rule:nonzero;stroke:none;stroke-width:2;marker:none;visibility:visible;display:inline;overflow:visible;enable-background:accumulate"/><rect style="fill:#eeeeec;fill-opacity:1;fill-rule:nonzero;stroke:none;stroke-width:2;marker:none;visibility:visible;display:inline;overflow:visible;enable-background:accumulate" id="rect6592-5" width="32" height="32" x="303" y="115.996"/><rect id="rect6749-0" width="22" height="22" x="303" y="167.059" style="fill:#eeeeec;fill-opacity:1;fill-rule:nonzero;stroke:none;stroke-width:2;marker:none;visibility:visible;display:inline;overflow:visible;enable-background:accumulate"/><rect style="fill:#eeeeec;fill-opacity:1;fill-rule:nonzero;stroke:none;stroke-width:2;marker:none;visibility:visible;display:inline;overflow:visible;enable-background:accumulate" id="rect6833-9" width="16" height="16" x="303" y="209"/><rect style="fill:#eeeeec;fill-opacity:1;fill-rule:nonzero;stroke:none;stroke-width:2;marker:none;visibility:visible;display:inline;overflow:visible;enable-background:accumulate" id="rect5028" width="24" height="24" x="301.957" y="165.953"/></g><g id="layer1-6" style="display:inline"><rect style="fill:#eeeeec;fill-opacity:1;fill-rule:nonzero;stroke:none;stroke-width:5;marker:none;visibility:visible;display:none;overflow:visible;enable-background:accumulate" id="256x256" width="256" height="256" x="23.5" y="171.599"/><rect id="48x48" width="48" height="48" x="-38.5" y="171.599" style="fill:#eeeeec;fill-opacity:1;fill-rule:nonzero;stroke:none;stroke-width:5;marker:none;visibility:visible;display:none;overflow:visible;enable-background:accumulate"/><rect style="fill:#eeeeec;fill-opacity:1;fill-rule:nonzero;stroke:none;stroke-width:5;marker:none;visibility:visible;display:none;overflow:visible;enable-background:accumulate" id="24x24" width="24" height="24" x="-123.5" y="171.599"/><rect id="16x16" width="16" height="16" x="-155.5" y="171.599" style="fill:#eeeeec;fill-opacity:1;fill-rule:nonzero;stroke:none;stroke-width:5;marker:none;visibility:visible;display:none;overflow:visible;enable-background:accumulate"/><rect id="32x32" width="32" height="32" x="-87.5" y="171.599" style="fill:#eeeeec;fill-opacity:1;fill-rule:nonzero;stroke:none;stroke-width:5;marker:none;visibility:visible;display:none;overflow:visible;enable-background:accumulate"/></g></g></g></svg>