<svg xmlns="http://www.w3.org/2000/svg" xmlns:svg="http://www.w3.org/2000/svg" xmlns:xlink="http://www.w3.org/1999/xlink" id="svg11300" width="400" height="300" version="1.0" style="display:inline;enable-background:new"><title id="title8836">Optical Drive</title><metadata id="metadata154"/><defs id="defs3"><linearGradient id="linearGradient3125"><stop id="stop3127" offset="0" style="stop-color:black;stop-opacity:1"/><stop id="stop3129" offset="1" style="stop-color:black;stop-opacity:0"/></linearGradient><linearGradient id="linearGradient3109"><stop id="stop3111" offset="0" style="stop-color:black;stop-opacity:1"/><stop id="stop3113" offset="1" style="stop-color:black;stop-opacity:0"/></linearGradient><radialGradient id="radialGradient3115" cx="16.688" cy="42.063" r="7.063" fx="16.688" fy="42.063" gradientTransform="matrix(1,0,0,0.39823,0,25.31195)" gradientUnits="userSpaceOnUse" xlink:href="#linearGradient3109"/><radialGradient id="radialGradient3117" cx="16.688" cy="42.063" r="7.063" fx="16.688" fy="42.063" gradientTransform="matrix(1,0,0,0.39823,0,25.31195)" gradientUnits="userSpaceOnUse" xlink:href="#linearGradient3109"/><radialGradient id="radialGradient3131" cx="25.016" cy="37.813" r="7.953" fx="25.016" fy="37.813" gradientTransform="matrix(1,0,0,0.444008,0,21.02345)" gradientUnits="userSpaceOnUse" xlink:href="#linearGradient3125"/><linearGradient id="linearGradient4896"><stop id="stop4898" offset="0" style="stop-color:black;stop-opacity:1"/><stop id="stop4900" offset="1" style="stop-color:black;stop-opacity:0"/></linearGradient><radialGradient id="radialGradient4902" cx="10.734" cy="26.922" r="5.391" fx="10.734" fy="26.922" gradientTransform="matrix(1,0,0,0.344928,0,17.63578)" gradientUnits="userSpaceOnUse" xlink:href="#linearGradient4896"/><radialGradient id="radialGradient4904" cx="10.734" cy="26.922" r="5.391" fx="10.734" fy="26.922" gradientTransform="matrix(1,0,0,0.344928,0,17.63578)" gradientUnits="userSpaceOnUse" xlink:href="#linearGradient4896"/><radialGradient id="radialGradient4908" cx="10.734" cy="26.922" r="5.391" fx="10.734" fy="26.922" gradientTransform="matrix(1,0,0,0.344928,0,17.63578)" gradientUnits="userSpaceOnUse" xlink:href="#linearGradient4896"/></defs><g id="layer6" style="display:none"><rect id="rect6284" width="48" height="48" x="296" y="50" style="fill:#eeeeec;fill-opacity:1;fill-rule:nonzero;stroke:none;stroke-width:2;marker:none;visibility:visible;display:inline;overflow:visible;enable-background:accumulate"/><rect id="rect6592" width="32" height="32" x="303" y="126" style="fill:#eeeeec;fill-opacity:1;fill-rule:nonzero;stroke:none;stroke-width:2;marker:none;visibility:visible;display:inline;overflow:visible;enable-background:accumulate"/><rect id="rect6749" width="22" height="22" x="303" y="177" style="fill:#eeeeec;fill-opacity:1;fill-rule:nonzero;stroke:none;stroke-width:2;marker:none;visibility:visible;display:inline;overflow:visible;enable-background:accumulate"/><rect id="rect6833" width="16" height="16" x="303" y="219" style="fill:#eeeeec;fill-opacity:1;fill-rule:nonzero;stroke:none;stroke-width:2;marker:none;visibility:visible;display:inline;overflow:visible;enable-background:accumulate"/><text id="context" x="20.971" y="21.514" xml:space="preserve" style="font-size:18.30070686px;font-style:normal;font-weight:400;fill:#000;fill-opacity:1;stroke:none;display:inline;enable-background:new;font-family:Bitstream Vera Sans"><tspan id="tspan2716" x="20.971" y="21.514">actions</tspan></text><text id="icon-name" x="191.971" y="21.514" xml:space="preserve" style="font-size:18.30070686px;font-style:normal;font-variant:normal;font-weight:700;font-stretch:normal;text-align:start;line-height:125%;writing-mode:lr-tb;text-anchor:start;fill:#000;fill-opacity:1;stroke:none;display:inline;enable-background:new;font-family:Droid Sans;-inkscape-font-specification:Droid Sans Bold"><tspan id="tspan3023" x="191.971" y="21.514">edit-cut</tspan></text></g><g id="layer2" style="display:inline"><g id="g48" transform="translate(296,50) scale(1.000000,1.000000)" style="display:inline;enable-background:new"><path id="path3123" d="M 32.96875 37.8125 A 7.953125 3.53125 0 1 1 17.0625,37.8125 A 7.953125 3.53125 0 1 1 32.96875 37.8125 z" transform="matrix(1.005894,0,0,0.991151,0.836926,1.022119)" style="opacity:.11000001;color:#000;fill:url(#radialGradient3131);fill-opacity:1;fill-rule:nonzero;stroke:none;stroke-width:1;stroke-linecap:round;stroke-linejoin:round;marker:none;marker-start:none;marker-mid:none;marker-end:none;stroke-miterlimit:4;stroke-dasharray:none;stroke-dashoffset:1.4;stroke-opacity:.47058824;visibility:visible;display:inline;overflow:visible"/><g id="g3119" transform="translate(0,0.59375)" style="opacity:.3"><path id="path2218" d="M 23.75 42.0625 A 7.0625 2.8125 0 1 1 9.625,42.0625 A 7.0625 2.8125 0 1 1 23.75 42.0625 z" transform="matrix(0.99115,0,0,1.066667,0.460177,-4.866667)" style="opacity:1;color:#000;fill:url(#radialGradient3115);fill-opacity:1;fill-rule:nonzero;stroke:none;stroke-width:1;stroke-linecap:round;stroke-linejoin:round;marker:none;marker-start:none;marker-mid:none;marker-end:none;stroke-miterlimit:4;stroke-dasharray:none;stroke-dashoffset:1.4;stroke-opacity:.47058824;visibility:visible;display:inline;overflow:visible"/><path id="path3107" d="M 23.75 42.0625 A 7.0625 2.8125 0 1 1 9.625,42.0625 A 7.0625 2.8125 0 1 1 23.75 42.0625 z" transform="matrix(0.99115,0,0,1.066667,16.46018,-4.866667)" style="opacity:1;color:#000;fill:url(#radialGradient3117);fill-opacity:1;fill-rule:nonzero;stroke:none;stroke-width:1;stroke-linecap:round;stroke-linejoin:round;marker:none;marker-start:none;marker-mid:none;marker-end:none;stroke-miterlimit:4;stroke-dasharray:none;stroke-dashoffset:1.4;stroke-opacity:.47058824;visibility:visible;display:inline;overflow:visible"/></g><g id="g2200" transform="matrix(1,0,0,-1,-7,50.98481)"><path id="path10844" d="M 23.555074,40.141369 L 35.161165,20.64645 L 24.411662,42 L 23.555074,40.141369 z" style="opacity:.6;fill:#fff;fill-opacity:1;fill-rule:evenodd;stroke:none;stroke-width:1px;stroke-linecap:butt;stroke-linejoin:miter;stroke-opacity:1"/><path id="path10784" d="M 23.5,42.920786 C 23.5,42.920786 21.538778,40.657664 21.5,34.918534 C 21.461222,29.128896 33.545431,17.539902 33.545431,17.539902 L 35.428571,19.156518 L 23.5,42.920786 z" style="fill:#d9d6d0;fill-opacity:1;fill-rule:evenodd;stroke:#888a85;stroke-width:1.00000012px;stroke-linecap:butt;stroke-linejoin:miter;stroke-opacity:1"/><path id="path10848" d="M 23.502378,40.5 C 23.502378,40.5 22.633959,38.835453 22.501208,34.816554 C 22.368457,30.761939 33.223776,18.734624 33.223776,18.734624 L 34.198114,19.264746 L 23.502378,40.5 z" style="opacity:.4;fill:none;fill-opacity:1;fill-rule:evenodd;stroke:#fff;stroke-width:1.00000024px;stroke-linecap:butt;stroke-linejoin:miter;stroke-opacity:1"/><path id="path12233" d="M 22.238158,38.40995 L 33.543378,19.801557 L 34.241997,20.373435 L 23.492494,41.726988 L 22.238158,38.40995 z" style="opacity:.6;fill:#fff;fill-opacity:1;fill-rule:evenodd;stroke:none;stroke-width:1px;stroke-linecap:butt;stroke-linejoin:miter;stroke-opacity:1"/><path id="path10822" d="M 39.466015,9.5345307 C 43.029605,9.5871898 44.466015,12.207182 44.466015,15.500271 C 44.466015,18.587542 42.486282,21.129254 39.966015,21.434941 L 35.278515,21.466011 L 32.466015,18.762785 C 33.141566,17.460107 34.380092,16.346765 34.403515,15.344913 C 34.451281,13.251654 35.903534,9.4818885 39.466015,9.5345307 z M 39.497265,12.610016 C 37.43933,12.57492 36.388379,13.918237 36.412444,15.313842 L 36.483872,19.456292 L 39.809765,19.425221 C 41.265645,19.221426 42.403516,17.496356 42.403515,15.438128 C 42.403515,13.242685 41.55584,12.645123 39.497265,12.610016 z" style="fill:#ef2929;fill-opacity:1;stroke:#a40000;stroke-width:1.06796968;stroke-linecap:round;stroke-linejoin:miter;stroke-miterlimit:4;stroke-dasharray:none;stroke-opacity:1"/><path id="path10786" d="M 39.493806,43.484807 C 39.493806,43.484807 41.505536,40.924025 41.493806,35.50796 C 41.482077,30.092022 29.75142,17.931965 29.75142,17.931965 L 27.565235,19.795988 L 39.493806,43.484807 z" style="fill:#d9d6d0;fill-opacity:1;fill-rule:evenodd;stroke:#888a85;stroke-width:1.00000012px;stroke-linecap:butt;stroke-linejoin:miter;stroke-opacity:1"/><path id="path10846" d="M 39.549281,41.230586 C 39.549281,41.230586 40.4177,39.566039 40.550451,35.547139 C 40.683202,31.492525 29.827883,19.46521 29.827883,19.46521 L 28.853545,19.995332 L 39.549281,41.230586 z" style="opacity:.4;fill:none;fill-opacity:1;fill-rule:evenodd;stroke:#fff;stroke-width:1.00000024px;stroke-linecap:butt;stroke-linejoin:miter;stroke-opacity:1"/><path id="path10805" d="M 23.533985,9.5345374 C 19.970395,9.5871977 18.533985,12.207195 18.533985,15.500288 C 18.533985,18.587563 20.513718,21.12928 23.033985,21.434965 L 27.721485,21.466037 L 30.533985,18.762807 C 29.858434,17.460126 28.619908,16.346782 28.596485,15.344929 C 28.548719,13.251666 27.096466,9.4818952 23.533985,9.5345374 z M 23.502735,12.565833 C 25.56067,12.530736 26.480414,13.918043 26.480414,15.313858 L 26.480414,19.415311 L 23.190235,19.384239 C 21.734355,19.180444 20.596485,17.496377 20.596485,15.438145 C 20.596485,13.242697 21.44416,12.60094 23.502735,12.565833 z" style="fill:#ef2929;fill-opacity:1;stroke:#a40000;stroke-width:1.06797028;stroke-linecap:round;stroke-linejoin:miter;stroke-miterlimit:4;stroke-dasharray:none;stroke-opacity:1"/><path id="path10842" d="M 40.751301,39.087023 L 29.446081,20.47863 L 28.747462,21.050508 L 39.496965,42.404061 L 40.751301,39.087023 z" style="opacity:.6;fill:#fff;fill-opacity:1;fill-rule:evenodd;stroke:none;stroke-width:1px;stroke-linecap:butt;stroke-linejoin:miter;stroke-opacity:1"/><path id="path12235" d="M 23.672328,10.534436 C 20.722856,10.578269 19.533985,12.759109 19.533985,15.500222 C 19.533985,18.070015 21.172548,20.185695 23.258494,20.440143 L 27.138192,20.466006 L 29.15351,18.528385 C 28.563128,17.600306 27.663039,16.892328 27.643652,16.058403 C 27.604118,14.316008 26.620883,10.490618 23.672328,10.534436 z" style="opacity:.2;fill:none;fill-opacity:1;stroke:#fff;stroke-width:1.06797004;stroke-linecap:round;stroke-linejoin:miter;stroke-miterlimit:4;stroke-dasharray:none;stroke-opacity:1"/><path id="path12237" d="M 39.327672,10.534358 C 42.277144,10.578191 43.466015,12.759031 43.466015,15.500144 C 43.466015,18.069937 41.827452,20.185617 39.741506,20.440065 L 35.861808,20.465928 L 33.84649,18.528307 C 34.436872,17.600228 35.336961,16.89225 35.356348,16.058325 C 35.395882,14.31593 36.379117,10.49054 39.327672,10.534358 z" style="opacity:.2;fill:none;fill-opacity:1;stroke:#fff;stroke-width:1.06797004;stroke-linecap:round;stroke-linejoin:miter;stroke-miterlimit:4;stroke-dasharray:none;stroke-opacity:1"/><path id="path2797" d="M 32.5 22.90625 A 1.21875 1.21875 0 1 1 30.0625,22.90625 A 1.21875 1.21875 0 1 1 32.5 22.90625 z" style="opacity:1;color:#000;fill:#fff;fill-opacity:1;fill-rule:nonzero;stroke:#888a85;stroke-width:1;stroke-linecap:butt;stroke-linejoin:miter;marker:none;marker-start:none;marker-mid:none;marker-end:none;stroke-miterlimit:4;stroke-dasharray:none;stroke-dashoffset:0;stroke-opacity:1;visibility:visible;display:inline;overflow:visible"/><path id="path2799" d="M 28.770407,23.295457 L 30.847533,27.272933 L 30.140426,28.598758 L 28.770407,23.295457 z" style="opacity:.15577889;color:#000;fill:#000;fill-opacity:1;fill-rule:nonzero;stroke:none;stroke-width:1;stroke-linecap:butt;stroke-linejoin:miter;marker:none;marker-start:none;marker-mid:none;marker-end:none;stroke-miterlimit:4;stroke-dasharray:none;stroke-dashoffset:0;stroke-opacity:1;visibility:visible;display:inline;overflow:visible"/><path id="path2801" d="M 38.095378 12.357399 A 0.59662133 0.59662133 0 1 1 36.902135,12.357399 A 0.59662133 0.59662133 0 1 1 38.095378 12.357399 z" transform="matrix(0.825663,0,0,0.825663,3.514811,9.28956)" style="opacity:.64824123;color:#000;fill:#fff;fill-opacity:1;fill-rule:nonzero;stroke:none;stroke-width:1;stroke-linecap:butt;stroke-linejoin:miter;marker:none;marker-start:none;marker-mid:none;marker-end:none;stroke-miterlimit:4;stroke-dasharray:none;stroke-dashoffset:0;stroke-opacity:1;visibility:visible;display:inline;overflow:visible"/><path id="path2803" d="M 38.095378 12.357399 A 0.59662133 0.59662133 0 1 1 36.902135,12.357399 A 0.59662133 0.59662133 0 1 1 38.095378 12.357399 z" transform="matrix(0.825663,0,0,0.825663,-9.45394,9.28956)" style="opacity:.64824123;color:#000;fill:#fff;fill-opacity:1;fill-rule:nonzero;stroke:none;stroke-width:1;stroke-linecap:butt;stroke-linejoin:miter;marker:none;marker-start:none;marker-mid:none;marker-end:none;stroke-miterlimit:4;stroke-dasharray:none;stroke-dashoffset:0;stroke-opacity:1;visibility:visible;display:inline;overflow:visible"/><path id="path2805" d="M 38.095378 12.357399 A 0.59662133 0.59662133 0 1 1 36.902135,12.357399 A 0.59662133 0.59662133 0 1 1 38.095378 12.357399 z" transform="matrix(1.637526,0,0,1.637526,-30.49516,3.101231)" style="opacity:1;color:#000;fill:#fff;fill-opacity:1;fill-rule:nonzero;stroke:none;stroke-width:1;stroke-linecap:butt;stroke-linejoin:miter;marker:none;marker-start:none;marker-mid:none;marker-end:none;stroke-miterlimit:4;stroke-dasharray:none;stroke-dashoffset:0;stroke-opacity:1;visibility:visible;display:inline;overflow:visible"/></g></g><g id="g32" transform="translate(303,126) scale(1.000000,1.000000)" style="display:inline;enable-background:new"><path id="path56" d="M 10.298114,6.0451525 L 18.436577,19.688854 L 10.898774,4.7443735 L 10.298114,6.0451525 z" style="opacity:.6;fill:#fff;fill-opacity:1;fill-rule:evenodd;stroke:none;stroke-width:1px;stroke-linecap:butt;stroke-linejoin:miter;stroke-opacity:1"/><path id="path4906" d="M 16.125 26.921875 A 5.390625 1.859375 0 1 1 5.34375,26.921875 A 5.390625 1.859375 0 1 1 16.125 26.921875 z" transform="matrix(1.02029,0,0,1.613449,5.54782,-19.43705)" style="opacity:.1;color:#000;fill:url(#radialGradient4908);fill-opacity:1;fill-rule:nonzero;stroke:none;stroke-width:1;stroke-linecap:round;stroke-linejoin:round;marker:none;marker-start:none;marker-mid:none;marker-end:none;stroke-miterlimit:4;stroke-dasharray:none;stroke-dashoffset:1.4;stroke-opacity:.47058824;visibility:visible;display:inline;overflow:visible"/><path id="path59" d="M 9.9537684,4.0999435 C 9.9537684,4.0999435 8.5282527,5.6838105 8.5000669,9.7003965 C 8.4718811,13.752329 17.255301,21.862998 17.255301,21.862998 L 18.624062,20.731594 L 9.9537684,4.0999435 z" style="fill:#d9d6d0;fill-opacity:1;fill-rule:evenodd;stroke:#888a85;stroke-width:.9999997px;stroke-linecap:butt;stroke-linejoin:miter;stroke-opacity:1"/><path id="path61" d="M 10.207882,5.7941545 C 10.207882,5.7941545 9.5946029,6.9591025 9.5008538,9.7717675 C 9.4071046,12.609429 17.073161,21.02686 17.073161,21.02686 L 17.761241,20.655849 L 10.207882,5.7941545 z" style="opacity:.4;fill:none;fill-opacity:1;fill-rule:evenodd;stroke:#fff;stroke-width:1px;stroke-linecap:butt;stroke-linejoin:miter;stroke-opacity:1"/><path id="path63" d="M 9,7.2569025 L 17.280341,20.280161 L 17.792034,19.879926 L 9.9187202,4.9354425 L 9,7.2569025 z" style="opacity:.8;fill:#fff;fill-opacity:1;fill-rule:evenodd;stroke:none;stroke-width:1px;stroke-linecap:butt;stroke-linejoin:miter;stroke-opacity:1"/><path id="path3122" d="M 16.125 26.921875 A 5.390625 1.859375 0 1 1 5.34375,26.921875 A 5.390625 1.859375 0 1 1 16.125 26.921875 z" transform="matrix(1.02029,0,0,1.34454,-0.452176,-9.697532)" style="opacity:.5;color:#000;fill:url(#radialGradient4902);fill-opacity:1;fill-rule:nonzero;stroke:none;stroke-width:1;stroke-linecap:round;stroke-linejoin:round;marker:none;marker-start:none;marker-mid:none;marker-end:none;stroke-miterlimit:4;stroke-dasharray:none;stroke-dashoffset:1.4;stroke-opacity:.47058824;visibility:visible;display:inline;overflow:visible"/><path id="path4009" d="M 16.125 26.921875 A 5.390625 1.859375 0 1 1 5.34375,26.921875 A 5.390625 1.859375 0 1 1 16.125 26.921875 z" transform="matrix(0.927537,0,0,1.34454,12.04347,-9.697532)" style="opacity:.5;color:#000;fill:url(#radialGradient4904);fill-opacity:1;fill-rule:nonzero;stroke:none;stroke-width:1;stroke-linecap:round;stroke-linejoin:round;marker:none;marker-start:none;marker-mid:none;marker-end:none;stroke-miterlimit:4;stroke-dasharray:none;stroke-dashoffset:1.4;stroke-opacity:.47058824;visibility:visible;display:inline;overflow:visible"/><path id="path67" d="M 21.166279,27.465654 C 23.518058,27.430754 24.466011,25.69435 24.466011,23.51185 C 24.466011,21.465756 23.159493,19.781233 21.496252,19.578638 L 18.402752,19.558047 L 16.546652,21.349613 C 16.992479,22.212965 17.809841,22.950835 17.825299,23.614814 C 17.856822,25.002124 18.815231,27.500542 21.166279,27.465654 z M 21.452067,25.427371 C 20.382676,25.486947 19.482372,24.559602 19.442234,23.635406 L 19.323002,20.889991 L 20.990214,20.910583 C 22.658094,21.003798 22.626569,23.444469 22.584977,24.013395 C 22.546019,24.546268 22.14252,25.388905 21.452067,25.427371 z" style="fill:#ef2929;fill-opacity:1;stroke:#a40000;stroke-width:1.06796908;stroke-linecap:round;stroke-linejoin:miter;stroke-miterlimit:4;stroke-dasharray:none;stroke-opacity:1"/><path id="path69" d="M 22.008081,3.7052085 C 22.008081,3.7052085 23.508705,5.4973965 23.499956,9.2878805 C 23.491206,13.078277 14.740869,21.588609 14.740869,21.588609 L 13.110111,20.284055 L 22.008081,3.7052085 z" style="fill:#d9d6d0;fill-opacity:1;fill-rule:evenodd;stroke:#888a85;stroke-width:.99999958px;stroke-linecap:butt;stroke-linejoin:miter;stroke-opacity:1"/><path id="path71" d="M 21.772821,5.2828465 C 21.772821,5.2828465 22.402823,6.4477955 22.499128,9.2604615 C 22.595433,12.098122 14.720352,20.515552 14.720352,20.515552 L 14.01351,20.144542 L 21.772821,5.2828465 z" style="opacity:.4;fill:none;fill-opacity:1;fill-rule:evenodd;stroke:#fff;stroke-width:1.00000012px;stroke-linecap:butt;stroke-linejoin:miter;stroke-opacity:1"/><path id="path73" d="M 10.141439,27.465649 C 7.570342,27.430749 6.533985,25.694345 6.533985,23.511848 C 6.533985,21.465755 7.962345,19.781233 9.780694,19.578639 L 13.162682,19.558046 L 15.191875,21.349612 C 14.704472,22.212964 13.810886,22.950834 13.793986,23.614812 C 13.759523,25.002122 12.711737,27.500538 10.141439,27.465649 z M 10.118893,25.456657 C 11.01534,25.456657 11.555189,24.56037 11.539715,23.635404 L 11.494244,20.917165 L 9.893427,20.937758 C 8.843023,21.072823 8.34036,22.23079 8.34036,23.594883 C 8.34036,25.049917 9.270251,25.558943 10.118893,25.456657 z" style="fill:#ef2929;fill-opacity:1;stroke:#a40000;stroke-width:1.06797016;stroke-linecap:round;stroke-linejoin:miter;stroke-miterlimit:4;stroke-dasharray:none;stroke-opacity:1"/><path id="path75" d="M 23,6.7830475 L 14.466477,19.806304 L 13.939138,19.40607 L 22.05319,4.4615875 L 23,6.7830475 z" style="opacity:.8;fill:#fff;fill-opacity:1;fill-rule:evenodd;stroke:none;stroke-width:1px;stroke-linecap:butt;stroke-linejoin:miter;stroke-opacity:1"/><path id="path77" d="M 10.4045,26.489852 C 8.442512,26.463673 7.872646,25.202097 7.872646,23.564919 C 7.872646,22.030064 8.741647,20.725467 10.129219,20.573493 L 12.709994,20.558047 L 13.873807,21.551447 C 13.481086,22.105758 12.838152,22.692489 12.825256,23.190565 C 12.798957,24.231242 12.365881,26.516023 10.4045,26.489852 z" style="opacity:.2;fill:none;fill-opacity:1;stroke:#fff;stroke-width:1.06796944;stroke-linecap:round;stroke-linejoin:miter;stroke-miterlimit:4;stroke-dasharray:none;stroke-opacity:1"/><path id="path79" d="M 21.102883,26.489849 C 22.934127,26.46367 23.466015,25.120153 23.466015,23.482973 C 23.466015,21.948117 22.654926,20.725459 21.359821,20.573486 L 18.951024,20.558039 L 17.864768,21.592407 C 18.231322,22.146718 18.83141,22.692482 18.843448,23.190559 C 18.867993,24.231237 19.272207,26.51602 21.102883,26.489849 z" style="opacity:.2;fill:none;fill-opacity:1;stroke:#fff;stroke-width:1.06797004;stroke-linecap:round;stroke-linejoin:miter;stroke-miterlimit:4;stroke-dasharray:none;stroke-opacity:1"/><path id="path81" d="M 32.5 22.90625 A 1.21875 1.21875 0 1 1 30.0625,22.90625 A 1.21875 1.21875 0 1 1 32.5 22.90625 z" transform="matrix(0.701223,0,0,0.699859,-6.219253,2.07617)" style="color:#000;fill:#fff;fill-opacity:1;fill-rule:nonzero;stroke:#888a85;stroke-width:1.4274683;stroke-linecap:butt;stroke-linejoin:miter;marker:none;marker-start:none;marker-mid:none;marker-end:none;stroke-miterlimit:4;stroke-dasharray:none;stroke-dashoffset:0;stroke-opacity:1;visibility:visible;display:inline;overflow:visible"/><path id="path83" d="M 13.955228,17.834922 L 15.411757,15.051248 L 14.915917,14.123357 L 13.955228,17.834922 z" style="opacity:.15577889;color:#000;fill:#000;fill-opacity:1;fill-rule:nonzero;stroke:none;stroke-width:1;stroke-linecap:butt;stroke-linejoin:miter;marker:none;marker-start:none;marker-mid:none;marker-end:none;stroke-miterlimit:4;stroke-dasharray:none;stroke-dashoffset:0;stroke-opacity:1;visibility:visible;display:inline;overflow:visible"/><path id="path85" d="M 38.095378 12.357399 A 0.59662133 0.59662133 0 1 1 36.902135,12.357399 A 0.59662133 0.59662133 0 1 1 38.095378 12.357399 z" transform="matrix(0.87527,0,0,-0.873567,-14.34374,32.29675)" style="opacity:.64824123;color:#000;fill:#fff;fill-opacity:1;fill-rule:nonzero;stroke:none;stroke-width:1;stroke-linecap:butt;stroke-linejoin:miter;marker:none;marker-start:none;marker-mid:none;marker-end:none;stroke-miterlimit:4;stroke-dasharray:none;stroke-dashoffset:0;stroke-opacity:1;visibility:visible;display:inline;overflow:visible"/><path id="path87" d="M 38.095378 12.357399 A 0.59662133 0.59662133 0 1 1 36.902135,12.357399 A 0.59662133 0.59662133 0 1 1 38.095378 12.357399 z" transform="matrix(0.838053,0,0,-0.838053,-22.92593,31.88021)" style="opacity:.64824123;color:#000;fill:#fff;fill-opacity:1;fill-rule:nonzero;stroke:none;stroke-width:1;stroke-linecap:butt;stroke-linejoin:miter;marker:none;marker-start:none;marker-mid:none;marker-end:none;stroke-miterlimit:4;stroke-dasharray:none;stroke-dashoffset:0;stroke-opacity:1;visibility:visible;display:inline;overflow:visible"/><path id="path89" d="M 38.095378 12.357399 A 0.59662133 0.59662133 0 1 1 36.902135,12.357399 A 0.59662133 0.59662133 0 1 1 38.095378 12.357399 z" transform="matrix(1.148272,0,0,1.146038,-27.55623,3.30526)" style="color:#000;fill:#fff;fill-opacity:1;fill-rule:nonzero;stroke:none;stroke-width:1;stroke-linecap:butt;stroke-linejoin:miter;marker:none;marker-start:none;marker-mid:none;marker-end:none;stroke-miterlimit:4;stroke-dasharray:none;stroke-dashoffset:0;stroke-opacity:1;visibility:visible;display:inline;overflow:visible"/></g><g id="g22" transform="translate(303,177) scale(1.000000,1.000000)" style="display:inline;enable-background:new"><path id="path92" d="M 6.9699906,2.4682979 L 13.806505,13.945013 L 7.4745601,1.3741175 L 6.9699906,2.4682979 z" style="opacity:.6;fill:#fff;fill-opacity:1;fill-rule:evenodd;stroke:none;stroke-width:1px;stroke-linecap:butt;stroke-linejoin:miter;stroke-opacity:1"/><path id="path94" d="M 16.125,26.921875 A 5.390625,1.859375 0 1 1 5.34375,26.921875 A 5.390625,1.859375 0 1 1 16.125,26.921875 z" transform="matrix(0.8570694,0,0,1.35719,2.9796236,-18.966648)" style="opacity:.1;color:#000;fill:url(#radialGradient4908);fill-opacity:1;fill-rule:nonzero;stroke:none;stroke-width:1;stroke-linecap:round;stroke-linejoin:round;marker:none;marker-start:none;marker-mid:none;marker-end:none;stroke-miterlimit:4;stroke-dasharray:none;stroke-dashoffset:1.4;stroke-opacity:.47058824;visibility:visible;display:inline;overflow:visible"/><path id="path96" d="M 5.8589872,0.83204029 C 5.8589872,0.83204029 4.5264116,2.1643468 4.5000634,5.5429913 C 4.4737153,8.9513683 12.684476,15.773845 12.684476,15.773845 L 13.963998,14.822139 L 5.8589872,0.83204029 z" style="fill:#d9d6d0;fill-opacity:1;fill-rule:evenodd;stroke:#888a85;stroke-width:.99999976px;stroke-linecap:butt;stroke-linejoin:miter;stroke-opacity:1"/><path id="path98" d="M 5.9782108,3.1187185 C 5.9782108,3.1187185 5.6398175,3.4799231 5.5610659,5.8458616 C 5.4823142,8.2328264 12.319743,14.164295 12.319743,14.164295 L 11.96967,14.16157 L 5.9782108,3.1187185 z" style="opacity:.4;fill:none;fill-opacity:1;fill-rule:evenodd;stroke:#fff;stroke-width:1.00000012px;stroke-linecap:butt;stroke-linejoin:miter;stroke-opacity:1"/><path id="path100" d="M 5.128241,3.9527499 L 12.083936,14.907565 L 12.513771,14.570898 L 5.8999892,2 L 5.128241,3.9527499 z" style="opacity:.8;fill:#fff;fill-opacity:1;fill-rule:evenodd;stroke:none;stroke-width:1px;stroke-linecap:butt;stroke-linejoin:miter;stroke-opacity:1"/><path id="path102" d="M 16.125,26.921875 A 5.390625,1.859375 0 1 1 5.34375,26.921875 A 5.390625,1.859375 0 1 1 16.125,26.921875 z" transform="matrix(0.8570694,0,0,1.130991,-2.0605246,-10.774026)" style="opacity:.5;color:#000;fill:url(#radialGradient4902);fill-opacity:1;fill-rule:nonzero;stroke:none;stroke-width:1;stroke-linecap:round;stroke-linejoin:round;marker:none;marker-start:none;marker-mid:none;marker-end:none;stroke-miterlimit:4;stroke-dasharray:none;stroke-dashoffset:1.4;stroke-opacity:.47058824;visibility:visible;display:inline;overflow:visible"/><path id="path104" d="M 16.125,26.921875 A 5.390625,1.859375 0 1 1 5.34375,26.921875 A 5.390625,1.859375 0 1 1 16.125,26.921875 z" transform="matrix(0.7791545,0,0,1.130991,8.4361337,-10.774026)" style="opacity:.5;color:#000;fill:url(#radialGradient4904);fill-opacity:1;fill-rule:nonzero;stroke:none;stroke-width:1;stroke-linecap:round;stroke-linejoin:round;marker:none;marker-start:none;marker-mid:none;marker-end:none;stroke-miterlimit:4;stroke-dasharray:none;stroke-dashoffset:1.4;stroke-opacity:.47058824;visibility:visible;display:inline;overflow:visible"/><path id="path106" d="M 16.446394,20.465698 C 18.598534,20.435107 19.466016,18.912995 19.466016,16.999842 C 19.466016,15.20626 18.270407,13.729627 16.748357,13.552035 L 13.917459,13.533985 L 12.21892,15.104451 C 12.626902,15.861254 12.593629,16.539313 12.607775,17.121349 C 12.636622,18.337448 13.544923,20.590031 16.446394,20.465698 z M 16.395422,18.491464 C 14.979218,18.585214 14.549801,17.919135 14.5562,17.29565 L 14.574884,15.475234 L 16.288068,15.493284 C 17.814364,15.574995 17.626472,16.815776 17.588411,17.31449 C 17.552759,17.7816 17.02678,18.449669 16.395422,18.491464 z" style="fill:#ef2929;fill-opacity:1;stroke:#a40000;stroke-width:1;stroke-linecap:round;stroke-linejoin:miter;stroke-miterlimit:4;stroke-dasharray:none;stroke-opacity:1"/><path id="path108" d="M 17.18356,0.49999979 C 17.18356,0.49999979 18.507685,2.0075403 18.499966,5.1959939 C 18.492244,8.3843738 10.771092,15.543037 10.771092,15.543037 L 9.332139,14.445681 L 17.18356,0.49999979 z" style="fill:#d9d6d0;fill-opacity:1;fill-rule:evenodd;stroke:#888a85;stroke-width:.99999952px;stroke-linecap:butt;stroke-linejoin:miter;stroke-opacity:1"/><path id="path110" d="M 17.006783,2.7109501 C 17.006783,2.7109501 17.270835,3.2047381 17.351734,5.5706774 C 17.432632,7.9576413 10.508006,14.419439 10.508006,14.419439 L 10.356182,14.239938 L 17.006783,2.7109501 z" style="opacity:.4;fill:none;fill-opacity:1;fill-rule:evenodd;stroke:#fff;stroke-width:1.00000012px;stroke-linecap:butt;stroke-linejoin:miter;stroke-opacity:1"/><path id="path5141" d="M 6.613542,20.465698 C 4.461402,20.435107 3.59392,18.912995 3.59392,16.999842 C 3.59392,15.20626 4.789529,13.729627 6.311579,13.552035 L 9.142477,13.533985 L 10.841016,15.104451 C 10.433034,15.861254 10.466307,16.539313 10.452161,17.121349 C 10.423314,18.337448 9.515013,20.590031 6.613542,20.465698 z M 6.664514,18.491464 C 8.080718,18.585214 8.510135,17.919135 8.503736,17.29565 L 8.485052,15.475234 L 6.771868,15.493284 C 5.245572,15.574995 5.433464,16.815776 5.471525,17.31449 C 5.507177,17.7816 6.033156,18.449669 6.664514,18.491464 z" style="fill:#ef2929;fill-opacity:1;stroke:#a40000;stroke-width:1;stroke-linecap:round;stroke-linejoin:miter;stroke-miterlimit:4;stroke-dasharray:none;stroke-opacity:1"/><path id="path113" d="M 17.772478,3.4425488 L 10.471521,14.043809 L 10.028543,13.707143 L 17.15391,1.5339931 L 17.772478,3.4425488 z" style="opacity:.8;fill:#fff;fill-opacity:1;fill-rule:evenodd;stroke:none;stroke-width:1px;stroke-linecap:butt;stroke-linejoin:miter;stroke-opacity:1"/><path id="path5143" d="M 6.674714,19.465827 C 5.110939,19.544878 4.531421,18.282426 4.531421,16.905274 C 4.531421,15.801694 5.119097,14.710727 6.259468,14.582891 L 8.72422,14.507398 L 9.525951,15.346231 C 9.238322,16.85021 10.340209,19.280531 6.674714,19.465827 z" style="opacity:.2;fill:none;fill-opacity:1;stroke:#fff;stroke-width:1;stroke-linecap:round;stroke-linejoin:miter;stroke-miterlimit:4;stroke-dasharray:none;stroke-opacity:1"/><path id="path116" d="M 16.385222,19.465827 C 17.948997,19.544878 18.528515,18.282426 18.528515,16.905274 C 18.528515,15.801694 17.940839,14.710727 16.800468,14.582891 L 14.335716,14.507398 L 13.533985,15.346231 C 13.821614,16.85021 12.719727,19.280531 16.385222,19.465827 z" style="opacity:.2;fill:none;fill-opacity:1;stroke:#fff;stroke-width:1;stroke-linecap:round;stroke-linejoin:miter;stroke-miterlimit:4;stroke-dasharray:none;stroke-opacity:1"/><path id="path118" d="M 32.5,22.90625 A 1.21875,1.21875 0 1 1 30.0625,22.90625 A 1.21875,1.21875 0 1 1 32.5,22.90625 z" transform="matrix(0.8377837,0,0,0.8377837,-14.685874,-6.5758187)" style="color:#000;fill:#fff;fill-opacity:1;fill-rule:nonzero;stroke:#888a85;stroke-width:1.19362485;stroke-linecap:butt;stroke-linejoin:miter;marker:none;marker-start:none;marker-mid:none;marker-end:none;stroke-miterlimit:4;stroke-dasharray:none;stroke-dashoffset:0;stroke-opacity:1;visibility:visible;display:inline;overflow:visible"/><path id="path120" d="M 10.042059,12.385536 L 11.26558,10.043984 L 10.849062,9.2634669 L 10.042059,12.385536 z" style="opacity:.15577889;color:#000;fill:#000;fill-opacity:1;fill-rule:nonzero;stroke:none;stroke-width:1;stroke-linecap:butt;stroke-linejoin:miter;marker:none;marker-start:none;marker-mid:none;marker-end:none;stroke-miterlimit:4;stroke-dasharray:none;stroke-dashoffset:0;stroke-opacity:1;visibility:visible;display:inline;overflow:visible"/><path id="path122" d="M 38.095378,12.357399 A 0.59662133,0.59662133 0 1 1 36.902135,12.357399 A 0.59662133,0.59662133 0 1 1 38.095378,12.357399 z" transform="matrix(0.7352489,0,0,-0.7348211,-13.72979,24.550437)" style="opacity:.64824123;color:#000;fill:#fff;fill-opacity:1;fill-rule:nonzero;stroke:none;stroke-width:1;stroke-linecap:butt;stroke-linejoin:miter;marker:none;marker-start:none;marker-mid:none;marker-end:none;stroke-miterlimit:4;stroke-dasharray:none;stroke-dashoffset:0;stroke-opacity:1;visibility:visible;display:inline;overflow:visible"/><path id="path124" d="M 38.095378,12.357399 A 0.59662133,0.59662133 0 1 1 36.902135,12.357399 A 0.59662133,0.59662133 0 1 1 38.095378,12.357399 z" transform="matrix(0.7039857,0,0,-0.7049477,-20.939046,24.200055)" style="opacity:.64824123;color:#000;fill:#fff;fill-opacity:1;fill-rule:nonzero;stroke:none;stroke-width:1;stroke-linecap:butt;stroke-linejoin:miter;marker:none;marker-start:none;marker-mid:none;marker-end:none;stroke-miterlimit:4;stroke-dasharray:none;stroke-dashoffset:0;stroke-opacity:1;visibility:visible;display:inline;overflow:visible"/><path id="path126" d="M 38.095378,12.357399 A 0.59662133,0.59662133 0 1 1 36.902135,12.357399 A 0.59662133,0.59662133 0 1 1 38.095378,12.357399 z" transform="matrix(0.9645775,0,0,0.9640164,-24.745944,-0.3375825)" style="color:#000;fill:#fff;fill-opacity:1;fill-rule:nonzero;stroke:none;stroke-width:1;stroke-linecap:butt;stroke-linejoin:miter;marker:none;marker-start:none;marker-mid:none;marker-end:none;stroke-miterlimit:4;stroke-dasharray:none;stroke-dashoffset:0;stroke-opacity:1;visibility:visible;display:inline;overflow:visible"/></g><g id="g16" transform="translate(303,219) scale(1.000000,1.000000)" style="display:inline;enable-background:new"><g id="g5358" transform="matrix(-0.7509129,0.2070905,0.2012065,0.7728723,12.581646,1.2806833)"><path id="path5360" d="M 13.18356,-4.5000002 C 13.18356,-4.5000002 14.507685,-2.9924597 14.499966,0.1959939 C 14.492244,3.3843738 6.771092,10.543037 6.771092,10.543037 L 5.332139,9.445681 L 13.18356,-4.5000002 z" style="fill:#d9d6d0;fill-opacity:1;fill-rule:evenodd;stroke:#888a85;stroke-width:1.26792884px;stroke-linecap:butt;stroke-linejoin:miter;stroke-opacity:1"/><path id="path5362" d="M 13.006783,-2.2890499 C 13.006783,-2.2890499 13.270835,-1.7952619 13.351734,0.5706774 C 13.432632,2.9576413 6.508006,9.419439 6.508006,9.419439 L 6.356182,9.239938 L 13.006783,-2.2890499 z" style="opacity:.4;fill:none;fill-opacity:1;fill-rule:evenodd;stroke:#fff;stroke-width:1.26792967px;stroke-linecap:butt;stroke-linejoin:miter;stroke-opacity:1"/><path id="path5364" d="M 13.772478,-1.5574512 L 6.471521,9.043809 L 6.028543,8.707143 L 13.15391,-3.4660069 L 13.772478,-1.5574512 z" style="opacity:.9137931;fill:#fff;fill-opacity:1;fill-rule:evenodd;stroke:none;stroke-width:1px;stroke-linecap:butt;stroke-linejoin:miter;stroke-opacity:1"/></g><g id="g5353" transform="matrix(0.7630907,0.2070905,-0.2044694,0.7728723,3.2370183,1.2806833)"><path id="path134" d="M 13.18356,-4.5000002 C 13.18356,-4.5000002 14.507685,-2.9924597 14.499966,0.1959939 C 14.492244,3.3843738 6.771092,10.543037 6.771092,10.543037 L 5.332139,9.445681 L 13.18356,-4.5000002 z" style="fill:#d9d6d0;fill-opacity:1;fill-rule:evenodd;stroke:#888a85;stroke-width:1.25777102px;stroke-linecap:butt;stroke-linejoin:miter;stroke-opacity:1"/><path id="path136" d="M 13.006783,-2.2890499 C 13.006783,-2.2890499 13.270835,-1.7952619 13.351734,0.5706774 C 13.432632,2.9576413 6.508006,9.419439 6.508006,9.419439 L 6.356182,9.239938 L 13.006783,-2.2890499 z" style="opacity:.4;fill:none;fill-opacity:1;fill-rule:evenodd;stroke:#fff;stroke-width:1.25777173px;stroke-linecap:butt;stroke-linejoin:miter;stroke-opacity:1"/><path id="path138" d="M 13.772478,-1.5574512 L 6.471521,9.043809 L 6.028543,8.707143 L 13.15391,-3.4660069 L 13.772478,-1.5574512 z" style="opacity:.9137931;fill:#fff;fill-opacity:1;fill-rule:evenodd;stroke:none;stroke-width:1px;stroke-linecap:butt;stroke-linejoin:miter;stroke-opacity:1"/></g><path id="path140" d="M 12.898628,15.466386 C 14.752674,15.440055 15.5,14.129916 15.5,12.483193 C 15.5,10.93939 14.469996,9.6683964 13.158766,9.5155363 L 10.719978,9.5 L 9.2567047,10.851759 C 9.6081769,11.503168 9.5795125,12.086799 9.5916992,12.587779 C 9.6165505,13.634521 10.399042,15.573404 12.898628,15.466386 z M 12.943105,13.501924 C 11.72306,13.582618 11.506063,13.274442 11.513314,12.737806 L 11.529411,11.546556 L 12.762232,11.562092 C 13.374069,11.562092 13.517506,12.081693 13.484717,12.510955 C 13.454003,12.913014 13.487013,13.465949 12.943105,13.501924 z" style="fill:#ef2929;fill-opacity:1;stroke:#a40000;stroke-width:1;stroke-linecap:round;stroke-linejoin:miter;stroke-miterlimit:4;stroke-dasharray:none;stroke-opacity:1"/><path id="path142" d="M 12.783488,14.497157 C 14.035878,14.560883 14.499999,13.543178 14.499999,12.433009 C 14.499999,11.543375 14.029344,10.66391 13.116048,10.560857 L 11.142088,10.5 L 10.5,11.176211 C 10.730356,12.38862 9.8478805,14.347784 12.783488,14.497157 z" style="opacity:.2;fill:none;fill-opacity:1;stroke:#fff;stroke-width:1.00000012;stroke-linecap:round;stroke-linejoin:miter;stroke-miterlimit:4;stroke-dasharray:none;stroke-opacity:1"/><path id="path144" d="M 32.5 22.90625 A 1.21875 1.21875 0 1 1 30.0625,22.90625 A 1.21875 1.21875 0 1 1 32.5 22.90625 z" transform="matrix(1.2307696,0,0,1.2307696,-30.50001,-19.713363)" style="color:#000;fill:#eeeeec;fill-opacity:1;fill-rule:nonzero;stroke:#888a85;stroke-width:.81249934;stroke-linecap:butt;stroke-linejoin:miter;marker:none;marker-start:none;marker-mid:none;marker-end:none;stroke-miterlimit:4;stroke-dasharray:none;stroke-dashoffset:0;stroke-opacity:1;visibility:visible;display:inline;overflow:visible"/><path id="path146" d="M 38.095378 12.357399 A 0.59662133 0.59662133 0 1 1 36.902135,12.357399 A 0.59662133 0.59662133 0 1 1 38.095378 12.357399 z" transform="matrix(0.7352489,0,0,-0.7348211,-17.009585,19.518887)" style="opacity:.64824123;color:#000;fill:#fff;fill-opacity:1;fill-rule:nonzero;stroke:none;stroke-width:1;stroke-linecap:butt;stroke-linejoin:miter;marker:none;marker-start:none;marker-mid:none;marker-end:none;stroke-miterlimit:4;stroke-dasharray:none;stroke-dashoffset:0;stroke-opacity:1;visibility:visible;display:inline;overflow:visible"/><path id="path148" d="M 38.095378 12.357399 A 0.59662133 0.59662133 0 1 1 36.902135,12.357399 A 0.59662133 0.59662133 0 1 1 38.095378 12.357399 z" transform="matrix(0.9645775,0,0,0.9640164,-28.745944,-4.3375825)" style="color:#000;fill:#fff;fill-opacity:1;fill-rule:nonzero;stroke:none;stroke-width:1;stroke-linecap:butt;stroke-linejoin:miter;marker:none;marker-start:none;marker-mid:none;marker-end:none;stroke-miterlimit:4;stroke-dasharray:none;stroke-dashoffset:0;stroke-opacity:1;visibility:visible;display:inline;overflow:visible"/><g id="g5348" transform="matrix(-1,0,0,1,16,2.9361435e-2)"><path id="path5342" d="M 12.898628,15.466386 C 14.752674,15.440055 15.5,14.129916 15.5,12.483193 C 15.5,10.93939 14.469996,9.6683964 13.158766,9.5155363 L 10.719978,9.5 L 9.2567047,10.851759 C 9.6081769,11.503168 9.5795125,12.086799 9.5916992,12.587779 C 9.6165505,13.634521 10.399042,15.573404 12.898628,15.466386 z M 12.943105,13.501924 C 11.72306,13.582618 11.506063,13.274442 11.513314,12.737806 L 11.529411,11.546556 L 12.762232,11.562092 C 13.374069,11.562092 13.517506,12.081693 13.484717,12.510955 C 13.454003,12.913014 13.487013,13.465949 12.943105,13.501924 z" style="fill:#ef2929;fill-opacity:1;stroke:#a40000;stroke-width:1;stroke-linecap:round;stroke-linejoin:miter;stroke-miterlimit:4;stroke-dasharray:none;stroke-opacity:1"/><path id="path5344" d="M 12.783488,14.497157 C 14.035878,14.560883 14.499999,13.543178 14.499999,12.433009 C 14.499999,11.543375 14.029344,10.66391 13.116048,10.560857 L 11.142088,10.5 L 10.5,11.176211 C 10.730356,12.38862 9.8478805,14.347784 12.783488,14.497157 z" style="opacity:.2;fill:none;fill-opacity:1;stroke:#fff;stroke-width:1.00000012;stroke-linecap:round;stroke-linejoin:miter;stroke-miterlimit:4;stroke-dasharray:none;stroke-opacity:1"/><path id="path5346" d="M 38.095378 12.357399 A 0.59662133 0.59662133 0 1 1 36.902135,12.357399 A 0.59662133 0.59662133 0 1 1 38.095378 12.357399 z" transform="matrix(0.7352489,0,0,-0.7348211,-13.132254,20.489526)" style="opacity:.64824123;color:#000;fill:#fff;fill-opacity:1;fill-rule:nonzero;stroke:none;stroke-width:1;stroke-linecap:butt;stroke-linejoin:miter;marker:none;marker-start:none;marker-mid:none;marker-end:none;stroke-miterlimit:4;stroke-dasharray:none;stroke-dashoffset:0;stroke-opacity:1;visibility:visible;display:inline;overflow:visible"/></g></g></g></svg>