<svg xmlns="http://www.w3.org/2000/svg" xmlns:svg="http://www.w3.org/2000/svg" xmlns:xlink="http://www.w3.org/1999/xlink" id="svg11300" width="400" height="300" version="1.0" style="display:inline;enable-background:new"><title id="title8836">Optical Drive</title><metadata id="metadata154"/><defs id="defs3"><linearGradient id="linearGradient6019"><stop id="stop6021" offset="0" style="stop-color:#000;stop-opacity:1"/><stop id="stop6023" offset="1" style="stop-color:#000;stop-opacity:0"/></linearGradient><linearGradient id="linearGradient5999"><stop id="stop6001" offset="0" style="stop-color:#c4a000;stop-opacity:1"/><stop id="stop6003" offset="1" style="stop-color:#c4a000;stop-opacity:0"/></linearGradient><linearGradient id="linearGradient5987"><stop id="stop5989" offset="0" style="stop-color:#d7c20f;stop-opacity:1"/><stop id="stop5991" offset="1" style="stop-color:#b6970d;stop-opacity:1"/></linearGradient><linearGradient id="linearGradient5981"><stop id="stop5983" offset="0" style="stop-color:#fff;stop-opacity:1"/><stop id="stop5985" offset="1" style="stop-color:#fff;stop-opacity:.69411765"/></linearGradient><linearGradient id="linearGradient5996"><stop id="stop5998" offset="0" style="stop-color:#8f5902;stop-opacity:1"/><stop id="stop6000" offset="1" style="stop-color:#73521e;stop-opacity:1"/></linearGradient><linearGradient id="linearGradient5984"><stop id="stop5986" offset="0" style="stop-color:#fff;stop-opacity:1"/><stop id="stop5988" offset="1" style="stop-color:#fff;stop-opacity:.13438736"/></linearGradient><linearGradient id="linearGradient5974"><stop id="stop5976" offset="0" style="stop-color:#ad7fa8;stop-opacity:1"/><stop id="stop5978" offset="1" style="stop-color:#dac6d8;stop-opacity:1"/></linearGradient><linearGradient id="linearGradient5966"><stop id="stop5968" offset="0" style="stop-color:#fdef72;stop-opacity:1"/><stop id="stop5970" offset="1" style="stop-color:#e2cb0b;stop-opacity:1"/></linearGradient><linearGradient id="linearGradient5958"><stop id="stop5960" offset="0" style="stop-color:#c17d11;stop-opacity:1"/><stop id="stop5962" offset="1" style="stop-color:#e9b96e;stop-opacity:1"/></linearGradient><linearGradient id="linearGradient5964" x1="28" x2="26" y1="16" y2="8" gradientTransform="translate(-2,0)" gradientUnits="userSpaceOnUse" xlink:href="#linearGradient5958"/><linearGradient id="linearGradient5972" x1="20.934" x2="30.208" y1="25.061" y2="30.743" gradientTransform="translate(-2,0)" gradientUnits="userSpaceOnUse" xlink:href="#linearGradient5966"/><linearGradient id="linearGradient5980" x1="27.652" x2="21.591" y1="23.146" y2="20.619" gradientTransform="matrix(0.9768193,0,0,1,-1.3746633,0)" gradientUnits="userSpaceOnUse" xlink:href="#linearGradient5974"/><linearGradient id="linearGradient5994" x1="28" x2="33.447" y1="8" y2="16.686" gradientUnits="userSpaceOnUse" xlink:href="#linearGradient5984"/><linearGradient id="linearGradient6002" x1="30.325" x2="34" y1="9.241" y2="18" gradientTransform="translate(-2,0)" gradientUnits="userSpaceOnUse" xlink:href="#linearGradient5996"/><linearGradient id="linearGradient5973" x1="22.32" x2="18.986" y1="41.956" y2="37.029" gradientTransform="translate(-2,0)" gradientUnits="userSpaceOnUse" xlink:href="#linearGradient5981"/><linearGradient id="linearGradient5993" x1="17.032" x2="29.494" y1="27.447" y2="37.846" gradientTransform="translate(-2,0)" gradientUnits="userSpaceOnUse" xlink:href="#linearGradient5987"/><linearGradient id="linearGradient6005" x1="27.355" x2="23.489" y1="36.218" y2="34.728" gradientTransform="translate(-2,0)" gradientUnits="userSpaceOnUse" xlink:href="#linearGradient5999"/><radialGradient id="radialGradient6025" cx="38" cy="69" r="20" fx="28.603" fy="69" gradientTransform="matrix(1,0,0,0.45,0,37.95)" gradientUnits="userSpaceOnUse" xlink:href="#linearGradient6019"/><linearGradient id="linearGradient5447" x1="28" x2="33.447" y1="8" y2="16.686" gradientTransform="matrix(0.6076684,0,0,0.5970213,1.0527902,0.4980868)" gradientUnits="userSpaceOnUse" xlink:href="#linearGradient5984"/><linearGradient id="linearGradient6033" x1="30.325" x2="34" y1="9.241" y2="18" gradientTransform="matrix(0.680655,0,0,0.6797837,-1.4100242,-0.1775122)" gradientUnits="userSpaceOnUse" xlink:href="#linearGradient5996"/><linearGradient id="linearGradient6036" x1="30.325" x2="34" y1="9.241" y2="18" gradientTransform="matrix(0.680655,0,0,0.6797837,-1.4341746,-0.1822871)" gradientUnits="userSpaceOnUse" xlink:href="#linearGradient5996"/><linearGradient id="linearGradient6008"><stop id="stop6010" offset="0" style="stop-color:#a76802;stop-opacity:1"/><stop id="stop6012" offset="1" style="stop-color:#73521e;stop-opacity:1"/></linearGradient><linearGradient id="linearGradient6006" x1="15.5" x2="14.906" y1="3.5" y2="2.5" gradientTransform="translate(1,0)" gradientUnits="userSpaceOnUse" xlink:href="#linearGradient6008"/></defs><g id="layer6" style="display:none"><rect id="rect6284" width="48" height="48" x="296" y="50" style="fill:#eeeeec;fill-opacity:1;fill-rule:nonzero;stroke:none;stroke-width:2;marker:none;visibility:visible;display:inline;overflow:visible;enable-background:accumulate"/><rect id="rect6592" width="32" height="32" x="303" y="126" style="fill:#eeeeec;fill-opacity:1;fill-rule:nonzero;stroke:none;stroke-width:2;marker:none;visibility:visible;display:inline;overflow:visible;enable-background:accumulate"/><rect id="rect6749" width="22" height="22" x="303" y="177" style="fill:#eeeeec;fill-opacity:1;fill-rule:nonzero;stroke:none;stroke-width:2;marker:none;visibility:visible;display:inline;overflow:visible;enable-background:accumulate"/><rect id="rect6833" width="16" height="16" x="303" y="219" style="fill:#eeeeec;fill-opacity:1;fill-rule:nonzero;stroke:none;stroke-width:2;marker:none;visibility:visible;display:inline;overflow:visible;enable-background:accumulate"/><text id="context" x="20.971" y="21.514" xml:space="preserve" style="font-size:18.30070686px;font-style:normal;font-weight:400;fill:#000;fill-opacity:1;stroke:none;display:inline;enable-background:new;font-family:Bitstream Vera Sans"><tspan id="tspan2716" x="20.971" y="21.514">actions</tspan></text><text id="icon-name" x="191.971" y="21.514" xml:space="preserve" style="font-size:18.30070686px;font-style:normal;font-variant:normal;font-weight:700;font-stretch:normal;text-align:start;line-height:125%;writing-mode:lr-tb;text-anchor:start;fill:#000;fill-opacity:1;stroke:none;display:inline;enable-background:new;font-family:Droid Sans;-inkscape-font-specification:Droid Sans Bold"><tspan id="tspan3023" x="191.971" y="21.514">edit-clear-all</tspan></text></g><g id="layer2" style="display:inline"><g id="g48" transform="translate(296,50) scale(1.000000,1.000000)" style="display:inline;enable-background:new"><path id="path6017" d="m 58,69 c 0,4.970563 -8.954305,9 -20,9 -11.045695,0 -20,-4.029437 -20,-9 0,-4.970563 8.954305,-9 20,-9 11.045695,0 20,4.029437 20,9 z" transform="matrix(1,0,0,0.6666668,-13.999999,-5.0000087)" style="opacity:.25;fill:url(#radialGradient6025);fill-opacity:1;stroke:none;stroke-width:.99999994;stroke-linecap:round;stroke-linejoin:round;stroke-miterlimit:20;stroke-dasharray:none;stroke-opacity:1"/><path id="path5371" d="M 34.59375,2.46875 C 26.390533,2.5744003 25.19695,18.716276 22.84375,21.625 L 26.84375,23.0625 C 29.475623,18.689953 42.599746,4.1545034 35.40625,2.5 C 35.12676,2.4690309 34.85837,2.4653419 34.59375,2.46875 z M 33.5625,4.53125 C 33.756063,4.5125114 33.930486,4.5369694 34.09375,4.625 C 34.746806,4.9771226 34.817405,6.1198771 34.25,7.15625 C 33.682595,8.1926229 32.684304,8.7583725 32.03125,8.40625 C 31.378197,8.0541272 31.307595,6.9113729 31.875,5.875 C 32.300554,5.0977202 32.981812,4.5874659 33.5625,4.53125 z" style="fill:url(#linearGradient5964);fill-opacity:1;fill-rule:evenodd;stroke:url(#linearGradient6002);stroke-width:1px;stroke-linecap:butt;stroke-linejoin:miter;stroke-opacity:1"/><path id="path5992" d="M 36.59375,3.46875 C 34.872132,3.4909229 33.585825,4.3246243 32.40625,5.75 C 31.226675,7.1753757 30.257916,9.1916354 29.46875,11.34375 C 28.679584,13.495865 28.04471,15.77802 27.46875,17.71875 C 27.068859,19.066206 26.698893,20.125198 26.25,21.0625 L 28.4375,21.84375 C 30.056094,19.348126 33.476298,15.252572 35.96875,11.21875 C 37.294589,9.0729934 38.25245,7.0407089 38.46875,5.65625 C 38.5769,4.9640206 38.513818,4.4833206 38.34375,4.1875 C 38.179059,3.9010309 37.880274,3.6629145 37.21875,3.5 C 37.019255,3.4812162 36.817917,3.4658629 36.59375,3.46875 z" transform="translate(-2,0)" style="opacity:.26666667;fill:none;fill-opacity:1;fill-rule:evenodd;stroke:url(#linearGradient5994);stroke-width:1px;stroke-linecap:butt;stroke-linejoin:miter;stroke-opacity:1"/><path id="path5367" d="M 20.5,16.5 C 21.209506,18.503007 19.958612,20.237831 19.5,21.5 C 14.308433,23.045674 10.713199,31.203726 5.3674175,35.453585 C 6.0352055,36.150983 6.819644,36.897763 7.5,37.5 L 11.5625,33.96875 L 8.494944,38.493399 C 10.704181,40.284382 13,41.5 14.5,42 L 17.25,38.34375 L 15.5,42.5 C 16.951994,43.088882 20.485286,43.982025 22.5,44 L 24.50389,40.597503 L 23.990721,44.0625 C 24.820284,44.220859 26.428886,44.436716 27.5,44.46875 C 30.862186,38.96875 31.5,30 29.5,26 C 29,24 31,21.5 32.5,20.5 C 30,18.5 24.294411,16.196274 20.5,16.5 z" style="fill:url(#linearGradient5972);fill-opacity:1;fill-rule:evenodd;stroke:url(#linearGradient5993);stroke-width:.99999994;stroke-linecap:butt;stroke-linejoin:miter;stroke-miterlimit:20;stroke-dasharray:none;stroke-opacity:1"/><path id="path5975" d="M 9,38.5 C 13.816495,33.489105 13.465023,31.296074 19.116117,26.972272 C 16.133675,31.800703 15.650278,34.31233 12,40.5 L 9,38.5 z" style="opacity:.26666667;fill:#c4a000;fill-rule:evenodd;stroke:none;stroke-width:1px;stroke-linecap:butt;stroke-linejoin:miter;stroke-opacity:1"/><path id="path5979" d="M 16.149808,42.202452 L 20.495835,32.362305 C 22.160348,29.378578 23.355507,26.392253 25.024808,24.014952 C 23.422854,29.432989 20.134118,36.136745 17.493558,42.639952 L 16.149808,42.202452 z" style="opacity:.41568627;fill:#c4a000;fill-rule:evenodd;stroke:none;stroke-width:1px;stroke-linecap:butt;stroke-linejoin:miter;stroke-opacity:1"/><path id="path6014" d="M 21.625,17.5 C 21.721738,19.415146 20.702057,21.029645 20.40625,21.84375 C 20.302147,22.128459 20.07092,22.348124 19.78125,22.4375 C 14.327852,24.672144 12.151447,31.011538 6.7866116,35.523667 C 6.988254,35.723521 7.2786424,35.940971 7.4811412,36.131898 L 16.5,28.5 L 9.923385,38.310313 C 11.193418,39.337926 12.645586,40.194857 14.150041,40.799478 L 21.144394,31.5 L 16.869501,41.911612 C 18.46507,42.437269 19.967804,42.738908 21.81451,43 L 26.43324,35.3125 L 25.0625,43.219317 L 26.9375,43.445312 C 28.370713,40.909818 29.069882,37.778782 29.46875,34.65625 C 29.892695,31.337404 29.463786,28.115072 28.625,26.4375 C 28.597837,26.377291 28.576895,26.314465 28.5625,26.25 C 28.215642,24.862569 28.731642,23.504373 29.4375,22.375 C 29.864393,21.691971 30.367872,21.084221 30.902459,20.573223 C 29.730977,19.790532 28.315762,19.113157 26.53125,18.46875 C 24.769173,17.832444 23.033252,17.518725 21.625,17.5 z" style="opacity:.47843137;fill:none;fill-opacity:1;fill-rule:evenodd;stroke:url(#linearGradient5973);stroke-width:.99999994px;stroke-linecap:butt;stroke-linejoin:miter;stroke-opacity:1"/><path id="path5977" d="M 18.96875,43 C 21.146316,37.248129 25.364666,32.931057 26.985663,27.064588 C 27.037206,30.726661 27.235383,37.268314 25.09375,43.78125 C 24.773984,43.783025 24.919823,43.670441 24.62387,43.662697 L 25.424662,37.93818 L 22.143176,43.492564 C 19.952368,43.33624 20.848565,43.525163 18.96875,43 z" style="opacity:.24705882;fill:url(#linearGradient6005);fill-opacity:1;fill-rule:evenodd;stroke:none;stroke-width:1px;stroke-linecap:butt;stroke-linejoin:miter;stroke-opacity:1"/><path id="path5995" d="M 21.003067,22.610447 C 19.751072,23.226826 18.940858,24.137725 18.019961,24.974835 C 19.246448,24.266192 20.398947,23.525841 22.019534,22.986097 L 21.003067,22.610447 z" style="opacity:.48235294;fill:#c4a000;fill-rule:evenodd;stroke:none;stroke-width:1px;stroke-linecap:butt;stroke-linejoin:miter;stroke-opacity:1"/><path id="path5997" d="M 23.008698,23.061049 L 21.992233,25.049787 L 24.972946,23.461537 L 23.008698,23.061049 z" style="opacity:.48235294;fill:#c4a000;fill-rule:evenodd;stroke:none;stroke-width:1px;stroke-linecap:butt;stroke-linejoin:miter;stroke-opacity:1"/><path id="path6007" d="M 22.939805,17.961399 L 22.044612,19.668421 L 23.610339,20.170505 L 22.939805,17.961399 z" style="opacity:.48235294;fill:#c4a000;fill-rule:evenodd;stroke:none;stroke-width:1px;stroke-linecap:butt;stroke-linejoin:miter;stroke-opacity:1"/><path id="path6009" d="M 29.923254,19.88537 L 27.463006,21.720817 L 29.028733,22.222901 L 29.923254,19.88537 z" style="opacity:.48235294;fill:#c4a000;fill-rule:evenodd;stroke:none;stroke-width:1px;stroke-linecap:butt;stroke-linejoin:miter;stroke-opacity:1"/><path id="path6011" d="M 26.012925,17.938566 L 24.499014,20.46318 L 26.064741,20.965264 L 26.012925,17.938566 z" style="opacity:.48235294;fill:#c4a000;fill-rule:evenodd;stroke:none;stroke-width:1px;stroke-linecap:butt;stroke-linejoin:miter;stroke-opacity:1"/><path id="path6013" d="M 18.967726,22.024699 C 18.400946,19.059215 28.300561,24.177602 30.004548,25.019068 C 29.998066,26.098136 30.004548,27.019068 29.027729,27.019068 C 26.460191,25.626088 22.492474,23.413925 18.967726,22.024699 z" style="opacity:.2;fill:#000;fill-opacity:1;fill-rule:evenodd;stroke:none;stroke-width:1px;stroke-linecap:butt;stroke-linejoin:round;stroke-opacity:1"/><path id="path5373" d="M 18.650133,21.5 C 18.161723,20.5 18.650133,19.5 19.626953,19.5 C 23.618393,20.475417 26.951828,21.706232 30.371965,23.5 C 30.860375,24.5 30.371965,25.5 29.395146,25.5 C 25.861203,23.63558 22.528435,22.425187 18.650133,21.5 z" style="fill:url(#linearGradient5980);fill-opacity:1;fill-rule:evenodd;stroke:#5c3566;stroke-width:1px;stroke-linecap:butt;stroke-linejoin:round;stroke-opacity:1"/></g><g id="g32" transform="translate(303,126) scale(1.000000,1.000000)" style="display:inline;enable-background:new"><path id="path78" d="m 58,69 c 0,4.970563 -8.954305,9 -20,9 -11.045695,0 -20,-4.029437 -20,-9 0,-4.970563 8.954305,-9 20,-9 11.045695,0 20,4.029437 20,9 z" transform="matrix(0.7,0,0,0.5,-10.599999,-7)" style="opacity:.25;fill:url(#radialGradient6025);fill-opacity:1;stroke:none;stroke-width:.99999994;stroke-linecap:round;stroke-linejoin:round;stroke-miterlimit:20;stroke-dasharray:none;stroke-opacity:1"/><path id="path80" d="M 23,1.5 C 17.956001,1.5732446 16.719413,12.233642 15.121599,14.216193 L 18.035033,15.461964 C 19.096049,13.701468 22.5,9.6928437 24.518491,6.4830495 C 25.863147,4.3447847 26.047026,1.9805074 24.050729,1.521947 C 23.860492,1.5008949 23.180115,1.4976836 23,1.5 z M 22.767835,2.4953784 C 22.899584,2.4826407 23.12879,2.4401582 23.239918,2.5 C 23.684423,2.7393677 23.760414,3.9235724 23.374207,4.6280814 C 22.988,5.3325905 22.198022,5.7762862 21.753519,5.5369195 C 21.309014,5.2975527 21.233021,4.113348 21.619229,3.408838 C 21.908885,2.8804561 22.372586,2.5335934 22.767835,2.4953784 z" style="fill:url(#linearGradient5964);fill-opacity:1;fill-rule:evenodd;stroke:url(#linearGradient6033);stroke-width:1px;stroke-linecap:butt;stroke-linejoin:miter;stroke-opacity:1"/><path id="path82" d="M 23.5,2.5 C 21.971499,2.2957475 20.927073,3.3134597 20.20146,4.5 C 18.694161,6.8611641 18.128021,9.396071 17.201881,12 L 18.802129,12.527092 C 20.610761,10.079597 23,7.5 24.25,4.75 C 24.444434,4.1994597 24.743518,3.1272824 24.259033,2.673638 C 24.012418,2.4962306 23.797359,2.4886638 23.5,2.5 z" style="opacity:.26666667;fill:none;fill-opacity:1;fill-rule:evenodd;stroke:url(#linearGradient5447);stroke-width:1px;stroke-linecap:round;stroke-linejoin:miter;stroke-opacity:1"/><path id="path84" d="M 13.654546,10.527388 C 14.177539,11.957745 13.255479,13.19659 12.917426,14.097911 C 9.0906117,15.201683 6.4404887,21.027386 2.5,24.062229 C 2.9922407,24.560244 3.4984951,25.56994 4,26 L 7,23 L 4.5,26.5 C 6.1284754,27.778949 7.5,28.5 9,29 L 11.5,26 L 10,29.5 C 11.070296,29.920523 13.514911,29.987164 15,30 L 16.5,27.5 L 16.5,30.5 C 17.214983,30.509589 18.027506,30.474471 18.814396,30.499999 C 20.560031,26.572424 21,20.5 20.288637,17.311381 C 19.920078,15.883172 21.39432,14.097911 22.500002,13.383806 C 20.657198,11.955598 16.451488,10.310496 13.654546,10.527388 z" style="fill:url(#linearGradient5972);fill-opacity:1;fill-rule:evenodd;stroke:url(#linearGradient5993);stroke-width:.99999988;stroke-linecap:butt;stroke-linejoin:miter;stroke-miterlimit:20;stroke-dasharray:none;stroke-opacity:1"/><path id="path86" d="M 5.1844465,26.325109 C 8.5713127,22.797294 9.026259,20.544081 13,17.5 C 10.902804,20.899355 10.33197,23.5 7.5,27.821555 L 5.1844465,26.325109 z" style="opacity:.26666667;fill:#c4a000;fill-rule:evenodd;stroke:none;stroke-width:1px;stroke-linecap:butt;stroke-linejoin:miter;stroke-opacity:1"/><path id="path88" d="M 10.69819,29.196907 L 14.5,20.280422 C 15.670454,18.179792 15.326179,18.173689 16.5,16.5 C 15.749186,20.5 13.856791,24.749698 12,29.328143 L 10.69819,29.196907 z" style="opacity:.41568627;fill:#c4a000;fill-rule:evenodd;stroke:none;stroke-width:1px;stroke-linecap:butt;stroke-linejoin:miter;stroke-opacity:1"/><path id="path90" d="M 14.460035,11.5 C 14.528229,12.828473 13.809425,13.948397 13.600902,14.513114 C 13.527516,14.710606 13.364517,14.862981 13.160319,14.924978 C 9.5849413,16.743966 7.6634654,21.030342 3.8784662,24.157093 L 4.113301,24.5 L 11.5,17.5 L 5.8572887,26.243616 C 6.752574,26.956436 7.6882292,27.353145 8.7487658,27.772551 L 14.651572,20.5 L 11.350542,28.74518 C 12.549606,28.852243 13.144244,28.9891 14.5,29 L 17.593141,23.576383 L 17.5,29.5 L 18.20498,29.497392 C 19.411107,25.984859 20,21.5 19.350492,17.569581 C 19.105982,16.607167 19.469726,15.665033 19.967307,14.881624 C 20.268237,14.407829 20.123152,13.854462 20.5,13.5 C 18.716116,12.205367 16.617917,11.692643 14.460035,11.5 z" style="opacity:.47843137;fill:none;fill-opacity:1;fill-rule:evenodd;stroke:url(#linearGradient5973);stroke-width:.99999994px;stroke-linecap:butt;stroke-linejoin:miter;stroke-opacity:1"/><path id="path92" d="M 12.5,29.360657 C 14.031223,25.311174 16.860146,22.130163 18,18 C 18.036244,20.578205 18.505956,25.414705 17,30 L 17.065409,25.620212 L 14.757932,29.530659 C 13.217397,29.420602 13.82185,29.730386 12.5,29.360657 z" style="opacity:.24705882000000001;fill:url(#linearGradient6005);fill-opacity:1;fill-rule:evenodd;stroke:none;stroke-width:1px;stroke-linecap:butt;stroke-linejoin:miter;stroke-opacity:1"/><path id="path94" d="M 14,14.5 C 13.119621,14.933949 12.147557,16.41065 11.5,17 C 12.362442,16.501095 13.860434,15.379995 15,15 L 14,14.5 z" style="opacity:.48235294;fill:#c4a000;fill-rule:evenodd;stroke:none;stroke-width:1px;stroke-linecap:butt;stroke-linejoin:miter;stroke-opacity:1"/><path id="path96" d="M 15.5,15 L 14,17.5 L 17,15.5 L 15.5,15 z" style="opacity:.48235294;fill:#c4a000;fill-rule:evenodd;stroke:none;stroke-width:1px;stroke-linecap:butt;stroke-linejoin:miter;stroke-opacity:1"/><path id="path98" d="M 15.5,11 L 14.5,12.5 L 16,13 L 15.5,11 z" style="opacity:.48235294;fill:#c4a000;fill-rule:evenodd;stroke:none;stroke-width:1px;stroke-linecap:butt;stroke-linejoin:miter;stroke-opacity:1"/><path id="path100" d="M 20.5,13 L 18.404984,14 L 19.5,14.5 L 20.5,13 z" style="opacity:.48235294;fill:#c4a000;fill-rule:evenodd;stroke:none;stroke-width:1px;stroke-linecap:butt;stroke-linejoin:miter;stroke-opacity:1"/><path id="path102" d="M 18,12 L 16.5,13 L 18,14 L 18,12 z" style="opacity:.48235294;fill:#c4a000;fill-rule:evenodd;stroke:none;stroke-width:1px;stroke-linecap:butt;stroke-linejoin:miter;stroke-opacity:1"/><path id="path104" d="M 12.525469,14.458688 C 12.115948,12.234711 19.268803,16.073267 20.5,16.704328 C 20.495317,17.513579 20.5,18.204237 19.794211,18.204237 C 17.939065,17.159565 15.072236,15.500544 12.525469,14.458688 z" style="opacity:.2;fill:#000;fill-opacity:1;fill-rule:evenodd;stroke:none;stroke-width:1px;stroke-linecap:butt;stroke-linejoin:round;stroke-opacity:1"/><path id="path106" d="M 12.497417,13.90699 C 12.162001,13.203494 12.497417,12.5 13.16825,12.5 C 15.909379,13.186201 18.198622,14.052073 20.547407,15.313981 C 20.882824,16.017476 20.547407,16.720972 19.876575,16.720972 C 17.449633,15.409361 15.160849,14.557854 12.497417,13.90699 z" style="fill:url(#linearGradient5980);fill-opacity:1;fill-rule:evenodd;stroke:#5c3566;stroke-width:1.00000012px;stroke-linecap:butt;stroke-linejoin:round;stroke-opacity:1"/><path id="path5449" d="M 22.770228,2.5040126 C 22.901977,2.4912749 23.020698,2.5079008 23.131826,2.5677426 C 23.576331,2.8071103 23.625779,3.9779059 23.239572,4.6824149 C 22.853365,5.386924 22.173872,5.7715113 21.729369,5.5321446 C 21.284864,5.2927778 21.235414,4.1219822 21.621622,3.4174722 C 21.911278,2.8890903 22.374979,2.5422276 22.770228,2.5040126 z" style="fill:none;fill-opacity:1;fill-rule:evenodd;stroke:url(#linearGradient6036);stroke-width:1px;stroke-linecap:butt;stroke-linejoin:miter;stroke-opacity:1;opacity:.24705882"/></g><g id="g22" transform="translate(303,177) scale(1.000000,1.000000)" style="display:inline;enable-background:new"><path id="path110" d="m 58,69 c 0,4.970563 -8.954305,9 -20,9 -11.045695,0 -20,-4.029437 -20,-9 0,-4.970563 8.954305,-9 20,-9 11.045695,0 20,4.029437 20,9 z" transform="matrix(0.475,0,0,0.3333333,-6.5500008,-4)" style="opacity:.25;fill:url(#radialGradient6025);fill-opacity:1;stroke:none;stroke-width:.99999994;stroke-linecap:round;stroke-linejoin:round;stroke-miterlimit:20;stroke-dasharray:none;stroke-opacity:1"/><path id="path112" d="M 16.890525,0.50045672 C 13.490109,0.55251363 12.656462,8.1291625 11.579294,9.5382182 L 13.543388,10.423623 C 14.258673,9.1723882 16.553449,6.3233442 17.914217,4.0420525 C 18.820717,2.5223259 18.94468,0.84196709 17.598874,0.51605451 C 17.470626,0.50109233 17.01195,0.49880983 16.890525,0.50045672 z" style="fill:url(#linearGradient5964);fill-opacity:1;fill-rule:evenodd;stroke:url(#linearGradient6033);stroke-width:1px;stroke-linecap:butt;stroke-linejoin:miter;stroke-opacity:1"/><path id="path114" d="M 16.94194,1.5710975 C 16.10661,1.450325 15.598328,2.2984121 15.201778,3 C 14.378036,4.3961283 14.006138,5.6486634 13.5,7.188336 L 14.37454,7.4999997 C 15.362962,6.0528244 16.668689,4.5275391 17.351817,2.9014959 C 17.458076,2.5759678 17.621525,1.9420019 17.356754,1.6737676 C 17.221977,1.5688682 17.104447,1.5643937 16.94194,1.5710975 z" style="opacity:.34901961;fill:none;fill-opacity:1;fill-rule:evenodd;stroke:url(#linearGradient5447);stroke-width:1px;stroke-linecap:round;stroke-linejoin:miter;stroke-opacity:1"/><path id="path116" d="M 10.521493,7.5126007 C 10.897589,8.4426254 10.234515,9.2481284 9.991413,9.8341716 C 7.2394619,10.55185 5.3336969,14.52673 2.5,16.5 C 2.8539818,16.823811 3.1393562,17.220373 3.5,17.5 L 5.5,16 L 4,18 C 5.1710746,18.831579 5.9213152,19.174898 7,19.5 L 9,17.5 L 8,20 C 8.7696747,20.273426 10.432037,20.491654 11.5,20.5 L 12.5,18.5 L 12.5,20.5 C 13.014161,20.506235 13.5999,20.483401 14.16577,20.5 C 15.421096,17.946272 15.80378,13.996842 15.292222,11.923585 C 15.027183,10.994957 15.70488,9.9643139 16.5,9.5 C 15.174798,8.5713715 12.532839,7.3715766 10.521493,7.5126007 z" style="fill:url(#linearGradient5972);fill-opacity:1;fill-rule:evenodd;stroke:url(#linearGradient5993);stroke-width:.99999982;stroke-linecap:butt;stroke-linejoin:miter;stroke-miterlimit:20;stroke-dasharray:none;stroke-opacity:1"/><path id="path118" d="M 4.719935,17.902662 C 6.900113,15.152842 7.1787116,14.064806 10,12 C 8.5342498,14.379497 7.9792907,15.474976 6,18.5 L 4.719935,17.902662 z" style="opacity:.26666667;fill:#c4a000;fill-rule:evenodd;stroke:none;stroke-width:1px;stroke-linecap:butt;stroke-linejoin:miter;stroke-opacity:1"/><path id="path120" d="M 8.6829177,19.631627 L 10.340039,15.405847 C 11.15808,13.935437 11.179605,13.171557 12,12 C 11.475249,14.79994 11.297729,16.659273 10,19.864116 L 8.6829177,19.631627 z" style="opacity:.41568627;fill:#c4a000;fill-rule:evenodd;stroke:none;stroke-width:1px;stroke-linecap:butt;stroke-linejoin:miter;stroke-opacity:1"/><path id="path122" d="M 11.50854,8.5578202 C 11.556052,9.3696647 10.856488,10.154895 10.711208,10.5 C 10.660079,10.62069 10.546516,10.713808 10.40425,10.751695 C 7.788252,11.5 6.6370426,14.589207 4,16.5 C 5.6471184,18.341175 9.231184,19.904122 13.48141,19.498406 C 14.321729,17.351859 14.732016,14.611111 14.279498,12.209188 C 14.109146,11.621047 14.36257,11.045297 14.709239,10.566548 C 14.9189,10.277006 14.530555,9.8725463 14.793109,9.6559312 C 13.897607,9.1913635 12.588896,8.7844873 11.50854,8.5578202 z" style="opacity:.47843137;fill:none;fill-opacity:1;fill-rule:evenodd;stroke:url(#linearGradient5973);stroke-width:.99999994px;stroke-linecap:butt;stroke-linejoin:miter;stroke-opacity:1"/><path id="path124" d="M 14,12 C 14.025331,13.804705 14.052526,16.790363 13,20 L 13,16.341002 L 11.17767,20 L 14,12 z" style="opacity:.24705882;fill:url(#linearGradient6005);fill-opacity:1;fill-rule:evenodd;stroke:none;stroke-width:1px;stroke-linecap:butt;stroke-linejoin:miter;stroke-opacity:1"/><path id="path126" d="M 11,9.5 C 10.384695,9.803758 9.452584,11.587464 9,12 C 9.602769,11.650774 11.203546,10.265991 12,10 L 11,9.5 z" style="opacity:.66666667;fill:#c4a000;fill-rule:evenodd;stroke:none;stroke-width:1px;stroke-linecap:butt;stroke-linejoin:miter;stroke-opacity:1"/><path id="path128" d="M 11.951635,10.150007 L 11,12 L 13,10.5 L 11.951635,10.150007 z" style="opacity:.48235294;fill:#c4a000;fill-rule:evenodd;stroke:none;stroke-width:1px;stroke-linecap:butt;stroke-linejoin:miter;stroke-opacity:1"/><path id="path130" d="M 15.080371,8.700285 L 13.5,9.5 L 15,10.5 L 15.080371,8.700285 z" style="opacity:.48235294;fill:#c4a000;fill-rule:evenodd;stroke:none;stroke-width:1px;stroke-linecap:butt;stroke-linejoin:miter;stroke-opacity:1"/><path id="path132" d="M 12.5,7.5 L 12,9 L 13.333097,9.40027 L 12.5,7.5 z" style="opacity:.48235294;fill:#c4a000;fill-rule:evenodd;stroke:none;stroke-width:1px;stroke-linecap:butt;stroke-linejoin:miter;stroke-opacity:1"/><path id="path134" d="M 9.5,9.5 C 9.213782,7.943249 14.882572,11.558267 15.743068,12 C 15.739795,12.566464 15.493283,13 15,13 C 13.703421,12.268745 11.27996,10.229284 9.5,9.5 z" style="opacity:.2;fill:#000;fill-opacity:1;fill-rule:evenodd;stroke:none;stroke-width:1px;stroke-linecap:butt;stroke-linejoin:round;stroke-opacity:1"/><path id="path136" d="M 9.1108,9.3333318 C 8.8283667,8.6666652 9.435133,8 10,8 C 12.308135,8.6502772 14.022233,9.3041536 16,10.5 C 16.282434,11.166666 15.8892,12 15.324333,12 C 13.280756,10.757053 11.353513,9.9501238 9.1108,9.3333318 z" style="fill:url(#linearGradient5980);fill-opacity:1;fill-rule:evenodd;stroke:none;stroke-width:1.00000012px;stroke-linecap:butt;stroke-linejoin:round;stroke-opacity:1"/><path id="path138" d="M 16.557664,1.5035556 C 16.677012,1.4922685 16.784561,1.5070016 16.885227,1.5600295 C 17.287896,1.7721443 17.332689,2.8096395 16.982832,3.4339358 C 16.632974,4.0582331 16.017438,4.3990327 15.614772,4.1869192 C 15.212105,3.9748057 15.16731,2.9373117 15.517166,2.3130132 C 15.779561,1.8447907 16.199618,1.5374198 16.557664,1.5035556 z" style="opacity:1;fill:url(#linearGradient6006);fill-opacity:1;fill-rule:evenodd;stroke:none;stroke-width:.99999994px;stroke-linecap:butt;stroke-linejoin:miter;stroke-opacity:1"/></g><g id="g16" transform="translate(303,219) scale(1.000000,1.000000)" style="display:inline;enable-background:new"><path id="path141" d="M 13.037318,0.50034286 C 10.132386,0.53938336 9.4202112,6.2215551 8.5000003,7.2782881 L 10.177901,7.9423051 C 10.788959,7.0039311 12.749359,4.8672663 13.911846,3.1563924 C 14.686257,2.0166607 14.792156,0.75646146 13.642451,0.51204056 C 13.53289,0.50081956 13.14105,0.49910776 13.037318,0.50034286 z" style="fill:url(#linearGradient5964);fill-opacity:1;fill-rule:evenodd;stroke:url(#linearGradient6033);stroke-width:1px;stroke-linecap:butt;stroke-linejoin:miter;stroke-opacity:1"/><path id="path143" d="M 7.5,5.3535534 C 7.795504,6.0689638 7.6910086,6.5491934 7.5,7 C 5.2422428,7.3835701 3.313759,10.215932 1.5,12 L 1.5,12.5 C 1.7781285,12.749087 2.216637,13.2849 2.5,13.5 L 4,12 L 3,13.752829 C 3.9201301,14.392512 4.1524619,14.249919 5,14.5 L 6.5,13 L 6,14.84532 C 6.6464466,15.5 8.1608862,15.49358 9,15.5 L 9.5,14 L 9.5,15.5 C 9.9039832,15.504796 10.254261,15.487232 10.698874,15.5 C 11.828675,13.622972 11.616215,10.575444 11.551032,8.9018437 C 11.39418,8.3637987 11.938851,7.9612315 12.5,8 L 13,7.5 C 12.061269,6.7049705 9.1538384,4.9075976 7.5,4.8232233 L 7.5,5.3535534 z" style="fill:url(#linearGradient5972);fill-opacity:1;fill-rule:evenodd;stroke:url(#linearGradient5993);stroke-width:.99999994000000003;stroke-linecap:butt;stroke-linejoin:miter;stroke-miterlimit:20;stroke-dasharray:none;stroke-opacity:1"/><path id="path145" d="M 6.521888,14.687429 L 7.5,11.5 C 8.111138,10.397253 8.387103,9.3786189 9,8.5 C 8.607972,10.599838 8.726434,12.5 8,15 L 6.521888,14.687429 z" style="opacity:.41568627;fill:#c4a000;fill-rule:evenodd;stroke:none;stroke-width:1px;stroke-linecap:butt;stroke-linejoin:miter;stroke-opacity:1"/><path id="path147" d="M 6.5,7 C 6.2890009,6.500027 6.5780014,5.8232233 7,5.8232233 C 8.7243522,6.3109043 10.831816,7.2799417 12.309359,8.1767767 C 12.520358,8.6767487 11.921999,9.2790291 11.5,9.2790291 C 9.9732928,8.3468701 8.175477,7.462568 6.5,7 z" style="fill:url(#linearGradient5980);fill-opacity:1;fill-rule:evenodd;stroke:none;stroke-width:1.00000011999999994px;stroke-linecap:butt;stroke-linejoin:round;stroke-opacity:1"/><path id="path149" d="M 12.731347,1.6607109 C 12.820509,1.6539692 12.900856,1.6627692 12.976061,1.694442 C 13.276886,1.8211355 13.31035,2.4408184 13.04898,2.8137028 C 12.787609,3.1865878 12.327757,3.3901431 12.026935,3.2634503 C 11.726112,3.1367576 11.692647,2.5170755 11.954016,2.1441897 C 12.150045,1.8645263 12.463859,1.6809376 12.731347,1.6607109 z" style="opacity:1;fill:url(#linearGradient6006);fill-opacity:1;fill-rule:evenodd;stroke:none;stroke-width:.99999994px;stroke-linecap:butt;stroke-linejoin:miter;stroke-opacity:1"/></g></g></svg>