<svg xmlns="http://www.w3.org/2000/svg" xmlns:svg="http://www.w3.org/2000/svg" xmlns:xlink="http://www.w3.org/1999/xlink" id="svg11300" width="400" height="300" version="1.0" style="display:inline;enable-background:new"><title id="title8836">Optical Drive</title><metadata id="metadata154"/><defs id="defs3"><linearGradient id="linearGradient7077"><stop style="stop-color:#888a85;stop-opacity:1" id="stop7079" offset="0"/><stop id="stop7085" offset=".615" style="stop-color:#888a85;stop-opacity:.89803922"/><stop style="stop-color:#888a85;stop-opacity:0" id="stop7081" offset="1"/></linearGradient><radialGradient id="radialGradient7083" cx="314" cy="232.056" r="5.262" fx="314" fy="232.056" gradientTransform="matrix(2.470582,0,0,1.9004442,-461.76274,-208.50871)" gradientUnits="userSpaceOnUse" xlink:href="#linearGradient7077"/><linearGradient id="linearGradient7077-4"><stop style="stop-color:#888a85;stop-opacity:1" id="stop7079-9" offset="0"/><stop id="stop7085-4" offset=".615" style="stop-color:#888a85;stop-opacity:.89803922"/><stop style="stop-color:#888a85;stop-opacity:0" id="stop7081-6" offset="1"/></linearGradient><radialGradient id="radialGradient7083-0-3" cx="314" cy="232.056" r="5.262" fx="314" fy="232.056" gradientTransform="matrix(2.470582,0,0,1.9004442,-461.76274,-208.50871)" gradientUnits="userSpaceOnUse" xlink:href="#linearGradient7077-4-5"/><linearGradient id="linearGradient7077-4-5"><stop style="stop-color:#888a85;stop-opacity:1" id="stop7079-9-0" offset="0"/><stop id="stop7085-4-9" offset=".615" style="stop-color:#888a85;stop-opacity:.89803922"/><stop style="stop-color:#888a85;stop-opacity:0" id="stop7081-6-3" offset="1"/></linearGradient><radialGradient id="radialGradient7083-0-9" cx="314" cy="232.056" r="5.262" fx="314" fy="232.056" gradientTransform="matrix(2.470582,0,0,1.9004442,-461.76274,-208.50871)" gradientUnits="userSpaceOnUse" xlink:href="#linearGradient7077-4-6"/><linearGradient id="linearGradient7077-4-6"><stop style="stop-color:#888a85;stop-opacity:1" id="stop7079-9-4" offset="0"/><stop id="stop7085-4-0" offset=".615" style="stop-color:#888a85;stop-opacity:.89803922"/><stop style="stop-color:#888a85;stop-opacity:0" id="stop7081-6-7" offset="1"/></linearGradient><radialGradient id="radialGradient6258" cx="314" cy="232.056" r="5.262" fx="314" fy="232.056" gradientTransform="matrix(2.470582,0,0,1.9004442,-481.76274,-208.50871)" gradientUnits="userSpaceOnUse" xlink:href="#linearGradient7077-4"/></defs><g id="layer1" style="display:inline"><g id="layer3" style="display:none"><rect id="rect6284" width="48" height="48" x="316" y="50" style="fill:#eeeeec;fill-opacity:1;fill-rule:nonzero;stroke:none;stroke-width:2;marker:none;visibility:visible;display:inline;overflow:visible;enable-background:accumulate"/><rect id="rect6592" width="32" height="32" x="323" y="126" style="fill:#eeeeec;fill-opacity:1;fill-rule:nonzero;stroke:none;stroke-width:2;marker:none;visibility:visible;display:inline;overflow:visible;enable-background:accumulate"/><rect id="rect6749" width="22" height="22" x="323" y="177" style="fill:#eeeeec;fill-opacity:1;fill-rule:nonzero;stroke:none;stroke-width:2;marker:none;visibility:visible;display:inline;overflow:visible;enable-background:accumulate"/><rect id="rect6833" width="16" height="16" x="323" y="219" style="fill:#eeeeec;fill-opacity:1;fill-rule:nonzero;stroke:none;stroke-width:2;marker:none;visibility:visible;display:inline;overflow:visible;enable-background:accumulate"/><text id="context" x="40.971" y="21.514" xml:space="preserve" style="font-size:18.30070686px;font-style:normal;font-weight:400;fill:#000;fill-opacity:1;stroke:none;display:inline;enable-background:new;font-family:Bitstream Vera Sans"><tspan id="tspan2716" x="40.971" y="21.514">actions</tspan></text><text id="icon-name" x="211.971" y="21.514" xml:space="preserve" style="font-size:18.30070686px;font-style:normal;font-variant:normal;font-weight:700;font-stretch:normal;text-align:start;line-height:125%;writing-mode:lr-tb;text-anchor:start;fill:#000;fill-opacity:1;stroke:none;display:inline;enable-background:new;font-family:Droid Sans;-inkscape-font-specification:Droid Sans Bold"><tspan id="tspan3023" x="211.971" y="21.514">edit-clear</tspan></text></g><g id="layer4"><g id="g6464" transform="translate(20,0)"><g id="g27033" transform="translate(303,219)" style="display:inline;enable-background:new"><g id="g27035" transform="translate(-41,-760)" style="display:inline"><path id="path27041" d="m 126,540 -6,6 6,6 9.0353,0 C 135.56563,551.9779 136,551.50823 136,551 l 0,-10 c 0,-0.53079 -0.34561,-1 -1.0089,-1 L 126,540 z m 1,3 1,0 c 0.0104,-1.2e-4 0.0208,-4.6e-4 0.0313,0 0.25495,0.0112 0.50987,0.12858 0.6875,0.3125 l 1.2812,1.28125 1.3125,-1.28125 C 131.57812,543.082 131.75917,543.007 132,543 l 1,0 0,1 c 0,0.28647 -0.0343,0.55065 -0.25,0.75 l -1.28125,1.28125 1.25,1.25 C 132.90694,547.46942 132.99999,547.7347 133,548 l 0,1 -1,0 c -0.2653,-10e-6 -0.53059,-0.0931 -0.71875,-0.28125 L 130,547.4375 l -1.28125,1.28125 C 128.53059,548.90694 128.26529,549 128,549 l -1,0 0,-1 c 0,-0.26529 0.0931,-0.53058 0.28125,-0.71875 l 1.28125,-1.25 -1.28125,-1.28125 C 127.07051,544.55537 126.97809,544.28075 127,544 l 0,-1 z" transform="translate(-79,222)" style="color:#000;fill:#babdb6;fill-opacity:1;fill-rule:nonzero;stroke:none;stroke-width:1;marker:none;visibility:visible;display:inline;overflow:visible;enable-background:accumulate"/></g></g><g id="g7044" transform="translate(0,-5.8005171e-6)" style="display:inline;enable-background:new"><g id="g6262" transform="translate(305.9337,180.0442)" style="fill:#babdb6;fill-opacity:1;display:inline"><path id="path6268" d="m 5.854161,1.47408 -6.437512,6.52589 6.437512,6.43752 9.145839,0 c 0.990973,0 1.583348,-0.47235 1.583348,-1.43749 l 0,-10.08839 C 16.583348,1.98857 15.954726,1.47408 15,1.47408 z" style="color:#000;fill:#babdb6;fill-opacity:1;fill-rule:nonzero;stroke:#888a85;stroke-width:.99999994;marker:none;visibility:visible;display:inline;overflow:visible;enable-background:accumulate"/><path id="path7042" d="m 7.022097,4 1,0 c 0.0104,-1.2e-4 0.0208,-4.6e-4 0.0313,0 0.25495,0.0112 0.50987,0.12858 0.6875,0.3125 l 1.2812,1.28125 1.3125,-1.28125 C 11.600217,4.082 11.781267,4.007 12.022097,4 l 1,0 0,1 c 0,0.28647 -0.0343,0.55065 -0.25,0.75 l -1.28125,1.28125 1.25,1.25 C 12.929037,8.46942 13.022087,8.7347 13.022097,9 l 0,1 -1,0 c -0.2653,-10e-6 -0.53059,-0.0931 -0.71875,-0.28125 L 10.022097,8.4375 8.740847,9.71875 C 8.552687,9.90694 8.287387,10 8.022097,10 l -1,0 0,-1 c 0,-0.26529 0.0931,-0.53058 0.28125,-0.71875 l 1.28125,-1.25 L 7.303347,5.75 C 7.092607,5.55537 7.000187,5.28075 7.022097,5 z" style="color:#000;fill:#888a85;fill-opacity:1;fill-rule:nonzero;stroke:none;stroke-width:1;marker:none;visibility:visible;display:inline;overflow:visible;enable-background:accumulate"/><path style="color:#000;fill:#eeeeec;fill-opacity:1;fill-rule:nonzero;stroke:none;stroke-width:1;marker:none;visibility:visible;display:inline;overflow:visible;enable-background:accumulate" id="path6266" d="m 7.022097,5 1,0 c 0.0104,-1.2e-4 0.0208,-4.6e-4 0.0313,0 0.25495,0.0112 0.50987,0.12858 0.6875,0.3125 l 1.2812,1.28125 1.3125,-1.28125 C 11.600217,5.082 11.781267,5.007 12.022097,5 l 1,0 0,1 c 0,0.28647 -0.0343,0.55065 -0.25,0.75 l -1.28125,1.28125 1.25,1.25 c 0.18819,0.18817 0.28124,0.45345 0.28125,0.71875 l 0,1 -1,0 c -0.2653,-10e-6 -0.53059,-0.0931 -0.71875,-0.28125 L 10.022097,9.4375 8.740847,10.71875 C 8.552687,10.90694 8.287387,11 8.022097,11 l -1,0 0,-1 c 0,-0.26529 0.0931,-0.53058 0.28125,-0.71875 l 1.28125,-1.25 L 7.303347,6.75 C 7.092607,6.55537 7.000187,6.28075 7.022097,6 z"/></g><path style="opacity:.48979594;color:#bebebe;fill:#fff;fill-opacity:1;fill-rule:nonzero;stroke:none;stroke-width:1;marker:none;visibility:visible;display:inline;overflow:visible;enable-background:accumulate" id="path6270" d="m 306,188 6,-6 9,0 c 1,0 1,1 1,1 l -10,0 z"/></g><g id="g7051" transform="matrix(1.5456693,0,0,1.5456693,-167.02808,-148.04602)" style="display:inline;enable-background:new"><g style="fill:#babdb6;fill-opacity:1;display:inline" id="g7053" transform="translate(305.9337,180.0442)"><path style="color:#000;fill:#babdb6;fill-opacity:1;fill-rule:nonzero;stroke:#888a85;stroke-width:.6469689;marker:none;visibility:visible;display:inline;overflow:visible;enable-background:accumulate" id="path7055" d="m 5.854161,1.47408 -6.437512,6.52589 6.437512,6.43752 9.145839,0 c 0.990973,0 1.583348,-0.47235 1.583348,-1.43749 l 0,-10.08839 C 16.583348,1.98857 15.954726,1.47408 15,1.47408 z"/><path style="color:#000;fill:#888a85;fill-opacity:1;fill-rule:nonzero;stroke:none;stroke-width:1;marker:none;visibility:visible;display:inline;overflow:visible;enable-background:accumulate" id="path7057" d="m 7.022097,4.3719499 1,0 c 0.0104,-1.2e-4 0.0208,-4.6e-4 0.0313,0 0.25495,0.0112 0.50987,0.12858 0.6875,0.3125 l 1.2812,1.28125 1.3125,-1.28125 c 0.26562,-0.2305 0.44667,-0.3055 0.6875,-0.3125 l 1,0 0,1 c 0,0.28647 -0.0343,0.55065 -0.25,0.75 l -1.28125,1.28125 1.25,1.25 c 0.18819,0.18817 0.28124,0.45345 0.28125,0.71875 l 0,1.0000001 -1,0 c -0.2653,-10e-6 -0.53059,-0.0931 -0.71875,-0.28125 L 10.022097,8.8094499 8.740847,10.0907 c -0.18816,0.18819 -0.45346,0.28125 -0.71875,0.28125 l -1,0 0,-1.0000001 c 0,-0.26529 0.0931,-0.53058 0.28125,-0.71875 l 1.28125,-1.25 -1.28125,-1.28125 c -0.21074,-0.19463 -0.30316,-0.46925 -0.28125,-0.75 z"/><path id="path7059" d="m 7.022097,5.0285923 1,0 c 0.0104,-1.2e-4 0.0208,-4.6e-4 0.0313,0 0.25495,0.0112 0.50987,0.12858 0.6875,0.3125 l 1.2812,1.28125 1.3125,-1.28125 c 0.26562,-0.2305 0.44667,-0.3055 0.6875,-0.3125 l 1,0 0,1 c 0,0.28647 -0.0343,0.55065 -0.25,0.75 l -1.28125,1.28125 1.25,1.25 c 0.18819,0.18817 0.28124,0.45345 0.28125,0.7187497 l 0,1 -1,0 c -0.2653,-10e-6 -0.53059,-0.0931 -0.71875,-0.28125 l -1.28125,-1.2812497 -1.28125,1.2812497 c -0.18816,0.18819 -0.45346,0.28125 -0.71875,0.28125 l -1,0 0,-1 c 0,-0.2652897 0.0931,-0.5305797 0.28125,-0.7187497 l 1.28125,-1.25 -1.28125,-1.28125 c -0.21074,-0.19463 -0.30316,-0.46925 -0.28125,-0.75 z" style="color:#000;fill:#eeeeec;fill-opacity:1;fill-rule:nonzero;stroke:none;stroke-width:1;marker:none;visibility:visible;display:inline;overflow:visible;enable-background:accumulate"/></g><path id="path7061" d="m 306,187.82804 6,-6 9,0 c 1,0 1.20869,0.64697 1.20869,0.64697 l -10.3515,0 z" style="opacity:.48979594;color:#bebebe;fill:#fff;fill-opacity:1;fill-rule:nonzero;stroke:none;stroke-width:1;marker:none;visibility:visible;display:inline;overflow:visible;enable-background:accumulate"/></g><g id="g7063" transform="matrix(1.5456693,0,0,1.5456693,-164.0047,-216.10438)" style="display:inline;enable-background:new"><g id="g7065" transform="translate(305.9337,180.0442)" style="fill:#babdb6;fill-opacity:1;display:inline"><path id="path7067" d="m 5.854161,1.47408 -6.437512,6.52589 6.437512,6.43752 9.145839,0 c 0.990973,0 1.583348,-0.47235 1.583348,-1.43749 l 0,-10.08839 C 16.583348,1.98857 15.954726,1.47408 15,1.47408 z" style="color:#000;fill:#babdb6;fill-opacity:1;fill-rule:nonzero;stroke:#888a85;stroke-width:.6469689;marker:none;visibility:visible;display:inline;overflow:visible;enable-background:accumulate"/><path id="path7069" d="m 7.022097,4.3719499 1,0 c 0.0104,-1.2e-4 0.0208,-4.6e-4 0.0313,0 0.25495,0.0112 0.50987,0.12858 0.6875,0.3125 l 1.2812,1.28125 1.3125,-1.28125 c 0.26562,-0.2305 0.44667,-0.3055 0.6875,-0.3125 l 1,0 0,1 c 0,0.28647 -0.0343,0.55065 -0.25,0.75 l -1.28125,1.28125 1.25,1.25 c 0.18819,0.18817 0.28124,0.45345 0.28125,0.71875 l 0,1.0000001 -1,0 c -0.2653,-10e-6 -0.53059,-0.0931 -0.71875,-0.28125 L 10.022097,8.8094499 8.740847,10.0907 c -0.18816,0.18819 -0.45346,0.28125 -0.71875,0.28125 l -1,0 0,-1.0000001 c 0,-0.26529 0.0931,-0.53058 0.28125,-0.71875 l 1.28125,-1.25 -1.28125,-1.28125 c -0.21074,-0.19463 -0.30316,-0.46925 -0.28125,-0.75 z" style="color:#000;fill:#888a85;fill-opacity:1;fill-rule:nonzero;stroke:none;stroke-width:1;marker:none;visibility:visible;display:inline;overflow:visible;enable-background:accumulate"/><path style="color:#000;fill:#eeeeec;fill-opacity:1;fill-rule:nonzero;stroke:none;stroke-width:1;marker:none;visibility:visible;display:inline;overflow:visible;enable-background:accumulate" id="path7071" d="m 7.022097,5.0285923 1,0 c 0.0104,-1.2e-4 0.0208,-4.6e-4 0.0313,0 0.25495,0.0112 0.50987,0.12858 0.6875,0.3125 l 1.2812,1.28125 1.3125,-1.28125 c 0.26562,-0.2305 0.44667,-0.3055 0.6875,-0.3125 l 1,0 0,1 c 0,0.28647 -0.0343,0.55065 -0.25,0.75 l -1.28125,1.28125 1.25,1.25 c 0.18819,0.18817 0.28124,0.45345 0.28125,0.7187497 l 0,1 -1,0 c -0.2653,-10e-6 -0.53059,-0.0931 -0.71875,-0.28125 l -1.28125,-1.2812497 -1.28125,1.2812497 c -0.18816,0.18819 -0.45346,0.28125 -0.71875,0.28125 l -1,0 0,-1 c 0,-0.2652897 0.0931,-0.5305797 0.28125,-0.7187497 l 1.28125,-1.25 -1.28125,-1.28125 c -0.21074,-0.19463 -0.30316,-0.46925 -0.28125,-0.75 z"/></g><path style="opacity:.48979594;color:#bebebe;fill:#fff;fill-opacity:1;fill-rule:nonzero;stroke:none;stroke-width:1;marker:none;visibility:visible;display:inline;overflow:visible;enable-background:accumulate" id="path7073" d="m 306,187.82804 6,-6 9,0 c 1,0 1.20869,0.64697 1.20869,0.64697 l -10.3515,0 z"/></g><path id="path7075" d="m 318.50741,221.99728 0.0221,9.50175 c 0,0.83969 2.5e-4,0.99437 -0.99437,0.99437 l -8.3748,0 -5.51322,-5.51322 4.83926,-4.99395" style="color:#bebebe;fill:none;stroke:url(#radialGradient6258);stroke-width:1;stroke-opacity:1;marker:none;visibility:visible;display:inline;overflow:visible;enable-background:accumulate"/><path id="path7105" d="m 310,223 1,0 c 0.0104,-1.2e-4 0.0208,-4.6e-4 0.0313,0 0.25495,0.0112 0.50987,0.12858 0.6875,0.3125 l 1.2812,1.28125 1.3125,-1.28125 C 314.57812,223.082 314.75917,223.007 315,223 l 1,0 0,1 c 0,0.28647 -0.0343,0.55065 -0.25,0.75 l -1.28125,1.28125 1.25,1.25 C 315.90694,227.46942 315.99999,227.7347 316,228 l 0,1 -1,0 c -0.2653,-1e-5 -0.53059,-0.0931 -0.71875,-0.28125 L 313,227.4375 l -1.28125,1.28125 C 311.53059,228.90694 311.26529,229 311,229 l -1,0 0,-1 c 0,-0.26529 0.0931,-0.53058 0.28125,-0.71875 l 1.28125,-1.25 -1.28125,-1.28125 C 310.07051,224.55537 309.97809,224.28075 310,224 z" style="color:#000;fill:#888a85;fill-opacity:1;fill-rule:nonzero;stroke:none;stroke-width:1;marker:none;visibility:visible;display:inline;overflow:visible;enable-background:accumulate"/><path style="color:#000;fill:#eeeeec;fill-opacity:1;fill-rule:nonzero;stroke:none;stroke-width:1;marker:none;visibility:visible;display:inline;overflow:visible;enable-background:accumulate" id="path6266-4" d="m 310,224 1,0 c 0.0104,-1.2e-4 0.0208,-4.6e-4 0.0313,0 0.25495,0.0112 0.50987,0.12858 0.6875,0.3125 l 1.2812,1.28125 1.3125,-1.28125 C 314.57812,224.082 314.75917,224.007 315,224 l 1,0 0,1 c 0,0.28647 -0.0343,0.55065 -0.25,0.75 l -1.28125,1.28125 1.25,1.25 C 315.90694,228.46942 315.99999,228.7347 316,229 l 0,1 -1,0 c -0.2653,-1e-5 -0.53059,-0.0931 -0.71875,-0.28125 L 313,228.4375 l -1.28125,1.28125 C 311.53059,229.90694 311.26529,230 311,230 l -1,0 0,-1 c 0,-0.26529 0.0931,-0.53058 0.28125,-0.71875 l 1.28125,-1.25 -1.28125,-1.28125 C 310.07051,225.55537 309.97809,225.28075 310,225 z"/></g></g></g><g id="g6394" style="display:inline"><g id="g6396" style="display:none"><rect id="rect6398" width="48" height="48" x="36" y="50" transform="scale(-1,1)" style="fill:#eeeeec;fill-opacity:1;fill-rule:nonzero;stroke:none;stroke-width:2;marker:none;visibility:visible;display:inline;overflow:visible;enable-background:accumulate"/><rect id="rect6400" width="32" height="32" x="43" y="126" transform="scale(-1,1)" style="fill:#eeeeec;fill-opacity:1;fill-rule:nonzero;stroke:none;stroke-width:2;marker:none;visibility:visible;display:inline;overflow:visible;enable-background:accumulate"/><rect id="rect6402" width="22" height="22" x="43" y="177" transform="scale(-1,1)" style="fill:#eeeeec;fill-opacity:1;fill-rule:nonzero;stroke:none;stroke-width:2;marker:none;visibility:visible;display:inline;overflow:visible;enable-background:accumulate"/><rect id="rect6404" width="16" height="16" x="43" y="219" transform="scale(-1,1)" style="fill:#eeeeec;fill-opacity:1;fill-rule:nonzero;stroke:none;stroke-width:2;marker:none;visibility:visible;display:inline;overflow:visible;enable-background:accumulate"/><text id="text6406" x="-359.029" y="21.514" xml:space="preserve" style="font-size:18.30070686px;font-style:normal;font-weight:400;fill:#000;fill-opacity:1;stroke:none;display:inline;enable-background:new;font-family:Bitstream Vera Sans"><tspan id="tspan6408" x="-359.029" y="21.514">actions</tspan></text><text id="text6410" x="-188.029" y="21.514" xml:space="preserve" style="font-size:18.30070686px;font-style:normal;font-variant:normal;font-weight:700;font-stretch:normal;text-align:start;line-height:125%;writing-mode:lr-tb;text-anchor:start;fill:#000;fill-opacity:1;stroke:none;display:inline;enable-background:new;font-family:Droid Sans;-inkscape-font-specification:Droid Sans Bold"><tspan id="tspan6412" x="-188.029" y="21.514">edit-clear-rtl</tspan></text></g><g id="g6414"><use style="display:inline;enable-background:new" id="use6490-1" width="1" height="1" x="0" y="0" transform="matrix(-1,0,0,1,280,-2.8005171e-6)" xlink:href="#g6464"/></g></g></svg>