<svg xmlns="http://www.w3.org/2000/svg" xmlns:svg="http://www.w3.org/2000/svg" xmlns:xlink="http://www.w3.org/1999/xlink" id="svg11300" width="400" height="300" version="1.0" style="display:inline;enable-background:new"><title id="title8836">Optical Drive</title><metadata id="metadata154"/><defs id="defs3"><linearGradient id="linearGradient5236"><stop id="stop5238" offset="0" style="stop-color:#fff;stop-opacity:1"/><stop id="stop5240" offset="1" style="stop-color:#fff;stop-opacity:0"/></linearGradient><radialGradient id="radialGradient2812" cx="25.25" cy="39.75" r="17.25" fx="25.25" fy="39.75" gradientTransform="matrix(1,0,0,0.333333,0,26.5)" gradientUnits="userSpaceOnUse" xlink:href="#linearGradient2806"/><linearGradient id="linearGradient2794" x1="-.363" x2="59.148" y1="29.208" y2="29.208" gradientUnits="userSpaceOnUse" xlink:href="#linearGradient2788"/><radialGradient id="radialGradient2784" cx="30.324" cy="13.38" r="29.756" fx="30.324" fy="13.38" gradientTransform="matrix(1.531919,0,0,1.531919,-16.12973,-7.117303)" gradientUnits="userSpaceOnUse" xlink:href="#linearGradient2778"/><linearGradient id="linearGradient2778"><stop id="stop2780" offset="0" style="stop-color:#ff0202;stop-opacity:1"/><stop id="stop2782" offset="1" style="stop-color:#b20000;stop-opacity:1"/></linearGradient><linearGradient id="linearGradient2788"><stop id="stop2790" offset="0" style="stop-color:white;stop-opacity:1"/><stop id="stop2792" offset="1" style="stop-color:white;stop-opacity:0"/></linearGradient><linearGradient id="linearGradient2806"><stop id="stop2808" offset="0" style="stop-color:black;stop-opacity:1"/><stop id="stop2810" offset="1" style="stop-color:black;stop-opacity:0"/></linearGradient><radialGradient id="radialGradient5242" cx="24.041" cy="1.116" r="17.106" fx="24.041" fy="1.116" gradientTransform="matrix(3.4080564,0,0,2.1103735,-57.892215,4.5052837)" gradientUnits="userSpaceOnUse" xlink:href="#linearGradient5236"/><filter id="filter5314" width="1.451" height="2.352" x="-.225" y="-.676"><feGaussianBlur id="feGaussianBlur5316" stdDeviation="2.182"/></filter><filter id="filter5407" width="1.412" height="1.192" x="-.206" y="-.096"><feGaussianBlur id="feGaussianBlur5409" stdDeviation=".88"/></filter></defs><g id="layer6" style="display:none"><rect id="rect6284" width="48" height="48" x="296" y="50" style="fill:#eeeeec;fill-opacity:1;fill-rule:nonzero;stroke:none;stroke-width:2;marker:none;visibility:visible;display:inline;overflow:visible;enable-background:accumulate"/><rect id="rect6592" width="32" height="32" x="303" y="126" style="fill:#eeeeec;fill-opacity:1;fill-rule:nonzero;stroke:none;stroke-width:2;marker:none;visibility:visible;display:inline;overflow:visible;enable-background:accumulate"/><rect id="rect6749" width="22" height="22" x="303" y="177" style="fill:#eeeeec;fill-opacity:1;fill-rule:nonzero;stroke:none;stroke-width:2;marker:none;visibility:visible;display:inline;overflow:visible;enable-background:accumulate"/><rect id="rect6833" width="16" height="16" x="303" y="219" style="fill:#eeeeec;fill-opacity:1;fill-rule:nonzero;stroke:none;stroke-width:2;marker:none;visibility:visible;display:inline;overflow:visible;enable-background:accumulate"/><text id="context" x="20.971" y="21.514" xml:space="preserve" style="font-size:18.30070686px;font-style:normal;font-weight:400;fill:#000;fill-opacity:1;stroke:none;display:inline;enable-background:new;font-family:Bitstream Vera Sans"><tspan id="tspan2716" x="20.971" y="21.514">emblems</tspan></text><text id="icon-name" x="191.971" y="21.514" xml:space="preserve" style="font-size:18.30070686px;font-style:normal;font-variant:normal;font-weight:700;font-stretch:normal;text-align:start;line-height:125%;writing-mode:lr-tb;text-anchor:start;fill:#000;fill-opacity:1;stroke:none;display:inline;enable-background:new;font-family:Droid Sans;-inkscape-font-specification:Droid Sans Bold"><tspan id="tspan3023" x="191.971" y="21.514">emblem-urgent</tspan></text></g><g id="layer2" style="display:inline"><g id="g48" transform="translate(296,50) scale(1.000000,1.000000)" style="display:inline;enable-background:new"><g id="g4678" transform="translate(-1.0208976,2.0308096e-2)"><path id="path2804" d="M 42.5,39.75 A 17.25,5.75 0 1 1 8,39.75 A 17.25,5.75 0 1 1 42.5,39.75 z" transform="matrix(1.15942,0,0,1.507246,-3.775362,-22.16304)" style="opacity:.64432989;color:#000;fill:url(#radialGradient2812);fill-opacity:1;fill-rule:nonzero;stroke:none;stroke-width:1;stroke-linecap:butt;stroke-linejoin:miter;marker:none;marker-start:none;marker-mid:none;marker-end:none;stroke-miterlimit:4;stroke-dasharray:none;stroke-dashoffset:0;stroke-opacity:1;visibility:visible;display:inline;overflow:visible"/><path id="path4681" d="M 58.403591,29.207693 A 29.010935,29.010935 0 1 1 0.3817215,29.207693 A 29.010935,29.010935 0 1 1 58.403591,29.207693 z" transform="matrix(0.67131,0,0,0.67131,5.222369,3.418373)" style="fill:url(#radialGradient2784);fill-opacity:1;fill-rule:evenodd;stroke:#a40000;stroke-width:1.48962474;stroke-linecap:butt;stroke-linejoin:miter;stroke-miterlimit:4;stroke-dasharray:none;stroke-opacity:1"/><path id="path2786" d="M 58.403591,29.207693 A 29.010935,29.010935 0 1 1 0.3817215,29.207693 A 29.010935,29.010935 0 1 1 58.403591,29.207693 z" transform="matrix(0.6352324,0,0,0.6352324,6.2827767,4.4721079)" style="opacity:.37628868;fill:none;fill-opacity:1;fill-rule:evenodd;stroke:url(#linearGradient2794);stroke-width:1.57422698;stroke-linecap:butt;stroke-linejoin:miter;stroke-miterlimit:4;stroke-dasharray:none;stroke-opacity:1"/></g><g id="g5323" transform="translate(0,1.125)" style="opacity:.54216865;fill:#000;fill-opacity:1;filter:url(#filter5407)"><rect id="rect5325" width="3.119" height="16.775" x="21.927" y="8.789" rx="1.56" ry="1.56" style="fill:#000;fill-opacity:1;fill-rule:evenodd;stroke:none;stroke-width:1pt;stroke-linecap:butt;stroke-linejoin:miter;stroke-opacity:1"/><rect id="rect5327" width="4.195" height="11.142" x="-2.048" y="31.37" rx="2.097" ry="2.097" transform="matrix(0.710722,-0.703473,0.703473,0.710722,0,0)" style="fill:#000;fill-opacity:1;fill-rule:evenodd;stroke:none;stroke-width:1pt;stroke-linecap:butt;stroke-linejoin:miter;stroke-opacity:1"/><path id="path5329" d="M 25.625,23.875 A 3.375,3.375 0 1 1 18.875,23.875 A 3.375,3.375 0 1 1 25.625,23.875 z" transform="matrix(1.0370371,0,0,1.0370371,0.7473093,-1.6734729)" style="opacity:1;color:#000;fill:#000;fill-opacity:1;fill-rule:evenodd;stroke:none;stroke-width:1;stroke-linecap:butt;stroke-linejoin:miter;marker:none;marker-start:none;marker-mid:none;marker-end:none;stroke-miterlimit:4;stroke-dasharray:none;stroke-dashoffset:0;stroke-opacity:1;visibility:visible;display:inline;overflow:visible;enable-background:accumulate"/></g><g id="g5318" transform="translate(0,0.75)"><rect id="rect2180" width="3.119" height="16.775" x="21.927" y="8.789" rx="1.56" ry="1.56" style="fill:#eeeeec;fill-opacity:1;fill-rule:evenodd;stroke:none;stroke-width:1pt;stroke-linecap:butt;stroke-linejoin:miter;stroke-opacity:1"/><rect id="rect2181" width="4.195" height="11.142" x="-2.048" y="31.37" rx="2.097" ry="2.097" transform="matrix(0.710722,-0.703473,0.703473,0.710722,0,0)" style="fill:#eeeeec;fill-opacity:1;fill-rule:evenodd;stroke:none;stroke-width:1pt;stroke-linecap:butt;stroke-linejoin:miter;stroke-opacity:1"/><path id="path4652" d="M 25.625,23.875 A 3.375,3.375 0 1 1 18.875,23.875 A 3.375,3.375 0 1 1 25.625,23.875 z" transform="matrix(1.0370371,0,0,1.0370371,0.7473093,-1.6734729)" style="opacity:1;color:#000;fill:#eeeeec;fill-opacity:1;fill-rule:evenodd;stroke:none;stroke-width:1;stroke-linecap:butt;stroke-linejoin:miter;marker:none;marker-start:none;marker-mid:none;marker-end:none;stroke-miterlimit:4;stroke-dasharray:none;stroke-dashoffset:0;stroke-opacity:1;visibility:visible;display:inline;overflow:visible;enable-background:accumulate"/></g><path id="path5244" d="M 31.5,34.625 A 11.625,3.875 0 1 1 8.25,34.625 A 11.625,3.875 0 1 1 31.5,34.625 z" transform="matrix(1.0053763,0,0,1.0698924,4.1431452,-2.2325271)" style="opacity:1;color:#000;fill:#ef2929;fill-opacity:1;fill-rule:evenodd;stroke:none;stroke-width:1;stroke-linecap:butt;stroke-linejoin:miter;marker:none;marker-start:none;marker-mid:none;marker-end:none;stroke-miterlimit:4;stroke-dasharray:none;stroke-dashoffset:0;stroke-opacity:1;visibility:visible;display:inline;overflow:visible;filter:url(#filter5314);enable-background:accumulate"/><path id="path5231" d="M 24.041053,5.8143398 C 14.590482,5.8143398 6.9346197,13.470203 6.9346197,22.920774 C 6.9346197,23.806765 7.0020297,24.669796 7.1320017,25.519636 C 12.154786,26.477908 17.905958,27 24.041053,27 C 30.163709,27 35.934482,26.474293 40.950105,25.519636 C 41.080077,24.669796 41.147487,23.806765 41.147487,22.920774 C 41.147487,13.470203 33.491623,5.8143399 24.041053,5.8143398 z" style="opacity:.25903614;color:#000;fill:url(#radialGradient5242);fill-opacity:1;fill-rule:evenodd;stroke:none;stroke-width:1;stroke-linecap:butt;stroke-linejoin:miter;marker:none;marker-start:none;marker-mid:none;marker-end:none;stroke-miterlimit:4;stroke-dasharray:none;stroke-dashoffset:0;stroke-opacity:1;visibility:visible;display:inline;overflow:visible;enable-background:accumulate"/></g><g id="g32" transform="translate(303,126) scale(1.000000,1.000000)" style="display:inline;enable-background:new"><g id="g54" transform="matrix(0.7182651,0,0,0.7200573,-2.3669282,-1.1240577)"><path id="path56" d="M 42.5,39.75 A 17.25,5.75 0 1 1 8,39.75 A 17.25,5.75 0 1 1 42.5,39.75 z" transform="matrix(1.15942,0,0,1.507246,-3.775362,-22.16304)" style="opacity:.64432989;color:#000;fill:url(#radialGradient2812);fill-opacity:1;fill-rule:nonzero;stroke:none;stroke-width:1;stroke-linecap:butt;stroke-linejoin:miter;marker:none;marker-start:none;marker-mid:none;marker-end:none;stroke-miterlimit:4;stroke-dasharray:none;stroke-dashoffset:0;stroke-opacity:1;visibility:visible;display:inline;overflow:visible"/><path id="path58" d="M 58.403591,29.207693 A 29.010935,29.010935 0 1 1 0.3817215,29.207693 A 29.010935,29.010935 0 1 1 58.403591,29.207693 z" transform="matrix(0.67131,0,0,0.67131,5.222369,3.418373)" style="fill:url(#radialGradient2784);fill-opacity:1;fill-rule:evenodd;stroke:#a40000;stroke-width:2.07133794;stroke-linecap:butt;stroke-linejoin:miter;stroke-miterlimit:4;stroke-dasharray:none;stroke-opacity:1"/><path id="path60" d="M 58.403591,29.207693 A 29.010935,29.010935 0 1 1 0.3817215,29.207693 A 29.010935,29.010935 0 1 1 58.403591,29.207693 z" transform="matrix(0.6208208,0,0,0.6208208,6.7063725,4.8930382)" style="opacity:.37628868;fill:none;fill-opacity:1;fill-rule:evenodd;stroke:url(#linearGradient2794);stroke-width:2.23979259;stroke-linecap:butt;stroke-linejoin:miter;stroke-miterlimit:4;stroke-dasharray:none;stroke-opacity:1"/></g><g id="g62" transform="matrix(0.7182651,0,0,0.7200573,-1.6336531,-0.3286162)" style="opacity:.54216865;fill:#000;fill-opacity:1;filter:url(#filter5407)"><rect id="rect64" width="3.119" height="16.775" x="21.927" y="8.789" rx="2.172" ry="2.166" style="fill:#000;fill-opacity:1;fill-rule:evenodd;stroke:none;stroke-width:1pt;stroke-linecap:butt;stroke-linejoin:miter;stroke-opacity:1"/><rect id="rect66" width="4.195" height="11.142" x="-2.048" y="31.37" rx="2.916" ry="2.916" transform="matrix(0.710722,-0.703473,0.703473,0.710722,0,0)" style="fill:#000;fill-opacity:1;fill-rule:evenodd;stroke:none;stroke-width:1pt;stroke-linecap:butt;stroke-linejoin:miter;stroke-opacity:1"/><path id="path68" d="M 25.625,23.875 A 3.375,3.375 0 1 1 18.875,23.875 A 3.375,3.375 0 1 1 25.625,23.875 z" transform="matrix(1.0370371,0,0,1.0370371,0.7473093,-1.6734729)" style="opacity:1;color:#000;fill:#000;fill-opacity:1;fill-rule:evenodd;stroke:none;stroke-width:1;stroke-linecap:butt;stroke-linejoin:miter;marker:none;marker-start:none;marker-mid:none;marker-end:none;stroke-miterlimit:4;stroke-dasharray:none;stroke-dashoffset:0;stroke-opacity:1;visibility:visible;display:inline;overflow:visible;enable-background:accumulate"/></g><g id="g70" transform="matrix(0.7182651,0,0,0.7200573,-1.6336531,-0.5986377)"><rect id="rect72" width="3.119" height="16.775" x="21.927" y="8.789" rx="2.172" ry="2.166" style="fill:#eeeeec;fill-opacity:1;fill-rule:evenodd;stroke:none;stroke-width:1pt;stroke-linecap:butt;stroke-linejoin:miter;stroke-opacity:1"/><rect id="rect74" width="4.195" height="11.142" x="-2.048" y="31.37" rx="2.916" ry="2.916" transform="matrix(0.710722,-0.703473,0.703473,0.710722,0,0)" style="fill:#eeeeec;fill-opacity:1;fill-rule:evenodd;stroke:none;stroke-width:1pt;stroke-linecap:butt;stroke-linejoin:miter;stroke-opacity:1"/><path id="path76" d="M 25.625,23.875 A 3.375,3.375 0 1 1 18.875,23.875 A 3.375,3.375 0 1 1 25.625,23.875 z" transform="matrix(1.0370371,0,0,1.0370371,0.7473093,-1.6734729)" style="opacity:1;color:#000;fill:#eeeeec;fill-opacity:1;fill-rule:evenodd;stroke:none;stroke-width:1;stroke-linecap:butt;stroke-linejoin:miter;marker:none;marker-start:none;marker-mid:none;marker-end:none;stroke-miterlimit:4;stroke-dasharray:none;stroke-dashoffset:0;stroke-opacity:1;visibility:visible;display:inline;overflow:visible;enable-background:accumulate"/></g><path id="path78" d="M 31.5,34.625 A 11.625,3.875 0 1 1 8.25,34.625 A 11.625,3.875 0 1 1 31.5,34.625 z" transform="matrix(0.7221268,0,0,0.770384,1.3422236,-2.7462284)" style="opacity:1;color:#000;fill:#ef2929;fill-opacity:1;fill-rule:evenodd;stroke:none;stroke-width:1;stroke-linecap:butt;stroke-linejoin:miter;marker:none;marker-start:none;marker-mid:none;marker-end:none;stroke-miterlimit:4;stroke-dasharray:none;stroke-dashoffset:0;stroke-opacity:1;visibility:visible;display:inline;overflow:visible;filter:url(#filter5314);enable-background:accumulate"/><path id="path80" d="M 15.509197,3.0479775 C 8.7211813,3.0479775 3.2222424,8.5606384 3.2222424,15.365592 C 3.2222424,16.003557 3.2706607,16.624988 3.364015,17.236922 C 6.9717058,17.926932 11.102572,18.302869 15.509197,18.302869 C 19.906887,18.302869 24.051832,17.924329 27.654379,17.236922 C 27.747733,16.624988 27.796152,16.003557 27.796152,15.365592 C 27.796152,8.5606384 22.297212,3.0479776 15.509197,3.0479775 z" style="opacity:.25903614;color:#000;fill:url(#radialGradient5242);fill-opacity:1;fill-rule:evenodd;stroke:none;stroke-width:1;stroke-linecap:butt;stroke-linejoin:miter;marker:none;marker-start:none;marker-mid:none;marker-end:none;stroke-miterlimit:4;stroke-dasharray:none;stroke-dashoffset:0;stroke-opacity:1;visibility:visible;display:inline;overflow:visible;enable-background:accumulate"/></g><g id="g22" transform="translate(303,177) scale(1.000000,1.000000)" style="display:inline;enable-background:new"><g id="g83" transform="matrix(0.4921087,0,0,0.4894647,-1.2844021,-0.3395205)"><path id="path85" d="M 42.5,39.75 A 17.25,5.75 0 1 1 8,39.75 A 17.25,5.75 0 1 1 42.5,39.75 z" transform="matrix(1.15942,0,0,1.507246,-3.775362,-22.16304)" style="opacity:.64432989;color:#000;fill:url(#radialGradient2812);fill-opacity:1;fill-rule:nonzero;stroke:none;stroke-width:1;stroke-linecap:butt;stroke-linejoin:miter;marker:none;marker-start:none;marker-mid:none;marker-end:none;stroke-miterlimit:4;stroke-dasharray:none;stroke-dashoffset:0;stroke-opacity:1;visibility:visible;display:inline;overflow:visible"/><path id="path87" d="M 58.403591,29.207693 A 29.010935,29.010935 0 1 1 0.3817215,29.207693 A 29.010935,29.010935 0 1 1 58.403591,29.207693 z" transform="matrix(0.67131,0,0,0.67131,5.222369,3.418373)" style="fill:url(#radialGradient2784);fill-opacity:1;fill-rule:evenodd;stroke:#a40000;stroke-width:3.0351882;stroke-linecap:butt;stroke-linejoin:miter;stroke-miterlimit:4;stroke-dasharray:none;stroke-opacity:1"/><path id="path89" d="M 58.403591,29.207693 A 29.010935,29.010935 0 1 1 0.3817215,29.207693 A 29.010935,29.010935 0 1 1 58.403591,29.207693 z" transform="matrix(0.5959794,0,0,0.5959794,7.4365313,5.6186022)" style="opacity:.37628868;fill:none;fill-opacity:1;fill-rule:evenodd;stroke:url(#linearGradient2794);stroke-width:3.41883087;stroke-linecap:butt;stroke-linejoin:miter;stroke-miterlimit:4;stroke-dasharray:none;stroke-opacity:1"/></g><g id="g91" transform="matrix(0.4921087,0,0,0.4894647,-0.7820096,0.2011872)" style="opacity:.54216865;fill:#000;fill-opacity:1;filter:url(#filter5407)"><rect id="rect93" width="3.119" height="16.775" x="21.927" y="8.789" rx="3.169" ry="3.187" style="fill:#000;fill-opacity:1;fill-rule:evenodd;stroke:none;stroke-width:1pt;stroke-linecap:butt;stroke-linejoin:miter;stroke-opacity:1"/><rect id="rect95" width="4.195" height="11.142" x="-2.048" y="31.37" rx="4.273" ry="4.273" transform="matrix(0.710722,-0.703473,0.703473,0.710722,0,0)" style="fill:#000;fill-opacity:1;fill-rule:evenodd;stroke:none;stroke-width:1pt;stroke-linecap:butt;stroke-linejoin:miter;stroke-opacity:1"/><path id="path97" d="M 25.625,23.875 A 3.375,3.375 0 1 1 18.875,23.875 A 3.375,3.375 0 1 1 25.625,23.875 z" transform="matrix(1.0370371,0,0,1.0370371,0.7473093,-1.6734729)" style="opacity:1;color:#000;fill:#000;fill-opacity:1;fill-rule:evenodd;stroke:none;stroke-width:1;stroke-linecap:butt;stroke-linejoin:miter;marker:none;marker-start:none;marker-mid:none;marker-end:none;stroke-miterlimit:4;stroke-dasharray:none;stroke-dashoffset:0;stroke-opacity:1;visibility:visible;display:inline;overflow:visible;enable-background:accumulate"/></g><g id="g99" transform="matrix(0.4921087,0,0,0.4894647,-0.7820096,1.76379e-2)"><rect id="rect101" width="3.119" height="16.775" x="21.927" y="8.789" rx="3.169" ry="3.187" style="fill:#eeeeec;fill-opacity:1;fill-rule:evenodd;stroke:none;stroke-width:1pt;stroke-linecap:butt;stroke-linejoin:miter;stroke-opacity:1"/><rect id="rect103" width="4.195" height="11.142" x="-2.048" y="31.37" rx="4.273" ry="4.273" transform="matrix(0.710722,-0.703473,0.703473,0.710722,0,0)" style="fill:#eeeeec;fill-opacity:1;fill-rule:evenodd;stroke:none;stroke-width:1pt;stroke-linecap:butt;stroke-linejoin:miter;stroke-opacity:1"/><path id="path105" d="M 25.625,23.875 A 3.375,3.375 0 1 1 18.875,23.875 A 3.375,3.375 0 1 1 25.625,23.875 z" transform="matrix(1.0370371,0,0,1.0370371,0.7473093,-1.6734729)" style="opacity:1;color:#000;fill:#eeeeec;fill-opacity:1;fill-rule:evenodd;stroke:none;stroke-width:1;stroke-linecap:butt;stroke-linejoin:miter;marker:none;marker-start:none;marker-mid:none;marker-end:none;stroke-miterlimit:4;stroke-dasharray:none;stroke-dashoffset:0;stroke-opacity:1;visibility:visible;display:inline;overflow:visible;enable-background:accumulate"/></g><path id="path107" d="M 31.5,34.625 A 11.625,3.875 0 1 1 8.25,34.625 A 11.625,3.875 0 1 1 31.5,34.625 z" transform="matrix(0.4947545,0,0,0.5236746,1.2568684,-1.4422041)" style="opacity:1;color:#000;fill:#ef2929;fill-opacity:1;fill-rule:evenodd;stroke:none;stroke-width:1;stroke-linecap:butt;stroke-linejoin:miter;marker:none;marker-start:none;marker-mid:none;marker-end:none;stroke-miterlimit:4;stroke-dasharray:none;stroke-dashoffset:0;stroke-opacity:1;visibility:visible;display:inline;overflow:visible;filter:url(#filter5314);enable-background:accumulate"/><path id="path109" d="M 10.963161,2.9534117 C 6.5541525,2.9534117 2.9824355,6.5059386 2.9824355,10.891261 C 2.9824355,11.302382 3.0138845,11.702853 3.0745204,12.097204 C 5.4178181,12.541863 8.1009332,12.78413 10.963161,12.78413 C 13.819584,12.78413 16.511843,12.540185 18.8518,12.097204 C 18.912435,11.702853 18.943887,11.302382 18.943887,10.891261 C 18.943887,6.5059386 15.372166,2.9534117 10.963161,2.9534117 z" style="opacity:.25903614;color:#000;fill:url(#radialGradient5242);fill-opacity:1;fill-rule:evenodd;stroke:none;stroke-width:1;stroke-linecap:butt;stroke-linejoin:miter;marker:none;marker-start:none;marker-mid:none;marker-end:none;stroke-miterlimit:4;stroke-dasharray:none;stroke-dashoffset:0;stroke-opacity:1;visibility:visible;display:inline;overflow:visible;enable-background:accumulate"/></g><g id="g16" transform="translate(303,219) scale(1.000000,1.000000)" style="display:inline;enable-background:new"><g id="g112" transform="matrix(0.3814826,0,0,0.379433,-1.5737566,-0.68221)"><path id="path114" d="M 58.403591,29.207693 A 29.010935,29.010935 0 1 1 0.3817215,29.207693 A 29.010935,29.010935 0 1 1 58.403591,29.207693 z" transform="matrix(0.67131,0,0,0.67131,5.222369,3.418373)" style="fill:url(#radialGradient2784);fill-opacity:1;fill-rule:evenodd;stroke:#a40000;stroke-width:3.9153614;stroke-linecap:butt;stroke-linejoin:miter;stroke-miterlimit:4;stroke-dasharray:none;stroke-opacity:1"/><path id="path116" d="M 58.403591,29.207693 A 29.010935,29.010935 0 1 1 0.3817215,29.207693 A 29.010935,29.010935 0 1 1 58.403591,29.207693 z" transform="matrix(0.5959794,0,0,0.5959794,7.4365313,5.6186022)" style="opacity:.37628868;fill:none;fill-opacity:1;fill-rule:evenodd;stroke:url(#linearGradient2794);stroke-width:4.41025639;stroke-linecap:butt;stroke-linejoin:miter;stroke-miterlimit:4;stroke-dasharray:none;stroke-opacity:1"/></g><g id="g118" transform="matrix(0.3814826,0,0,0.379433,-1.434302,-0.4053409)"><rect id="rect120" width="3.119" height="16.775" x="21.927" y="8.789" rx="1.56" ry="1.56" style="fill:#eeeeec;fill-opacity:1;fill-rule:evenodd;stroke:none;stroke-width:1pt;stroke-linecap:butt;stroke-linejoin:miter;stroke-opacity:1"/><rect id="rect122" width="4.195" height="12.245" x="-2.048" y="31.37" rx="2.097" ry="2.097" transform="matrix(0.710722,-0.703473,0.703473,0.710722,0,0)" style="fill:#eeeeec;fill-opacity:1;fill-rule:evenodd;stroke:none;stroke-width:1pt;stroke-linecap:butt;stroke-linejoin:miter;stroke-opacity:1"/><path id="path124" d="M 25.625,23.875 A 3.375,3.375 0 1 1 18.875,23.875 A 3.375,3.375 0 1 1 25.625,23.875 z" transform="matrix(1.0370371,0,0,1.0370371,0.7473093,-1.6734729)" style="opacity:1;color:#000;fill:#eeeeec;fill-opacity:1;fill-rule:evenodd;stroke:none;stroke-width:1;stroke-linecap:butt;stroke-linejoin:miter;marker:none;marker-start:none;marker-mid:none;marker-end:none;stroke-miterlimit:4;stroke-dasharray:none;stroke-dashoffset:0;stroke-opacity:1;visibility:visible;display:inline;overflow:visible;enable-background:accumulate"/></g></g></g></svg>