<svg xmlns="http://www.w3.org/2000/svg" xmlns:svg="http://www.w3.org/2000/svg" xmlns:xlink="http://www.w3.org/1999/xlink" id="svg11300" width="400" height="300" version="1.0" style="display:inline;enable-background:new"><title id="title8836">Optical Drive</title><metadata id="metadata154"/><defs id="defs3"><linearGradient id="linearGradient2806"><stop id="stop2808" offset="0" style="stop-color:black;stop-opacity:1"/><stop id="stop2810" offset="1" style="stop-color:black;stop-opacity:0"/></linearGradient><linearGradient id="linearGradient2796"><stop id="stop2798" offset="0" style="stop-color:white;stop-opacity:1"/><stop id="stop2800" offset="1" style="stop-color:#dfdfdf;stop-opacity:1"/></linearGradient><linearGradient id="linearGradient2788"><stop id="stop2790" offset="0" style="stop-color:white;stop-opacity:1"/><stop id="stop2792" offset="1" style="stop-color:white;stop-opacity:0"/></linearGradient><linearGradient id="linearGradient2778"><stop id="stop2780" offset="0" style="stop-color:#ff0202;stop-opacity:1"/><stop id="stop2782" offset="1" style="stop-color:#b20000;stop-opacity:1"/></linearGradient><radialGradient id="radialGradient2784" cx="30.324" cy="13.38" r="29.756" fx="30.324" fy="13.38" gradientTransform="matrix(1.531919,0,0,1.531919,-16.12973,-7.117303)" gradientUnits="userSpaceOnUse" xlink:href="#linearGradient2778"/><linearGradient id="linearGradient2794" x1="-.363" x2="59.148" y1="29.208" y2="29.208" gradientUnits="userSpaceOnUse" xlink:href="#linearGradient2788"/><radialGradient id="radialGradient2802" cx="31.76" cy="22.226" r="18.624" fx="31.76" fy="22.226" gradientTransform="matrix(1.316528,0,0,1.316528,-10.05306,-9.280346)" gradientUnits="userSpaceOnUse" xlink:href="#linearGradient2796"/><radialGradient id="radialGradient2812" cx="25.25" cy="39.75" r="17.25" fx="25.25" fy="39.75" gradientTransform="matrix(1,0,0,0.333333,0,26.5)" gradientUnits="userSpaceOnUse" xlink:href="#linearGradient2806"/><radialGradient id="radialGradient22312" cx="25.25" cy="39.75" r="17.25" fx="25.25" fy="39.75" gradientTransform="matrix(1,0,0,0.333333,0,26.5)" gradientUnits="userSpaceOnUse" xlink:href="#linearGradient2806"/><radialGradient id="radialGradient22314" cx="30.324" cy="13.38" r="29.756" fx="30.324" fy="13.38" gradientTransform="matrix(1.531919,0,0,1.531919,-16.12973,-7.117303)" gradientUnits="userSpaceOnUse" xlink:href="#linearGradient2778"/><radialGradient id="radialGradient22316" cx="31.76" cy="22.226" r="18.624" fx="31.76" fy="22.226" gradientTransform="matrix(1.316528,0,0,1.316528,-10.05306,-9.280346)" gradientUnits="userSpaceOnUse" xlink:href="#linearGradient2796"/><linearGradient id="linearGradient22318" x1="-.363" x2="59.148" y1="29.208" y2="29.208" gradientUnits="userSpaceOnUse" xlink:href="#linearGradient2788"/><radialGradient id="radialGradient22320" cx="25.25" cy="39.75" r="17.25" fx="25.25" fy="39.75" gradientTransform="matrix(1,0,0,0.333333,0,26.5)" gradientUnits="userSpaceOnUse" xlink:href="#linearGradient2806"/><radialGradient id="radialGradient22322" cx="30.324" cy="13.38" r="29.756" fx="30.324" fy="13.38" gradientTransform="matrix(1.531919,0,0,1.531919,-16.12973,-7.117303)" gradientUnits="userSpaceOnUse" xlink:href="#linearGradient2778"/><radialGradient id="radialGradient22324" cx="31.76" cy="22.226" r="18.624" fx="31.76" fy="22.226" gradientTransform="matrix(1.316528,0,0,1.316528,-10.05306,-9.280346)" gradientUnits="userSpaceOnUse" xlink:href="#linearGradient2796"/><linearGradient id="linearGradient22326" x1="-.363" x2="59.148" y1="29.208" y2="29.208" gradientUnits="userSpaceOnUse" xlink:href="#linearGradient2788"/><radialGradient id="radialGradient22328" cx="30.324" cy="13.38" r="29.756" fx="30.324" fy="13.38" gradientTransform="matrix(1.531919,0,0,1.531919,-16.12973,-7.117303)" gradientUnits="userSpaceOnUse" xlink:href="#linearGradient2778"/><radialGradient id="radialGradient22330" cx="31.76" cy="22.226" r="18.624" fx="31.76" fy="22.226" gradientTransform="matrix(1.316528,0,0,1.316528,-10.05306,-9.280346)" gradientUnits="userSpaceOnUse" xlink:href="#linearGradient2796"/></defs><g id="layer6" style="display:none"><rect id="rect6284" width="48" height="48" x="296" y="50" style="fill:#eeeeec;fill-opacity:1;fill-rule:nonzero;stroke:none;stroke-width:2;marker:none;visibility:visible;display:inline;overflow:visible;enable-background:accumulate"/><rect id="rect6592" width="32" height="32" x="303" y="126" style="fill:#eeeeec;fill-opacity:1;fill-rule:nonzero;stroke:none;stroke-width:2;marker:none;visibility:visible;display:inline;overflow:visible;enable-background:accumulate"/><rect style="fill:#babdb6;fill-opacity:1;fill-rule:nonzero;stroke:none;stroke-width:2;marker:none;visibility:visible;display:inline;overflow:visible;enable-background:accumulate" id="rect22310" width="24" height="24" x="302" y="176"/><rect id="rect6749" width="22" height="22" x="303" y="177" style="fill:#eeeeec;fill-opacity:1;fill-rule:nonzero;stroke:none;stroke-width:2;marker:none;visibility:visible;display:inline;overflow:visible;enable-background:accumulate"/><rect id="rect6833" width="16" height="16" x="303" y="219" style="fill:#eeeeec;fill-opacity:1;fill-rule:nonzero;stroke:none;stroke-width:2;marker:none;visibility:visible;display:inline;overflow:visible;enable-background:accumulate"/><text id="context" x="20.971" y="21.514" xml:space="preserve" style="font-size:18.30070686px;font-style:normal;font-weight:400;fill:#000;fill-opacity:1;stroke:none;display:inline;enable-background:new;font-family:Bitstream Vera Sans"><tspan id="tspan2716" x="20.971" y="21.514">emblems</tspan></text><text id="icon-name" x="191.971" y="21.514" xml:space="preserve" style="font-size:18.30070686px;font-style:normal;font-variant:normal;font-weight:700;font-stretch:normal;text-align:start;line-height:125%;writing-mode:lr-tb;text-anchor:start;fill:#000;fill-opacity:1;stroke:none;display:inline;enable-background:new;font-family:Droid Sans;-inkscape-font-specification:Droid Sans Bold"><tspan id="tspan3023" x="191.971" y="21.514">emblem-important</tspan></text></g><g id="layer2" style="display:inline"><g id="g48" transform="translate(295.06251,50.949541)" style="display:inline;enable-background:new"><path id="path2804" d="m 42.5,39.75 c 0,3.175637 -7.723088,5.75 -17.25,5.75 C 15.723088,45.5 8,42.925637 8,39.75 8,36.574363 15.723088,34 25.25,34 c 9.526912,0 17.25,2.574363 17.25,5.75 z" transform="matrix(1.15942,0,0,1.507246,-3.775362,-22.16304)" style="opacity:.64432989;color:#000;fill:url(#radialGradient2812);fill-opacity:1;fill-rule:nonzero;stroke:none;stroke-width:1;marker:none;visibility:visible;display:inline;overflow:visible"/><path id="path907" d="m 58.403591,29.207693 c 0,16.022297 -12.988638,29.010935 -29.010935,29.010935 -16.022297,0 -29.0109345,-12.988638 -29.0109345,-29.010935 0,-16.022297 12.9886375,-29.01093473 29.0109345,-29.01093473 16.022297,0 29.010935,12.98863773 29.010935,29.01093473 z" transform="matrix(0.67131,0,0,0.67131,5.222369,3.418373)" style="fill:url(#radialGradient22328);fill-opacity:1;fill-rule:evenodd;stroke:#a40000;stroke-width:1.48962474;stroke-linecap:butt;stroke-linejoin:miter;stroke-miterlimit:4;stroke-opacity:1;stroke-dasharray:none"/><path id="path2159" d="m 50.384842,29.319231 c 0,10.285971 -8.338427,18.624397 -18.624397,18.624397 -10.285971,0 -18.624398,-8.338426 -18.624398,-18.624397 0,-10.285971 8.338427,-18.624397 18.624398,-18.624397 10.28597,0 18.624397,8.338426 18.624397,18.624397 z" transform="matrix(0.780964,0,0,0.780964,0.172888,-0.147684)" style="fill:url(#radialGradient22330);fill-opacity:1;fill-rule:evenodd;stroke:none"/><path id="text1299" d="m 23.270741,31.644037 c -3e-6,-0.504836 0.184052,-0.946569 0.552168,-1.325199 0.378624,-0.389142 0.820357,-0.583715 1.325199,-0.583718 0.51535,3e-6 0.962341,0.189317 1.340975,0.567941 0.378622,0.378633 0.567935,0.825624 0.567944,1.340976 -9e-6,0.50484 -0.194582,0.946573 -0.58372,1.325201 -0.378634,0.36811 -0.820367,0.552165 -1.325199,0.552165 -0.483807,0 -0.920282,-0.189313 -1.309423,-0.567941 -0.378632,-0.389148 -0.567947,-0.825619 -0.567944,-1.309425" style="font-size:19.83371353px;font-style:normal;font-variant:normal;font-weight:400;font-stretch:normal;line-height:100%;writing-mode:lr-tb;text-anchor:start;fill:#a63434;fill-opacity:1;stroke:none;font-family:Dutch801 SWM"/><path id="path1591" d="m 22.990601,14.858179 c -0.05384,-0.252402 -0.09421,-0.510078 -0.121124,-0.773033 -0.01347,-0.262918 -0.02019,-0.525854 -0.02019,-0.788809 -4e-6,-0.694132 0.195141,-1.220004 0.585436,-1.577619 0.403742,-0.368088 0.982446,-0.552145 1.736114,-0.552165 0.780572,2e-5 1.372734,0.178817 1.776489,0.536389 0.417197,0.357615 0.6258,0.888746 0.62581,1.593395 -1e-5,0.262955 -0.01347,0.525891 -0.04037,0.788809 -0.01347,0.262955 -0.04038,0.515373 -0.08075,0.757256 l -1.958178,12.447409 -0.82768,0 -1.675553,-12.431632" style="font-size:19.83371353px;font-style:normal;font-variant:normal;font-weight:400;font-stretch:normal;line-height:100%;writing-mode:lr-tb;text-anchor:start;fill:#a63434;fill-opacity:1;stroke:none;font-family:Dutch801 SWM"/><path id="path2786" d="m 58.403591,29.207693 c 0,16.022297 -12.988638,29.010935 -29.010935,29.010935 -16.022297,0 -29.0109345,-12.988638 -29.0109345,-29.010935 0,-16.022297 12.9886375,-29.01093473 29.0109345,-29.01093473 16.022297,0 29.010935,12.98863773 29.010935,29.01093473 z" transform="matrix(0.629301,0,0,0.629301,6.457116,4.64535)" style="opacity:.37628868;fill:none;stroke:url(#linearGradient2794);stroke-width:1.58906472;stroke-linecap:butt;stroke-linejoin:miter;stroke-miterlimit:4;stroke-opacity:1;stroke-dasharray:none"/></g><g id="g32" transform="matrix(1.004178,0,0,1.004178,302.55726,126.75664)" style="display:inline;enable-background:new"><path id="path42" d="m 42.5,39.75 c 0,3.175637 -7.723088,5.75 -17.25,5.75 C 15.723088,45.5 8,42.925637 8,39.75 8,36.574363 15.723088,34 25.25,34 c 9.526912,0 17.25,2.574363 17.25,5.75 z" transform="matrix(0.799736,0,0,1.040426,-4.3066155,-16.125896)" style="opacity:.64432989;color:#000;fill:url(#radialGradient22320);fill-opacity:1;fill-rule:nonzero;stroke:none;stroke-width:1;marker:none;visibility:visible;display:inline;overflow:visible"/><path id="path44" d="m 58.403591,29.207693 c 0,16.022297 -12.988638,29.010935 -29.010935,29.010935 -16.022297,0 -29.0109345,-12.988638 -29.0109345,-29.010935 0,-16.022297 12.9886375,-29.01093473 29.0109345,-29.01093473 16.022297,0 29.010935,12.98863773 29.010935,29.01093473 z" transform="matrix(0.463051,0,0,0.463394,2.783652,1.709282)" style="fill:url(#radialGradient22322);fill-opacity:1;fill-rule:evenodd;stroke:#a40000;stroke-width:2.14980912;stroke-linecap:butt;stroke-linejoin:miter;stroke-miterlimit:4;stroke-opacity:1;stroke-dasharray:none"/><path id="path46" d="m 50.384842,29.319231 c 0,10.285971 -8.338427,18.624397 -18.624397,18.624397 -10.285971,0 -18.624398,-8.338426 -18.624398,-18.624397 0,-10.285971 8.338427,-18.624397 18.624398,-18.624397 10.28597,0 18.624397,8.338426 18.624397,18.624397 z" transform="matrix(0.538687,0,0,0.539085,-0.699339,-0.752305)" style="fill:url(#radialGradient22324);fill-opacity:1;fill-rule:evenodd;stroke:none"/><path id="path48" d="m 15.232916,21.192967 c -2e-6,-0.348479 0.126955,-0.6534 0.38087,-0.914762 0.261165,-0.268617 0.565861,-0.402927 0.914086,-0.40293 0.355474,3e-6 0.663796,0.130683 0.924967,0.39204 0.261163,0.261364 0.391746,0.569913 0.391752,0.925652 -6e-6,0.348482 -0.134217,0.653403 -0.402634,0.914764 -0.26117,0.254099 -0.565866,0.38115 -0.914085,0.38115 -0.333716,0 -0.634784,-0.13068 -0.903203,-0.392041 -0.261171,-0.268622 -0.391755,-0.56991 -0.391753,-0.903873" style="font-size:19.83371353px;font-style:normal;font-variant:normal;font-weight:400;font-stretch:normal;line-height:100%;writing-mode:lr-tb;text-anchor:start;fill:#a63434;fill-opacity:1;stroke:none;font-family:Dutch801 SWM"/><path id="path50" d="m 15.039683,9.605981 c -0.03713,-0.1742282 -0.06499,-0.3520975 -0.08355,-0.5336108 -0.0093,-0.1814877 -0.01393,-0.3629879 -0.01393,-0.5445011 -3e-6,-0.4791473 0.134603,-0.8421476 0.403817,-1.089003 0.27849,-0.2540848 0.677664,-0.3811361 1.197523,-0.3811499 0.538418,1.38e-5 0.946875,0.1234343 1.225373,0.3702601 0.287772,0.2468554 0.431659,0.6134858 0.431667,1.0998928 -8e-6,0.1815132 -0.0093,0.3630134 -0.02785,0.5445011 -0.0093,0.1815133 -0.02786,0.3557529 -0.0557,0.5227204 l -1.350697,8.5922304 -0.570911,0 -1.15575,-8.58134" style="font-size:19.83371353px;font-style:normal;font-variant:normal;font-weight:400;font-stretch:normal;line-height:100%;writing-mode:lr-tb;text-anchor:start;fill:#a63434;fill-opacity:1;stroke:none;font-family:Dutch801 SWM"/><path id="path52" d="m 58.403591,29.207693 a 29.010935,29.010935 0 1 1 -58.0218695,0 29.010935,29.010935 0 1 1 58.0218695,0 z" transform="matrix(0.42788778,0,0,0.42820518,3.8171768,2.7370625)" style="opacity:.37628868;fill:none;stroke:url(#linearGradient22326);stroke-width:2.32647562;stroke-linecap:butt;stroke-linejoin:miter;stroke-miterlimit:4;stroke-opacity:1;stroke-dasharray:none"/></g><g id="g22" transform="matrix(1.0244573,0,0,1.0244573,302.7831,177.56101)" style="display:inline;enable-background:new"><path id="path55" d="m 42.5,39.75 a 17.25,5.75 0 1 1 -34.5,0 17.25,5.75 0 1 1 34.5,0 z" transform="matrix(0.551085,0,0,0.68280556,-2.710736,-10.140485)" style="opacity:.64432989;color:#000;fill:url(#radialGradient22312);fill-opacity:1;fill-rule:nonzero;stroke:none;stroke-width:1;marker:none;visibility:visible;display:inline;overflow:visible"/><path id="path57" d="m 58.403591,29.207693 c 0,16.022297 -12.988638,29.010935 -29.010935,29.010935 -16.022297,0 -29.0109345,-12.988638 -29.0109345,-29.010935 0,-16.022297 12.9886375,-29.01093473 29.0109345,-29.01093473 16.022297,0 29.010935,12.98863773 29.010935,29.01093473 z" transform="matrix(0.31908,0,0,0.319667,1.565977,0.853677)" style="fill:url(#radialGradient22314);fill-opacity:1;fill-rule:evenodd;stroke:#a40000;stroke-width:3.05637765;stroke-linecap:butt;stroke-linejoin:miter;stroke-miterlimit:4;stroke-opacity:1;stroke-dasharray:none"/><path id="path59" d="m 50.384842,29.319231 c 0,10.285971 -8.338427,18.624397 -18.624397,18.624397 -10.285971,0 -18.624398,-8.338426 -18.624398,-18.624397 0,-10.285971 8.338427,-18.624397 18.624398,-18.624397 10.28597,0 18.624397,8.338426 18.624397,18.624397 z" transform="matrix(0.3712,0,0,0.371882,-0.834093,-0.844422)" style="fill:url(#radialGradient22316);fill-opacity:1;fill-rule:evenodd;stroke:none"/><path id="path61" d="m 10.144553,14.294287 c -2e-6,-0.240395 0.08748,-0.450741 0.26245,-0.631039 0.179965,-0.185302 0.389926,-0.277955 0.629882,-0.277957 0.244951,2e-6 0.457411,0.09015 0.63738,0.270445 0.179962,0.180299 0.269944,0.393148 0.269949,0.638551 -5e-6,0.240396 -0.09249,0.450743 -0.277448,0.63104 -0.179969,0.175287 -0.389929,0.262932 -0.629881,0.262932 -0.229957,0 -0.437418,-0.09015 -0.622382,-0.270445 -0.179969,-0.185306 -0.269952,-0.393146 -0.26995,-0.623527" style="font-size:19.83371353px;font-style:normal;font-variant:normal;font-weight:400;font-stretch:normal;line-height:100%;writing-mode:lr-tb;text-anchor:start;fill:#a63434;fill-opacity:1;stroke:none;font-family:Dutch801 SWM"/><path id="path63" d="M 10.011399,6.3011302 C 9.985809,6.1809407 9.966619,6.0582395 9.953828,5.9330245 c -0.0064,-0.1251973 -0.0096,-0.2504032 -0.0096,-0.3756182 -2.1e-6,-0.3305345 0.092752,-0.5809464 0.278263,-0.7512369 0.191904,-0.1752777 0.466968,-0.2629226 0.825193,-0.2629321 0.371015,9.5e-6 0.652476,0.08515 0.844384,0.2554199 0.198299,0.1702905 0.297449,0.4232065 0.297455,0.7587491 -6e-6,0.125215 -0.0064,0.2504209 -0.01919,0.3756182 -0.0064,0.125215 -0.0192,0.2454123 -0.03838,0.360593 l -0.930743,5.9272565 -0.393404,0 -0.796409,-5.9197438" style="font-size:19.83371353px;font-style:normal;font-variant:normal;font-weight:400;font-stretch:normal;line-height:100%;writing-mode:lr-tb;text-anchor:start;fill:#a63434;fill-opacity:1;stroke:none;font-family:Dutch801 SWM"/><path id="path65" d="m 58.403591,29.207693 c 0,16.022297 -12.988638,29.010935 -29.010935,29.010935 -16.022297,0 -29.0109345,-12.988638 -29.0109345,-29.010935 0,-16.022297 12.9886375,-29.01093473 29.0109345,-29.01093473 16.022297,0 29.010935,12.98863773 29.010935,29.01093473 z" transform="matrix(0.283879,0,0,0.284403,2.600623,1.883658)" style="opacity:.37628868;fill:none;stroke:url(#linearGradient22318);stroke-width:3.43535829;stroke-linecap:butt;stroke-linejoin:miter;stroke-miterlimit:4;stroke-opacity:1;stroke-dasharray:none"/></g><g id="g16" transform="translate(303,219) scale(1.000000,1.000000)" style="display:inline;enable-background:new"><path id="path68" d="m 58.403591,29.207693 c 0,16.022297 -12.988638,29.010935 -29.010935,29.010935 -16.022297,0 -29.0109345,-12.988638 -29.0109345,-29.010935 0,-16.022297 12.9886375,-29.01093473 29.0109345,-29.01093473 16.022297,0 29.010935,12.98863773 29.010935,29.01093473 z" transform="matrix(0.252052,0,0,0.252522,0.707678,0.513334)" style="fill:url(#radialGradient2784);fill-opacity:1;fill-rule:evenodd;stroke:#a40000;stroke-width:3.96373653;stroke-linecap:butt;stroke-linejoin:miter;stroke-miterlimit:4;stroke-dasharray:none;stroke-opacity:1"/><path id="path70" d="m 50.384842,29.319231 c 0,10.285971 -8.338427,18.624397 -18.624397,18.624397 -10.285971,0 -18.624398,-8.338426 -18.624398,-18.624397 0,-10.285971 8.338427,-18.624397 18.624398,-18.624397 10.28597,0 18.624397,8.338426 18.624397,18.624397 z" transform="matrix(0.297898,0,0,0.298453,-1.336708,-0.965415)" style="fill:url(#radialGradient2802);fill-opacity:1;fill-rule:evenodd;stroke:none;stroke-width:1pt;stroke-linecap:butt;stroke-linejoin:miter;stroke-opacity:1"/><path id="path72" d="M 7.4841858,11.130791 C 7.4841842,10.94089 7.5532908,10.774726 7.6915039,10.632299 C 7.8336643,10.485919 7.9995196,10.412728 8.1890689,10.412726 C 8.3825639,10.412728 8.5503933,10.483941 8.6925568,10.626365 C 8.8347149,10.768793 8.9057947,10.936934 8.9057986,11.130791 C 8.9057947,11.320692 8.83274,11.486857 8.6866331,11.629283 C 8.5444695,11.767752 8.3786151,11.836987 8.1890689,11.836987 C 8.0074181,11.836987 7.8435377,11.765774 7.6974284,11.623348 C 7.5552648,11.476965 7.4841842,11.312781 7.4841858,11.130791" style="font-size:19.83371353px;font-style:normal;font-variant:normal;font-weight:400;font-stretch:normal;line-height:100%;writing-mode:lr-tb;text-anchor:start;fill:#a63434;fill-opacity:1;stroke:none;stroke-width:1px;stroke-linecap:butt;stroke-linejoin:miter;stroke-opacity:1;font-family:Dutch801 SWM"/><path id="path74" d="M 7.3790029,4.8165695 C 7.3587889,4.7216253 7.3436294,4.6246971 7.3335255,4.5257831 C 7.3284698,4.426883 7.3259435,4.3279762 7.3259452,4.2290622 C 7.3259435,3.9679553 7.3992134,3.7701416 7.5457548,3.63562 C 7.6973462,3.4971588 7.9146285,3.4279234 8.1976025,3.4279159 C 8.4906798,3.4279234 8.7130153,3.4951803 8.8646099,3.6296857 C 9.021253,3.7642073 9.0995749,3.9639991 9.0995797,4.2290622 C 9.0995749,4.3279762 9.0945225,4.426883 9.08442,4.5257831 C 9.0793637,4.6246971 9.0692565,4.7196474 9.0541016,4.8106348 L 8.3188763,9.4928916 L 8.0081133,9.4928916 L 7.3790029,4.8165695" style="font-size:19.83371353px;font-style:normal;font-variant:normal;font-weight:400;font-stretch:normal;line-height:100%;writing-mode:lr-tb;text-anchor:start;fill:#a63434;fill-opacity:1;stroke:none;stroke-width:1px;stroke-linecap:butt;stroke-linejoin:miter;stroke-opacity:1;font-family:Dutch801 SWM"/></g></g></svg>