<svg xmlns="http://www.w3.org/2000/svg" xmlns:svg="http://www.w3.org/2000/svg" xmlns:xlink="http://www.w3.org/1999/xlink" id="svg11300" width="400" height="300" version="1.0" style="display:inline;enable-background:new"><title id="title8836">Optical Drive</title><metadata id="metadata154"/><defs id="defs3"><linearGradient id="linearGradient2790"><stop id="stop2792" offset="0" style="stop-color:black;stop-opacity:1"/><stop id="stop2794" offset="1" style="stop-color:black;stop-opacity:0"/></linearGradient><linearGradient id="linearGradient2780"><stop id="stop2782" offset="0" style="stop-color:white;stop-opacity:1"/><stop id="stop2784" offset="1" style="stop-color:white;stop-opacity:0"/></linearGradient><linearGradient id="linearGradient6621"><stop id="stop6622" offset="0" style="stop-color:#f5a108;stop-opacity:0"/><stop id="stop6623" offset="1" style="stop-color:#fefdc3;stop-opacity:.74251497"/></linearGradient><linearGradient id="linearGradient7881" x1="22.82" x2="12.85" y1="28.829" y2="12.239" gradientTransform="matrix(1.059395,0,0,0.544945,1.249822,2.738696)" gradientUnits="userSpaceOnUse" xlink:href="#linearGradient6621"/><linearGradient id="linearGradient1697" x1="11.465" x2="6.358" y1="20.416" y2="6.1" gradientTransform="matrix(2.0497479,0,0,1.0882943,0.2930144,-2.1550598)" gradientUnits="userSpaceOnUse" xlink:href="#linearGradient6621"/><linearGradient id="linearGradient121" x1="18.711" x2="11.413" y1="34.807" y2="31.452" gradientTransform="matrix(2.174132,0,0,1.166342,-1.102204,-2.607882)" gradientUnits="userSpaceOnUse" xlink:href="#linearGradient6621"/><linearGradient id="linearGradient2786" x1="22.687" x2="42.438" y1="16.673" y2="52.173" gradientUnits="userSpaceOnUse" xlink:href="#linearGradient2780"/><radialGradient id="radialGradient2796" cx="24.375" cy="37.75" r="17.375" fx="24.375" fy="37.75" gradientTransform="matrix(1,0,0,0.352518,0,24.44245)" gradientUnits="userSpaceOnUse" xlink:href="#linearGradient2790"/><linearGradient id="linearGradient2984" x1="22.687" x2="42.438" y1="16.673" y2="52.173" gradientUnits="userSpaceOnUse" xlink:href="#linearGradient2780"/><radialGradient id="radialGradient2986" cx="24.375" cy="37.75" r="17.375" fx="24.375" fy="37.75" gradientTransform="matrix(1,0,0,0.352518,0,24.44245)" gradientUnits="userSpaceOnUse" xlink:href="#linearGradient2790"/><linearGradient id="linearGradient2988" x1="22.82" x2="12.85" y1="28.829" y2="12.239" gradientTransform="matrix(1.059395,0,0,0.544945,1.249822,2.738696)" gradientUnits="userSpaceOnUse" xlink:href="#linearGradient6621"/><linearGradient id="linearGradient2990" x1="18.711" x2="11.413" y1="34.807" y2="31.452" gradientTransform="matrix(2.174132,0,0,1.166342,-1.102204,-2.607882)" gradientUnits="userSpaceOnUse" xlink:href="#linearGradient6621"/><linearGradient id="linearGradient2992" x1="9.742" x2="6.358" y1="17.026" y2="6.1" gradientTransform="matrix(1.996051,0,0,1.070808,0.902744,-1.06494)" gradientUnits="userSpaceOnUse" xlink:href="#linearGradient6621"/><linearGradient id="linearGradient2994" x1="15.492" x2="22.687" y1="3.442" y2="30.457" gradientUnits="userSpaceOnUse" xlink:href="#linearGradient2780"/><radialGradient id="radialGradient2996" cx="24.375" cy="37.75" r="17.375" fx="24.375" fy="37.75" gradientTransform="matrix(1,0,0,0.352518,0,24.44245)" gradientUnits="userSpaceOnUse" xlink:href="#linearGradient2790"/><linearGradient id="linearGradient2998" x1="22.82" x2="12.85" y1="28.829" y2="12.239" gradientTransform="matrix(1.059395,0,0,0.544945,1.249822,2.738696)" gradientUnits="userSpaceOnUse" xlink:href="#linearGradient6621"/><linearGradient id="linearGradient3000" x1="18.711" x2="11.413" y1="34.807" y2="31.452" gradientTransform="matrix(2.174132,0,0,1.166342,-1.102204,-2.607882)" gradientUnits="userSpaceOnUse" xlink:href="#linearGradient6621"/><linearGradient id="linearGradient3002" x1="7.394" x2="6.377" y1="13.306" y2="6.235" gradientTransform="matrix(1.996051,0,0,1.070808,0.902744,-1.06494)" gradientUnits="userSpaceOnUse" xlink:href="#linearGradient6621"/><linearGradient id="linearGradient3004" x1="22.82" x2="12.85" y1="28.829" y2="12.239" gradientTransform="matrix(1.059395,0,0,0.544945,1.249822,2.738696)" gradientUnits="userSpaceOnUse" xlink:href="#linearGradient6621"/><linearGradient id="linearGradient3006" x1="18.711" x2="11.413" y1="34.807" y2="31.452" gradientTransform="matrix(2.174132,0,0,1.166342,-1.102204,-2.607882)" gradientUnits="userSpaceOnUse" xlink:href="#linearGradient6621"/><linearGradient id="linearGradient3002-0" x1="3.996" x2="2.107" y1="9.013" y2="2.912" gradientTransform="matrix(1.996051,0,0,1.070808,0.902744,-1.06494)" gradientUnits="userSpaceOnUse" xlink:href="#linearGradient6621-9"/><linearGradient id="linearGradient6621-9"><stop id="stop6622-1" offset="0" style="stop-color:#f5a108;stop-opacity:0"/><stop id="stop6623-4" offset="1" style="stop-color:#fefdc3;stop-opacity:.74251497"/></linearGradient><linearGradient id="linearGradient3027" x1="11.465" x2="6.358" y1="20.416" y2="6.1" gradientTransform="matrix(1.9346343,0,0,1.0378602,-2.9126323,-6.6371395)" gradientUnits="userSpaceOnUse" xlink:href="#linearGradient6621-9"/></defs><g id="layer6" style="display:none"><rect id="rect6284" width="48" height="48" x="296" y="50" style="fill:#eeeeec;fill-opacity:1;fill-rule:nonzero;stroke:none;stroke-width:2;marker:none;visibility:visible;display:inline;overflow:visible;enable-background:accumulate"/><rect id="rect6592" width="32" height="32" x="303" y="126" style="fill:#eeeeec;fill-opacity:1;fill-rule:nonzero;stroke:none;stroke-width:2;marker:none;visibility:visible;display:inline;overflow:visible;enable-background:accumulate"/><rect id="rect6749" width="22" height="22" x="303" y="177" style="fill:#eeeeec;fill-opacity:1;fill-rule:nonzero;stroke:none;stroke-width:2;marker:none;visibility:visible;display:inline;overflow:visible;enable-background:accumulate"/><rect id="rect6833" width="16" height="16" x="303" y="219" style="fill:#eeeeec;fill-opacity:1;fill-rule:nonzero;stroke:none;stroke-width:2;marker:none;visibility:visible;display:inline;overflow:visible;enable-background:accumulate"/><text id="context" x="20.971" y="21.514" xml:space="preserve" style="font-size:18.30070686px;font-style:normal;font-weight:400;fill:#000;fill-opacity:1;stroke:none;display:inline;enable-background:new;font-family:Bitstream Vera Sans"><tspan id="tspan2716" x="20.971" y="21.514">emblems</tspan></text><text id="icon-name" x="191.971" y="21.514" xml:space="preserve" style="font-size:18.30070686px;font-style:normal;font-variant:normal;font-weight:700;font-stretch:normal;text-align:start;line-height:125%;writing-mode:lr-tb;text-anchor:start;fill:#000;fill-opacity:1;stroke:none;display:inline;enable-background:new;font-family:Droid Sans;-inkscape-font-specification:Droid Sans Bold"><tspan id="tspan3023" x="191.971" y="21.514">emblem-favorite</tspan></text></g><g id="layer2" style="display:inline"><g id="g48" transform="translate(296,50)" style="display:inline;enable-background:new"><path id="path2788" d="m 41.75,37.75 a 17.375,6.125 0 1 1 -34.75,0 17.375,6.125 0 1 1 34.75,0 z" transform="matrix(1,0,0,1.255102,0,-11.1926)" style="opacity:.42783502;color:#000;fill:url(#radialGradient2796);fill-opacity:1;fill-rule:nonzero;stroke:none;stroke-width:1;marker:none;visibility:visible;display:inline;overflow:visible"/><path id="path5378" d="m 21.976188,38.81239 c 0.06441,-0.0965 1.115101,1.243254 1.115101,1.243254 4.606926,-5.010496 16.365522,-14.372367 19.573212,-22.180175 -6.486895,7.191559 -17.08568,18.761235 -20.688313,20.936921 z" style="fill:#d4572d;fill-opacity:1;fill-rule:evenodd;stroke:none"/><path id="path7876" d="M 14.037441,6.57951 C 8.6695505,6.3154034 6.1688035,9.762296 4.8160932,13.041288 c -1.3423953,4.318005 0.5551864,12.4737 9.8542348,11.853249 5.30413,0 7.412333,-5.437188 10.203869,-6.848651 2.536984,-0.95885 2.736655,-1.044667 5.417018,-1.044667 3.72487,0 10.460854,-2.694587 10.460856,-5.368246 C 39.607133,9.487524 36.567476,5.6668116 30.981913,6.3180075 27.426476,6.7316401 24.06282,9.272036 23.184185,10.536145 21.031824,8.638529 18.283585,6.57951 14.037441,6.57951 z" style="fill:url(#linearGradient7881);fill-opacity:1;fill-rule:evenodd;stroke:none"/><path id="path920" d="M 23.836561,8.277913 C 33.125234,-1.0068895 45.890047,7.5509517 45.806082,16.356414 45.729323,24.406138 39.591726,28.261251 24.172423,42.579301 8.0330559,29.259417 2.346578,26.187802 2.4305434,16.637074 2.5145087,6.7506217 13.442265,-0.6692067 23.836561,8.277913 z" style="fill:#c71807;fill-opacity:1;fill-rule:evenodd;stroke:#a40000;stroke-width:.99999988;stroke-linecap:butt;stroke-linejoin:miter;stroke-miterlimit:4;stroke-opacity:1;stroke-dasharray:none"/><path id="path921" d="M 22.6479,39.178611 C 22.712194,39.082279 24.117293,40.301 24.117293,40.301 39.403252,26.397065 43.304223,23.69843 43.656451,18.159425 41.218171,23.676733 38.118762,25.374551 22.6479,39.178611 z" style="opacity:.42783502;color:#000;fill:url(#linearGradient121);fill-opacity:1;fill-rule:evenodd;stroke:none;stroke-width:1pt;marker:none;visibility:visible;display:inline;overflow:visible"/><path id="path922" d="m 13.635469,6.0212578 c -5.8872644,0 -9.0423871,5.7932242 -9.0204255,9.4880022 0.020575,3.461227 0.077405,4.80146 2.6731118,8.381099 2.6720158,3.684875 13.5213477,-2.189294 16.9927067,-5.854067 3.51555,-3.71143 14.654316,-2.937714 18.240134,-6.706667 C 40.500384,8.8097823 38.272582,6 33.125961,6 28.008453,6 25.412031,9.4347004 23.836435,10.847109 22.05197,9.1336522 19.464533,6.0212578 13.635469,6.0212578 z" style="fill:url(#linearGradient1697);fill-opacity:1;fill-rule:evenodd;stroke:none"/><path id="path2778" d="m 15.125,5.40625 c -0.832541,-0.07127 -1.6625,-0.05326 -2.4375,0.0625 -5.1712094,0.7724128 -9.0768889,5.491432 -9.125,11.15625 -0.040014,4.551443 1.1564029,7.304355 4.46875,10.8125 3.192273,3.380973 8.514501,7.431399 16.125,13.6875 7.282897,-6.733492 12.522022,-11.242733 15.78125,-14.78125 3.382222,-3.672051 4.714318,-6.25799 4.75,-10 0.03678,-3.857494 -2.858932,-7.90752 -6.84375,-9.8125 C 33.858932,4.62627 28.96608,4.7232288 24.625,9.0625 a 1.1215297,1.1215297 0 0 1 -1.5,0.0625 c -2.776333,-2.3897901 -5.502378,-3.5049405 -8,-3.71875 z" xlink:href="#path920" style="opacity:.25257736;fill:none;stroke:url(#linearGradient2786);stroke-width:1;stroke-linecap:butt;stroke-linejoin:miter;stroke-miterlimit:4;stroke-opacity:1;stroke-dasharray:none"/></g><g id="g32" transform="matrix(0.99119069,0,0,0.99119069,303.01699,126.27029)" style="display:inline;enable-background:new"><path id="path41" d="m 41.75,37.75 c 0,3.382744 -7.779052,6.125 -17.375,6.125 C 14.779052,43.875 7,41.132744 7,37.75 c 0,-3.382744 7.779052,-6.125 17.375,-6.125 9.595948,0 17.375,2.742256 17.375,6.125 z" transform="matrix(0.63114,0,0,0.791008,0.896193,-5.478593)" style="opacity:.42783502;color:#000;fill:url(#radialGradient2986);fill-opacity:1;fill-rule:nonzero;stroke:none;stroke-width:1;marker:none;visibility:visible;display:inline;overflow:visible"/><path id="path43" d="m 14.76624,26.036253 c 0.04065,-0.06082 0.703785,0.783541 0.703785,0.783541 2.907614,-3.157785 10.328931,-9.057955 12.353432,-13.978701 -4.094137,4.532365 -10.783452,11.823968 -13.057217,13.19516 z" style="fill:#d4572d;fill-opacity:1;fill-rule:evenodd;stroke:none"/><path id="path45" d="M 9.7557809,5.7219949 C 6.3678916,5.555546 4.7895707,7.727895 3.9358215,9.7944273 3.0885824,12.515781 4.2862217,17.655777 10.155221,17.264748 c 3.347647,0 4.678218,-3.426701 6.440068,-4.316253 1.601191,-0.6043 1.727212,-0.658384 3.418895,-0.658384 2.350914,0 6.602261,-1.698221 6.602263,-3.3832517 C 25.893831,7.5547243 23.975382,5.1467814 20.450111,5.5571872 18.206133,5.8178725 16.083196,7.4189164 15.528655,8.215601 14.170214,7.0196588 12.435691,5.7219949 9.7557809,5.7219949 z" style="fill:url(#linearGradient2988);fill-opacity:1;fill-rule:evenodd;stroke:none"/><path id="path47" d="M 15.9404,6.7923862 C 21.802853,0.940788 29.859237,6.3342305 29.806244,11.883732 29.757798,16.956942 25.884115,19.386565 16.152376,28.410287 5.9661759,20.015643 2.3772122,18.079807 2.4302062,12.060614 2.4832,5.8298353 9.3801441,1.1536072 15.9404,6.7923862 z" style="fill:#c71807;fill-opacity:1;fill-rule:evenodd;stroke:#a40000;stroke-width:1.00888765;stroke-linecap:butt;stroke-linejoin:miter;stroke-miterlimit:4;stroke-opacity:1;stroke-dasharray:none"/><path id="path49" d="m 15.065184,25.642058 c 0.04058,-0.06071 0.927392,0.707367 0.927392,0.707367 9.647577,-8.762733 12.109635,-10.463504 12.33194,-13.954374 -1.538895,3.477196 -3.495055,4.547218 -13.259332,13.247007 z" style="opacity:.42783502;color:#000;fill:url(#linearGradient2990);fill-opacity:1;fill-rule:evenodd;stroke:none;stroke-width:1pt;marker:none;visibility:visible;display:inline;overflow:visible"/><path id="path51" d="m 9.6663029,5.9743995 c -3.6183477,0 -5.5575048,3.5924226 -5.5440071,5.8835825 0.012646,2.146333 0.047573,2.977422 1.6429104,5.197184 1.6422367,2.285019 8.3103008,-1.357598 10.4438178,-3.630152 2.160678,-2.301486 9.00663,-1.821699 11.210495,-4.1588552 -1.241881,-1.5625739 -2.6111,-3.3049414 -5.774244,-3.3049414 -3.145251,0 -4.741028,2.129884 -5.709398,3.005729 C 14.839134,7.9044191 13.24888,5.9743995 9.6663029,5.9743995 z" style="fill:url(#linearGradient2992);fill-opacity:1;fill-rule:evenodd;stroke:none"/><path id="path53" d="m 15.125,5.40625 c -0.832541,-0.07127 -1.6625,-0.05326 -2.4375,0.0625 -5.1712094,0.7724128 -9.0768889,5.491432 -9.125,11.15625 -0.040014,4.551443 1.1564029,7.304355 4.46875,10.8125 3.192273,3.380973 8.514501,7.431399 16.125,13.6875 7.282897,-6.733492 12.522022,-11.242733 15.78125,-14.78125 3.382222,-3.672051 4.714318,-6.25799 4.75,-10 0.03678,-3.857494 -2.858932,-7.90752 -6.84375,-9.8125 C 33.858932,4.62627 28.96608,4.7232288 24.625,9.0625 a 1.1215297,1.1215297 0 0 1 -1.5,0.0625 c -2.776333,-2.3897901 -5.502378,-3.5049405 -8,-3.71875 z" transform="matrix(0.61482585,0,0,0.61347562,1.2468075,1.9595333)" xlink:href="#path920" style="opacity:.25257736;fill:none;stroke:url(#linearGradient2984);stroke-width:1.64273739;stroke-linecap:butt;stroke-linejoin:miter;stroke-miterlimit:4;stroke-opacity:1;stroke-dasharray:none"/></g><g id="g22" transform="matrix(0.96923089,0,0,0.96923089,303.10439,177.42495)" style="display:inline;enable-background:new"><path id="path56" d="m 41.75,37.75 c 0,3.382744 -7.779052,6.125 -17.375,6.125 C 14.779052,43.875 7,41.132744 7,37.75 c 0,-3.382744 7.779052,-6.125 17.375,-6.125 9.595948,0 17.375,2.742256 17.375,6.125 z" transform="matrix(0.403597,0,0,0.504601,1.449036,-1.952303)" style="opacity:.42783502;color:#000;fill:url(#radialGradient2996);fill-opacity:1;fill-rule:nonzero;stroke:none;stroke-width:1;marker:none;visibility:visible;display:inline;overflow:visible"/><path id="path58" d="m 10.318573,18.151705 c 0.02599,-0.0388 0.450052,0.499838 0.450052,0.499838 1.859344,-2.014421 6.605084,-5.778268 7.8997,-8.9173191 -2.618095,2.8912951 -6.895738,7.5427671 -8.349752,8.4174811 z" style="fill:#d4572d;fill-opacity:1;fill-rule:evenodd;stroke:none"/><path id="path60" d="M 7.1145138,5.1927963 C 4.9480462,5.0866149 3.9387508,6.4724037 3.3928003,7.7906897 2.8510128,9.5267008 3.6168722,12.805616 7.3699454,12.55617 c 2.1407334,0 2.9915996,-2.185967 4.1182566,-2.7534318 1.023921,-0.3854962 1.104508,-0.4199975 2.186295,-0.4199975 1.503348,0 4.221975,-1.0833322 4.221976,-2.15825 C 17.434379,6.3619343 16.207581,4.825855 13.953261,5.0876619 12.518295,5.2539587 11.160732,6.2752995 10.806118,6.783522 9.9374296,6.0206043 8.8282467,5.1927963 7.1145138,5.1927963 z" style="fill:url(#linearGradient2998);fill-opacity:1;fill-rule:evenodd;stroke:none"/><path id="path62" d="m 11.069419,5.875627 c 3.748887,-3.7328659 8.900738,-0.2922679 8.86685,3.2478837 -0.03098,3.2363143 -2.5081,4.7862253 -8.731297,10.5426603 C 4.6911598,14.311039 2.39611,13.076126 2.4299983,9.2363473 2.4638865,5.2615941 6.8743045,2.2785233 11.069419,5.875627 z" style="fill:#c71807;fill-opacity:1;fill-rule:evenodd;stroke:#a40000;stroke-width:1.03174663;stroke-linecap:butt;stroke-linejoin:miter;stroke-miterlimit:4;stroke-opacity:1;stroke-dasharray:none"/><path id="path64" d="m 10.509739,17.900239 c 0.02595,-0.03873 0.593044,0.451244 0.593044,0.451244 6.169376,-5.589938 7.743798,-6.674897 7.885956,-8.901799 -0.984083,2.218179 -2.234997,2.90077 -8.479,8.450555 z" style="opacity:.42783502;color:#000;fill:url(#linearGradient3000);fill-opacity:1;fill-rule:evenodd;stroke:none;stroke-width:1pt;marker:none;visibility:visible;display:inline;overflow:visible"/><path id="path66" d="M 6.9478274,5.7903347 C 4.0873749,5.7937602 2.7694365,10.080109 5.1176853,12.351167 7.4338506,14.591196 9.940183,11.273132 11.14618,9.991661 12.367529,8.6938764 16.237286,8.9644235 17.483047,7.6465247 16.78106,6.765405 16.574295,5.7829015 14.594087,5.7829015 c -1.91774,0 -2.267113,1.6949003 -3.602306,1.6949003 -1.4601478,0 -1.1828933,-1.6908933 -4.0439536,-1.6874671 z" style="fill:url(#linearGradient3002);fill-opacity:1;fill-rule:evenodd;stroke:none"/><path id="path68" d="m 15.125,5.40625 c -0.832541,-0.07127 -1.6625,-0.05326 -2.4375,0.0625 -5.1712094,0.7724128 -9.0768889,5.491432 -9.125,11.15625 -0.040014,4.551443 1.1564029,7.304355 4.46875,10.8125 3.192273,3.380973 8.514501,7.431399 16.125,13.6875 7.282897,-6.733492 12.522022,-11.242733 15.78125,-14.78125 3.382222,-3.672051 4.714318,-6.25799 4.75,-10 0.03678,-3.857494 -2.858932,-7.90752 -6.84375,-9.8125 C 33.858932,4.62627 28.96608,4.7232288 24.625,9.0625 a 1.1215297,1.1215297 0 0 1 -1.5,0.0625 c -2.776333,-2.3897901 -5.502378,-3.5049405 -8,-3.71875 z" transform="matrix(0.37047402,0,0,0.36824983,2.3822395,3.2711977)" xlink:href="#path920" style="opacity:.25257735999999997;fill:none;stroke:url(#linearGradient2994);stroke-width:2.79333234000000008;stroke-linecap:butt;stroke-linejoin:miter;stroke-miterlimit:4;stroke-opacity:1;stroke-dasharray:none"/></g><g id="g16" transform="translate(303,219.42138)" style="display:inline;enable-background:new"><path id="path71" d="m 7.2950276,12.816018 c 0.022004,-0.0328 0.3809638,0.422541 0.3809638,0.422541 C 9.2499043,11.535654 13.267118,8.3538601 14.362995,5.7002413 12.146808,8.1444178 8.5258334,12.076572 7.2950276,12.816018 z" style="fill:#d4572d;fill-opacity:1;fill-rule:evenodd;stroke:none"/><path id="path73" d="M 4.5828291,1.8611137 C 2.7489397,1.7713525 1.8945829,2.9428387 1.4324422,4.057261 0.97382548,5.5248102 1.6221165,8.2966641 4.7990489,8.0857932 c 1.8121058,0 2.532354,-1.8479225 3.486056,-2.3276329 0.8667371,-0.3258819 0.934953,-0.3550478 1.8506731,-0.3550478 1.272566,0 3.573852,-0.9158025 3.573853,-1.8244917 C 13.318474,2.8494527 12.280004,1.5509173 10.371748,1.7722376 9.1570665,1.9128177 8.0079053,2.7762153 7.7077288,3.2058448 6.9723942,2.560907 6.0334839,1.8611137 4.5828291,1.8611137 z" style="fill:url(#linearGradient3004);fill-opacity:1;fill-rule:evenodd;stroke:none"/><path id="path75" d="M 7.9306074,2.4383494 C 11.103995,-0.7172549 15.464975,2.1912787 15.43629,5.1839706 15.410065,7.9198116 13.313213,9.2300397 8.0453514,14.096282 2.5314875,9.569284 0.58875543,8.5253416 0.61744147,5.2793578 0.64612743,1.9192724 4.3794933,-0.6024874 7.9306074,2.4383494 z" style="fill:#c71807;fill-opacity:1;fill-rule:evenodd;stroke:#a40000;stroke-width:1.00000048;stroke-linecap:butt;stroke-linejoin:miter;stroke-miterlimit:4;stroke-opacity:1;stroke-dasharray:none"/><path id="path77" d="m 7.4880974,13.009689 c 0.021966,-0.03274 0.5020048,0.381463 0.5020048,0.381463 C 13.212407,8.6656584 14.545136,7.7484807 14.665471,5.8659535 13.832457,7.7411066 12.773573,8.3181397 7.4880974,13.009689 z" style="opacity:.42783502;color:#000;fill:url(#linearGradient3006);fill-opacity:1;fill-rule:evenodd;stroke:none;stroke-width:1pt;marker:none;visibility:visible;display:inline;overflow:visible"/><path id="path79" d="M 4.347981,2.0537469 C 1.9266415,2.0566427 0.4985221,5.8988877 2.4862872,7.8187424 4.4468939,9.712367 7.0997249,6.751168 8.1205873,5.6678675 9.1544449,4.5707762 12.930149,4.8932351 13.984671,3.7791402 13.390447,3.0342794 12.715423,2.1099632 11.0392,2.1099632 c -1.6233443,0 -2.4503345,0.9015459 -3.0493097,1.4327959 C 7.3476423,3.1052591 6.769835,2.0508506 4.347981,2.0537469 z" style="fill:url(#linearGradient3002-0);fill-opacity:1;fill-rule:evenodd;stroke:none;color:#000;marker:none;visibility:visible;display:inline;overflow:visible;enable-background:accumulate"/></g></g></svg>