<svg xmlns="http://www.w3.org/2000/svg" xmlns:svg="http://www.w3.org/2000/svg" xmlns:xlink="http://www.w3.org/1999/xlink" id="svg11300" width="400" height="300" version="1.0" style="display:inline;enable-background:new"><title id="title8836">Optical Drive</title><metadata id="metadata154"/><defs id="defs3"><linearGradient id="linearGradient5300"><stop id="stop5302" offset="0" style="stop-color:#fff;stop-opacity:1"/><stop id="stop5304" offset="1" style="stop-color:#fff;stop-opacity:0"/></linearGradient><linearGradient id="linearGradient5224"><stop id="stop5226" offset="0" style="stop-color:#000;stop-opacity:1"/><stop id="stop5228" offset="1" style="stop-color:#000;stop-opacity:0"/></linearGradient><radialGradient id="radialGradient5230" cx="14.5" cy="26.688" r="10" fx="14.5" fy="26.688" gradientTransform="matrix(1,0,0,0.29375,0,18.848047)" gradientUnits="userSpaceOnUse" xlink:href="#linearGradient5224"/><filter id="filter5296" width="1.196" height="1.668" x="-.098" y="-.334"><feGaussianBlur id="feGaussianBlur5298" stdDeviation=".818"/></filter><radialGradient id="radialGradient5306" cx="29.774" cy="7.092" r="25.38" fx="29.774" fy="7.092" gradientTransform="matrix(2.2469896,0,0,2.2469896,-37.128341,-8.8439229)" gradientUnits="userSpaceOnUse" xlink:href="#linearGradient5300"/><radialGradient id="radialGradient5330" cx="14.5" cy="26.688" r="10" fx="14.5" fy="26.688" gradientTransform="matrix(1,0,0,0.29375,0,18.848047)" gradientUnits="userSpaceOnUse" xlink:href="#linearGradient5224"/></defs><g id="layer6" style="display:none"><rect id="rect6284" width="48" height="48" x="296" y="50" style="fill:#eeeeec;fill-opacity:1;fill-rule:nonzero;stroke:none;stroke-width:2;marker:none;visibility:visible;display:inline;overflow:visible;enable-background:accumulate"/><rect id="rect6592" width="32" height="32" x="303" y="126" style="fill:#eeeeec;fill-opacity:1;fill-rule:nonzero;stroke:none;stroke-width:2;marker:none;visibility:visible;display:inline;overflow:visible;enable-background:accumulate"/><rect id="rect6749" width="22" height="22" x="303" y="177" style="fill:#eeeeec;fill-opacity:1;fill-rule:nonzero;stroke:none;stroke-width:2;marker:none;visibility:visible;display:inline;overflow:visible;enable-background:accumulate"/><rect id="rect6833" width="16" height="16" x="303" y="219" style="fill:#eeeeec;fill-opacity:1;fill-rule:nonzero;stroke:none;stroke-width:2;marker:none;visibility:visible;display:inline;overflow:visible;enable-background:accumulate"/><text id="context" x="20.971" y="21.514" xml:space="preserve" style="font-size:18.30070686px;font-style:normal;font-weight:400;fill:#000;fill-opacity:1;stroke:none;display:inline;enable-background:new;font-family:Bitstream Vera Sans"><tspan id="tspan2716" x="20.971" y="21.514">emblems</tspan></text><text id="icon-name" x="191.971" y="21.514" xml:space="preserve" style="font-size:18.30070686px;font-style:normal;font-variant:normal;font-weight:700;font-stretch:normal;text-align:start;line-height:125%;writing-mode:lr-tb;text-anchor:start;fill:#000;fill-opacity:1;stroke:none;display:inline;enable-background:new;font-family:Droid Sans;-inkscape-font-specification:Droid Sans Bold"><tspan id="tspan3023" x="191.971" y="21.514">emblem-generic</tspan></text></g><g id="layer2" style="display:inline"><g id="g48" transform="translate(296,50) scale(1.000000,1.000000)" style="display:inline;enable-background:new"><path id="path4645" d="M 24.5,26.6875 A 10,2.9375 0 1 1 4.5,26.6875 A 10,2.9375 0 1 1 24.5,26.6875 z" transform="matrix(2.1570145,0,0,2.155398,-7.8468552,-16.33814)" style="opacity:.53012048;color:#000;fill:url(#radialGradient5230);fill-opacity:1;fill-rule:nonzero;stroke:none;stroke-width:1;stroke-linecap:butt;stroke-linejoin:miter;marker:none;marker-start:none;marker-mid:none;marker-end:none;stroke-miterlimit:4;stroke-dasharray:none;stroke-dashoffset:0;stroke-opacity:1;visibility:visible;display:inline;overflow:visible;filter:url(#filter5296);enable-background:accumulate"/><path id="path5328" d="M 24.5,26.6875 A 10,2.9375 0 1 1 4.5,26.6875 A 10,2.9375 0 1 1 24.5,26.6875 z" transform="matrix(1.3478975,0,0,1.3468874,3.8853414,6.4889877)" style="opacity:.80120482;color:#000;fill:url(#radialGradient5330);fill-opacity:1;fill-rule:nonzero;stroke:none;stroke-width:1;stroke-linecap:butt;stroke-linejoin:miter;marker:none;marker-start:none;marker-mid:none;marker-end:none;stroke-miterlimit:4;stroke-dasharray:none;stroke-dashoffset:0;stroke-opacity:1;visibility:visible;display:inline;overflow:visible;filter:url(#filter5296);enable-background:accumulate"/><path id="path907" d="M 58.403591,29.207693 A 29.010935,29.010935 0 1 1 0.3817215,29.207693 A 29.010935,29.010935 0 1 1 58.403591,29.207693 z" transform="matrix(0.7238447,0,0,0.7274883,2.1828126,2.3568607)" style="fill:#73d216;fill-opacity:1;fill-rule:evenodd;stroke:#4e9a06;stroke-width:1.37804782;stroke-linecap:butt;stroke-linejoin:miter;stroke-miterlimit:4;stroke-dasharray:none;stroke-opacity:1"/><path id="path2159" d="M 50.384842,29.319231 A 18.624397,18.624397 0 1 1 13.136047,29.319231 A 18.624397,18.624397 0 1 1 50.384842,29.319231 z" transform="matrix(0.7596079,0,0,0.7590386,-0.4103397,1.051346)" style="fill:#fff;fill-opacity:1;fill-rule:evenodd;stroke:none;stroke-width:1pt;stroke-linecap:butt;stroke-linejoin:miter;stroke-opacity:1"/><path id="path1552" d="M 53.950159,30.352861 A 24.175779,24.175779 0 1 1 5.5986004,30.352861 A 24.175779,24.175779 0 1 1 53.950159,30.352861 z" transform="matrix(0.8254302,0,0,0.8252681,-1.1457884,-1.4441229)" style="fill:none;fill-opacity:1;fill-rule:evenodd;stroke:url(#radialGradient5306);stroke-width:1.21160841;stroke-linecap:round;stroke-linejoin:round;stroke-miterlimit:4;stroke-dasharray:none;stroke-dashoffset:0;stroke-opacity:1"/><path id="text2450" d="M 32.06445,20.438116 L 26.569808,23.31648 L 32.06445,26.211481 L 30.799016,28.557435 L 25.271076,25.496051 L 25.271076,31.219506 L 22.407197,31.219506 L 22.407197,25.496051 L 16.895899,28.557435 L 15.630474,26.211481 L 21.158417,23.31648 L 15.630474,20.438116 L 16.895899,18.092164 L 22.407197,21.120271 L 22.407197,15.396818 L 25.271076,15.396818 L 25.271076,21.120271 L 30.799016,18.092164 L 32.06445,20.438116" style="font-size:12px;font-style:normal;font-variant:normal;font-weight:700;font-stretch:normal;line-height:100%;writing-mode:lr-tb;text-anchor:start;fill:#4e9a06;fill-opacity:1;stroke:#4e9a06;stroke-width:.99999988px;stroke-linecap:round;stroke-linejoin:round;stroke-opacity:1;font-family:Bitstream Vera Sans Mono"/></g><g id="g32" transform="translate(303,126) scale(1.000000,1.000000)" style="display:inline;enable-background:new"><path id="path37" d="M 24.5,26.6875 A 10,2.9375 0 1 1 4.5,26.6875 A 10,2.9375 0 1 1 24.5,26.6875 z" transform="matrix(1.3625,0,0,1.3625,-3.88125,-9.1742187)" style="opacity:.72891564;color:#000;fill:url(#radialGradient5230);fill-opacity:1;fill-rule:nonzero;stroke:none;stroke-width:1;stroke-linecap:butt;stroke-linejoin:miter;marker:none;marker-start:none;marker-mid:none;marker-end:none;stroke-miterlimit:4;stroke-dasharray:none;stroke-dashoffset:0;stroke-opacity:1;visibility:visible;display:inline;overflow:visible;filter:url(#filter5296);enable-background:accumulate"/><path id="path39" d="M 58.403591 29.207693 A 29.010935 29.010935 0 1 1 0.38172150,29.207693 A 29.010935 29.010935 0 1 1 58.403591 29.207693 z" transform="matrix(0.459870,0.000000,0.000000,0.459870,1.891210,2.169424)" style="fill:#73d216;fill-opacity:1;fill-rule:evenodd;stroke:#4e9a06;stroke-width:2.17452759999999978;stroke-linecap:butt;stroke-linejoin:miter;stroke-miterlimit:4;stroke-opacity:1;stroke-dasharray:none"/><path id="path41" d="M 50.384842 29.319231 A 18.624397 18.624397 0 1 1 13.136047,29.319231 A 18.624397 18.624397 0 1 1 50.384842 29.319231 z" transform="matrix(0.479814,0.000000,0.000000,0.479814,0.184440,1.344164)" style="fill:#fff;fill-opacity:1;fill-rule:evenodd;stroke:none;stroke-width:1pt;stroke-linecap:butt;stroke-linejoin:miter;stroke-opacity:1"/><path id="path43" d="M 53.950159 30.352861 A 24.175779 24.175779 0 1 1 5.5986004,30.352861 A 24.175779 24.175779 0 1 1 53.950159 30.352861 z" transform="matrix(0.510519,0.000000,0.000000,0.510519,0.315780,0.161334)" style="stroke-dasharray:none;stroke-opacity:1;stroke-dashoffset:0;stroke-miterlimit:4;stroke-linejoin:round;stroke-linecap:round;stroke-width:2.4093129000000002;stroke:url(#radialGradient5306);fill-rule:evenodd;fill-opacity:1;fill:none"/><path id="path45" d="M 20.697469,13.599197 L 17.226723,15.418708 L 20.697469,17.248736 L 19.898145,18.731693 L 16.406366,16.796489 L 16.406366,20.414478 L 14.597368,20.414478 L 14.597368,16.796489 L 11.116101,18.731693 L 10.316782,17.248736 L 13.808563,15.418708 L 10.316782,13.599197 L 11.116101,12.116241 L 14.597368,14.03041 L 14.597368,10.412422 L 16.406366,10.412422 L 16.406366,14.03041 L 19.898145,12.116241 L 20.697469,13.599197" style="font-size:12px;font-style:normal;font-variant:normal;font-weight:700;font-stretch:normal;line-height:100%;writing-mode:lr-tb;text-anchor:start;fill:#4e9a06;fill-opacity:1;stroke:#4e9a06;stroke-width:.99999988px;stroke-linecap:round;stroke-linejoin:round;stroke-opacity:1;font-family:Bitstream Vera Sans Mono"/></g><g id="g22" transform="translate(303,177) scale(1.000000,1.000000)" style="display:inline;enable-background:new"><path id="path48" d="M 24.5,26.6875 A 10,2.9375 0 1 1 4.5,26.6875 A 10,2.9375 0 1 1 24.5,26.6875 z" transform="matrix(1.0374713,0,0,1.0381326,-4.0781908,-8.9529031)" style="opacity:.72891564;color:#000;fill:url(#radialGradient5230);fill-opacity:1;fill-rule:nonzero;stroke:none;stroke-width:1;stroke-linecap:butt;stroke-linejoin:miter;marker:none;marker-start:none;marker-mid:none;marker-end:none;stroke-miterlimit:4;stroke-dasharray:none;stroke-dashoffset:0;stroke-opacity:1;visibility:visible;display:inline;overflow:visible;filter:url(#filter5296);enable-background:accumulate"/><path id="path50" d="M 58.403591,29.207693 A 29.010935,29.010935 0 1 1 0.3817215,29.207693 A 29.010935,29.010935 0 1 1 58.403591,29.207693 z" transform="matrix(0.3447807,0,0,0.3450039,0.3192866,0.4412436)" style="fill:#73d216;fill-opacity:1;fill-rule:evenodd;stroke:#4e9a06;stroke-width:2.8994565;stroke-linecap:butt;stroke-linejoin:miter;stroke-miterlimit:4;stroke-dasharray:none;stroke-opacity:1"/><path id="path52" d="M 50.384842,29.319231 A 18.624397,18.624397 0 1 1 13.136047,29.319231 A 18.624397,18.624397 0 1 1 50.384842,29.319231 z" transform="matrix(0.3653529,0,0,0.3655857,-0.9823839,-0.1886083)" style="fill:#fff;fill-opacity:1;fill-rule:evenodd;stroke:none;stroke-width:1pt;stroke-linecap:butt;stroke-linejoin:miter;stroke-opacity:1"/><path id="path54" d="M 53.950159,30.352861 A 24.175779,24.175779 0 1 1 5.5986004,30.352861 A 24.175779,24.175779 0 1 1 53.950159,30.352861 z" transform="matrix(0.3728388,0,0,0.3722734,-0.5873754,-0.7995633)" style="fill:none;fill-opacity:1;fill-rule:evenodd;stroke:url(#radialGradient5306);stroke-width:2.68416023;stroke-linecap:round;stroke-linejoin:round;stroke-miterlimit:4;stroke-dasharray:none;stroke-dashoffset:0;stroke-opacity:1"/><path id="path56" d="M 15.400089,8.5878382 L 12.163706,10.285568 L 15.40009,11.993111 L 14.654741,13.376814 L 11.398744,11.571134 L 11.398744,14.946969 L 9.7118977,14.946969 L 9.7118977,11.571134 L 6.465703,13.376812 L 5.720358,11.993111 L 8.9763568,10.285568 L 5.720358,8.5878382 L 6.4657031,7.2041371 L 9.7118975,8.9901899 L 9.711898,5.6143554 L 11.398743,5.6143554 L 11.398744,8.9901896 L 14.65474,7.2041371 L 15.400089,8.5878382" style="font-size:12px;font-style:normal;font-variant:normal;font-weight:700;font-stretch:normal;line-height:100%;writing-mode:lr-tb;text-anchor:start;fill:#4e9a06;fill-opacity:1;stroke:#4e9a06;stroke-width:.99999988px;stroke-linecap:round;stroke-linejoin:round;stroke-opacity:1;font-family:Bitstream Vera Sans Mono"/></g><g id="g16" transform="translate(303,219) scale(1.000000,1.000000)" style="display:inline;enable-background:new"><path id="path59" d="M 58.403591,29.207693 A 29.010935,29.010935 0 1 1 0.3817215,29.207693 A 29.010935,29.010935 0 1 1 58.403591,29.207693 z" transform="matrix(0.2593695,0,0,0.2573057,0.3518899,0.4584989)" style="fill:#73d216;fill-opacity:1;fill-rule:evenodd;stroke:#4e9a06;stroke-width:3.8709352;stroke-linecap:butt;stroke-linejoin:miter;stroke-miterlimit:4;stroke-dasharray:none;stroke-opacity:1"/><path id="path61" d="M 50.384842,29.319231 A 18.624397,18.624397 0 1 1 13.136047,29.319231 A 18.624397,18.624397 0 1 1 50.384842,29.319231 z" transform="matrix(0.2686913,0,0,0.2673028,-0.5157329,0.184534)" style="fill:#fff;fill-opacity:1;fill-rule:evenodd;stroke:none;stroke-width:1pt;stroke-linecap:butt;stroke-linejoin:miter;stroke-opacity:1"/><path id="path63" d="M 53.950159,30.352861 A 24.175779,24.175779 0 1 1 5.5986004,30.352861 A 24.175779,24.175779 0 1 1 53.950159,30.352861 z" transform="matrix(0.2688641,0,0,0.2679436,-5.2628903e-3,-1.6516255e-2)" style="fill:none;fill-opacity:1;fill-rule:evenodd;stroke:url(#radialGradient5306);stroke-width:3.72573376;stroke-linecap:round;stroke-linejoin:round;stroke-miterlimit:4;stroke-dasharray:none;stroke-dashoffset:0;stroke-opacity:1"/><path id="path65" d="M 10.890317,7.093372 L 9.0149098,8.0771759 L 10.890318,9.0666664 L 10.458406,9.8684972 L 8.5716323,8.8221383 L 8.5716323,10.778374 L 7.5941445,10.778374 L 7.5941445,8.8221383 L 5.713051,9.8684964 L 5.2811411,9.0666664 L 7.1679159,8.0771759 L 5.2811411,7.093372 L 5.713051,6.291542 L 7.5941444,7.3265275 L 7.5941447,5.3702921 L 8.5716317,5.3702921 L 8.5716323,7.3265274 L 10.458406,6.291542 L 10.890317,7.093372" style="font-size:12px;font-style:normal;font-variant:normal;font-weight:700;font-stretch:normal;line-height:100%;writing-mode:lr-tb;text-anchor:start;fill:#4e9a06;fill-opacity:1;stroke:#4e9a06;stroke-width:.99999994px;stroke-linecap:round;stroke-linejoin:round;stroke-opacity:1;font-family:Bitstream Vera Sans Mono"/></g></g></svg>