<svg xmlns="http://www.w3.org/2000/svg" xmlns:svg="http://www.w3.org/2000/svg" xmlns:xlink="http://www.w3.org/1999/xlink" id="svg11300" width="400" height="300" version="1.0" style="display:inline;enable-background:new"><title id="title8836">Optical Drive</title><metadata id="metadata154"/><defs id="defs3"><linearGradient id="linearGradient6975"><stop id="stop6977" offset="0" style="stop-color:#fff;stop-opacity:1"/><stop id="stop6979" offset="1" style="stop-color:#fff;stop-opacity:0"/></linearGradient><linearGradient id="linearGradient6964"><stop id="stop6967" offset="0" style="stop-color:#fff;stop-opacity:1"/><stop id="stop6969" offset="1" style="stop-color:#fff;stop-opacity:0"/></linearGradient><linearGradient id="linearGradient6970"><stop id="stop6972" offset="0" style="stop-color:#eeeeec;stop-opacity:1"/><stop id="stop6974" offset="1" style="stop-color:#eeeeec;stop-opacity:0"/></linearGradient><linearGradient id="linearGradient6962"><stop id="stop6964" offset="0" style="stop-color:#babdb6;stop-opacity:1"/><stop id="stop6966" offset="1" style="stop-color:#babdb6;stop-opacity:0"/></linearGradient><linearGradient id="linearGradient7129"><stop id="stop7131" offset="0" style="stop-color:#000;stop-opacity:1"/><stop id="stop7133" offset="1" style="stop-color:#000;stop-opacity:0"/></linearGradient><radialGradient id="radialGradient5955" cx="11.314" cy="18.641" r="7.159" fx="11.314" fy="18.641" gradientTransform="matrix(1,0,0,0.4320988,0,10.586385)" gradientUnits="userSpaceOnUse" xlink:href="#linearGradient7129"/><linearGradient id="linearGradient6996" x1="10.563" x2="10.563" y1="11.85" y2="7.055" gradientTransform="matrix(1.8421053,0,0,1.9998392,2.8157881,0.503458)" gradientUnits="userSpaceOnUse" xlink:href="#linearGradient6970"/><linearGradient id="linearGradient6998" x1="8.438" x2="8.438" y1="11" y2="7.092" gradientTransform="matrix(1.8421053,0,0,1.9998392,2.8157881,0.503458)" gradientUnits="userSpaceOnUse" xlink:href="#linearGradient6962"/><linearGradient id="linearGradient7000" x1="19.75" x2="19.75" y1="22.501" y2="13.937" gradientUnits="userSpaceOnUse" xlink:href="#linearGradient6964"/><linearGradient id="linearGradient7002" x1="22.539" x2="23.246" y1="41.656" y2="31.737" gradientUnits="userSpaceOnUse" xlink:href="#linearGradient6975"/><linearGradient id="linearGradient6983"><stop id="stop6985" offset="0" style="stop-color:#fff;stop-opacity:1"/><stop id="stop6987" offset="1" style="stop-color:#fff;stop-opacity:0"/></linearGradient><radialGradient id="radialGradient5970" cx="11.314" cy="18.641" r="7.159" fx="11.314" fy="18.641" gradientTransform="matrix(1,0,0,0.4320988,0,10.586385)" gradientUnits="userSpaceOnUse" xlink:href="#linearGradient7129"/><linearGradient id="linearGradient5994" x1="10.563" x2="10.563" y1="11.85" y2="7.055" gradientTransform="matrix(1.8421053,0,0,1.9998392,2.8157881,0.503458)" gradientUnits="userSpaceOnUse" xlink:href="#linearGradient6970"/><linearGradient id="linearGradient5996" x1="8.438" x2="8.438" y1="11" y2="7.092" gradientTransform="matrix(1.8421053,0,0,1.9998392,2.8157881,0.503458)" gradientUnits="userSpaceOnUse" xlink:href="#linearGradient6962"/><linearGradient id="linearGradient6000" x1="22.539" x2="23.246" y1="41.656" y2="31.737" gradientUnits="userSpaceOnUse" xlink:href="#linearGradient6975"/><linearGradient id="linearGradient6989" x1="19.457" x2="19.457" y1="22.836" y2="15.653" gradientUnits="userSpaceOnUse" xlink:href="#linearGradient6983"/><linearGradient id="linearGradient6978"><stop id="stop6980" offset="0" style="stop-color:#fff;stop-opacity:1"/><stop id="stop6982" offset="1" style="stop-color:#fff;stop-opacity:0"/></linearGradient><linearGradient id="linearGradient7544" x1="9.688" x2="9.688" y1="11.125" y2="8.688" gradientTransform="translate(0,-1)" gradientUnits="userSpaceOnUse" xlink:href="#linearGradient6978"/><linearGradient id="linearGradient7546" x1="10.563" x2="10.563" y1="11.313" y2="8.808" gradientTransform="translate(0,-1)" gradientUnits="userSpaceOnUse" xlink:href="#linearGradient6970"/><linearGradient id="linearGradient7548" x1="8.438" x2="8.438" y1="11" y2="8.187" gradientTransform="translate(0,-1)" gradientUnits="userSpaceOnUse" xlink:href="#linearGradient6962"/><radialGradient id="radialGradient7550" cx="11.314" cy="18.641" r="7.159" fx="11.314" fy="18.641" gradientTransform="matrix(1,0,0,0.4320988,0,10.586385)" gradientUnits="userSpaceOnUse" xlink:href="#linearGradient7129"/><linearGradient id="linearGradient7099"><stop id="stop7101" offset="0" style="stop-color:#eeeeec;stop-opacity:1"/><stop id="stop7103" offset="1" style="stop-color:#eeeeec;stop-opacity:0"/></linearGradient><linearGradient id="linearGradient7091"><stop id="stop7093" offset="0" style="stop-color:#fff;stop-opacity:1"/><stop id="stop7095" offset="1" style="stop-color:#fff;stop-opacity:0"/></linearGradient><linearGradient id="linearGradient7083"><stop id="stop7085" offset="0" style="stop-color:#babdb6;stop-opacity:1"/><stop id="stop7087" offset="1" style="stop-color:#babdb6;stop-opacity:0"/></linearGradient><linearGradient id="linearGradient7089" x1="5.48" x2="5.48" y1="8.029" y2="4.976" gradientUnits="userSpaceOnUse" xlink:href="#linearGradient7083"/><linearGradient id="linearGradient7097" x1="6.497" x2="6.497" y1="8.52" y2="6.023" gradientUnits="userSpaceOnUse" xlink:href="#linearGradient7091"/><linearGradient id="linearGradient7105" x1="7.469" x2="7.469" y1="8.08" y2="5.428" gradientUnits="userSpaceOnUse" xlink:href="#linearGradient7099"/></defs><g id="layer6" style="display:none"><rect id="rect6284" width="48" height="48" x="296" y="50" style="fill:#eeeeec;fill-opacity:1;fill-rule:nonzero;stroke:none;stroke-width:2;marker:none;visibility:visible;display:inline;overflow:visible;enable-background:accumulate"/><rect id="rect6592" width="32" height="32" x="303" y="126" style="fill:#eeeeec;fill-opacity:1;fill-rule:nonzero;stroke:none;stroke-width:2;marker:none;visibility:visible;display:inline;overflow:visible;enable-background:accumulate"/><rect id="rect6749" width="22" height="22" x="303" y="177" style="fill:#eeeeec;fill-opacity:1;fill-rule:nonzero;stroke:none;stroke-width:2;marker:none;visibility:visible;display:inline;overflow:visible;enable-background:accumulate"/><rect id="rect6833" width="16" height="16" x="303" y="219" style="fill:#eeeeec;fill-opacity:1;fill-rule:nonzero;stroke:none;stroke-width:2;marker:none;visibility:visible;display:inline;overflow:visible;enable-background:accumulate"/><text id="context" x="20.971" y="21.514" xml:space="preserve" style="font-size:18.30070686px;font-style:normal;font-weight:400;fill:#000;fill-opacity:1;stroke:none;display:inline;enable-background:new;font-family:Bitstream Vera Sans"><tspan id="tspan2716" x="20.971" y="21.514">emblems</tspan></text><text id="icon-name" x="191.971" y="21.514" xml:space="preserve" style="font-size:18.30070686px;font-style:normal;font-variant:normal;font-weight:700;font-stretch:normal;text-align:start;line-height:125%;writing-mode:lr-tb;text-anchor:start;fill:#000;fill-opacity:1;stroke:none;display:inline;enable-background:new;font-family:Droid Sans;-inkscape-font-specification:Droid Sans Bold"><tspan id="tspan3023" x="191.971" y="21.514">emblem-downloads</tspan></text></g><g id="layer2" style="display:inline"><g id="g48" transform="translate(296,50) scale(1.000000,1.000000)" style="display:inline;enable-background:new"><path id="path5975" d="M 18.473165 18.641243 A 7.1594563 3.0935922 0 1 1 4.1542521,18.641243 A 7.1594563 3.0935922 0 1 1 18.473165 18.641243 z" transform="matrix(2.5432565,0,0,1.5691033,-4.7736618,11.749965)" style="opacity:.15;fill:url(#radialGradient5955);fill-opacity:1;fill-rule:evenodd;stroke:none;stroke-width:1;stroke-linecap:round;stroke-linejoin:miter;stroke-miterlimit:4;stroke-dasharray:none;stroke-opacity:1"/><g id="g7012" transform="translate(0,-2)"><rect id="rect5987" width="38.987" height="19.962" x="4.508" y="6.521" rx="4.484" ry="4.484" style="fill:#d3d7cf;fill-opacity:1;fill-rule:evenodd;stroke:#888a85;stroke-width:1;stroke-linecap:round;stroke-linejoin:miter;stroke-miterlimit:4;stroke-dasharray:none;stroke-opacity:1"/><rect id="rect6983" width="29" height="8" x="9.5" y="12.5" rx="2.038" ry="2.038" style="fill:#fff;fill-opacity:1;fill-rule:evenodd;stroke:#babdb6;stroke-width:1;stroke-linecap:round;stroke-linejoin:miter;stroke-miterlimit:4;stroke-dasharray:none;stroke-opacity:1"/><rect id="rect6959" width="36.996" height="18.004" x="5.504" y="7.5" rx="3.507" ry="3.507" style="opacity:.55;fill:none;fill-opacity:1;fill-rule:evenodd;stroke:#fff;stroke-width:.99999994;stroke-linecap:round;stroke-linejoin:miter;stroke-miterlimit:4;stroke-dasharray:none;stroke-opacity:1"/><rect id="rect5981" width="15" height="5" x="11" y="14" rx=".535" ry=".535" style="fill:#729fcf;fill-opacity:1;fill-rule:evenodd;stroke:none;stroke-width:1;stroke-linecap:round;stroke-linejoin:miter;stroke-miterlimit:4;stroke-dasharray:none;stroke-opacity:1"/></g><g id="g6991"><path id="path5977" d="M 18.506578,13.5 L 18.5,29.5 L 11.499998,29.501126 L 23.999999,43.5 L 36.499999,29.501126 L 29.520162,29.501126 L 29.520162,13.5 L 18.506578,13.5 z" style="color:#000;fill:url(#linearGradient6996);fill-opacity:1;fill-rule:evenodd;stroke:url(#linearGradient6998);stroke-width:.99999982;stroke-linecap:round;stroke-linejoin:miter;marker:none;marker-start:none;marker-mid:none;marker-end:none;stroke-miterlimit:4;stroke-dasharray:none;stroke-dashoffset:0;stroke-opacity:1;visibility:visible;display:inline;overflow:visible;enable-background:accumulate"/><path id="path6962" d="M 19.5,12.5 L 19.5,28.5 C 19.499945,29.052262 19.052262,29.499945 18.5,29.5 L 13.71875,29.5 L 24,41 L 34.28125,29.5 L 29.53125,29.5 C 28.978988,29.499945 28.531305,29.052262 28.53125,28.5 L 28.53125,12.5 L 19.5,12.5 z" transform="translate(0,1)" style="color:#000;fill:none;fill-opacity:1;fill-rule:evenodd;stroke:url(#linearGradient7000);stroke-width:.99999982;stroke-linecap:round;stroke-linejoin:miter;marker:none;marker-start:none;marker-mid:none;marker-end:none;stroke-miterlimit:4;stroke-dashoffset:0;stroke-opacity:1;visibility:visible;display:inline;overflow:visible;enable-background:accumulate"/><path id="path6973" d="M 19.0625,28.5 C 19.06368,28.649543 19.004796,28.793303 18.89905,28.89905 C 18.793303,29.004796 18.649543,29.06368 18.5,29.0625 L 12.75,29.0625 L 24,41.65625 L 35.25,29.0625 L 29.53125,29.0625 C 29.381707,29.06368 29.237947,29.004796 29.1322,28.89905 C 29.026454,28.793303 28.96757,28.649543 28.96875,28.5 L 19.0625,28.5 z" transform="translate(0,1)" style="opacity:.27238805;color:#000;fill:url(#linearGradient7002);fill-opacity:1;fill-rule:evenodd;stroke:none;stroke-width:.99999982;stroke-linecap:round;stroke-linejoin:miter;marker:none;marker-start:none;marker-mid:none;marker-end:none;stroke-miterlimit:4;stroke-dashoffset:0;stroke-opacity:1;visibility:visible;display:inline;overflow:visible;enable-background:accumulate"/></g></g><g id="g32" transform="translate(303,126) scale(1.000000,1.000000)" style="display:inline;enable-background:new"><path id="path77" d="M 18.473165 18.641243 A 7.1594563 3.0935922 0 1 1 4.1542521,18.641243 A 7.1594563 3.0935922 0 1 1 18.473165 18.641243 z" transform="matrix(1.8918479,0,0,1.1703827,-5.4060576,6.8923054)" style="opacity:.15;fill:url(#radialGradient5970);fill-opacity:1;fill-rule:evenodd;stroke:none;stroke-width:1;stroke-linecap:round;stroke-linejoin:miter;stroke-miterlimit:4;stroke-dasharray:none;stroke-opacity:1"/><rect id="rect79" width="29.001" height="14.997" x="1.499" y="1.503" rx="3.501" ry="3.501" style="fill:#d3d7cf;fill-opacity:1;fill-rule:evenodd;stroke:#888a85;stroke-width:1.00000012;stroke-linecap:round;stroke-linejoin:miter;stroke-miterlimit:4;stroke-dasharray:none;stroke-opacity:1"/><rect id="rect81" width="21" height="6.997" x="5.5" y="5.5" rx="1.518" ry="1.518" style="fill:#fff;fill-opacity:1;fill-rule:evenodd;stroke:#babdb6;stroke-width:1.00000012;stroke-linecap:round;stroke-linejoin:miter;stroke-miterlimit:4;stroke-dasharray:none;stroke-opacity:1"/><rect id="rect83" width="26.999" height="13" x="2.5" y="2.5" rx="2.532" ry="2.532" style="opacity:.55;fill:none;fill-opacity:1;fill-rule:evenodd;stroke:#fff;stroke-width:1;stroke-linecap:round;stroke-linejoin:miter;stroke-miterlimit:4;stroke-dasharray:none;stroke-opacity:1"/><rect id="rect85" width="11" height="4" x="7" y="7" rx="0" ry="0" style="fill:#729fcf;fill-opacity:1;fill-rule:evenodd;stroke:none;stroke-width:1;stroke-linecap:round;stroke-linejoin:miter;stroke-miterlimit:4;stroke-dasharray:none;stroke-opacity:1"/><g id="g87" transform="matrix(0.7591768,0,0,0.7817317,-2.2202418,-3.529354)"><path id="path89" d="M 18.099085,13.5 L 18.092507,29.5 L 11.499998,29.501126 L 23.999999,43.5 L 36.499999,29.501126 L 29.985868,29.501126 L 29.985868,13.5 L 18.099085,13.5 z" style="color:#000;fill:url(#linearGradient5994);fill-opacity:1;fill-rule:evenodd;stroke:url(#linearGradient5996);stroke-width:1.29807448;stroke-linecap:round;stroke-linejoin:miter;marker:none;marker-start:none;marker-mid:none;marker-end:none;stroke-miterlimit:4;stroke-dasharray:none;stroke-dashoffset:0;stroke-opacity:1;visibility:visible;display:inline;overflow:visible;enable-background:accumulate"/><path id="path91" d="M 19.0625,28.5 C 19.06368,28.649543 19.004796,28.793303 18.89905,28.89905 C 18.793303,29.004796 18.649543,29.06368 18.5,29.0625 L 12.75,29.0625 L 24,41.65625 L 35.25,29.0625 L 29.53125,29.0625 C 29.381707,29.06368 29.237947,29.004796 29.1322,28.89905 C 29.026454,28.793303 28.96757,28.649543 28.96875,28.5 L 19.0625,28.5 z" transform="translate(0,1)" style="opacity:.27238805;color:#000;fill:url(#linearGradient6000);fill-opacity:1;fill-rule:evenodd;stroke:none;stroke-width:.99999982;stroke-linecap:round;stroke-linejoin:miter;marker:none;marker-start:none;marker-mid:none;marker-end:none;stroke-miterlimit:4;stroke-dashoffset:0;stroke-opacity:1;visibility:visible;display:inline;overflow:visible;enable-background:accumulate"/></g><path id="path6008" d="M 19.4375,14.84375 L 19.4375,29.5 C 19.438757,29.856769 19.297588,30.199288 19.045313,30.451563 C 18.793038,30.703838 18.450519,30.845007 18.09375,30.84375 L 14.5,30.84375 L 24,41.46875 L 33.5,30.84375 L 30,30.84375 C 29.643231,30.845007 29.300712,30.703838 29.048437,30.451563 C 28.796162,30.199288 28.654993,29.856769 28.65625,29.5 L 28.65625,14.84375 L 19.4375,14.84375 z" transform="matrix(0.7591768,0,0,0.7817317,-2.2202418,-3.529354)" style="color:#000;fill:none;fill-opacity:1;fill-rule:evenodd;stroke:url(#linearGradient6989);stroke-width:1.29807448;stroke-linecap:round;stroke-linejoin:miter;marker:none;marker-start:none;marker-mid:none;marker-end:none;stroke-miterlimit:4;stroke-dasharray:none;stroke-dashoffset:0;stroke-opacity:1;visibility:visible;display:inline;overflow:visible;enable-background:accumulate"/></g><g id="g22" transform="translate(303,177) scale(1.000000,1.000000)" style="display:inline;enable-background:new"><path id="path95" d="M 18.473165 18.641243 A 7.1594563 3.0935922 0 1 1 4.1542521,18.641243 A 7.1594563 3.0935922 0 1 1 18.473165 18.641243 z" transform="matrix(1.3269164,0,0,0.9697464,-3.512345,0.922721)" style="opacity:.2;fill:url(#radialGradient7550);fill-opacity:1;fill-rule:evenodd;stroke:none;stroke-width:1;stroke-linecap:round;stroke-linejoin:miter;stroke-miterlimit:4;stroke-dasharray:none;stroke-opacity:1"/><g id="g6987"><rect id="rect98" width="20" height="10" x="1.5" y=".5" rx="1.945" ry="1.945" style="opacity:1;fill:#d3d7cf;fill-opacity:1;fill-rule:evenodd;stroke:#888a85;stroke-width:1;stroke-linecap:round;stroke-linejoin:miter;stroke-miterlimit:4;stroke-dasharray:none;stroke-opacity:1"/><rect id="rect100" width="18" height="8" x="2.5" y="1.5" rx=".884" ry=".884" style="opacity:.55;fill:none;fill-opacity:1;fill-rule:evenodd;stroke:#fff;stroke-width:1;stroke-linecap:round;stroke-linejoin:miter;stroke-miterlimit:4;stroke-dasharray:none;stroke-opacity:1"/><rect id="rect5979" width="14" height="4" x="4.5" y="3.5" rx="0" ry="0" style="fill:#fff;fill-opacity:1;fill-rule:evenodd;stroke:none;stroke-width:1;stroke-linecap:round;stroke-linejoin:miter;stroke-miterlimit:4;stroke-dasharray:none;stroke-opacity:1"/><rect id="rect103" width="8" height="3" x="5" y="4" rx="0" ry="0" style="fill:#729fcf;fill-opacity:1;fill-rule:evenodd;stroke:none;stroke-width:1;stroke-linecap:round;stroke-linejoin:miter;stroke-miterlimit:4;stroke-dasharray:none;stroke-opacity:1"/></g><path id="path105" d="M 8.517857,6.498874 L 8.517857,13.5 L 4.714285,13.5 L 11.5,20.5 L 18.285714,13.5 L 14.544642,13.5 L 14.544642,6.498874 L 8.517857,6.498874 z" style="color:#000;fill:url(#linearGradient7546);fill-opacity:1;fill-rule:evenodd;stroke:url(#linearGradient7548);stroke-width:.99999982;stroke-linecap:round;stroke-linejoin:miter;marker:none;marker-start:none;marker-mid:none;marker-end:none;stroke-miterlimit:4;stroke-dasharray:none;stroke-dashoffset:0;stroke-opacity:1;visibility:visible;display:inline;overflow:visible;enable-background:accumulate"/><path id="path5983" d="M 9.53125,7.490578 L 9.53125,13.5 C 9.531195,14.052262 9.083512,14.499945 8.53125,14.5 L 7.0625,14.5 L 11.5,19.0625 L 15.9375,14.5 L 14.53125,14.5 C 13.978988,14.499945 13.531305,14.052262 13.53125,13.5 L 13.53125,7.490578 L 9.53125,7.490578 z" style="opacity:1;color:#000;fill:none;fill-opacity:1;fill-rule:evenodd;stroke:url(#linearGradient7544);stroke-width:.99999982;stroke-linecap:round;stroke-linejoin:miter;marker:none;marker-start:none;marker-mid:none;marker-end:none;stroke-miterlimit:4;stroke-dashoffset:0;stroke-opacity:1;visibility:visible;display:inline;overflow:visible;enable-background:accumulate"/></g><g id="g16" transform="translate(303,219) scale(1.000000,1.000000)" style="display:inline;enable-background:new"><rect id="rect7070" width="14" height="7" x=".5" y=".5" rx="1.538" ry="1.538" style="fill:#d3d7cf;fill-opacity:1;fill-rule:evenodd;stroke:#888a85;stroke-width:1;stroke-linecap:round;stroke-linejoin:miter;stroke-miterlimit:4;stroke-dasharray:none;stroke-opacity:1"/><rect id="rect6997" width="9" height="2" x="3" y="3" rx="0" ry="0" style="fill:#fff;fill-opacity:1;fill-rule:evenodd;stroke:none;stroke-width:1;stroke-linecap:round;stroke-linejoin:miter;stroke-miterlimit:4;stroke-dasharray:none;stroke-opacity:1"/><rect id="rect7072" width="12" height="5" x="1.5" y="1.5" rx=".619" ry=".619" style="opacity:.55;fill:none;fill-opacity:1;fill-rule:evenodd;stroke:#fff;stroke-width:1;stroke-linecap:round;stroke-linejoin:miter;stroke-miterlimit:4;stroke-dasharray:none;stroke-opacity:1"/><rect id="rect6999" width="5" height="2" x="3" y="3" rx="0" ry="0" style="fill:#729fcf;fill-opacity:1;fill-rule:evenodd;stroke:none;stroke-width:1;stroke-linecap:round;stroke-linejoin:miter;stroke-miterlimit:4;stroke-dasharray:none;stroke-opacity:1"/><path id="path6995" d="M 5.5,4.5112622 L 5.5,10.5 L 2.75,10.5 L 7.5,15.5 L 12.25,10.5 L 9.5,10.5 L 9.5,4.5112622 L 5.5,4.5112622 z" style="color:#000;fill:url(#linearGradient7105);fill-opacity:1;fill-rule:evenodd;stroke:url(#linearGradient7089);stroke-width:.99999988;stroke-linecap:round;stroke-linejoin:miter;marker:none;marker-start:none;marker-mid:none;marker-end:none;stroke-miterlimit:4;stroke-dasharray:none;stroke-dashoffset:0;stroke-opacity:1;visibility:visible;display:inline;overflow:visible;enable-background:accumulate"/><path id="path7001" d="M 6.5,5.483534 L 6.5,10.5 C 6.4999448,11.052262 6.0522619,11.499945 5.5,11.5 L 5.0625,11.5 L 7.5,14.0625 L 9.9375,11.5 L 9.5,11.5 C 8.9477381,11.499945 8.5000552,11.052262 8.5,10.5 L 8.5,5.483534 L 6.5,5.483534 z" style="opacity:1;color:#000;fill:none;fill-opacity:1;fill-rule:evenodd;stroke:url(#linearGradient7097);stroke-width:.99999988;stroke-linecap:round;stroke-linejoin:miter;stroke-miterlimit:4;stroke-dashoffset:0;stroke-opacity:1;marker:none;marker-start:none;marker-mid:none;marker-end:none;visibility:visible;display:inline;overflow:visible;enable-background:accumulate"/><g id="g7003" style="fill:#babdb6"><rect id="rect7006" width="1" height="1" x="7" y="15" style="opacity:1;fill:#babdb6;fill-opacity:1;fill-rule:evenodd;stroke:none;stroke-width:1;stroke-linecap:round;stroke-linejoin:miter;stroke-miterlimit:4;stroke-dasharray:none;stroke-opacity:1"/><rect id="rect7008" width="1" height="1" x="6" y="14" style="opacity:1;fill:#babdb6;fill-opacity:1;fill-rule:evenodd;stroke:none;stroke-width:1;stroke-linecap:round;stroke-linejoin:miter;stroke-miterlimit:4;stroke-dasharray:none;stroke-opacity:1"/><rect id="rect7010" width="1" height="1" x="5" y="13" style="opacity:1;fill:#babdb6;fill-opacity:1;fill-rule:evenodd;stroke:none;stroke-width:1;stroke-linecap:round;stroke-linejoin:miter;stroke-miterlimit:4;stroke-dasharray:none;stroke-opacity:1"/><rect id="rect7012" width="1" height="1" x="4" y="12" style="opacity:1;fill:#babdb6;fill-opacity:1;fill-rule:evenodd;stroke:none;stroke-width:1;stroke-linecap:round;stroke-linejoin:miter;stroke-miterlimit:4;stroke-dasharray:none;stroke-opacity:1"/><rect id="rect7014" width="1" height="1" x="3" y="11" style="opacity:1;fill:#babdb6;fill-opacity:1;fill-rule:evenodd;stroke:none;stroke-width:1;stroke-linecap:round;stroke-linejoin:miter;stroke-miterlimit:4;stroke-dasharray:none;stroke-opacity:1"/><rect id="rect7016" width="1" height="1" x="2" y="10" style="opacity:1;fill:#babdb6;fill-opacity:1;fill-rule:evenodd;stroke:none;stroke-width:1;stroke-linecap:round;stroke-linejoin:miter;stroke-miterlimit:4;stroke-dasharray:none;stroke-opacity:1"/><rect id="rect7018" width="1" height="1" x="12" y="10" style="opacity:1;fill:#babdb6;fill-opacity:1;fill-rule:evenodd;stroke:none;stroke-width:1;stroke-linecap:round;stroke-linejoin:miter;stroke-miterlimit:4;stroke-dasharray:none;stroke-opacity:1"/><rect id="rect7020" width="1" height="1" x="11" y="11" style="opacity:1;fill:#babdb6;fill-opacity:1;fill-rule:evenodd;stroke:none;stroke-width:1;stroke-linecap:round;stroke-linejoin:miter;stroke-miterlimit:4;stroke-dasharray:none;stroke-opacity:1"/><rect id="rect7022" width="1" height="1" x="10" y="12" style="opacity:1;fill:#babdb6;fill-opacity:1;fill-rule:evenodd;stroke:none;stroke-width:1;stroke-linecap:round;stroke-linejoin:miter;stroke-miterlimit:4;stroke-dasharray:none;stroke-opacity:1"/><rect id="rect7024" width="1" height="1" x="9" y="13" style="opacity:1;fill:#babdb6;fill-opacity:1;fill-rule:evenodd;stroke:none;stroke-width:1;stroke-linecap:round;stroke-linejoin:miter;stroke-miterlimit:4;stroke-dasharray:none;stroke-opacity:1"/><rect id="rect7026" width="1" height="1" x="8" y="14" style="opacity:1;fill:#babdb6;fill-opacity:1;fill-rule:evenodd;stroke:none;stroke-width:1;stroke-linecap:round;stroke-linejoin:miter;stroke-miterlimit:4;stroke-dasharray:none;stroke-opacity:1"/></g><g id="g7028" transform="translate(0,-1)" style="opacity:1;fill:#fff"><rect id="rect7030" width="1" height="1" x="7" y="15" style="opacity:1;fill:#fff;fill-opacity:1;fill-rule:evenodd;stroke:none;stroke-width:1;stroke-linecap:round;stroke-linejoin:miter;stroke-miterlimit:4;stroke-dasharray:none;stroke-opacity:1"/><rect id="rect7032" width="1" height="1" x="6" y="14" style="opacity:1;fill:#fff;fill-opacity:1;fill-rule:evenodd;stroke:none;stroke-width:1;stroke-linecap:round;stroke-linejoin:miter;stroke-miterlimit:4;stroke-dasharray:none;stroke-opacity:1"/><rect id="rect7034" width="1" height="1" x="5" y="13" style="opacity:1;fill:#fff;fill-opacity:1;fill-rule:evenodd;stroke:none;stroke-width:1;stroke-linecap:round;stroke-linejoin:miter;stroke-miterlimit:4;stroke-dasharray:none;stroke-opacity:1"/><rect id="rect7036" width="1" height="1" x="4" y="12" style="opacity:1;fill:#fff;fill-opacity:1;fill-rule:evenodd;stroke:none;stroke-width:1;stroke-linecap:round;stroke-linejoin:miter;stroke-miterlimit:4;stroke-dasharray:none;stroke-opacity:1"/><rect id="rect7038" width="1" height="1" x="10" y="12" style="opacity:1;fill:#fff;fill-opacity:1;fill-rule:evenodd;stroke:none;stroke-width:1;stroke-linecap:round;stroke-linejoin:miter;stroke-miterlimit:4;stroke-dasharray:none;stroke-opacity:1"/><rect id="rect7040" width="1" height="1" x="9" y="13" style="opacity:1;fill:#fff;fill-opacity:1;fill-rule:evenodd;stroke:none;stroke-width:1;stroke-linecap:round;stroke-linejoin:miter;stroke-miterlimit:4;stroke-dasharray:none;stroke-opacity:1"/><rect id="rect7042" width="1" height="1" x="8" y="14" style="opacity:1;fill:#fff;fill-opacity:1;fill-rule:evenodd;stroke:none;stroke-width:1;stroke-linecap:round;stroke-linejoin:miter;stroke-miterlimit:4;stroke-dasharray:none;stroke-opacity:1"/></g></g></g></svg>