<svg xmlns="http://www.w3.org/2000/svg" xmlns:svg="http://www.w3.org/2000/svg" xmlns:xlink="http://www.w3.org/1999/xlink" id="svg11300" width="400" height="300" version="1.0" style="display:inline;enable-background:new"><title id="title8836">Optical Drive</title><metadata id="metadata154"/><defs id="defs3"><linearGradient id="linearGradient1886"><stop id="stop1888" offset="0" style="stop-color:#fce94f;stop-opacity:1"/><stop id="stop1890" offset="1" style="stop-color:white;stop-opacity:1"/></linearGradient><linearGradient id="linearGradient2786"><stop id="stop2788" offset="0" style="stop-color:#fce94f;stop-opacity:1"/><stop style="stop-color:#fce94f;stop-opacity:.49803922" id="stop2860" offset=".5"/><stop id="stop2790" offset="1" style="stop-color:#fce94f;stop-opacity:0"/></linearGradient><linearGradient id="linearGradient2760"><stop id="stop2762" offset="0" style="stop-color:white;stop-opacity:1"/><stop id="stop1884" offset=".366" style="stop-color:white;stop-opacity:1"/><stop id="stop2764" offset="1" style="stop-color:#fce94f;stop-opacity:1"/></linearGradient><radialGradient id="radialGradient2766" cx="4.832" cy="1.092" r="15.177" fx="4.832" fy="1.092" gradientTransform="matrix(1.6904284,0,0,1.6154841,-0.69085807,2.7254078)" gradientUnits="userSpaceOnUse" xlink:href="#linearGradient2760"/><radialGradient id="radialGradient2792" cx="25" cy="22" r="17" fx="25" fy="22" gradientTransform="matrix(1.30147,0,0,1.224913,-7.536765,-3.448096)" gradientUnits="userSpaceOnUse" xlink:href="#linearGradient2786"/><linearGradient id="linearGradient1892" x1="20.374" x2="-4.173" y1="16.575" y2="-23.197" gradientUnits="userSpaceOnUse" xlink:href="#linearGradient1886"/><linearGradient id="linearGradient2378"><stop id="stop2380" offset="0" style="stop-color:#fff;stop-opacity:1"/><stop id="stop4146" offset=".25" style="stop-color:#fefede;stop-opacity:.91836733"/><stop id="stop2386" offset=".5" style="stop-color:#f5f328;stop-opacity:1"/><stop id="stop2382" offset="1" style="stop-color:#f5f32d;stop-opacity:.12234043"/></linearGradient><radialGradient id="radialGradient1996" cx="38.659" cy="9.341" r="8.342" fx="38.659" fy="9.341" gradientUnits="userSpaceOnUse" xlink:href="#linearGradient2378"/><radialGradient id="radialGradient2858" cx="17.854" cy="15.636" r="17" fx="17.854" fy="15.636" gradientTransform="matrix(0.93630909,0,0,0.86549418,-0.79637233,1.9509996)" gradientUnits="userSpaceOnUse" xlink:href="#linearGradient2786"/><radialGradient id="radialGradient2860" cx="4.832" cy="1.092" r="15.177" fx="4.832" fy="1.092" gradientTransform="matrix(1.691479,0,0,1.6164882,-0.69593487,2.7243112)" gradientUnits="userSpaceOnUse" xlink:href="#linearGradient2760"/><radialGradient id="radialGradient7347" cx="38.659" cy="9.341" r="8.342" fx="38.659" fy="9.341" gradientUnits="userSpaceOnUse" xlink:href="#linearGradient2378"/><linearGradient id="linearGradient7349" x1="20.374" x2="-4.173" y1="16.575" y2="-23.197" gradientUnits="userSpaceOnUse" xlink:href="#linearGradient1886"/></defs><g id="layer6" style="display:none"><rect id="rect6284" width="48" height="48" x="296" y="50" style="display:inline;overflow:visible;visibility:visible;fill:#eeeeec;fill-opacity:1;fill-rule:nonzero;stroke:none;stroke-width:2;marker:none;enable-background:accumulate"/><rect id="rect6592" width="32" height="32" x="303" y="126" style="display:inline;overflow:visible;visibility:visible;fill:#eeeeec;fill-opacity:1;fill-rule:nonzero;stroke:none;stroke-width:2;marker:none;enable-background:accumulate"/><rect id="rect6749-0" width="24" height="24" x="302" y="176" style="display:inline;overflow:visible;visibility:visible;fill:#fff;fill-opacity:1;fill-rule:nonzero;stroke:none;stroke-width:2;marker:none;enable-background:accumulate"/><rect id="rect6749" width="22" height="22" x="303" y="177" style="display:inline;overflow:visible;visibility:visible;fill:#eeeeec;fill-opacity:1;fill-rule:nonzero;stroke:none;stroke-width:2;marker:none;enable-background:accumulate"/><rect id="rect6833" width="16" height="16" x="303" y="219" style="display:inline;overflow:visible;visibility:visible;fill:#eeeeec;fill-opacity:1;fill-rule:nonzero;stroke:none;stroke-width:2;marker:none;enable-background:accumulate"/><text id="context" x="20.971" y="21.514" xml:space="preserve" style="font-style:normal;font-weight:400;font-size:18.30070686px;font-family:'Bitstream Vera Sans';display:inline;fill:#000;fill-opacity:1;stroke:none;enable-background:new"><tspan id="tspan2716" x="20.971" y="21.514">emblems</tspan></text><text id="icon-name" x="191.971" y="21.514" xml:space="preserve" style="font-style:normal;font-variant:normal;font-weight:700;font-stretch:normal;font-size:18.30070686px;line-height:125%;font-family:'Droid Sans';-inkscape-font-specification:'Droid Sans Bold';text-align:start;writing-mode:lr-tb;text-anchor:start;display:inline;fill:#000;fill-opacity:1;stroke:none;enable-background:new"><tspan id="tspan3023" x="191.971" y="21.514">emblem-new</tspan></text><rect style="display:inline;overflow:visible;visibility:visible;fill:#eeeeec;fill-opacity:1;fill-rule:nonzero;stroke:none;stroke-width:2;marker:none;enable-background:accumulate" id="rect7351" width="8" height="8" x="303" y="247"/></g><g id="layer2" style="display:inline"><g id="g48" transform="translate(536,50)" style="display:inline;enable-background:new"><rect id="rect2776" width="44.25" height="41.647" x="2.875" y="2.676" style="fill:url(#radialGradient2792);fill-opacity:1;stroke:none"/><path id="path1869" d="m 11,-7.2520323 c 1.781445,0 3.790132,7.12958977 5.23135,8.17669647 1.441219,1.04710673 8.84258,0.75431763 9.393077,2.44857193 0.550496,1.6942542 -5.609428,5.8077933 -6.159925,7.5020479 -0.550496,1.694254 2.015109,8.64289 0.57389,9.689997 C 18.597174,21.612387 12.781444,17.025105 11,17.025105 9.2185557,17.025104 3.4028256,21.612387 1.9616069,20.56528 0.52038819,19.518174 3.0859941,12.569538 2.5354976,10.875284 1.9850011,9.1810293 -4.1749232,5.0674896 -3.6244266,3.3732353 -3.0739301,1.6789811 4.3274311,1.9717708 5.7686498,0.92466421 7.2098686,-0.12244246 9.2185561,-7.2520323 11,-7.2520323 Z" transform="matrix(1.120396,0,0,1.105138,12.67565,14.55764)" style="fill:url(#radialGradient2860);fill-opacity:1;stroke:url(#linearGradient1892);stroke-width:1.03510201;stroke-linecap:butt;stroke-linejoin:miter;stroke-miterlimit:4;stroke-dasharray:none;stroke-dashoffset:0;stroke-opacity:1"/><path id="path2758" d="m 11,-6.2539062 c 0.110128,0 0.09653,-0.03915 -0.02539,0.066406 -0.121926,0.1055567 -0.311279,0.3262923 -0.511718,0.625 C 10.062013,-4.9650846 9.6086963,-4.0696228 9.1640625,-3.125 8.7194287,-2.1803772 8.2789163,-1.1848305 7.8417969,-0.33007812 7.4046775,0.52467428 7.0746622,1.2301303 6.3671875,1.7441406 5.6596712,2.2581813 4.888019,2.3538654 3.9394531,2.5058594 2.9908872,2.6578533 1.9057859,2.7708501 0.86914062,2.9023438 -0.16750465,3.0338374 -1.1607134,3.1877172 -1.8535156,3.3847656 c -0.3464011,0.098524 -0.6155634,0.2114139 -0.7539063,0.2949219 -0.1383428,0.083508 -0.1044182,0.1088728 -0.070312,0.00391 0.033816,-0.1040766 -0.00786,-0.1039835 0.054687,0.044922 0.062549,0.1489053 0.2141313,0.3984425 0.4355469,0.6816406 0.4428312,0.5663963 1.1533629,1.2746869 1.91210938,1.9902344 0.75874652,0.7155476 1.56617592,1.4426201 2.24218752,2.1230469 0.6760115,0.6804268 1.242035,1.2129678 1.5117187,2.0429685 0.2694319,0.829226 0.1245164,1.593159 -0.021484,2.541016 -0.1460007,0.947857 -0.3704389,2.012096 -0.5625,3.037109 -0.192061,1.025014 -0.3484909,2.015663 -0.3730468,2.734375 -0.012278,0.359356 0.013669,0.651129 0.050781,0.808594 0.037112,0.157465 0.070782,0.132556 -0.017578,0.06836 -0.088258,-0.06412 -0.1003063,-0.02373 0.060547,-0.03711 0.1608532,-0.01338 0.44371,-0.08033 0.78125,-0.203125 C 4.0715643,19.270027 4.9644403,18.814186 5.8789062,18.314453 6.7933722,17.81472 7.7361556,17.273872 8.5917969,16.841797 9.4474382,16.409722 10.127851,16.035156 11,16.035156 c 0.872149,0 1.552562,0.374566 2.408203,0.806641 0.855641,0.432075 1.798425,0.972923 2.712891,1.472656 0.914466,0.499733 1.807342,0.955574 2.482422,1.201172 0.33754,0.122799 0.620396,0.189743 0.78125,0.203125 0.160853,0.01338 0.148804,-0.02701 0.06055,0.03711 -0.08836,0.0642 -0.05469,0.08911 -0.01758,-0.06836 0.03711,-0.157465 0.06306,-0.449238 0.05078,-0.808594 -0.02456,-0.718712 -0.180986,-1.709361 -0.373047,-2.734375 -0.192061,-1.025013 -0.416499,-2.089252 -0.5625,-3.037109 -0.146001,-0.947858 -0.290917,-1.71179 -0.02148,-2.541016 0.269684,-0.8300005 0.835708,-1.3625416 1.511719,-2.0429685 0.676012,-0.6804269 1.483441,-1.4074993 2.242188,-2.1230469 0.758746,-0.7155475 1.469278,-1.4238381 1.912109,-1.9902344 0.221416,-0.2831981 0.372997,-0.5327353 0.435547,-0.6816406 0.06255,-0.1489053 0.02087,-0.1489984 0.05469,-0.044922 0.03411,0.1049664 0.06803,0.079602 -0.07031,-0.00391 C 24.469079,3.5961795 24.199917,3.4832898 23.853516,3.3847656 23.160713,3.1877172 22.167505,3.0338374 21.130859,2.9023438 20.094214,2.7708501 19.009113,2.6578533 18.060547,2.5058594 17.111981,2.3538654 16.340329,2.2581812 15.632812,1.7441406 14.925338,1.2301303 14.595322,0.52467428 14.158203,-0.33007812 13.721084,-1.1848305 13.280571,-2.1803772 12.835938,-3.125 12.391304,-4.0696228 11.937987,-4.9650847 11.537109,-5.5625 11.33667,-5.8612077 11.147317,-6.0819433 11.025391,-6.1875 10.903465,-6.2930567 10.889872,-6.2539062 11,-6.2539062 Z" transform="matrix(1.120396,0,0,1.105138,12.67565,14.55764)" style="fill:none;stroke:#fff;stroke-width:1.03528154;stroke-linecap:butt;stroke-linejoin:round;stroke-miterlimit:4;stroke-dasharray:none;stroke-dashoffset:0;stroke-opacity:1"/></g><g id="g32" transform="translate(543,126)" style="display:inline;enable-background:new"><rect id="rect42" width="31.801" height="29.911" x=".037" y=".545" style="fill:url(#radialGradient2858);fill-opacity:1;stroke:none"/><path id="path44" d="m 11,-7.2520323 c 1.781445,0 3.790132,7.12958977 5.23135,8.17669647 1.441219,1.04710673 8.84258,0.75431763 9.393077,2.44857193 0.550496,1.6942542 -5.609428,5.8077933 -6.159925,7.5020479 -0.550496,1.694254 2.015109,8.64289 0.57389,9.689997 C 18.597174,21.612387 12.781444,17.025105 11,17.025105 9.2185557,17.025104 3.4028256,21.612387 1.9616069,20.56528 0.52038819,19.518174 3.0859941,12.569538 2.5354976,10.875284 1.9850011,9.1810293 -4.1749232,5.0674896 -3.6244266,3.3732353 -3.0739301,1.6789811 4.3274311,1.9717708 5.7686498,0.92466421 7.2098686,-0.12244246 9.2185561,-7.2520323 11,-7.2520323 Z" transform="matrix(0.805189,0,0,0.793704,7.08042,9.07765)" style="fill:url(#radialGradient2766);fill-opacity:1;stroke:url(#linearGradient7349);stroke-width:1.44078398;stroke-linecap:butt;stroke-linejoin:miter;stroke-miterlimit:4;stroke-dasharray:none;stroke-dashoffset:0;stroke-opacity:1"/><path id="path46" d="m 11,-6.2539062 c 0.110128,0 0.09653,-0.03915 -0.02539,0.066406 -0.121926,0.1055567 -0.311279,0.3262923 -0.511718,0.625 C 10.062013,-4.9650846 9.6086963,-4.0696228 9.1640625,-3.125 8.7194287,-2.1803772 8.2789163,-1.1848305 7.8417969,-0.33007812 7.4046775,0.52467428 7.0746622,1.2301303 6.3671875,1.7441406 5.6596712,2.2581813 4.888019,2.3538654 3.9394531,2.5058594 2.9908872,2.6578533 1.9057859,2.7708501 0.86914062,2.9023438 -0.16750465,3.0338374 -1.1607134,3.1877172 -1.8535156,3.3847656 c -0.3464011,0.098524 -0.6155634,0.2114139 -0.7539063,0.2949219 -0.1383428,0.083508 -0.1044182,0.1088728 -0.070312,0.00391 0.033816,-0.1040766 -0.00786,-0.1039835 0.054687,0.044922 0.062549,0.1489053 0.2141313,0.3984425 0.4355469,0.6816406 0.4428312,0.5663963 1.1533629,1.2746869 1.91210938,1.9902344 0.75874652,0.7155476 1.56617592,1.4426201 2.24218752,2.1230469 0.6760115,0.6804268 1.242035,1.2129678 1.5117187,2.0429685 0.2694319,0.829226 0.1245164,1.593159 -0.021484,2.541016 -0.1460007,0.947857 -0.3704389,2.012096 -0.5625,3.037109 -0.192061,1.025014 -0.3484909,2.015663 -0.3730468,2.734375 -0.012278,0.359356 0.013669,0.651129 0.050781,0.808594 0.037112,0.157465 0.070782,0.132556 -0.017578,0.06836 -0.088258,-0.06412 -0.1003063,-0.02373 0.060547,-0.03711 0.1608532,-0.01338 0.44371,-0.08033 0.78125,-0.203125 C 4.0715643,19.270027 4.9644403,18.814186 5.8789062,18.314453 6.7933722,17.81472 7.7361556,17.273872 8.5917969,16.841797 9.4474382,16.409722 10.127851,16.035156 11,16.035156 c 0.872149,0 1.552562,0.374566 2.408203,0.806641 0.855641,0.432075 1.798425,0.972923 2.712891,1.472656 0.914466,0.499733 1.807342,0.955574 2.482422,1.201172 0.33754,0.122799 0.620396,0.189743 0.78125,0.203125 0.160853,0.01338 0.148804,-0.02701 0.06055,0.03711 -0.08836,0.0642 -0.05469,0.08911 -0.01758,-0.06836 0.03711,-0.157465 0.06306,-0.449238 0.05078,-0.808594 -0.02456,-0.718712 -0.180986,-1.709361 -0.373047,-2.734375 -0.192061,-1.025013 -0.416499,-2.089252 -0.5625,-3.037109 -0.146001,-0.947858 -0.290917,-1.71179 -0.02148,-2.541016 0.269684,-0.8300005 0.835708,-1.3625416 1.511719,-2.0429685 0.676012,-0.6804269 1.483441,-1.4074993 2.242188,-2.1230469 0.758746,-0.7155475 1.469278,-1.4238381 1.912109,-1.9902344 0.221416,-0.2831981 0.372997,-0.5327353 0.435547,-0.6816406 0.06255,-0.1489053 0.02087,-0.1489984 0.05469,-0.044922 0.03411,0.1049664 0.06803,0.079602 -0.07031,-0.00391 C 24.469079,3.5961795 24.199917,3.4832898 23.853516,3.3847656 23.160713,3.1877172 22.167505,3.0338374 21.130859,2.9023438 20.094214,2.7708501 19.009113,2.6578533 18.060547,2.5058594 17.111981,2.3538654 16.340329,2.2581812 15.632812,1.7441406 14.925338,1.2301303 14.595322,0.52467428 14.158203,-0.33007812 13.721084,-1.1848305 13.280571,-2.1803772 12.835938,-3.125 12.391304,-4.0696228 11.937987,-4.9650847 11.537109,-5.5625 11.33667,-5.8612077 11.147317,-6.0819433 11.025391,-6.1875 10.903465,-6.2930567 10.889872,-6.2539062 11,-6.2539062 Z" transform="matrix(0.805189,0,0,0.793704,7.08042,9.07765)" style="fill:none;stroke:#fff;stroke-width:1.44103396;stroke-linecap:butt;stroke-linejoin:round;stroke-miterlimit:4;stroke-dasharray:none;stroke-dashoffset:0;stroke-opacity:1"/></g><g id="g22" transform="translate(543,177)" style="display:inline;enable-background:new"><circle id="path2388" cx="38.659" cy="9.341" r="8.342" transform="matrix(1.14985,0,0,1.14985,-33.59608,0.67968)" style="fill:url(#radialGradient1996);fill-opacity:1;fill-rule:evenodd;stroke:none"/><path id="path1345" d="m 44.520054,15.50279 c -0.507171,0.878446 -4.594703,-0.160823 -5.521351,0.251748 -0.926648,0.41257 -2.889414,4.145604 -3.88159,3.934711 -0.992177,-0.210894 -1.266891,-4.419519 -1.945618,-5.173323 -0.678728,-0.753803 -4.835582,-1.466933 -4.94161,-2.475719 -0.106028,-1.008786 3.811722,-2.5705906 4.318893,-3.4490369 0.507171,-0.8784463 -0.09914,-5.0522193 0.827507,-5.4647895 0.926648,-0.4125703 3.622664,2.8308064 4.614841,3.0417001 0.992176,0.2108936 4.77431,-1.6555099 5.453037,-0.9017066 0.678728,0.7538034 -1.572792,4.3201254 -1.466764,5.3289109 0.106027,1.008786 3.049826,4.029058 2.542655,4.907505 z" transform="matrix(0.674116,0.299577,-0.299577,0.674116,-10.53662,-7.00368)" style="color:#000;display:inline;overflow:visible;visibility:visible;fill:#fff;fill-opacity:1;fill-rule:evenodd;stroke:none;stroke-width:.5;marker:none"/></g><g id="g16" transform="translate(543,219)" style="display:inline;enable-background:new"><circle id="path52" cx="38.659" cy="9.341" r="8.342" transform="matrix(0.970029,0,0,0.970029,-29.59185,-0.969538)" style="fill:url(#radialGradient7347);fill-opacity:1;fill-rule:evenodd;stroke:none"/><path id="path54" d="m 44.520054,15.50279 c -0.507171,0.878446 -4.594703,-0.160823 -5.521351,0.251748 -0.926648,0.41257 -2.889414,4.145604 -3.88159,3.934711 -0.992177,-0.210894 -1.266891,-4.419519 -1.945618,-5.173323 -0.678728,-0.753803 -4.835582,-1.466933 -4.94161,-2.475719 -0.106028,-1.008786 3.811722,-2.5705906 4.318893,-3.4490369 0.507171,-0.8784463 -0.09914,-5.0522193 0.827507,-5.4647895 0.926648,-0.4125703 3.622664,2.8308064 4.614841,3.0417001 0.992176,0.2108936 4.77431,-1.6555099 5.453037,-0.9017066 0.678728,0.7538034 -1.572792,4.3201254 -1.466764,5.3289109 0.106027,1.008786 3.049826,4.029058 2.542655,4.907505 z" transform="matrix(0.568694,0.252727,-0.252727,0.568694,-10.13857,-7.451327)" style="color:#000;display:inline;overflow:visible;visibility:visible;fill:#fff;fill-opacity:1;fill-rule:evenodd;stroke:none;stroke-width:.5;marker:none"/></g><circle style="color:#000;clip-rule:nonzero;display:inline;overflow:visible;visibility:visible;opacity:1;isolation:auto;mix-blend-mode:normal;color-interpolation:sRGB;color-interpolation-filters:linearRGB;solid-color:#000;solid-opacity:1;fill:#5e8ed5;fill-opacity:1;fill-rule:nonzero;stroke:none;stroke-width:2;stroke-linecap:butt;stroke-linejoin:miter;stroke-miterlimit:4;stroke-dasharray:none;stroke-dashoffset:0;stroke-opacity:1;marker:none;marker-start:none;marker-mid:none;marker-end:none;paint-order:normal;color-rendering:auto;image-rendering:auto;shape-rendering:auto;text-rendering:auto;enable-background:accumulate" id="path7353" cx="320.029" cy="74.029" r="8.029"/><circle id="circle7355" cx="319.029" cy="143.029" r="6.029" style="color:#000;clip-rule:nonzero;display:inline;overflow:visible;visibility:visible;opacity:1;isolation:auto;mix-blend-mode:normal;color-interpolation:sRGB;color-interpolation-filters:linearRGB;solid-color:#000;solid-opacity:1;fill:#5e8ed5;fill-opacity:1;fill-rule:nonzero;stroke:none;stroke-width:2;stroke-linecap:butt;stroke-linejoin:miter;stroke-miterlimit:4;stroke-dasharray:none;stroke-dashoffset:0;stroke-opacity:1;marker:none;marker-start:none;marker-mid:none;marker-end:none;paint-order:normal;color-rendering:auto;image-rendering:auto;shape-rendering:auto;text-rendering:auto;enable-background:accumulate"/><circle style="color:#000;clip-rule:nonzero;display:inline;overflow:visible;visibility:visible;opacity:1;isolation:auto;mix-blend-mode:normal;color-interpolation:sRGB;color-interpolation-filters:linearRGB;solid-color:#000;solid-opacity:1;fill:#5e8ed5;fill-opacity:1;fill-rule:nonzero;stroke:none;stroke-width:2;stroke-linecap:butt;stroke-linejoin:miter;stroke-miterlimit:4;stroke-dasharray:none;stroke-dashoffset:0;stroke-opacity:1;marker:none;marker-start:none;marker-mid:none;marker-end:none;paint-order:normal;color-rendering:auto;image-rendering:auto;shape-rendering:auto;text-rendering:auto;enable-background:accumulate" id="circle7357" cx="313.999" cy="187.992" r="4.007"/><circle id="circle7359" cx="311.006" cy="227.006" r="4.007" style="color:#000;clip-rule:nonzero;display:inline;overflow:visible;visibility:visible;opacity:1;isolation:auto;mix-blend-mode:normal;color-interpolation:sRGB;color-interpolation-filters:linearRGB;solid-color:#000;solid-opacity:1;fill:#5e8ed5;fill-opacity:1;fill-rule:nonzero;stroke:none;stroke-width:2;stroke-linecap:butt;stroke-linejoin:miter;stroke-miterlimit:4;stroke-dasharray:none;stroke-dashoffset:0;stroke-opacity:1;marker:none;marker-start:none;marker-mid:none;marker-end:none;paint-order:normal;color-rendering:auto;image-rendering:auto;shape-rendering:auto;text-rendering:auto;enable-background:accumulate"/><circle style="color:#000;clip-rule:nonzero;display:inline;overflow:visible;visibility:visible;opacity:1;isolation:auto;mix-blend-mode:normal;color-interpolation:sRGB;color-interpolation-filters:linearRGB;solid-color:#000;solid-opacity:1;fill:#5e8ed5;fill-opacity:1;fill-rule:nonzero;stroke:none;stroke-width:2;stroke-linecap:butt;stroke-linejoin:miter;stroke-miterlimit:4;stroke-dasharray:none;stroke-dashoffset:0;stroke-opacity:1;marker:none;marker-start:none;marker-mid:none;marker-end:none;paint-order:normal;color-rendering:auto;image-rendering:auto;shape-rendering:auto;text-rendering:auto;enable-background:accumulate" id="circle7361" cx="306.985" cy="251.026" r="3.99"/></g></svg>