<svg xmlns="http://www.w3.org/2000/svg" xmlns:svg="http://www.w3.org/2000/svg" xmlns:xlink="http://www.w3.org/1999/xlink" id="svg11300" width="400" height="300" version="1.0" style="display:inline;enable-background:new"><title id="title8836">Optical Drive</title><metadata id="metadata154"/><defs id="defs3"><linearGradient id="linearGradient5944"><stop id="stop5946" offset="0" style="stop-color:#729fcf;stop-opacity:1"/><stop id="stop5948" offset="1" style="stop-color:#3465a4;stop-opacity:1"/></linearGradient><linearGradient id="linearGradient6959"><stop id="stop6961" offset="0" style="stop-color:#000;stop-opacity:0"/><stop id="stop6967" offset=".5" style="stop-color:#000;stop-opacity:1"/><stop id="stop6963" offset="1" style="stop-color:#000;stop-opacity:0"/></linearGradient><linearGradient id="linearGradient6945"><stop id="stop6947" offset="0" style="stop-color:#000;stop-opacity:1"/><stop id="stop6949" offset="1" style="stop-color:#000;stop-opacity:0"/></linearGradient><radialGradient id="radialGradient6974" cx="0" cy="18.313" r="1.5" fx="0" fy="18.313" gradientTransform="matrix(2,0,0,1.6666667,19,-12.020833)" gradientUnits="userSpaceOnUse" xlink:href="#linearGradient6945"/><radialGradient id="radialGradient6976" cx="0" cy="18.313" r="1.5" fx="0" fy="18.313" gradientTransform="matrix(2,0,0,1.6666667,-3,-12.020833)" gradientUnits="userSpaceOnUse" xlink:href="#linearGradient6945"/><linearGradient id="linearGradient6978" x1="10.038" x2="10.038" y1="21" y2="15.999" gradientUnits="userSpaceOnUse" xlink:href="#linearGradient6959"/><radialGradient id="radialGradient6921" cx="4.652" cy="10.239" r="10" fx="4.652" fy="10.239" gradientTransform="matrix(3.0324428,0,0,3.1781411,9.8945733,3.0471544)" gradientUnits="userSpaceOnUse" xlink:href="#linearGradient5944"/><radialGradient id="radialGradient5952" cx="4.652" cy="10.239" r="10" fx="4.652" fy="10.239" gradientTransform="matrix(2.2134174,0,0,2.3197644,5.7097492,2.1606109)" gradientUnits="userSpaceOnUse" xlink:href="#linearGradient5944"/><linearGradient id="linearGradient6911"><stop id="stop6913" offset="0" style="stop-color:#729fcf;stop-opacity:1"/><stop id="stop6915" offset="1" style="stop-color:#3465a4;stop-opacity:1"/></linearGradient><radialGradient id="radialGradient6917" cx="4.652" cy="10.239" r="10" fx="4.652" fy="10.239" gradientTransform="matrix(1.5582218,0,0,1.6330889,3.7519204,0.2610737)" gradientUnits="userSpaceOnUse" xlink:href="#linearGradient6911"/><radialGradient id="radialGradient28640" cx="0" cy="18.313" r="1.5" fx="0" fy="18.313" gradientTransform="matrix(2,0,0,1.6666667,19,-12.020833)" gradientUnits="userSpaceOnUse" xlink:href="#linearGradient6945"/><radialGradient id="radialGradient28642" cx="0" cy="18.313" r="1.5" fx="0" fy="18.313" gradientTransform="matrix(2,0,0,1.6666667,-3,-12.020833)" gradientUnits="userSpaceOnUse" xlink:href="#linearGradient6945"/><linearGradient id="linearGradient28644" x1="10.038" x2="10.038" y1="21" y2="15.999" gradientUnits="userSpaceOnUse" xlink:href="#linearGradient6959"/><radialGradient id="radialGradient28646" cx="4.652" cy="10.239" r="10" fx="4.652" fy="10.239" gradientTransform="matrix(1.5582218,0,0,1.6330889,3.7519204,0.2610737)" gradientUnits="userSpaceOnUse" xlink:href="#linearGradient6911"/></defs><g id="layer6" style="display:none"><rect id="rect6284" width="48" height="48" x="296" y="50" style="fill:#eeeeec;fill-opacity:1;fill-rule:nonzero;stroke:none;stroke-width:2;marker:none;visibility:visible;display:inline;overflow:visible;enable-background:accumulate"/><rect id="rect6592" width="32" height="32" x="303" y="126" style="fill:#eeeeec;fill-opacity:1;fill-rule:nonzero;stroke:none;stroke-width:2;marker:none;visibility:visible;display:inline;overflow:visible;enable-background:accumulate"/><rect style="fill:#d3d7cf;fill-opacity:1;fill-rule:nonzero;stroke:none;stroke-width:2;marker:none;visibility:visible;display:inline;overflow:visible;enable-background:accumulate" id="rect28648" width="24" height="24" x="302" y="176"/><rect id="rect6749" width="22" height="22" x="303" y="177" style="fill:#eeeeec;fill-opacity:1;fill-rule:nonzero;stroke:none;stroke-width:2;marker:none;visibility:visible;display:inline;overflow:visible;enable-background:accumulate"/><rect id="rect6833" width="16" height="16" x="303" y="219" style="fill:#eeeeec;fill-opacity:1;fill-rule:nonzero;stroke:none;stroke-width:2;marker:none;visibility:visible;display:inline;overflow:visible;enable-background:accumulate"/><text id="context" x="20.971" y="21.514" xml:space="preserve" style="font-size:18.30070686px;font-style:normal;font-weight:400;fill:#000;fill-opacity:1;stroke:none;display:inline;enable-background:new;font-family:Bitstream Vera Sans"><tspan id="tspan2716" x="20.971" y="21.514">emblems</tspan></text><text id="icon-name" x="191.971" y="21.514" xml:space="preserve" style="font-size:18.30070686px;font-style:normal;font-variant:normal;font-weight:700;font-stretch:normal;text-align:start;line-height:125%;writing-mode:lr-tb;text-anchor:start;fill:#000;fill-opacity:1;stroke:none;display:inline;enable-background:new;font-family:Droid Sans;-inkscape-font-specification:Droid Sans Bold"><tspan id="tspan3023" x="191.971" y="21.514">emblem-system</tspan></text></g><g id="layer2" style="display:inline"><g id="g48" transform="translate(296,50) scale(1.000000,1.000000)" style="display:inline;enable-background:new"><g id="g6969" transform="matrix(2,0,0,1.9925931,2,1.6370282)" style="opacity:.3"><rect id="rect6935" width="3" height="5" x="19" y="16" style="opacity:1;fill:url(#radialGradient6974);fill-opacity:1;fill-rule:evenodd;stroke:none;stroke-width:1;stroke-linecap:round;stroke-linejoin:miter;stroke-miterlimit:4;stroke-dasharray:none;stroke-opacity:1"/><rect id="rect6953" width="3" height="5" x="-3" y="16" transform="scale(-1,1)" style="opacity:1;fill:url(#radialGradient6976);fill-opacity:1;fill-rule:evenodd;stroke:none;stroke-width:1;stroke-linecap:round;stroke-linejoin:miter;stroke-miterlimit:4;stroke-dasharray:none;stroke-opacity:1"/><rect id="rect6957" width="16" height="5" x="3" y="16" style="opacity:1;fill:url(#linearGradient6978);fill-opacity:1;fill-rule:evenodd;stroke:none;stroke-width:1;stroke-linecap:round;stroke-linejoin:miter;stroke-miterlimit:4;stroke-dasharray:none;stroke-opacity:1"/></g><g id="g6936"><rect id="rect5921" width="36.976" height="36.976" x="5.512" y="3.512" rx="4.816" ry="4.816" style="fill:url(#radialGradient6921);fill-opacity:1;fill-rule:evenodd;stroke:#204a87;stroke-width:1.00000012;stroke-linecap:round;stroke-linejoin:miter;stroke-miterlimit:4;stroke-dasharray:none;stroke-opacity:1"/><rect id="rect6892" width="34" height="34" x="7" y="5" rx="3.015" ry="3.015" style="fill:none;fill-opacity:1;fill-rule:evenodd;stroke:#fff;stroke-width:1.99999988;stroke-linecap:round;stroke-linejoin:miter;stroke-miterlimit:4;stroke-dasharray:none;stroke-opacity:1"/><path id="rect6894" d="M 22.5,10 L 22,13.1875 C 20.992665,13.417797 20.035405,13.837741 19.1875,14.375 L 19.1875,14.34375 L 16.5625,12.46875 L 14.46875,14.5625 L 16.34375,17.1875 L 16.375,17.1875 C 15.838961,18.037336 15.417274,18.99037 15.1875,20 L 12,20.5 L 12,23.5 L 15.1875,24 C 15.417274,25.009628 15.838962,25.962664 16.375,26.8125 L 16.34375,26.8125 L 14.46875,29.4375 L 16.5625,31.53125 L 19.1875,29.65625 L 19.1875,29.625 C 20.035405,30.162258 20.992665,30.582203 22,30.8125 L 22.5,34 L 25.5,34 L 26,30.8125 C 27.02314,30.578587 27.95434,30.175071 28.8125,29.625 L 31.4375,31.53125 L 33.53125,29.4375 L 31.625,26.8125 C 32.154019,25.96866 32.522051,25.000566 32.75,24 L 36,23.5 L 36,20.5 L 32.75,20 C 32.522051,18.999433 32.154019,18.031339 31.625,17.1875 L 31.65625,17.1875 L 33.53125,14.5625 L 31.4375,12.46875 L 28.8125,14.34375 L 28.8125,14.375 C 27.954339,13.824929 27.02314,13.421411 26,13.1875 L 25.5,10 L 22.5,10 z M 24,18 C 26.208001,18 28,19.776915 28,22 C 27.999999,24.223085 26.208001,26 24,26 C 21.792,25.999999 20,24.223085 20,22 C 20,19.776916 21.792,18 24,18 z" style="fill:#fff;fill-opacity:1;fill-rule:evenodd;stroke:none;stroke-width:1;stroke-linecap:round;stroke-linejoin:miter;stroke-miterlimit:4;stroke-dasharray:none;stroke-opacity:1"/></g></g><g id="g32" transform="translate(303,126) scale(1.000000,1.000000)" style="display:inline;enable-background:new"><g id="g47" transform="matrix(1.4545455,0,0,1.40625,0,2.484375)" style="opacity:.3"><rect id="rect49" width="3" height="5" x="19" y="16" style="opacity:1;fill:url(#radialGradient6974);fill-opacity:1;fill-rule:evenodd;stroke:none;stroke-width:1;stroke-linecap:round;stroke-linejoin:miter;stroke-miterlimit:4;stroke-dasharray:none;stroke-opacity:1"/><rect id="rect51" width="3" height="5" x="-3" y="16" transform="scale(-1,1)" style="opacity:1;fill:url(#radialGradient6976);fill-opacity:1;fill-rule:evenodd;stroke:none;stroke-width:1;stroke-linecap:round;stroke-linejoin:miter;stroke-miterlimit:4;stroke-dasharray:none;stroke-opacity:1"/><rect id="rect53" width="16" height="5" x="3" y="16" style="opacity:1;fill:url(#linearGradient6978);fill-opacity:1;fill-rule:evenodd;stroke:none;stroke-width:1;stroke-linecap:round;stroke-linejoin:miter;stroke-miterlimit:4;stroke-dasharray:none;stroke-opacity:1"/></g><rect id="rect55" width="26.989" height="26.989" x="2.511" y="2.5" rx="3.516" ry="3.516" style="fill:url(#radialGradient5952);fill-opacity:1;fill-rule:evenodd;stroke:#204a87;stroke-width:1;stroke-linecap:round;stroke-linejoin:miter;stroke-miterlimit:4;stroke-dasharray:none;stroke-opacity:1"/><rect id="rect57" width="24.989" height="24.989" x="3.511" y="3.5" rx="2.216" ry="2.216" style="fill:none;fill-opacity:1;fill-rule:evenodd;stroke:#fff;stroke-width:.99999994;stroke-linecap:round;stroke-linejoin:miter;stroke-miterlimit:4;stroke-dasharray:none;stroke-opacity:1"/><path id="path59" d="M 15 7 L 14.5 9.375 C 14.131525 9.4592412 13.782967 9.6044185 13.4375 9.75 C 13.393501 9.7685414 13.356031 9.7930786 13.3125 9.8125 C 13.001409 9.9448004 12.695207 10.068183 12.40625 10.25 L 10.34375 8.9375 L 8.9375 10.34375 L 10.28125 12.375 C 10.074333 12.703847 9.8930339 13.049736 9.75 13.40625 C 9.5990469 13.759484 9.4924678 14.121158 9.40625 14.5 L 7 15 L 7 17 L 9.40625 17.5 C 9.4924679 17.878842 9.5990469 18.240516 9.75 18.59375 C 9.8900248 18.941961 10.081449 19.272315 10.28125 19.59375 C 10.286108 19.601566 10.276356 19.617205 10.28125 19.625 L 8.9375 21.65625 L 10.34375 23.0625 L 12.40625 21.75 C 12.699321 21.934002 13.003705 22.05519 13.3125 22.1875 C 13.347214 22.202988 13.371237 22.23507 13.40625 22.25 C 13.415136 22.253631 13.428601 22.246409 13.4375 22.25 C 13.782639 22.395374 14.131905 22.509596 14.5 22.59375 L 15 25 L 17 25 L 17.5 22.59375 C 18.228512 22.426691 18.941836 22.128742 19.59375 21.71875 L 19.625 21.71875 L 21.65625 23.0625 L 23.0625 21.65625 L 21.71875 19.59375 C 21.917253 19.277118 22.109943 18.948397 22.25 18.59375 C 22.2537 18.584382 22.24634 18.571888 22.25 18.5625 C 22.259203 18.541284 22.272272 18.521286 22.28125 18.5 C 22.420299 18.170333 22.515287 17.842163 22.59375 17.5 L 25 17 L 25 15 L 22.59375 14.5 C 22.471134 13.939539 22.294352 13.421895 22.03125 12.90625 C 22.025087 12.894172 22.006245 12.887053 22 12.875 C 21.917372 12.715529 21.847344 12.530046 21.75 12.375 L 23.0625 10.34375 L 21.65625 8.9375 L 19.625 10.25 C 19.296623 10.043832 18.950429 9.8934298 18.59375 9.75 C 18.242564 9.6007513 17.883911 9.46277 17.5 9.375 L 17 7 L 15 7 z M 16 13 C 16.191846 13.00025 16.404834 13.025557 16.59375 13.0625 C 16.603454 13.064374 16.615329 13.060534 16.625 13.0625 C 16.803386 13.09932 16.954391 13.149189 17.125 13.21875 C 17.305375 13.292293 17.490027 13.389952 17.65625 13.5 C 17.663882 13.505034 17.679917 13.494898 17.6875 13.5 C 17.8463 13.606997 17.984494 13.734494 18.125 13.875 C 18.265506 14.015506 18.393003 14.1537 18.5 14.3125 C 18.505124 14.320077 18.494944 14.336123 18.5 14.34375 C 18.610048 14.509973 18.707707 14.694625 18.78125 14.875 C 18.846213 15.034331 18.901091 15.208749 18.9375 15.375 C 18.977509 15.571127 19 15.791459 19 16 C 19 16.208541 18.977509 16.397623 18.9375 16.59375 C 18.899555 16.779762 18.851649 16.953573 18.78125 17.125 C 18.742773 17.219793 18.704876 17.314909 18.65625 17.40625 C 18.424706 17.839503 18.092377 18.227573 17.6875 18.5 C 17.533776 18.603442 17.35348 18.678162 17.1875 18.75 C 17.106704 18.783994 17.021721 18.816793 16.9375 18.84375 C 16.81551 18.884084 16.687707 18.913317 16.5625 18.9375 C 16.385276 18.969902 16.186618 19 16 19 C 15.803656 19 15.623359 18.973285 15.4375 18.9375 C 15.427756 18.935595 15.415978 18.939503 15.40625 18.9375 C 15.3509 18.926246 15.304197 18.889242 15.25 18.875 C 15.113338 18.838884 14.975219 18.805726 14.84375 18.75 C 14.67285 18.678096 14.496763 18.600908 14.34375 18.5 C 14.336993 18.495526 14.319229 18.504534 14.3125 18.5 C 13.981864 18.277527 13.71906 17.989862 13.5 17.65625 C 13.397685 17.501708 13.320763 17.323195 13.25 17.15625 C 13.244934 17.144263 13.223664 17.137068 13.21875 17.125 C 13.170073 17.005612 13.15765 16.873546 13.125 16.75 C 13.108026 16.685639 13.075253 16.628528 13.0625 16.5625 C 13.025557 16.373584 13.00025 16.191846 13 16 C 13 15.812107 13.029859 15.615473 13.0625 15.4375 C 13.066269 15.417987 13.058339 15.394451 13.0625 15.375 C 13.084505 15.26713 13.123088 15.1657 13.15625 15.0625 C 13.183935 14.978765 13.214694 14.894073 13.25 14.8125 C 13.259244 14.790624 13.271507 14.771602 13.28125 14.75 C 13.350193 14.600227 13.436161 14.45184 13.53125 14.3125 C 14.070875 13.51452 14.964371 13 16 13 z" style="fill:#fff;fill-opacity:1;fill-rule:evenodd;stroke:none;stroke-width:1;stroke-linecap:round;stroke-linejoin:miter;stroke-miterlimit:4;stroke-dasharray:none;stroke-opacity:1"/></g><g id="g22" transform="translate(303,178)" style="display:inline;enable-background:new"><g id="g62" transform="matrix(1,0,0,0.9,0,2.1)" style="opacity:.3"><rect id="rect64" width="3" height="5" x="19" y="16" style="fill:url(#radialGradient28640);fill-opacity:1;fill-rule:evenodd;stroke:none"/><rect id="rect66" width="3" height="5" x="-3" y="16" transform="scale(-1,1)" style="fill:url(#radialGradient28642);fill-opacity:1;fill-rule:evenodd;stroke:none"/><rect id="rect68" width="16" height="5" x="3" y="16" style="fill:url(#linearGradient28644);fill-opacity:1;fill-rule:evenodd;stroke:none"/></g><rect id="rect70" width="19" height="19" x="1.5" y=".5" rx="2.475" ry="2.475" style="fill:url(#radialGradient28646);fill-opacity:1;fill-rule:evenodd;stroke:#204a87;stroke-width:1;stroke-linecap:round;stroke-linejoin:miter;stroke-miterlimit:4;stroke-opacity:1;stroke-dasharray:none"/><rect id="rect72" width="17" height="17" x="2.5" y="1.5" rx="1.507" ry="1.507" style="fill:none;stroke:#fff;stroke-width:.99999994;stroke-linecap:round;stroke-linejoin:miter;stroke-miterlimit:4;stroke-opacity:1;stroke-dasharray:none"/><path id="path74" d="m 10,4 0,1.59375 C 9.4963322,5.7088988 9.0177029,5.9188709 8.59375,6.1875 l -1.125,-1.125 -1.40625,1.40625 1.125,1.125 C 6.9194812,8.0186683 6.7086372,8.4951853 6.59375,9 L 5,9 l 0,2 1.59375,0 c 0.1148872,0.504815 0.3257312,0.981332 0.59375,1.40625 l -1.125,1.125 1.40625,1.40625 1.125,-1.125 C 9.0177029,14.081129 9.4963321,14.291101 10,14.40625 L 10,16 l 2,0 0,-1.59375 c 0.51157,-0.116956 0.97717,-0.318715 1.40625,-0.59375 l 1.125,1.125 1.40625,-1.40625 -1.125,-1.125 C 15.07701,11.984331 15.261026,11.500283 15.375,11 L 17,11 17,9 15.375,9 C 15.261026,8.499717 15.07701,8.0156691 14.8125,7.59375 l 1.125,-1.125 -1.40625,-1.40625 -1.125,1.125 C 12.97717,5.9124649 12.51157,5.7107055 12,5.59375 L 12,4 10,4 z m 1,4 c 1.104,-3e-7 2,0.8884581 2,2 0,1.111542 -0.896,2 -2,2 -1.1039999,0 -2,-0.888458 -2,-2 2e-7,-1.1115417 0.8960001,-2 2,-2 z" style="fill:#fff;fill-opacity:1;fill-rule:evenodd;stroke:none"/></g><g id="g16" transform="translate(303,219) scale(1.000000,1.000000)" style="display:inline;enable-background:new"><rect id="rect77" width="15" height="15" x=".5" y=".5" rx="1.954" ry="1.954" style="opacity:1;fill:url(#radialGradient6917);fill-opacity:1;fill-rule:evenodd;stroke:#204a87;stroke-width:1.00000012;stroke-linecap:round;stroke-linejoin:miter;stroke-miterlimit:4;stroke-dasharray:none;stroke-opacity:1"/><rect id="rect79" width="13" height="13" x="1.5" y="1.5" rx="1.153" ry="1.153" style="opacity:1;fill:none;fill-opacity:1;fill-rule:evenodd;stroke:#fff;stroke-width:.99999994;stroke-linecap:round;stroke-linejoin:miter;stroke-miterlimit:4;stroke-dasharray:none;stroke-opacity:1"/><path id="rect5942" d="M 7 3 L 7 5.1875 C 6.9039138 5.2219888 6.8100205 5.2687639 6.71875 5.3125 L 5.15625 3.75 L 3.75 5.15625 L 5.3125 6.71875 C 5.2687639 6.8100205 5.2219888 6.9039138 5.1875 7 L 3 7 L 3 9 L 5.1875 9 C 5.2219888 9.0960862 5.2687639 9.1899795 5.3125 9.28125 L 3.75 10.84375 L 5.15625 12.25 L 6.71875 10.6875 C 6.8100205 10.731236 6.9039138 10.778011 7 10.8125 L 7 13 L 9 13 L 9 10.8125 C 9.0872095 10.781197 9.1667358 10.726442 9.25 10.6875 L 10.8125 12.25 L 12.25 10.84375 L 10.6875 9.28125 C 10.731236 9.1899795 10.778011 9.0960862 10.8125 9 L 13 9 L 13 7 L 10.8125 7 C 10.778011 6.9039138 10.731236 6.8100205 10.6875 6.71875 L 12.25 5.15625 L 10.8125 3.75 L 9.25 5.3125 C 9.1667358 5.273558 9.0872095 5.2188026 9 5.1875 L 9 3 L 7 3 z M 7 7 L 9 7 L 9 9 L 7 9 L 7 7 z" style="opacity:1;fill:#fff;fill-opacity:1;fill-rule:evenodd;stroke:none;stroke-width:1;stroke-linecap:round;stroke-linejoin:miter;stroke-miterlimit:4;stroke-dasharray:none;stroke-opacity:1"/></g></g></svg>