<svg xmlns="http://www.w3.org/2000/svg" xmlns:svg="http://www.w3.org/2000/svg" xmlns:xlink="http://www.w3.org/1999/xlink" id="svg11300" width="400" height="300" version="1.0" style="display:inline;enable-background:new"><title id="title8836">Optical Drive</title><metadata id="metadata154"/><defs id="defs3"><linearGradient id="linearGradient5237"><stop id="stop5239" offset="0" style="stop-color:#fff;stop-opacity:1"/><stop id="stop5247" offset=".5" style="stop-color:#fff;stop-opacity:1"/><stop id="stop5241" offset="1" style="stop-color:#9c9c9c;stop-opacity:1"/></linearGradient><linearGradient id="linearGradient5226"><stop id="stop5229" offset="0" style="stop-color:#63b512;stop-opacity:1"/><stop id="stop5245" offset=".16" style="stop-color:#58a30e;stop-opacity:1"/><stop id="stop5235" offset=".66" style="stop-color:#366b04;stop-opacity:1"/><stop id="stop5231" offset="1" style="stop-color:#87ea25;stop-opacity:1"/></linearGradient><linearGradient id="linearGradient5300"><stop id="stop5302" offset="0" style="stop-color:#fff;stop-opacity:1"/><stop id="stop5304" offset="1" style="stop-color:#fff;stop-opacity:0"/></linearGradient><linearGradient id="linearGradient5224"><stop id="stop5226" offset="0" style="stop-color:#000;stop-opacity:1"/><stop id="stop5228" offset="1" style="stop-color:#000;stop-opacity:0"/></linearGradient><radialGradient id="radialGradient5230" cx="14.5" cy="26.688" r="10" fx="14.5" fy="26.688" gradientTransform="matrix(1,0,0,0.29375,0,18.848047)" gradientUnits="userSpaceOnUse" xlink:href="#linearGradient5224"/><filter id="filter5296" width="1.196" height="1.668" x="-.098" y="-.334"><feGaussianBlur id="feGaussianBlur5298" stdDeviation=".818"/></filter><radialGradient id="radialGradient5306" cx="29.774" cy="7.092" r="25.38" fx="29.774" fy="7.092" gradientTransform="matrix(2.2469896,0,0,2.2469896,-37.128341,-8.8439229)" gradientUnits="userSpaceOnUse" xlink:href="#linearGradient5300"/><radialGradient id="radialGradient5330" cx="14.5" cy="26.688" r="10" fx="14.5" fy="26.688" gradientTransform="matrix(1,0,0,0.29375,0,18.848047)" gradientUnits="userSpaceOnUse" xlink:href="#linearGradient5224"/><radialGradient id="radialGradient5233" cx="29.393" cy="18.898" r="29.7" fx="29.393" fy="18.898" gradientTransform="matrix(1.5354369,0,0,1.5485894,-15.737913,-10.36738)" gradientUnits="userSpaceOnUse" xlink:href="#linearGradient5226"/><radialGradient id="radialGradient5243" cx="22.938" cy="16.305" r="15.563" fx="22.938" fy="16.305" gradientTransform="matrix(1.5301205,0,0,1.6745294,-12.159639,-11.709817)" gradientUnits="userSpaceOnUse" xlink:href="#linearGradient5237"/></defs><g id="layer6" style="display:none"><rect id="rect6284" width="48" height="48" x="296" y="50" style="fill:#eeeeec;fill-opacity:1;fill-rule:nonzero;stroke:none;stroke-width:2;marker:none;visibility:visible;display:inline;overflow:visible;enable-background:accumulate"/><rect id="rect6592" width="32" height="32" x="303" y="126" style="fill:#eeeeec;fill-opacity:1;fill-rule:nonzero;stroke:none;stroke-width:2;marker:none;visibility:visible;display:inline;overflow:visible;enable-background:accumulate"/><rect id="rect6749" width="22" height="22" x="303" y="177" style="fill:#eeeeec;fill-opacity:1;fill-rule:nonzero;stroke:none;stroke-width:2;marker:none;visibility:visible;display:inline;overflow:visible;enable-background:accumulate"/><rect id="rect6833" width="16" height="16" x="303" y="219" style="fill:#eeeeec;fill-opacity:1;fill-rule:nonzero;stroke:none;stroke-width:2;marker:none;visibility:visible;display:inline;overflow:visible;enable-background:accumulate"/><text id="context" x="20.971" y="21.514" xml:space="preserve" style="font-size:18.30070686px;font-style:normal;font-weight:400;fill:#000;fill-opacity:1;stroke:none;display:inline;enable-background:new;font-family:Bitstream Vera Sans"><tspan id="tspan2716" x="20.971" y="21.514">emblems</tspan></text><text id="icon-name" x="191.971" y="21.514" xml:space="preserve" style="font-size:18.30070686px;font-style:normal;font-variant:normal;font-weight:700;font-stretch:normal;text-align:start;line-height:125%;writing-mode:lr-tb;text-anchor:start;fill:#000;fill-opacity:1;stroke:none;display:inline;enable-background:new;font-family:Droid Sans;-inkscape-font-specification:Droid Sans Bold"><tspan id="tspan3023" x="191.971" y="21.514">emblem-default</tspan></text></g><g id="layer2" style="display:inline"><g id="g48" transform="translate(296,50) scale(1.000000,1.000000)" style="display:inline;enable-background:new"><path id="path4645" d="M 24.5,26.6875 A 10,2.9375 0 1 1 4.5,26.6875 A 10,2.9375 0 1 1 24.5,26.6875 z" transform="matrix(2.1570145,0,0,2.155398,-7.8468552,-16.33814)" style="opacity:.53012048;color:#000;fill:url(#radialGradient5230);fill-opacity:1;fill-rule:nonzero;stroke:none;stroke-width:1;stroke-linecap:butt;stroke-linejoin:miter;marker:none;marker-start:none;marker-mid:none;marker-end:none;stroke-miterlimit:4;stroke-dasharray:none;stroke-dashoffset:0;stroke-opacity:1;visibility:visible;display:inline;overflow:visible;filter:url(#filter5296);enable-background:accumulate"/><path id="path5328" d="M 24.5,26.6875 A 10,2.9375 0 1 1 4.5,26.6875 A 10,2.9375 0 1 1 24.5,26.6875 z" transform="matrix(1.3478975,0,0,1.3468874,3.8853414,6.4889877)" style="opacity:.80120482;color:#000;fill:url(#radialGradient5330);fill-opacity:1;fill-rule:nonzero;stroke:none;stroke-width:1;stroke-linecap:butt;stroke-linejoin:miter;marker:none;marker-start:none;marker-mid:none;marker-end:none;stroke-miterlimit:4;stroke-dasharray:none;stroke-dashoffset:0;stroke-opacity:1;visibility:visible;display:inline;overflow:visible;filter:url(#filter5296);enable-background:accumulate"/><path id="path907" d="M 58.403591,29.207693 A 29.010935,29.010935 0 1 1 0.3817215,29.207693 A 29.010935,29.010935 0 1 1 58.403591,29.207693 z" transform="matrix(0.7238447,0,0,0.7274883,2.1828126,2.3568607)" style="fill:url(#radialGradient5233);fill-opacity:1;fill-rule:evenodd;stroke:#316203;stroke-width:1.37804781999999992;stroke-linecap:butt;stroke-linejoin:miter;stroke-miterlimit:4;stroke-dasharray:none;stroke-opacity:1"/><path id="path1552" d="M 53.950159,30.352861 A 24.175779,24.175779 0 1 1 5.5986004,30.352861 A 24.175779,24.175779 0 1 1 53.950159,30.352861 z" transform="matrix(0.8254302,0,0,0.8252681,-1.1457884,-1.4441229)" style="fill:none;fill-opacity:1;fill-rule:evenodd;stroke:url(#radialGradient5306);stroke-width:1.21160841;stroke-linecap:round;stroke-linejoin:round;stroke-miterlimit:4;stroke-dasharray:none;stroke-dashoffset:0;stroke-opacity:1"/><path id="path5222" d="M 12.875,24.625 L 25.375,36.625 L 44,20.625 C 43.253602,16.729371 41.57038,13.679873 39.8125,11.0625 L 25.125,23.75 L 20.375,18.5 L 12.875,24.625 z" style="opacity:1;color:#000;fill:url(#radialGradient5243);fill-opacity:1;fill-rule:evenodd;stroke:none;stroke-width:1;stroke-linecap:butt;stroke-linejoin:miter;marker:none;marker-start:none;marker-mid:none;marker-end:none;stroke-miterlimit:4;stroke-dasharray:none;stroke-dashoffset:0;stroke-opacity:1;visibility:visible;display:inline;overflow:visible;enable-background:accumulate"/><path id="path5224" d="M 40.21875,10.8125 C 41.930961,13.346411 43.59334,15.979986 44.40625,20.3125" style="opacity:1;color:#000;fill:none;fill-opacity:1;fill-rule:evenodd;stroke:#549910;stroke-width:1;stroke-linecap:butt;stroke-linejoin:miter;marker:none;marker-start:none;marker-mid:none;marker-end:none;stroke-miterlimit:4;stroke-dasharray:none;stroke-dashoffset:0;stroke-opacity:1;visibility:visible;display:inline;overflow:visible;enable-background:accumulate"/></g><g id="g32" transform="translate(303,126) scale(1.000000,1.000000)" style="display:inline;enable-background:new"><path id="path48" d="M 24.5,26.6875 A 10,2.9375 0 1 1 4.5,26.6875 A 10,2.9375 0 1 1 24.5,26.6875 z" transform="matrix(1.3565115,0,0,1.3564842,-4.0590334,-9.2530169)" style="opacity:.53012049;color:#000;fill:url(#radialGradient5230);fill-opacity:1;fill-rule:nonzero;stroke:none;stroke-width:1;stroke-linecap:butt;stroke-linejoin:miter;marker:none;marker-start:none;marker-mid:none;marker-end:none;stroke-miterlimit:4;stroke-dasharray:none;stroke-dashoffset:0;stroke-opacity:1;visibility:visible;display:inline;overflow:visible;filter:url(#filter5296);enable-background:accumulate"/><path id="path50" d="M 24.5,26.6875 A 10,2.9375 0 1 1 4.5,26.6875 A 10,2.9375 0 1 1 24.5,26.6875 z" transform="matrix(0.8476709,0,0,0.8476539,3.3191549,5.1130716)" style="opacity:.80120479;color:#000;fill:url(#radialGradient5330);fill-opacity:1;fill-rule:nonzero;stroke:none;stroke-width:1;stroke-linecap:butt;stroke-linejoin:miter;marker:none;marker-start:none;marker-mid:none;marker-end:none;stroke-miterlimit:4;stroke-dasharray:none;stroke-dashoffset:0;stroke-opacity:1;visibility:visible;display:inline;overflow:visible;filter:url(#filter5296);enable-background:accumulate"/><path id="path52" d="M 58.403591,29.207693 A 29.010935,29.010935 0 1 1 0.3817215,29.207693 A 29.010935,29.010935 0 1 1 58.403591,29.207693 z" transform="matrix(0.4552142,0,0,0.4578395,2.2484621,2.5125472)" style="fill:url(#radialGradient5233);fill-opacity:1;fill-rule:evenodd;stroke:#316203;stroke-width:2.19046068;stroke-linecap:butt;stroke-linejoin:miter;stroke-miterlimit:4;stroke-dasharray:none;stroke-opacity:1"/><path id="path54" d="M 53.950159,30.352861 A 24.175779,24.175779 0 1 1 5.5986004,30.352861 A 24.175779,24.175779 0 1 1 53.950159,30.352861 z" transform="matrix(0.5041973,0,0,0.5044661,0.5988708,0.5729996)" style="fill:none;fill-opacity:1;fill-rule:evenodd;stroke:url(#radialGradient5306);stroke-width:1.98282218;stroke-linecap:round;stroke-linejoin:round;stroke-miterlimit:4;stroke-dasharray:none;stroke-dashoffset:0;stroke-opacity:1"/><path id="path56" d="M 8.9726055,16.526842 L 16.833653,24.078955 L 28.546614,14.00947 C 28.077216,11.557784 27.018665,9.6386035 25.913163,7.9913787 L 16.676432,15.976167 L 13.689234,12.672117 L 8.9726055,16.526842 z" style="opacity:1;color:#000;fill:url(#radialGradient5243);fill-opacity:1;fill-rule:evenodd;stroke:none;stroke-width:1;stroke-linecap:butt;stroke-linejoin:miter;marker:none;marker-start:none;marker-mid:none;marker-end:none;stroke-miterlimit:4;stroke-dasharray:none;stroke-dashoffset:0;stroke-opacity:1;visibility:visible;display:inline;overflow:visible;enable-background:accumulate"/><path id="path58" d="M 26.168647,7.8340429 C 27.245429,9.4287416 28.290872,11.086164 28.802098,13.812801" style="opacity:1;color:#000;fill:none;fill-opacity:1;fill-rule:evenodd;stroke:#549910;stroke-width:1;stroke-linecap:butt;stroke-linejoin:miter;marker:none;marker-start:none;marker-mid:none;marker-end:none;stroke-miterlimit:4;stroke-dasharray:none;stroke-dashoffset:0;stroke-opacity:1;visibility:visible;display:inline;overflow:visible;enable-background:accumulate"/></g><g id="g22" transform="translate(303,177) scale(1.000000,1.000000)" style="display:inline;enable-background:new"><path id="path61" d="M 24.5,26.6875 A 10,2.9375 0 1 1 4.5,26.6875 A 10,2.9375 0 1 1 24.5,26.6875 z" transform="matrix(0.9683626,0,0,0.9691391,-3.088385,-6.9800636)" style="opacity:.53012049;color:#000;fill:url(#radialGradient5230);fill-opacity:1;fill-rule:nonzero;stroke:none;stroke-width:1;stroke-linecap:butt;stroke-linejoin:miter;marker:none;marker-start:none;marker-mid:none;marker-end:none;stroke-miterlimit:4;stroke-dasharray:none;stroke-dashoffset:0;stroke-opacity:1;visibility:visible;display:inline;overflow:visible;filter:url(#filter5296);enable-background:accumulate"/><path id="path63" d="M 24.5,26.6875 A 10,2.9375 0 1 1 4.5,26.6875 A 10,2.9375 0 1 1 24.5,26.6875 z" transform="matrix(0.6051205,0,0,0.6056056,2.1786267,3.2837763)" style="opacity:.80120479;color:#000;fill:url(#radialGradient5330);fill-opacity:1;fill-rule:nonzero;stroke:none;stroke-width:1;stroke-linecap:butt;stroke-linejoin:miter;marker:none;marker-start:none;marker-mid:none;marker-end:none;stroke-miterlimit:4;stroke-dasharray:none;stroke-dashoffset:0;stroke-opacity:1;visibility:visible;display:inline;overflow:visible;filter:url(#filter5296);enable-background:accumulate"/><path id="path65" d="M 58.403591,29.207693 A 29.010935,29.010935 0 1 1 0.3817215,29.207693 A 29.010935,29.010935 0 1 1 58.403591,29.207693 z" transform="matrix(0.3249603,0,0,0.3271031,1.4142993,1.4258338)" style="fill:url(#radialGradient5233);fill-opacity:1;fill-rule:evenodd;stroke:#316203;stroke-width:3.06720304;stroke-linecap:butt;stroke-linejoin:miter;stroke-miterlimit:4;stroke-dasharray:none;stroke-opacity:1"/><path id="path67" d="M 53.950159,30.352861 A 24.175779,24.175779 0 1 1 5.5986004,30.352861 A 24.175779,24.175779 0 1 1 53.950159,30.352861 z" transform="matrix(0.3501666,0,0,0.3506411,0.5273465,0.3368021)" style="fill:none;fill-opacity:1;fill-rule:evenodd;stroke:url(#radialGradient5306);stroke-width:2.85385108;stroke-linecap:round;stroke-linejoin:round;stroke-miterlimit:4;stroke-dasharray:none;stroke-dashoffset:0;stroke-opacity:1"/><path id="path69" d="M 6.2144129,11.438334 L 11.826119,16.833935 L 20.187563,9.6398006 C 19.852477,7.8881956 19.096817,6.5170387 18.30764,5.3401802 L 11.713885,11.044906 L 9.581437,8.6843299 L 6.2144129,11.438334 z" style="opacity:1;color:#000;fill:url(#radialGradient5243);fill-opacity:1;fill-rule:evenodd;stroke:none;stroke-width:1;stroke-linecap:butt;stroke-linejoin:miter;marker:none;marker-start:none;marker-mid:none;marker-end:none;stroke-miterlimit:4;stroke-dasharray:none;stroke-dashoffset:0;stroke-opacity:1;visibility:visible;display:inline;overflow:visible;enable-background:accumulate"/><path id="path71" d="M 18.490022,5.2277717 C 19.258696,6.3671027 20.004998,7.5512466 20.369944,9.4992901" style="opacity:1;color:#000;fill:none;fill-opacity:1;fill-rule:evenodd;stroke:#549910;stroke-width:1;stroke-linecap:butt;stroke-linejoin:miter;marker:none;marker-start:none;marker-mid:none;marker-end:none;stroke-miterlimit:4;stroke-dasharray:none;stroke-dashoffset:0;stroke-opacity:1;visibility:visible;display:inline;overflow:visible;enable-background:accumulate"/></g><g id="g16" transform="translate(303,219) scale(1.000000,1.000000)" style="display:inline;enable-background:new"><path id="path74" d="M 58.403591,29.207693 A 29.010935,29.010935 0 1 1 0.3817215,29.207693 A 29.010935,29.010935 0 1 1 58.403591,29.207693 z" transform="matrix(0.2567083,0,0,0.2584636,0.4403526,0.5643392)" style="fill:url(#radialGradient5233);fill-opacity:1;fill-rule:evenodd;stroke:#316203;stroke-width:3.88222241;stroke-linecap:butt;stroke-linejoin:miter;stroke-miterlimit:4;stroke-dasharray:none;stroke-opacity:1"/><path id="path76" d="M 53.950159,30.352861 A 24.175779,24.175779 0 1 1 5.5986004,30.352861 A 24.175779,24.175779 0 1 1 53.950159,30.352861 z" transform="matrix(0.2766205,0,0,0.2770623,-0.2603119,-0.2961693)" style="fill:none;fill-opacity:1;fill-rule:evenodd;stroke:url(#radialGradient5306);stroke-width:3.61217833;stroke-linecap:round;stroke-linejoin:round;stroke-miterlimit:4;stroke-dasharray:none;stroke-dashoffset:0;stroke-opacity:1"/><path id="path78" d="M 4.2322894,8.4758089 L 8.665358,12.739194 L 15.270633,7.0546813 C 15.005926,5.6706343 14.408979,4.587202 13.785554,3.6572963 L 8.576697,8.1649383 L 6.8921312,6.2997072 L 4.2322894,8.4758089 z" style="opacity:1;color:#000;fill:url(#radialGradient5243);fill-opacity:1;fill-rule:evenodd;stroke:none;stroke-width:1;stroke-linecap:butt;stroke-linejoin:miter;marker:none;marker-start:none;marker-mid:none;marker-end:none;stroke-miterlimit:4;stroke-dasharray:none;stroke-dashoffset:0;stroke-opacity:1;visibility:visible;display:inline;overflow:visible;enable-background:accumulate"/><path id="path80" d="M 13.92963,3.5684757 C 14.536858,4.4687286 15.126413,5.4043909 15.414709,6.9436556" style="opacity:1;color:#000;fill:none;fill-opacity:1;fill-rule:evenodd;stroke:#549910;stroke-width:1;stroke-linecap:butt;stroke-linejoin:miter;marker:none;marker-start:none;marker-mid:none;marker-end:none;stroke-miterlimit:4;stroke-dasharray:none;stroke-dashoffset:0;stroke-opacity:1;visibility:visible;display:inline;overflow:visible;enable-background:accumulate"/></g></g></svg>