<svg xmlns="http://www.w3.org/2000/svg" xmlns:svg="http://www.w3.org/2000/svg" xmlns:xlink="http://www.w3.org/1999/xlink" id="svg11300" width="400" height="300" version="1.0" style="display:inline;enable-background:new"><title id="title8836">Optical Drive</title><metadata id="metadata154"/><defs id="defs3"><linearGradient id="linearGradient7033"><stop id="stop7035" offset="0" style="stop-color:#533401;stop-opacity:1"/><stop id="stop7037" offset="1" style="stop-color:#533401;stop-opacity:0"/></linearGradient><linearGradient id="linearGradient7025"><stop id="stop7027" offset="0" style="stop-color:#533401;stop-opacity:1"/><stop id="stop7029" offset="1" style="stop-color:#533401;stop-opacity:0"/></linearGradient><linearGradient id="linearGradient6971"><stop id="stop6973" offset="0" style="stop-color:#fff;stop-opacity:1"/><stop id="stop6975" offset="1" style="stop-color:#fff;stop-opacity:0"/></linearGradient><linearGradient id="linearGradient6107"><stop id="stop6109" offset="0" style="stop-color:#e9b96e;stop-opacity:1"/><stop id="stop6115" offset=".787" style="stop-color:#e9b96e;stop-opacity:1"/><stop id="stop6111" offset="1" style="stop-color:#8f5902;stop-opacity:1"/></linearGradient><linearGradient id="linearGradient6067"><stop id="stop6069" offset="0" style="stop-color:#2e3436;stop-opacity:1"/><stop id="stop6071" offset="1" style="stop-color:#000;stop-opacity:1"/></linearGradient><linearGradient id="linearGradient6044"><stop id="stop6046" offset="0" style="stop-color:#a40000;stop-opacity:1"/><stop id="stop6048" offset="1" style="stop-color:#a40000;stop-opacity:0"/></linearGradient><linearGradient id="linearGradient6026"><stop id="stop6028" offset="0" style="stop-color:#efca8e;stop-opacity:1"/><stop id="stop6030" offset="1" style="stop-color:#e9b768;stop-opacity:1"/></linearGradient><linearGradient id="linearGradient6016"><stop id="stop6018" offset="0" style="stop-color:#c17d11;stop-opacity:1"/><stop id="stop6020" offset="1" style="stop-color:#9a640d;stop-opacity:1"/></linearGradient><linearGradient id="linearGradient5992"><stop id="stop5994" offset="0" style="stop-color:#8f5902;stop-opacity:1"/><stop id="stop5996" offset="1" style="stop-color:#744800;stop-opacity:1"/></linearGradient><linearGradient id="linearGradient3398"><stop id="stop3400" offset="0" style="stop-color:#fff;stop-opacity:1"/><stop id="stop3402" offset="1" style="stop-color:#fff;stop-opacity:.02568627"/></linearGradient><linearGradient id="linearGradient3390"><stop id="stop3392" offset="0" style="stop-color:#fff;stop-opacity:1"/><stop id="stop3394" offset="1" style="stop-color:#fff;stop-opacity:0"/></linearGradient><linearGradient id="linearGradient3150"><stop id="stop3152" offset="0" style="stop-color:#2e3436;stop-opacity:1"/><stop id="stop3154" offset="1" style="stop-color:#2e3436;stop-opacity:0"/></linearGradient><radialGradient id="radialGradient3363" cx="10.749" cy="10.458" r="6.645" fx="10.749" fy="10.458" gradientTransform="matrix(-0.842757,0,0,-0.35721,19.80716,14.19321)" gradientUnits="userSpaceOnUse" xlink:href="#linearGradient3150"/><radialGradient id="radialGradient3396" cx="16.571" cy="4.516" r="6.969" fx="16.571" fy="4.516" gradientTransform="matrix(1.9142934,2.2544079e-3,-2.8759152e-3,2.4420352,-13.23958,-8.6794257)" gradientUnits="userSpaceOnUse" xlink:href="#linearGradient3390"/><linearGradient id="linearGradient3404" x1="8.374" x2="25.498" y1="2.91" y2="43.465" gradientUnits="userSpaceOnUse" xlink:href="#linearGradient3398"/><linearGradient id="linearGradient5998" x1="6.506" x2="14.196" y1="4.136" y2="20.028" gradientTransform="matrix(2.0758542,0,0,2.0526248,1.1655453,1.4208674)" gradientUnits="userSpaceOnUse" xlink:href="#linearGradient5992"/><linearGradient id="linearGradient6006" x1="4.548" x2="7.232" y1="2.258" y2="8.237" gradientUnits="userSpaceOnUse" xlink:href="#linearGradient5992"/><linearGradient id="linearGradient6014" x1="3.153" x2="5.577" y1="2.991" y2="7.619" gradientUnits="userSpaceOnUse" xlink:href="#linearGradient5992"/><radialGradient id="radialGradient6022" cx="10.148" cy="9.461" r="8" fx="10.148" fy="9.461" gradientTransform="matrix(2.0487225,-0.3333485,0.4394892,2.6401809,-2.7172146,-1.5449635)" gradientUnits="userSpaceOnUse" xlink:href="#linearGradient6016"/><radialGradient id="radialGradient6050" cx="11.228" cy="16.212" r="2.622" fx="11.228" fy="16.212" gradientTransform="matrix(1,0,0,0.423375,0,9.3482007)" gradientUnits="userSpaceOnUse" xlink:href="#linearGradient6044"/><radialGradient id="radialGradient6021" cx="15.086" cy="12.519" r="9" fx="15.086" fy="12.519" gradientTransform="matrix(-2.3334053,0.210666,-0.1418036,-1.6936244,60.083985,39.649881)" gradientUnits="userSpaceOnUse" xlink:href="#linearGradient6026"/><linearGradient id="linearGradient6085" x1="2.555" x2="6.363" y1="2.104" y2="7.647" gradientUnits="userSpaceOnUse" xlink:href="#linearGradient3398"/><linearGradient id="linearGradient6089" x1="7.565" x2="5.586" y1="2.674" y2="4.849" gradientUnits="userSpaceOnUse" xlink:href="#linearGradient3398"/><radialGradient id="radialGradient6113" cx="5.725" cy="5.806" r="3.839" fx="5.725" fy="5.806" gradientTransform="matrix(1,0,0,0.9190153,0,0.4344651)" gradientUnits="userSpaceOnUse" xlink:href="#linearGradient6107"/><radialGradient id="radialGradient6123" cx="5.365" cy="5.902" r="3.839" fx="5.365" fy="5.902" gradientTransform="matrix(1,0,0,0.9190153,0,0.4344651)" gradientUnits="userSpaceOnUse" xlink:href="#linearGradient6107"/><radialGradient id="radialGradient5994" cx="10.279" cy="9.854" r="1.108" fx="10.279" fy="9.854" gradientTransform="matrix(1,0,0,1.5438597,0,-5.3589507)" gradientUnits="userSpaceOnUse" xlink:href="#linearGradient6067"/><radialGradient id="radialGradient5996" cx="10.279" cy="9.854" r="1.108" fx="10.279" fy="9.854" gradientTransform="matrix(1,0,0,1.5438597,0,-5.3589507)" gradientUnits="userSpaceOnUse" xlink:href="#linearGradient6067"/><radialGradient id="radialGradient6977" cx="24.467" cy="34.234" r="9.998" fx="24.467" fy="34.234" gradientTransform="matrix(1,0,0,0.1477394,0,25.308958)" gradientUnits="userSpaceOnUse" xlink:href="#linearGradient6971"/><linearGradient id="linearGradient7031" x1="20.969" x2="20.969" y1="23.813" y2="26.068" gradientTransform="translate(0,-2)" gradientUnits="userSpaceOnUse" xlink:href="#linearGradient7025"/><linearGradient id="linearGradient7039" x1="26.594" x2="26.547" y1="23.813" y2="25.906" gradientTransform="translate(0,-2)" gradientUnits="userSpaceOnUse" xlink:href="#linearGradient7033"/><linearGradient id="linearGradient6945"><stop id="stop6947" offset="0" style="stop-color:#fff;stop-opacity:1"/><stop id="stop6949" offset="1" style="stop-color:#fff;stop-opacity:0"/></linearGradient><linearGradient id="linearGradient5991"><stop id="stop5993" offset="0" style="stop-color:#2e3436;stop-opacity:1"/><stop id="stop5995" offset="1" style="stop-color:#000;stop-opacity:1"/></linearGradient><radialGradient id="radialGradient6951" cx="15.381" cy="22.55" r="6.943" fx="15.381" fy="22.55" gradientTransform="matrix(1.432327,0,0,0.3094345,-6.649527,13.397176)" gradientUnits="userSpaceOnUse" xlink:href="#linearGradient6945"/><radialGradient id="radialGradient6983" cx="10.049" cy="9.559" r="1.108" fx="10.049" fy="9.559" gradientTransform="matrix(1,0,0,1.5438597,0,-5.3589507)" gradientUnits="userSpaceOnUse" xlink:href="#linearGradient5991"/><radialGradient id="radialGradient6985" cx="10.026" cy="9.611" r="1.108" fx="10.026" fy="9.611" gradientTransform="matrix(1,0,0,1.5438597,0,-5.3589507)" gradientUnits="userSpaceOnUse" xlink:href="#linearGradient5991"/><linearGradient id="linearGradient6032" x1="12.227" x2="10.047" y1="15.026" y2="5.899" gradientUnits="userSpaceOnUse" xlink:href="#linearGradient6026"/><radialGradient id="radialGradient5970" cx="11.228" cy="16.212" r="2.622" fx="11.228" fy="16.212" gradientTransform="matrix(1,0,0,0.423375,0,9.3482007)" gradientUnits="userSpaceOnUse" xlink:href="#linearGradient6044"/><linearGradient id="linearGradient5977" x1="12.227" x2="10.047" y1="15.026" y2="5.899" gradientTransform="matrix(0.6384434,0,0,0.7126512,0.9500594,-0.1094625)" gradientUnits="userSpaceOnUse" xlink:href="#linearGradient6026"/><linearGradient id="linearGradient5980" x1="8.374" x2="12" y1="2.91" y2="20.389" gradientTransform="matrix(1.1055335,0,0,1,-0.2932991,0)" gradientUnits="userSpaceOnUse" xlink:href="#linearGradient3398"/></defs><g id="layer6" style="display:none"><rect id="rect6284" width="48" height="48" x="296" y="50" style="fill:#eeeeec;fill-opacity:1;fill-rule:nonzero;stroke:none;stroke-width:2;marker:none;visibility:visible;display:inline;overflow:visible;enable-background:accumulate"/><rect id="rect6592" width="32" height="32" x="303" y="126" style="fill:#eeeeec;fill-opacity:1;fill-rule:nonzero;stroke:none;stroke-width:2;marker:none;visibility:visible;display:inline;overflow:visible;enable-background:accumulate"/><rect id="rect6749" width="22" height="22" x="303" y="177" style="fill:#eeeeec;fill-opacity:1;fill-rule:nonzero;stroke:none;stroke-width:2;marker:none;visibility:visible;display:inline;overflow:visible;enable-background:accumulate"/><rect id="rect6833" width="16" height="16" x="303" y="219" style="fill:#eeeeec;fill-opacity:1;fill-rule:nonzero;stroke:none;stroke-width:2;marker:none;visibility:visible;display:inline;overflow:visible;enable-background:accumulate"/><text id="context" x="20.971" y="21.514" xml:space="preserve" style="font-size:18.30070686px;font-style:normal;font-weight:400;fill:#000;fill-opacity:1;stroke:none;display:inline;enable-background:new;font-family:Bitstream Vera Sans"><tspan id="tspan2716" x="20.971" y="21.514">emotes</tspan></text><text id="icon-name" x="191.971" y="21.514" xml:space="preserve" style="font-size:18.30070686px;font-style:normal;font-variant:normal;font-weight:700;font-stretch:normal;text-align:start;line-height:125%;writing-mode:lr-tb;text-anchor:start;fill:#000;fill-opacity:1;stroke:none;display:inline;enable-background:new;font-family:Droid Sans;-inkscape-font-specification:Droid Sans Bold"><tspan id="tspan3023" x="191.971" y="21.514">face-monkey</tspan></text></g><g id="layer2" style="display:inline"><g id="g48" transform="translate(296,50) scale(1.000000,1.000000)" style="display:inline;enable-background:new"><path id="path3342" d="M 9.133008,5.3647771 A 3.5560436,3.2451327 0 1 1 2.0209208,5.3647771 A 3.5560436,3.2451327 0 1 1 9.133008,5.3647771 z" transform="matrix(1.6872684,0,0,1.8489229,-0.909836,10.580941)" style="opacity:1;fill:url(#radialGradient6113);fill-opacity:1;fill-rule:evenodd;stroke:url(#linearGradient6014);stroke-width:.56617205999999998;stroke-miterlimit:4;stroke-dasharray:none;stroke-opacity:1"/><path id="path6083" d="M 9.133008,5.3647771 C 9.133008,7.1560903 7.5399005,8.6099098 5.5769644,8.6099098 C 3.6140283,8.6099098 2.0209208,7.1560903 2.0209208,5.3647771 C 2.0209208,3.5734638 3.6140283,2.1196444 5.5769644,2.1196444 C 7.5399005,2.1196444 9.133008,3.5734638 9.133008,5.3647771 z" transform="matrix(1.406057,0,0,1.5431057,0.5959699,12.229164)" style="opacity:.37647059;fill:none;fill-opacity:1;fill-rule:evenodd;stroke:url(#linearGradient6085);stroke-width:.67889196;stroke-miterlimit:4;stroke-opacity:1"/><path id="path3359" d="M 6.3348098,8.4155903 A 2.0597849,1.3602352 0 1 1 2.21524,8.4155903 A 2.0597849,1.3602352 0 1 1 6.3348098,8.4155903 z" transform="matrix(1.8498752,0,0,2.9620487,1.9020826,-3.8983056)" style="opacity:.29999999999999999;fill:#5c3566;fill-opacity:1;fill-rule:evenodd;stroke:none;stroke-width:1;stroke-miterlimit:4;stroke-dasharray:none;stroke-opacity:1"/><path id="path3344" d="M 9.133008,5.3647771 A 3.5560436,3.2451327 0 1 1 2.0209208,5.3647771 A 3.5560436,3.2451327 0 1 1 9.133008,5.3647771 z" transform="matrix(1.6872685,0,0,1.848923,30.090164,10.58094)" style="opacity:1;fill:url(#radialGradient6123);fill-opacity:1;fill-rule:evenodd;stroke:url(#linearGradient6006);stroke-width:.56617187999999996;stroke-miterlimit:4;stroke-dasharray:none;stroke-opacity:1"/><path id="path6042" d="M 37.357012,14.339669 C 38.272734,14.091905 39.199186,13.892425 40.197153,14.014764 C 40.072526,16.747787 39.494573,19.332396 39.024372,22.090832 C 40.71531,23.5377 41.427614,25.01852 42,26.5 C 41.323974,26.812313 40.227723,27.081771 39.069306,27 C 36.266476,23.990483 34.743011,20.018762 37.357012,14.339669 z" style="opacity:.25098039;fill:#000;fill-opacity:1;fill-rule:evenodd;stroke:none;stroke-width:1px;stroke-linecap:butt;stroke-linejoin:miter;stroke-opacity:1"/><path id="path6087" d="M 9.133008,5.3647771 C 9.133008,7.1560903 7.5399005,8.6099098 5.5769644,8.6099098 C 3.6140283,8.6099098 2.0209208,7.1560903 2.0209208,5.3647771 C 2.0209208,3.5734638 3.6140283,2.1196444 5.5769644,2.1196444 C 7.5399005,2.1196444 9.133008,3.5734638 9.133008,5.3647771 z" transform="matrix(1.406057,0,0,1.5431057,31.59597,12.229164)" style="opacity:.37647059;fill:none;fill-opacity:1;fill-rule:evenodd;stroke:url(#linearGradient6089);stroke-width:.67889196;stroke-miterlimit:4;stroke-opacity:1"/><path id="path3361" d="M 6.3348098,8.4155903 A 2.0597849,1.3602352 0 1 1 2.21524,8.4155903 A 2.0597849,1.3602352 0 1 1 6.3348098,8.4155903 z" transform="matrix(1.8869741,0,0,2.9576809,30.046378,-3.8505306)" style="opacity:.3;fill:#5c3566;fill-opacity:1;fill-rule:evenodd;stroke:none;stroke-width:1;stroke-miterlimit:4;stroke-dasharray:none;stroke-opacity:1"/><path id="path3140" d="M 17.393564,10.457643 A 6.6449099,2.3675451 0 1 1 4.1037445,10.457643 A 6.6449099,2.3675451 0 1 1 17.393564,10.457643 z" transform="matrix(3.0098139,0,0,2.9630238,-8.3758807,8.9986641)" style="opacity:.6;fill:url(#radialGradient3363);fill-opacity:1;stroke:none;stroke-width:1;stroke-miterlimit:4;stroke-dasharray:none;stroke-opacity:1"/><path id="path3346" d="M 24.007921,4.4999999 C 15.737268,4.4999999 10.522194,9.0672863 10.522193,16.535901 L 11.544815,23.99974 C 9.3634284,25.095588 8.4310344,28.104989 8.4310344,31.183926 C 8.4310344,37.162551 13.62067,43.433324 24.014827,43.499468 C 34.544937,43.567169 39.568848,37.162551 39.568845,31.183926 C 39.582185,28.101693 38.486594,25.240757 36.455064,23.99974 L 37.507459,16.535901 C 37.507459,8.7636853 32.278573,4.4999999 24.007921,4.4999999 z" style="fill:url(#radialGradient6022);fill-opacity:1;fill-rule:evenodd;stroke:url(#linearGradient5998);stroke-width:1.00000011999999994;stroke-miterlimit:4;stroke-opacity:1"/><path id="path3380" d="M 24,5.53125 C 20.051508,5.53125 16.952589,6.5940986 14.84375,8.46875 C 12.734911,10.343401 11.5625,13.032657 11.5625,16.53125 L 12.53125,23.875 C 12.587063,24.29599 12.375182,24.707288 12,24.90625 C 11.192274,25.312021 10.563506,26.102241 10.125,27.21875 C 9.6864936,28.335259 9.46875,29.748389 9.46875,31.1875 C 9.4687503,36.580578 14.01212,42.405191 24,42.46875 C 34.116273,42.533788 38.531253,36.59598 38.53125,31.1875 C 38.543556,28.344349 37.511683,25.836634 35.9375,24.875 C 35.597929,24.663086 35.414403,24.271563 35.46875,23.875 L 36.46875,16.53125 C 36.46875,12.873011 35.296173,10.209067 33.1875,8.375 C 31.078827,6.540933 27.960923,5.53125 24,5.53125 z" style="opacity:.5;fill:url(#radialGradient3396);fill-opacity:1;fill-rule:evenodd;stroke:url(#linearGradient3404);stroke-width:1;stroke-miterlimit:4;stroke-opacity:1"/><path id="path3357" d="M 18.944444,13.001625 C 15.356444,13.001625 13.888889,15.443388 13.888889,19.001301 C 13.888889,20.780259 14.378332,22.631569 14.989583,24.000895 C 12.010416,24.806582 9.9375,25.813313 9.9375,31.063029 C 9.9375,35.806909 16,41 24,41 C 32,41 38.03125,35.744409 38.03125,31.000529 C 38.03125,26.500773 35.989585,24.775332 33.010416,23.969645 C 33.732639,22.469725 34.111111,20.780259 34.111111,19.001301 C 34.111111,15.443388 32.642185,13.099954 29.055555,13.001625 C 26.872133,12.942584 24.722221,14.501545 24.059542,16.075628 C 23.277778,14.501545 21.301818,13.060668 18.944444,13.001625 z" style="opacity:1;fill:url(#radialGradient6021);fill-opacity:1;fill-rule:evenodd;stroke:none;stroke-width:1;stroke-miterlimit:4;stroke-dasharray:none;stroke-opacity:1"/><path id="path5982" d="M 13.850374 16.211924 A 2.6223004 1.1102164 0 1 1 8.6057737,16.211924 A 2.6223004 1.1102164 0 1 1 13.850374 16.211924 z" transform="matrix(2.6729049,0,0,2.2640107,-6.0896987,-16.21751)" style="opacity:.22000002;fill:url(#radialGradient6050);fill-opacity:1;stroke:none;stroke-width:.80000001;stroke-linecap:round;stroke-linejoin:miter;stroke-miterlimit:4;stroke-dasharray:none;stroke-opacity:1"/><path id="path6969" d="M 33.995257,28.078681 C 34.038381,31.739813 31.509745,30.918015 24.08169,30.92737 C 16.661276,30.936716 14,31.647754 14,28.045833 C 15.566613,29.578661 17.158297,29.505774 24.08169,29.486602 C 31.011105,29.467413 32.659269,29.624691 33.995257,28.078681 z" style="opacity:.5;fill:url(#radialGradient6977);fill-opacity:1;stroke:none;stroke-width:1;stroke-miterlimit:4;stroke-dasharray:none;stroke-opacity:1"/><path id="path2186" d="M 33.995257,28.068134 C 34.038381,30.553717 31.509745,29.995789 24.08169,30.00214 C 16.661276,30.008485 14,30.491217 14,28.045833 C 15.566613,29.086487 17.158297,29.037003 24.08169,29.023987 C 31.011105,29.010959 32.659269,29.117737 33.995257,28.068134 z" style="opacity:1;fill:#503201;fill-opacity:1;stroke:none;stroke-width:1;stroke-miterlimit:4;stroke-dasharray:none;stroke-opacity:1"/><g id="g5986" transform="translate(2,0)"><path id="path6024" d="M 11.387112 9.8535538 A 1.1076201 1.7100101 0 1 1 9.1718723,9.8535538 A 1.1076201 1.7100101 0 1 1 11.387112 9.8535538 z" transform="matrix(1.8056732,0,0,1.1695839,-0.5614042,6.4754422)" style="opacity:1;fill:url(#radialGradient5996);fill-opacity:1;fill-rule:evenodd;stroke:none;stroke-width:.79457355;stroke-miterlimit:4;stroke-dasharray:none;stroke-opacity:1"/><path id="path5974" d="M 6.5000002 8.5870266 A 0.43086693 0.41297308 0 1 1 5.6382664,8.5870266 A 0.43086693 0.41297308 0 1 1 6.5000002 8.5870266 z" transform="matrix(2.3209022,0,0,2.4214654,3.3518098,-3.7210354)" style="opacity:.43921569;fill:#eeeeec;fill-opacity:1;stroke:none;stroke-width:.80000001;stroke-linecap:round;stroke-linejoin:miter;stroke-miterlimit:4;stroke-dasharray:none;stroke-opacity:1"/></g><g id="g5990" transform="translate(-2,0)"><path id="path3340" d="M 11.387112 9.8535538 A 1.1076201 1.7100101 0 1 1 9.1718723,9.8535538 A 1.1076201 1.7100101 0 1 1 11.387112 9.8535538 z" transform="matrix(1.8056732,0,0,1.1695839,11.438596,6.4754422)" style="opacity:1;fill:url(#radialGradient5994);fill-opacity:1;fill-rule:evenodd;stroke:none;stroke-width:1;stroke-miterlimit:4;stroke-dasharray:none;stroke-opacity:1"/><path id="path5976" d="M 6.5000002 8.5870266 A 0.43086693 0.41297308 0 1 1 5.6382664,8.5870266 A 0.43086693 0.41297308 0 1 1 6.5000002 8.5870266 z" transform="matrix(2.2384755,0,0,2.414016,15.878879,-3.732296)" style="opacity:.43921569;fill:#eeeeec;fill-opacity:1;stroke:none;stroke-width:.80000001;stroke-linecap:round;stroke-linejoin:miter;stroke-miterlimit:4;stroke-dasharray:none;stroke-opacity:1"/></g><path id="path6979" d="M 21.5,21.8125 C 20.672,21.8125 20,22.523051 20,23.40625 C 20,23.417181 19.999795,23.426621 20,23.4375 C 20.700987,23.138082 21.727934,22.928798 22.90625,22.84375 C 22.6946,22.233767 22.14515,21.812499 21.5,21.8125 z" style="opacity:1;fill:url(#linearGradient7031);fill-opacity:1;stroke:none;stroke-width:.80000001;stroke-linecap:round;stroke-linejoin:miter;stroke-miterlimit:4;stroke-dasharray:none;stroke-opacity:1"/><path id="path6997" d="M 26.5,21.8125 C 25.85485,21.812499 25.3054,22.233767 25.09375,22.84375 C 26.272066,22.928798 27.299013,23.138082 28,23.4375 C 28.000205,23.426621 28,23.417181 28,23.40625 C 28,22.523051 27.328,21.8125 26.5,21.8125 z" style="opacity:1;fill:url(#linearGradient7039);fill-opacity:1;stroke:none;stroke-width:.80000001;stroke-linecap:round;stroke-linejoin:miter;stroke-miterlimit:4;stroke-dasharray:none;stroke-opacity:1"/></g><g id="g32" transform="translate(303,126) scale(1.000000,1.000000)" style="display:inline;enable-background:new"><path id="path110" d="M 9.133008,5.3647771 A 3.5560436,3.2451327 0 1 1 2.0209208,5.3647771 A 3.5560436,3.2451327 0 1 1 9.133008,5.3647771 z" transform="matrix(1.1248456,0,0,1.2326153,-0.7732239,6.8872939)" style="opacity:1;fill:#e9b96e;fill-opacity:1;fill-rule:evenodd;stroke:url(#linearGradient6014);stroke-width:.84925818;stroke-miterlimit:4;stroke-dasharray:none;stroke-opacity:1"/><path id="path112" d="M 6.3348098,8.4155903 A 2.0597849,1.3602352 0 1 1 2.21524,8.4155903 A 2.0597849,1.3602352 0 1 1 6.3348098,8.4155903 z" transform="matrix(1.213719,0,0,1.8385799,1.3113211,-1.9736361)" style="opacity:.3;fill:#5c3566;fill-opacity:1;fill-rule:evenodd;stroke:none;stroke-width:1;stroke-miterlimit:4;stroke-dasharray:none;stroke-opacity:1"/><path id="path114" d="M 9.133008,5.3647771 A 3.5560436,3.2451327 0 1 1 2.0209208,5.3647771 A 3.5560436,3.2451327 0 1 1 9.133008,5.3647771 z" transform="matrix(1.1167001,0,0,1.2326153,20.301169,6.8872937)" style="opacity:1;fill:#e9b96e;fill-opacity:1;fill-rule:evenodd;stroke:url(#linearGradient6006);stroke-width:.85234964;stroke-miterlimit:4;stroke-dasharray:none;stroke-opacity:1"/><path id="path116" d="M 24.890726,8.9210531 L 27.111912,8.9313645 C 27.022494,10.840054 26.60782,12.645095 26.270458,14.571533 C 27.483683,15.581997 27.994751,16.368589 28.40543,17.403226 L 26.302697,18 C 24.291705,15.898212 23.015216,12.887221 24.890726,8.9210531 z" style="opacity:.25098039;fill:#000;fill-opacity:1;fill-rule:evenodd;stroke:none;stroke-width:1px;stroke-linecap:butt;stroke-linejoin:miter;stroke-opacity:1"/><path id="path118" d="M 6.3348098,8.4155903 A 2.0597849,1.3602352 0 1 1 2.21524,8.4155903 A 2.0597849,1.3602352 0 1 1 6.3348098,8.4155903 z" transform="matrix(1.2387394,0,0,1.8379174,20.152822,-1.9671599)" style="opacity:.3;fill:#5c3566;fill-opacity:1;fill-rule:evenodd;stroke:none;stroke-width:1;stroke-miterlimit:4;stroke-dasharray:none;stroke-opacity:1"/><path id="path120" d="M 17.393564,10.457643 A 6.6449099,2.3675451 0 1 1 4.1037445,10.457643 A 6.6449099,2.3675451 0 1 1 17.393564,10.457643 z" transform="matrix(2.0774498,0,0,2.0420362,-6.3251913,4.8105025)" style="opacity:.6;fill:url(#radialGradient3363);fill-opacity:1;stroke:none;stroke-width:1;stroke-miterlimit:4;stroke-dasharray:none;stroke-opacity:1"/><path id="path122" d="M 16.005342,2.5000001 C 10.42746,2.5000001 6.9103166,5.5448578 6.9103165,10.523934 L 7.5999919,15.499827 C 6.1288239,16.230393 5.5,18.23666 5.5,20.289285 C 5.5,24.275035 8.9999866,28.455551 16.01,28.499646 C 23.111702,28.544781 26.499921,24.275035 26.499919,20.289285 C 26.508916,18.234463 25.770029,16.327172 24.399927,15.499827 L 25.109682,10.523934 C 25.109682,5.3424569 21.583224,2.5000001 16.005342,2.5000001 z" style="fill:url(#radialGradient6022);fill-opacity:1;fill-rule:evenodd;stroke:url(#linearGradient5998);stroke-width:1.00000012;stroke-miterlimit:4;stroke-opacity:1"/><path id="path124" d="M 16,3.53125 C 13.396379,3.53125 11.382527,4.218524 10.03125,5.40625 C 8.6799734,6.593976 7.9375,8.2808594 7.9375,10.53125 L 8.59375,15.375 C 8.6440701,15.803284 8.4185793,16.216684 8.03125,16.40625 C 7.1187586,16.859383 6.53125,18.434072 6.53125,20.28125 C 6.53125,23.673902 9.3925979,27.427188 16,27.46875 C 22.691626,27.51128 25.468752,23.689484 25.46875,20.28125 C 25.476677,18.470668 24.793359,16.929557 23.875,16.375 C 23.523862,16.158306 23.338627,15.750789 23.40625,15.34375 L 24.09375,10.53125 C 24.09375,8.1723596 23.351264,6.5040248 22,5.34375 C 20.648736,4.1834752 18.61591,3.53125 16,3.53125 z" style="opacity:.53731342;fill:url(#radialGradient3396);fill-opacity:1;fill-rule:evenodd;stroke:url(#linearGradient3404);stroke-width:1;stroke-miterlimit:4;stroke-opacity:1"/><path id="path126" d="M 12.5,8 C 10.016,8 9,9.6279298 9,12 C 9,13.186036 9.5768261,15.087067 10,16 C 7.9375001,16.537154 7,17 7,20.5 C 7,23.662759 11.032002,27.000002 16,27 C 20.967998,27 25,23.662759 25,20.5 C 25,17.5 24.062501,16.537154 22,16 C 22.5,15 23,13.186036 23,12 C 23,9.6279298 21.983051,8.0655554 19.5,8 C 17.9884,7.9606361 16.5,9 16.041222,10.049446 C 15.5,9 14.132028,8.0393637 12.5,8 z" style="opacity:1;fill:url(#radialGradient6021);fill-opacity:1;fill-rule:evenodd;stroke:none;stroke-width:1;stroke-miterlimit:4;stroke-dasharray:none;stroke-opacity:1"/><path id="path128" d="M 13.850374 16.211924 A 2.6223004 1.1102164 0 1 1 8.6057737,16.211924 A 2.6223004 1.1102164 0 1 1 13.850374 16.211924 z" transform="matrix(1.5253783,0,0,1.8014507,-1.12706,-16.204981)" style="opacity:.22000002;fill:url(#radialGradient6050);fill-opacity:1;stroke:none;stroke-width:.80000001;stroke-linecap:round;stroke-linejoin:miter;stroke-miterlimit:4;stroke-dasharray:none;stroke-opacity:1"/><path id="path6943" d="M 22.883267,18.033506 C 23,21.674033 20,20.939227 16,20.939227 C 12,20.939227 9,21.674033 9,18 C 10.5,19.469613 12.974193,19.476548 16,19.469613 C 19.025807,19.462678 21.5,19.469613 22.883267,18.033506 z" style="opacity:.5;fill:url(#radialGradient6951);fill-opacity:1;stroke:none;stroke-width:1;stroke-miterlimit:4;stroke-dasharray:none;stroke-opacity:1"/><path id="path131" d="M 22.883267,18.022799 C 23,20.5 20,20 16,20 C 12,20 9,20.5 9,18 C 10.5,19 12.974193,19.004719 16,19 C 19.025807,18.995281 21.5,19 22.883267,18.022799 z" style="opacity:1;fill:#5a3801;fill-opacity:1;stroke:none;stroke-width:1;stroke-miterlimit:4;stroke-dasharray:none;stroke-opacity:1"/><path id="path133" d="M 11.387112 9.8535538 A 1.1076201 1.7100101 0 1 1 9.1718723,9.8535538 A 1.1076201 1.7100101 0 1 1 11.387112 9.8535538 z" transform="matrix(1.354255,0,0,0.8771878,-0.421054,2.856583)" style="fill:url(#radialGradient6983);fill-opacity:1;fill-rule:evenodd;stroke:none;stroke-width:.79457355;stroke-miterlimit:4;stroke-dasharray:none;stroke-opacity:1"/><path id="path135" d="M 6.5000002 8.5870266 A 0.43086693 0.41297308 0 1 1 5.6382664,8.5870266 A 0.43086693 0.41297308 0 1 1 6.5000002 8.5870266 z" transform="matrix(1.8646976,0,0,1.8868698,1.6829017,-5.2026012)" style="opacity:.67164175;fill:#eeeeec;fill-opacity:1;stroke:none;stroke-width:.80000001;stroke-linecap:round;stroke-linejoin:miter;stroke-miterlimit:4;stroke-dasharray:none;stroke-opacity:1"/><path id="path137" d="M 11.387112 9.8535538 A 1.1076201 1.7100101 0 1 1 9.1718723,9.8535538 A 1.1076201 1.7100101 0 1 1 11.387112 9.8535538 z" transform="matrix(1.354255,0,0,0.8771878,4.5789461,2.856583)" style="fill:url(#radialGradient6985);fill-opacity:1;fill-rule:evenodd;stroke:none;stroke-width:1;stroke-miterlimit:4;stroke-dasharray:none;stroke-opacity:1"/><path id="path139" d="M 6.5000002 8.5870266 A 0.43086693 0.41297308 0 1 1 5.6382664,8.5870266 A 0.43086693 0.41297308 0 1 1 6.5000002 8.5870266 z" transform="matrix(1.8646976,0,0,1.7949512,6.6829017,-4.4132937)" style="opacity:.67164175;fill:#eeeeec;fill-opacity:1;stroke:none;stroke-width:.80000001;stroke-linecap:round;stroke-linejoin:miter;stroke-miterlimit:4;stroke-dasharray:none;stroke-opacity:1"/><path id="path5978" d="M 6.5000002 8.5870266 A 0.43086693 0.41297308 0 1 1 5.6382664,8.5870266 A 0.43086693 0.41297308 0 1 1 6.5000002 8.5870266 z" transform="matrix(2.4441331,0,0,1.4528792,-0.8868657,2.0240877)" style="opacity:.90671642;fill:#533401;fill-opacity:1;stroke:none;stroke-width:.80000001;stroke-linecap:round;stroke-linejoin:miter;stroke-miterlimit:4;stroke-dasharray:none;stroke-opacity:1"/><path id="path6019" d="M 6.5000002 8.5870266 A 0.43086693 0.41297308 0 1 1 5.6382664,8.5870266 A 0.43086693 0.41297308 0 1 1 6.5000002 8.5870266 z" transform="matrix(2.4297615,0,0,1.4528792,3.3003575,2.0240877)" style="opacity:.90671642;fill:#533401;fill-opacity:1;stroke:none;stroke-width:.80000001;stroke-linecap:round;stroke-linejoin:miter;stroke-miterlimit:4;stroke-dasharray:none;stroke-opacity:1"/></g><g id="g22" transform="translate(303,177) scale(1.000000,1.000000)" style="display:inline;enable-background:new"><path id="path144" d="M 9.133008,5.3647771 A 3.5560436,3.2451327 0 1 1 2.0209208,5.3647771 A 3.5560436,3.2451327 0 1 1 9.133008,5.3647771 z" transform="matrix(0.845651,0,0,0.926672,-1.2089937,4.5286064)" style="opacity:1;fill:#efca92;fill-opacity:1;fill-rule:evenodd;stroke:url(#linearGradient6014);stroke-width:1.12964344;stroke-miterlimit:4;stroke-dasharray:none;stroke-opacity:1"/><path id="path146" d="M 6.3348098,8.4155903 A 2.0597849,1.3602352 0 1 1 2.21524,8.4155903 A 2.0597849,1.3602352 0 1 1 6.3348098,8.4155903 z" transform="matrix(0.9692338,0,0,1.102752,-0.1399119,0.2196874)" style="opacity:.45522388;fill:#5c3566;fill-opacity:1;fill-rule:evenodd;stroke:none;stroke-width:1;stroke-miterlimit:4;stroke-dasharray:none;stroke-opacity:1"/><path id="path148" d="M 9.133008,5.3647771 A 3.5560436,3.2451327 0 1 1 2.0209208,5.3647771 A 3.5560436,3.2451327 0 1 1 9.133008,5.3647771 z" transform="matrix(0.844787,0,0,0.925724,13.792243,4.5301044)" style="opacity:1;fill:#efcb91;fill-opacity:1;fill-rule:evenodd;stroke:url(#linearGradient6006);stroke-width:1.13079917;stroke-miterlimit:4;stroke-dasharray:none;stroke-opacity:1"/><path id="path150" d="M 17.444314,6.046882 L 19.053348,6.0549708 C 18.988573,7.5522408 18.688182,8.9682035 18.443796,10.479396 C 19.32266,11.272054 19.692879,11.889095 19.990376,12.700715 L 18.46715,13.168854 C 17.010381,11.520108 16.085689,9.1581387 17.444314,6.046882 z" style="opacity:.25098039;fill:#000;fill-opacity:1;fill-rule:evenodd;stroke:none;stroke-width:1px;stroke-linecap:butt;stroke-linejoin:miter;stroke-opacity:1"/><path id="path152" d="M 6.3348098,8.4155903 A 2.0597849,1.3602352 0 1 1 2.21524,8.4155903 A 2.0597849,1.3602352 0 1 1 6.3348098,8.4155903 z" transform="matrix(0.9727173,0,0,1.102752,13.845198,0.2196834)" style="opacity:.45522388;fill:#5c3566;fill-opacity:1;fill-rule:evenodd;stroke:none;stroke-width:1;stroke-miterlimit:4;stroke-dasharray:none;stroke-opacity:1"/><path id="path154" d="M 17.393564,10.457643 A 6.6449099,2.3675451 0 1 1 4.1037445,10.457643 A 6.6449099,2.3675451 0 1 1 17.393564,10.457643 z" transform="matrix(1.504911,0,0,1.4783245,-5.1685927,3.0402104)" style="opacity:.6;fill:url(#radialGradient3363);fill-opacity:1;stroke:none;stroke-width:1;stroke-miterlimit:4;stroke-dasharray:none;stroke-opacity:1"/><path id="path156" d="M 10.538434,1.5042008 C 6.6225978,1.7314471 4.5073728,3.7251909 4.5073727,7.3637582 L 5,11 C 3.9491616,11.533876 3.5,13 3.5,14.5 C 3.5,17.412673 6,20.467675 11.007171,20.499899 C 16.079835,20.532882 18.500001,17.412673 18.5,14.5 C 18.506426,12.998394 17.978648,11.6046 17,11 L 17.50697,7.3637582 C 17.50697,3.577282 15.147061,1.5042008 11.007171,1.5042008 C 10.845455,1.5042008 10.697613,1.4949631 10.538434,1.5042008 z" style="fill:url(#radialGradient6022);fill-opacity:1;fill-rule:evenodd;stroke:url(#linearGradient5998);stroke-width:1;stroke-miterlimit:4;stroke-opacity:1"/><path id="path158" d="M 10.59375,2.5 C 8.7981648,2.6042025 7.5461736,3.1044783 6.75,3.875 C 5.9538264,4.6455217 5.53125,5.7526169 5.53125,7.375 L 6,10.875 C 6.055813,11.29599 5.8439323,11.707288 5.46875,11.90625 C 4.9833593,12.152852 4.53125,13.202826 4.53125,14.5 C 4.53125,16.83296 6.4039143,19.439172 11,19.46875 C 15.653931,19.49901 17.468751,16.84819 17.46875,14.5 C 17.474146,13.239149 16.992362,12.198483 16.46875,11.875 C 16.129179,11.663086 15.945653,11.271563 16,10.875 L 16.46875,7.375 C 16.46875,5.6928576 15.996401,4.5644706 15.125,3.78125 C 14.253599,2.9980294 12.899088,2.53125 11,2.53125 C 10.799592,2.53125 10.677489,2.4951403 10.59375,2.5 z" xlink:href="#path3346" style="opacity:.51119403;fill:url(#radialGradient3396);fill-opacity:1;fill-rule:evenodd;stroke:url(#linearGradient3404);stroke-width:1;stroke-miterlimit:4;stroke-opacity:1"/><path id="path160" d="M 8.4778629,5.0274809 C 6.8218628,5.0274809 6,6.3439989 6,8 C 6,8.828001 6.332,10.582 6.875,11.125 C 5.5,11.5 5,12 5,15 C 5,17.208 7.6880015,19.000001 11,19 C 14.311999,19 17,17.208 17,15 C 17,12 16.5,11.5 15.125,11.125 C 15.668,10.582 16,8.828001 16,8 C 16,6.3439987 15.150023,5.0732468 13.494656,5.0274809 C 12.486922,5 11.559829,5.986275 11.027481,6.4682726 C 10.495652,5.9886663 9.5658815,5.0549617 8.4778629,5.0274809 z" style="opacity:1;fill:url(#linearGradient6032);fill-opacity:1;fill-rule:evenodd;stroke:none;stroke-width:1;stroke-miterlimit:4;stroke-dasharray:none;stroke-opacity:1"/><path id="path162" d="M 13.850374 16.211924 A 2.6223004 1.1102164 0 1 1 8.6057737,16.211924 A 2.6223004 1.1102164 0 1 1 13.850374 16.211924 z" transform="matrix(1.1600407,0,0,1.2201762,-2.0362941,-10.382885)" style="opacity:.27843137;fill:url(#radialGradient6050);fill-opacity:1;stroke:none;stroke-width:.80000001;stroke-linecap:round;stroke-linejoin:miter;stroke-miterlimit:4;stroke-dasharray:none;stroke-opacity:1"/><path id="path5969" d="M 16.007173,11.999994 C 15.925922,15.555997 13.410992,14.962889 11.007173,14.962889 C 8.6033553,14.962889 5.9718325,15.268122 6.0071733,11.999994 C 7.138648,13.845327 8.925362,13.472737 11.020913,13.465798 C 13.309169,13.45858 15.07313,13.732943 16.007173,11.999994 z" style="opacity:.5;fill:#fff;fill-opacity:1;stroke:none;stroke-width:1;stroke-miterlimit:4;stroke-dasharray:none;stroke-opacity:1"/><path id="path165" d="M 16.007173,11.999994 C 15.925922,14.400351 13.410992,13.999994 11.007173,13.999994 C 8.6033553,13.999994 5.9718325,14.206031 6.0071733,11.999994 C 7.138648,13.245622 8.925362,12.994118 11.020913,12.989434 C 13.309169,12.984562 15.07313,13.169761 16.007173,11.999994 z" style="opacity:1;fill:#5e3a01;fill-opacity:1;stroke:none;stroke-width:1;stroke-miterlimit:4;stroke-dasharray:none;stroke-opacity:1"/><path id="path167" d="M 11.387112 9.8535538 A 1.1076201 1.7100101 0 1 1 9.1718723,9.8535538 A 1.1076201 1.7100101 0 1 1 11.387112 9.8535538 z" transform="matrix(1.0268898,0,0,0.625353,2.4041021,1.7686906)" style="opacity:1;fill:#000;fill-opacity:1;fill-rule:evenodd;stroke:none;stroke-width:1;stroke-miterlimit:4;stroke-dasharray:none;stroke-opacity:1"/><path id="path169" d="M 11.387112 9.8535538 A 1.1076201 1.7100101 0 1 1 9.1718723,9.8535538 A 1.1076201 1.7100101 0 1 1 11.387112 9.8535538 z" transform="matrix(1.0268898,0,0,0.625353,-1.5958979,1.7686906)" style="opacity:1;fill:#000;fill-opacity:1;fill-rule:evenodd;stroke:none;stroke-width:1;stroke-miterlimit:4;stroke-dasharray:none;stroke-opacity:1"/><path id="path171" d="M 6.5000002 8.5870266 A 0.43086693 0.41297308 0 1 1 5.6382664,8.5870266 A 0.43086693 0.41297308 0 1 1 6.5000002 8.5870266 z" transform="matrix(1.3507927,0,0,1.3659923,0.5221373,-3.9916403)" style="opacity:.6;fill:#eeeeec;fill-opacity:1;stroke:none;stroke-width:.80000001;stroke-linecap:round;stroke-linejoin:miter;stroke-miterlimit:4;stroke-dasharray:none;stroke-opacity:1"/><path id="path173" d="M 6.5000002 8.5870266 A 0.43086693 0.41297308 0 1 1 5.6382664,8.5870266 A 0.43086693 0.41297308 0 1 1 6.5000002 8.5870266 z" transform="matrix(1.3507927,0,0,1.2994482,4.4473309,-3.444786)" style="opacity:.6;fill:#eeeeec;fill-opacity:1;stroke:none;stroke-width:.80000001;stroke-linecap:round;stroke-linejoin:miter;stroke-miterlimit:4;stroke-dasharray:none;stroke-opacity:1"/><path id="path175" d="M 6.5000002 8.5870266 A 0.43086693 0.41297308 0 1 1 5.6382664,8.5870266 A 0.43086693 0.41297308 0 1 1 6.5000002 8.5870266 z" transform="matrix(1.1604511,0,0,1.2107327,2.4686165,0.1034061)" style="opacity:.67164175;fill:#533401;fill-opacity:1;stroke:none;stroke-width:.80000001;stroke-linecap:round;stroke-linejoin:miter;stroke-miterlimit:4;stroke-dasharray:none;stroke-opacity:1"/><path id="path5980" d="M 6.5000002 8.5870266 A 0.43086693 0.41297308 0 1 1 5.6382664,8.5870266 A 0.43086693 0.41297308 0 1 1 6.5000002 8.5870266 z" transform="matrix(1.1604511,0,0,1.2107327,5.4686165,0.1034061)" style="opacity:.67164175;fill:#533401;fill-opacity:1;stroke:none;stroke-width:.80000001;stroke-linecap:round;stroke-linejoin:miter;stroke-miterlimit:4;stroke-dasharray:none;stroke-opacity:1"/></g><g id="g16" transform="translate(303,219) scale(1.000000,1.000000)" style="display:inline;enable-background:new"><path id="path179" d="M 9.133008 5.3647771 A 3.5560436 3.2451327 0 1 1 2.0209208,5.3647771 A 3.5560436 3.2451327 0 1 1 9.133008 5.3647771 z" transform="matrix(0.6038153,0,0,0.7703141,-0.720263,2.8676655)" style="opacity:1;fill:#e9b96e;fill-opacity:1;fill-rule:evenodd;stroke:url(#linearGradient6014);stroke-width:1.46627021;stroke-miterlimit:4;stroke-dasharray:none;stroke-opacity:1"/><path id="path181" d="M 9.133008 5.3647771 A 3.5560436 3.2451327 0 1 1 2.0209208,5.3647771 A 3.5560436 3.2451327 0 1 1 9.133008 5.3647771 z" transform="matrix(0.6031984,0,0,0.7703845,9.9909841,2.8670585)" style="opacity:1;fill:#e9b96e;fill-opacity:1;fill-rule:evenodd;stroke:url(#linearGradient6006);stroke-width:1.4669522;stroke-miterlimit:4;stroke-dasharray:none;stroke-opacity:1"/><path id="path183" d="M 7.6614916,0.5030252 C 4.7898925,0.6704693 3.499999,2.3189597 3.4999989,5 L 3.4999989,8.5 C 2.7293879,8.8933817 2.5000001,9.3947407 2.5000001,10.5 C 2.5000001,12.646173 3.0104736,15.499618 8.0052303,15.499809 C 12.999987,15.5 13.499944,12.646173 13.499943,10.5 C 13.504656,9.3935569 13.217658,8.9454934 12.499987,8.5 L 12.499987,5 C 12.499987,2.2099745 11.041134,0.5030252 8.0052303,0.5030252 C 7.886639,0.5030252 7.7782221,0.4962184 7.6614916,0.5030252 z" style="fill:url(#radialGradient6022);fill-opacity:1;fill-rule:evenodd;stroke:url(#linearGradient5998);stroke-width:1;stroke-miterlimit:4;stroke-opacity:1"/><path id="path185" d="M 4.5415202,5 L 4.5415202,8.5 C 3.9743165,9.2698852 3.5050826,9.3486964 3.5050826,10.5 C 3.5050826,13.795386 5.3814722,14.46875 7.9982022,14.46875 C 10.566394,14.46875 12.491322,13.731116 12.491322,10.5 C 12.491322,9.564428 11.903205,9.1335243 11.454884,8.5 L 11.454884,5 C 11.454884,2.9556604 10.892497,1.53125 7.9982022,1.53125 C 4.9951413,1.53125 4.5137884,3.0420503 4.5415202,5 z" style="opacity:.4;fill:none;fill-opacity:1;fill-rule:evenodd;stroke:url(#linearGradient5980);stroke-width:1.00000012;stroke-miterlimit:4;stroke-opacity:1"/><path id="path187" d="M 6.1870947,3.6875 C 5.1298326,3.6875 4.4288037,5.104102 4.4183768,6.2841919 L 4.3987989,8.5 C 3.1181114,8.498659 3.0575771,9.5 3.1118402,10.97226 C 3.1865467,12.999187 4.8458729,14.0625 7.9753908,14.0625 C 11.104908,14.0625 12.764162,12.998926 12.842381,10.940313 C 12.899349,9.4410178 12.937659,8.5313137 11.551981,8.5 L 11.543778,6.2675797 C 11.53944,5.0874393 10.820946,3.6875 9.7636866,3.6875 C 8.8695387,3.6875 8.2307408,4.5297644 7.9753908,5.1875 C 7.7702147,4.5451613 7.0812428,3.6875 6.1870947,3.6875 z" style="fill:url(#linearGradient5977);fill-opacity:1;fill-rule:evenodd;stroke:none;stroke-width:1;stroke-miterlimit:4;stroke-dasharray:none;stroke-opacity:1"/><path id="path189" d="M 13.850374 16.211924 A 2.6223004 1.1102164 0 1 1 8.6057737,16.211924 A 2.6223004 1.1102164 0 1 1 13.850374 16.211924 z" transform="matrix(1.4214457,0,0,1.0400491,-7.9790834,-10.051837)" style="opacity:.39473684;fill:url(#radialGradient5970);fill-opacity:1;stroke:none;stroke-width:.80000001;stroke-linecap:round;stroke-linejoin:miter;stroke-miterlimit:4;stroke-dasharray:none;stroke-opacity:1"/><g id="g5962" transform="matrix(1.2496736,0,0,1,-1.3915376,0)"><path id="path5961" d="M 11,9.116117 C 10.943127,12.534475 9.182737,11.964325 7.500123,11.964325 C 5.8175098,11.964325 3.9755087,12.257743 4.0002465,9.116117 C 4.7922507,10.890019 6.0429066,10.53185 7.5097406,10.525181 C 9.1114637,10.518242 10.346192,10.781988 11,9.116117 z" style="opacity:.50746268;fill:#fff;fill-opacity:1;stroke:none;stroke-width:1;stroke-miterlimit:4;stroke-dasharray:none;stroke-opacity:1"/><path id="path193" d="M 11,9 C 10.943128,11.370663 9.182737,10.975259 7.500123,10.975259 C 5.8175097,10.975259 3.9755087,11.178747 4.0002465,9 C 4.7922507,10.230218 6.0429066,9.981824 7.5097406,9.977199 C 9.1114637,9.972387 10.346191,10.155297 11,9 z" style="opacity:1;fill:#794b01;fill-opacity:1;stroke:none;stroke-width:1;stroke-miterlimit:4;stroke-dasharray:none;stroke-opacity:1"/></g><path id="path195" d="M 11.387112 9.8535538 A 1.1076201 1.7100101 0 1 1 9.1718723,9.8535538 A 1.1076201 1.7100101 0 1 1 11.387112 9.8535538 z" transform="matrix(0.8962945,0,0,0.5847919,-3.2062063,0.2377215)" style="opacity:1;fill:#16191a;fill-opacity:1;fill-rule:evenodd;stroke:none;stroke-width:1;stroke-miterlimit:4;stroke-dasharray:none;stroke-opacity:1"/><path id="path5987" d="M 11.387112 9.8535538 A 1.1076201 1.7100101 0 1 1 9.1718723,9.8535538 A 1.1076201 1.7100101 0 1 1 11.387112 9.8535538 z" transform="matrix(0.8962945,0,0,0.5722317,0.7937937,0.3400068)" style="opacity:1;fill:#16191a;fill-opacity:1;fill-rule:evenodd;stroke:none;stroke-width:1;stroke-miterlimit:4;stroke-dasharray:none;stroke-opacity:1"/><path id="path5989" d="M -3.65625 6.578125 A 0.515625 0.515625 0 1 1 -4.6875,6.578125 A 0.515625 0.515625 0 1 1 -3.65625 6.578125 z" transform="translate(9.7071691,-1.2526679)" style="opacity:.58582093;fill:#eeeeec;fill-opacity:1;stroke:none;stroke-width:1;stroke-linecap:round;stroke-linejoin:miter;stroke-miterlimit:4;stroke-dasharray:none;stroke-opacity:1"/><path id="path5991" d="M -3.65625 6.578125 A 0.515625 0.515625 0 1 1 -4.6875,6.578125 A 0.515625 0.515625 0 1 1 -3.65625 6.578125 z" transform="translate(13.707169,-1.2526679)" style="opacity:.58582093;fill:#eeeeec;fill-opacity:1;stroke:none;stroke-width:1;stroke-linecap:round;stroke-linejoin:miter;stroke-miterlimit:4;stroke-dasharray:none;stroke-opacity:1"/></g></g></svg>