<svg xmlns="http://www.w3.org/2000/svg" xmlns:svg="http://www.w3.org/2000/svg" xmlns:xlink="http://www.w3.org/1999/xlink" id="svg11300" width="400" height="300" version="1.0" style="display:inline;enable-background:new"><title id="title8836">Direction Right to Left</title><metadata id="metadata154"/><defs id="defs3"><linearGradient id="linearGradient7024"><stop id="stop7026" offset="0" style="stop-color:#fff;stop-opacity:1"/><stop id="stop7028" offset="1" style="stop-color:#fff;stop-opacity:0"/></linearGradient><linearGradient id="linearGradient7016"><stop id="stop7018" offset="0" style="stop-color:#babdb6;stop-opacity:1"/><stop id="stop7020" offset="1" style="stop-color:#babdb6;stop-opacity:0"/></linearGradient><linearGradient id="linearGradient7008"><stop id="stop7010" offset="0" style="stop-color:#eeeeec;stop-opacity:1"/><stop id="stop7012" offset="1" style="stop-color:#eeeeec;stop-opacity:0"/></linearGradient><linearGradient id="linearGradient6990"><stop id="stop6992" offset="0" style="stop-color:#000;stop-opacity:1"/><stop id="stop6994" offset="1" style="stop-color:#000;stop-opacity:0"/></linearGradient><linearGradient id="linearGradient6980"><stop id="stop6982" offset="0" style="stop-color:#000;stop-opacity:1"/><stop id="stop6984" offset="1" style="stop-color:#000;stop-opacity:0"/></linearGradient><linearGradient id="linearGradient6717"><stop id="stop6719" offset="0" style="stop-color:#000;stop-opacity:1"/><stop id="stop6721" offset="1" style="stop-color:#000;stop-opacity:0"/></linearGradient><linearGradient id="linearGradient6705"><stop id="stop6707" offset="0" style="stop-color:#4e9a06;stop-opacity:1"/><stop id="stop6709" offset="1" style="stop-color:#fce94f;stop-opacity:1"/></linearGradient><linearGradient id="linearGradient6697"><stop id="stop6699" offset="0" style="stop-color:#fff;stop-opacity:1"/><stop id="stop6701" offset="1" style="stop-color:#fff;stop-opacity:0"/></linearGradient><linearGradient id="linearGradient6661"><stop id="stop6663" offset="0" style="stop-color:#d3d7cf;stop-opacity:1"/><stop id="stop6665" offset="1" style="stop-color:#2e3436;stop-opacity:1"/></linearGradient><linearGradient id="linearGradient6579"><stop id="stop6581" offset="0" style="stop-color:#fff;stop-opacity:1"/><stop id="stop6583" offset="1" style="stop-color:#fff;stop-opacity:0"/></linearGradient><linearGradient id="linearGradient5523"><stop id="stop5525" offset="0" style="stop-color:#555753;stop-opacity:1"/><stop id="stop5533" offset=".708" style="stop-color:#babdb6;stop-opacity:1"/><stop id="stop5527" offset="1" style="stop-color:#555753;stop-opacity:1"/></linearGradient><linearGradient id="linearGradient5513"><stop id="stop5515" offset="0" style="stop-color:#edd400;stop-opacity:1"/><stop id="stop5521" offset=".781" style="stop-color:#fff;stop-opacity:1"/><stop id="stop5517" offset="1" style="stop-color:#fce94f;stop-opacity:1"/></linearGradient><linearGradient id="linearGradient6605" x1="47.995" x2="47.995" y1="44.074" y2="40.908" gradientUnits="userSpaceOnUse" xlink:href="#linearGradient5523"/><linearGradient id="linearGradient6607" x1="29.781" x2="29.781" y1="43.875" y2="41.184" gradientUnits="userSpaceOnUse" xlink:href="#linearGradient5523"/><linearGradient id="linearGradient6609" x1="38.5" x2="38.5" y1="43.813" y2="41.25" gradientUnits="userSpaceOnUse" xlink:href="#linearGradient5513"/><linearGradient id="linearGradient6611" x1="29.781" x2="29.781" y1="43.875" y2="41.184" gradientUnits="userSpaceOnUse" xlink:href="#linearGradient5523"/><linearGradient id="linearGradient6613" x1="47.995" x2="47.995" y1="44.074" y2="40.908" gradientUnits="userSpaceOnUse" xlink:href="#linearGradient5523"/><linearGradient id="linearGradient6615" x1="29.781" x2="29.781" y1="43.875" y2="41.184" gradientUnits="userSpaceOnUse" xlink:href="#linearGradient5523"/><linearGradient id="linearGradient6617" x1="38.5" x2="38.5" y1="43.813" y2="41.25" gradientUnits="userSpaceOnUse" xlink:href="#linearGradient5513"/><linearGradient id="linearGradient6619" x1="30.313" x2="30.313" y1="41.438" y2="45.5" gradientUnits="userSpaceOnUse" xlink:href="#linearGradient6579"/><linearGradient id="linearGradient7392" x1="22.133" x2="12.124" y1="24.875" y2="24.875" gradientTransform="translate(0,12)" gradientUnits="userSpaceOnUse" xlink:href="#linearGradient7008"/><linearGradient id="linearGradient7394" x1="19.51" x2="10.304" y1="21.375" y2="21.375" gradientTransform="translate(0,12)" gradientUnits="userSpaceOnUse" xlink:href="#linearGradient7016"/><linearGradient id="linearGradient7396" x1="17.01" x2="12.665" y1="22.438" y2="22.438" gradientUnits="userSpaceOnUse" xlink:href="#linearGradient7024"/><linearGradient id="linearGradient7398" x1="4" x2="30.625" y1="40.417" y2=".936" gradientUnits="userSpaceOnUse" xlink:href="#linearGradient6980"/><linearGradient id="linearGradient7400" x1="14.098" x2="12.855" y1="36.222" y2="33.769" gradientTransform="matrix(0.9805819,-0.1961099,0.1961099,0.9805819,1.487642,8.1300739)" gradientUnits="userSpaceOnUse" xlink:href="#linearGradient5513"/><linearGradient id="linearGradient7402" x1="12.031" x2="11.156" y1="36.969" y2="35.531" gradientUnits="userSpaceOnUse" xlink:href="#linearGradient6697"/><radialGradient id="radialGradient7404" cx="15.352" cy="31.764" r="2.25" fx="15.352" fy="31.764" gradientUnits="userSpaceOnUse" xlink:href="#linearGradient6661"/><linearGradient id="linearGradient7406" x1="47.995" x2="47.995" y1="44.074" y2="40.908" gradientTransform="matrix(0.5547055,-0.8320468,0.8320468,0.5547055,-23.326373,29.920013)" gradientUnits="userSpaceOnUse" xlink:href="#linearGradient5523"/><linearGradient id="linearGradient7408" x1="29.781" x2="29.781" y1="43.875" y2="41.184" gradientTransform="matrix(0.5547055,-0.8320468,0.8320468,0.5547055,-23.326373,29.920013)" gradientUnits="userSpaceOnUse" xlink:href="#linearGradient5523"/><linearGradient id="linearGradient7410" x1="38.5" x2="38.5" y1="43.813" y2="41.25" gradientTransform="matrix(0.5547055,-0.8320468,0.8320468,0.5547055,-23.326373,29.920013)" gradientUnits="userSpaceOnUse" xlink:href="#linearGradient5513"/><linearGradient id="linearGradient7412" x1="29.781" x2="29.781" y1="43.875" y2="41.184" gradientTransform="matrix(0.5547055,-0.8320468,0.8320468,0.5547055,-23.326373,29.920013)" gradientUnits="userSpaceOnUse" xlink:href="#linearGradient5523"/><linearGradient id="linearGradient7414" x1="47.995" x2="47.995" y1="44.074" y2="40.908" gradientTransform="matrix(0.5547055,-0.8320468,0.8320468,0.5547055,-23.326373,29.920013)" gradientUnits="userSpaceOnUse" xlink:href="#linearGradient5523"/><linearGradient id="linearGradient7416" x1="29.781" x2="29.781" y1="43.875" y2="41.184" gradientTransform="matrix(0.5547055,-0.8320468,0.8320468,0.5547055,-23.326373,29.920013)" gradientUnits="userSpaceOnUse" xlink:href="#linearGradient5523"/><linearGradient id="linearGradient7418" x1="30.313" x2="30.313" y1="41.438" y2="45.5" gradientUnits="userSpaceOnUse" xlink:href="#linearGradient6579"/><linearGradient id="linearGradient7420" x1="38.5" x2="38.5" y1="43.813" y2="41.25" gradientTransform="matrix(0.5547055,-0.8320468,0.8320468,0.5547055,-23.326373,29.920013)" gradientUnits="userSpaceOnUse" xlink:href="#linearGradient5513"/><linearGradient id="linearGradient7422" x1="37.579" x2="39.86" y1="42.563" y2="40.594" gradientTransform="matrix(0.5547055,-0.8320468,0.8320468,0.5547055,-23.326373,29.920013)" gradientUnits="userSpaceOnUse" xlink:href="#linearGradient6705"/><linearGradient id="linearGradient7424" x1="11.531" x2="9.656" y1="35.781" y2="37.648" gradientTransform="matrix(0.9805819,-0.1961099,0.1961099,0.9805819,1.6408569,8.2587761)" gradientUnits="userSpaceOnUse" xlink:href="#linearGradient6717"/><radialGradient id="radialGradient7426" cx="12.507" cy="37.747" r="10.386" fx="12.507" fy="37.747" gradientTransform="matrix(1,0,0,0.3319149,0,25.218177)" gradientUnits="userSpaceOnUse" xlink:href="#linearGradient6990"/><linearGradient id="linearGradient7102"><stop id="stop7104" offset="0" style="stop-color:#fff;stop-opacity:0"/><stop id="stop7145" offset=".281" style="stop-color:#fff;stop-opacity:0"/><stop id="stop7106" offset="1" style="stop-color:#fff;stop-opacity:1"/></linearGradient><linearGradient id="linearGradient7086"><stop id="stop7088" offset="0" style="stop-color:#fff;stop-opacity:1"/><stop id="stop7090" offset="1" style="stop-color:#fff;stop-opacity:0"/></linearGradient><linearGradient id="linearGradient5510" x1="4" x2="27.103" y1="40.417" y2="15.048" gradientUnits="userSpaceOnUse" xlink:href="#linearGradient6980"/><linearGradient id="linearGradient5512" x1="14.098" x2="12.855" y1="36.222" y2="33.769" gradientTransform="matrix(0.9805819,-0.1961099,0.1961099,0.9805819,1.487642,8.1300739)" gradientUnits="userSpaceOnUse" xlink:href="#linearGradient5513"/><linearGradient id="linearGradient5514" x1="12.031" x2="11.156" y1="36.969" y2="35.531" gradientUnits="userSpaceOnUse" xlink:href="#linearGradient6697"/><radialGradient id="radialGradient5516" cx="15.352" cy="31.764" r="2.25" fx="15.352" fy="31.764" gradientUnits="userSpaceOnUse" xlink:href="#linearGradient6661"/><linearGradient id="linearGradient5518" x1="47.995" x2="47.995" y1="44.074" y2="40.908" gradientTransform="matrix(0.5547055,-0.8320468,0.8320468,0.5547055,-23.326373,29.920013)" gradientUnits="userSpaceOnUse" xlink:href="#linearGradient5523"/><linearGradient id="linearGradient5520" x1="29.781" x2="29.781" y1="43.875" y2="41.184" gradientTransform="matrix(0.5547055,-0.8320468,0.8320468,0.5547055,-23.326373,29.920013)" gradientUnits="userSpaceOnUse" xlink:href="#linearGradient5523"/><linearGradient id="linearGradient5522" x1="38.5" x2="38.5" y1="43.813" y2="41.25" gradientTransform="matrix(0.5547055,-0.8320468,0.8320468,0.5547055,-23.326373,29.920013)" gradientUnits="userSpaceOnUse" xlink:href="#linearGradient5513"/><linearGradient id="linearGradient5524" x1="29.781" x2="29.781" y1="43.875" y2="41.184" gradientTransform="matrix(0.5547055,-0.8320468,0.8320468,0.5547055,-23.326373,29.920013)" gradientUnits="userSpaceOnUse" xlink:href="#linearGradient5523"/><linearGradient id="linearGradient5526" x1="47.995" x2="47.995" y1="44.074" y2="40.908" gradientTransform="matrix(0.5547055,-0.8320468,0.8320468,0.5547055,-23.326373,29.920013)" gradientUnits="userSpaceOnUse" xlink:href="#linearGradient5523"/><linearGradient id="linearGradient5528" x1="29.781" x2="29.781" y1="43.875" y2="41.184" gradientTransform="matrix(0.5547055,-0.8320468,0.8320468,0.5547055,-23.326373,29.920013)" gradientUnits="userSpaceOnUse" xlink:href="#linearGradient5523"/><linearGradient id="linearGradient5530" x1="30.313" x2="30.313" y1="41.438" y2="45.5" gradientUnits="userSpaceOnUse" xlink:href="#linearGradient6579"/><linearGradient id="linearGradient5532" x1="38.5" x2="38.5" y1="43.813" y2="41.25" gradientTransform="matrix(0.5547055,-0.8320468,0.8320468,0.5547055,-23.326373,29.920013)" gradientUnits="userSpaceOnUse" xlink:href="#linearGradient5513"/><linearGradient id="linearGradient5534" x1="37.579" x2="39.86" y1="42.563" y2="40.594" gradientTransform="matrix(0.5547055,-0.8320468,0.8320468,0.5547055,-23.326373,29.920013)" gradientUnits="userSpaceOnUse" xlink:href="#linearGradient6705"/><linearGradient id="linearGradient5536" x1="11.531" x2="9.656" y1="35.781" y2="37.648" gradientTransform="matrix(0.9805819,-0.1961099,0.1961099,0.9805819,1.6408569,8.2587761)" gradientUnits="userSpaceOnUse" xlink:href="#linearGradient6717"/><radialGradient id="radialGradient5538" cx="12.507" cy="37.747" r="10.386" fx="12.507" fy="37.747" gradientTransform="matrix(1,0,0,0.3319149,0,25.218177)" gradientUnits="userSpaceOnUse" xlink:href="#linearGradient6990"/><linearGradient id="linearGradient7116" x1="22.133" x2="12.124" y1="24.875" y2="24.875" gradientTransform="translate(0,12)" gradientUnits="userSpaceOnUse" xlink:href="#linearGradient7008"/><linearGradient id="linearGradient7118" x1="19.51" x2="10.304" y1="21.375" y2="21.375" gradientTransform="translate(0,12)" gradientUnits="userSpaceOnUse" xlink:href="#linearGradient7016"/><linearGradient id="linearGradient7120" x1="27.472" x2="11.828" y1="38.185" y2="38.185" gradientUnits="userSpaceOnUse" xlink:href="#linearGradient7086"/><radialGradient id="radialGradient7160" cx="32" cy="0" r="16" fx="32" fy="0" gradientTransform="matrix(0.3876439,0.2238066,-0.3694437,0.6398953,24.595401,8.8381851)" gradientUnits="userSpaceOnUse" xlink:href="#linearGradient7102"/><mask id="mask7156" maskUnits="userSpaceOnUse"><rect id="rect7158" width="32" height="32" x="5" y="16" style="opacity:1;fill:url(#radialGradient7160);fill-opacity:1;stroke:none;stroke-width:1;stroke-linecap:round;stroke-linejoin:miter;stroke-miterlimit:4;stroke-dasharray:none;stroke-dashoffset:.7;stroke-opacity:1"/></mask><linearGradient id="linearGradient7019"><stop id="stop7021" offset="0" style="stop-color:#fff;stop-opacity:1"/><stop id="stop7023" offset="1" style="stop-color:#fff;stop-opacity:0"/></linearGradient><linearGradient id="linearGradient6432"><stop id="stop6434" offset="0" style="stop-color:#fff;stop-opacity:1"/><stop id="stop6436" offset="1" style="stop-color:#fff;stop-opacity:0"/></linearGradient><linearGradient id="linearGradient6447" x1="20.641" x2="12.421" y1="24.875" y2="24.875" gradientTransform="matrix(0.9206265,0,0,0.8939732,6.556147,14.949219)" gradientUnits="userSpaceOnUse" xlink:href="#linearGradient7008"/><linearGradient id="linearGradient6449" x1="18.748" x2="12.08" y1="21.375" y2="21.375" gradientTransform="matrix(0.9206265,0,0,0.8939732,6.556147,14.949219)" gradientUnits="userSpaceOnUse" xlink:href="#linearGradient7016"/><linearGradient id="linearGradient6555" x1="17.589" x2="20.418" y1="5.118" y2="1.359" gradientTransform="translate(9,25)" gradientUnits="userSpaceOnUse" xlink:href="#linearGradient6432"/><mask id="mask6551" maskUnits="userSpaceOnUse"><rect id="rect6553" width="22.009" height="22.009" x="9" y="24.991" style="opacity:1;fill:url(#linearGradient6555);fill-opacity:1;stroke:none;stroke-width:.89999998;stroke-linecap:round;stroke-linejoin:round;stroke-miterlimit:4;stroke-dasharray:none;stroke-dashoffset:.7;stroke-opacity:1"/></mask><linearGradient id="linearGradient7025" x1="24.117" x2="18.607" y1="35.789" y2="35.789" gradientUnits="userSpaceOnUse" xlink:href="#linearGradient7019"/><linearGradient id="linearGradient7111"><stop id="stop7113" offset="0" style="stop-color:#888a85;stop-opacity:1"/><stop id="stop7115" offset="1" style="stop-color:#888a85;stop-opacity:0"/></linearGradient><linearGradient id="linearGradient7103"><stop id="stop7105" offset="0" style="stop-color:#2e3436;stop-opacity:1"/><stop id="stop7107" offset="1" style="stop-color:#2e3436;stop-opacity:0"/></linearGradient><linearGradient id="linearGradient7095"><stop id="stop7097" offset="0" style="stop-color:#fff;stop-opacity:1"/><stop id="stop7099" offset="1" style="stop-color:#fff;stop-opacity:0"/></linearGradient><linearGradient id="linearGradient7155" x1="25.029" x2="20.335" y1="24.875" y2="24.875" gradientTransform="matrix(0.9206265,0,0,0.8939732,6.556147,14.949219)" gradientUnits="userSpaceOnUse" xlink:href="#linearGradient7008"/><linearGradient id="linearGradient7157" x1="23.462" x2="19.933" y1="21.375" y2="21.375" gradientTransform="matrix(0.9206265,0,0,0.8939732,6.556147,14.949219)" gradientUnits="userSpaceOnUse" xlink:href="#linearGradient7016"/><linearGradient id="linearGradient7159" x1="5.237" x2=".441" y1="15.631" y2="15.631" gradientUnits="userSpaceOnUse" xlink:href="#linearGradient7019"/><linearGradient id="linearGradient7161" x1="5.237" x2=".441" y1="15.631" y2="15.631" gradientUnits="userSpaceOnUse" xlink:href="#linearGradient7019"/><linearGradient id="linearGradient7163" x1="5.237" x2=".441" y1="15.631" y2="15.631" gradientUnits="userSpaceOnUse" xlink:href="#linearGradient7019"/><linearGradient id="linearGradient7165" x1="26.87" x2="24.82" y1="38.261" y2="38.261" gradientUnits="userSpaceOnUse" xlink:href="#linearGradient7019"/><linearGradient id="linearGradient7167" x1="4.464" x2="4.464" y1="2.698" y2="-.043" gradientUnits="userSpaceOnUse" xlink:href="#linearGradient7111"/><linearGradient id="linearGradient7169" x1="2.342" x2="2.342" y1="2" y2="-.353" gradientUnits="userSpaceOnUse" xlink:href="#linearGradient7103"/><linearGradient id="linearGradient7171" x1="4.249" x2="5.844" y1="2.219" y2="2.219" gradientUnits="userSpaceOnUse" xlink:href="#linearGradient7095"/></defs><g id="layer6" style="display:none"><rect id="rect6284" width="48" height="48" x="296" y="50" style="fill:#eeeeec;fill-opacity:1;fill-rule:nonzero;stroke:none;stroke-width:2;marker:none;visibility:visible;display:inline;overflow:visible;enable-background:accumulate"/><rect id="rect6592" width="32" height="32" x="303" y="126" style="fill:#eeeeec;fill-opacity:1;fill-rule:nonzero;stroke:none;stroke-width:2;marker:none;visibility:visible;display:inline;overflow:visible;enable-background:accumulate"/><rect id="rect6749" width="22" height="22" x="303" y="177" style="fill:#eeeeec;fill-opacity:1;fill-rule:nonzero;stroke:none;stroke-width:2;marker:none;visibility:visible;display:inline;overflow:visible;enable-background:accumulate"/><rect id="rect6833" width="16" height="16" x="303" y="219" style="fill:#eeeeec;fill-opacity:1;fill-rule:nonzero;stroke:none;stroke-width:2;marker:none;visibility:visible;display:inline;overflow:visible;enable-background:accumulate"/><text id="context" x="20.971" y="21.514" xml:space="preserve" style="font-size:18.30070686px;font-style:normal;font-weight:400;fill:#000;fill-opacity:1;stroke:none;display:inline;enable-background:new;font-family:Bitstream Vera Sans"><tspan id="tspan2716" x="20.971" y="21.514">actions</tspan></text><text id="icon-name" x="191.971" y="21.514" xml:space="preserve" style="font-size:18.30070686px;font-style:normal;font-variant:normal;font-weight:700;font-stretch:normal;text-align:start;line-height:125%;writing-mode:lr-tb;text-anchor:start;fill:#000;fill-opacity:1;stroke:none;display:inline;enable-background:new;font-family:Droid Sans;-inkscape-font-specification:Droid Sans Bold"><tspan id="tspan3023" x="191.971" y="21.514">format-text-direction-rtl</tspan></text></g><g id="layer2" style="display:inline"><g id="g48" transform="translate(296,50)" style="display:inline;enable-background:new"><g id="g7348" transform="matrix(-1,0,0,1,47.236701,4)" style="display:inline"><g id="g7350" transform="matrix(1,0,0.5773503,1,-21.073285,0)"><path id="path7352" d="m 36.46875,29.5 0,4 -27.96875,0 0,6 27.96875,0 0,4 10,-7 -10,-7 z" style="fill:url(#linearGradient7392);fill-opacity:1;stroke:url(#linearGradient7394);stroke-width:.99999994;stroke-linecap:round;stroke-linejoin:miter;stroke-miterlimit:4;stroke-opacity:1;stroke-dasharray:none;stroke-dashoffset:.7"/><path id="path7354" d="m 37.46875,19.40625 0,2.09375 a 0.99404106,0.99404106 0 0 1 -1,1 L 9.5,22.5 l 0,4 26.96875,0 a 0.99404106,0.99404106 0 0 1 1,1 l 0,2.09375 L 44.75,24.5 37.46875,19.40625 z" transform="translate(0,12)" style="fill:none;stroke:url(#linearGradient7396);stroke-width:.99999994;stroke-linecap:round;stroke-linejoin:miter;stroke-miterlimit:4;stroke-opacity:1;stroke-dasharray:none;stroke-dashoffset:.7"/></g></g><g id="g7356" style="display:inline"><path id="path7358" d="M 41.75,0.9375 C 41.394764,0.92423258 40.969907,0.98917687 40.625,1.25 35.447406,5.1653676 29.761254,10.193226 24.0625,16.71875 A 0.50005,0.50005 0 0 0 23.625,16.875 l -1.40625,1.40625 -11.3125,11.3125 a 0.50005,0.50005 0 0 0 -0.0625,0.625 c -0.597604,0.27358 -1.0383411,0.795382 -1.21875,1.4375 -3.2114647,1.945882 -4.6036235,4.521935 -7.53125,7.9375 a 0.50005,0.50005 0 0 0 0.6875,0.71875 C 3.5900818,39.673262 5.1575373,39.308197 6.71875,39 c 1.5612127,-0.308197 3.1057631,-0.543264 4,-1.4375 0.520791,-0.520791 0.576133,-1.132206 0.6875,-1.625 0.111367,-0.492794 0.261557,-0.942886 0.9375,-1.5625 A 0.50005,0.50005 0 0 0 12.375,34.34375 c 0.625337,-0.187373 1.138004,-0.601548 1.40625,-1.1875 A 0.50005,0.50005 0 0 0 14.4375,33.125 L 25.75,21.8125 27.15625,20.40625 A 0.50005,0.50005 0 0 0 27.3125,19.9375 C 33.822107,14.224895 38.821307,8.5371667 42.75,3.375 43.002978,3.042597 43.073097,2.6412307 43.0625,2.28125 43.051903,1.9212693 42.959003,1.5840033 42.6875,1.3125 42.421116,1.0461158 42.0942,0.95035524 41.75,0.9375 z" transform="matrix(0.8030457,0,0,0.3319597,13.389033,33.000204)" style="opacity:.16379311;fill:url(#linearGradient7398);fill-opacity:1;fill-rule:evenodd;stroke:none"/><path id="path7360" d="m 15.672851,45.997744 c 2.255361,-4.020366 3.052283,-6.755981 5.818454,-9.234588 l 2.353384,1.568944 c -1.201222,1.642465 -0.357825,2.543844 -0.971936,3.464997 -1.079763,1.619622 -5.600318,2.319169 -7.199902,4.200647 z" style="fill:url(#linearGradient7400);fill-opacity:1;fill-rule:evenodd;stroke:#4e9a06;stroke-width:1px;stroke-linecap:round;stroke-linejoin:round;stroke-opacity:1"/><path id="path7362" d="m 13.90625,33.15625 c -1.800486,1.203571 -3.181844,2.841219 -4.6875,4.75 0.4172057,-0.08912 0.843332,-0.20097 1.25,-0.28125 1.564283,-0.308803 2.957001,-0.707002 3.28125,-1.03125 0.162868,-0.162868 0.174771,-0.359305 0.3125,-0.96875 0.0965,-0.427004 0.342114,-0.990533 0.75,-1.5625 l -0.90625,-0.90625 z" transform="matrix(0.9805819,-0.1961099,0.1961099,0.9805819,1.487642,8.1300739)" style="fill:none;stroke:url(#linearGradient7402);stroke-width:1px;stroke-linecap:round;stroke-linejoin:miter;stroke-opacity:1"/><path id="path7364" d="M 17.5,32.25 C 17.5,33.216498 16.716498,34 15.75,34 14.783502,34 14,33.216498 14,32.25 c 0,-0.966498 0.783502,-1.75 1.75,-1.75 0.966498,0 1.75,0.783502 1.75,1.75 z" transform="matrix(0.9805819,-0.1961099,0.1961099,0.9805819,1.487642,8.1300739)" style="fill:url(#radialGradient7404);fill-opacity:1;stroke:#2e3436;stroke-width:1;stroke-linecap:round;stroke-linejoin:round;stroke-miterlimit:4;stroke-opacity:1;stroke-dasharray:none;stroke-dashoffset:.7"/><path id="path7366" d="M 30.586054,23.175922 C 35.471952,13.83408 40.857463,6.5874398 45.872663,0.93736625 46.24285,0.52031613 46.945948,0.45104409 47.27056,0.66745468 47.595171,0.88386526 47.780725,1.5457616 47.536757,2.0467773 44.230647,8.8362603 39.632186,16.607608 32.910325,24.725458 l -2.324271,-1.549536 z" style="fill:url(#linearGradient7406);fill-opacity:1;stroke:#2e3436;stroke-width:1;stroke-linecap:round;stroke-linejoin:round;stroke-miterlimit:4;stroke-opacity:1;stroke-dashoffset:.7"/><path id="path7368" d="m 22.297691,34.49658 8.875288,-13.312749 3.356334,2.237587 -8.875288,13.312749 -3.356334,-2.237587 z" style="fill:url(#linearGradient7408);fill-opacity:1;stroke:#2e3436;stroke-width:1;stroke-linecap:round;stroke-linejoin:round;stroke-miterlimit:4;stroke-opacity:1;stroke-dashoffset:.7"/><path id="path7370" d="m 31.172978,21.183832 1.109411,-1.664093 3.356333,2.237586 -1.109411,1.664094 -3.356333,-2.237587 z" style="fill:url(#linearGradient7410);fill-opacity:1;stroke:#4e9a06;stroke-width:1;stroke-linecap:round;stroke-linejoin:round;stroke-miterlimit:4;stroke-opacity:1;stroke-dashoffset:.7"/><path id="path7372" d="m 22.297691,34.49658 8.875288,-13.312749 3.356334,2.237587 -8.875288,13.312749 -3.356334,-2.237587 z" style="fill:url(#linearGradient7412);fill-opacity:1;stroke:#2e3436;stroke-width:1;stroke-linecap:round;stroke-linejoin:round;stroke-miterlimit:4;stroke-opacity:1;stroke-dashoffset:.7"/><path id="path7374" d="M 30.586054,23.175922 C 35.471952,13.83408 40.857463,6.5874398 45.872663,0.93736625 46.24285,0.52031613 46.945948,0.45104409 47.27056,0.66745468 47.595171,0.88386526 47.780725,1.5457616 47.536757,2.0467773 44.230647,8.8362603 39.632186,16.607608 32.910325,24.725458 l -2.324271,-1.549536 z" style="fill:url(#linearGradient7414);fill-opacity:1;stroke:#2e3436;stroke-width:1;stroke-linecap:round;stroke-linejoin:round;stroke-miterlimit:4;stroke-opacity:1;stroke-dashoffset:.7"/><path id="path7376" d="m 22.297691,34.49658 8.875288,-13.312749 3.356334,2.237587 -8.875288,13.312749 -3.356334,-2.237587 z" style="fill:url(#linearGradient7416);fill-opacity:1;stroke:#2e3436;stroke-width:1;stroke-linecap:round;stroke-linejoin:round;stroke-miterlimit:4;stroke-opacity:1;stroke-dashoffset:.7"/><g id="g7378" transform="matrix(0.5547055,-0.8320468,0.8320468,0.5547055,-23.326373,29.920013)" style="opacity:.6"><path id="path7380" d="m 46.6875,41.46875 c -2.276302,0.01795 -4.656476,0.135193 -7.125,0.3125 A 0.99524549,0.99524549 0 0 1 38.8125,41.5 l -16.3125,0 0,2.03125 16.3125,0 a 0.99524549,0.99524549 0 0 1 0.75,-0.28125 c 8.722372,0.604741 16.352332,0.126534 22.8125,-0.75 -4.634984,-0.643399 -9.881984,-1.07703 -15.6875,-1.03125 z" style="fill:none;stroke:url(#linearGradient7418);stroke-width:1;stroke-linecap:round;stroke-linejoin:miter;stroke-miterlimit:4;stroke-opacity:1;stroke-dasharray:none;stroke-dashoffset:.7"/><path id="path7382" d="M 63,42.5 C 63,42.776142 62.776142,43 62.5,43 62.223858,43 62,42.776142 62,42.5 62,42.223858 62.223858,42 62.5,42 c 0.276142,0 0.5,0.223858 0.5,0.5 z" style="fill:#fff;fill-opacity:1;stroke:none"/></g><path id="path7384" d="m 31.172978,21.183832 1.109411,-1.664093 3.356333,2.237586 -1.109411,1.664094 -3.356333,-2.237587 z" style="fill:url(#linearGradient7420);fill-opacity:1;stroke:url(#linearGradient7422);stroke-width:1;stroke-linecap:round;stroke-linejoin:round;stroke-miterlimit:4;stroke-opacity:1;stroke-dashoffset:.7"/><path id="path7386" d="m 12.66163,35.371513 c 0,0.225772 -0.27701,0.408796 -0.618718,0.408796 -0.341709,0 -0.618719,-0.183024 -0.618719,-0.408796 0,-0.225771 0.27701,-0.408796 0.618719,-0.408796 0.341708,0 0.618718,0.183025 0.618718,0.408796 z" transform="matrix(0.8965957,-0.7649487,0.7718401,0.9046732,-17.618983,17.696751)" style="fill:#000;fill-opacity:1;stroke:none"/><path id="path7388" d="M 20.287005,40.700793 16.72011,45.891719" style="fill:none;stroke:url(#linearGradient7424);stroke-width:.40000001;stroke-linecap:butt;stroke-linejoin:miter;stroke-miterlimit:4;stroke-opacity:1;stroke-dasharray:none"/><path id="path7390" d="m 22.892582,37.746952 c 0,1.903806 -4.649805,3.447146 -10.385631,3.447146 -5.7358251,0 -10.3856303,-1.54334 -10.3856303,-3.447146 0,-1.903806 4.6498052,-3.447145 10.3856303,-3.447145 5.735826,0 10.385631,1.543339 10.385631,3.447145 z" transform="matrix(1.2158145,-0.2952583,0.2632186,1.0838813,-0.678155,5.4608746)" style="opacity:.16379311;fill:url(#radialGradient7426);fill-opacity:1;stroke:none"/></g></g><g id="g32" transform="translate(303,126)" style="display:inline;enable-background:new"><g id="g7094" transform="translate(0,-1)"><g id="g5460" transform="matrix(-0.8,0,0,0.8,37.91436,-3.0999999)" style="display:inline"><g id="g5462" transform="matrix(1,0,0.5773503,1,-21.073285,0)"><path id="path5464" d="m 36.46875,29.5 -0.0097,3.746094 -27.9687502,0 L 8.5,39.5 l 27.96875,0 0,4 10,-7 -10,-7 z" style="fill:url(#linearGradient7116);fill-opacity:1;stroke:url(#linearGradient7118);stroke-width:1.24999988;stroke-linecap:round;stroke-linejoin:miter;stroke-miterlimit:4;stroke-opacity:1;stroke-dasharray:none;stroke-dashoffset:.7"/></g></g><path id="path6061" d="m 37.71875,31.90625 0,1.34375 c -6.9e-5,0.690327 -0.559673,1.249931 -1.25,1.25 l -26.71875,0 0,3.75 26.71875,0 c 0.690327,6.9e-5 1.249931,0.559673 1.25,1.25 l 0.164583,1.7871 6.340384,-4.400401 -6.504967,-4.980449 z" transform="matrix(-0.8,0,-0.4618802,0.8,54.772988,-3.0999999)" style="fill:none;stroke:url(#linearGradient7120);stroke-width:1.24999988;stroke-linecap:round;stroke-linejoin:miter;stroke-miterlimit:4;stroke-opacity:1;stroke-dashoffset:.7;display:inline"/></g><g id="g5468" mask="url(#mask7156)" transform="translate(-5,-16)" style="display:inline"><path id="path5470" d="M 41.75,0.9375 C 41.394764,0.92423258 40.969907,0.98917687 40.625,1.25 35.447406,5.1653676 29.761254,10.193226 24.0625,16.71875 A 0.50005,0.50005 0 0 0 23.625,16.875 l -1.40625,1.40625 -11.3125,11.3125 a 0.50005,0.50005 0 0 0 -0.0625,0.625 c -0.597604,0.27358 -1.0383411,0.795382 -1.21875,1.4375 -3.2114647,1.945882 -4.6036235,4.521935 -7.53125,7.9375 a 0.50005,0.50005 0 0 0 0.6875,0.71875 C 3.5900818,39.673262 5.1575373,39.308197 6.71875,39 c 1.5612127,-0.308197 3.1057631,-0.543264 4,-1.4375 0.520791,-0.520791 0.576133,-1.132206 0.6875,-1.625 0.111367,-0.492794 0.261557,-0.942886 0.9375,-1.5625 A 0.50005,0.50005 0 0 0 12.375,34.34375 c 0.625337,-0.187373 1.138004,-0.601548 1.40625,-1.1875 A 0.50005,0.50005 0 0 0 14.4375,33.125 L 25.75,21.8125 27.15625,20.40625 A 0.50005,0.50005 0 0 0 27.3125,19.9375 C 33.822107,14.224895 38.821307,8.5371667 42.75,3.375 43.002978,3.042597 43.073097,2.6412307 43.0625,2.28125 43.051903,1.9212693 42.959003,1.5840033 42.6875,1.3125 42.421116,1.0461158 42.0942,0.95035524 41.75,0.9375 z" transform="matrix(0.8030457,0,0,0.3319597,13.389033,33.000204)" style="opacity:.16379311;fill:url(#linearGradient5510);fill-opacity:1;fill-rule:evenodd;stroke:none"/><path id="path5472" d="m 15.672851,45.997744 c 2.255361,-4.020366 3.052283,-6.755981 5.818454,-9.234588 l 2.353384,1.568944 c -1.201222,1.642465 -0.357825,2.543844 -0.971936,3.464997 -1.079763,1.619622 -5.600318,2.319169 -7.199902,4.200647 z" style="fill:url(#linearGradient5512);fill-opacity:1;fill-rule:evenodd;stroke:#4e9a06;stroke-width:1px;stroke-linecap:round;stroke-linejoin:round;stroke-opacity:1"/><path id="path5474" d="m 13.90625,33.15625 c -1.800486,1.203571 -3.181844,2.841219 -4.6875,4.75 0.4172057,-0.08912 0.843332,-0.20097 1.25,-0.28125 1.564283,-0.308803 2.957001,-0.707002 3.28125,-1.03125 0.162868,-0.162868 0.174771,-0.359305 0.3125,-0.96875 0.0965,-0.427004 0.342114,-0.990533 0.75,-1.5625 l -0.90625,-0.90625 z" transform="matrix(0.9805819,-0.1961099,0.1961099,0.9805819,1.487642,8.1300739)" style="fill:none;stroke:url(#linearGradient5514);stroke-width:1px;stroke-linecap:round;stroke-linejoin:miter;stroke-opacity:1"/><path id="path5476" d="M 17.5,32.25 C 17.5,33.216498 16.716498,34 15.75,34 14.783502,34 14,33.216498 14,32.25 c 0,-0.966498 0.783502,-1.75 1.75,-1.75 0.966498,0 1.75,0.783502 1.75,1.75 z" transform="matrix(0.9805819,-0.1961099,0.1961099,0.9805819,1.487642,8.1300739)" style="fill:url(#radialGradient5516);fill-opacity:1;stroke:#2e3436;stroke-width:1;stroke-linecap:round;stroke-linejoin:round;stroke-miterlimit:4;stroke-opacity:1;stroke-dasharray:none;stroke-dashoffset:.7"/><path id="path5478" d="M 30.586054,23.175922 C 35.471952,13.83408 40.857463,6.5874398 45.872663,0.93736625 46.24285,0.52031613 46.945948,0.45104409 47.27056,0.66745468 47.595171,0.88386526 47.780725,1.5457616 47.536757,2.0467773 44.230647,8.8362603 39.632186,16.607608 32.910325,24.725458 l -2.324271,-1.549536 z" style="fill:url(#linearGradient5518);fill-opacity:1;stroke:#2e3436;stroke-width:1;stroke-linecap:round;stroke-linejoin:round;stroke-miterlimit:4;stroke-opacity:1;stroke-dashoffset:.7"/><path id="path5480" d="m 22.297691,34.49658 8.875288,-13.312749 3.356334,2.237587 -8.875288,13.312749 -3.356334,-2.237587 z" style="fill:url(#linearGradient5520);fill-opacity:1;stroke:#2e3436;stroke-width:1;stroke-linecap:round;stroke-linejoin:round;stroke-miterlimit:4;stroke-opacity:1;stroke-dashoffset:.7"/><path id="path5482" d="m 31.172978,21.183832 1.109411,-1.664093 3.356333,2.237586 -1.109411,1.664094 -3.356333,-2.237587 z" style="fill:url(#linearGradient5522);fill-opacity:1;stroke:#4e9a06;stroke-width:1;stroke-linecap:round;stroke-linejoin:round;stroke-miterlimit:4;stroke-opacity:1;stroke-dashoffset:.7"/><path id="path5484" d="m 22.297691,34.49658 8.875288,-13.312749 3.356334,2.237587 -8.875288,13.312749 -3.356334,-2.237587 z" style="fill:url(#linearGradient5524);fill-opacity:1;stroke:#2e3436;stroke-width:1;stroke-linecap:round;stroke-linejoin:round;stroke-miterlimit:4;stroke-opacity:1;stroke-dashoffset:.7"/><path id="path5486" d="M 30.586054,23.175922 C 35.471952,13.83408 40.857463,6.5874398 45.872663,0.93736625 46.24285,0.52031613 46.945948,0.45104409 47.27056,0.66745468 47.595171,0.88386526 47.780725,1.5457616 47.536757,2.0467773 44.230647,8.8362603 39.632186,16.607608 32.910325,24.725458 l -2.324271,-1.549536 z" style="fill:url(#linearGradient5526);fill-opacity:1;stroke:#2e3436;stroke-width:1;stroke-linecap:round;stroke-linejoin:round;stroke-miterlimit:4;stroke-opacity:1;stroke-dashoffset:.7"/><path id="path5488" d="m 22.297691,34.49658 8.875288,-13.312749 3.356334,2.237587 -8.875288,13.312749 -3.356334,-2.237587 z" style="fill:url(#linearGradient5528);fill-opacity:1;stroke:#2e3436;stroke-width:1;stroke-linecap:round;stroke-linejoin:round;stroke-miterlimit:4;stroke-opacity:1;stroke-dashoffset:.7"/><g id="g5490" transform="matrix(0.5547055,-0.8320468,0.8320468,0.5547055,-23.326373,29.920013)" style="opacity:.6"><path id="path5492" d="m 46.6875,41.46875 c -2.276302,0.01795 -4.656476,0.135193 -7.125,0.3125 A 0.99524549,0.99524549 0 0 1 38.8125,41.5 l -16.3125,0 0,2.03125 16.3125,0 a 0.99524549,0.99524549 0 0 1 0.75,-0.28125 c 8.722372,0.604741 16.352332,0.126534 22.8125,-0.75 -4.634984,-0.643399 -9.881984,-1.07703 -15.6875,-1.03125 z" style="fill:none;stroke:url(#linearGradient5530);stroke-width:1;stroke-linecap:round;stroke-linejoin:miter;stroke-miterlimit:4;stroke-opacity:1;stroke-dasharray:none;stroke-dashoffset:.7"/><path id="path5494" d="M 63,42.5 C 63,42.776142 62.776142,43 62.5,43 62.223858,43 62,42.776142 62,42.5 62,42.223858 62.223858,42 62.5,42 c 0.276142,0 0.5,0.223858 0.5,0.5 z" style="fill:#fff;fill-opacity:1;stroke:none"/></g><path id="path5496" d="m 31.172978,21.183832 1.109411,-1.664093 3.356333,2.237586 -1.109411,1.664094 -3.356333,-2.237587 z" style="fill:url(#linearGradient5532);fill-opacity:1;stroke:url(#linearGradient5534);stroke-width:1;stroke-linecap:round;stroke-linejoin:round;stroke-miterlimit:4;stroke-opacity:1;stroke-dashoffset:.7"/><path id="path5498" d="m 12.66163,35.371513 c 0,0.225772 -0.27701,0.408796 -0.618718,0.408796 -0.341709,0 -0.618719,-0.183024 -0.618719,-0.408796 0,-0.225771 0.27701,-0.408796 0.618719,-0.408796 0.341708,0 0.618718,0.183025 0.618718,0.408796 z" transform="matrix(0.8965957,-0.7649487,0.7718401,0.9046732,-17.618983,17.696751)" style="fill:#000;fill-opacity:1;stroke:none"/><path id="path5500" d="M 20.287005,40.700793 16.72011,45.891719" style="fill:none;stroke:url(#linearGradient5536);stroke-width:.40000001;stroke-linecap:butt;stroke-linejoin:miter;stroke-miterlimit:4;stroke-opacity:1;stroke-dasharray:none"/><path id="path5502" d="m 22.892582,37.746952 c 0,1.903806 -4.649805,3.447146 -10.385631,3.447146 -5.7358251,0 -10.3856303,-1.54334 -10.3856303,-3.447146 0,-1.903806 4.6498052,-3.447145 10.3856303,-3.447145 5.735826,0 10.385631,1.543339 10.385631,3.447145 z" transform="matrix(1.2158145,-0.2952583,0.2632186,1.0838813,-0.678155,5.4608746)" style="opacity:.16379311;fill:url(#radialGradient5538);fill-opacity:1;stroke:none"/></g></g><g id="g22" transform="translate(303,177)" style="display:inline;enable-background:new"><g id="g6424" transform="matrix(-1,0,0,1,22.023524,-3)"><g id="g227" transform="matrix(0.8,0,-0.4618802,0.8,2.2461269,-13.1)" style="display:inline"><g id="g229" transform="matrix(1,0,0.5773503,1,-21.073285,0)"><path id="path231" d="M 40.130245,32.039063 38.92003,32 l -0.0089,2.495113 -23.288557,0.03348 0.0044,2.502444 0.0044,2.502443 23.288557,-0.03348 0,2.5 1.210216,0.09375 5.026577,-5.046875 -5.026577,-5.007812 z" style="fill:url(#linearGradient6447);fill-opacity:1;stroke:url(#linearGradient6449);stroke-width:1.24999976;stroke-linecap:round;stroke-linejoin:miter;stroke-miterlimit:4;stroke-opacity:1;stroke-dasharray:none;stroke-dashoffset:.7"/></g></g></g><g id="g6040" transform="matrix(-1,0,0,1,22.023524,-3)" style="fill:none;stroke:#fff;display:inline"><g id="g6042" transform="matrix(0.8,0,-0.4618802,0.8,2.2461269,-13.1)" style="fill:none;stroke:#fff;display:inline"><g id="g6044" transform="matrix(1,0,0.5773503,1,-21.073285,0)" style="fill:none;stroke:#fff"><path id="path7017" d="m 40.1875,33.90625 0,0.59375 a 1.2875646,1.2875646 0 0 1 -1.28125,1.28125 l -22,0.03125 0,1.21875 0,1.21875 22,-0.03125 A 1.2875646,1.2875646 0 0 1 40.1875,39.5 l 0,0.71875 3.15625,-3.15625 -3.15625,-3.15625 z" style="fill:none;stroke:url(#linearGradient7025);stroke-width:1.24999976;stroke-linecap:round;stroke-linejoin:miter;stroke-miterlimit:4;stroke-opacity:1;stroke-dasharray:none;stroke-dashoffset:.7"/></g></g></g><g id="g237" mask="url(#mask6551)" transform="translate(-9,-25)" style="display:inline"><path id="path239" d="M 41.75,0.9375 C 41.394764,0.92423258 40.969907,0.98917687 40.625,1.25 35.447406,5.1653676 29.761254,10.193226 24.0625,16.71875 A 0.50005,0.50005 0 0 0 23.625,16.875 l -1.40625,1.40625 -11.3125,11.3125 a 0.50005,0.50005 0 0 0 -0.0625,0.625 c -0.597604,0.27358 -1.0383411,0.795382 -1.21875,1.4375 -3.2114647,1.945882 -4.6036235,4.521935 -7.53125,7.9375 a 0.50005,0.50005 0 0 0 0.6875,0.71875 C 3.5900818,39.673262 5.1575373,39.308197 6.71875,39 c 1.5612127,-0.308197 3.1057631,-0.543264 4,-1.4375 0.520791,-0.520791 0.576133,-1.132206 0.6875,-1.625 0.111367,-0.492794 0.261557,-0.942886 0.9375,-1.5625 A 0.50005,0.50005 0 0 0 12.375,34.34375 c 0.625337,-0.187373 1.138004,-0.601548 1.40625,-1.1875 A 0.50005,0.50005 0 0 0 14.4375,33.125 L 25.75,21.8125 27.15625,20.40625 A 0.50005,0.50005 0 0 0 27.3125,19.9375 C 33.822107,14.224895 38.821307,8.5371667 42.75,3.375 43.002978,3.042597 43.073097,2.6412307 43.0625,2.28125 43.051903,1.9212693 42.959003,1.5840033 42.6875,1.3125 42.421116,1.0461158 42.0942,0.95035524 41.75,0.9375 z" transform="matrix(0.8030457,0,0,0.3319597,13.389033,33.000204)" style="opacity:.16379311;fill:url(#linearGradient5510);fill-opacity:1;fill-rule:evenodd;stroke:none"/><path id="path241" d="m 15.672851,45.997744 c 2.255361,-4.020366 3.052283,-6.755981 5.818454,-9.234588 l 2.353384,1.568944 c -1.201222,1.642465 -0.357825,2.543844 -0.971936,3.464997 -1.079763,1.619622 -5.600318,2.319169 -7.199902,4.200647 z" style="fill:url(#linearGradient5512);fill-opacity:1;fill-rule:evenodd;stroke:#4e9a06;stroke-width:1px;stroke-linecap:round;stroke-linejoin:round;stroke-opacity:1"/><path id="path243" d="m 13.90625,33.15625 c -1.800486,1.203571 -3.181844,2.841219 -4.6875,4.75 0.4172057,-0.08912 0.843332,-0.20097 1.25,-0.28125 1.564283,-0.308803 2.957001,-0.707002 3.28125,-1.03125 0.162868,-0.162868 0.174771,-0.359305 0.3125,-0.96875 0.0965,-0.427004 0.342114,-0.990533 0.75,-1.5625 l -0.90625,-0.90625 z" transform="matrix(0.9805819,-0.1961099,0.1961099,0.9805819,1.487642,8.1300739)" style="fill:none;stroke:url(#linearGradient5514);stroke-width:1px;stroke-linecap:round;stroke-linejoin:miter;stroke-opacity:1"/><path id="path245" d="M 17.5,32.25 C 17.5,33.216498 16.716498,34 15.75,34 14.783502,34 14,33.216498 14,32.25 c 0,-0.966498 0.783502,-1.75 1.75,-1.75 0.966498,0 1.75,0.783502 1.75,1.75 z" transform="matrix(0.9805819,-0.1961099,0.1961099,0.9805819,1.487642,8.1300739)" style="fill:url(#radialGradient5516);fill-opacity:1;stroke:#2e3436;stroke-width:1;stroke-linecap:round;stroke-linejoin:round;stroke-miterlimit:4;stroke-opacity:1;stroke-dasharray:none;stroke-dashoffset:.7"/><path id="path247" d="M 30.586054,23.175922 C 35.471952,13.83408 40.857463,6.5874398 45.872663,0.93736625 46.24285,0.52031613 46.945948,0.45104409 47.27056,0.66745468 47.595171,0.88386526 47.780725,1.5457616 47.536757,2.0467773 44.230647,8.8362603 39.632186,16.607608 32.910325,24.725458 l -2.324271,-1.549536 z" style="fill:url(#linearGradient5518);fill-opacity:1;stroke:#2e3436;stroke-width:1;stroke-linecap:round;stroke-linejoin:round;stroke-miterlimit:4;stroke-opacity:1;stroke-dashoffset:.7"/><path id="path249" d="m 22.297691,34.49658 8.875288,-13.312749 3.356334,2.237587 -8.875288,13.312749 -3.356334,-2.237587 z" style="fill:url(#linearGradient5520);fill-opacity:1;stroke:#2e3436;stroke-width:1;stroke-linecap:round;stroke-linejoin:round;stroke-miterlimit:4;stroke-opacity:1;stroke-dashoffset:.7"/><path id="path251" d="m 31.172978,21.183832 1.109411,-1.664093 3.356333,2.237586 -1.109411,1.664094 -3.356333,-2.237587 z" style="fill:url(#linearGradient5522);fill-opacity:1;stroke:#4e9a06;stroke-width:1;stroke-linecap:round;stroke-linejoin:round;stroke-miterlimit:4;stroke-opacity:1;stroke-dashoffset:.7"/><path id="path253" d="m 22.297691,34.49658 8.875288,-13.312749 3.356334,2.237587 -8.875288,13.312749 -3.356334,-2.237587 z" style="fill:url(#linearGradient5524);fill-opacity:1;stroke:#2e3436;stroke-width:1;stroke-linecap:round;stroke-linejoin:round;stroke-miterlimit:4;stroke-opacity:1;stroke-dashoffset:.7"/><path id="path255" d="M 30.586054,23.175922 C 35.471952,13.83408 40.857463,6.5874398 45.872663,0.93736625 46.24285,0.52031613 46.945948,0.45104409 47.27056,0.66745468 47.595171,0.88386526 47.780725,1.5457616 47.536757,2.0467773 44.230647,8.8362603 39.632186,16.607608 32.910325,24.725458 l -2.324271,-1.549536 z" style="fill:url(#linearGradient5526);fill-opacity:1;stroke:#2e3436;stroke-width:1;stroke-linecap:round;stroke-linejoin:round;stroke-miterlimit:4;stroke-opacity:1;stroke-dashoffset:.7"/><path id="path257" d="m 22.297691,34.49658 8.875288,-13.312749 3.356334,2.237587 -8.875288,13.312749 -3.356334,-2.237587 z" style="fill:url(#linearGradient5528);fill-opacity:1;stroke:#2e3436;stroke-width:1;stroke-linecap:round;stroke-linejoin:round;stroke-miterlimit:4;stroke-opacity:1;stroke-dashoffset:.7"/><g id="g259" transform="matrix(0.5547055,-0.8320468,0.8320468,0.5547055,-23.326373,29.920013)" style="opacity:.6"><path id="path261" d="m 46.6875,41.46875 c -2.276302,0.01795 -4.656476,0.135193 -7.125,0.3125 A 0.99524549,0.99524549 0 0 1 38.8125,41.5 l -16.3125,0 0,2.03125 16.3125,0 a 0.99524549,0.99524549 0 0 1 0.75,-0.28125 c 8.722372,0.604741 16.352332,0.126534 22.8125,-0.75 -4.634984,-0.643399 -9.881984,-1.07703 -15.6875,-1.03125 z" style="fill:none;stroke:url(#linearGradient5530);stroke-width:1;stroke-linecap:round;stroke-linejoin:miter;stroke-miterlimit:4;stroke-opacity:1;stroke-dasharray:none;stroke-dashoffset:.7"/><path id="path263" d="M 63,42.5 C 63,42.776142 62.776142,43 62.5,43 62.223858,43 62,42.776142 62,42.5 62,42.223858 62.223858,42 62.5,42 c 0.276142,0 0.5,0.223858 0.5,0.5 z" style="fill:#fff;fill-opacity:1;stroke:none"/></g><path id="path265" d="m 31.172978,21.183832 1.109411,-1.664093 3.356333,2.237586 -1.109411,1.664094 -3.356333,-2.237587 z" style="fill:url(#linearGradient5532);fill-opacity:1;stroke:url(#linearGradient5534);stroke-width:1;stroke-linecap:round;stroke-linejoin:round;stroke-miterlimit:4;stroke-opacity:1;stroke-dashoffset:.7"/><path id="path267" d="m 12.66163,35.371513 c 0,0.225772 -0.27701,0.408796 -0.618718,0.408796 -0.341709,0 -0.618719,-0.183024 -0.618719,-0.408796 0,-0.225771 0.27701,-0.408796 0.618719,-0.408796 0.341708,0 0.618718,0.183025 0.618718,0.408796 z" transform="matrix(0.8965957,-0.7649487,0.7718401,0.9046732,-17.618983,17.696751)" style="fill:#000;fill-opacity:1;stroke:none"/><path id="path269" d="M 20.287005,40.700793 16.72011,45.891719" style="fill:none;stroke:url(#linearGradient5536);stroke-width:.40000001;stroke-linecap:butt;stroke-linejoin:miter;stroke-miterlimit:4;stroke-opacity:1;stroke-dasharray:none"/></g></g><g id="g16" transform="translate(303,219)" style="display:inline;enable-background:new"><g id="g7145" transform="matrix(-1,0,0,1,16.012958,-0.9999999)"><g id="g6453" transform="translate(-6,-5)" style="display:inline"><g id="g6455" transform="matrix(0.8,0,-0.4618802,0.8,2.2461269,-13.1)" style="display:inline"><g id="g6457" transform="matrix(1,0,0.5773503,1,-21.073285,0)"><path id="path6459" d="M 40.130245,32.039063 38.890625,32 l 0,2.5 -23.268043,0.0286 0.0044,2.502444 0.0044,2.502443 23.268043,-0.0286 -0.0089,2.495113 1.25,0 5.016198,-4.953125 -5.026577,-5.007812 z" style="fill:url(#linearGradient7155);fill-opacity:1;stroke:url(#linearGradient7157);stroke-width:1.24999976;stroke-linecap:round;stroke-linejoin:miter;stroke-miterlimit:4;stroke-opacity:1;stroke-dasharray:none;stroke-dashoffset:.7"/></g></g></g><g id="g301" transform="translate(-6,-5)" style="fill:none;stroke:url(#linearGradient7159);display:inline"><g id="g303" transform="matrix(0.8,0,-0.4618802,0.8,2.2461269,-13.1)" style="fill:none;stroke:url(#linearGradient7161);display:inline"><g id="g305" transform="matrix(1,0,0.5773503,1,-21.073285,0)" style="fill:none;stroke:url(#linearGradient7163)"><path id="path307" d="m 40.15625,33.875 0,0.625 A 1.2693278,1.2693278 0 0 1 38.875,35.78125 l -21.96875,0.03125 0,1.21875 0,1.21875 22,-0.03125 a 1.2693278,1.2693278 0 0 1 1.28125,1.3125 l 0,0.6875 3.15625,-3.15625 -3.1875,-3.1875 z" style="fill:none;stroke:url(#linearGradient7165);stroke-width:1.24999976;stroke-linecap:round;stroke-linejoin:miter;stroke-miterlimit:4;stroke-opacity:1;stroke-dasharray:none;stroke-dashoffset:.7"/></g></g></g></g><g id="g7137" transform="translate(6,0)"><path id="path6076" d="m 4.5,6.5 c -1.656,0 -3,1 -3,3 0,0.812274 1,2.5 1,3 0,1.5 1,3 1,3 l 2,0 c 0,0 1,-1.5625 1,-3 0,-0.5 1,-2.187726 1,-3 0,-2 -1.3439998,-3.0000002 -3,-3 z" style="fill:#fce94f;fill-opacity:1;fill-rule:evenodd;stroke:#c4a000;stroke-width:1;stroke-linecap:square;stroke-linejoin:miter;stroke-miterlimit:4;stroke-opacity:1;stroke-dasharray:none;stroke-dashoffset:.69999992"/><rect id="rect7073" width="4" height="9" x="2.5" y="-2.5" rx="2" ry="1.118" style="fill:url(#linearGradient7167);fill-opacity:1;fill-rule:evenodd;stroke:url(#linearGradient7169);stroke-width:1.00000012;stroke-linecap:round;stroke-linejoin:miter;stroke-miterlimit:4;stroke-opacity:1;stroke-dasharray:none;stroke-dashoffset:.69999992"/><path id="path7056" d="M 4.5,7.5 C 3.8736762,7.5 3.3897343,7.6986793 3.0625,8 2.7352657,8.3013207 2.5,8.7244317 2.5,9.5 c 0,-0.00502 0.1625525,0.647556 0.40625,1.21875 0.1218488,0.285597 0.2682407,0.569047 0.375,0.84375 C 3.3880093,11.837203 3.5,12.041024 3.5,12.5 c 0,1.5 0.5,2 0.5,2 l 1,0 c 0,0 0.5,-0.5625 0.5,-2 0,-0.458976 0.1119907,-0.662797 0.21875,-0.9375 0.1067593,-0.274703 0.2531512,-0.558153 0.375,-0.84375 C 6.3374475,10.147556 6.5,9.4949753 6.5,9.5 6.5,8.7244317 6.2647342,8.3013207 5.9375,8 5.6102658,7.6986793 5.1263239,7.4999999 4.5,7.5 z" style="fill:none;stroke:#fff;stroke-width:1;stroke-linecap:square;stroke-linejoin:miter;stroke-miterlimit:4;stroke-opacity:1;stroke-dashoffset:.69999992;display:inline"/><path id="path7058" d="m 4.5,9.5 0,5.5" style="fill:none;stroke:#000;stroke-width:.5;stroke-linecap:round;stroke-linejoin:miter;stroke-miterlimit:4;stroke-opacity:1;stroke-dasharray:none"/><path id="path7060" d="m 5.5,8.5 c 0,0.5522847 -0.4477153,1 -1,1 -0.5522847,0 -1,-0.4477153 -1,-1 0,-0.5522847 0.4477153,-1 1,-1 0.5522847,0 1,0.4477153 1,1 z" transform="translate(0,1)" style="fill:#000;fill-opacity:1;fill-rule:evenodd;stroke:none"/><rect id="rect7091" width="2" height="7" x="3.5" y="-1.5" rx="1" ry=".273" style="opacity:.43939394;fill:none;stroke:url(#linearGradient7171);stroke-width:1;stroke-linecap:round;stroke-linejoin:round;stroke-miterlimit:4;stroke-opacity:1;stroke-dasharray:none;stroke-dashoffset:.69999992;display:inline"/></g></g></g></svg>