<svg xmlns="http://www.w3.org/2000/svg" xmlns:svg="http://www.w3.org/2000/svg" xmlns:xlink="http://www.w3.org/1999/xlink" id="svg11300" width="400" height="300" version="1.0" style="display:inline;enable-background:new"><title id="title8836">Optical Drive</title><metadata id="metadata154"/><defs id="defs3"><linearGradient id="linearGradient3702"><stop id="stop3704" offset="0" style="stop-color:black;stop-opacity:0"/><stop id="stop3710" offset=".5" style="stop-color:black;stop-opacity:1"/><stop id="stop3706" offset="1" style="stop-color:black;stop-opacity:0"/></linearGradient><linearGradient id="linearGradient3688"><stop id="stop3690" offset="0" style="stop-color:black;stop-opacity:1"/><stop id="stop3692" offset="1" style="stop-color:black;stop-opacity:0"/></linearGradient><linearGradient id="linearGradient15662"><stop id="stop15664" offset="0" style="stop-color:#fff;stop-opacity:1"/><stop id="stop15666" offset="1" style="stop-color:#f8f8f8;stop-opacity:1"/></linearGradient><linearGradient id="linearGradient269"><stop id="stop270" offset="0" style="stop-color:#a3a3a3;stop-opacity:1"/><stop id="stop271" offset="1" style="stop-color:#8a8a8a;stop-opacity:1"/></linearGradient><linearGradient id="linearGradient259"><stop id="stop260" offset="0" style="stop-color:#fafafa;stop-opacity:1"/><stop id="stop261" offset="1" style="stop-color:#bbb;stop-opacity:1"/></linearGradient><radialGradient id="radialGradient15656" cx="8.824" cy="3.756" r="37.752" fx="8.824" fy="3.756" gradientTransform="matrix(0.968868,0,0,-1.036068,3.351554,47.493911)" gradientUnits="userSpaceOnUse" xlink:href="#linearGradient269"/><radialGradient id="radialGradient15668" cx="8.144" cy="7.268" r="38.159" fx="8.144" fy="7.268" gradientTransform="matrix(1.807505,0,0,1.927898,-3.4807804,-5.8592723)" gradientUnits="userSpaceOnUse" xlink:href="#linearGradient15662"/><radialGradient id="radialGradient3717" cx="4.993" cy="43.5" r="2.5" fx="4.993" fy="43.5" gradientTransform="matrix(2.003784,0,0,1.4,27.98813,-17.4)" gradientUnits="userSpaceOnUse" xlink:href="#linearGradient3688"/><radialGradient id="radialGradient3719" cx="4.993" cy="43.5" r="2.5" fx="4.993" fy="43.5" gradientTransform="matrix(2.003784,0,0,1.4,-20.01187,-104.4)" gradientUnits="userSpaceOnUse" xlink:href="#linearGradient3688"/><linearGradient id="linearGradient3721" x1="25.058" x2="25.058" y1="47.028" y2="39.999" gradientUnits="userSpaceOnUse" xlink:href="#linearGradient3702"/><radialGradient id="radialGradient5979" cx="7.936" cy="35.479" r="86.708" fx="7.936" fy="35.479" gradientTransform="matrix(-0.961084,0,0,1.2830476,41.267697,-9.7041611)" gradientUnits="userSpaceOnUse" xlink:href="#linearGradient259"/><radialGradient id="radialGradient2864" cx="10.864" cy="16.149" r="8.714" fx="10.864" fy="16.149" gradientTransform="matrix(2.21022,0,0,2.138888,-12.1022,-18.82138)" gradientUnits="userSpaceOnUse" xlink:href="#linearGradient3735"/><radialGradient id="radialGradient2862" cx="7.593" cy="3.155" r="8.462" fx="7.593" fy="3.155" gradientTransform="matrix(2.723968,0,0,2.633434,-13.5604,-4.83122)" gradientUnits="userSpaceOnUse" xlink:href="#linearGradient3743"/><radialGradient id="radialGradient2851" cx="24" cy="22.137" r="19.5" fx="24" fy="22.137" gradientTransform="matrix(0.604524,0,0,0.62607,1.482848,0.983063)" gradientUnits="userSpaceOnUse" xlink:href="#linearGradient3839"/><linearGradient id="linearGradient2848" x1="6.055" x2="4.483" y1="6.312" y2="4.74" gradientTransform="matrix(1.209048,0,0,1.253274,2.691896,1.7189)" gradientUnits="userSpaceOnUse" xlink:href="#linearGradient3807"/><linearGradient id="linearGradient2845" x1="6.43" x2="8.122" y1="15.967" y2="14.275" gradientTransform="matrix(1.209048,0,0,1.253274,2.691896,1.7189)" gradientUnits="userSpaceOnUse" xlink:href="#linearGradient3831"/><linearGradient id="linearGradient2842" x1="15.291" x2="17.417" y1="6.444" y2="4.318" gradientTransform="matrix(1.209048,0,0,1.253274,2.691896,1.7189)" gradientUnits="userSpaceOnUse" xlink:href="#linearGradient3815"/><linearGradient id="linearGradient2839" x1="15.822" x2="14.372" y1="15.99" y2="14.54" gradientTransform="matrix(1.209048,0,0,1.253274,2.691896,1.7189)" gradientUnits="userSpaceOnUse" xlink:href="#linearGradient3823"/><radialGradient id="radialGradient1950" cx="8" cy="17" r="8" fx="8" fy="17" gradientTransform="matrix(1,0,0,0.625,0,6.375)" gradientUnits="userSpaceOnUse" xlink:href="#linearGradient3783"/><linearGradient id="linearGradient3735"><stop id="stop3737" offset="0" style="stop-color:white;stop-opacity:1"/><stop id="stop3739" offset="1" style="stop-color:white;stop-opacity:0"/></linearGradient><linearGradient id="linearGradient3743"><stop id="stop3745" offset="0" style="stop-color:white;stop-opacity:1"/><stop id="stop3747" offset="1" style="stop-color:white;stop-opacity:.3392857"/></linearGradient><linearGradient id="linearGradient3783"><stop id="stop3785" offset="0" style="stop-color:black;stop-opacity:1"/><stop id="stop3787" offset="1" style="stop-color:black;stop-opacity:0"/></linearGradient><linearGradient id="linearGradient3807"><stop id="stop3809" offset="0" style="stop-color:#ef2929;stop-opacity:1"/><stop id="stop3811" offset="1" style="stop-color:#ef2929;stop-opacity:0"/></linearGradient><linearGradient id="linearGradient3815"><stop id="stop3817" offset="0" style="stop-color:#ef2929;stop-opacity:1"/><stop id="stop3819" offset="1" style="stop-color:#ef2929;stop-opacity:0"/></linearGradient><linearGradient id="linearGradient3823"><stop id="stop3825" offset="0" style="stop-color:#ef2929;stop-opacity:1"/><stop id="stop3827" offset="1" style="stop-color:#ef2929;stop-opacity:0"/></linearGradient><linearGradient id="linearGradient3831"><stop id="stop3833" offset="0" style="stop-color:#ef2929;stop-opacity:1"/><stop id="stop3835" offset="1" style="stop-color:#ef2929;stop-opacity:0"/></linearGradient><linearGradient id="linearGradient3839"><stop id="stop3841" offset="0" style="stop-color:#eeeeec;stop-opacity:1"/><stop id="stop2893" offset=".5" style="stop-color:#eeeeec;stop-opacity:1"/><stop id="stop2891" offset=".783" style="stop-color:white;stop-opacity:1"/><stop id="stop3843" offset="1" style="stop-color:#d3d7cf;stop-opacity:1"/></linearGradient><radialGradient id="radialGradient1941" cx="4.993" cy="43.5" r="2.5" fx="4.993" fy="43.5" gradientTransform="matrix(2.003784,0,0,1.4,27.98813,-17.4)" gradientUnits="userSpaceOnUse" xlink:href="#linearGradient3688"/><radialGradient id="radialGradient1943" cx="4.993" cy="43.5" r="2.5" fx="4.993" fy="43.5" gradientTransform="matrix(2.003784,0,0,1.4,-20.01187,-104.4)" gradientUnits="userSpaceOnUse" xlink:href="#linearGradient3688"/><linearGradient id="linearGradient1945" x1="25.058" x2="25.058" y1="47.028" y2="39.999" gradientUnits="userSpaceOnUse" xlink:href="#linearGradient3702"/><radialGradient id="radialGradient1977" cx="8.144" cy="7.268" r="38.159" fx="8.144" fy="7.268" gradientTransform="matrix(0.61826,0,0,0.664962,2.818403,0.964783)" gradientUnits="userSpaceOnUse" xlink:href="#linearGradient15662"/><radialGradient id="radialGradient1980" cx="33.967" cy="35.737" r="86.708" fx="33.967" fy="35.737" gradientTransform="matrix(0.631936,0,0,0.686693,0.21009,0.105241)" gradientUnits="userSpaceOnUse" xlink:href="#linearGradient259"/><radialGradient id="radialGradient1982" cx="8.824" cy="3.756" r="37.752" fx="8.824" fy="3.756" gradientTransform="matrix(0.637055,0,0,0.681177,2.416486,0.531615)" gradientUnits="userSpaceOnUse" xlink:href="#linearGradient269"/><radialGradient id="radialGradient6343" cx="8" cy="17" r="8" fx="8" fy="17" gradientTransform="matrix(1,0,0,0.625,0,6.375)" gradientUnits="userSpaceOnUse" xlink:href="#linearGradient3783"/><radialGradient id="radialGradient6372" cx="11" cy="13.481" r="10" fx="11" fy="13.481" gradientTransform="matrix(0.883946,0,0,0.625,-33.723397,10.88678)" gradientUnits="userSpaceOnUse" xlink:href="#linearGradient3839"/><linearGradient id="linearGradient6374" x1="6.055" x2="4.483" y1="6.312" y2="4.74" gradientTransform="translate(-35,6.0000001)" gradientUnits="userSpaceOnUse" xlink:href="#linearGradient3807"/><linearGradient id="linearGradient6376" x1="6.43" x2="8.122" y1="15.967" y2="14.275" gradientTransform="translate(-35,6.0000001)" gradientUnits="userSpaceOnUse" xlink:href="#linearGradient3831"/><linearGradient id="linearGradient6378" x1="15.291" x2="17.417" y1="6.444" y2="4.318" gradientTransform="translate(-35,6.0000001)" gradientUnits="userSpaceOnUse" xlink:href="#linearGradient3815"/><linearGradient id="linearGradient6380" x1="15.822" x2="14.372" y1="15.99" y2="14.54" gradientTransform="translate(-35,6.0000001)" gradientUnits="userSpaceOnUse" xlink:href="#linearGradient3823"/><radialGradient id="radialGradient6382" cx="7.593" cy="3.155" r="8.462" fx="7.593" fy="3.155" gradientTransform="matrix(2.723968,0,0,2.633434,-13.5604,-4.83122)" gradientUnits="userSpaceOnUse" xlink:href="#linearGradient3743"/><radialGradient id="radialGradient6384" cx="10.864" cy="16.149" r="8.714" fx="10.864" fy="16.149" gradientTransform="matrix(2.21022,0,0,2.138888,-12.1022,-18.82138)" gradientUnits="userSpaceOnUse" xlink:href="#linearGradient3735"/><linearGradient id="linearGradient6956"><stop id="stop6958" offset="0" style="stop-color:#fff;stop-opacity:1"/><stop id="stop6960" offset="1" style="stop-color:#d3d7cf;stop-opacity:1"/></linearGradient><radialGradient id="radialGradient6175" cx="11" cy="13.481" r="10" fx="11" fy="13.481" gradientTransform="matrix(0.4186982,0,0,0.2960436,23.394459,4.10435)" gradientUnits="userSpaceOnUse" xlink:href="#linearGradient3839"/><linearGradient id="linearGradient6177" x1="6.055" x2="4.483" y1="6.312" y2="4.74" gradientTransform="matrix(0.789445,0,0,0.789445,-0.683895,-2.683894)" gradientUnits="userSpaceOnUse" xlink:href="#linearGradient3807"/><linearGradient id="linearGradient6179" x1="6.43" x2="8.122" y1="15.967" y2="14.275" gradientTransform="matrix(0.789445,0,0,0.789445,-0.683895,-2.683894)" gradientUnits="userSpaceOnUse" xlink:href="#linearGradient3831"/><linearGradient id="linearGradient6181" x1="15.291" x2="17.417" y1="6.444" y2="4.318" gradientTransform="matrix(0.789445,0,0,0.789445,-0.683895,-2.683894)" gradientUnits="userSpaceOnUse" xlink:href="#linearGradient3815"/><linearGradient id="linearGradient6183" x1="15.822" x2="14.372" y1="15.99" y2="14.54" gradientTransform="matrix(0.789445,0,0,0.789445,-0.683895,-2.683894)" gradientUnits="userSpaceOnUse" xlink:href="#linearGradient3823"/><radialGradient id="radialGradient6185" cx="7.593" cy="3.155" r="8.462" fx="7.593" fy="3.155" gradientTransform="matrix(2.723968,0,0,2.633434,-13.5604,-4.83122)" gradientUnits="userSpaceOnUse" xlink:href="#linearGradient3743"/><radialGradient id="radialGradient6187" cx="10.864" cy="16.149" r="8.714" fx="10.864" fy="16.149" gradientTransform="matrix(2.21022,0,0,2.138888,-12.1022,-18.82138)" gradientUnits="userSpaceOnUse" xlink:href="#linearGradient3735"/><radialGradient id="radialGradient6962" cx="-15.113" cy="15.017" r="9" fx="-15.113" fy="15.017" gradientTransform="matrix(2.1762203,0,0,3.3975389,47.198961,-35.094288)" gradientUnits="userSpaceOnUse" xlink:href="#linearGradient6956"/><linearGradient id="linearGradient6946"><stop id="stop6948" offset="0" style="stop-color:#fff;stop-opacity:1"/><stop id="stop6950" offset="1" style="stop-color:#d3d7cf;stop-opacity:1"/></linearGradient><radialGradient id="radialGradient6152" cx="11" cy="13.481" r="10" fx="11" fy="13.481" gradientTransform="matrix(0.4186982,0,0,0.2960436,23.394459,4.10435)" gradientUnits="userSpaceOnUse" xlink:href="#linearGradient3839"/><linearGradient id="linearGradient6154" x1="6.055" x2="4.483" y1="6.312" y2="4.74" gradientTransform="matrix(0.789445,0,0,0.789445,-0.683895,-2.683894)" gradientUnits="userSpaceOnUse" xlink:href="#linearGradient3807"/><linearGradient id="linearGradient6156" x1="6.43" x2="8.122" y1="15.967" y2="14.275" gradientTransform="matrix(0.789445,0,0,0.789445,-0.683895,-2.683894)" gradientUnits="userSpaceOnUse" xlink:href="#linearGradient3831"/><linearGradient id="linearGradient6158" x1="15.291" x2="17.417" y1="6.444" y2="4.318" gradientTransform="matrix(0.789445,0,0,0.789445,-0.683895,-2.683894)" gradientUnits="userSpaceOnUse" xlink:href="#linearGradient3815"/><linearGradient id="linearGradient6160" x1="15.822" x2="14.372" y1="15.99" y2="14.54" gradientTransform="matrix(0.789445,0,0,0.789445,-0.683895,-2.683894)" gradientUnits="userSpaceOnUse" xlink:href="#linearGradient3823"/><radialGradient id="radialGradient6162" cx="10.864" cy="16.149" r="8.714" fx="10.864" fy="16.149" gradientTransform="matrix(2.21022,0,0,2.138888,-12.1022,-18.82138)" gradientUnits="userSpaceOnUse" xlink:href="#linearGradient3735"/><radialGradient id="radialGradient6952" cx="10.289" cy="11.187" r="7" fx="10.289" fy="11.187" gradientTransform="matrix(1.414751,0,0,2.8787558,-4.7365986,-22.007478)" gradientUnits="userSpaceOnUse" xlink:href="#linearGradient6946"/></defs><g id="layer6" style="display:none"><rect id="rect6284" width="48" height="48" x="296" y="50" style="fill:#eeeeec;fill-opacity:1;fill-rule:nonzero;stroke:none;stroke-width:2;marker:none;visibility:visible;display:inline;overflow:visible;enable-background:accumulate"/><rect id="rect6592" width="32" height="32" x="303" y="126" style="fill:#eeeeec;fill-opacity:1;fill-rule:nonzero;stroke:none;stroke-width:2;marker:none;visibility:visible;display:inline;overflow:visible;enable-background:accumulate"/><rect id="rect6749" width="22" height="22" x="303" y="177" style="fill:#eeeeec;fill-opacity:1;fill-rule:nonzero;stroke:none;stroke-width:2;marker:none;visibility:visible;display:inline;overflow:visible;enable-background:accumulate"/><rect id="rect6833" width="16" height="16" x="303" y="219" style="fill:#eeeeec;fill-opacity:1;fill-rule:nonzero;stroke:none;stroke-width:2;marker:none;visibility:visible;display:inline;overflow:visible;enable-background:accumulate"/><text id="context" x="20.971" y="21.514" xml:space="preserve" style="font-size:18.30070686px;font-style:normal;font-weight:400;fill:#000;fill-opacity:1;stroke:none;display:inline;enable-background:new;font-family:Bitstream Vera Sans"><tspan id="tspan2716" x="20.971" y="21.514">actions</tspan></text><text id="icon-name" x="191.971" y="21.514" xml:space="preserve" style="font-size:18.30070686px;font-style:normal;font-variant:normal;font-weight:700;font-stretch:normal;text-align:start;line-height:125%;writing-mode:lr-tb;text-anchor:start;fill:#000;fill-opacity:1;stroke:none;display:inline;enable-background:new;font-family:Droid Sans;-inkscape-font-specification:Droid Sans Bold"><tspan id="tspan3023" x="191.971" y="21.514">help-contents</tspan></text></g><g id="layer2" style="display:inline"><g id="g48" transform="translate(296,50) scale(1.000000,1.000000)" style="display:inline;enable-background:new"><g id="g3712" transform="matrix(1.052632,0,0,1.285713,-1.263158,-13.42854)" style="opacity:.4"><rect id="rect2801" width="5" height="7" x="38" y="40" style="opacity:1;fill:url(#radialGradient3717);fill-opacity:1;stroke:none;stroke-width:1;stroke-linecap:round;stroke-linejoin:miter;stroke-miterlimit:4;stroke-dasharray:none;stroke-opacity:1"/><rect id="rect3696" width="5" height="7" x="-10" y="-47" transform="scale(-1,-1)" style="opacity:1;fill:url(#radialGradient3719);fill-opacity:1;stroke:none;stroke-width:1;stroke-linecap:round;stroke-linejoin:miter;stroke-miterlimit:4;stroke-dasharray:none;stroke-opacity:1"/><rect id="rect3700" width="28" height="7" x="10" y="40" style="opacity:1;fill:url(#linearGradient3721);fill-opacity:1;stroke:none;stroke-width:1;stroke-linecap:round;stroke-linejoin:miter;stroke-miterlimit:4;stroke-dasharray:none;stroke-opacity:1"/></g><path id="rect15391" d="M 29.8125,3.5 L 7.75,3.5091529 C 7.1130356,3.5091529 6.5053618,4.0176424 6.5053616,4.65625 L 6.59375,43.40625 C 6.59375,44.044857 7.1130356,44.5625 7.75,44.5625 L 40.34375,44.5625 C 40.980714,44.5625 41.500001,44.044859 41.5,43.40625 L 41.5,12.53125 L 41.5,9.4375 L 41.5,4.625 C 41.5,3.9863924 40.980714,3.5000001 40.34375,3.5 L 36.21875,3.5 L 29.8125,3.5 z" style="color:#000;fill:url(#radialGradient5979);fill-opacity:1;fill-rule:nonzero;stroke:url(#radialGradient15656);stroke-width:1.00000012;stroke-linecap:round;stroke-linejoin:round;marker:none;marker-start:none;marker-mid:none;marker-end:none;stroke-miterlimit:4;stroke-dashoffset:0;stroke-opacity:1;visibility:visible;display:block;overflow:visible"/><path id="rect15660" d="M 7.6493741,4.5066064 L 40.243921,4.5066064 C 40.355685,4.5014926 40.53311,4.5721509 40.51928,4.6989945 L 40.44194,43.381282 C 40.44194,43.463855 40.375465,43.530331 40.292892,43.530331 L 7.8151023,43.530331 C 7.7325294,43.530331 7.6660538,43.463855 7.6660538,43.381282 L 7.5003256,4.655655 C 7.5003256,4.5730821 7.5668012,4.5066064 7.6493741,4.5066064 z" style="color:#000;fill:none;fill-opacity:1;fill-rule:nonzero;stroke:url(#radialGradient15668);stroke-width:1;stroke-linecap:round;stroke-linejoin:round;marker:none;marker-start:none;marker-mid:none;marker-end:none;stroke-miterlimit:4;stroke-dashoffset:0;stroke-opacity:1;visibility:visible;display:block;overflow:visible"/><g id="g6074" transform="translate(8.48687,13.001317)"><path id="path4685" d="M 11.759756,7.358633 C 11.759756,9.4340547 8.9149233,12.961476 8.132612,11.118455 C 6.6279441,7.5736569 4.3847255,10.765438 3.3238687,8.6646112 C 2.275943,6.5893925 7.2139241,6.4746143 7.697286,4.5316526 C 8.3934912,1.7331278 11.759756,5.2832113 11.759756,7.358633 z" style="fill:none;fill-opacity:1;stroke:#edd400;stroke-width:2.99999595;stroke-linecap:round;stroke-linejoin:miter;stroke-miterlimit:4;stroke-dasharray:none;stroke-dashoffset:1.20000057;stroke-opacity:1"/><path id="path4687" d="M 27.71756,8.1992627 C 30.271891,9.6515539 25.852419,11.118455 23.850236,11.118455 C 21.848053,11.118455 20.223092,9.4340547 20.223092,7.358633 C 20.223092,5.2832113 23.121087,3.4680649 24.99109,4.7396655 C 26.833383,5.9924223 25.132767,6.7296519 27.71756,8.1992627 z" style="fill:none;fill-opacity:1;stroke:#edd400;stroke-width:2.99999595;stroke-linecap:round;stroke-linejoin:miter;stroke-miterlimit:4;stroke-dasharray:none;stroke-dashoffset:1.20000057;stroke-opacity:1"/><path id="path3773" d="M 16 17 A 8 5 0 1 1 0,17 A 8 5 0 1 1 16 17 z" transform="matrix(1.815214,0,0,0.78957,1.469706,11.3563)" style="opacity:.5;fill:url(#radialGradient1950);fill-opacity:1;stroke:none;stroke-width:1;stroke-linecap:round;stroke-linejoin:miter;stroke-miterlimit:4;stroke-dasharray:none;stroke-dashoffset:1.20000057;stroke-opacity:1"/><path id="path4689" d="M 11.759756,23.651204 C 9.5841281,24.342231 9.3209333,28.984772 7.6044926,27.700834 C 5.7893382,26.343055 7.934637,23.915685 5.0948025,24.300727 C 2.2680024,24.684003 4.1693711,20.774468 8.132612,19.891382 C 10.08687,19.455936 11.759756,21.575782 11.759756,23.651204 z" style="fill:none;fill-opacity:1;stroke:#edd400;stroke-width:2.99999595;stroke-linecap:round;stroke-linejoin:miter;stroke-miterlimit:4;stroke-dasharray:none;stroke-dashoffset:1.20000057;stroke-opacity:1"/><path id="path4691" d="M 27.315268,23.986015 C 24.237114,24.850372 26.513931,27.421482 24.327335,27.713288 C 22.227187,27.993557 21.359143,25.523617 21.078018,23.651204 C 20.798534,21.789724 22.330828,18.587489 23.850236,19.891382 C 25.157792,21.013472 30.41525,23.115529 27.315268,23.986015 z" style="fill:none;fill-opacity:1;stroke:#edd400;stroke-width:2.99999595;stroke-linecap:round;stroke-linejoin:miter;stroke-miterlimit:4;stroke-dasharray:none;stroke-dashoffset:1.20000057;stroke-opacity:1"/><path id="path3751" d="M 11.759756,7.358633 C 11.759756,9.4340547 8.9149233,12.961476 8.132612,11.118455 C 6.6279441,7.5736569 4.3847255,10.765438 3.3238687,8.6646112 C 2.275943,6.5893925 7.2139241,6.4746143 7.697286,4.5316526 C 8.3934912,1.7331278 11.759756,5.2832113 11.759756,7.358633 z" style="fill:none;fill-opacity:1;stroke:#fff;stroke-width:.99999857;stroke-linecap:round;stroke-linejoin:miter;stroke-miterlimit:4;stroke-dashoffset:1.20000057;stroke-opacity:1"/><path id="path3753" d="M 27.71756,8.1992627 C 30.271891,9.6515539 25.852419,11.118455 23.850236,11.118455 C 21.848053,11.118455 20.223092,9.4340547 20.223092,7.358633 C 20.223092,5.2832113 23.121087,3.4680649 24.99109,4.7396655 C 26.833383,5.9924223 25.132767,6.7296519 27.71756,8.1992627 z" style="fill:none;fill-opacity:1;stroke:#fff;stroke-width:.99999857;stroke-linecap:round;stroke-linejoin:miter;stroke-miterlimit:4;stroke-dashoffset:1.20000057;stroke-opacity:1"/><path id="path3755" d="M 11.759756,23.651204 C 9.5841281,24.342231 9.3209333,28.984772 7.6044926,27.700834 C 5.7893382,26.343055 7.934637,23.915685 5.0948025,24.300727 C 2.2680024,24.684003 4.1693711,20.774468 8.132612,19.891382 C 10.08687,19.455936 11.759756,21.575782 11.759756,23.651204 z" style="fill:none;fill-opacity:1;stroke:#fff;stroke-width:.99999857;stroke-linecap:round;stroke-linejoin:miter;stroke-miterlimit:4;stroke-dashoffset:1.20000057;stroke-opacity:1"/><path id="path3757" d="M 27.315268,23.986015 C 24.237114,24.850372 26.513931,27.421482 24.327335,27.713288 C 22.227187,27.993557 21.359143,25.523617 21.078018,23.651204 C 20.798534,21.789724 22.330828,18.587489 23.850236,19.891382 C 25.157792,21.013472 30.41525,23.115529 27.315268,23.986015 z" style="fill:none;fill-opacity:1;stroke:#fff;stroke-width:.99999857;stroke-linecap:round;stroke-linejoin:miter;stroke-miterlimit:4;stroke-dashoffset:1.20000057;stroke-opacity:1"/><path id="path1871" d="M 15.991424,3.5988114 C 9.6511817,3.5988114 4.505468,8.9327464 4.505468,15.504918 C 4.505468,22.07709 9.6511817,27.411025 15.991424,27.411025 C 22.331666,27.411025 27.47738,22.07709 27.47738,15.504918 C 27.47738,8.9327464 22.331666,3.5988114 15.991424,3.5988114 z M 15.991424,9.8651835 C 18.994694,9.8651829 21.43214,12.391789 21.43214,15.504918 C 21.43214,18.618047 18.994694,21.144653 15.991424,21.144653 C 12.988154,21.144653 10.550708,18.618047 10.550708,15.504918 C 10.550708,12.391789 12.988154,9.8651835 15.991424,9.8651835 z" style="fill:url(#radialGradient2851);fill-opacity:1;stroke:#888a85;stroke-width:.99999881;stroke-linecap:round;stroke-linejoin:round;stroke-miterlimit:4;stroke-dasharray:none;stroke-dashoffset:1.20000057;stroke-opacity:1"/><path id="path2764" d="M 11.381928,4.6170968 C 8.7561882,5.8161442 6.6445551,8.0050203 5.4878195,10.726809 C 7.9026311,10.698248 9.4714997,11.938604 11.004101,13.233358 C 11.551741,11.948653 12.560655,10.902834 13.800024,10.335161 C 13.364103,8.1647754 12.605101,6.2251604 11.381928,4.6170968 z" style="fill:url(#linearGradient2848);fill-opacity:1;fill-rule:evenodd;stroke:none;stroke-width:1px;stroke-linecap:butt;stroke-linejoin:miter;stroke-opacity:1"/><path id="path2772" d="M 11.004101,17.776478 C 9.1653403,18.246212 7.32658,18.370484 5.4878195,20.283027 C 6.6445551,23.004815 8.7561882,25.193691 11.381928,26.392739 C 11.709821,24.167958 12.337799,22.143234 13.800024,20.674675 C 12.560655,20.107001 11.551741,19.061183 11.004101,17.776478 z" style="fill:url(#linearGradient2845);fill-opacity:1;stroke:none;stroke-width:1;stroke-linecap:round;stroke-linejoin:miter;stroke-miterlimit:4;stroke-dasharray:none;stroke-dashoffset:1.20000057;stroke-opacity:1"/><path id="path2795" d="M 20.600919,4.6170968 C 19.422836,6.1510664 18.419592,7.8598765 18.182823,10.335161 C 19.422193,10.902834 20.431106,11.948653 20.978747,13.233358 C 22.900816,11.648064 24.762427,10.606894 26.495028,10.726809 C 25.338292,8.0050203 23.22666,5.8161442 20.600919,4.6170968 z" style="fill:url(#linearGradient2842);fill-opacity:1;fill-rule:evenodd;stroke:none;stroke-width:1px;stroke-linecap:butt;stroke-linejoin:miter;stroke-opacity:1"/><path id="path2797" d="M 20.978747,17.776478 C 20.431106,19.061183 19.422193,20.107001 18.182823,20.674675 C 19.40483,22.164722 20.13763,24.143975 20.600919,26.392739 C 23.22666,25.193691 25.338292,23.004815 26.495028,20.283027 C 25.187088,18.810526 23.234022,18.112176 20.978747,17.776478 z" style="fill:url(#linearGradient2839);fill-opacity:1;fill-rule:evenodd;stroke:none;stroke-width:1px;stroke-linecap:butt;stroke-linejoin:miter;stroke-opacity:1"/><path id="path3706" d="M 11.004101,13.233358 C 11.551742,11.948653 12.560655,10.902834 13.800024,10.335161 M 11.381928,4.6170968 C 8.7561882,5.8161442 6.6445556,8.0050203 5.4878195,10.726809" style="fill:none;fill-rule:evenodd;stroke:#a40000;stroke-width:.99999881px;stroke-linecap:round;stroke-linejoin:miter;stroke-opacity:1"/><path id="path3708" d="M 26.495028,10.726809 C 25.338292,8.0050203 23.22666,5.8161442 20.600919,4.6170968 M 18.182823,10.335161 C 19.422193,10.902834 20.431106,11.948653 20.978747,13.233358" style="fill:none;fill-rule:evenodd;stroke:#a40000;stroke-width:.99999881px;stroke-linecap:round;stroke-linejoin:miter;stroke-opacity:1"/><path id="path3710" d="M 20.978747,17.776478 C 20.431106,19.061183 19.422193,20.107001 18.182823,20.674675 M 20.600919,26.392739 C 23.22666,25.193691 25.338292,23.004815 26.495028,20.283027" style="fill:none;fill-rule:evenodd;stroke:#a40000;stroke-width:.99999881px;stroke-linecap:round;stroke-linejoin:miter;stroke-opacity:1"/><path id="path3712" d="M 13.800024,20.674675 C 12.560655,20.107001 11.551741,19.061183 11.004101,17.776478 M 5.4878195,20.283027 C 6.6445551,23.004815 8.7561882,25.193691 11.381928,26.392739" style="fill:none;fill-opacity:1;stroke:#a40000;stroke-width:.99999881;stroke-linecap:round;stroke-linejoin:miter;stroke-miterlimit:4;stroke-dasharray:none;stroke-dashoffset:1.20000057;stroke-opacity:1"/><path id="path3722" d="M 18 10.28125 A 8 7.71875 0 1 1 2,10.28125 A 8 7.71875 0 1 1 18 10.28125 z" transform="matrix(1.312945,0,0,1.415609,2.861978,0.950691)" style="opacity:.4;fill:none;fill-opacity:1;stroke:url(#radialGradient2862);stroke-width:.73350757;stroke-linecap:round;stroke-linejoin:miter;stroke-miterlimit:4;stroke-dasharray:none;stroke-dashoffset:1.20000057;stroke-opacity:1"/><path id="path3724" d="M 18 10.28125 A 8 7.71875 0 1 1 2,10.28125 A 8 7.71875 0 1 1 18 10.28125 z" transform="matrix(0.788862,0,0,0.847542,8.102811,6.791139)" style="opacity:.8;fill:none;fill-opacity:1;stroke:url(#radialGradient2864);stroke-width:1.22297823;stroke-linecap:round;stroke-linejoin:miter;stroke-miterlimit:4;stroke-dasharray:none;stroke-dashoffset:1.20000057;stroke-opacity:1"/></g><path id="path6096" d="M 12.5,9.5 L 35.5,9.5" style="fill:none;fill-rule:evenodd;stroke:#babdb6;stroke-width:1px;stroke-linecap:round;stroke-linejoin:miter;stroke-opacity:1"/><path id="path7067" d="M 12.5,12.5 L 35.5,12.5" style="fill:none;fill-rule:evenodd;stroke:#babdb6;stroke-width:1px;stroke-linecap:round;stroke-linejoin:miter;stroke-opacity:1;display:inline"/></g><g id="g32" transform="translate(303,126) scale(1.000000,1.000000)" style="display:inline;enable-background:new"><g id="g140" transform="matrix(0.701755,0,0,0.857142,-0.842106,-8.952364)" style="opacity:.4"><rect id="rect142" width="5" height="7" x="38" y="40" style="opacity:1;fill:url(#radialGradient1941);fill-opacity:1;stroke:none;stroke-width:1;stroke-linecap:round;stroke-linejoin:miter;stroke-miterlimit:4;stroke-dasharray:none;stroke-opacity:1"/><rect id="rect144" width="5" height="7" x="-10" y="-47" transform="scale(-1,-1)" style="opacity:1;fill:url(#radialGradient1943);fill-opacity:1;stroke:none;stroke-width:1;stroke-linecap:round;stroke-linejoin:miter;stroke-miterlimit:4;stroke-dasharray:none;stroke-opacity:1"/><rect id="rect146" width="28" height="7" x="10" y="40" style="opacity:1;fill:url(#linearGradient1945);fill-opacity:1;stroke:none;stroke-width:1;stroke-linecap:round;stroke-linejoin:miter;stroke-miterlimit:4;stroke-dasharray:none;stroke-opacity:1"/></g><path id="path148" d="M 5.310745,2.5103061 L 26.549697,2.5000005 C 27.126631,2.5000005 27.5,2.9276904 27.5,3.4333006 L 27.5,28.742123 C 27.5,29.161983 27.162828,29.499993 26.744008,29.499993 L 5.310745,29.499993 C 4.8919257,29.499993 4.5547534,29.161983 4.5547534,28.742123 L 4.5547534,3.2681773 C 4.5547534,2.8483168 4.8919257,2.5103061 5.310745,2.5103061 z" style="color:#000;fill:url(#radialGradient1980);fill-opacity:1;fill-rule:nonzero;stroke:url(#radialGradient1982);stroke-width:1.00000072;stroke-linecap:round;stroke-linejoin:round;marker:none;marker-start:none;marker-mid:none;marker-end:none;stroke-miterlimit:4;stroke-dashoffset:0;stroke-opacity:1;visibility:visible;display:block;overflow:visible"/><path id="path6317" d="M 16 17 A 8 5 0 1 1 0,17 A 8 5 0 1 1 16 17 z" transform="matrix(1.1458333,0,0,0.5,6.8333333,17)" style="opacity:.5;fill:url(#radialGradient6343);fill-opacity:1;stroke:none;stroke-width:1;stroke-linecap:round;stroke-linejoin:miter;stroke-miterlimit:4;stroke-dasharray:none;stroke-dashoffset:1.20000057;stroke-opacity:1"/><path id="path151" d="M 5.6671808,3.4999984 L 26.332446,3.4999984 C 26.488696,3.4999984 26.499993,3.6647089 26.499993,3.7178748 L 26.499993,28.480219 C 26.499993,28.533385 26.457547,28.576186 26.404822,28.576186 L 5.6671808,28.576186 C 5.6144565,28.576186 5.5720107,28.533385 5.5720107,28.480219 L 5.5720107,3.5959654 C 5.5720107,3.5427997 5.6144565,3.4999984 5.6671808,3.4999984 z" style="color:#000;fill:none;fill-opacity:1;fill-rule:nonzero;stroke:url(#radialGradient1977);stroke-width:1.00000012;stroke-linecap:round;stroke-linejoin:round;marker:none;marker-start:none;marker-mid:none;marker-end:none;stroke-miterlimit:4;stroke-dashoffset:0;stroke-opacity:1;visibility:visible;display:block;overflow:visible"/><path id="path6313" d="M 8.5,6.5 L 23.5,6.5" style="fill:none;fill-rule:evenodd;stroke:#babdb6;stroke-width:1px;stroke-linecap:round;stroke-linejoin:miter;stroke-opacity:1"/><g id="g6401" transform="translate(19,13)"><path id="path6403" d="M 5 3.25 A 2 2.25 0 1 1 1,3.25 A 2 2.25 0 1 1 5 3.25 z" transform="matrix(0.8749999,0,0,0.7777777,-10.375,8.2222225)" style="fill:none;fill-opacity:1;stroke:#c4a000;stroke-width:3.63654995;stroke-linecap:round;stroke-linejoin:miter;stroke-miterlimit:4;stroke-dasharray:none;stroke-dashoffset:1.20000057;stroke-opacity:1"/><path id="path6405" d="M 5 3.25 A 2 2.25 0 1 1 1,3.25 A 2 2.25 0 1 1 5 3.25 z" transform="matrix(1,0,0,0.8888889,-10.5,7.6111112)" style="fill:none;fill-opacity:1;stroke:#fff;stroke-width:1.06066;stroke-linecap:round;stroke-linejoin:miter;stroke-miterlimit:4;stroke-dasharray:none;stroke-dashoffset:1.20000057;stroke-opacity:1"/></g><g id="g6437" transform="matrix(-1,0,0,1,13,13)" style="display:inline"><path id="path6439" d="M 5 3.25 A 2 2.25 0 1 1 1,3.25 A 2 2.25 0 1 1 5 3.25 z" transform="matrix(0.8749999,0,0,0.7777777,-10.375,8.2222225)" style="fill:none;fill-opacity:1;stroke:#c4a000;stroke-width:3.63654995;stroke-linecap:round;stroke-linejoin:miter;stroke-miterlimit:4;stroke-dasharray:none;stroke-dashoffset:1.20000057;stroke-opacity:1"/><path id="path6441" d="M 5 3.25 A 2 2.25 0 1 1 1,3.25 A 2 2.25 0 1 1 5 3.25 z" transform="matrix(1,0,0,0.8888889,-10.5,7.6111112)" style="fill:none;fill-opacity:1;stroke:#fff;stroke-width:1.06066;stroke-linecap:round;stroke-linejoin:miter;stroke-miterlimit:4;stroke-dasharray:none;stroke-dashoffset:1.20000057;stroke-opacity:1"/></g><g id="g6455"><g id="g6443" transform="matrix(-1,0,0,-1,13,25)" style="display:inline"><path id="path6445" d="M 5 3.25 A 2 2.25 0 1 1 1,3.25 A 2 2.25 0 1 1 5 3.25 z" transform="matrix(0.8749999,0,0,0.7777777,-10.375,8.2222225)" style="fill:none;fill-opacity:1;stroke:#c4a000;stroke-width:3.63654995;stroke-linecap:round;stroke-linejoin:miter;stroke-miterlimit:4;stroke-dasharray:none;stroke-dashoffset:1.20000057;stroke-opacity:1"/><path id="path6447" d="M 5 3.25 A 2 2.25 0 1 1 1,3.25 A 2 2.25 0 1 1 5 3.25 z" transform="matrix(1,0,0,0.8888889,-10.5,7.6111112)" style="fill:none;fill-opacity:1;stroke:#fff;stroke-width:1.06066;stroke-linecap:round;stroke-linejoin:miter;stroke-miterlimit:4;stroke-dasharray:none;stroke-dashoffset:1.20000057;stroke-opacity:1"/></g><g id="g6449" transform="matrix(1,0,0,-1,19,25)" style="display:inline"><path id="path6451" d="M 5 3.25 A 2 2.25 0 1 1 1,3.25 A 2 2.25 0 1 1 5 3.25 z" transform="matrix(0.8749999,0,0,0.7777777,-10.375,8.2222225)" style="fill:none;fill-opacity:1;stroke:#c4a000;stroke-width:3.63654995;stroke-linecap:round;stroke-linejoin:miter;stroke-miterlimit:4;stroke-dasharray:none;stroke-dashoffset:1.20000057;stroke-opacity:1"/><path id="path6453" d="M 5 3.25 A 2 2.25 0 1 1 1,3.25 A 2 2.25 0 1 1 5 3.25 z" transform="matrix(1,0,0,0.8888889,-10.5,7.6111112)" style="fill:none;fill-opacity:1;stroke:#fff;stroke-width:1.06066;stroke-linecap:round;stroke-linejoin:miter;stroke-miterlimit:4;stroke-dasharray:none;stroke-dashoffset:1.20000057;stroke-opacity:1"/></g></g><g id="g6319" transform="matrix(0.7953359,0,0,0.7953359,35.088063,5.4792888)"><path id="path6321" d="M -24,7.5000001 C -29.243995,7.5000001 -33.5,11.755999 -33.5,17 C -33.5,22.244001 -29.243996,26.5 -24,26.5 C -18.756005,26.5 -14.5,22.244001 -14.5,17 C -14.5,11.755999 -18.756005,7.5000001 -24,7.5000001 z M -24,12.5 C -21.516004,12.499999 -19.5,14.516004 -19.5,17 C -19.5,19.483996 -21.516004,21.5 -24,21.5 C -26.483996,21.5 -28.5,19.483996 -28.5,17 C -28.5,14.516003 -26.483996,12.5 -24,12.5 z" style="fill:url(#radialGradient6372);fill-opacity:1;stroke:#888a85;stroke-width:1.25733042;stroke-linecap:round;stroke-linejoin:round;stroke-miterlimit:4;stroke-dasharray:none;stroke-dashoffset:1.20000057;stroke-opacity:1"/><path id="path6323" d="M -27.8125,8.3125001 C -29.984242,9.2692319 -31.730767,11.015757 -32.6875,13.1875 L -28.125,15.1875 C -27.672048,14.162421 -26.837579,13.327951 -25.8125,12.875 L -27.8125,8.3125001 z" style="fill:url(#linearGradient6374);fill-opacity:1;fill-rule:evenodd;stroke:none;stroke-width:1px;stroke-linecap:butt;stroke-linejoin:miter;stroke-opacity:1"/><path id="path6325" d="M -28.125,18.8125 L -32.6875,20.8125 C -31.730767,22.984242 -29.984242,24.730768 -27.8125,25.6875 L -25.8125,21.125 C -26.837579,20.672048 -27.672048,19.837579 -28.125,18.8125 z" style="fill:url(#linearGradient6376);fill-opacity:1;stroke:none;stroke-width:1;stroke-linecap:round;stroke-linejoin:miter;stroke-miterlimit:4;stroke-dasharray:none;stroke-dashoffset:1.20000057;stroke-opacity:1"/><path id="path6327" d="M -20.1875,8.3125001 L -22.1875,12.875 C -21.162421,13.327951 -20.327952,14.162421 -19.875,15.1875 L -15.3125,13.1875 C -16.269233,11.015757 -18.015758,9.2692319 -20.1875,8.3125001 z" style="fill:url(#linearGradient6378);fill-opacity:1;fill-rule:evenodd;stroke:none;stroke-width:1px;stroke-linecap:butt;stroke-linejoin:miter;stroke-opacity:1"/><path id="path6329" d="M -19.875,18.8125 C -20.327952,19.837579 -21.162421,20.672048 -22.1875,21.125 L -20.1875,25.6875 C -18.015758,24.730768 -16.269233,22.984242 -15.3125,20.8125 L -19.875,18.8125 z" style="fill:url(#linearGradient6380);fill-opacity:1;fill-rule:evenodd;stroke:none;stroke-width:1px;stroke-linecap:butt;stroke-linejoin:miter;stroke-opacity:1"/><path id="path6331" d="M -28.125,15.1875 C -27.672048,14.162421 -26.837579,13.327951 -25.8125,12.875 M -27.8125,8.3125001 C -29.984242,9.2692319 -31.730767,11.015757 -32.6875,13.1875" style="fill:none;fill-rule:evenodd;stroke:#a40000;stroke-width:1.25733042px;stroke-linecap:round;stroke-linejoin:miter;stroke-opacity:1"/><path id="path6333" d="M -15.3125,13.1875 C -16.269233,11.015757 -18.015758,9.2692319 -20.1875,8.3125001 M -22.1875,12.875 C -21.162421,13.327951 -20.327952,14.162421 -19.875,15.1875" style="fill:none;fill-rule:evenodd;stroke:#a40000;stroke-width:1.25733042px;stroke-linecap:round;stroke-linejoin:miter;stroke-opacity:1"/><path id="path6335" d="M -19.875,18.8125 C -20.327952,19.837579 -21.162421,20.672048 -22.1875,21.125 M -20.1875,25.6875 C -18.015758,24.730768 -16.269233,22.984242 -15.3125,20.8125" style="fill:none;fill-rule:evenodd;stroke:#a40000;stroke-width:1.25733042px;stroke-linecap:round;stroke-linejoin:miter;stroke-opacity:1"/><path id="path6337" d="M -25.8125,21.125 C -26.837579,20.672048 -27.672048,19.837579 -28.125,18.8125 M -32.6875,20.8125 C -31.730767,22.984242 -29.984242,24.730768 -27.8125,25.6875" style="fill:none;fill-opacity:1;stroke:#a40000;stroke-width:1.25733042;stroke-linecap:round;stroke-linejoin:miter;stroke-miterlimit:4;stroke-dasharray:none;stroke-dashoffset:1.20000057;stroke-opacity:1"/><path id="path6339" d="M 18 10.28125 A 8 7.71875 0 1 1 2,10.28125 A 8 7.71875 0 1 1 18 10.28125 z" transform="matrix(1.0474536,0,0,1.0856204,-34.474536,5.8384692)" style="opacity:.4;fill:none;fill-opacity:1;stroke:url(#radialGradient6382);stroke-width:1.17907941;stroke-linecap:round;stroke-linejoin:miter;stroke-miterlimit:4;stroke-dasharray:none;stroke-dashoffset:1.20000057;stroke-opacity:1"/><path id="path6341" d="M 18 10.28125 A 8 7.71875 0 1 1 2,10.28125 A 8 7.71875 0 1 1 18 10.28125 z" transform="matrix(0.7029305,0,0,0.7285437,-31.029307,9.5096634)" style="opacity:.8;fill:none;fill-opacity:1;stroke:url(#radialGradient6384);stroke-width:1.75697422;stroke-linecap:round;stroke-linejoin:miter;stroke-miterlimit:4;stroke-dasharray:none;stroke-dashoffset:1.20000057;stroke-opacity:1"/></g><path id="path6463" d="M 8.5,8.5 L 23.5,8.5" style="fill:none;fill-rule:evenodd;stroke:#babdb6;stroke-width:1px;stroke-linecap:round;stroke-linejoin:miter;stroke-opacity:1;display:inline"/></g><g id="g22" transform="translate(303,177) scale(1.000000,1.000000)" style="display:inline;enable-background:new"><rect id="rect7075" width="20" height="4" x="1" y="18" rx="2" ry="2" style="opacity:.14;fill:#000;fill-opacity:1;fill-rule:evenodd;stroke:none;stroke-width:1;stroke-linecap:round;stroke-linejoin:round;stroke-miterlimit:4;stroke-dasharray:none;stroke-dashoffset:.69999992;stroke-opacity:1"/><rect id="rect5985" width="17" height="20" x="2.5" y=".5" rx="1.022" ry="1.022" style="opacity:1;fill:url(#radialGradient6962);fill-opacity:1;fill-rule:evenodd;stroke:#888a85;stroke-width:1;stroke-linecap:round;stroke-linejoin:round;stroke-miterlimit:4;stroke-dasharray:none;stroke-dashoffset:.69999992;stroke-opacity:1"/><g id="g7180" transform="matrix(0.7337264,0,0,0.7344003,5.1274456,8.6014)"><path id="path7182" d="M 7.9999963,-1.4997271 C 3.8601522,-1.4997271 0.50027199,1.8601486 0.50027199,5.9999972 C 0.50027199,10.139846 3.8601518,13.499721 7.9999963,13.499721 C 12.13984,13.499721 15.49972,10.139846 15.49972,5.9999972 C 15.49972,1.8601486 12.13984,-1.4997271 7.9999963,-1.4997271 z M 7.9999963,2.4474962 C 9.9609736,2.4474962 11.552497,4.0390198 11.552497,5.9999972 C 11.552497,7.9609745 9.9609736,9.5524981 7.9999963,9.5524981 C 6.0390189,9.5524981 4.4474953,7.9609745 4.4474953,5.9999972 C 4.4474954,4.0390198 6.0390189,2.4474962 7.9999963,2.4474962 z" style="fill:url(#radialGradient6175);fill-opacity:1;stroke:#888a85;stroke-width:1.36228025;stroke-linecap:round;stroke-linejoin:round;stroke-miterlimit:4;stroke-dasharray:none;stroke-dashoffset:1.20000057;stroke-opacity:1"/><path id="path7184" d="M 4.9902385,-0.85830331 C 3.2757684,-0.10301635 1.8969832,1.2757693 1.1416958,2.9902394 L 4.7435371,4.5691287 C 5.1011172,3.7598856 5.7598848,3.1011184 6.5691278,2.743538 L 4.9902385,-0.85830331 z" style="fill:url(#linearGradient6177);fill-opacity:1;fill-rule:evenodd;stroke:none;stroke-width:1px;stroke-linecap:butt;stroke-linejoin:miter;stroke-opacity:1"/><path id="path7186" d="M 4.7435371,7.4308656 L 1.1416958,9.0097549 C 1.8969832,10.724225 3.2757684,12.103011 4.9902385,12.858297 L 6.5691278,9.2564564 C 5.7598848,8.8988759 5.1011172,8.2401088 4.7435371,7.4308656 z" style="fill:url(#linearGradient6179);fill-opacity:1;stroke:none;stroke-width:1;stroke-linecap:round;stroke-linejoin:miter;stroke-miterlimit:4;stroke-dasharray:none;stroke-dashoffset:1.20000057;stroke-opacity:1"/><path id="path7188" d="M 11.009754,-0.85830331 L 9.4308647,2.743538 C 10.240108,3.1011184 10.898875,3.7598856 11.256455,4.5691287 L 14.858297,2.9902394 C 14.103009,1.2757693 12.724225,-0.10301635 11.009754,-0.85830331 z" style="fill:url(#linearGradient6181);fill-opacity:1;fill-rule:evenodd;stroke:none;stroke-width:1px;stroke-linecap:butt;stroke-linejoin:miter;stroke-opacity:1"/><path id="path7190" d="M 11.256455,7.4308656 C 10.898875,8.2401088 10.240108,8.8988759 9.4308647,9.2564564 L 11.009754,12.858297 C 12.724225,12.103011 14.103009,10.724225 14.858297,9.0097549 L 11.256455,7.4308656 z" style="fill:url(#linearGradient6183);fill-opacity:1;fill-rule:evenodd;stroke:none;stroke-width:1px;stroke-linecap:butt;stroke-linejoin:miter;stroke-opacity:1"/><path id="path7192" d="M 4.7435371,4.5691287 C 5.1011175,3.7598856 5.7598847,3.1011184 6.5691278,2.743538 M 4.9902385,-0.85830331 C 3.2757684,-0.10301635 1.8969835,1.2757693 1.1416958,2.9902394" style="fill:none;fill-rule:evenodd;stroke:#a40000;stroke-width:1.0898242;stroke-linecap:round;stroke-linejoin:miter;stroke-miterlimit:4;stroke-dasharray:none;stroke-opacity:1"/><path id="path7194" d="M 14.858297,2.9902394 C 14.103009,1.2757693 12.724225,-0.10301635 11.009754,-0.85830331 M 9.4308647,2.743538 C 10.240108,3.1011184 10.898875,3.7598856 11.256455,4.5691287" style="fill:none;fill-rule:evenodd;stroke:#a40000;stroke-width:1.0898242;stroke-linecap:round;stroke-linejoin:miter;stroke-miterlimit:4;stroke-dasharray:none;stroke-opacity:1"/><path id="path7196" d="M 11.256455,7.4308656 C 10.898875,8.2401088 10.240108,8.8988759 9.4308647,9.2564564 M 11.009754,12.858297 C 12.724225,12.103011 14.103009,10.724225 14.858297,9.0097549" style="fill:none;fill-rule:evenodd;stroke:#a40000;stroke-width:1.0898242;stroke-linecap:round;stroke-linejoin:miter;stroke-miterlimit:4;stroke-dasharray:none;stroke-opacity:1"/><path id="path7198" d="M 6.5691278,9.2564564 C 5.7598848,8.8988759 5.1011172,8.2401088 4.7435371,7.4308656 M 1.1416958,9.0097549 C 1.8969832,10.724225 3.2757684,12.103011 4.9902385,12.858297" style="fill:none;fill-opacity:1;stroke:#a40000;stroke-width:1.0898242;stroke-linecap:round;stroke-linejoin:miter;stroke-miterlimit:4;stroke-dasharray:none;stroke-dashoffset:1.20000057;stroke-opacity:1"/><path id="path2850" d="M 18 10.28125 A 8 7.71875 0 1 1 2,10.28125 A 8 7.71875 0 1 1 18 10.28125 z" transform="matrix(0.7689736,0,0,0.7969495,0.3102612,-2.1936388)" style="opacity:.9;fill:none;fill-opacity:1;stroke:url(#radialGradient6185);stroke-width:1.74018455;stroke-linecap:round;stroke-linejoin:miter;stroke-miterlimit:4;stroke-dasharray:none;stroke-dashoffset:1.20000057;stroke-opacity:1"/><path id="path7201" d="M 18 10.28125 A 8 7.71875 0 1 1 2,10.28125 A 8 7.71875 0 1 1 18 10.28125 z" transform="matrix(0.6004806,0,0,0.6224128,1.9951827,-0.3991897)" style="opacity:.9;fill:none;fill-opacity:1;stroke:url(#radialGradient6187);stroke-width:2.22831774;stroke-linecap:round;stroke-linejoin:miter;stroke-miterlimit:4;stroke-dasharray:none;stroke-dashoffset:1.20000057;stroke-opacity:1"/></g><rect id="rect6964" width="15" height="18" x="3.5" y="1.5" rx="0" ry="0" style="opacity:1;fill:none;fill-opacity:1;fill-rule:evenodd;stroke:#fff;stroke-width:.99999994;stroke-linecap:round;stroke-linejoin:round;stroke-miterlimit:4;stroke-dasharray:none;stroke-dashoffset:.69999992;stroke-opacity:1"/><path id="path6968" d="M 5.5,3.5 L 16.5,3.5" style="fill:none;fill-rule:evenodd;stroke:#babdb6;stroke-width:1px;stroke-linecap:round;stroke-linejoin:miter;stroke-opacity:1"/><path id="path6970" d="M 5.5,5.5 L 16.5,5.5" style="fill:none;fill-rule:evenodd;stroke:#babdb6;stroke-width:1px;stroke-linecap:round;stroke-linejoin:miter;stroke-opacity:1"/></g><g id="g16" transform="translate(303,219) scale(1.000000,1.000000)" style="display:inline;enable-background:new"><rect id="rect5975" width="13" height="15" x="1.5" y=".5" rx=".984" ry=".984" style="opacity:1;fill:url(#radialGradient6952);fill-opacity:1;fill-rule:evenodd;stroke:#888a85;stroke-width:1;stroke-linecap:round;stroke-linejoin:round;stroke-miterlimit:4;stroke-dasharray:none;stroke-dashoffset:.69999992;stroke-opacity:1"/><g id="g7077" transform="translate(-20.000275,1.9998651)"><path id="path2832" d="M 28.000138,2.5001349 C 25.516216,2.5001349 23.500275,4.5160729 23.500275,6.9999975 C 23.500275,9.4839225 25.516216,11.49986 28.000138,11.49986 C 30.484059,11.49986 32.500001,9.4839225 32.500001,6.9999975 C 32.500001,4.5160729 30.484059,2.5001349 28.000138,2.5001349 z M 28.000138,4.8684837 C 29.176731,4.8684837 30.131652,5.8234037 30.131652,6.9999975 C 30.131652,8.1765912 29.176731,9.1315113 28.000138,9.1315113 C 26.823544,9.1315113 25.868624,8.1765912 25.868624,6.9999975 C 25.868624,5.8234037 26.823544,4.8684837 28.000138,4.8684837 z" style="fill:url(#radialGradient6152);fill-opacity:1;stroke:#888a85;stroke-width:1.00000012;stroke-linecap:round;stroke-linejoin:round;stroke-miterlimit:4;stroke-dasharray:none;stroke-dashoffset:1.20000057;stroke-opacity:1"/><g id="g5960" transform="matrix(0.5964907,0,0,0.5964907,23.228073,3.4210546)"><path id="path2834" d="M 4.9902385,-0.85830331 C 3.2757684,-0.10301635 1.8969832,1.2757693 1.1416958,2.9902394 L 4.7435371,4.5691287 C 5.1011172,3.7598856 5.7598848,3.1011184 6.5691278,2.743538 L 4.9902385,-0.85830331 z" style="fill:url(#linearGradient6154);fill-opacity:1;fill-rule:evenodd;stroke:none;stroke-width:1px;stroke-linecap:butt;stroke-linejoin:miter;stroke-opacity:1"/><path id="path2836" d="M 4.7435371,7.4308656 L 1.1416958,9.0097549 C 1.8969832,10.724225 3.2757684,12.103011 4.9902385,12.858297 L 6.5691278,9.2564564 C 5.7598848,8.8988759 5.1011172,8.2401088 4.7435371,7.4308656 z" style="fill:url(#linearGradient6156);fill-opacity:1;stroke:none;stroke-width:1;stroke-linecap:round;stroke-linejoin:miter;stroke-miterlimit:4;stroke-dasharray:none;stroke-dashoffset:1.20000057;stroke-opacity:1"/><path id="path2838" d="M 11.009754,-0.85830331 L 9.4308647,2.743538 C 10.240108,3.1011184 10.898875,3.7598856 11.256455,4.5691287 L 14.858297,2.9902394 C 14.103009,1.2757693 12.724225,-0.10301635 11.009754,-0.85830331 z" style="fill:url(#linearGradient6158);fill-opacity:1;fill-rule:evenodd;stroke:none;stroke-width:1px;stroke-linecap:butt;stroke-linejoin:miter;stroke-opacity:1"/><path id="path2840" d="M 11.256455,7.4308656 C 10.898875,8.2401088 10.240108,8.8988759 9.4308647,9.2564564 L 11.009754,12.858297 C 12.724225,12.103011 14.103009,10.724225 14.858297,9.0097549 L 11.256455,7.4308656 z" style="fill:url(#linearGradient6160);fill-opacity:1;fill-rule:evenodd;stroke:none;stroke-width:1px;stroke-linecap:butt;stroke-linejoin:miter;stroke-opacity:1"/><path id="path2842" d="M 4.7435371,4.5691287 C 5.1011175,3.7598856 5.7598847,3.1011184 6.5691278,2.743538 M 4.9902385,-0.85830331 C 3.2757684,-0.10301635 1.8969835,1.2757693 1.1416958,2.9902394" style="fill:none;fill-rule:evenodd;stroke:#a40000;stroke-width:1.3411777;stroke-linecap:round;stroke-linejoin:miter;stroke-miterlimit:4;stroke-dasharray:none;stroke-opacity:1"/><path id="path2844" d="M 14.858297,2.9902394 C 14.103009,1.2757693 12.724225,-0.10301635 11.009754,-0.85830331 M 9.4308647,2.743538 C 10.240108,3.1011184 10.898875,3.7598856 11.256455,4.5691287" style="fill:none;fill-rule:evenodd;stroke:#a40000;stroke-width:1.3411777;stroke-linecap:round;stroke-linejoin:miter;stroke-miterlimit:4;stroke-dasharray:none;stroke-opacity:1"/><path id="path2846" d="M 11.256455,7.4308656 C 10.898875,8.2401088 10.240108,8.8988759 9.4308647,9.2564564 M 11.009754,12.858297 C 12.724225,12.103011 14.103009,10.724225 14.858297,9.0097549" style="fill:none;fill-rule:evenodd;stroke:#a40000;stroke-width:1.3411777;stroke-linecap:round;stroke-linejoin:miter;stroke-miterlimit:4;stroke-dasharray:none;stroke-opacity:1"/><path id="path2848" d="M 6.5691278,9.2564564 C 5.7598848,8.8988759 5.1011172,8.2401088 4.7435371,7.4308656 M 1.1416958,9.0097549 C 1.8969832,10.724225 3.2757684,12.103011 4.9902385,12.858297" style="fill:none;fill-opacity:1;stroke:#a40000;stroke-width:1.3411777;stroke-linecap:round;stroke-linejoin:miter;stroke-miterlimit:4;stroke-dasharray:none;stroke-dashoffset:1.20000057;stroke-opacity:1"/></g><path id="path2852" d="M 18 10.28125 A 8 7.71875 0 1 1 2,10.28125 A 8 7.71875 0 1 1 18 10.28125 z" transform="matrix(0.4375015,0,0,0.4534429,23.624974,2.338032)" style="opacity:.9;fill:none;fill-opacity:1;stroke:url(#radialGradient6162);stroke-width:2.24516535;stroke-linecap:round;stroke-linejoin:miter;stroke-miterlimit:4;stroke-dasharray:none;stroke-dashoffset:1.20000057;stroke-opacity:1"/></g><rect id="rect6954" width="11" height="13" x="2.5" y="1.5" rx="0" ry="0" style="opacity:1;fill:none;fill-opacity:1;fill-rule:evenodd;stroke:#fff;stroke-width:1;stroke-linecap:round;stroke-linejoin:round;stroke-miterlimit:4;stroke-dasharray:none;stroke-dashoffset:.69999992;stroke-opacity:1"/><path id="path6956" d="M 4.5,2.5 L 11.5,2.5" style="fill:none;fill-rule:evenodd;stroke:#babdb6;stroke-width:1px;stroke-linecap:round;stroke-linejoin:miter;stroke-opacity:1"/></g></g></svg>