<svg xmlns="http://www.w3.org/2000/svg" xmlns:svg="http://www.w3.org/2000/svg" xmlns:xlink="http://www.w3.org/1999/xlink" id="svg11300" width="400" height="300" version="1.0" style="display:inline;enable-background:new"><title id="title8836">Optical Drive</title><metadata id="metadata154"/><defs id="defs3"><linearGradient id="linearGradient3284"><stop id="stop3286" offset="0" style="stop-color:#ce5c00;stop-opacity:1"/><stop id="stop3288" offset="1" style="stop-color:#f57900;stop-opacity:1"/></linearGradient><linearGradient id="linearGradient3276"><stop id="stop3278" offset="0" style="stop-color:white;stop-opacity:1"/><stop id="stop3280" offset="1" style="stop-color:white;stop-opacity:0"/></linearGradient><linearGradient id="linearGradient3269"><stop id="stop3271" offset="0" style="stop-color:#fecb81;stop-opacity:1"/><stop id="stop3273" offset="1" style="stop-color:#fcaf3e;stop-opacity:1"/></linearGradient><linearGradient id="linearGradient3188"><stop id="stop3190" offset="0" style="stop-color:black;stop-opacity:1"/><stop id="stop3192" offset="1" style="stop-color:black;stop-opacity:0"/></linearGradient><linearGradient id="linearGradient4616"><stop id="stop4618" offset="0" style="stop-color:#2e3436;stop-opacity:1"/><stop id="stop4620" offset="1" style="stop-color:#2e3436;stop-opacity:0"/></linearGradient><linearGradient id="linearGradient4928"><stop id="stop4930" offset="0" style="stop-color:#fce94f;stop-opacity:1"/><stop id="stop4932" offset="1" style="stop-color:#fce94f;stop-opacity:0"/></linearGradient><linearGradient id="linearGradient2065"><stop id="stop2067" offset="0" style="stop-color:#555753"/><stop id="stop2069" offset="1" style="stop-color:#fcaf3e"/></linearGradient><radialGradient id="radialGradient2268" cx="23.813" cy="43" r="16.375" fx="23.813" fy="43" gradientTransform="matrix(1,0,0,0.194656,0,34.62977)" gradientUnits="userSpaceOnUse" xlink:href="#linearGradient3188"/><linearGradient id="linearGradient3302" x1="25.355" x2="25.355" y1="34.007" y2="32.409" gradientTransform="translate(-50,-5)" gradientUnits="userSpaceOnUse" xlink:href="#linearGradient4616"/><radialGradient id="radialGradient3305" cx="-6.007" cy="32.837" r="9.906" fx="-6.007" fy="32.837" gradientTransform="matrix(1,-1.487184e-8,1.425535e-8,0.958546,-27.2842,-3.424027)" gradientUnits="userSpaceOnUse" xlink:href="#linearGradient4928"/><linearGradient id="linearGradient3308" x1="-11.986" x2="-11.986" y1="13.123" y2="29.727" gradientTransform="translate(-14,-5)" gradientUnits="userSpaceOnUse" xlink:href="#linearGradient2065"/><linearGradient id="linearGradient3328" x1="22.75" x2="22.75" y1="40.001" y2="37.41" gradientUnits="userSpaceOnUse" xlink:href="#linearGradient3269"/><linearGradient id="linearGradient3330" x1="17.25" x2="17.25" y1="41.147" y2="36.103" gradientUnits="userSpaceOnUse" xlink:href="#linearGradient3284"/><linearGradient id="linearGradient3335" x1="18.875" x2="18.875" y1="35.183" y2="43.979" gradientUnits="userSpaceOnUse" xlink:href="#linearGradient3276"/><radialGradient id="radialGradient3426" cx="23.813" cy="43" r="16.375" fx="23.813" fy="43" gradientTransform="matrix(1,0,0,0.194656,0,34.62977)" gradientUnits="userSpaceOnUse" xlink:href="#linearGradient3188"/><linearGradient id="linearGradient3428" x1="22.75" x2="23.063" y1="40.001" y2="36.472" gradientUnits="userSpaceOnUse" xlink:href="#linearGradient3269"/><linearGradient id="linearGradient3430" x1="17.25" x2="17.25" y1="41.147" y2="36.103" gradientUnits="userSpaceOnUse" xlink:href="#linearGradient3284"/><linearGradient id="linearGradient3432" x1="18.875" x2="18.875" y1="36.16" y2="37.916" gradientUnits="userSpaceOnUse" xlink:href="#linearGradient3276"/><linearGradient id="linearGradient3480" x1="-11.986" x2="-11.986" y1="13.123" y2="29.727" gradientTransform="matrix(0.511315,0,0,0.465325,17.15383,-3.453673)" gradientUnits="userSpaceOnUse" xlink:href="#linearGradient2065"/><radialGradient id="radialGradient3482" cx="-6.007" cy="32.837" r="9.906" fx="-6.007" fy="32.837" gradientTransform="matrix(0.511315,0,0,0.446035,10.36142,-2.720333)" gradientUnits="userSpaceOnUse" xlink:href="#linearGradient4928"/><linearGradient id="linearGradient3484" x1="25.355" x2="25.355" y1="34.007" y2="32.409" gradientTransform="matrix(0.511315,0,0,0.465325,-1.25351,-3.453673)" gradientUnits="userSpaceOnUse" xlink:href="#linearGradient4616"/><linearGradient id="linearGradient3845" x1="22.75" x2="23.063" y1="40.001" y2="36.472" gradientUnits="userSpaceOnUse" xlink:href="#linearGradient3269"/><linearGradient id="linearGradient3847" x1="17.25" x2="17.25" y1="41.147" y2="36.103" gradientUnits="userSpaceOnUse" xlink:href="#linearGradient3284"/><linearGradient id="linearGradient3849" x1="18.875" x2="18.875" y1="36.16" y2="37.916" gradientUnits="userSpaceOnUse" xlink:href="#linearGradient3276"/><linearGradient id="linearGradient4023" x1="-11.986" x2="-11.986" y1="13.123" y2="29.727" gradientTransform="matrix(0.511315,0,0,0.465325,17.15383,-3.453673)" gradientUnits="userSpaceOnUse" xlink:href="#linearGradient2065"/><radialGradient id="radialGradient4025" cx="-6.007" cy="32.837" r="9.906" fx="-6.007" fy="32.837" gradientTransform="matrix(0.511315,0,0,0.446035,10.36142,-2.720333)" gradientUnits="userSpaceOnUse" xlink:href="#linearGradient4928"/><linearGradient id="linearGradient4027" x1="25.355" x2="25.355" y1="34.007" y2="32.409" gradientTransform="matrix(0.516229,0,0,0.581583,-1.294388,-7.439566)" gradientUnits="userSpaceOnUse" xlink:href="#linearGradient4616"/></defs><g id="layer6" style="display:none"><rect id="rect6284" width="48" height="48" x="296" y="50" style="fill:#eeeeec;fill-opacity:1;fill-rule:nonzero;stroke:none;stroke-width:2;marker:none;visibility:visible;display:inline;overflow:visible;enable-background:accumulate"/><rect id="rect6592" width="32" height="32" x="303" y="126" style="fill:#eeeeec;fill-opacity:1;fill-rule:nonzero;stroke:none;stroke-width:2;marker:none;visibility:visible;display:inline;overflow:visible;enable-background:accumulate"/><rect id="rect6749" width="22" height="22" x="303" y="177" style="fill:#eeeeec;fill-opacity:1;fill-rule:nonzero;stroke:none;stroke-width:2;marker:none;visibility:visible;display:inline;overflow:visible;enable-background:accumulate"/><rect id="rect6833" width="16" height="16" x="303" y="219" style="fill:#eeeeec;fill-opacity:1;fill-rule:nonzero;stroke:none;stroke-width:2;marker:none;visibility:visible;display:inline;overflow:visible;enable-background:accumulate"/><text id="context" x="20.971" y="21.514" xml:space="preserve" style="font-size:18.30070686px;font-style:normal;font-weight:400;fill:#000;fill-opacity:1;stroke:none;display:inline;enable-background:new;font-family:Bitstream Vera Sans"><tspan id="tspan2716" x="20.971" y="21.514">actions</tspan></text><text id="icon-name" x="191.971" y="21.514" xml:space="preserve" style="font-size:18.30070686px;font-style:normal;font-variant:normal;font-weight:700;font-stretch:normal;text-align:start;line-height:125%;writing-mode:lr-tb;text-anchor:start;fill:#000;fill-opacity:1;stroke:none;display:inline;enable-background:new;font-family:Droid Sans;-inkscape-font-specification:Droid Sans Bold"><tspan id="tspan3023" x="191.971" y="21.514">insert-image</tspan></text></g><g id="layer2" style="display:inline"><g id="g48" transform="translate(296,50) scale(1.000000,1.000000)" style="display:inline;enable-background:new"><g id="g3311" transform="translate(50,0)"><rect id="rect2227" width="40.973" height="30" x="-46.473" y="3.5" rx="2.376" ry="2.422" style="fill:#eeeeec;fill-opacity:1;stroke:#888a85;stroke-width:.99999988;stroke-linecap:round;stroke-linejoin:round;stroke-miterlimit:4;stroke-dasharray:none;stroke-dashoffset:0;stroke-opacity:1"/><rect id="rect2229" width="35.027" height="24" x="-43.5" y="6.5" rx=".438" ry=".438" style="fill:url(#linearGradient3308);fill-opacity:1;stroke:#888a85;stroke-width:.99999994;stroke-linecap:round;stroke-linejoin:round;stroke-miterlimit:4;stroke-dasharray:none;stroke-dashoffset:0;stroke-opacity:1"/><path id="path2231" d="M -33.916211,17.551777 C -39.08499,17.879732 -43.197462,22.206965 -43.197462,27.458027 C -43.197462,27.660812 -43.178252,27.852002 -43.166212,28.051777 L -23.416211,28.051777 C -23.40417,27.852002 -23.384961,27.660812 -23.384961,27.458027 C -23.384961,21.993506 -27.82669,17.551777 -33.291211,17.551777 C -33.504669,17.551777 -33.706098,17.538446 -33.916211,17.551777 z" style="color:#000;fill:url(#radialGradient3305);fill-opacity:1;fill-rule:evenodd;stroke:none;stroke-width:1;stroke-linecap:round;stroke-linejoin:round;marker:none;marker-start:none;marker-mid:none;marker-end:none;stroke-miterlimit:4;stroke-dasharray:none;stroke-dashoffset:0;stroke-opacity:1;visibility:visible;display:inline;overflow:visible"/><rect id="rect2233" width="34" height="2" x="-43" y="28" rx="0" ry="0" style="fill:url(#linearGradient3302);fill-opacity:1;stroke:none;stroke-width:1;stroke-linecap:round;stroke-linejoin:round;stroke-miterlimit:4;stroke-dasharray:none;stroke-dashoffset:0;stroke-opacity:1"/><path id="path2235" d="M -20.444416,28.972272 C -20.444416,28.972272 -21,25.888917 -21,24 C -20.984591,23.138301 -13.213293,16.425391 -13.193243,15.425476 L -15,17 L -16.265165,13.558058 L -12,14 L -10,12 L -12.265165,13.662913 L -13.044194,13.486136 L -14,10 L -13.513864,13.397748 L -17.044194,13.220971 L -15.93934,16.032932 L -19,13 L -15.762563,17.221464 C -15.762478,18.162992 -22.143437,23.910666 -22.132583,22.919597 L -24.779029,19.370019 L -25,14.571429 L -23,14 L -21.247845,9.679379 L -23.557565,13.672694 L -25.360733,13.59099 L -29.397121,10.181981 L -34.93934,8.06066 L -30.204505,10.662913 L -34,11 L -29,11 L -26,14 L -25.646447,19.181981 L -31,14 L -28.748699,16.707107 L -32,19 L -28.428571,17 L -22.779029,24.116117 L -23,28.972272 L -20.444416,28.972272 z" style="fill:#000;fill-opacity:1;fill-rule:evenodd;stroke:none;stroke-width:1px;stroke-linecap:butt;stroke-linejoin:miter;stroke-opacity:1"/><path id="path2237" d="M -33.632266,22.233668 C -36.452805,22.412629 -38.69693,24.773947 -38.69693,27.639387 C -38.69693,27.750044 -38.686448,27.854374 -38.679878,27.963389 L -27.902545,27.963389 C -27.895974,27.854374 -27.885492,27.750044 -27.885492,27.639387 C -27.885492,24.657465 -30.309289,22.233668 -33.291211,22.233668 C -33.407693,22.233668 -33.51761,22.226393 -33.632266,22.233668 z" style="color:#000;fill:#fef39e;fill-opacity:1;fill-rule:evenodd;stroke:none;stroke-width:1;stroke-linecap:round;stroke-linejoin:round;marker:none;marker-start:none;marker-mid:none;marker-end:none;stroke-miterlimit:4;stroke-dasharray:none;stroke-dashoffset:0;stroke-opacity:1;visibility:visible;display:inline;overflow:visible"/><path id="path2239" d="M -33.551318,23.531973 C -35.702406,23.668459 -37.413891,25.469322 -37.413891,27.654654 C -37.413891,27.739046 -37.405896,27.818614 -37.400886,27.901754 L -29.181537,27.901754 C -29.176526,27.818614 -29.168531,27.739046 -29.168531,27.654654 C -29.168531,25.380487 -31.017043,23.531973 -33.291211,23.531973 C -33.380046,23.531973 -33.463874,23.526426 -33.551318,23.531973 z" style="color:#000;fill:#fffbd7;fill-opacity:.55681817;fill-rule:evenodd;stroke:none;stroke-width:1;stroke-linecap:round;stroke-linejoin:round;marker:none;marker-start:none;marker-mid:none;marker-end:none;stroke-miterlimit:4;stroke-dasharray:none;stroke-dashoffset:0;stroke-opacity:1;visibility:visible;display:inline;overflow:visible"/><rect id="rect2241" width="38.973" height="28" x="-45.473" y="4.5" rx="1.385" ry="1.385" style="fill:none;fill-opacity:1;stroke:#fff;stroke-width:.99999994;stroke-linecap:round;stroke-linejoin:round;stroke-miterlimit:4;stroke-dasharray:none;stroke-dashoffset:0;stroke-opacity:1"/></g><path id="path2243" d="M 40.1875 43 A 16.375 3.1875 0 1 1 7.4375,43 A 16.375 3.1875 0 1 1 40.1875 43 z" transform="matrix(1.068703,0,0,1.411765,-1.9485,-17.2059)" style="opacity:.2;color:#000;fill:url(#radialGradient2268);fill-opacity:1;fill-rule:nonzero;stroke:none;stroke-width:1;stroke-linecap:round;stroke-linejoin:miter;marker:none;marker-start:none;marker-mid:none;marker-end:none;stroke-miterlimit:4;stroke-dasharray:none;stroke-dashoffset:1.4;stroke-opacity:1;visibility:visible;display:inline;overflow:visible"/><g id="g3321"><path id="path3323" d="M 15.500002,35.500004 L 32.500012,35.500004 L 24.000007,44.499996 L 15.500002,35.500004 z" style="color:#000;fill:url(#linearGradient3328);fill-opacity:1;fill-rule:nonzero;stroke:url(#linearGradient3330);stroke-width:1.00000048;stroke-linecap:round;stroke-linejoin:round;marker:none;marker-start:none;marker-mid:none;marker-end:none;stroke-miterlimit:4;stroke-dashoffset:1.4;stroke-opacity:1;visibility:visible;display:inline;overflow:visible"/><path id="path3325" d="M 17.8125,34.5 L 24,41.0625 L 30.1875,34.5 L 17.8125,34.5 z" transform="translate(0,2)" style="opacity:.7;color:#000;fill:none;fill-opacity:1;fill-rule:nonzero;stroke:url(#linearGradient3335);stroke-width:1;stroke-linecap:round;stroke-linejoin:miter;marker:none;marker-start:none;marker-mid:none;marker-end:none;stroke-miterlimit:4;stroke-dasharray:none;stroke-dashoffset:1.4;stroke-opacity:1;visibility:visible;display:inline;overflow:visible"/></g></g><g id="g32" transform="translate(303,126) scale(1.000000,1.000000)" style="display:inline;enable-background:new"><g id="g74" transform="translate(50,0)"><rect id="rect76" width="24.991" height="17.901" x="-46.496" y="3.595" rx="1.449" ry="1.445" style="fill:#eeeeec;fill-opacity:1;stroke:#888a85;stroke-width:1.00866008;stroke-linecap:round;stroke-linejoin:round;stroke-miterlimit:4;stroke-dasharray:none;stroke-dashoffset:0;stroke-opacity:1"/><rect id="rect78" width="22.985" height="15.985" x="-45.496" y="4.51" rx=".817" ry=".791" style="fill:none;fill-opacity:1;stroke:#fff;stroke-width:1.0087719;stroke-linecap:round;stroke-linejoin:round;stroke-miterlimit:4;stroke-dasharray:none;stroke-dashoffset:0;stroke-opacity:1"/><rect id="rect80" width="20.994" height="13.915" x="-44.497" y="5.582" rx=".262" ry=".254" style="fill:url(#linearGradient3308);fill-opacity:1;stroke:#888a85;stroke-width:1.00624108;stroke-linecap:round;stroke-linejoin:round;stroke-miterlimit:4;stroke-dasharray:none;stroke-dashoffset:0;stroke-opacity:1"/><path id="path82" d="M -38.114769,12.700944 C -40.83538,12.866897 -43,15.056565 -43,17.71371 C -43,17.816323 -42.989888,17.913069 -42.98355,18.01416 L -32.588042,18.01416 C -32.581703,17.913069 -32.571594,17.816323 -32.571594,17.71371 C -32.571594,14.94855 -34.909518,12.700944 -37.785795,12.700944 C -37.898151,12.700944 -38.004173,12.694199 -38.114769,12.700944 z" style="color:#000;fill:url(#radialGradient3305);fill-opacity:1;fill-rule:evenodd;stroke:none;stroke-width:1;stroke-linecap:round;stroke-linejoin:round;marker:none;marker-start:none;marker-mid:none;marker-end:none;stroke-miterlimit:4;stroke-dasharray:none;stroke-dashoffset:0;stroke-opacity:1;visibility:visible;display:inline;overflow:visible"/><rect id="rect84" width="20" height="1" x="-44" y="18" rx="0" ry="0" style="fill:url(#linearGradient3302);fill-opacity:1;stroke:none;stroke-width:1;stroke-linecap:round;stroke-linejoin:round;stroke-miterlimit:4;stroke-dasharray:none;stroke-dashoffset:0;stroke-opacity:1"/><path id="path86" d="M -31.023823,18.479949 C -31.023823,18.479949 -31.316257,16.919708 -31.316257,15.963878 C -31.308147,15.52784 -27.217686,12.130971 -27.207132,11.624993 L -28.158128,12.421734 L -28.824053,10.680042 L -26.579063,10.903673 L -25.526354,9.8916319 L -26.718633,10.7331 L -27.128679,10.643647 L -27.631773,8.879591 L -27.375892,10.598921 L -29.234098,10.509468 L -28.652554,11.932379 L -30.263547,10.397653 L -28.559507,12.533799 C -28.559462,13.010232 -31.91811,15.918673 -31.912398,15.417172 L -33.305368,13.621012 L -33.421677,11.192828 L -32.368967,10.903673 L -31.446712,8.7173502 L -32.662443,10.73805 L -33.61155,10.696706 L -35.736122,8.9716771 L -38.653296,7.8982452 L -36.161094,9.2150385 L -38.158871,9.3856114 L -35.527096,9.3856114 L -33.948032,10.903673 L -33.761936,13.525861 L -36.579806,10.903673 L -35.394823,12.273526 L -37.10616,13.433776 L -35.226321,12.421734 L -32.252657,16.022635 L -32.368967,18.479949 L -31.023823,18.479949 z" style="fill:#000;fill-opacity:1;fill-rule:evenodd;stroke:none;stroke-width:1px;stroke-linecap:butt;stroke-linejoin:miter;stroke-opacity:1"/><path id="path88" d="M -37.965312,15.070077 C -39.449916,15.160635 -40.631123,16.355511 -40.631123,17.805482 C -40.631123,17.861477 -40.625605,17.91427 -40.622148,17.969434 L -34.949445,17.969434 C -34.945986,17.91427 -34.940469,17.861477 -34.940469,17.805482 C -34.940469,16.296568 -36.216247,15.070077 -37.785795,15.070077 C -37.847107,15.070077 -37.904963,15.066397 -37.965312,15.070077 z" style="color:#000;fill:#fef39e;fill-opacity:1;fill-rule:evenodd;stroke:none;stroke-width:1;stroke-linecap:round;stroke-linejoin:round;marker:none;marker-start:none;marker-mid:none;marker-end:none;stroke-miterlimit:4;stroke-dasharray:none;stroke-dashoffset:0;stroke-opacity:1;visibility:visible;display:inline;overflow:visible"/><path id="path90" d="M -37.922705,15.727046 C -39.05494,15.796111 -39.955789,16.707384 -39.955789,17.813208 C -39.955789,17.855911 -39.951581,17.896175 -39.948944,17.938245 L -35.622649,17.938245 C -35.620011,17.896175 -35.615803,17.855911 -35.615803,17.813208 C -35.615803,16.662432 -36.588777,15.727046 -37.785795,15.727046 C -37.832555,15.727046 -37.876678,15.724239 -37.922705,15.727046 z" style="color:#000;fill:#fffbd7;fill-opacity:.55681817;fill-rule:evenodd;stroke:none;stroke-width:1;stroke-linecap:round;stroke-linejoin:round;marker:none;marker-start:none;marker-mid:none;marker-end:none;stroke-miterlimit:4;stroke-dasharray:none;stroke-dashoffset:0;stroke-opacity:1;visibility:visible;display:inline;overflow:visible"/></g><path id="path92" d="M 40.1875 43 A 16.375 3.1875 0 1 1 7.4375,43 A 16.375 3.1875 0 1 1 40.1875 43 z" transform="matrix(0.4980295,0,0,0.7134467,3.9905785,-2.1863309)" style="opacity:.2;color:#000;fill:url(#radialGradient2268);fill-opacity:1;fill-rule:nonzero;stroke:none;stroke-width:1;stroke-linecap:round;stroke-linejoin:miter;marker:none;marker-start:none;marker-mid:none;marker-end:none;stroke-miterlimit:4;stroke-dasharray:none;stroke-dashoffset:1.4;stroke-opacity:1;visibility:visible;display:inline;overflow:visible"/><g id="g94" transform="matrix(0.5063578,0,0,0.5060204,3.8828976,6.4820942)"><path id="path96" d="M 13.073951,33.639629 L 34.706154,33.639629 L 23.890052,44.978325 L 13.073951,33.639629 z" style="color:#000;fill:url(#linearGradient3328);fill-opacity:1;fill-rule:nonzero;stroke:url(#linearGradient3330);stroke-width:1.9755464;stroke-linecap:round;stroke-linejoin:round;marker:none;marker-start:none;marker-mid:none;marker-end:none;stroke-miterlimit:4;stroke-dasharray:none;stroke-dashoffset:1.4;stroke-opacity:1;visibility:visible;display:inline;overflow:visible"/><path id="path98" d="M 17.8125,34.5 L 24,41.0625 L 30.1875,34.5 L 17.8125,34.5 z" transform="matrix(0.9795398,0,0,0.9653156,0.293483,2.2930502)" style="opacity:.7;color:#000;fill:none;fill-opacity:1;fill-rule:nonzero;stroke:url(#linearGradient3335);stroke-width:2.00974679;stroke-linecap:round;stroke-linejoin:miter;marker:none;marker-start:none;marker-mid:none;marker-end:none;stroke-miterlimit:4;stroke-dasharray:none;stroke-dashoffset:1.4;stroke-opacity:1;visibility:visible;display:inline;overflow:visible"/></g></g><g id="g22" transform="translate(303,177) scale(1.000000,1.000000)" style="display:inline;enable-background:new"><path id="path3418" d="M 40.1875 43 A 16.375 3.1875 0 1 1 7.4375,43 A 16.375 3.1875 0 1 1 40.1875 43 z" transform="matrix(0.427481,0,0,0.627452,0.8206,-6.980431)" style="opacity:.2;color:#000;fill:url(#radialGradient3426);fill-opacity:1;fill-rule:nonzero;stroke:none;stroke-width:1;stroke-linecap:round;stroke-linejoin:miter;marker:none;marker-start:none;marker-mid:none;marker-end:none;stroke-miterlimit:4;stroke-dasharray:none;stroke-dashoffset:1.4;stroke-opacity:1;visibility:visible;display:inline;overflow:visible"/><g id="g3420" transform="matrix(0.525806,0,0,0.455955,-1.61934,0.249873)"><path id="path3422" d="M 15.500002,35.500004 L 32.500012,35.500004 L 24.000007,44.499996 L 15.500002,35.500004 z" style="color:#000;fill:url(#linearGradient3428);fill-opacity:1;fill-rule:nonzero;stroke:url(#linearGradient3430);stroke-width:2.04233456;stroke-linecap:round;stroke-linejoin:round;marker:none;marker-start:none;marker-mid:none;marker-end:none;stroke-miterlimit:4;stroke-dashoffset:1.4;stroke-opacity:1;visibility:visible;display:inline;overflow:visible"/><path id="path3424" d="M 20.28125,35.5625 L 24,39.5 L 27.71875,35.5625 L 20.28125,35.5625 z" transform="translate(0,2)" style="opacity:.7;color:#000;fill:none;fill-opacity:1;fill-rule:nonzero;stroke:url(#linearGradient3432);stroke-width:2.04233336;stroke-linecap:round;stroke-linejoin:miter;marker:none;marker-start:none;marker-mid:none;marker-end:none;stroke-miterlimit:4;stroke-dasharray:none;stroke-dashoffset:1.4;stroke-opacity:1;visibility:visible;display:inline;overflow:visible"/></g><rect id="rect3436" width="21.001" height="14.001" x=".499" y=".5" rx="1.537" ry="1.537" style="fill:#fff;fill-opacity:1;stroke:#888a85;stroke-width:.99999857;stroke-linecap:round;stroke-linejoin:round;stroke-miterlimit:4;stroke-dasharray:none;stroke-dashoffset:0;stroke-opacity:1"/><g id="g3472" transform="matrix(0.950508,0,0,0.909572,0.5074,0.727747)"><rect id="rect3438" width="17.91" height="11.168" x="2.07" y="1.898" rx=".224" ry=".204" style="fill:url(#linearGradient3480);fill-opacity:1;stroke:#888a85;stroke-width:1.07548106;stroke-linecap:round;stroke-linejoin:round;stroke-miterlimit:4;stroke-dasharray:none;stroke-dashoffset:0;stroke-opacity:1"/><path id="path3440" d="M 6.9703726,7.040233 C 4.3274983,7.192838 2.2247297,9.206408 2.2247297,11.649858 C 2.2247297,11.744219 2.2345521,11.833185 2.2407083,11.926145 L 12.33918,11.926145 C 12.345337,11.833185 12.355159,11.744219 12.355159,11.649858 C 12.355159,9.10708 10.084036,7.040233 7.2899444,7.040233 C 7.1808002,7.040233 7.0778065,7.034029 6.9703726,7.040233 z" style="color:#000;fill:url(#radialGradient3482);fill-opacity:1;fill-rule:evenodd;stroke:none;stroke-width:1;stroke-linecap:round;stroke-linejoin:round;marker:none;marker-start:none;marker-mid:none;marker-end:none;stroke-miterlimit:4;stroke-dasharray:none;stroke-dashoffset:0;stroke-opacity:1;visibility:visible;display:inline;overflow:visible"/><rect id="rect3442" width="17.385" height=".931" x="2.326" y="11.902" rx="0" ry="0" style="fill:url(#linearGradient3484);fill-opacity:1;stroke:none;stroke-width:1;stroke-linecap:round;stroke-linejoin:round;stroke-miterlimit:4;stroke-dasharray:none;stroke-dashoffset:0;stroke-opacity:1"/><path id="path3444" d="M 13.858703,12.354474 C 13.858703,12.354474 13.574625,10.919712 13.574625,10.040752 C 13.582504,9.639782 17.556085,6.516097 17.566337,6.050812 L 16.642515,6.783477 L 15.995617,5.181855 L 18.17646,5.387502 L 19.19909,4.456852 L 18.040877,5.230647 L 17.642548,5.148388 L 17.15383,3.526202 L 17.402399,5.107259 L 15.597288,5.025 L 16.162216,6.333476 L 14.597255,4.922177 L 16.252605,6.88653 C 16.252649,7.324646 12.989969,9.999183 12.995518,9.538013 L 11.642351,7.886306 L 11.529365,5.653402 L 12.551995,5.387502 L 13.447898,3.377009 L 12.266904,5.235198 L 11.344917,5.197179 L 9.2810511,3.610882 L 6.4472314,2.623779 L 8.8682235,3.834672 L 6.92753,3.991527 L 9.484105,3.991527 L 11.01805,5.387502 L 11.198827,7.798807 L 8.461475,5.387502 L 9.612599,6.647187 L 7.95016,7.714127 L 9.7762852,6.783477 L 12.664981,10.094784 L 12.551995,12.354474 L 13.858703,12.354474 z" style="fill:#000;fill-opacity:1;fill-rule:evenodd;stroke:none;stroke-width:1px;stroke-linecap:butt;stroke-linejoin:miter;stroke-opacity:1"/><path id="path3446" d="M 7.1155579,9.218834 C 5.673374,9.302109 4.5259192,10.400889 4.5259192,11.73425 C 4.5259192,11.785741 4.5312788,11.834289 4.5346382,11.885016 L 10.04525,11.885016 C 10.04861,11.834289 10.05397,11.785741 10.05397,11.73425 C 10.05397,10.346687 8.8146459,9.218834 7.2899444,9.218834 C 7.2303855,9.218834 7.1741832,9.215448 7.1155579,9.218834 z" style="color:#000;fill:#fef39e;fill-opacity:1;fill-rule:evenodd;stroke:none;stroke-width:1;stroke-linecap:round;stroke-linejoin:round;marker:none;marker-start:none;marker-mid:none;marker-end:none;stroke-miterlimit:4;stroke-dasharray:none;stroke-dashoffset:0;stroke-opacity:1;visibility:visible;display:inline;overflow:visible"/><path id="path3448" d="M 7.1569478,9.822967 C 6.0570643,9.886478 5.1819563,10.724464 5.1819563,11.741354 C 5.1819563,11.780624 5.1860443,11.817649 5.188606,11.856336 L 9.3912824,11.856336 C 9.3938446,11.817649 9.3979326,11.780624 9.3979326,11.741354 C 9.3979326,10.683127 8.4527607,9.822967 7.2899444,9.822967 C 7.2445218,9.822967 7.2016593,9.820386 7.1569478,9.822967 z" style="color:#000;fill:#fffbd7;fill-opacity:.55681817;fill-rule:evenodd;stroke:none;stroke-width:1;stroke-linecap:round;stroke-linejoin:round;marker:none;marker-start:none;marker-mid:none;marker-end:none;stroke-miterlimit:4;stroke-dasharray:none;stroke-dashoffset:0;stroke-opacity:1;visibility:visible;display:inline;overflow:visible"/></g></g><g id="g16" transform="translate(303,219) scale(1.000000,1.000000)" style="display:inline;enable-background:new"><rect id="rect3981" width="15.001" height="12.954" x=".499" y=".546" rx="1.098" ry="1.422" style="fill:#fff;fill-opacity:1;stroke:#888a85;stroke-width:.99999905;stroke-linecap:round;stroke-linejoin:round;stroke-miterlimit:4;stroke-dasharray:none;stroke-dashoffset:0;stroke-opacity:1"/><g id="g3983" transform="matrix(0.615096,0,0,0.800698,1.21859,1.038591)"><rect id="rect3985" width="17.91" height="11.168" x="2.07" y="1.898" rx=".224" ry=".204" style="fill:url(#linearGradient4023);fill-opacity:1;stroke:#888a85;stroke-width:1.42493021;stroke-linecap:round;stroke-linejoin:round;stroke-miterlimit:4;stroke-dasharray:none;stroke-dashoffset:0;stroke-opacity:1"/><path id="path3987" d="M 6.9703726,7.040233 C 4.3274983,7.192838 2.2247297,9.206408 2.2247297,11.649858 C 2.2247297,11.744219 2.2345521,11.833185 2.2407083,11.926145 L 12.33918,11.926145 C 12.345337,11.833185 12.355159,11.744219 12.355159,11.649858 C 12.355159,9.10708 10.084036,7.040233 7.2899444,7.040233 C 7.1808002,7.040233 7.0778065,7.034029 6.9703726,7.040233 z" style="color:#000;fill:url(#radialGradient4025);fill-opacity:1;fill-rule:evenodd;stroke:none;stroke-width:1;stroke-linecap:round;stroke-linejoin:round;marker:none;marker-start:none;marker-mid:none;marker-end:none;stroke-miterlimit:4;stroke-dasharray:none;stroke-dashoffset:0;stroke-opacity:1;visibility:visible;display:inline;overflow:visible"/><rect id="rect3989" width="16.154" height="1.25" x="3" y="11.25" rx="0" ry="0" style="fill:url(#linearGradient4027);fill-opacity:1;stroke:none;stroke-width:1;stroke-linecap:round;stroke-linejoin:round;stroke-miterlimit:4;stroke-dasharray:none;stroke-dashoffset:0;stroke-opacity:1"/><path id="path3991" d="M 13.858703,12.354474 C 13.858703,12.354474 13.574625,10.919712 13.574625,10.040752 C 13.582504,9.639782 17.556085,6.516097 17.566337,6.050812 L 16.642515,6.783477 L 15.995617,5.181855 L 18.17646,5.387502 L 19.19909,4.456852 L 18.040877,5.230647 L 17.642548,5.148388 L 17.15383,3.526202 L 17.402399,5.107259 L 15.597288,5.025 L 16.162216,6.333476 L 14.597255,4.922177 L 16.252605,6.88653 C 16.252649,7.324646 12.989969,9.999183 12.995518,9.538013 L 11.642351,7.886306 L 11.529365,5.653402 L 12.551995,5.387502 L 13.447898,3.377009 L 12.266904,5.235198 L 11.344917,5.197179 L 9.2810511,3.610882 L 6.4472314,2.623779 L 8.8682235,3.834672 L 6.92753,3.991527 L 9.484105,3.991527 L 11.01805,5.387502 L 11.198827,7.798807 L 8.461475,5.387502 L 9.612599,6.647187 L 7.95016,7.714127 L 9.7762852,6.783477 L 12.664981,10.094784 L 12.551995,12.354474 L 13.858703,12.354474 z" style="fill:#000;fill-opacity:1;fill-rule:evenodd;stroke:none;stroke-width:1px;stroke-linecap:butt;stroke-linejoin:miter;stroke-opacity:1"/><path id="path3993" d="M 7.1115426,8.7376098 C 5.6693587,8.8160862 4.5219039,9.8515514 4.5219039,11.10808 C 4.5219039,11.156604 4.5272635,11.202354 4.5306229,11.250158 L 10.041235,11.250158 C 10.044595,11.202354 10.049955,11.156604 10.049955,11.10808 C 10.049955,9.8004727 8.8106306,8.7376098 7.2859291,8.7376098 C 7.2263702,8.7376098 7.1701679,8.7344189 7.1115426,8.7376098 z" style="color:#000;fill:#fef39e;fill-opacity:1;fill-rule:evenodd;stroke:none;stroke-width:1;stroke-linecap:round;stroke-linejoin:round;marker:none;marker-start:none;marker-mid:none;marker-end:none;stroke-miterlimit:4;stroke-dasharray:none;stroke-dashoffset:0;stroke-opacity:1;visibility:visible;display:inline;overflow:visible"/><path id="path3995" d="M 7.1529325,9.3069309 C 6.053049,9.3667822 5.177941,10.156481 5.177941,11.114775 C 5.177941,11.151782 5.182029,11.186673 5.1845907,11.223131 L 9.3872671,11.223131 C 9.3898293,11.186673 9.3939173,11.151782 9.3939173,11.114775 C 9.3939173,10.117526 8.4487454,9.3069309 7.2859291,9.3069309 C 7.2405065,9.3069309 7.197644,9.3044986 7.1529325,9.3069309 z" style="color:#000;fill:#fffbd7;fill-opacity:.55681817;fill-rule:evenodd;stroke:none;stroke-width:1;stroke-linecap:round;stroke-linejoin:round;marker:none;marker-start:none;marker-mid:none;marker-end:none;stroke-miterlimit:4;stroke-dasharray:none;stroke-dashoffset:0;stroke-opacity:1;visibility:visible;display:inline;overflow:visible"/></g><rect id="rect2061" width="10" height="2" x="4.5" y="10.5" rx="1.098" ry="1.422" style="opacity:.8;fill:none;fill-opacity:1;stroke:#fff;stroke-width:1;stroke-linecap:round;stroke-linejoin:miter;stroke-miterlimit:4;stroke-dasharray:none;stroke-dashoffset:0;stroke-opacity:1"/><g id="g3813" transform="matrix(0.47066,0,0,0.449643,-1.79647,-4.462342)"><path id="path3815" d="M 15.500002,35.500004 L 32.500012,35.500004 L 24.000007,44.499996 L 15.500002,35.500004 z" style="color:#000;fill:url(#linearGradient3845);fill-opacity:1;fill-rule:nonzero;stroke:url(#linearGradient3847);stroke-width:2.17376614;stroke-linecap:round;stroke-linejoin:round;marker:none;marker-start:none;marker-mid:none;marker-end:none;stroke-miterlimit:4;stroke-dashoffset:1.4;stroke-opacity:1;visibility:visible;display:inline;overflow:visible"/><path id="path3817" d="M 20.28125,35.5625 L 24,39.5 L 27.71875,35.5625 L 20.28125,35.5625 z" transform="translate(0,2)" style="opacity:.7;color:#000;fill:none;fill-opacity:1;fill-rule:nonzero;stroke:url(#linearGradient3849);stroke-width:2.17376471;stroke-linecap:round;stroke-linejoin:miter;marker:none;marker-start:none;marker-mid:none;marker-end:none;stroke-miterlimit:4;stroke-dasharray:none;stroke-dashoffset:1.4;stroke-opacity:1;visibility:visible;display:inline;overflow:visible"/></g></g></g></svg>