<svg xmlns="http://www.w3.org/2000/svg" xmlns:svg="http://www.w3.org/2000/svg" xmlns:xlink="http://www.w3.org/1999/xlink" id="svg11300" width="400" height="300" version="1.0" style="display:inline;enable-background:new"><title id="title8836">Optical Drive</title><metadata id="metadata154"/><defs id="defs3"><linearGradient id="linearGradient3374" x1="18.875" x2="18.875" y1="35.183" y2="43.979" gradientUnits="userSpaceOnUse" xlink:href="#linearGradient3276"/><linearGradient id="linearGradient3372" x1="17.25" x2="17.25" y1="41.147" y2="36.103" gradientUnits="userSpaceOnUse" xlink:href="#linearGradient3284"/><linearGradient id="linearGradient3370" x1="22.75" x2="22.75" y1="40.001" y2="37.41" gradientUnits="userSpaceOnUse" xlink:href="#linearGradient3269"/><linearGradient id="linearGradient3188"><stop id="stop3190" offset="0" style="stop-color:black;stop-opacity:1"/><stop id="stop3192" offset="1" style="stop-color:black;stop-opacity:0"/></linearGradient><linearGradient id="linearGradient3269"><stop id="stop3271" offset="0" style="stop-color:#fecb81;stop-opacity:1"/><stop id="stop3273" offset="1" style="stop-color:#fcaf3e;stop-opacity:1"/></linearGradient><linearGradient id="linearGradient3276"><stop id="stop3278" offset="0" style="stop-color:white;stop-opacity:1"/><stop id="stop3280" offset="1" style="stop-color:white;stop-opacity:0"/></linearGradient><linearGradient id="linearGradient3284"><stop id="stop3286" offset="0" style="stop-color:#ce5c00;stop-opacity:1"/><stop id="stop3288" offset="1" style="stop-color:#f57900;stop-opacity:1"/></linearGradient><radialGradient id="radialGradient2287" cx="23.813" cy="43" r="16.375" fx="23.813" fy="43" gradientTransform="matrix(1,0,0,0.194656,0,34.62977)" gradientUnits="userSpaceOnUse" xlink:href="#linearGradient3188"/><linearGradient id="linearGradient4071"><stop id="stop4073" offset="0" style="stop-color:#3465a4;stop-opacity:1"/><stop id="stop4075" offset="1" style="stop-color:#729fcf;stop-opacity:1"/></linearGradient><linearGradient id="linearGradient4093"><stop id="stop4095" offset="0" style="stop-color:#729fcf;stop-opacity:1"/><stop id="stop4097" offset="1" style="stop-color:#adc7e3;stop-opacity:1"/></linearGradient><linearGradient id="linearGradient4105"><stop id="stop4107" offset="0" style="stop-color:white;stop-opacity:1"/><stop id="stop4109" offset="1" style="stop-color:white;stop-opacity:0"/></linearGradient><linearGradient id="linearGradient3278" x1="15.875" x2="30.75" y1="11.5" y2="62.5" gradientTransform="translate(2.1186065e-8,-2)" gradientUnits="userSpaceOnUse" xlink:href="#linearGradient4105"/><linearGradient id="linearGradient3283" x1="8.075" x2="18.704" y1="5.041" y2="33" gradientTransform="translate(2.1186065e-8,-2)" gradientUnits="userSpaceOnUse" xlink:href="#linearGradient4071"/><linearGradient id="linearGradient3286" x1="31.743" x2="9.898" y1="-.194" y2="20.308" gradientTransform="translate(2.1186065e-8,-2)" gradientUnits="userSpaceOnUse" xlink:href="#linearGradient4093"/><radialGradient id="radialGradient6139" cx="23.813" cy="43" r="16.375" fx="23.813" fy="43" gradientTransform="matrix(1,0,0,0.194656,0,34.62977)" gradientUnits="userSpaceOnUse" xlink:href="#linearGradient3188"/><linearGradient id="linearGradient6141" x1="22.75" x2="22.75" y1="40.001" y2="37.41" gradientTransform="matrix(0.6443311,0,0,0.6375129,-0.8131012,0.9367471)" gradientUnits="userSpaceOnUse" xlink:href="#linearGradient3269"/><linearGradient id="linearGradient6143" x1="17.25" x2="17.25" y1="41.147" y2="36.103" gradientTransform="matrix(0.6443311,0,0,0.6375129,-0.8131012,0.9367471)" gradientUnits="userSpaceOnUse" xlink:href="#linearGradient3284"/><linearGradient id="linearGradient6145" x1="18.875" x2="18.875" y1="35.183" y2="43.979" gradientUnits="userSpaceOnUse" xlink:href="#linearGradient3276"/><radialGradient id="radialGradient3426" cx="23.813" cy="43" r="16.375" fx="23.813" fy="43" gradientTransform="matrix(1,0,0,0.194656,0,34.62977)" gradientUnits="userSpaceOnUse" xlink:href="#linearGradient3188"/><linearGradient id="linearGradient3432" x1="18.875" x2="18.875" y1="36.16" y2="37.916" gradientUnits="userSpaceOnUse" xlink:href="#linearGradient3276"/><linearGradient id="linearGradient3430" x1="17.25" x2="17.25" y1="41.147" y2="36.103" gradientUnits="userSpaceOnUse" xlink:href="#linearGradient3284"/><linearGradient id="linearGradient3428" x1="22.75" x2="23.063" y1="40.001" y2="36.472" gradientUnits="userSpaceOnUse" xlink:href="#linearGradient3269"/><linearGradient id="linearGradient3849" x1="18.875" x2="18.875" y1="36.16" y2="37.916" gradientUnits="userSpaceOnUse" xlink:href="#linearGradient3276"/><linearGradient id="linearGradient3847" x1="17.25" x2="17.25" y1="41.147" y2="36.103" gradientUnits="userSpaceOnUse" xlink:href="#linearGradient3284"/><linearGradient id="linearGradient3845" x1="22.75" x2="23.063" y1="40.001" y2="36.472" gradientUnits="userSpaceOnUse" xlink:href="#linearGradient3269"/></defs><g id="layer6" style="display:none"><rect id="rect6284" width="48" height="48" x="296" y="50" style="fill:#eeeeec;fill-opacity:1;fill-rule:nonzero;stroke:none;stroke-width:2;marker:none;visibility:visible;display:inline;overflow:visible;enable-background:accumulate"/><rect id="rect6592" width="32" height="32" x="303" y="126" style="fill:#eeeeec;fill-opacity:1;fill-rule:nonzero;stroke:none;stroke-width:2;marker:none;visibility:visible;display:inline;overflow:visible;enable-background:accumulate"/><rect id="rect6749" width="22" height="22" x="303" y="177" style="fill:#eeeeec;fill-opacity:1;fill-rule:nonzero;stroke:none;stroke-width:2;marker:none;visibility:visible;display:inline;overflow:visible;enable-background:accumulate"/><rect id="rect6833" width="16" height="16" x="303" y="219" style="fill:#eeeeec;fill-opacity:1;fill-rule:nonzero;stroke:none;stroke-width:2;marker:none;visibility:visible;display:inline;overflow:visible;enable-background:accumulate"/><text id="context" x="20.971" y="21.514" xml:space="preserve" style="font-size:18.30070686px;font-style:normal;font-weight:400;fill:#000;fill-opacity:1;stroke:none;display:inline;enable-background:new;font-family:Bitstream Vera Sans"><tspan id="tspan2716" x="20.971" y="21.514">actions</tspan></text><text id="icon-name" x="191.971" y="21.514" xml:space="preserve" style="font-size:18.30070686px;font-style:normal;font-variant:normal;font-weight:700;font-stretch:normal;text-align:start;line-height:125%;writing-mode:lr-tb;text-anchor:start;fill:#000;fill-opacity:1;stroke:none;display:inline;enable-background:new;font-family:Droid Sans;-inkscape-font-specification:Droid Sans Bold"><tspan id="tspan3023" x="191.971" y="21.514">insert-object</tspan></text></g><g id="layer2" style="display:inline"><g id="g48" transform="translate(296,50) scale(1.000000,1.000000)" style="display:inline;enable-background:new"><path id="path3360" d="M 40.1875,43 A 16.375,3.1875 0 1 1 7.4375,43 A 16.375,3.1875 0 1 1 40.1875,43 z" transform="matrix(1.068703,0,0,1.4117649,-2.9485,-20.205893)" style="opacity:.2;color:#000;fill:url(#radialGradient2287);fill-opacity:1;fill-rule:nonzero;stroke:none;stroke-width:1;stroke-linecap:round;stroke-linejoin:miter;marker:none;marker-start:none;marker-mid:none;marker-end:none;stroke-miterlimit:4;stroke-dasharray:none;stroke-dashoffset:1.4;stroke-opacity:1;visibility:visible;display:inline;overflow:visible"/><g id="g3362" transform="translate(0,-2.0625)"><path id="path3364" d="M 15.500002,35.500004 L 32.500012,35.500004 L 24.000007,44.499996 L 15.500002,35.500004 z" style="color:#000;fill:url(#linearGradient3370);fill-opacity:1;fill-rule:nonzero;stroke:url(#linearGradient3372);stroke-width:1.00000048;stroke-linecap:round;stroke-linejoin:round;marker:none;marker-start:none;marker-mid:none;marker-end:none;stroke-miterlimit:4;stroke-dashoffset:1.4;stroke-opacity:1;visibility:visible;display:inline;overflow:visible"/><path id="path3366" d="M 17.8125,34.5 L 24,41.0625 L 30.1875,34.5 L 17.8125,34.5 z" transform="translate(0,2)" style="opacity:.7;color:#000;fill:none;fill-opacity:1;fill-rule:nonzero;stroke:url(#linearGradient3374);stroke-width:1;stroke-linecap:round;stroke-linejoin:miter;marker:none;marker-start:none;marker-mid:none;marker-end:none;stroke-miterlimit:4;stroke-dasharray:none;stroke-dashoffset:1.4;stroke-opacity:1;visibility:visible;display:inline;overflow:visible"/></g><path id="rect2274" d="M 14.5,2.5 L 10.5,9.013864 L 10.5,30.5 L 37.5,30.5 L 37.5,9.013864 L 33.5,2.5 L 14.5,2.5 z" style="fill:url(#linearGradient3286);fill-opacity:1;stroke:#3465a4;stroke-width:1.00000036;stroke-linecap:round;stroke-linejoin:miter;stroke-miterlimit:4;stroke-dasharray:none;stroke-dashoffset:1.4;stroke-opacity:1"/><path id="rect4069" d="M 11,9.000017 L 37.00002,9.000017 L 37.00002,30 L 11,30 L 11,9.000017 z" style="fill:url(#linearGradient3283);fill-opacity:1;stroke:none;stroke-width:1.00000036;stroke-linecap:round;stroke-linejoin:miter;stroke-miterlimit:4;stroke-dashoffset:1.4;stroke-opacity:1"/><path id="path4079" d="M 11.5,9.5 L 36.5,9.5" style="fill:none;fill-rule:evenodd;stroke:#b5cee7;stroke-width:1px;stroke-linecap:square;stroke-linejoin:miter;stroke-opacity:1"/><path id="path4083" d="M 15.09375,3.5 L 11.5,9.25 L 11.5,29.5 L 36.5,29.5 L 36.5,9.25 L 32.90625,3.5 L 15.09375,3.5 z" style="opacity:.5;fill:none;fill-opacity:1;stroke:url(#linearGradient3278);stroke-width:1.00000036;stroke-linecap:round;stroke-linejoin:miter;stroke-miterlimit:4;stroke-dashoffset:1.4;stroke-opacity:1"/></g><g id="g32" transform="translate(303,126) scale(1.000000,1.000000)" style="display:inline;enable-background:new"><path id="path67" d="M 10.018519,1.5000002 L 7.5,5.6874844 L 7.5,19.500001 L 24.5,19.500001 L 24.5,5.6874844 L 21.981481,1.5000002 L 10.018519,1.5000002 z" style="fill:url(#linearGradient3286);fill-opacity:1;stroke:#3465a4;stroke-width:1.00000036;stroke-linecap:round;stroke-linejoin:miter;stroke-miterlimit:4;stroke-dasharray:none;stroke-dashoffset:1.4;stroke-opacity:1"/><path id="path69" d="M 8,6 L 24,6 L 24,19 L 8,19 L 8,6 z" style="fill:url(#linearGradient3283);fill-opacity:1;stroke:none;stroke-width:1.00000036;stroke-linecap:round;stroke-linejoin:miter;stroke-miterlimit:4;stroke-dashoffset:1.4;stroke-opacity:1"/><path id="path71" d="M 8.4848112,6.5 L 23.51519,6.5" style="fill:none;fill-rule:evenodd;stroke:#b5cee7;stroke-width:1.00000012px;stroke-linecap:square;stroke-linejoin:miter;stroke-opacity:1"/><path id="path73" d="M 10.656251,2.5000003 L 8.5000001,6.038462 L 8.5000001,18.500001 L 23.5,18.500001 L 23.5,6.038462 L 21.34375,2.5000003 L 10.656251,2.5000003 z" style="opacity:.5;fill:none;fill-opacity:1;stroke:url(#linearGradient3278);stroke-width:1.00000048;stroke-linecap:round;stroke-linejoin:miter;stroke-miterlimit:4;stroke-dashoffset:1.4;stroke-opacity:1"/><g id="g6134" transform="translate(1.3238242,-6.8459e-2)"><path id="path2243" d="M 40.1875 43 A 16.375 3.1875 0 1 1 7.4375,43 A 16.375 3.1875 0 1 1 40.1875 43 z" transform="matrix(0.4980295,0,0,0.7134467,2.6616153,-2.1223042)" style="opacity:.2;color:#000;fill:url(#radialGradient6139);fill-opacity:1;fill-rule:nonzero;stroke:none;stroke-width:1;stroke-linecap:round;stroke-linejoin:miter;marker:none;marker-start:none;marker-mid:none;marker-end:none;stroke-miterlimit:4;stroke-dasharray:none;stroke-dashoffset:1.4;stroke-opacity:1;visibility:visible;display:inline;overflow:visible"/><path id="path3323" d="M 9.1740314,23.568459 L 20.127666,23.568459 L 14.650849,29.306071 L 9.1740314,23.568459 z" style="color:#000;fill:url(#linearGradient6141);fill-opacity:1;fill-rule:nonzero;stroke:url(#linearGradient6143);stroke-width:1;stroke-linecap:round;stroke-linejoin:round;marker:none;marker-start:none;marker-mid:none;marker-end:none;stroke-miterlimit:4;stroke-dasharray:none;stroke-dashoffset:1.4;stroke-opacity:1;visibility:visible;display:inline;overflow:visible"/><path id="path3325" d="M 17.8125,34.5 L 24,41.0625 L 30.1875,34.5 L 17.8125,34.5 z" transform="matrix(0.4959976,0,0,0.4884694,2.7025418,7.7064511)" style="opacity:.7;color:#000;fill:none;fill-opacity:1;fill-rule:nonzero;stroke:url(#linearGradient6145);stroke-width:2.00974679;stroke-linecap:round;stroke-linejoin:miter;marker:none;marker-start:none;marker-mid:none;marker-end:none;stroke-miterlimit:4;stroke-dasharray:none;stroke-dashoffset:1.4;stroke-opacity:1;visibility:visible;display:inline;overflow:visible"/></g></g><g id="g22" transform="translate(303,177) scale(1.000000,1.000000)" style="display:inline;enable-background:new"><path id="path80" d="M 5.3171301,1.5000002 L 3.5000002,4.2916562 L 3.5000002,14.5 L 16.5,14.5 L 16.5,4.2916562 L 14.682871,1.5000002 L 5.3171301,1.5000002 z" style="fill:url(#linearGradient3286);fill-opacity:1;stroke:#3465a4;stroke-width:1.00000036;stroke-linecap:round;stroke-linejoin:miter;stroke-miterlimit:4;stroke-dasharray:none;stroke-dashoffset:1.4;stroke-opacity:1"/><path id="path82" d="M 4,4.4375 L 16,4.4375 L 16,14 L 4,14 L 4,4.4375 z" style="fill:url(#linearGradient3283);fill-opacity:1;stroke:none;stroke-width:1.00000036;stroke-linecap:round;stroke-linejoin:miter;stroke-miterlimit:4;stroke-dashoffset:1.4;stroke-opacity:1"/><path id="path84" d="M 4,5 L 16,5 L 15.640816,4 L 4.3370874,4 L 4,5 z" style="fill:#b5cee7;fill-opacity:1;fill-rule:evenodd;stroke:none;stroke-width:1.00000012px;stroke-linecap:square;stroke-linejoin:miter;stroke-opacity:1"/><path id="path86" d="M 5.8562508,2.5000002 L 4.5000002,4.7115382 L 4.5000002,13.5 L 15.5,13.5 L 15.5,4.7115382 L 14.112501,2.5000002 L 5.8562508,2.5000002 z" style="opacity:.5;fill:none;fill-opacity:1;stroke:url(#linearGradient3278);stroke-width:1.00000048;stroke-linecap:round;stroke-linejoin:miter;stroke-miterlimit:4;stroke-dashoffset:1.4;stroke-opacity:1"/><path id="path3418" d="M 40.1875 43 A 16.375 3.1875 0 1 1 7.4375,43 A 16.375 3.1875 0 1 1 40.1875 43 z" transform="matrix(0.427481,0,0,0.627452,-0.1793927,-6.9167076)" style="opacity:.2;color:#000;fill:url(#radialGradient3426);fill-opacity:1;fill-rule:nonzero;stroke:none;stroke-width:1;stroke-linecap:round;stroke-linejoin:miter;marker:none;marker-start:none;marker-mid:none;marker-end:none;stroke-miterlimit:4;stroke-dasharray:none;stroke-dashoffset:1.4;stroke-opacity:1;visibility:visible;display:inline;overflow:visible"/><g id="g3420" transform="matrix(0.525806,0,0,0.455955,-2.5887021,0.3135964)"><path id="path3422" d="M 15.500002,35.500004 L 32.500012,35.500004 L 24.000007,44.499996 L 15.500002,35.500004 z" style="color:#000;fill:url(#linearGradient3428);fill-opacity:1;fill-rule:nonzero;stroke:url(#linearGradient3430);stroke-width:2.04233456;stroke-linecap:round;stroke-linejoin:round;marker:none;marker-start:none;marker-mid:none;marker-end:none;stroke-miterlimit:4;stroke-dashoffset:1.4;stroke-opacity:1;visibility:visible;display:inline;overflow:visible"/><path id="path3424" d="M 20.28125,35.5625 L 24,39.5 L 27.71875,35.5625 L 20.28125,35.5625 z" transform="translate(0,2)" style="opacity:.7;color:#000;fill:none;fill-opacity:1;fill-rule:nonzero;stroke:url(#linearGradient3432);stroke-width:2.04233336;stroke-linecap:round;stroke-linejoin:miter;marker:none;marker-start:none;marker-mid:none;marker-end:none;stroke-miterlimit:4;stroke-dasharray:none;stroke-dashoffset:1.4;stroke-opacity:1;visibility:visible;display:inline;overflow:visible"/></g></g><g id="g16" transform="translate(303,219) scale(1.000000,1.000000)" style="display:inline;enable-background:new"><path id="path93" d="M 1.5046301,0.50000018 L 1.5000002,3.2916562 L 1.5000002,12.5 L 12.5,12.5 L 12.5,3.2916562 L 12.495371,0.50000018 L 1.5046301,0.50000018 z" style="fill:url(#linearGradient3286);fill-opacity:1;stroke:#3465a4;stroke-width:1.00000036;stroke-linecap:round;stroke-linejoin:miter;stroke-miterlimit:4;stroke-dasharray:none;stroke-dashoffset:1.4;stroke-opacity:1"/><path id="path95" d="M 2,4 L 12,4 L 12,12 L 2,12 L 2,4 z" style="fill:url(#linearGradient3283);fill-opacity:1;stroke:none;stroke-width:1.00000036;stroke-linecap:round;stroke-linejoin:miter;stroke-miterlimit:4;stroke-dashoffset:1.4;stroke-opacity:1"/><path id="path97" d="M 2,4 L 12,4 L 11.984375,3 L 2.015625,3 L 2,4 z" style="fill:#b5cee7;fill-opacity:1;fill-rule:evenodd;stroke:none;stroke-width:1.00000012px;stroke-linecap:square;stroke-linejoin:miter;stroke-opacity:1"/><path id="path99" d="M 2.5125008,1.5000002 L 2.5000002,3.7115382 L 2.5000002,11.5 L 11.5,11.5 L 11.5,3.7115382 L 11.518751,1.5000002 L 2.5125008,1.5000002 z" style="opacity:.5;fill:none;fill-opacity:1;stroke:url(#linearGradient3278);stroke-width:1.00000048;stroke-linecap:round;stroke-linejoin:miter;stroke-miterlimit:4;stroke-dashoffset:1.4;stroke-opacity:1"/><path id="path7029" d="M 5.5,10 C 4.8724347,9.9982059 4.3120257,10.356135 4.0625,10.90625 C 3.8129741,11.456366 3.9132402,12.095019 4.34375,12.53125 L 4.8125,13 L 13,13 L 13,10.0625 C 12.846401,10.015543 12.66684,9.999523 12.5,10 L 5.5,10 z" style="opacity:.4;color:#000;fill:#fff;fill-opacity:1;fill-rule:nonzero;stroke:none;stroke-width:2.17376614;stroke-linecap:round;stroke-linejoin:round;marker:none;marker-start:none;marker-mid:none;marker-end:none;stroke-miterlimit:4;stroke-dashoffset:1.4;stroke-opacity:1;visibility:visible;display:inline;overflow:visible"/><g id="g3813" transform="matrix(0.47066,0,0,0.449643,-1.7964561,-4.4623279)"><path id="path3815" d="M 15.500002,35.500004 L 32.500012,35.500004 L 24.000007,44.499996 L 15.500002,35.500004 z" style="color:#000;fill:url(#linearGradient3845);fill-opacity:1;fill-rule:nonzero;stroke:url(#linearGradient3847);stroke-width:2.17376614;stroke-linecap:round;stroke-linejoin:round;marker:none;marker-start:none;marker-mid:none;marker-end:none;stroke-miterlimit:4;stroke-dashoffset:1.4;stroke-opacity:1;visibility:visible;display:inline;overflow:visible"/><path id="path3817" d="M 20.28125,35.5625 L 24,39.5 L 27.71875,35.5625 L 20.28125,35.5625 z" transform="translate(0,2)" style="opacity:.7;color:#000;fill:none;fill-opacity:1;fill-rule:nonzero;stroke:url(#linearGradient3849);stroke-width:2.17376471;stroke-linecap:round;stroke-linejoin:miter;marker:none;marker-start:none;marker-mid:none;marker-end:none;stroke-miterlimit:4;stroke-dasharray:none;stroke-dashoffset:1.4;stroke-opacity:1;visibility:visible;display:inline;overflow:visible"/></g></g></g></svg>