<svg xmlns="http://www.w3.org/2000/svg" xmlns:svg="http://www.w3.org/2000/svg" xmlns:xlink="http://www.w3.org/1999/xlink" id="svg11300" width="800" height="300" version="1.0" style="display:inline;enable-background:new"><title id="title8836">Optical Drive</title><metadata id="metadata154"/><defs id="defs3"><linearGradient id="linearGradient3770"><stop id="stop3772" offset="0" style="stop-color:#6294ca;stop-opacity:1"/><stop style="stop-color:#3465a4;stop-opacity:1" id="stop3774" offset=".39"/><stop id="stop3776" offset="1" style="stop-color:#bcd1e8;stop-opacity:1"/></linearGradient><linearGradient id="linearGradient5484"><stop style="stop-color:#000;stop-opacity:1" id="stop5486" offset="0"/><stop style="stop-color:#000;stop-opacity:0" id="stop5488" offset="1"/></linearGradient><linearGradient id="linearGradient5174"><stop style="stop-color:#000;stop-opacity:1" id="stop5176" offset="0"/><stop style="stop-color:#000;stop-opacity:0" id="stop5178" offset="1"/></linearGradient><linearGradient id="linearGradient5043"><stop style="stop-color:#fff;stop-opacity:1" id="stop5045" offset="0"/><stop style="stop-color:#fff;stop-opacity:0" id="stop5047" offset="1"/></linearGradient><linearGradient id="linearGradient4594"><stop style="stop-color:#000;stop-opacity:1" id="stop4596" offset="0"/><stop style="stop-color:#000;stop-opacity:0" id="stop4598" offset="1"/></linearGradient><linearGradient id="linearGradient4179"><stop id="stop4181" offset="0" style="stop-color:#9ebdde;stop-opacity:1"/><stop style="stop-color:#729fcf;stop-opacity:1" id="stop4183" offset=".39"/><stop id="stop4185" offset="1" style="stop-color:#fff;stop-opacity:1"/></linearGradient><linearGradient id="linearGradient4051"><stop style="stop-color:#204a87;stop-opacity:1" id="stop4053" offset="0"/><stop style="stop-color:#3465a4;stop-opacity:1" id="stop4055" offset="1"/></linearGradient><linearGradient id="linearGradient3995"><stop style="stop-color:#729fcf;stop-opacity:1" id="stop3997" offset="0"/><stop id="stop4003" offset=".39" style="stop-color:#3465a4;stop-opacity:1"/><stop style="stop-color:#bcd1e8;stop-opacity:1" id="stop3999" offset="1"/></linearGradient><linearGradient id="linearGradient4001" x1="311.308" x2="309.887" y1="231.319" y2="220.531" gradientUnits="userSpaceOnUse" xlink:href="#linearGradient3995"/><linearGradient id="linearGradient4057" x1="311.719" x2="310.406" y1="229.344" y2="224" gradientUnits="userSpaceOnUse" xlink:href="#linearGradient4051"/><linearGradient id="linearGradient4142" x1="311.5" x2="310.137" y1="233.444" y2="218.031" gradientTransform="translate(2,-40)" gradientUnits="userSpaceOnUse" xlink:href="#linearGradient3770"/><linearGradient id="linearGradient4144" x1="312.594" x2="308.406" y1="231.719" y2="223" gradientTransform="translate(2,-40)" gradientUnits="userSpaceOnUse" xlink:href="#linearGradient4051"/><filter id="filter4590" width="1.334" height="1.851" x="-.167" y="-.425"><feGaussianBlur id="feGaussianBlur4592" stdDeviation=".975"/></filter><linearGradient id="linearGradient4600" x1="313.5" x2="313.5" y1="194.031" y2="191.69" gradientUnits="userSpaceOnUse" xlink:href="#linearGradient4594"/><linearGradient id="linearGradient4864-5" x1="312.112" x2="309.295" y1="236.497" y2="215.098" gradientTransform="matrix(2.2142854,0,0,2.2142854,-368.7499,-430.74993)" gradientUnits="userSpaceOnUse" xlink:href="#linearGradient3770"/><linearGradient id="linearGradient4179-1-1"><stop id="stop4181-9-4" offset="0" style="stop-color:#9ebdde;stop-opacity:1"/><stop style="stop-color:#6294ca;stop-opacity:1" id="stop4183-88-9" offset=".39"/><stop id="stop4185-6-0" offset="1" style="stop-color:#fff;stop-opacity:1"/></linearGradient><linearGradient id="linearGradient4866-4" x1="312.753" x2="309.524" y1="232.677" y2="223.319" gradientTransform="matrix(2.2142854,0,0,2.2142854,-368.7499,-430.74993)" gradientUnits="userSpaceOnUse" xlink:href="#linearGradient4051"/><linearGradient id="linearGradient5107" x1="320" x2="329.011" y1="68.5" y2="93.818" gradientUnits="userSpaceOnUse" xlink:href="#linearGradient5043"/><linearGradient id="linearGradient5180" x1="321" x2="321" y1="87.034" y2="81.702" gradientTransform="matrix(1.1612903,0,0,1,-51.774194,0)" gradientUnits="userSpaceOnUse" xlink:href="#linearGradient5174"/><filter id="filter5186" width="1.267" height="1.552" x="-.134" y="-.276"><feGaussianBlur id="feGaussianBlur5188" stdDeviation="1.669"/></filter><linearGradient id="linearGradient5043-8"><stop style="stop-color:#fff;stop-opacity:1" id="stop5045-1" offset="0"/><stop style="stop-color:#fff;stop-opacity:0" id="stop5047-9" offset="1"/></linearGradient><linearGradient id="linearGradient4179-1-1-12"><stop id="stop4181-9-4-7" offset="0" style="stop-color:#9ebdde;stop-opacity:1"/><stop style="stop-color:#6294ca;stop-opacity:1" id="stop4183-88-9-19" offset=".39"/><stop id="stop4185-6-0-8" offset="1" style="stop-color:#fff;stop-opacity:1"/></linearGradient><linearGradient id="linearGradient5322" x1="311.58" x2="309.742" y1="232.423" y2="218.664" gradientTransform="matrix(2.2142854,0,0,2.2142854,-369.7499,-360.74993)" gradientUnits="userSpaceOnUse" xlink:href="#linearGradient3770"/><linearGradient id="linearGradient5324" x1="311.363" x2="310.192" y1="229.102" y2="224.109" gradientTransform="matrix(2.2142854,0,0,2.2142854,-369.7499,-360.74993)" gradientUnits="userSpaceOnUse" xlink:href="#linearGradient4051"/><linearGradient id="linearGradient5369" x1="320" x2="329.011" y1="68.5" y2="93.818" gradientTransform="translate(-1,70)" gradientUnits="userSpaceOnUse" xlink:href="#linearGradient5043-8"/><filter id="filter5480" width="1.259" height="1.591" x="-.129" y="-.296"><feGaussianBlur id="feGaussianBlur5482" stdDeviation="1.294"/></filter><linearGradient id="linearGradient5490" x1="318.5" x2="318.5" y1="152.75" y2="147.375" gradientUnits="userSpaceOnUse" xlink:href="#linearGradient5484"/><linearGradient id="linearGradient5369-4-0" x1="320" x2="329.011" y1="68.5" y2="93.818" gradientTransform="translate(399,70)" gradientUnits="userSpaceOnUse" xlink:href="#linearGradient5043-8-1-8"/><linearGradient id="linearGradient5043-8-1-8"><stop style="stop-color:#fff;stop-opacity:1" id="stop5045-1-1-8" offset="0"/><stop style="stop-color:#fff;stop-opacity:0" id="stop5047-9-9-5" offset="1"/></linearGradient><linearGradient id="linearGradient5322-9-0" x1="311.58" x2="309.742" y1="232.423" y2="218.664" gradientTransform="matrix(2.2142854,0,0,2.2142854,30.2501,-360.74993)" gradientUnits="userSpaceOnUse" xlink:href="#linearGradient3770"/><linearGradient id="linearGradient4179-1-1-12-6-9"><stop id="stop4181-9-4-7-5-6" offset="0" style="stop-color:#9ebdde;stop-opacity:1"/><stop style="stop-color:#6294ca;stop-opacity:1" id="stop4183-88-9-19-8-3" offset=".39"/><stop id="stop4185-6-0-8-0-8" offset="1" style="stop-color:#fff;stop-opacity:1"/></linearGradient><linearGradient id="linearGradient5324-14-5" x1="311.363" x2="310.192" y1="229.102" y2="224.109" gradientTransform="matrix(2.2142854,0,0,2.2142854,30.2501,-360.74993)" gradientUnits="userSpaceOnUse" xlink:href="#linearGradient4051"/><linearGradient id="linearGradient5527-5" x1="318.5" x2="318.5" y1="152.75" y2="147.375" gradientTransform="translate(400,0)" gradientUnits="userSpaceOnUse" xlink:href="#linearGradient5484-6-9"/><linearGradient id="linearGradient5484-6-9"><stop style="stop-color:#000;stop-opacity:1" id="stop5486-4-8" offset="0"/><stop style="stop-color:#000;stop-opacity:0" id="stop5488-3-4" offset="1"/></linearGradient><filter id="filter5480-0-8" width="1.259" height="1.591" x="-.129" y="-.296" color-interpolation-filters="sRGB"><feGaussianBlur id="feGaussianBlur5482-7-1" stdDeviation="1.294"/></filter><linearGradient id="linearGradient5390-0" x1="313.5" x2="313.5" y1="194.031" y2="191.69" gradientTransform="translate(400,0)" gradientUnits="userSpaceOnUse" xlink:href="#linearGradient4594-72-3"/><linearGradient id="linearGradient4594-72-3"><stop style="stop-color:#000;stop-opacity:1" id="stop4596-0-0" offset="0"/><stop style="stop-color:#000;stop-opacity:0" id="stop4598-0-4" offset="1"/></linearGradient><filter id="filter4590-1-4" width="1.334" height="1.851" x="-.167" y="-.425" color-interpolation-filters="sRGB"><feGaussianBlur id="feGaussianBlur4592-3-4" stdDeviation=".975"/></filter><linearGradient id="linearGradient5107-5-4" x1="320" x2="329.011" y1="68.5" y2="93.818" gradientTransform="translate(400,0)" gradientUnits="userSpaceOnUse" xlink:href="#linearGradient5043-4-7"/><linearGradient id="linearGradient5043-4-7"><stop style="stop-color:#fff;stop-opacity:1" id="stop5045-5-6" offset="0"/><stop style="stop-color:#fff;stop-opacity:0" id="stop5047-4-3" offset="1"/></linearGradient><linearGradient id="linearGradient4864-5-7-1" x1="312.112" x2="309.295" y1="236.497" y2="215.098" gradientTransform="matrix(2.2142854,0,0,2.2142854,31.2501,-430.74993)" gradientUnits="userSpaceOnUse" xlink:href="#linearGradient3770"/><linearGradient id="linearGradient4179-1-1-1-7"><stop id="stop4181-9-4-95-5" offset="0" style="stop-color:#9ebdde;stop-opacity:1"/><stop style="stop-color:#6294ca;stop-opacity:1" id="stop4183-88-9-5-9" offset=".39"/><stop id="stop4185-6-0-3-6" offset="1" style="stop-color:#fff;stop-opacity:1"/></linearGradient><linearGradient id="linearGradient4866-4-2-2" x1="312.753" x2="309.524" y1="232.677" y2="223.319" gradientTransform="matrix(2.2142854,0,0,2.2142854,31.2501,-430.74993)" gradientUnits="userSpaceOnUse" xlink:href="#linearGradient4051"/><linearGradient id="linearGradient5237-5" x1="321" x2="321" y1="87.034" y2="81.702" gradientTransform="matrix(1.1612903,0,0,1,348.22581,0)" gradientUnits="userSpaceOnUse" xlink:href="#linearGradient5174-8-7"/><linearGradient id="linearGradient5174-8-7"><stop style="stop-color:#000;stop-opacity:1" id="stop5176-9-4" offset="0"/><stop style="stop-color:#000;stop-opacity:0" id="stop5178-9-1" offset="1"/></linearGradient><filter id="filter5186-3-8" width="1.267" height="1.552" x="-.133" y="-.276" color-interpolation-filters="sRGB"><feGaussianBlur id="feGaussianBlur5188-8-5" stdDeviation="1.669"/></filter><linearGradient id="linearGradient4256-1-9" x1="312.313" x2="316.781" y1="182.5" y2="193.625" gradientTransform="translate(400,0)" gradientUnits="userSpaceOnUse" xlink:href="#linearGradient4250-1-7"/><linearGradient id="linearGradient4250-1-7"><stop style="stop-color:#fff;stop-opacity:1" id="stop4252-0-5" offset="0"/><stop style="stop-color:#fff;stop-opacity:0" id="stop4254-9-3" offset="1"/></linearGradient><linearGradient id="linearGradient4298-8" x1="311.5" x2="310.137" y1="233.444" y2="218.031" gradientTransform="translate(402,-40)" gradientUnits="userSpaceOnUse" xlink:href="#linearGradient3770"/><linearGradient id="linearGradient4179-7-8"><stop id="stop4181-2-3" offset="0" style="stop-color:#9ebdde;stop-opacity:1"/><stop style="stop-color:#729fcf;stop-opacity:1" id="stop4183-4-1" offset=".39"/><stop id="stop4185-0-8" offset="1" style="stop-color:#fff;stop-opacity:1"/></linearGradient><linearGradient id="linearGradient4300-9" x1="312.594" x2="308.406" y1="231.719" y2="223" gradientTransform="translate(402,-40)" gradientUnits="userSpaceOnUse" xlink:href="#linearGradient4051"/><linearGradient id="linearGradient3995-6-3"><stop style="stop-color:#9ebdde;stop-opacity:1" id="stop3997-0-8" offset="0"/><stop id="stop4003-8-6" offset=".39" style="stop-color:#729fcf;stop-opacity:1"/><stop style="stop-color:#fff;stop-opacity:1" id="stop3999-8-0" offset="1"/></linearGradient><linearGradient id="linearGradient3092" x1="311.308" x2="309.887" y1="231.319" y2="220.531" gradientTransform="translate(400,0)" gradientUnits="userSpaceOnUse" xlink:href="#linearGradient3995"/><linearGradient id="linearGradient3094" x1="311.719" x2="310.406" y1="229.344" y2="224" gradientTransform="translate(400,0)" gradientUnits="userSpaceOnUse" xlink:href="#linearGradient4051"/></defs><g style="display:inline" id="g3048"><g style="display:none" id="g3050"><rect style="fill:#eeeeec;fill-opacity:1;fill-rule:nonzero;stroke:none;stroke-width:2;marker:none;visibility:visible;display:inline;overflow:visible;enable-background:accumulate" id="rect3052" width="48" height="48" x="696" y="50"/><rect style="fill:#eeeeec;fill-opacity:1;fill-rule:nonzero;stroke:none;stroke-width:2;marker:none;visibility:visible;display:inline;overflow:visible;enable-background:accumulate" id="rect3054" width="32" height="32" x="703" y="126"/><rect style="fill:#fff;fill-opacity:1;fill-rule:nonzero;stroke:none;stroke-width:2;marker:none;visibility:visible;display:inline;overflow:visible;enable-background:accumulate" id="rect3056" width="24" height="24" x="702" y="176"/><rect style="fill:#eeeeec;fill-opacity:1;fill-rule:nonzero;stroke:none;stroke-width:2;marker:none;visibility:visible;display:inline;overflow:visible;enable-background:accumulate" id="rect3058" width="22" height="22" x="703" y="177"/><rect style="fill:#eeeeec;fill-opacity:1;fill-rule:nonzero;stroke:none;stroke-width:2;marker:none;visibility:visible;display:inline;overflow:visible;enable-background:accumulate" id="rect3060" width="16" height="16" x="703" y="219"/><text style="font-size:18.30070686px;font-style:normal;font-weight:400;fill:#000;fill-opacity:1;stroke:none;display:inline;enable-background:new;font-family:Bitstream Vera Sans" id="text3062" x="420.901" y="21.741" xml:space="preserve"><tspan id="tspan3064" x="420.901" y="21.741">actions</tspan></text><text style="font-size:18.30070686px;font-style:normal;font-variant:normal;font-weight:700;font-stretch:normal;text-align:start;line-height:125%;writing-mode:lr-tb;text-anchor:start;fill:#000;fill-opacity:1;stroke:none;display:inline;enable-background:new;font-family:Droid Sans;-inkscape-font-specification:Droid Sans Bold" id="text3066" x="591.971" y="21.514" xml:space="preserve"><tspan id="tspan3068" x="591.971" y="21.514">list-remove</tspan></text></g><g style="display:inline" id="g3070"><path style="color:#000;fill:url(#linearGradient3092);fill-opacity:1;fill-rule:nonzero;stroke:url(#linearGradient3094);stroke-width:1;stroke-linecap:round;stroke-linejoin:round;stroke-miterlimit:4;stroke-opacity:1;stroke-dasharray:none;stroke-dashoffset:0;marker:none;visibility:visible;display:block;overflow:visible;enable-background:accumulate" id="rect3969-3" d="m 706.5,225.5 c -0.554,0 -1,0.446 -1,1 l 0,1 c 0,0.554 0.446,1 1,1 l 9,0 c 0.554,0 1,-0.446 1,-1 l 0,-1 c 0,-0.554 -0.446,-1 -1,-1 l -9,0 z"/><path style="opacity:.3;color:#000;fill:none;stroke:#fff;stroke-width:1;stroke-linecap:round;stroke-linejoin:round;stroke-miterlimit:4;stroke-opacity:1;stroke-dashoffset:0;marker:none;visibility:visible;display:block;overflow:visible;enable-background:accumulate" id="path4046-1" d="m 715.5,226.5 -9,0 0,1"/><path style="color:#000;fill:url(#linearGradient4298-8);fill-opacity:1;fill-rule:nonzero;stroke:url(#linearGradient4300-9);stroke-width:1;stroke-linecap:round;stroke-linejoin:round;stroke-miterlimit:4;stroke-opacity:1;stroke-dasharray:none;stroke-dashoffset:0;marker:none;visibility:visible;display:block;overflow:visible;enable-background:accumulate" id="rect3969-7-7" d="m 707.5,185.5 c -0.554,0 -1,0.446 -1,1 l 0,2 c 0,0.554 0.446,1 1,1 l 12,0 c 0.554,0 1,-0.446 1,-1 l 0,-2 c 0,-0.554 -0.446,-1 -1,-1 l -12,0 z"/><path style="opacity:.1;color:#000;fill:none;stroke:url(#linearGradient4256-1-9);stroke-width:1;stroke-linecap:round;stroke-linejoin:round;stroke-miterlimit:4;stroke-opacity:1;stroke-dashoffset:0;marker:none;visibility:visible;display:block;overflow:visible;enable-background:accumulate" id="path4244-5" d="m 707.53125,186.53125 0,1.9375 11.9375,0 0,-1.9375 -11.9375,0 z"/><path style="opacity:.3;color:#000;fill:none;stroke:#fff;stroke-width:1;stroke-linecap:round;stroke-linejoin:round;stroke-miterlimit:4;stroke-opacity:1;stroke-dashoffset:0;marker:none;visibility:visible;display:block;overflow:visible;enable-background:accumulate" id="path4046-9-9" d="m 719.5,186.5 -12,0 0,1"/><path style="opacity:.5;color:#000;fill:url(#linearGradient5237-5);fill-opacity:1;fill-rule:nonzero;stroke:none;stroke-width:.99999994;marker:none;visibility:visible;display:block;overflow:visible;filter:url(#filter5186-3-8);enable-background:accumulate" id="rect4899-2-1" d="m 707.66935,80.145161 c -0.92121,0 -1.66935,0.301335 -1.66935,0.672379 l 0,2.86492 c 0,0.371044 0.74814,0.672379 1.66935,0.672379 l 26.6613,0 c 0.92121,0 1.66935,-0.301335 1.66935,-0.672379 l 0,-2.86492 c 0,-0.371044 -0.74814,-0.672379 -1.66935,-0.672379 l -26.6613,0 z"/><path style="color:#000;fill:url(#linearGradient4864-5-7-1);fill-opacity:1;fill-rule:nonzero;stroke:url(#linearGradient4866-4-2-2);stroke-width:.99999994000000003;stroke-linecap:round;stroke-linejoin:round;stroke-miterlimit:4;stroke-opacity:1;stroke-dasharray:none;stroke-dashoffset:0;marker:none;visibility:visible;display:block;overflow:visible;enable-background:accumulate" id="rect4899-1" d="m 706.9375,68.5 c -0.79327,0 -1.4375,0.644232 -1.4375,1.4375 l 0,6.125 c 0,0.793268 0.64423,1.4375 1.4375,1.4375 l 28.125,0 c 0.79327,0 1.4375,-0.644232 1.4375,-1.4375 l 0,-6.125 c 0,-0.793268 -0.64423,-1.4375 -1.4375,-1.4375 l -28.125,0 z"/><path style="opacity:.15;color:#000;fill:none;stroke:url(#linearGradient5107-5-4);stroke-width:.99999994000000003;stroke-linecap:round;stroke-linejoin:round;stroke-miterlimit:4;stroke-opacity:1;stroke-dashoffset:0;marker:none;visibility:visible;display:block;overflow:visible;enable-background:accumulate" id="path5037-0" d="m 706.9375,69.53125 c -0.24294,0 -0.40625,0.163311 -0.40625,0.40625 l 0,6.125 c 0,0.242939 0.16331,0.40625 0.40625,0.40625 l 28.125,0 c 0.24294,0 0.40625,-0.163311 0.40625,-0.40625 l 0,-6.125 c 0,-0.242939 -0.16331,-0.40625 -0.40625,-0.40625 l -28.125,0 z"/><path style="opacity:.3;color:#000;fill:none;stroke:#fff;stroke-width:.99999994000000003;stroke-linecap:round;stroke-linejoin:round;stroke-miterlimit:4;stroke-opacity:1;stroke-dashoffset:0;marker:none;visibility:visible;display:block;overflow:visible;enable-background:accumulate" id="path5090-0" d="m 734.40625,70.59375 -26.8125,0 0,4.8125"/><path style="opacity:.4;color:#000;fill:url(#linearGradient5390-0);fill-opacity:1;fill-rule:nonzero;stroke:none;stroke-width:.99999994;marker:none;visibility:visible;display:block;overflow:visible;filter:url(#filter4590-1-4);enable-background:accumulate" id="rect3969-7-2-3" d="m 707.5,191.96429 c -0.554,0 -1,0.17521 -1,0.39286 l 0,0.78571 c 0,0.21764 0.446,0.39286 1,0.39286 l 12,0 c 0.554,0 1,-0.17522 1,-0.39286 l 0,-0.78571 c 0,-0.21765 -0.446,-0.39286 -1,-0.39286 l -12,0 z"/><path style="opacity:.5;color:#000;fill:url(#linearGradient5527-5);fill-opacity:1;fill-rule:nonzero;stroke:none;stroke-width:.99999994;marker:none;visibility:visible;display:block;overflow:visible;filter:url(#filter5480-0-8);enable-background:accumulate" id="rect4899-8-4-7" d="m 707.9375,147.9375 c -0.79327,0 -1.4375,0.28185 -1.4375,0.62891 l 0,1.36718 c 0,0.34706 0.64423,0.62891 1.4375,0.62891 l 21.125,0 c 0.79327,0 1.4375,-0.28185 1.4375,-0.62891 l 0,-1.36718 c 0,-0.34706 -0.64423,-0.62891 -1.4375,-0.62891 l -21.125,0 z"/><path style="color:#000;fill:url(#linearGradient5322-9-0);fill-opacity:1;fill-rule:nonzero;stroke:url(#linearGradient5324-14-5);stroke-width:.99999994000000003;stroke-linecap:round;stroke-linejoin:round;stroke-miterlimit:4;stroke-opacity:1;stroke-dasharray:none;stroke-dashoffset:0;marker:none;visibility:visible;display:block;overflow:visible;enable-background:accumulate" id="rect4899-8-7" d="m 707.9375,138.5 c -0.79327,0 -1.4375,0.64423 -1.4375,1.4375 l 0,3.125 c 0,0.79327 0.64423,1.4375 1.4375,1.4375 l 21.125,0 c 0.79327,0 1.4375,-0.64423 1.4375,-1.4375 l 0,-3.125 c 0,-0.79327 -0.64423,-1.4375 -1.4375,-1.4375 l -21.125,0 z"/><path style="opacity:.15;color:#000;fill:none;stroke:url(#linearGradient5369-4-0);stroke-width:.99999994000000003;stroke-linecap:round;stroke-linejoin:round;stroke-miterlimit:4;stroke-opacity:1;stroke-dashoffset:0;marker:none;visibility:visible;display:block;overflow:visible;enable-background:accumulate" id="path5037-3-7" d="m 707.9375,139.53125 c -0.24294,0 -0.40625,0.16331 -0.40625,0.40625 l 0,3.125 c 0,0.24294 0.16331,0.40625 0.40625,0.40625 l 21.125,0 c 0.24294,0 0.40625,-0.16331 0.40625,-0.40625 l 0,-3.125 c 0,-0.24294 -0.16331,-0.40625 -0.40625,-0.40625 l -21.125,0 z"/><path style="opacity:.3;color:#000;fill:none;stroke:#fff;stroke-width:.99999994000000003;stroke-linecap:round;stroke-linejoin:round;stroke-miterlimit:4;stroke-opacity:1;stroke-dashoffset:0;marker:none;visibility:visible;display:block;overflow:visible;enable-background:accumulate" id="path5090-6-6" d="m 728.40625,140.5938 -19.8125,0 0,1.8125"/></g></g><g id="layer1" style="display:inline"><g id="layer3" style="display:none"><rect id="rect6284" width="48" height="48" x="296" y="50" style="fill:#eeeeec;fill-opacity:1;fill-rule:nonzero;stroke:none;stroke-width:2;marker:none;visibility:visible;display:inline;overflow:visible;enable-background:accumulate"/><rect id="rect6592" width="32" height="32" x="303" y="126" style="fill:#eeeeec;fill-opacity:1;fill-rule:nonzero;stroke:none;stroke-width:2;marker:none;visibility:visible;display:inline;overflow:visible;enable-background:accumulate"/><rect id="rect6749-1" width="24" height="24" x="302" y="176" style="fill:#fff;fill-opacity:1;fill-rule:nonzero;stroke:none;stroke-width:2;marker:none;visibility:visible;display:inline;overflow:visible;enable-background:accumulate"/><rect id="rect6749" width="22" height="22" x="303" y="177" style="fill:#eeeeec;fill-opacity:1;fill-rule:nonzero;stroke:none;stroke-width:2;marker:none;visibility:visible;display:inline;overflow:visible;enable-background:accumulate"/><rect id="rect6833" width="16" height="16" x="303" y="219" style="fill:#eeeeec;fill-opacity:1;fill-rule:nonzero;stroke:none;stroke-width:2;marker:none;visibility:visible;display:inline;overflow:visible;enable-background:accumulate"/><text id="context" x="20.901" y="21.741" xml:space="preserve" style="font-size:18.30070686px;font-style:normal;font-weight:400;fill:#000;fill-opacity:1;stroke:none;display:inline;enable-background:new;font-family:Bitstream Vera Sans"><tspan id="tspan2716" x="20.901" y="21.741">actions</tspan></text><text id="icon-name" x="191.971" y="21.514" xml:space="preserve" style="font-size:18.30070686px;font-style:normal;font-variant:normal;font-weight:700;font-stretch:normal;text-align:start;line-height:125%;writing-mode:lr-tb;text-anchor:start;fill:#000;fill-opacity:1;stroke:none;display:inline;enable-background:new;font-family:Droid Sans;-inkscape-font-specification:Droid Sans Bold"><tspan id="tspan3023" x="191.971" y="21.514">list-add</tspan></text></g><g id="layer5" style="display:inline"><path style="color:#000;fill:url(#linearGradient4001);fill-opacity:1;fill-rule:nonzero;stroke:url(#linearGradient4057);stroke-width:1;stroke-linecap:round;stroke-linejoin:round;stroke-miterlimit:4;stroke-opacity:1;stroke-dasharray:none;stroke-dashoffset:0;marker:none;visibility:visible;display:block;overflow:visible;enable-background:accumulate" id="rect3969" d="M 310.5 221.5 C 309.946 221.5 309.5 221.946 309.5 222.5 L 309.5 225.5 L 306.5 225.5 C 305.946 225.5 305.5 225.946 305.5 226.5 L 305.5 227.5 C 305.5 228.054 305.946 228.5 306.5 228.5 L 309.5 228.5 L 309.5 231.5 C 309.5 232.054 309.946 232.5 310.5 232.5 L 311.5 232.5 C 312.054 232.5 312.5 232.054 312.5 231.5 L 312.5 228.5 L 315.5 228.5 C 316.054 228.5 316.5 228.054 316.5 227.5 L 316.5 226.5 C 316.5 225.946 316.054 225.5 315.5 225.5 L 312.5 225.5 L 312.5 222.5 C 312.5 221.946 312.054 221.5 311.5 221.5 L 310.5 221.5 z"/><path style="color:#000;fill:none;fill-opacity:1;fill-rule:nonzero;stroke:#fff;stroke-width:1;stroke-linecap:round;stroke-linejoin:round;stroke-miterlimit:4;stroke-dashoffset:0;stroke-opacity:1;marker:none;visibility:visible;display:block;overflow:visible;enable-background:accumulate;opacity:.3" id="path4046" d="m 311.5,222.5 -1,0 0,3 c -0.005,0.52235 -0.47765,0.99549 -1,1 l -3,0 0,1 m 9,-1 -3,0 m -2,2 0,3"/><path style="color:#000;fill:url(#linearGradient4600);fill-opacity:1;fill-rule:nonzero;stroke:none;stroke-width:.99999994000000003;stroke-linecap:round;stroke-linejoin:round;stroke-miterlimit:4;stroke-opacity:1;stroke-dasharray:none;stroke-dashoffset:0;marker:none;visibility:visible;display:block;overflow:visible;enable-background:accumulate;filter:url(#filter4590);opacity:.4" id="rect3969-7-2" d="m 312.5,190 c -0.554,0 -1,0.17522 -1,0.39286 l 0,1.57143 -4,0 c -0.554,0 -1,0.17521 -1,0.39286 l 0,0.78571 c 0,0.21764 0.446,0.39286 1,0.39286 l 4,0 -1,1.57143 c 0,0.21764 0.446,0.39285 1,0.39285 l 4,0 c 0.554,0 1,-0.17521 1,-0.39285 l -1,-1.57143 4,0 c 0.554,0 1,-0.17522 1,-0.39286 l 0,-0.78571 c 0,-0.21765 -0.446,-0.39286 -1,-0.39286 l -4,0 0,-1.57143 C 315.5,190.17522 315.054,190 314.5,190 l -2,0 z"/><path style="color:#000;fill:url(#linearGradient4142);fill-opacity:1;fill-rule:nonzero;stroke:url(#linearGradient4144);stroke-width:1;stroke-linecap:round;stroke-linejoin:round;stroke-miterlimit:4;stroke-opacity:1;stroke-dasharray:none;stroke-dashoffset:0;marker:none;visibility:visible;display:block;overflow:visible;enable-background:accumulate" id="rect3969-7" d="m 312.5,180.5 c -0.554,0 -1,0.446 -1,1 l 0,4 -4,0 c -0.554,0 -1,0.446 -1,1 l 0,2 c 0,0.554 0.446,1 1,1 l 4,0 0,4 c 0,0.554 0.446,1 1,1 l 2,0 c 0.554,0 1,-0.446 1,-1 l 0,-4 4,0 c 0.554,0 1,-0.446 1,-1 l 0,-2 c 0,-0.554 -0.446,-1 -1,-1 l -4,0 0,-4 c 0,-0.554 -0.446,-1 -1,-1 l -2,0 z"/><path style="color:#000;fill:none;fill-opacity:1;fill-rule:nonzero;stroke:#fff;stroke-width:1;stroke-linecap:round;stroke-linejoin:round;stroke-miterlimit:4;stroke-opacity:1;stroke-dasharray:none;stroke-dashoffset:0;marker:none;visibility:visible;display:block;overflow:visible;enable-background:accumulate;opacity:.10000000000000001" id="path4244" d="m 312.53125,181.53125 0,3.96875 A 1.0313531,1.0313531 0 0 1 311.5,186.53125 l -3.96875,0 0,1.9375 3.96875,0 a 1.0313531,1.0313531 0 0 1 1.03125,1.03125 l 0,3.96875 1.9375,0 0,-3.96875 A 1.0313531,1.0313531 0 0 1 315.5,188.46875 l 3.96875,0 0,-1.9375 -3.96875,0 A 1.0313531,1.0313531 0 0 1 314.46875,185.5 l 0,-3.96875 -1.9375,0 z"/><path style="opacity:.3;color:#000;fill:none;stroke:#fff;stroke-width:1;stroke-linecap:round;stroke-linejoin:round;stroke-miterlimit:4;stroke-opacity:1;stroke-dashoffset:0;marker:none;visibility:visible;display:block;overflow:visible;enable-background:accumulate" id="path4046-9" d="m 313.5,181.5 -1,0 0,4 c -0.005,0.52235 -0.47765,0.99549 -1,1 l -4,0 0,1 m 12,-1 -4,0 m -3,3 0,4"/><path style="opacity:.5;color:#000;fill:url(#linearGradient5180);fill-opacity:1;fill-rule:nonzero;stroke:none;stroke-width:.99999994000000003;marker:none;visibility:visible;display:block;overflow:visible;enable-background:accumulate;filter:url(#filter5186)" id="rect4899-2" d="m 317.44355,75 c -0.92122,0 -1.66936,0.301334 -1.66936,0.672379 l 0,4.472782 -8.10484,0 c -0.92121,0 -1.66935,0.301335 -1.66935,0.672379 l 0,2.86492 c 0,0.371044 0.74814,0.672379 1.66935,0.672379 l 8.10484,0 0,4.472782 c 0,0.371045 0.74814,0.672379 1.66936,0.672379 l 7.1129,0 c 0.92122,0 1.66936,-0.301334 1.66936,-0.672379 l 0,-4.472782 8.10484,0 c 0.92121,0 1.66935,-0.301335 1.66935,-0.672379 l 0,-2.86492 c 0,-0.371044 -0.74814,-0.672379 -1.66935,-0.672379 l -8.10484,0 0,-4.472782 C 326.22581,75.301334 325.47767,75 324.55645,75 l -7.1129,0 z"/><path style="opacity:1;color:#000;fill:url(#linearGradient4864-5);fill-opacity:1;fill-rule:nonzero;stroke:url(#linearGradient4866-4);stroke-width:.99999994000000003;marker:none;visibility:visible;display:block;overflow:visible;enable-background:accumulate;stroke-linecap:round;stroke-linejoin:round;stroke-miterlimit:4;stroke-opacity:1;stroke-dasharray:none;stroke-dashoffset:0" id="rect4899" d="m 317.9375,57.5 c -0.79327,0 -1.4375,0.644232 -1.4375,1.4375 l 0,9.5625 -9.5625,0 c -0.79327,0 -1.4375,0.644232 -1.4375,1.4375 l 0,6.125 c 0,0.793268 0.64423,1.4375 1.4375,1.4375 l 9.5625,0 0,9.5625 c 0,0.793268 0.64423,1.4375 1.4375,1.4375 l 6.125,0 c 0.79327,0 1.4375,-0.644232 1.4375,-1.4375 l 0,-9.5625 9.5625,0 c 0.79327,0 1.4375,-0.644232 1.4375,-1.4375 l 0,-6.125 c 0,-0.793268 -0.64423,-1.4375 -1.4375,-1.4375 l -9.5625,0 0,-9.5625 c 0,-0.793268 -0.64423,-1.4375 -1.4375,-1.4375 l -6.125,0 z"/><path style="opacity:.15;color:#000;fill:none;stroke:url(#linearGradient5107);stroke-width:.99999994000000003;stroke-linecap:round;stroke-linejoin:round;stroke-miterlimit:4;stroke-dashoffset:0;stroke-opacity:1;marker:none;visibility:visible;display:block;overflow:visible;enable-background:accumulate" id="path5037" d="m 317.9375,58.53125 c -0.24294,0 -0.40625,0.163311 -0.40625,0.40625 l 0,9.5625 c 0.008,0.542077 -0.48917,1.039137 -1.03125,1.03125 l -9.5625,0 c -0.24294,0 -0.40625,0.163311 -0.40625,0.40625 l 0,6.125 c 0,0.242939 0.16331,0.40625 0.40625,0.40625 l 9.5625,0 c 0.54208,-0.0079 1.03914,0.489173 1.03125,1.03125 l 0,9.5625 c 0,0.242939 0.16331,0.40625 0.40625,0.40625 l 6.125,0 c 0.24294,0 0.40625,-0.163311 0.40625,-0.40625 l 0,-9.5625 c -0.008,-0.542077 0.48917,-1.039137 1.03125,-1.03125 l 9.5625,0 c 0.24294,0 0.40625,-0.163311 0.40625,-0.40625 l 0,-6.125 c 0,-0.242939 -0.16331,-0.40625 -0.40625,-0.40625 l -9.5625,0 c -0.54208,0.0079 -1.03914,-0.489173 -1.03125,-1.03125 l 0,-9.5625 c 0,-0.242939 -0.16331,-0.40625 -0.40625,-0.40625 l -6.125,0 z"/><path style="color:#000;fill:none;stroke:#fff;stroke-width:.99999994000000003;stroke-linecap:round;stroke-linejoin:round;stroke-miterlimit:4;stroke-dashoffset:0;stroke-opacity:1;marker:none;visibility:visible;display:block;overflow:visible;enable-background:accumulate;opacity:.3" id="path5090" d="m 323.40625,59.59375 -4.8125,0 0,8.875 c 1.6e-4,0.01064 -10e-6,0.02065 0,0.03125 10e-4,1.184427 -0.9047,2.11105 -2.09375,2.09375 l -8.90625,0 0,4.8125 m 26.8125,-4.8125 -8.90625,0 m -6.90625,6.90625 0,8.90625"/><path style="color:#000;fill:url(#linearGradient5490);fill-opacity:1;fill-rule:nonzero;stroke:none;stroke-width:.99999994000000003;marker:none;visibility:visible;display:block;overflow:visible;enable-background:accumulate;filter:url(#filter5480);opacity:.5" id="rect4899-8-4" d="m 316.9375,144 c -0.79327,0 -1.4375,0.28185 -1.4375,0.62891 l 0,3.30859 -7.5625,0 c -0.79327,0 -1.4375,0.28185 -1.4375,0.62891 l 0,1.36718 c 0,0.34706 0.64423,0.62891 1.4375,0.62891 l 7.5625,0 -1,3.30859 c 0,0.34706 0.64423,0.62891 1.4375,0.62891 l 5.125,0 c 0.79327,0 1.4375,-0.28185 1.4375,-0.62891 l -1,-3.30859 7.5625,0 c 0.79327,0 1.4375,-0.28185 1.4375,-0.62891 l 0,-1.36718 c 0,-0.34706 -0.64423,-0.62891 -1.4375,-0.62891 l -7.5625,0 0,-3.30859 C 321.5,144.28185 320.85577,144 320.0625,144 l -3.125,0 z"/><path style="color:#000;fill:url(#linearGradient5322);fill-opacity:1;fill-rule:nonzero;stroke:url(#linearGradient5324);stroke-width:.99999994000000003;stroke-linecap:round;stroke-linejoin:round;stroke-miterlimit:4;stroke-opacity:1;stroke-dasharray:none;stroke-dashoffset:0;marker:none;visibility:visible;display:block;overflow:visible;enable-background:accumulate" id="rect4899-8" d="m 316.9375,129.5 c -0.79327,0 -1.4375,0.64423 -1.4375,1.4375 l 0,7.5625 -7.5625,0 c -0.79327,0 -1.4375,0.64423 -1.4375,1.4375 l 0,3.125 c 0,0.79327 0.64423,1.4375 1.4375,1.4375 l 7.5625,0 0,7.5625 c 0,0.79327 0.64423,1.4375 1.4375,1.4375 l 3.125,0 c 0.79327,0 1.4375,-0.64423 1.4375,-1.4375 l 0,-7.5625 7.5625,0 c 0.79327,0 1.4375,-0.64423 1.4375,-1.4375 l 0,-3.125 c 0,-0.79327 -0.64423,-1.4375 -1.4375,-1.4375 l -7.5625,0 0,-7.5625 c 0,-0.79327 -0.64423,-1.4375 -1.4375,-1.4375 l -3.125,0 z"/><path style="opacity:.15;color:#000;fill:none;stroke:url(#linearGradient5369);stroke-width:.99999994000000003;stroke-linecap:round;stroke-linejoin:round;stroke-miterlimit:4;stroke-opacity:1;stroke-dashoffset:0;marker:none;visibility:visible;display:block;overflow:visible;enable-background:accumulate" id="path5037-3" d="m 316.9375,130.53125 c -0.24294,0 -0.40625,0.16331 -0.40625,0.40625 l 0,7.5625 c 0.008,0.54208 -0.48917,1.03914 -1.03125,1.03125 l -7.5625,0 c -0.24294,0 -0.40625,0.16331 -0.40625,0.40625 l 0,3.125 c 0,0.24294 0.16331,0.40625 0.40625,0.40625 l 7.5625,0 c 0.54208,-0.008 1.03914,0.48917 1.03125,1.03125 l 0,7.5625 c 0,0.24294 0.16331,0.40625 0.40625,0.40625 l 3.125,0 c 0.24294,0 0.40625,-0.16331 0.40625,-0.40625 l 0,-7.5625 c -0.008,-0.54208 0.48917,-1.03914 1.03125,-1.03125 l 7.5625,0 c 0.24294,0 0.40625,-0.16331 0.40625,-0.40625 l 0,-3.125 c 0,-0.24294 -0.16331,-0.40625 -0.40625,-0.40625 l -7.5625,0 c -0.54208,0.008 -1.03914,-0.48917 -1.03125,-1.03125 l 0,-7.5625 c 0,-0.24294 -0.16331,-0.40625 -0.40625,-0.40625 l -3.125,0 z"/><path style="opacity:.3;color:#000;fill:none;stroke:#fff;stroke-width:.99999994000000003;stroke-linecap:round;stroke-linejoin:round;stroke-miterlimit:4;stroke-opacity:1;stroke-dashoffset:0;marker:none;visibility:visible;display:block;overflow:visible;enable-background:accumulate" id="path5090-6" d="m 319.40625,131.59375 -1.8125,0 0,6.875 c 1.6e-4,0.0106 -10e-6,0.0207 0,0.0313 10e-4,1.18443 -0.9047,2.11105 -2.09375,2.09375 l -6.90625,0 0,1.8125 m 19.8125,-1.8125 -6.90625,0 m -3.90625,3.90625 0,6.90625"/></g></g></svg>