<svg xmlns="http://www.w3.org/2000/svg" xmlns:svg="http://www.w3.org/2000/svg" xmlns:xlink="http://www.w3.org/1999/xlink" id="svg11300" width="400" height="300" version="1.0" style="display:inline;enable-background:new"><title id="title8836">Optical Drive</title><metadata id="metadata154"/><defs id="defs3"><linearGradient id="linearGradient3381"><stop id="stop3383" offset="0" style="stop-color:#204a87;stop-opacity:1"/><stop id="stop3385" offset="1" style="stop-color:#204a87;stop-opacity:0"/></linearGradient><linearGradient id="linearGradient3359"><stop id="stop3361" offset="0" style="stop-color:#eeeeec;stop-opacity:1"/><stop id="stop3365" offset=".578" style="stop-color:#fff;stop-opacity:1"/><stop id="stop3363" offset="1" style="stop-color:#eeeeec;stop-opacity:1"/></linearGradient><linearGradient id="linearGradient8032"><stop id="stop8034" offset="0" style="stop-color:#d3d7cf;stop-opacity:1"/><stop id="stop8036" offset="1" style="stop-color:#eeeeec;stop-opacity:1"/></linearGradient><linearGradient id="linearGradient8718"><stop id="stop8720" offset="0" style="stop-color:#eeeeec;stop-opacity:1"/><stop id="stop8722" offset="1" style="stop-color:#fff;stop-opacity:0"/></linearGradient><linearGradient id="linearGradient7440"><stop id="stop7442" offset="0" style="stop-color:#000;stop-opacity:1"/><stop id="stop7444" offset="1" style="stop-color:#000;stop-opacity:0"/></linearGradient><linearGradient id="linearGradient7013"><stop id="stop7015" offset="0" style="stop-color:#fff;stop-opacity:1"/><stop id="stop7017" offset="1" style="stop-color:#fff;stop-opacity:0"/></linearGradient><linearGradient id="linearGradient6964"><stop id="stop6966" offset="0" style="stop-color:#d3d7cf;stop-opacity:1"/><stop id="stop6968" offset="1" style="stop-color:#fff;stop-opacity:1"/></linearGradient><linearGradient id="linearGradient6934"><stop id="stop6936" offset="0" style="stop-color:#babdb6;stop-opacity:1"/><stop id="stop6938" offset="1" style="stop-color:#babdb6;stop-opacity:0"/></linearGradient><linearGradient id="linearGradient3329" x1="43.498" x2="37.162" y1="-4.965" y2="8.79" gradientTransform="matrix(1,0,0,-1,-30,16)" gradientUnits="userSpaceOnUse" xlink:href="#linearGradient6964"/><linearGradient id="linearGradient3331" x1="40.188" x2="40.125" y1="5.5" y2="-.536" gradientTransform="translate(-30,6)" gradientUnits="userSpaceOnUse" xlink:href="#linearGradient8032"/><linearGradient id="linearGradient3333" x1="38" x2="38" y1="9.749" y2="11.492" gradientTransform="translate(-30,6)" gradientUnits="userSpaceOnUse" xlink:href="#linearGradient8718"/><linearGradient id="linearGradient3335" x1="41.969" x2="41.969" y1="6.726" y2="12.344" gradientTransform="translate(-30,6)" gradientUnits="userSpaceOnUse" xlink:href="#linearGradient6934"/><linearGradient id="linearGradient3337" x1="36.219" x2="36.969" y1="9.719" y2="11.689" gradientUnits="userSpaceOnUse" xlink:href="#linearGradient7013"/><radialGradient id="radialGradient3339" cx="11.093" cy="18.597" r="10.916" fx="11.093" fy="18.597" gradientTransform="matrix(1,0,0,0.2469636,0,14.004255)" gradientUnits="userSpaceOnUse" xlink:href="#linearGradient7440"/><linearGradient id="linearGradient3351" x1="7.071" x2="10.695" y1="1.847" y2="23.181" gradientUnits="userSpaceOnUse" xlink:href="#linearGradient3359"/><linearGradient id="linearGradient3387" x1="4.464" x2="1.724" y1="16.411" y2="16.411" gradientUnits="userSpaceOnUse" xlink:href="#linearGradient3381"/><linearGradient id="linearGradient3230"><stop id="stop3232" offset="0" style="stop-color:#fff;stop-opacity:1"/><stop id="stop3234" offset="1" style="stop-color:#fff;stop-opacity:0"/></linearGradient><linearGradient id="linearGradient3242" x1="7.999" x2="7.999" y1="3.979" y2="0" gradientUnits="userSpaceOnUse" xlink:href="#linearGradient3230"/><mask id="mask3238" maskUnits="userSpaceOnUse"><rect id="rect3240" width="16" height="16" x="0" y="0" style="opacity:1;color:#000;fill:url(#linearGradient3242);fill-opacity:1;fill-rule:evenodd;stroke:none;stroke-width:1;stroke-linecap:round;stroke-linejoin:round;marker:none;marker-start:none;marker-mid:none;marker-end:none;stroke-miterlimit:4;stroke-dasharray:none;stroke-dashoffset:0;stroke-opacity:1;visibility:visible;display:inline;overflow:visible;enable-background:accumulate"/></mask></defs><g id="layer6" style="display:none"><rect id="rect6749" width="22" height="22" x="303" y="177" style="fill:#eeeeec;fill-opacity:1;fill-rule:nonzero;stroke:none;stroke-width:2;marker:none;visibility:visible;display:inline;overflow:visible;enable-background:accumulate"/><rect id="rect6833" width="16" height="16" x="303" y="219" style="fill:#eeeeec;fill-opacity:1;fill-rule:nonzero;stroke:none;stroke-width:2;marker:none;visibility:visible;display:inline;overflow:visible;enable-background:accumulate"/><text id="context" x="20.971" y="21.514" xml:space="preserve" style="font-size:18.30070686px;font-style:normal;font-weight:400;fill:#000;fill-opacity:1;stroke:none;display:inline;enable-background:new;font-family:Bitstream Vera Sans"><tspan id="tspan2716" x="20.971" y="21.514">status</tspan></text><text id="icon-name" x="191.971" y="21.514" xml:space="preserve" style="font-size:18.30070686px;font-style:normal;font-variant:normal;font-weight:700;font-stretch:normal;text-align:start;line-height:125%;writing-mode:lr-tb;text-anchor:start;fill:#000;fill-opacity:1;stroke:none;display:inline;enable-background:new;font-family:Droid Sans;-inkscape-font-specification:Droid Sans Bold"><tspan id="tspan3023" x="191.971" y="21.514">mail-signed-verified</tspan></text></g><g id="layer2" style="display:inline"><g id="g22" transform="translate(303,177) scale(1.000000,1.000000)" style="display:inline;enable-background:new"><path id="path10008" d="M 22.008698 18.597048 A 10.915961 2.6958447 0 1 1 0.17677593,18.597048 A 10.915961 2.6958447 0 1 1 22.008698 18.597048 z" transform="matrix(1.0997058,0,0,1.1128234,-0.1944015,-1.69523)" style="opacity:.2;fill:url(#radialGradient3339);fill-opacity:1;fill-rule:evenodd;stroke:none;stroke-width:2;stroke-linecap:round;stroke-linejoin:miter;stroke-miterlimit:4;stroke-dasharray:none;stroke-dashoffset:.69999992;stroke-opacity:1"/><g id="g10012" transform="translate(1,-1)" style="opacity:1"><path id="path10014" d="M 9.4375,1.5 L 1.625,7.375 C 1.621362,7.3836299 1.6284742,7.3975343 1.625,7.40625 L 1.5,7.5 L 1.59375,7.5 C 1.5480911,7.6408095 1.5,7.7810881 1.5,7.9375 L 1.5,18.0625 C 1.5,18.861199 2.1388011,19.500001 2.9375,19.5 L 19.0625,19.5 C 19.861199,19.5 20.5,18.861199 20.5,18.0625 L 20.5,7.9375 C 20.5,7.7810881 20.451909,7.6408095 20.40625,7.5 L 20.5,7.5 L 20.375,7.40625 L 20.375,7.375 L 12.4375,1.5 L 9.4375,1.5 z" style="fill:url(#linearGradient3329);fill-opacity:1;fill-rule:evenodd;stroke:#888a85;stroke-width:.99999994;stroke-linecap:round;stroke-linejoin:round;stroke-miterlimit:4;stroke-dasharray:none;stroke-dashoffset:.69999992;stroke-opacity:1"/><path id="path10016" d="M 9.59375,2 L 2.71875,7.0625 C 2.7651986,7.0868064 2.8074102,7.1184652 2.84375,7.15625 L 9.6875,14 L 12.3125,14 L 19.15625,7.15625 C 19.19259,7.1184652 19.234801,7.0868064 19.28125,7.0625 L 12.28125,2 L 9.59375,2 z" style="fill:url(#linearGradient3331);fill-opacity:1;fill-rule:evenodd;stroke:none;stroke-width:.99999994;stroke-linecap:round;stroke-linejoin:round;stroke-miterlimit:4;stroke-dashoffset:.69999992;stroke-opacity:1"/><path id="path10018" d="M 3,8 L 9.5,14.5 L 12.5,14.5 L 19,8" style="fill:none;fill-opacity:1;fill-rule:evenodd;stroke:#babdb6;stroke-width:1px;stroke-linecap:butt;stroke-linejoin:round;stroke-opacity:1"/><g id="g10020"><g id="g10022" transform="translate(0,-33)" style="fill:#fff"><rect id="rect10024" width="1" height="1" x="4" y="43" style="opacity:1;fill:#fff;fill-opacity:1;fill-rule:evenodd;stroke:none;stroke-width:2;stroke-linecap:round;stroke-linejoin:miter;stroke-miterlimit:4;stroke-dasharray:none;stroke-dashoffset:.69999992;stroke-opacity:1"/><rect id="rect10026" width="1" height="1" x="5" y="44" style="opacity:1;fill:#fff;fill-opacity:1;fill-rule:evenodd;stroke:none;stroke-width:2;stroke-linecap:round;stroke-linejoin:miter;stroke-miterlimit:4;stroke-dasharray:none;stroke-dashoffset:.69999992;stroke-opacity:1"/><rect id="rect10028" width="1" height="1" x="6" y="45" style="opacity:1;fill:#fff;fill-opacity:1;fill-rule:evenodd;stroke:none;stroke-width:2;stroke-linecap:round;stroke-linejoin:miter;stroke-miterlimit:4;stroke-dasharray:none;stroke-dashoffset:.69999992;stroke-opacity:1"/><rect id="rect10030" width="1" height="1" x="7" y="46" style="opacity:1;fill:#fff;fill-opacity:1;fill-rule:evenodd;stroke:none;stroke-width:2;stroke-linecap:round;stroke-linejoin:miter;stroke-miterlimit:4;stroke-dasharray:none;stroke-dashoffset:.69999992;stroke-opacity:1"/><rect id="rect10032" width="1" height="1" x="3" y="42" style="opacity:1;fill:#fff;fill-opacity:1;fill-rule:evenodd;stroke:none;stroke-width:2;stroke-linecap:round;stroke-linejoin:miter;stroke-miterlimit:4;stroke-dasharray:none;stroke-dashoffset:.69999992;stroke-opacity:1"/></g><g id="g10034" transform="matrix(-1,0,0,1,22,-33)" style="fill:#fff"><rect id="rect10036" width="1" height="1" x="4" y="43" style="opacity:1;fill:#fff;fill-opacity:1;fill-rule:evenodd;stroke:none;stroke-width:2;stroke-linecap:round;stroke-linejoin:miter;stroke-miterlimit:4;stroke-dasharray:none;stroke-dashoffset:.69999992;stroke-opacity:1"/><rect id="rect10039" width="1" height="1" x="5" y="44" style="opacity:1;fill:#fff;fill-opacity:1;fill-rule:evenodd;stroke:none;stroke-width:2;stroke-linecap:round;stroke-linejoin:miter;stroke-miterlimit:4;stroke-dasharray:none;stroke-dashoffset:.69999992;stroke-opacity:1"/><rect id="rect10041" width="1" height="1" x="6" y="45" style="opacity:1;fill:#fff;fill-opacity:1;fill-rule:evenodd;stroke:none;stroke-width:2;stroke-linecap:round;stroke-linejoin:miter;stroke-miterlimit:4;stroke-dasharray:none;stroke-dashoffset:.69999992;stroke-opacity:1"/><rect id="rect10043" width="1" height="1" x="7" y="46" style="opacity:1;fill:#fff;fill-opacity:1;fill-rule:evenodd;stroke:none;stroke-width:2;stroke-linecap:round;stroke-linejoin:miter;stroke-miterlimit:4;stroke-dasharray:none;stroke-dashoffset:.69999992;stroke-opacity:1"/><rect id="rect10045" width="1" height="1" x="3" y="42" style="opacity:1;fill:#fff;fill-opacity:1;fill-rule:evenodd;stroke:none;stroke-width:2;stroke-linecap:round;stroke-linejoin:miter;stroke-miterlimit:4;stroke-dasharray:none;stroke-dashoffset:.69999992;stroke-opacity:1"/></g></g><path id="path10047" d="M 2.3125,8.6875 L 8.8125,15.1875 C 8.9951997,15.368865 9.2425687,15.470062 9.5,15.46875 L 12.5,15.46875 C 12.757431,15.470062 13.0048,15.368865 13.1875,15.1875 L 19.6875,8.6875" style="fill:none;fill-opacity:1;fill-rule:evenodd;stroke:#fff;stroke-width:1px;stroke-linecap:butt;stroke-linejoin:round;stroke-opacity:1"/><path id="path10049" d="M 8.5,12.5 L 2,19 L 20,19 L 13.5,12.5 L 8.5,12.5 z" style="fill:url(#linearGradient3333);fill-opacity:1;fill-rule:evenodd;stroke:url(#linearGradient3335);stroke-width:1px;stroke-linecap:butt;stroke-linejoin:round;stroke-opacity:1"/><path id="path10051" d="M 38.90625,7.53125 L 32.46875,13.96875 L 49.53125,13.96875 L 43.09375,7.53125 L 38.90625,7.53125 z" transform="translate(-30,6)" style="fill:none;fill-opacity:1;fill-rule:evenodd;stroke:url(#linearGradient3337);stroke-width:1px;stroke-linecap:butt;stroke-linejoin:round;stroke-opacity:1"/><g id="g10053" transform="matrix(1,0,0,-1,0,61)"><rect id="rect10055" width="1" height="1" x="4" y="43" style="opacity:1;fill:#fff;fill-opacity:1;fill-rule:evenodd;stroke:none;stroke-width:2;stroke-linecap:round;stroke-linejoin:miter;stroke-miterlimit:4;stroke-dasharray:none;stroke-dashoffset:.69999992;stroke-opacity:1"/><rect id="rect10057" width="1" height="1" x="5" y="44" style="opacity:1;fill:#fff;fill-opacity:1;fill-rule:evenodd;stroke:none;stroke-width:2;stroke-linecap:round;stroke-linejoin:miter;stroke-miterlimit:4;stroke-dasharray:none;stroke-dashoffset:.69999992;stroke-opacity:1"/><rect id="rect10059" width="1" height="1" x="6" y="45" style="opacity:1;fill:#fff;fill-opacity:1;fill-rule:evenodd;stroke:none;stroke-width:2;stroke-linecap:round;stroke-linejoin:miter;stroke-miterlimit:4;stroke-dasharray:none;stroke-dashoffset:.69999992;stroke-opacity:1"/><rect id="rect10061" width="1" height="1" x="7" y="46" style="opacity:1;fill:#fff;fill-opacity:1;fill-rule:evenodd;stroke:none;stroke-width:2;stroke-linecap:round;stroke-linejoin:miter;stroke-miterlimit:4;stroke-dasharray:none;stroke-dashoffset:.69999992;stroke-opacity:1"/><rect id="rect10063" width="1" height="1" x="3" y="42" style="opacity:1;fill:#fff;fill-opacity:1;fill-rule:evenodd;stroke:none;stroke-width:2;stroke-linecap:round;stroke-linejoin:miter;stroke-miterlimit:4;stroke-dasharray:none;stroke-dashoffset:.69999992;stroke-opacity:1"/></g><g id="g10065" transform="matrix(-1,0,0,-1,22,61)"><rect id="rect10067" width="1" height="1" x="4" y="43" style="opacity:1;fill:#fff;fill-opacity:1;fill-rule:evenodd;stroke:none;stroke-width:2;stroke-linecap:round;stroke-linejoin:miter;stroke-miterlimit:4;stroke-dasharray:none;stroke-dashoffset:.69999992;stroke-opacity:1"/><rect id="rect10069" width="1" height="1" x="5" y="44" style="opacity:1;fill:#fff;fill-opacity:1;fill-rule:evenodd;stroke:none;stroke-width:2;stroke-linecap:round;stroke-linejoin:miter;stroke-miterlimit:4;stroke-dasharray:none;stroke-dashoffset:.69999992;stroke-opacity:1"/><rect id="rect10071" width="1" height="1" x="6" y="45" style="opacity:1;fill:#fff;fill-opacity:1;fill-rule:evenodd;stroke:none;stroke-width:2;stroke-linecap:round;stroke-linejoin:miter;stroke-miterlimit:4;stroke-dasharray:none;stroke-dashoffset:.69999992;stroke-opacity:1"/><rect id="rect10073" width="1" height="1" x="7" y="46" style="opacity:1;fill:#fff;fill-opacity:1;fill-rule:evenodd;stroke:none;stroke-width:2;stroke-linecap:round;stroke-linejoin:miter;stroke-miterlimit:4;stroke-dasharray:none;stroke-dashoffset:.69999992;stroke-opacity:1"/><rect id="rect10075" width="1" height="1" x="3" y="42" style="opacity:1;fill:#fff;fill-opacity:1;fill-rule:evenodd;stroke:none;stroke-width:2;stroke-linecap:round;stroke-linejoin:miter;stroke-miterlimit:4;stroke-dasharray:none;stroke-dashoffset:.69999992;stroke-opacity:1"/></g><path id="path10077" d="M 9.8125,2.5 L 2.5,7.9375 L 2.5,18.0625 C 2.5,18.327998 2.672004,18.5 2.9375,18.5 L 19.0625,18.5 C 19.327998,18.5 19.5,18.327998 19.5,18.0625 L 19.5,7.9375 L 12.0625,2.5 L 9.8125,2.5 z" style="fill:none;fill-opacity:1;fill-rule:evenodd;stroke:#fff;stroke-width:.99999994;stroke-linecap:round;stroke-linejoin:round;stroke-miterlimit:4;stroke-dashoffset:.69999992;stroke-opacity:1"/></g><rect id="rect3341" width="15.013" height="18.013" x=".494" y="3.494" rx="1.081" ry="1.081" style="opacity:1;color:#000;fill:url(#linearGradient3351);fill-opacity:1;fill-rule:evenodd;stroke:#babdb6;stroke-width:1;stroke-linecap:round;stroke-linejoin:round;marker:none;marker-start:none;marker-mid:none;marker-end:none;stroke-miterlimit:4;stroke-dasharray:none;stroke-dashoffset:0;stroke-opacity:1;visibility:visible;display:inline;overflow:visible;enable-background:accumulate"/><rect id="rect3343" width="12.995" height="16.012" x="1.502" y="4.494" rx=".033" ry=".033" style="opacity:1;color:#000;fill:none;fill-opacity:1;fill-rule:evenodd;stroke:#fff;stroke-width:.99501437;stroke-linecap:round;stroke-linejoin:round;marker:none;marker-start:none;marker-mid:none;marker-end:none;stroke-miterlimit:4;stroke-dasharray:none;stroke-dashoffset:0;stroke-opacity:1;visibility:visible;display:inline;overflow:visible;enable-background:accumulate"/><path id="path3367" d="M 3.5,6.5 L 5.5,6.5" style="opacity:.1;fill:none;fill-rule:evenodd;stroke:#000;stroke-width:1px;stroke-linecap:round;stroke-linejoin:miter;stroke-opacity:1"/><path id="path3369" d="M 5.5,8.5 L 12.5,8.5" style="opacity:.1;fill:none;fill-rule:evenodd;stroke:#000;stroke-width:1px;stroke-linecap:round;stroke-linejoin:miter;stroke-opacity:1"/><path id="path3371" d="M 4.5,10.5 L 11.5,10.5" style="opacity:.1;fill:none;fill-rule:evenodd;stroke:#000;stroke-width:1px;stroke-linecap:round;stroke-linejoin:miter;stroke-opacity:1"/><path id="path3373" d="M 4.5,12.5 L 11.5,12.5" style="opacity:.1;fill:none;fill-rule:evenodd;stroke:#000;stroke-width:1px;stroke-linecap:round;stroke-linejoin:miter;stroke-opacity:1"/><g id="g3399" style="opacity:.2"><rect id="rect3389" width="1" height="1" x="4" y="18" rx=".033" ry=".033" style="opacity:1;color:#000;fill:#000;fill-opacity:1;fill-rule:evenodd;stroke:none;stroke-width:.426;stroke-linecap:round;stroke-linejoin:round;marker:none;marker-start:none;marker-mid:none;marker-end:none;stroke-miterlimit:4;stroke-dasharray:none;stroke-dashoffset:0;stroke-opacity:1;visibility:visible;display:inline;overflow:visible;enable-background:accumulate"/><rect id="rect3391" width="1" height="1" x="6" y="18" rx=".033" ry=".033" style="opacity:1;color:#000;fill:#000;fill-opacity:1;fill-rule:evenodd;stroke:none;stroke-width:.426;stroke-linecap:round;stroke-linejoin:round;marker:none;marker-start:none;marker-mid:none;marker-end:none;stroke-miterlimit:4;stroke-dasharray:none;stroke-dashoffset:0;stroke-opacity:1;visibility:visible;display:inline;overflow:visible;enable-background:accumulate"/><rect id="rect3393" width="1" height="1" x="8" y="18" rx=".033" ry=".033" style="opacity:1;color:#000;fill:#000;fill-opacity:1;fill-rule:evenodd;stroke:none;stroke-width:.426;stroke-linecap:round;stroke-linejoin:round;marker:none;marker-start:none;marker-mid:none;marker-end:none;stroke-miterlimit:4;stroke-dasharray:none;stroke-dashoffset:0;stroke-opacity:1;visibility:visible;display:inline;overflow:visible;enable-background:accumulate"/><rect id="rect3395" width="1" height="1" x="10" y="18" rx=".033" ry=".033" style="opacity:1;color:#000;fill:#000;fill-opacity:1;fill-rule:evenodd;stroke:none;stroke-width:.426;stroke-linecap:round;stroke-linejoin:round;marker:none;marker-start:none;marker-mid:none;marker-end:none;stroke-miterlimit:4;stroke-dasharray:none;stroke-dashoffset:0;stroke-opacity:1;visibility:visible;display:inline;overflow:visible;enable-background:accumulate"/><rect id="rect3397" width="1" height="1" x="12" y="18" rx=".033" ry=".033" style="opacity:1;color:#000;fill:#000;fill-opacity:1;fill-rule:evenodd;stroke:none;stroke-width:.426;stroke-linecap:round;stroke-linejoin:round;marker:none;marker-start:none;marker-mid:none;marker-end:none;stroke-miterlimit:4;stroke-dasharray:none;stroke-dashoffset:0;stroke-opacity:1;visibility:visible;display:inline;overflow:visible;enable-background:accumulate"/></g><path id="path3377" d="M 1.506789,16.767644 C 5.3445258,16.040731 12.014044,17.180524 12.78914,16.489678 C 13.846123,15.547587 13.693771,13.616771 12.009112,13.626121 C 9.307657,13.751015 10.803909,21.54038 10.981348,17.501538 C 11.067663,15.536856 10.732048,13.682778 9.634556,13.682778 C 8.514198,13.682778 7.8074738,15.400461 8.4239705,18.21286 C 9.041546,21.030179 9.151095,14.181055 7.4046334,14.135496 C 5.6586046,14.089948 5.5604802,17.660169 6.8159189,19.196426" style="fill:none;fill-rule:evenodd;stroke:url(#linearGradient3387);stroke-width:.426;stroke-linecap:round;stroke-linejoin:round;stroke-miterlimit:4;stroke-dasharray:none;stroke-opacity:1;fill-opacity:1"/><path id="path3306" d="M 16 4.4375 L 10.90625 10.09375 L 8.40625 7.59375 C 7.9256889 6.9974007 7.1526369 6.7345586 6.40625 6.90625 C 5.6598629 7.0779415 5.0779414 7.659863 4.90625 8.40625 C 4.7345587 9.1526368 4.9974007 9.9256889 5.59375 10.40625 L 9.59375 14.40625 C 9.9800721 14.797662 10.512674 15.011824 11.0625 15 C 11.612325 14.988176 12.130862 14.751408 12.5 14.34375 L 16 10.46875 L 16 4.5625 C 16 4.5200776 16.003391 4.4791132 16 4.4375 z" style="fill:#000;fill-opacity:1;fill-rule:evenodd;stroke:none;stroke-width:4;stroke-linecap:round;stroke-linejoin:round;stroke-miterlimit:4;stroke-dasharray:none;stroke-opacity:1;opacity:.15"/><g id="g3287" transform="translate(0.5,-0.5)"><path id="path3285" d="M 6.5,8.5 L 10.5,12.5 L 19.5,2.5" style="fill:none;fill-rule:evenodd;stroke:#4e9a06;stroke-width:4;stroke-linecap:round;stroke-linejoin:round;stroke-miterlimit:4;stroke-dasharray:none;stroke-opacity:1"/><path id="path3279" d="M 6.5,8.5 L 10.5,12.5 L 19.5,2.5" style="fill:none;fill-rule:evenodd;stroke:#8ae234;stroke-width:2;stroke-linecap:round;stroke-linejoin:round;stroke-miterlimit:4;stroke-dasharray:none;stroke-opacity:1"/></g><path id="path3291" d="M 19.84375 1 C 19.611492 1.040989 19.401193 1.1627411 19.25 1.34375 L 10.96875 10.53125 L 7.71875 7.28125 C 7.3217953 6.8842953 6.6782047 6.8842953 6.28125 7.28125 C 5.9455898 7.6169102 5.9242496 8.1098789 6.15625 8.5 C 6.1986153 8.4287605 6.2199555 8.3425445 6.28125 8.28125 C 6.6782047 7.8842953 7.3217953 7.8842953 7.71875 8.28125 L 10.96875 11.53125 L 19.25 2.34375 C 19.401193 2.1627411 19.611492 2.040989 19.84375 2 C 20.25468 1.9319548 20.666782 2.1100401 20.875 2.46875 C 21.033125 2.1753138 21.040047 1.8016386 20.875 1.5 C 20.670983 1.1271412 20.263066 0.93056613 19.84375 1 z" style="fill:#fff;fill-opacity:1;fill-rule:evenodd;stroke:none;stroke-width:2;stroke-linecap:round;stroke-linejoin:round;stroke-miterlimit:4;stroke-dasharray:none;stroke-opacity:1;opacity:.55598456"/></g><g id="g16" transform="translate(303,219) scale(1.000000,1.000000)" style="display:inline;enable-background:new"><g id="g2241" mask="url(#mask3238)"><rect id="rect133" width="15.013" height="18.013" x=".494" y="-2.506" rx="1.081" ry="1.081" style="opacity:1;color:#000;fill:url(#linearGradient3351);fill-opacity:1;fill-rule:evenodd;stroke:#babdb6;stroke-width:1;stroke-linecap:round;stroke-linejoin:round;marker:none;marker-start:none;marker-mid:none;marker-end:none;stroke-miterlimit:4;stroke-dasharray:none;stroke-dashoffset:0;stroke-opacity:1;visibility:visible;display:inline;overflow:visible;enable-background:accumulate"/><rect id="rect135" width="12.995" height="16.012" x="1.502" y="-1.506" rx=".033" ry=".033" style="opacity:1;color:#000;fill:none;fill-opacity:1;fill-rule:evenodd;stroke:#fff;stroke-width:.99501437;stroke-linecap:round;stroke-linejoin:round;marker:none;marker-start:none;marker-mid:none;marker-end:none;stroke-miterlimit:4;stroke-dasharray:none;stroke-dashoffset:0;stroke-opacity:1;visibility:visible;display:inline;overflow:visible;enable-background:accumulate"/><path id="path137" d="M 3.5,0.5 L 5.5,0.5" style="opacity:.1;fill:none;fill-rule:evenodd;stroke:#000;stroke-width:1px;stroke-linecap:round;stroke-linejoin:miter;stroke-opacity:1"/><path id="path139" d="M 5.5,2.5 L 12.5,2.5" style="opacity:.1;fill:none;fill-rule:evenodd;stroke:#000;stroke-width:1px;stroke-linecap:round;stroke-linejoin:miter;stroke-opacity:1"/><path id="path141" d="M 4.5,4.5 L 11.5,4.5" style="opacity:.1;fill:none;fill-rule:evenodd;stroke:#000;stroke-width:1px;stroke-linecap:round;stroke-linejoin:miter;stroke-opacity:1"/><path id="path143" d="M 4.5,6.5 L 11.5,6.5" style="opacity:.1;fill:none;fill-rule:evenodd;stroke:#000;stroke-width:1px;stroke-linecap:round;stroke-linejoin:miter;stroke-opacity:1"/><g id="g145" transform="translate(0,-6)" style="opacity:.2"><rect id="rect147" width="1" height="1" x="4" y="18" rx=".033" ry=".033" style="opacity:1;color:#000;fill:#000;fill-opacity:1;fill-rule:evenodd;stroke:none;stroke-width:.426;stroke-linecap:round;stroke-linejoin:round;marker:none;marker-start:none;marker-mid:none;marker-end:none;stroke-miterlimit:4;stroke-dasharray:none;stroke-dashoffset:0;stroke-opacity:1;visibility:visible;display:inline;overflow:visible;enable-background:accumulate"/><rect id="rect149" width="1" height="1" x="6" y="18" rx=".033" ry=".033" style="opacity:1;color:#000;fill:#000;fill-opacity:1;fill-rule:evenodd;stroke:none;stroke-width:.426;stroke-linecap:round;stroke-linejoin:round;marker:none;marker-start:none;marker-mid:none;marker-end:none;stroke-miterlimit:4;stroke-dasharray:none;stroke-dashoffset:0;stroke-opacity:1;visibility:visible;display:inline;overflow:visible;enable-background:accumulate"/><rect id="rect151" width="1" height="1" x="8" y="18" rx=".033" ry=".033" style="opacity:1;color:#000;fill:#000;fill-opacity:1;fill-rule:evenodd;stroke:none;stroke-width:.426;stroke-linecap:round;stroke-linejoin:round;marker:none;marker-start:none;marker-mid:none;marker-end:none;stroke-miterlimit:4;stroke-dasharray:none;stroke-dashoffset:0;stroke-opacity:1;visibility:visible;display:inline;overflow:visible;enable-background:accumulate"/><rect id="rect153" width="1" height="1" x="10" y="18" rx=".033" ry=".033" style="opacity:1;color:#000;fill:#000;fill-opacity:1;fill-rule:evenodd;stroke:none;stroke-width:.426;stroke-linecap:round;stroke-linejoin:round;marker:none;marker-start:none;marker-mid:none;marker-end:none;stroke-miterlimit:4;stroke-dasharray:none;stroke-dashoffset:0;stroke-opacity:1;visibility:visible;display:inline;overflow:visible;enable-background:accumulate"/><rect id="rect155" width="1" height="1" x="12" y="18" rx=".033" ry=".033" style="opacity:1;color:#000;fill:#000;fill-opacity:1;fill-rule:evenodd;stroke:none;stroke-width:.426;stroke-linecap:round;stroke-linejoin:round;marker:none;marker-start:none;marker-mid:none;marker-end:none;stroke-miterlimit:4;stroke-dasharray:none;stroke-dashoffset:0;stroke-opacity:1;visibility:visible;display:inline;overflow:visible;enable-background:accumulate"/></g><path id="path157" d="M 1.506789,10.767644 C 5.3445258,10.040731 12.014044,11.180524 12.78914,10.489678 C 13.846123,9.547587 13.693771,7.616771 12.009112,7.626121 C 9.307657,7.751015 10.803909,15.54038 10.981348,11.501538 C 11.067663,9.536856 10.732048,7.682778 9.634556,7.682778 C 8.514198,7.682778 7.8074738,9.400461 8.4239705,12.21286 C 9.041546,15.030179 9.151095,8.181055 7.4046334,8.135496 C 5.6586046,8.089948 5.5604802,11.660169 6.8159189,13.196426" style="fill:none;fill-opacity:1;fill-rule:evenodd;stroke:url(#linearGradient3387);stroke-width:.426;stroke-linecap:round;stroke-linejoin:round;stroke-miterlimit:4;stroke-dasharray:none;stroke-opacity:1"/></g><g id="g159" transform="matrix(0.7034023,0,0,0.7034023,-1.1231494,-0.3517012)"><path id="path161" d="M 6.5,8.5 L 10.5,12.5 L 19.5,2.5" style="fill:none;fill-rule:evenodd;stroke:#4e9a06;stroke-width:4;stroke-linecap:round;stroke-linejoin:round;stroke-miterlimit:4;stroke-dasharray:none;stroke-opacity:1"/><path id="path163" d="M 6.5,8.5 L 10.5,12.5 L 19.5,2.5" style="fill:none;fill-rule:evenodd;stroke:#8ae234;stroke-width:2;stroke-linecap:round;stroke-linejoin:round;stroke-miterlimit:4;stroke-dasharray:none;stroke-opacity:1"/></g><path id="path165" d="M 12.483288,0.70340219 C 12.319917,0.732234 12.171993,0.81787465 12.065643,0.94519674 L 6.2405928,7.4077048 L 3.9545356,5.1216476 C 3.6753166,4.8424287 3.2226139,4.8424287 2.9433948,5.1216476 C 2.7072907,5.3577516 2.6922802,5.7045071 2.8554695,5.9789191 C 2.8852692,5.9288092 2.9002805,5.8681646 2.9433948,5.8250499 C 3.2226139,5.5458311 3.6753166,5.5458311 3.9545356,5.8250499 L 6.2405928,8.1111071 L 12.065643,1.648599 C 12.171993,1.5212769 12.319917,1.4356363 12.483288,1.4068045 C 12.772337,1.3589414 13.06221,1.4842069 13.208671,1.7365243 C 13.319897,1.5301207 13.324766,1.2672767 13.208671,1.0551033 C 13.065165,0.79283361 12.778235,0.65456228 12.483288,0.70340219 z" style="opacity:.55598456;fill:#fff;fill-opacity:1;fill-rule:evenodd;stroke:none;stroke-width:2;stroke-linecap:round;stroke-linejoin:round;stroke-miterlimit:4;stroke-dasharray:none;stroke-opacity:1"/></g></g></svg>