<svg xmlns="http://www.w3.org/2000/svg" xmlns:svg="http://www.w3.org/2000/svg" xmlns:xlink="http://www.w3.org/1999/xlink" id="svg11300" width="400" height="300" version="1.0" style="display:inline;enable-background:new"><title id="title8836">Optical Drive</title><metadata id="metadata154"/><defs id="defs3"><linearGradient id="linearGradient5172" x1="19.451" x2="23.719" y1="14.464" y2="48.405" gradientUnits="userSpaceOnUse" xlink:href="#linearGradient5166"/><linearGradient id="linearGradient5166"><stop style="stop-color:white;stop-opacity:1" id="stop5168" offset="0"/><stop style="stop-color:white;stop-opacity:0" id="stop5170" offset="1"/></linearGradient><linearGradient id="linearGradient5176"><stop style="stop-color:black;stop-opacity:1" id="stop5178" offset="0"/><stop style="stop-color:black;stop-opacity:0" id="stop5180" offset="1"/></linearGradient><linearGradient id="linearGradient5162"><stop style="stop-color:#babdb6;stop-opacity:1" id="stop5164" offset="0"/><stop style="stop-color:white;stop-opacity:1" id="stop5166" offset="1"/></linearGradient><linearGradient id="linearGradient5188"><stop style="stop-color:white;stop-opacity:1" id="stop5190" offset="0"/><stop style="stop-color:#aeaea3;stop-opacity:1" id="stop5192" offset="1"/></linearGradient><linearGradient id="linearGradient5196"><stop style="stop-color:#dfe2dc;stop-opacity:1" id="stop5198" offset="0"/><stop style="stop-color:#86917a;stop-opacity:1" id="stop5200" offset="1"/></linearGradient><linearGradient id="linearGradient5150"><stop style="stop-color:black;stop-opacity:1" id="stop5152" offset="0"/><stop style="stop-color:black;stop-opacity:0" id="stop5154" offset="1"/></linearGradient><radialGradient id="radialGradient2968" cx="24.837" cy="40.664" r="21.478" fx="24.837" fy="40.664" gradientTransform="matrix(1,0,0,0.325103,0,27.44386)" gradientUnits="userSpaceOnUse" xlink:href="#linearGradient5150"/><radialGradient id="radialGradient2970" cx="23.688" cy="14.211" r="22.597" fx="23.688" fy="14.211" gradientTransform="matrix(2.135667,0,0,2.110607,222.46822,40.133154)" gradientUnits="userSpaceOnUse" xlink:href="#linearGradient5188"/><radialGradient id="radialGradient2972" cx="20.09" cy="10.854" r="22.597" fx="20.09" fy="10.854" gradientTransform="matrix(1.790269,0,0,1.769263,233.55604,43.852324)" gradientUnits="userSpaceOnUse" xlink:href="#linearGradient5196"/><linearGradient id="linearGradient2974" x1="22.009" x2="23.585" y1="36.51" y2="14.412" gradientTransform="translate(249.36998,55.802294)" gradientUnits="userSpaceOnUse" xlink:href="#linearGradient5162"/><linearGradient id="linearGradient2976" x1="24.366" x2="32.601" y1="20.246" y2="28.555" gradientTransform="translate(249.36998,55.802294)" gradientUnits="userSpaceOnUse" xlink:href="#linearGradient5162"/><linearGradient id="linearGradient2978" x1="25.633" x2="38.714" y1="10.612" y2="18.39" gradientTransform="translate(249.36998,55.802294)" gradientUnits="userSpaceOnUse" xlink:href="#linearGradient5176"/><radialGradient id="radialGradient2968-1" cx="24.837" cy="40.664" r="21.478" fx="24.837" fy="40.664" gradientTransform="matrix(1,0,0,0.325103,0,27.44386)" gradientUnits="userSpaceOnUse" xlink:href="#linearGradient5150-0"/><linearGradient id="linearGradient5150-0"><stop style="stop-color:black;stop-opacity:1" id="stop5152-6" offset="0"/><stop style="stop-color:black;stop-opacity:0" id="stop5154-1" offset="1"/></linearGradient><radialGradient id="radialGradient2970-5" cx="23.688" cy="14.211" r="22.597" fx="23.688" fy="14.211" gradientTransform="matrix(2.135667,0,0,2.110607,222.46822,40.133154)" gradientUnits="userSpaceOnUse" xlink:href="#linearGradient5188-9"/><linearGradient id="linearGradient5188-9"><stop style="stop-color:white;stop-opacity:1" id="stop5190-4" offset="0"/><stop style="stop-color:#aeaea3;stop-opacity:1" id="stop5192-9" offset="1"/></linearGradient><radialGradient id="radialGradient2972-0" cx="20.09" cy="10.854" r="22.597" fx="20.09" fy="10.854" gradientTransform="matrix(1.790269,0,0,1.769263,233.55604,43.852324)" gradientUnits="userSpaceOnUse" xlink:href="#linearGradient5196-9"/><linearGradient id="linearGradient5196-9"><stop style="stop-color:#dfe2dc;stop-opacity:1" id="stop5198-1" offset="0"/><stop style="stop-color:#86917a;stop-opacity:1" id="stop5200-7" offset="1"/></linearGradient><linearGradient id="linearGradient2974-7" x1="22.009" x2="23.585" y1="36.51" y2="14.412" gradientTransform="translate(249.36998,55.802294)" gradientUnits="userSpaceOnUse" xlink:href="#linearGradient5162-1"/><linearGradient id="linearGradient5162-1"><stop style="stop-color:#babdb6;stop-opacity:1" id="stop5164-1" offset="0"/><stop style="stop-color:white;stop-opacity:1" id="stop5166-5" offset="1"/></linearGradient><linearGradient id="linearGradient2976-9" x1="24.366" x2="32.601" y1="20.246" y2="28.555" gradientTransform="translate(249.36998,55.802294)" gradientUnits="userSpaceOnUse" xlink:href="#linearGradient5162-1"/><linearGradient id="linearGradient2978-7" x1="25.633" x2="38.714" y1="10.612" y2="18.39" gradientTransform="translate(249.36998,55.802294)" gradientUnits="userSpaceOnUse" xlink:href="#linearGradient5176-7"/><linearGradient id="linearGradient5176-7"><stop style="stop-color:black;stop-opacity:1" id="stop5178-6" offset="0"/><stop style="stop-color:black;stop-opacity:0" id="stop5180-7" offset="1"/></linearGradient></defs><g id="layer6" style="display:none"><rect id="rect6284" width="48" height="48" x="296" y="50" style="fill:#eeeeec;fill-opacity:1;fill-rule:nonzero;stroke:none;stroke-width:2;marker:none;visibility:visible;display:inline;overflow:visible;enable-background:accumulate"/><rect id="rect6749" width="22" height="22" x="303" y="177" style="fill:#eeeeec;fill-opacity:1;fill-rule:nonzero;stroke:none;stroke-width:2;marker:none;visibility:visible;display:inline;overflow:visible;enable-background:accumulate"/><rect id="rect6833" width="16" height="16" x="303" y="219" style="fill:#eeeeec;fill-opacity:1;fill-rule:nonzero;stroke:none;stroke-width:2;marker:none;visibility:visible;display:inline;overflow:visible;enable-background:accumulate"/><text id="context" x="20.971" y="21.514" xml:space="preserve" style="font-size:18.30070686px;font-style:normal;font-weight:400;fill:#000;fill-opacity:1;stroke:none;display:inline;enable-background:new;font-family:Bitstream Vera Sans"><tspan id="tspan2716" x="20.971" y="21.514">actions</tspan></text><text id="icon-name" x="191.971" y="21.514" xml:space="preserve" style="font-size:18.30070686px;font-style:normal;font-variant:normal;font-weight:700;font-stretch:normal;text-align:start;line-height:125%;writing-mode:lr-tb;text-anchor:start;fill:#000;fill-opacity:1;stroke:none;display:inline;enable-background:new;font-family:Droid Sans;-inkscape-font-specification:Droid Sans Bold"><tspan id="tspan3023" x="191.971" y="21.514">mail-mark-junk</tspan></text><path style="color:#000;fill:none;stroke:url(#linearGradient5172);stroke-width:1;stroke-linecap:butt;stroke-linejoin:miter;stroke-miterlimit:4;stroke-opacity:1;stroke-dasharray:none;stroke-dashoffset:0;marker:none;visibility:visible;display:inline;overflow:visible" id="path5359" d="m 279.03125,58.90625 -10.84375,3.1875 -2.84375,6.65625 a 0.83785841,0.83785841 0 0 1 -1.53125,0.03125 l -0.8125,-1.75 -1.65625,0.09375 0,2.03125 a 0.83785841,0.83785841 0 0 1 -1.46875,0.5625 l -2.9375,-3.375 -3.90625,4.1875 0,6.5625 8.03125,7 a 0.83785841,0.83785841 0 0 1 -0.15625,1.34375 l -4.8125,2.75 0.0937,2.125 2.75,2.4375 a 0.83785841,0.83785841 0 0 1 0.15625,1.0625 L 257.875,95.78125 260.21875,96.8125 262.4375,95 a 0.83785841,0.83785841 0 0 1 0.59375,-0.1875 l 11.84375,0.90625 a 0.83785841,0.83785841 0 0 1 0.59375,0.34375 l 2.96875,3.96875 2.75,-4.4375 a 0.83785841,0.83785841 0 0 1 1.125,-0.3125 l 4,2.15625 4.21875,-0.53125 -0.90625,-1.9375 a 0.83785841,0.83785841 0 0 1 0.15625,-0.9375 l 3.34375,-3.34375 -4.96875,-5.59375 a 0.83785841,0.83785841 0 0 1 0.75,-1.40625 l 3.84375,0.53125 a 0.83785841,0.83785841 0 0 1 -0.0937,-0.15625 l -2.96875,-5.1875 -4.28125,-0.96875 a 0.83785841,0.83785841 0 0 1 -0.0625,-1.59375 l 3.15625,-1.03125 0.125,-2.25 -6.9375,-6.09375 a 0.83785841,0.83785841 0 0 1 -0.25,-0.375 l -2.40625,-7.65625 z" transform="translate(-25.353555,-32.538059)" xlink:href="#path4273"/><rect style="fill:#eeeeec;fill-opacity:1;fill-rule:nonzero;stroke:none;stroke-width:2;marker:none;visibility:visible;display:inline;overflow:visible;enable-background:accumulate" id="rect2956" width="32" height="32" x="296" y="126"/></g><g id="layer2" style="display:inline"><g style="display:inline;enable-background:new" id="g2958" transform="translate(46.35355,-5.911613)"><path id="path4275" d="m 46.315495,40.663769 c 0,3.856427 -9.616194,6.982679 -21.478369,6.982679 -11.862176,0 -21.478369,-3.126252 -21.478369,-6.982679 0,-3.856428 9.616193,-6.98268 21.478369,-6.98268 11.862175,0 21.478369,3.126252 21.478369,6.98268 z" transform="matrix(1.106996,0,0,1.106996,246.0054,50.390778)" style="opacity:.3258427;color:#000;fill:url(#radialGradient2968-1);fill-opacity:1;fill-rule:evenodd;stroke:none;stroke-width:1;marker:none;visibility:visible;display:inline;overflow:visible"/><path id="path4273" d="m 258.38559,93.37247 -1.76777,2.82843 3.71231,1.59099 2.65165,-2.12132 11.84404,0.88388 3.71231,4.94975 3.35876,-5.48008 4.24264,2.2981 5.65685,-0.70711 -1.41421,-3.0052 3.88909,-3.88909 -5.48008,-6.18719 5.3033,0.70711 2.2981,-2.12132 -3.00521,0.53033 -3.18198,-5.48008 -4.59619,-1.06066 3.71231,-1.23743 0.17678,-3.18198 -7.24785,-6.363965 -2.65165,-8.485282 -12.02081,3.535534 -3.00521,7.071068 -1.06066,-2.298097 -3.0052,0.176777 0,2.828425 -3.53553,-4.065862 -4.77298,5.126522 0,7.24785 8.30851,7.24784 -5.3033,3.00521 0.17677,3.0052 3.00521,2.65165 z" style="color:#000;fill:url(#radialGradient2970-5);fill-opacity:1;fill-rule:evenodd;stroke:url(#radialGradient2972-0);stroke-width:1;stroke-linecap:butt;stroke-linejoin:miter;stroke-miterlimit:4;stroke-opacity:1;stroke-dasharray:none;stroke-dashoffset:0;marker:none;visibility:visible;display:inline;overflow:visible"/><path id="path5158" d="m 268.81541,78.52323 -0.88388,6.54073 2.12132,3.35876 -4.59619,1.41422 -2.65165,5.3033 12.02081,0.88388 2.82843,4.06586 2.29809,-6.18718 -4.41941,-2.82843 -6.71752,1.94455 2.65165,-3.53554 -1.41421,-6.18718 -1.23744,-4.77297 z" style="opacity:.76966289;color:#000;fill:url(#linearGradient2974-7);fill-opacity:1;fill-rule:evenodd;stroke:none;stroke-width:1;marker:none;visibility:visible;display:inline;overflow:visible"/><path id="path5160" d="m 269.87607,79.58389 4.41942,6.89429 7.24785,-4.94975 4.41941,2.47487 3.53554,-3.0052 3.18198,2.82843 -3.00521,-4.94975 -6.89429,-1.59099 -8.66206,-4.24264 c 0,0 -12.37436,3.71231 -11.66726,3.71231 0.70711,0 10.25305,0.17678 10.25305,0.17678 l 1.59099,-2.2981 4.24264,1.94454 -8.66206,3.00521 z" style="opacity:.61797755;color:#000;fill:url(#linearGradient2976-9);fill-opacity:1;fill-rule:evenodd;stroke:none;stroke-width:1;marker:none;visibility:visible;display:inline;overflow:visible"/><path id="path5172" d="m 278.89168,59.254567 -10.42982,3.535534 -1.41421,3.889087 6.0104,4.242642 5.65686,-5.480079 0.17677,-6.187184 z" style="color:#000;fill:#fff;fill-opacity:1;fill-rule:evenodd;stroke:none;stroke-width:1;marker:none;visibility:visible;display:inline;overflow:visible"/><path id="path5174" d="m 279.06846,59.60812 2.2981,7.424621 4.24264,3.712309 -8.66206,-1.944542 c 0,0 -2.47487,2.828432 -1.41421,2.828432 1.06066,0 12.55114,1.41421 12.55114,1.41421 l -0.17677,2.2981 -16.26346,-3.00521 7.07107,-6.540735 0.35355,-6.187185 z" style="opacity:.13483145;color:#000;fill:url(#linearGradient2978-7);fill-opacity:1;fill-rule:evenodd;stroke:none;stroke-width:1;marker:none;visibility:visible;display:inline;overflow:visible"/><path id="path5184" d="m 256.7946,70.03795 -0.88389,8.83883 1.94455,-6.01041 5.12652,1.59099 1.23744,-2.65165 6.18718,0.88389 1.41422,-1.23744 -9.01561,-0.35355 -0.88389,2.47487 -3.88908,-1.94454 -1.23744,-1.59099 z" style="color:#000;fill:#fff;fill-opacity:1;fill-rule:evenodd;stroke:none;stroke-width:1;marker:none;visibility:visible;display:inline;overflow:visible"/><path id="path5186" d="m 271.82062,83.11942 3.0052,3.53554 6.89429,-4.5962 4.24264,2.2981 6.89429,6.54074 -7.60139,-5.83364 -3.71231,-1.06066 -7.24785,4.94975 -2.47487,-5.83363 z" style="color:#000;fill:#fff;fill-opacity:1;fill-rule:evenodd;stroke:none;stroke-width:1;marker:none;visibility:visible;display:inline;overflow:visible"/></g><image style="display:inline;enable-background:new" id="image2924" width="32" height="32" x="296" y="126" xlink:href="file:///home/hbons/.cache/.fr-vhiaz5/tango-icon-theme-0.8.90/32x32/actions/mail-mark-junk.png"/><image style="display:inline;enable-background:new" id="image2938" width="22" height="22" x="303" y="177" xlink:href="file:///home/hbons/.cache/.fr-PfuGB0/tango-icon-theme-0.8.90/22x22/actions/mail-mark-junk.png"/><image style="display:inline;enable-background:new" id="image2952" width="16" height="16" x="303" y="219" xlink:href="file:///home/hbons/.cache/.fr-8zwR1v/tango-icon-theme-0.8.90/16x16/actions/mail-mark-junk.png"/></g></svg>