<svg xmlns="http://www.w3.org/2000/svg" xmlns:svg="http://www.w3.org/2000/svg" xmlns:xlink="http://www.w3.org/1999/xlink" id="svg11300" width="400" height="300" version="1.0" style="display:inline;enable-background:new"><title id="title8836">Optical Drive</title><metadata id="metadata154"/><defs id="defs3"><linearGradient id="linearGradient6868"><stop id="stop6870" offset="0" style="stop-color:#787a73;stop-opacity:1"/><stop id="stop6872" offset="1" style="stop-color:#a6a7a5;stop-opacity:1"/></linearGradient><linearGradient id="linearGradient6997"><stop id="stop6999" offset="0" style="stop-color:#ebedea;stop-opacity:1"/><stop id="stop7001" offset="1" style="stop-color:#ccd2c8;stop-opacity:1"/></linearGradient><linearGradient id="linearGradient6957"><stop id="stop6959" offset="0" style="stop-color:#000;stop-opacity:1"/><stop id="stop6961" offset="1" style="stop-color:#000;stop-opacity:0"/></linearGradient><radialGradient id="radialGradient6963" cx="6.834" cy="18.246" r="6.362" fx="6.834" fy="18.246" gradientTransform="matrix(0.8248568,-2.5087964e-3,4.1186836e-4,0.4615378,1.1894136,9.8231788)" gradientUnits="userSpaceOnUse" xlink:href="#linearGradient6957"/><linearGradient id="linearGradient7003" x1="11.013" x2="11.013" y1="5.959" y2="15.917" gradientTransform="matrix(2.2252954,0,0,2.0735335,2.1557056e-2,2.7276043)" gradientUnits="userSpaceOnUse" xlink:href="#linearGradient6997"/><linearGradient id="linearGradient6874" x1="10.228" x2="10.09" y1="11.714" y2=".998" gradientTransform="matrix(2.2166179,0,0,2.0917609,0.130786,2.3623591)" gradientUnits="userSpaceOnUse" xlink:href="#linearGradient6868"/><linearGradient id="linearGradient12722"><stop id="stop12724" offset="0" style="stop-color:#636661;stop-opacity:1"/><stop id="stop12726" offset="1" style="stop-color:#6f716c;stop-opacity:1"/></linearGradient><linearGradient id="linearGradient12728" x1="8" x2="8" y1="8" y2="1.117" gradientUnits="userSpaceOnUse" xlink:href="#linearGradient12722"/></defs><g id="layer6" style="display:none"><rect id="rect6284" width="48" height="48" x="296" y="50" style="fill:#eeeeec;fill-opacity:1;fill-rule:nonzero;stroke:none;stroke-width:2;marker:none;visibility:visible;display:inline;overflow:visible;enable-background:accumulate"/><rect id="rect6592" width="32" height="32" x="303" y="126" style="fill:#eeeeec;fill-opacity:1;fill-rule:nonzero;stroke:none;stroke-width:2;marker:none;visibility:visible;display:inline;overflow:visible;enable-background:accumulate"/><rect id="rect6749" width="22" height="22" x="303" y="177" style="fill:#eeeeec;fill-opacity:1;fill-rule:nonzero;stroke:none;stroke-width:2;marker:none;visibility:visible;display:inline;overflow:visible;enable-background:accumulate"/><rect id="rect6833" width="16" height="16" x="303" y="219" style="fill:#eeeeec;fill-opacity:1;fill-rule:nonzero;stroke:none;stroke-width:2;marker:none;visibility:visible;display:inline;overflow:visible;enable-background:accumulate"/><text id="context" x="20.971" y="21.514" xml:space="preserve" style="font-size:18.30070686px;font-style:normal;font-weight:400;fill:#000;fill-opacity:1;stroke:none;display:inline;enable-background:new;font-family:Bitstream Vera Sans"><tspan id="tspan2716" x="20.971" y="21.514">status</tspan></text><text id="icon-name" x="191.971" y="21.514" xml:space="preserve" style="font-size:18.30070686px;font-style:normal;font-variant:normal;font-weight:700;font-stretch:normal;text-align:start;line-height:125%;writing-mode:lr-tb;text-anchor:start;fill:#000;fill-opacity:1;stroke:none;display:inline;enable-background:new;font-family:Droid Sans;-inkscape-font-specification:Droid Sans Bold"><tspan id="tspan3023" x="191.971" y="21.514">mail-attachment</tspan></text></g><g id="layer2" style="display:inline"><g id="g48" transform="translate(296,50) scale(1.000000,1.000000)" style="display:inline;enable-background:new"><path id="path6955" d="M 13.197708 18.211184 A 6.3620529 2.936332 0 1 1 0.47360182,18.211184 A 6.3620529 2.936332 0 1 1 13.197708 18.211184 z" transform="matrix(2.2791386,0,0,0.8514024,9.9205951,28.994954)" style="opacity:.19565217;fill:url(#radialGradient6963);fill-opacity:1;stroke:none;stroke-width:1;stroke-linecap:round;stroke-linejoin:miter;stroke-miterlimit:4;stroke-dasharray:none;stroke-dashoffset:0;stroke-opacity:1"/><path id="path4915" d="M 14.551581,30.640241 L 14.551581,13.012035 C 14.551581,13.012035 13.979438,5.5000004 24.45582,5.5000004 C 34.932199,5.5000004 34.511309,13.012035 34.511309,13.012035 L 34.511309,35.920972 C 34.511309,35.920972 29.546585,44.277726 26.048595,44.277726 C 22.649562,44.277726 18.568893,35.982838 18.568893,35.982838 L 18.568893,20.174173 C 18.568893,20.174173 18.355296,15.553627 23.742664,15.553627 C 29.031083,15.553627 28.490056,19.01178 28.490056,19.01178 L 28.490056,28.623612" style="fill:none;fill-rule:evenodd;stroke:url(#linearGradient6874);stroke-width:3.00000048;stroke-linecap:round;stroke-linejoin:miter;stroke-miterlimit:4;stroke-dasharray:none;stroke-opacity:1"/><path id="path5904" d="M 14.546033,30.674974 L 14.546033,13.334498 C 14.546033,13.334498 14.134289,5.2825298 24.559302,5.5351175 C 34.921169,5.7877052 34.513635,13.334498 34.513635,13.334498 L 34.513635,35.964284 C 34.513635,35.964284 29.997778,44.286498 26.361181,44.286498 C 22.823602,44.286498 18.583114,36.029753 18.583114,36.029753 L 18.583114,20.413723 C 18.583114,20.413723 18.919779,15.498036 23.828033,15.561548 C 28.799972,15.625058 28.506662,19.315871 28.506662,19.315871 L 28.506662,28.45909" style="fill:none;fill-rule:evenodd;stroke:url(#linearGradient7003);stroke-width:.99999988;stroke-linecap:round;stroke-linejoin:miter;stroke-miterlimit:4;stroke-dasharray:none;stroke-opacity:1"/><path id="path5909" d="M 34.475963,14.117229 L 34.475963,28.680905" style="opacity:.58695649;fill:none;fill-rule:evenodd;stroke:#fff;stroke-width:.99999982px;stroke-linecap:round;stroke-linejoin:miter;stroke-opacity:1"/><path id="path5911" d="M 18.499999,24.352423 L 18.499999,35.096121" style="opacity:.58695649;fill:none;fill-rule:evenodd;stroke:#fff;stroke-width:1px;stroke-linecap:round;stroke-linejoin:miter;stroke-opacity:1"/><path id="path5913" d="M 18.485771 14.989696 A 1.7190874 1.4288518 0 1 1 15.047596,14.989696 A 1.7190874 1.4288518 0 1 1 18.485771 14.989696 z" transform="matrix(0.2908521,0,0,0.3499312,29.623374,20.254638)" style="opacity:.58695649;fill:#fff;fill-opacity:1;stroke:none;stroke-width:1;stroke-linecap:round;stroke-linejoin:miter;stroke-miterlimit:4;stroke-dasharray:none;stroke-dashoffset:0;stroke-opacity:1"/><path id="path5915" d="M 18.485771 14.989696 A 1.7190874 1.4288518 0 1 1 15.047596,14.989696 A 1.7190874 1.4288518 0 1 1 18.485771 14.989696 z" transform="matrix(0.290852,0,0,0.3499314,13.623376,22.254635)" style="opacity:.58695649;fill:#fff;fill-opacity:1;stroke:none;stroke-width:1;stroke-linecap:round;stroke-linejoin:miter;stroke-miterlimit:4;stroke-dasharray:none;stroke-dashoffset:0;stroke-opacity:1"/></g><g id="g32" transform="translate(303,126) scale(1.000000,1.000000)" style="display:inline;enable-background:new"><path id="path43" d="M 13.197708 18.211184 A 6.3620529 2.936332 0 1 1 0.47360182,18.211184 A 6.3620529 2.936332 0 1 1 13.197708 18.211184 z" transform="matrix(2.0433656,0,0,1.0216828,2.0322584,10.393947)" style="opacity:.17391304;fill:url(#radialGradient6963);fill-opacity:1;stroke:none;stroke-width:1;stroke-linecap:round;stroke-linejoin:miter;stroke-miterlimit:4;stroke-dasharray:none;stroke-dashoffset:0;stroke-opacity:1"/><path id="path45" d="M 8.5038897,20.020753 L 8.5038897,7.7352921 C 8.5038897,7.7352921 8.1027388,2.5000001 15.448105,2.5000001 C 22.793469,2.5000001 22.498368,7.7352921 22.498368,7.7352921 L 22.498368,23.701003 C 22.498368,23.701003 19.838333,29.524997 17.385767,29.524997 C 15.002583,29.524997 12.571167,23.744119 12.571167,23.744119 L 12.571167,12.726734 C 12.571167,12.726734 11.739132,9.5065802 15.516408,9.5065802 C 19.224308,9.5065802 18.5423,11.916638 18.5423,11.916638 L 18.5423,18.615322" style="fill:none;fill-rule:evenodd;stroke:url(#linearGradient6874);stroke-width:3.00000048;stroke-linecap:round;stroke-linejoin:miter;stroke-miterlimit:4;stroke-dasharray:none;stroke-opacity:1"/><path id="path47" d="M 8.4999992,19.961625 L 8.4999992,7.7704566 C 8.4999992,7.7704566 8.671217,2.5534982 15.52066,2.5534982 C 22.431539,2.5534982 22.499999,7.7704566 22.499999,7.7704566 L 22.499999,23.680258 C 22.499999,23.680258 20.028386,29.531165 17.478638,29.531165 C 14.998315,29.531165 12.480246,23.726286 12.480246,23.726286 L 12.480246,12.747484 C 12.480246,12.747484 12.109509,9.513502 15.550861,9.5581536 C 19.036865,9.6028052 18.465394,11.975643 18.465394,11.975643 L 18.465394,18.403755" style="fill:none;fill-rule:evenodd;stroke:url(#linearGradient7003);stroke-width:.99999994;stroke-linecap:round;stroke-linejoin:miter;stroke-miterlimit:4;stroke-dasharray:none;stroke-opacity:1"/><path id="path49" d="M 22.473586,8.3207534 L 22.473586,18.559701" style="opacity:.58695649;fill:none;fill-rule:evenodd;stroke:#fff;stroke-width:.99999982px;stroke-linecap:round;stroke-linejoin:miter;stroke-opacity:1"/><path id="path51" d="M 12.5,15.516575 L 12.5,23.069899" style="opacity:.58695649;fill:none;fill-rule:evenodd;stroke:#fff;stroke-width:1px;stroke-linecap:round;stroke-linejoin:miter;stroke-opacity:1"/><path id="path53" d="M 18.485771 14.989696 A 1.7190874 1.4288518 0 1 1 15.047596,14.989696 A 1.7190874 1.4288518 0 1 1 18.485771 14.989696 z" transform="matrix(0.2908522,0,0,0.3499315,17.623372,11.254633)" style="opacity:.58695649;fill:#fff;fill-opacity:1;stroke:none;stroke-width:1;stroke-linecap:round;stroke-linejoin:miter;stroke-miterlimit:4;stroke-dasharray:none;stroke-dashoffset:0;stroke-opacity:1"/><path id="path55" d="M 18.485771 14.989696 A 1.7190874 1.4288518 0 1 1 15.047596,14.989696 A 1.7190874 1.4288518 0 1 1 18.485771 14.989696 z" transform="matrix(0.290852,0,0,0.3499313,7.6233766,12.254636)" style="opacity:.58695649;fill:#fff;fill-opacity:1;stroke:none;stroke-width:1;stroke-linecap:round;stroke-linejoin:miter;stroke-miterlimit:4;stroke-dasharray:none;stroke-dashoffset:0;stroke-opacity:1"/><path id="path5903" d="M 10.5,12.5 L 10.5,22.012759" style="fill:none;fill-rule:evenodd;stroke:#fff;stroke-width:1px;stroke-linecap:round;stroke-linejoin:miter;stroke-opacity:1;opacity:.27717391"/></g><g id="g22" transform="translate(303,177) scale(1.000000,1.000000)" style="display:inline;enable-background:new"><path id="path59" d="M 13.197708 18.211184 A 6.3620529 2.936332 0 1 1 0.47360182,18.211184 A 6.3620529 2.936332 0 1 1 13.197708 18.211184 z" transform="matrix(1.3360467,0,0,0.6811219,2.3672462,7.5959643)" style="opacity:.35326089;fill:url(#radialGradient6963);fill-opacity:1;stroke:none;stroke-width:1;stroke-linecap:round;stroke-linejoin:miter;stroke-miterlimit:4;stroke-dasharray:none;stroke-dashoffset:0;stroke-opacity:1"/><path id="path61" d="M 6.505765,13.518698 L 6.505765,5.0912494 C 6.505765,5.0912494 6.2476491,1.5 10.97394,1.5 C 15.700231,1.5 15.510351,5.0912494 15.510351,5.0912494 L 15.510351,16.043237 C 15.510351,16.043237 13.012002,19.517613 11.433926,19.517613 C 9.9004939,19.517613 8.5182695,16.011553 8.5182695,16.011553 L 8.5182695,8.4539661 C 8.5182695,8.4539661 8.221765,6.4594468 10.652209,6.4594468 C 13.038015,6.4594468 12.505176,7.9595245 12.505176,7.9595245 L 12.505176,12.554616" style="fill:none;fill-rule:evenodd;stroke:url(#linearGradient6874);stroke-width:3;stroke-linecap:round;stroke-linejoin:miter;stroke-miterlimit:4;stroke-dasharray:none;stroke-opacity:1"/><path id="path63" d="M 6.5269874,13.478138 L 6.5269874,5.1153712 C 6.5269874,5.1153712 6.6367259,1.536698 11.026735,1.536698 C 15.456121,1.536698 15.499999,5.1153712 15.499999,5.1153712 L 15.499999,16.029006 C 15.499999,16.029006 13.127248,19.491215 11.493039,19.491215 C 9.9033268,19.491215 8.5114267,16.06058 8.5114267,16.06058 L 8.5114267,8.5294591 C 8.5114267,8.5294591 8.6074125,6.4948246 10.584128,6.4948246 C 12.56222,6.4948246 12.513442,8 12.513442,8 L 12.513442,12.409487" style="fill:none;fill-rule:evenodd;stroke:url(#linearGradient7003);stroke-width:1;stroke-linecap:round;stroke-linejoin:miter;stroke-miterlimit:4;stroke-dasharray:none;stroke-opacity:1"/><path id="path65" d="M 15.5,5.4928579 L 15.5,12.516461" style="opacity:.58695649;fill:none;fill-rule:evenodd;stroke:#fff;stroke-width:.99999994px;stroke-linecap:round;stroke-linejoin:miter;stroke-opacity:1"/><path id="path67" d="M 8.5000003,10.42897 L 8.5000003,15.610318" style="opacity:.58695649;fill:none;fill-rule:evenodd;stroke:#fff;stroke-width:1px;stroke-linecap:round;stroke-linejoin:miter;stroke-opacity:1"/><path id="path69" d="M 18.485771 14.989696 A 1.7190874 1.4288518 0 1 1 15.047596,14.989696 A 1.7190874 1.4288518 0 1 1 18.485771 14.989696 z" transform="matrix(0.2770085,0,0,0.3499316,10.879284,6.2546323)" style="opacity:.58695649;fill:#fff;fill-opacity:1;stroke:none;stroke-width:1;stroke-linecap:round;stroke-linejoin:miter;stroke-miterlimit:4;stroke-dasharray:none;stroke-dashoffset:0;stroke-opacity:1"/><path id="path71" d="M 18.485771 14.989696 A 1.7190874 1.4288518 0 1 1 15.047596,14.989696 A 1.7190874 1.4288518 0 1 1 18.485771 14.989696 z" transform="matrix(0.2770085,0,0,0.3499316,3.8792843,6.2546323)" style="opacity:.58695649;fill:#fff;fill-opacity:1;stroke:none;stroke-width:1;stroke-linecap:round;stroke-linejoin:miter;stroke-miterlimit:4;stroke-dasharray:none;stroke-dashoffset:0;stroke-opacity:1"/></g><g id="g16" transform="translate(303,219) scale(1.000000,1.000000)" style="display:inline;enable-background:new"><path id="path74" d="M 4.5019449,10.171685 L 4.5019449,4.0911444 C 4.5019449,4.0911444 4.3013696,1.5 7.974052,1.5 C 11.646736,1.5 11.499185,4.0911444 11.499185,4.0911444 L 11.499185,11.99318 L 8.8226635,14.5 L 6.507073,11.97032 L 6.507073,6.9639151 C 6.507073,6.9639151 5.8354057,5.5248372 7.724043,5.5248372 C 9.5779932,5.5248372 9.1639372,6.6071675 9.1639372,6.6071675 L 9.1639372,9.4760842" style="fill:none;fill-rule:evenodd;stroke:url(#linearGradient12728);stroke-width:3;stroke-linecap:round;stroke-linejoin:miter;stroke-miterlimit:4;stroke-dasharray:none;stroke-opacity:1"/><path id="path76" d="M 4.5,10.146221 L 4.5,4.0911447 C 4.5,4.0911447 4.5856088,1.5000001 8.0103301,1.5000001 C 11.465769,1.5000001 11.500001,4.0911447 11.500001,4.0911447 L 11.500001,11.993181 L 8.954573,14.5 L 6.4946113,12.016042 L 6.4946113,6.5631209 C 6.4946113,6.5631209 6.4355365,5.4918049 7.9776062,5.4918049 C 9.5207497,5.4918049 9.4826971,6.1797652 9.4826971,6.1797652 L 9.4826971,9.3724619" style="fill:none;fill-rule:evenodd;stroke:url(#linearGradient7003);stroke-width:.99999994;stroke-linecap:round;stroke-linejoin:miter;stroke-miterlimit:4;stroke-dasharray:none;stroke-opacity:1"/><path id="path78" d="M 11.5,4.4819817 L 11.5,9.5180187" style="opacity:.58695649;fill:none;fill-rule:evenodd;stroke:#fff;stroke-width:1px;stroke-linecap:round;stroke-linejoin:miter;stroke-opacity:1"/><path id="path80" d="M 18.485771 14.989696 A 1.7190874 1.4288518 0 1 1 15.047596,14.989696 A 1.7190874 1.4288518 0 1 1 18.485771 14.989696 z" transform="matrix(0.2908521,0,0,0.3499312,6.623374,3.2546377)" style="opacity:.58695649;fill:#fff;fill-opacity:1;stroke:none;stroke-width:1;stroke-linecap:round;stroke-linejoin:miter;stroke-miterlimit:4;stroke-dasharray:none;stroke-dashoffset:0;stroke-opacity:1"/><path id="path8836" d="M 6.5041334,12 L 9,14.516047 L 11.524314,12" style="fill:none;fill-rule:evenodd;stroke:#fff;stroke-width:1px;stroke-linecap:butt;stroke-linejoin:miter;stroke-opacity:1;opacity:.60326087"/></g></g></svg>