<svg xmlns="http://www.w3.org/2000/svg" xmlns:svg="http://www.w3.org/2000/svg" xmlns:xlink="http://www.w3.org/1999/xlink" id="svg11300" width="400" height="300" version="1.0" style="display:inline;enable-background:new"><title id="title8480">Mark Location</title><metadata id="metadata154"/><defs id="defs3"><linearGradient id="linearGradient8351"><stop style="stop-color:#ed1414;stop-opacity:1" id="stop8353" offset="0"/><stop style="stop-color:#ed1414;stop-opacity:0" id="stop8355" offset="1"/></linearGradient><linearGradient id="linearGradient2870"><stop id="stop2872" offset="0" style="stop-color:#3465a4;stop-opacity:1"/><stop id="stop2874" offset="1" style="stop-color:#204a87;stop-opacity:1"/></linearGradient><linearGradient id="linearGradient1970"><stop id="stop1972" offset="0" style="stop-color:#204a87;stop-opacity:1"/><stop id="stop1974" offset="1" style="stop-color:#204a87;stop-opacity:0"/></linearGradient><linearGradient id="linearGradient2975"><stop id="stop2977" offset="0" style="stop-color:#d3d7cf;stop-opacity:1"/><stop id="stop2979" offset="1" style="stop-color:white;stop-opacity:1"/></linearGradient><linearGradient id="linearGradient2966"><stop id="stop2968" offset="0" style="stop-color:black;stop-opacity:1"/><stop id="stop2970" offset="1" style="stop-color:black;stop-opacity:0"/></linearGradient><linearGradient id="linearGradient2949"><stop id="stop2951" offset="0" style="stop-color:#babdb6;stop-opacity:1"/><stop id="stop2954" offset="1" style="stop-color:#555753;stop-opacity:1"/></linearGradient><linearGradient id="linearGradient2885"><stop id="stop2887" offset="0" style="stop-color:black;stop-opacity:0"/><stop id="stop2893" offset=".5" style="stop-color:black;stop-opacity:1"/><stop id="stop2889" offset="1" style="stop-color:black;stop-opacity:0"/></linearGradient><linearGradient id="linearGradient2871"><stop id="stop2873" offset="0" style="stop-color:black;stop-opacity:1"/><stop id="stop2875" offset="1" style="stop-color:black;stop-opacity:0"/></linearGradient><linearGradient id="linearGradient2851"><stop id="stop2853" offset="0" style="stop-color:#204a87;stop-opacity:1"/><stop id="stop2855" offset="1" style="stop-color:#204a87;stop-opacity:0"/></linearGradient><linearGradient id="linearGradient2843"><stop id="stop2845" offset="0" style="stop-color:white;stop-opacity:1"/><stop id="stop2847" offset="1" style="stop-color:white;stop-opacity:0"/></linearGradient><linearGradient id="linearGradient3061"><stop id="stop3063" offset="0" style="stop-color:black;stop-opacity:1"/><stop id="stop3069" offset=".5" style="stop-color:#474946;stop-opacity:1"/><stop id="stop3065" offset="1" style="stop-color:black;stop-opacity:1"/></linearGradient><linearGradient id="linearGradient3053"><stop id="stop3055" offset="0" style="stop-color:white;stop-opacity:1"/><stop id="stop3057" offset="1" style="stop-color:white;stop-opacity:0"/></linearGradient><linearGradient id="linearGradient3009"><stop id="stop3011" offset="0" style="stop-color:#3465a4;stop-opacity:1"/><stop id="stop3013" offset="1" style="stop-color:#888a85;stop-opacity:1"/></linearGradient><linearGradient id="linearGradient2972"><stop id="stop2974" offset="0" style="stop-color:#3465a4;stop-opacity:1"/><stop id="stop2976" offset="1" style="stop-color:#888a85;stop-opacity:1"/></linearGradient><linearGradient id="linearGradient2951"><stop id="stop2953" offset="0" style="stop-color:white;stop-opacity:0"/><stop id="stop1976" offset=".2" style="stop-color:white;stop-opacity:1"/><stop id="stop1978" offset=".557" style="stop-color:white;stop-opacity:1"/><stop id="stop2955" offset="1" style="stop-color:white;stop-opacity:0"/></linearGradient><linearGradient id="linearGradient2941"><stop id="stop2943" offset="0" style="stop-color:#2e3436;stop-opacity:1"/><stop id="stop2945" offset="1" style="stop-color:#eeeeec;stop-opacity:1"/></linearGradient><linearGradient id="linearGradient2931"><stop id="stop2933" offset="0" style="stop-color:white;stop-opacity:1"/><stop id="stop2935" offset="1" style="stop-color:white;stop-opacity:0"/></linearGradient><linearGradient id="linearGradient2907"><stop id="stop2909" offset="0" style="stop-color:#555753;stop-opacity:1"/><stop id="stop2911" offset="1" style="stop-color:#2e3436;stop-opacity:1"/></linearGradient><linearGradient id="linearGradient2899"><stop id="stop2901" offset="0" style="stop-color:#1a1a1a;stop-opacity:1"/><stop id="stop2903" offset="1" style="stop-color:#555753;stop-opacity:1"/></linearGradient><linearGradient id="linearGradient2905" x1="90.598" x2="65.869" y1="12.114" y2="10.435" gradientTransform="matrix(0.9984,0,0,1,-49.9128,0)" gradientUnits="userSpaceOnUse" xlink:href="#linearGradient2899"/><radialGradient id="radialGradient2913" cx="65.359" cy="7.608" r="19.033" fx="65.359" fy="7.608" gradientTransform="matrix(1.978344,0,0,0.173638,-107.4175,7.676856)" gradientUnits="userSpaceOnUse" xlink:href="#linearGradient2907"/><linearGradient id="linearGradient2937" x1="66.75" x2="52.625" y1="55.5" y2="-4.875" gradientUnits="userSpaceOnUse" xlink:href="#linearGradient2931"/><linearGradient id="linearGradient2947" x1="87.188" x2="87.188" y1="24.746" y2="29.583" gradientTransform="translate(-50,0)" gradientUnits="userSpaceOnUse" xlink:href="#linearGradient2941"/><linearGradient id="linearGradient2957" x1="79.313" x2="80.688" y1="20.309" y2="22.875" gradientTransform="translate(-50,0)" gradientUnits="userSpaceOnUse" xlink:href="#linearGradient1970"/><linearGradient id="linearGradient2985" x1="70.217" x2="75.292" y1="8.899" y2="42.916" gradientTransform="translate(-50,0)" gradientUnits="userSpaceOnUse" xlink:href="#linearGradient2972"/><linearGradient id="linearGradient2988" x1="70.217" x2="75.292" y1="8.899" y2="42.916" gradientTransform="translate(-50,0)" gradientUnits="userSpaceOnUse" xlink:href="#linearGradient3009"/><linearGradient id="linearGradient3059" x1="26.125" x2="26.125" y1="25.907" y2="21.724" gradientUnits="userSpaceOnUse" xlink:href="#linearGradient3053"/><linearGradient id="linearGradient3067" x1="15.905" x2="16.908" y1="28.59" y2="24.847" gradientUnits="userSpaceOnUse" xlink:href="#linearGradient3061"/><linearGradient id="linearGradient2849" x1="23.07" x2="6.981" y1="30.632" y2="30.632" gradientUnits="userSpaceOnUse" xlink:href="#linearGradient2843"/><linearGradient id="linearGradient2857" x1="23" x2="46.88" y1="23.5" y2="23.5" gradientUnits="userSpaceOnUse" xlink:href="#linearGradient2851"/><radialGradient id="radialGradient2900" cx="2" cy="36" r="2" fx="2" fy="36" gradientTransform="matrix(2,0,0,2,-10,-108)" gradientUnits="userSpaceOnUse" xlink:href="#linearGradient2871"/><radialGradient id="radialGradient2902" cx="2" cy="36" r="2" fx="2" fy="36" gradientTransform="matrix(2,0,0,2,38,-36)" gradientUnits="userSpaceOnUse" xlink:href="#linearGradient2871"/><linearGradient id="linearGradient2904" x1="14.063" x2="14.063" y1="32" y2="40.001" gradientUnits="userSpaceOnUse" xlink:href="#linearGradient2885"/><linearGradient id="linearGradient2956" x1="16.438" x2="16.438" y1="28.704" y2="25.648" gradientUnits="userSpaceOnUse" xlink:href="#linearGradient2949"/><linearGradient id="linearGradient2973" x1="17.938" x2="17.438" y1="29.125" y2="25.25" gradientUnits="userSpaceOnUse" xlink:href="#linearGradient2966"/><linearGradient id="linearGradient2981" x1="17.063" x2="17.063" y1="25.374" y2="28.594" gradientUnits="userSpaceOnUse" xlink:href="#linearGradient2975"/><linearGradient id="linearGradient1968" x1="83.813" x2="86.313" y1="19.497" y2="36" gradientTransform="translate(-50,0)" gradientUnits="userSpaceOnUse" xlink:href="#linearGradient2951"/><linearGradient id="linearGradient2876" x1="35.188" x2="32.813" y1="42.312" y2="22.158" gradientUnits="userSpaceOnUse" xlink:href="#linearGradient2870"/><linearGradient id="linearGradient4402" x1="17.938" x2="17.438" y1="29.125" y2="25.25" gradientUnits="userSpaceOnUse" xlink:href="#linearGradient2966"/><linearGradient id="linearGradient4404" x1="17.938" x2="17.438" y1="29.125" y2="25.25" gradientUnits="userSpaceOnUse" xlink:href="#linearGradient2966"/><radialGradient id="radialGradient60485" cx="125.573" cy="122.207" r="31.25" fx="125.573" fy="122.207" gradientTransform="matrix(0.27199999,0,0,0.43302553,319.1045,93.100108)" gradientUnits="userSpaceOnUse" xlink:href="#linearGradient14670-0"/><linearGradient id="linearGradient14670-0"><stop style="stop-color:#f57676;stop-opacity:1" id="stop14672-2" offset="0"/><stop style="stop-color:#ed1212;stop-opacity:1" id="stop14674-7" offset="1"/></linearGradient><linearGradient id="linearGradient60495" x1="322" x2="322" y1="60" y2="62" gradientTransform="matrix(1,0,0,1.0322581,32.260499,74.882326)" gradientUnits="userSpaceOnUse" xlink:href="#linearGradient59587"/><linearGradient id="linearGradient59587"><stop style="stop-color:#fff;stop-opacity:1" id="stop59589" offset="0"/><stop style="stop-color:#d3d3d3;stop-opacity:1" id="stop59591" offset="1"/></linearGradient><radialGradient id="radialGradient60491" cx="149.49" cy="49.24" r="34.5" fx="149.49" fy="49.24" gradientTransform="matrix(1.0999298,0,0,0.4738253,-14.938489,37.028868)" gradientUnits="userSpaceOnUse" xlink:href="#linearGradient14683-3"/><linearGradient id="linearGradient14683-3"><stop style="stop-color:#fff;stop-opacity:1" id="stop14685-5" offset="0"/><stop style="stop-color:#fff;stop-opacity:0" id="stop14687-3" offset="1"/></linearGradient><radialGradient id="radialGradient60489" cx="127.891" cy="115.998" r="31.25" fx="127.891" fy="115.998" gradientTransform="matrix(1.7826226,0,0,1.7826226,-100.09062,-90.782804)" gradientUnits="userSpaceOnUse" xlink:href="#linearGradient14745-0"/><linearGradient id="linearGradient14745-0"><stop style="stop-color:#ff4141;stop-opacity:1" id="stop14747-5" offset="0"/><stop style="stop-color:#c00;stop-opacity:1" id="stop14749-3" offset="1"/></linearGradient><radialGradient id="radialGradient60487" cx="129.25" cy="129.84" r="34.937" fx="129.25" fy="129.84" gradientUnits="userSpaceOnUse" xlink:href="#linearGradient14971-4"/><linearGradient id="linearGradient14971-4"><stop style="stop-color:#fabebe;stop-opacity:1" id="stop14973-7" offset="0"/><stop style="stop-color:#fabebe;stop-opacity:0" id="stop14975-2" offset="1"/></linearGradient><radialGradient id="radialGradient60483" cx="149.375" cy="194.625" r="13.625" fx="149.375" fy="194.625" gradientTransform="matrix(1,0,0,0.57798165,0,82.135321)" gradientUnits="userSpaceOnUse" xlink:href="#linearGradient14755-8"/><linearGradient id="linearGradient14755-8"><stop style="stop-color:#000;stop-opacity:1" id="stop14757-1" offset="0"/><stop style="stop-color:#000;stop-opacity:0" id="stop14759-3" offset="1"/></linearGradient><radialGradient id="radialGradient9249" cx="149.375" cy="194.625" r="13.625" fx="149.375" fy="194.625" gradientTransform="matrix(1,0,0,0.57798165,0,82.135321)" gradientUnits="userSpaceOnUse" xlink:href="#linearGradient14755-8"/><radialGradient id="radialGradient9249-8" cx="149.375" cy="194.625" r="13.625" fx="149.375" fy="194.625" gradientTransform="matrix(1,0,0,0.57798165,0,82.135321)" gradientUnits="userSpaceOnUse" xlink:href="#linearGradient14755-8-6"/><linearGradient id="linearGradient14755-8-6"><stop style="stop-color:#000;stop-opacity:1" id="stop14757-1-6" offset="0"/><stop style="stop-color:#000;stop-opacity:0" id="stop14759-3-7" offset="1"/></linearGradient><radialGradient id="radialGradient60485-5" cx="124.923" cy="103.02" r="31.25" fx="124.923" fy="103.02" gradientTransform="matrix(0.54930237,0,0,0.8744925,249.20243,46.237397)" gradientUnits="userSpaceOnUse" xlink:href="#linearGradient14670-0-8"/><linearGradient id="linearGradient14670-0-8"><stop style="stop-color:#f57676;stop-opacity:1" id="stop14672-2-3" offset="0"/><stop style="stop-color:#ed1212;stop-opacity:1" id="stop14674-7-2" offset="1"/></linearGradient><radialGradient id="radialGradient60491-5" cx="149.49" cy="49.24" r="34.5" fx="149.49" fy="49.24" gradientTransform="matrix(1.0999298,0,0,0.4738253,-14.938489,37.028868)" gradientUnits="userSpaceOnUse" xlink:href="#linearGradient14683-3-6"/><linearGradient id="linearGradient14683-3-6"><stop style="stop-color:#fff;stop-opacity:1" id="stop14685-5-5" offset="0"/><stop style="stop-color:#fff;stop-opacity:0" id="stop14687-3-9" offset="1"/></linearGradient><filter id="filter14695-8-6" width="1.125" height="1.29" x="-.063" y="-.145" color-interpolation-filters="sRGB"><feGaussianBlur id="feGaussianBlur14697-2-8" stdDeviation="1.67"/></filter><linearGradient id="linearGradient60495-2" x1="322" x2="322" y1="60" y2="62" gradientTransform="matrix(1,0,0,1.0322581,-3.999995,73.499574)" gradientUnits="userSpaceOnUse" xlink:href="#linearGradient59587-5"/><linearGradient id="linearGradient59587-5"><stop style="stop-color:#fff;stop-opacity:1" id="stop59589-9" offset="0"/><stop style="stop-color:#d3d3d3;stop-opacity:1" id="stop59591-4" offset="1"/></linearGradient><radialGradient id="radialGradient9364" cx="149.375" cy="194.625" r="13.625" fx="149.375" fy="194.625" gradientTransform="matrix(1,0,0,0.57798165,0,82.135321)" gradientUnits="userSpaceOnUse" xlink:href="#linearGradient14755-8-6"/><linearGradient id="linearGradient60635" x1="322" x2="322" y1="60" y2="62" gradientTransform="matrix(1.0157564,0,0,0.81407729,-13.755753,134.63306)" gradientUnits="userSpaceOnUse" xlink:href="#linearGradient59587-9"/><linearGradient id="linearGradient59587-9"><stop style="stop-color:#fff;stop-opacity:1" id="stop59589-0" offset="0"/><stop style="stop-color:#d3d3d3;stop-opacity:1" id="stop59591-0" offset="1"/></linearGradient><radialGradient id="radialGradient60631" cx="149.49" cy="49.24" r="34.5" fx="149.49" fy="49.24" gradientTransform="matrix(1.0999298,0,0,0.4738253,-14.938489,37.028868)" gradientUnits="userSpaceOnUse" xlink:href="#linearGradient14683-3-5"/><linearGradient id="linearGradient14683-3-5"><stop style="stop-color:#fff;stop-opacity:1" id="stop14685-5-0" offset="0"/><stop style="stop-color:#fff;stop-opacity:0" id="stop14687-3-8" offset="1"/></linearGradient><filter id="filter14695-8-2" width="1.125" height="1.29" x="-.063" y="-.145" color-interpolation-filters="sRGB"><feGaussianBlur id="feGaussianBlur14697-2-7" stdDeviation="1.67"/></filter><radialGradient id="radialGradient60625" cx="128.269" cy="106.704" r="31.25" fx="128.269" fy="106.704" gradientTransform="matrix(0.26461238,0,0,0.41411465,279.5006,141.36743)" gradientUnits="userSpaceOnUse" xlink:href="#linearGradient14670-0-1"/><linearGradient id="linearGradient14670-0-1"><stop style="stop-color:#f57676;stop-opacity:1" id="stop14672-2-9" offset="0"/><stop style="stop-color:#ed1212;stop-opacity:1" id="stop14674-7-29" offset="1"/></linearGradient><radialGradient id="radialGradient60623" cx="149.375" cy="194.625" r="13.625" fx="149.375" fy="194.625" gradientTransform="matrix(1,0,0,0.57798165,0,82.135321)" gradientUnits="userSpaceOnUse" xlink:href="#linearGradient14755-8-3"/><linearGradient id="linearGradient14755-8-3"><stop style="stop-color:#000;stop-opacity:1" id="stop14757-1-4" offset="0"/><stop style="stop-color:#000;stop-opacity:0" id="stop14759-3-6" offset="1"/></linearGradient><radialGradient id="radialGradient9479" cx="149.375" cy="194.625" r="13.625" fx="149.375" fy="194.625" gradientTransform="matrix(1,0,0,0.57798165,0,82.135321)" gradientUnits="userSpaceOnUse" xlink:href="#linearGradient14755-8-3"/><linearGradient id="linearGradient60781" x1="322" x2="322" y1="60" y2="62" gradientTransform="matrix(0.95524301,0,0,0.51861291,2.8924982,192.41851)" gradientUnits="userSpaceOnUse" xlink:href="#linearGradient59587-91"/><linearGradient id="linearGradient59587-91"><stop style="stop-color:#fff;stop-opacity:1" id="stop59589-7" offset="0"/><stop style="stop-color:#d3d3d3;stop-opacity:1" id="stop59591-7" offset="1"/></linearGradient><radialGradient id="radialGradient60777" cx="149.49" cy="49.24" r="34.5" fx="149.49" fy="49.24" gradientTransform="matrix(1.0999298,0,0,0.4738253,-14.938489,37.028868)" gradientUnits="userSpaceOnUse" xlink:href="#linearGradient14683-3-2"/><linearGradient id="linearGradient14683-3-2"><stop style="stop-color:#fff;stop-opacity:1" id="stop14685-5-9" offset="0"/><stop style="stop-color:#fff;stop-opacity:0" id="stop14687-3-4" offset="1"/></linearGradient><filter id="filter14695-8" width="1.125" height="1.29" x="-.063" y="-.145" color-interpolation-filters="sRGB"><feGaussianBlur id="feGaussianBlur14697-2" stdDeviation="1.67"/></filter><radialGradient id="radialGradient60771" cx="129.838" cy="103.91" r="31.25" fx="129.838" fy="103.91" gradientTransform="matrix(0.16000003,0,0,0.22704595,289.82,200.98873)" gradientUnits="userSpaceOnUse" xlink:href="#linearGradient14670-0-3"/><linearGradient id="linearGradient14670-0-3"><stop style="stop-color:#f57676;stop-opacity:1" id="stop14672-2-5" offset="0"/><stop style="stop-color:#ed1212;stop-opacity:1" id="stop14674-7-4" offset="1"/></linearGradient><radialGradient id="radialGradient60769" cx="149.375" cy="194.625" r="13.625" fx="149.375" fy="194.625" gradientTransform="matrix(1,0,0,0.57798165,0,82.135321)" gradientUnits="userSpaceOnUse" xlink:href="#linearGradient14755-8-30"/><linearGradient id="linearGradient14755-8-30"><stop style="stop-color:#000;stop-opacity:1" id="stop14757-1-7" offset="0"/><stop style="stop-color:#000;stop-opacity:0" id="stop14759-3-4" offset="1"/></linearGradient><radialGradient id="radialGradient9594" cx="149.375" cy="194.625" r="13.625" fx="149.375" fy="194.625" gradientTransform="matrix(1,0,0,0.57798165,0,82.135321)" gradientUnits="userSpaceOnUse" xlink:href="#linearGradient14755-8-30"/><linearGradient id="linearGradient60495-2-3" x1="322" x2="322" y1="60" y2="62" gradientTransform="matrix(1.250004,0,0,1.2903227,-82.829429,-11.580639)" gradientUnits="userSpaceOnUse" xlink:href="#linearGradient59587-5-0"/><linearGradient id="linearGradient59587-5-0"><stop style="stop-color:#fff;stop-opacity:1" id="stop59589-9-5" offset="0"/><stop style="stop-color:#d3d3d3;stop-opacity:1" id="stop59591-4-4" offset="1"/></linearGradient><radialGradient id="radialGradient60491-5-4" cx="149.49" cy="49.24" r="34.5" fx="149.49" fy="49.24" gradientTransform="matrix(1.0999298,0,0,0.4738253,-14.938489,37.028868)" gradientUnits="userSpaceOnUse" xlink:href="#linearGradient14683-3-6-6"/><linearGradient id="linearGradient14683-3-6-6"><stop style="stop-color:#fff;stop-opacity:1" id="stop14685-5-5-8" offset="0"/><stop style="stop-color:#fff;stop-opacity:0" id="stop14687-3-9-0" offset="1"/></linearGradient><filter id="filter14695-8-6-5" width="1.125" height="1.29" x="-.063" y="-.145" color-interpolation-filters="sRGB"><feGaussianBlur id="feGaussianBlur14697-2-8-9" stdDeviation="1.67"/></filter><radialGradient id="radialGradient60485-5-9" cx="122.642" cy="101.865" r="31.25" fx="122.642" fy="101.865" gradientTransform="matrix(0.54107507,0,0,0.84819328,253.42561,-19.581003)" gradientUnits="userSpaceOnUse" xlink:href="#linearGradient14670-0-8-4"/><linearGradient id="linearGradient14670-0-8-4"><stop style="stop-color:#f57676;stop-opacity:1" id="stop14672-2-3-9" offset="0"/><stop style="stop-color:#ed1212;stop-opacity:1" id="stop14674-7-2-1" offset="1"/></linearGradient><radialGradient id="radialGradient9364-0" cx="149.375" cy="194.625" r="13.625" fx="149.375" fy="194.625" gradientTransform="matrix(1,0,0,0.57798165,0,82.135321)" gradientUnits="userSpaceOnUse" xlink:href="#linearGradient14755-8-6-7"/><linearGradient id="linearGradient14755-8-6-7"><stop style="stop-color:#000;stop-opacity:1" id="stop14757-1-6-6" offset="0"/><stop style="stop-color:#000;stop-opacity:0" id="stop14759-3-7-5" offset="1"/></linearGradient><radialGradient id="radialGradient9709" cx="149.375" cy="194.625" r="13.625" fx="149.375" fy="194.625" gradientTransform="matrix(1,0,0,0.57798165,0,82.135321)" gradientUnits="userSpaceOnUse" xlink:href="#linearGradient14755-8-6-7"/><linearGradient id="linearGradient9782" x1="322" x2="322" y1="60" y2="62" gradientTransform="matrix(1,0,0,1.0322581,-3.0000018,73.499574)" gradientUnits="userSpaceOnUse" xlink:href="#linearGradient59587-5"/><linearGradient id="linearGradient8357" x1="333.688" x2="308.063" y1="72.797" y2="72.172" gradientUnits="userSpaceOnUse" xlink:href="#linearGradient8351"/><linearGradient id="linearGradient8357-1" x1="333.688" x2="308.063" y1="72.797" y2="72.172" gradientUnits="userSpaceOnUse" xlink:href="#linearGradient8351-6"/><linearGradient id="linearGradient8351-6"><stop style="stop-color:#ed1414;stop-opacity:1" id="stop8353-2" offset="0"/><stop style="stop-color:#ed1414;stop-opacity:0" id="stop8355-4" offset="1"/></linearGradient><linearGradient id="linearGradient8374" x1="333.688" x2="308.063" y1="72.797" y2="72.172" gradientUnits="userSpaceOnUse" xlink:href="#linearGradient8351-6"/><linearGradient id="linearGradient8374-2" x1="333.688" x2="308.063" y1="72.797" y2="72.172" gradientUnits="userSpaceOnUse" xlink:href="#linearGradient8351-6-5"/><linearGradient id="linearGradient8351-6-5"><stop style="stop-color:#ed1414;stop-opacity:1" id="stop8353-2-4" offset="0"/><stop style="stop-color:#ed1414;stop-opacity:0" id="stop8355-4-8" offset="1"/></linearGradient><linearGradient id="linearGradient8408" x1="333.688" x2="308.063" y1="72.797" y2="72.172" gradientUnits="userSpaceOnUse" xlink:href="#linearGradient8351-6-5"/><linearGradient id="linearGradient8408-4" x1="333.688" x2="308.063" y1="72.797" y2="72.172" gradientUnits="userSpaceOnUse" xlink:href="#linearGradient8351-6-5-7"/><linearGradient id="linearGradient8351-6-5-7"><stop style="stop-color:#ed1414;stop-opacity:1" id="stop8353-2-4-8" offset="0"/><stop style="stop-color:#ed1414;stop-opacity:0" id="stop8355-4-8-9" offset="1"/></linearGradient><linearGradient id="linearGradient8442" x1="333.688" x2="308.063" y1="72.797" y2="72.172" gradientUnits="userSpaceOnUse" xlink:href="#linearGradient8351-6-5-7"/><clipPath id="clipPath14725-8-4-0-6" clipPathUnits="userSpaceOnUse"><path style="color:#000;display:inline;overflow:visible;visibility:visible;fill:none;stroke:#000;stroke-width:2;stroke-miterlimit:4;stroke-dasharray:none;stroke-opacity:1;marker:none;enable-background:accumulate" id="path14727-3-5-6-4" d="m 160.5,96.75 c 0,25.15725 -24.55857,68.33791 -31.25,67.8228 C 122.55857,164.05769 98,122.42236 98,96.75 98,79.491102 111.9911,65.5 129.25,65.5 c 17.2589,0 31.25,13.991102 31.25,31.25 z"/></clipPath><radialGradient id="radialGradient14765-2-6-4-7" cx="149.375" cy="194.625" r="13.625" fx="149.375" fy="194.625" gradientTransform="matrix(1,0,0,0.57798165,0,82.135321)" gradientUnits="userSpaceOnUse" xlink:href="#linearGradient2966"/><filter style="color-interpolation-filters:sRGB" id="filter14775-6-3-4-3" width="1.445" height="1.769" x="-.222" y="-.385"><feGaussianBlur id="feGaussianBlur14777-3-3-7-0" stdDeviation="2.524"/></filter><radialGradient id="radialGradient14761-8-0-0-9" cx="149.375" cy="194.625" r="13.625" fx="149.375" fy="194.625" gradientTransform="matrix(1,0,0,0.57798165,0,82.135321)" gradientUnits="userSpaceOnUse" xlink:href="#linearGradient2966"/><radialGradient id="radialGradient14676-2-6-4-1" cx="125.573" cy="122.207" r="31.25" fx="125.573" fy="122.207" gradientTransform="matrix(1.456,0,0,2.3081064,-38.688,-340.39319)" gradientUnits="userSpaceOnUse" xlink:href="#linearGradient14670-0"/><linearGradient id="linearGradient19676-8-7-7-1" x1="129.203" x2="125.533" y1="164.818" y2="37.82" gradientUnits="userSpaceOnUse" xlink:href="#linearGradient14737-7-8-6-6"/><linearGradient id="linearGradient14737-7-8-6-6"><stop style="stop-color:#000;stop-opacity:1" id="stop14739-2-6-1-7" offset="0"/><stop style="stop-color:#000;stop-opacity:.50877196" id="stop14741-6-8-1-8" offset="1"/></linearGradient><clipPath id="clipPath14725-8-4-0-6-2" clipPathUnits="userSpaceOnUse"><path style="color:#000;display:inline;overflow:visible;visibility:visible;fill:none;stroke:#000;stroke-width:2;stroke-miterlimit:4;stroke-dasharray:none;stroke-opacity:1;marker:none;enable-background:accumulate" id="path14727-3-5-6-4-5" d="m 160.5,96.75 c 0,25.15725 -24.55857,68.33791 -31.25,67.8228 C 122.55857,164.05769 98,122.42236 98,96.75 98,79.491102 111.9911,65.5 129.25,65.5 c 17.2589,0 31.25,13.991102 31.25,31.25 z"/></clipPath><filter style="color-interpolation-filters:sRGB" id="filter14733-2-7-8-1"><feGaussianBlur id="feGaussianBlur14735-1-2-0-9" stdDeviation=".818"/></filter><radialGradient id="radialGradient60491-5-4-4" cx="149.49" cy="49.24" r="34.5" fx="149.49" fy="49.24" gradientTransform="matrix(1.0999298,0,0,0.4738253,-14.938489,37.028868)" gradientUnits="userSpaceOnUse" xlink:href="#linearGradient2843"/><filter style="color-interpolation-filters:sRGB" id="filter14695-8-6-5-8" width="1.125" height="1.29" x="-.063" y="-.145"><feGaussianBlur id="feGaussianBlur14697-2-8-9-0" stdDeviation="1.67"/></filter><radialGradient id="radialGradient14987-9-4-1-4" cx="168" cy="160.25" r="16.75" fx="168" fy="160.25" gradientTransform="matrix(1.6268657,-0.08955224,0.10008127,1.8181431,-121.35146,-316.06265)" gradientUnits="userSpaceOnUse" xlink:href="#linearGradient14971-4"/><radialGradient id="radialGradient20198-5-6" cx="149.465" cy="199.946" r="9.634" fx="149.465" fy="199.946" gradientTransform="matrix(0.83468499,0.02061418,-0.01531857,0.889908,27.80084,-185.48966)" gradientUnits="userSpaceOnUse" xlink:href="#linearGradient19680-6-6-3-3-3"/><linearGradient id="linearGradient19680-6-6-3-3-3"><stop style="stop-color:#cccfca;stop-opacity:1" id="stop19682-9-7-5-9-1" offset="0"/><stop style="stop-color:#aeb5a8;stop-opacity:0" id="stop19684-8-1-0-5-8" offset="1"/></linearGradient><radialGradient id="radialGradient22699" cx="153.47" cy="-93.837" r="47.356" fx="153.47" fy="-93.837" gradientTransform="matrix(2.8373071,-1.6876603,0.70239301,1.1808684,-222.03087,265.86186)" gradientUnits="userSpaceOnUse" xlink:href="#linearGradient2843"/><filter id="filter22713"><feGaussianBlur id="feGaussianBlur22715" stdDeviation="1.109"/></filter><linearGradient id="linearGradient11405" x1="333.688" x2="308.063" y1="72.797" y2="72.172" gradientUnits="userSpaceOnUse" xlink:href="#linearGradient8351"/></defs><g id="layer6" style="display:none"><rect id="rect6284" width="48" height="48" x="296" y="50" style="display:inline;overflow:visible;visibility:visible;fill:#eeeeec;fill-opacity:1;fill-rule:nonzero;stroke:none;stroke-width:2;marker:none;enable-background:accumulate"/><rect id="rect6592" width="32" height="32" x="303" y="126" style="display:inline;overflow:visible;visibility:visible;fill:#eeeeec;fill-opacity:1;fill-rule:nonzero;stroke:none;stroke-width:2;marker:none;enable-background:accumulate"/><rect id="rect6749" width="22" height="22" x="303" y="177" style="display:inline;overflow:visible;visibility:visible;fill:#eeeeec;fill-opacity:1;fill-rule:nonzero;stroke:none;stroke-width:2;marker:none;enable-background:accumulate"/><rect id="rect6833" width="16" height="16" x="303" y="219" style="display:inline;overflow:visible;visibility:visible;fill:#eeeeec;fill-opacity:1;fill-rule:nonzero;stroke:none;stroke-width:2;marker:none;enable-background:accumulate"/><text id="context" x="20.971" y="21.514" xml:space="preserve" style="font-style:normal;font-weight:400;line-height:0%;font-family:'Bitstream Vera Sans';display:inline;fill:#000;fill-opacity:1;stroke:none;enable-background:new"><tspan id="tspan2716" x="20.971" y="21.514" style="font-size:18.30070686px;line-height:1.25">actions</tspan></text><text id="icon-name" x="191.971" y="21.514" xml:space="preserve" style="font-style:normal;font-variant:normal;font-weight:700;font-stretch:normal;line-height:0%;font-family:'Droid Sans';-inkscape-font-specification:'Droid Sans Bold';text-align:start;writing-mode:lr-tb;text-anchor:start;display:inline;fill:#000;fill-opacity:1;stroke:none;enable-background:new"><tspan id="tspan3023" x="191.971" y="21.514" style="font-size:18.30070686px;line-height:1.25">mark-location</tspan></text><rect style="display:inline;overflow:visible;visibility:visible;fill:#eeeeec;fill-opacity:1;fill-rule:nonzero;stroke:none;stroke-width:2;marker:none;enable-background:accumulate" id="rect13805" width="512" height="512" x="-239" y="48"/><path id="path13807" d="m -238.875,48 v 476 36 H 237 h 36 0.125 V 524 H 273 V 48 H 237 V 524 H -202.875 V 48 Z" style="display:inline;overflow:visible;visibility:visible;opacity:.29455285;fill:#729fcf;fill-opacity:1;fill-rule:nonzero;stroke:none;stroke-width:2;marker:none;enable-background:accumulate"/></g><g id="layer2" style="display:inline"><path id="path14753-3" d="m 163,194.625 a 13.625,7.875 0 1 1 -27.25,0 13.625,7.875 0 1 1 27.25,0 z" transform="matrix(0.22018338,0,0,0.18581336,286.1101,118.87279)" style="opacity:.34979428;color:#000;fill:url(#radialGradient9364);fill-opacity:1;fill-rule:nonzero;stroke:none;stroke-width:2;marker:none;visibility:visible;display:inline;overflow:visible;enable-background:accumulate"/><path id="path14659-9" d="m 327.49998,136.53629 c 0,6.87198 -6.67993,18.66726 -8.5,18.52656 -1.82007,-0.14071 -8.49999,-11.51387 -8.49999,-18.52656 0,-4.71447 3.80557,-8.53629 8.49999,-8.53629 4.69443,0 8.5,3.82182 8.5,8.53629 z" style="color:#000;fill:url(#radialGradient60485-5);fill-opacity:1;fill-rule:nonzero;stroke:#a40000;stroke-width:1;stroke-miterlimit:4;stroke-dasharray:none;marker:none;visibility:visible;display:inline;overflow:visible;enable-background:accumulate"/><path id="path14678-0" d="m 149.48978,55.151966 c -17.69399,0 -32.0378,11.056095 -32.0378,24.694481 0,0.983974 0.0869,1.953955 0.23216,2.907864 1.8761,-12.260479 15.39495,-21.764248 31.80564,-21.764248 16.41069,0 29.95856,9.503769 31.83466,21.764248 0.1452,-0.953909 0.20314,-1.92389 0.20314,-2.907864 0,-13.638386 -14.34381,-24.694481 -32.0378,-24.694481 z" transform="matrix(0.18581336,0,0,0.18581336,291.60931,118.15189)" style="opacity:.4526749;color:#000;fill:url(#radialGradient60491-5);fill-opacity:1;fill-rule:nonzero;stroke:none;stroke-width:1;marker:none;visibility:visible;display:inline;overflow:visible;filter:url(#filter14695-8-6);enable-background:accumulate"/><path style="opacity:.34979428;color:#000;fill:url(#radialGradient9479);fill-opacity:1;fill-rule:nonzero;stroke:none;stroke-width:2;marker:none;visibility:visible;display:inline;overflow:visible;enable-background:accumulate" id="path60565" d="m 163,194.625 a 13.625,7.875 0 1 1 -27.25,0 13.625,7.875 0 1 1 27.25,0 z" transform="matrix(0.13324331,0,0,0.13098188,293.99381,171.64032)"/><path style="color:#000;fill:url(#radialGradient60625);fill-opacity:1;fill-rule:nonzero;stroke:#a40000;stroke-width:.97449774;stroke-miterlimit:4;stroke-dasharray:none;marker:none;visibility:visible;display:inline;overflow:visible;enable-background:accumulate" id="path60567" d="m 319.78297,184.56927 c 0,4.88596 -4.8314,13.27237 -6.14781,13.17233 -1.31641,-0.10004 -6.14782,-8.18632 -6.14782,-13.17233 0,-3.35197 2.75248,-6.06927 6.14782,-6.06927 3.39535,0 6.14781,2.7173 6.14781,6.06927 z"/><path style="opacity:.4526749;color:#000;fill:url(#radialGradient60631);fill-opacity:1;fill-rule:nonzero;stroke:none;stroke-width:1;marker:none;visibility:visible;display:inline;overflow:visible;filter:url(#filter14695-8-2);enable-background:accumulate" id="path60573" d="m 149.48978,55.151966 c -17.69399,0 -32.0378,11.056095 -32.0378,24.694481 0,0.983974 0.0869,1.953955 0.23216,2.907864 1.8761,-12.260479 15.39495,-21.764248 31.80564,-21.764248 16.41069,0 29.95856,9.503769 31.83466,21.764248 0.1452,-0.953909 0.20314,-1.92389 0.20314,-2.907864 0,-13.638386 -14.34381,-24.694481 -32.0378,-24.694481 z" transform="matrix(0.13324331,0,0,0.13098188,293.99381,171.64032)"/><path id="path60711" d="m 163,194.625 a 13.625,7.875 0 1 1 -27.25,0 13.625,7.875 0 1 1 27.25,0 z" transform="matrix(0.09826025,0,0,0.09659255,296.03698,214.95394)" style="opacity:.34979428;color:#000;fill:url(#radialGradient9594);fill-opacity:1;fill-rule:nonzero;stroke:none;stroke-width:2;marker:none;visibility:visible;display:inline;overflow:visible;enable-background:accumulate"/><path id="path60713" d="m 315.5,224.4884 c 0,3.60315 -3.92937,9.7877 -5,9.71393 -1.07063,-0.0738 -5,-6.03701 -5,-9.71393 0,-2.47191 2.23857,-4.47579 5,-4.47579 2.76142,0 5,2.00388 5,4.47579 z" style="color:#000;fill:url(#radialGradient60771);fill-opacity:1;fill-rule:nonzero;stroke:#a40000;stroke-width:1;stroke-miterlimit:4;stroke-dasharray:none;marker:none;visibility:visible;display:inline;overflow:visible;enable-background:accumulate"/><path id="path60719" d="m 149.48978,55.151966 c -17.69399,0 -32.0378,11.056095 -32.0378,24.694481 0,0.983974 0.0869,1.953955 0.23216,2.907864 1.8761,-12.260479 15.39495,-21.764248 31.80564,-21.764248 16.41069,0 29.95856,9.503769 31.83466,21.764248 0.1452,-0.953909 0.20314,-1.92389 0.20314,-2.907864 0,-13.638386 -14.34381,-24.694481 -32.0378,-24.694481 z" transform="matrix(0.09826025,0,0,0.09659255,296.03698,214.95394)" style="opacity:.4526749;color:#000;fill:url(#radialGradient60777);fill-opacity:1;fill-rule:nonzero;stroke:none;stroke-width:1;marker:none;visibility:visible;display:inline;overflow:visible;filter:url(#filter14695-8);enable-background:accumulate"/><path id="path14753-3-1" d="m 163,194.625 a 13.625,7.875 0 1 1 -27.25,0 13.625,7.875 0 1 1 27.25,0 z" transform="matrix(0.29357786,0,0,0.2539683,276.14681,41.07142)" style="opacity:.34979428;color:#000;fill:url(#radialGradient9709);fill-opacity:1;fill-rule:nonzero;stroke:none;stroke-width:2;marker:none;visibility:visible;display:inline;overflow:visible;enable-background:accumulate"/><path id="path14659-9-9" d="m 331.00001,66.88215 c 0,8.760473 -8.64818,23.797219 -11.00454,23.61785 -2.35636,-0.179369 -11.00453,-14.677998 -11.00453,-23.61785 0,-6.010055 4.92689,-10.882152 11.00453,-10.882152 6.07765,0 11.00454,4.872097 11.00454,10.882152 z" style="color:#000;fill:url(#radialGradient60485-5-9);fill-opacity:1;fill-rule:nonzero;stroke:#a40000;stroke-width:.99999994000000003;stroke-miterlimit:4;stroke-dasharray:none;marker:none;visibility:visible;display:inline;overflow:visible;enable-background:accumulate"/><path id="path14678-0-6" d="m 149.48978,55.151966 c -17.69399,0 -32.0378,11.056095 -32.0378,24.694481 0,0.983974 0.0869,1.953955 0.23216,2.907864 1.8761,-12.260479 15.39495,-21.764248 31.80564,-21.764248 16.41069,0 29.95856,9.503769 31.83466,21.764248 0.1452,-0.953909 0.20314,-1.92389 0.20314,-2.907864 0,-13.638386 -14.34381,-24.694481 -32.0378,-24.694481 z" transform="matrix(0.23869787,0,0,0.23759078,284.72377,43.428104)" style="opacity:.4526749;color:#000;fill:url(#radialGradient60491-5-4);fill-opacity:1;fill-rule:nonzero;stroke:none;stroke-width:1;marker:none;visibility:visible;display:inline;overflow:visible;filter:url(#filter14695-8-6-5);enable-background:accumulate"/><path style="color:#000;fill:url(#linearGradient8357);fill-opacity:1;fill-rule:nonzero;stroke:none;stroke-width:.99999994000000003;marker:none;visibility:visible;display:inline;overflow:visible;enable-background:accumulate;opacity:.51046024999999995" id="path8349" d="m 320.3125,56.46875 0,33.40625 c 0.15005,-0.06457 0.25598,-0.06736 0.53125,-0.3125 0.42617,-0.379514 0.94037,-0.9727 1.5,-1.71875 1.11926,-1.4921 2.43798,-3.601817 3.65625,-6 2.43653,-4.796367 4.5625,-10.733863 4.5625,-14.96875 0,-5.662738 -4.55734,-10.23915 -10.25,-10.40625 z"/><path style="opacity:.51046023;color:#000;fill:url(#linearGradient8374);fill-opacity:1;fill-rule:nonzero;stroke:none;stroke-width:.99999994;marker:none;visibility:visible;display:inline;overflow:visible;enable-background:accumulate" id="path8349-4" d="m 320.3125,56.46875 0,33.40625 c 0.15005,-0.06457 0.25598,-0.06736 0.53125,-0.3125 0.42617,-0.379514 0.94037,-0.9727 1.5,-1.71875 1.11926,-1.4921 2.43798,-3.601817 3.65625,-6 2.43653,-4.796367 4.5625,-10.733863 4.5625,-14.96875 0,-5.662738 -4.55734,-10.23915 -10.25,-10.40625 z" transform="matrix(0.78011327,0,0,0.78011327,69.134012,84.37345)"/><path style="opacity:.51046023;color:#000;fill:url(#linearGradient8408);fill-opacity:1;fill-rule:nonzero;stroke:none;stroke-width:.99999994;marker:none;visibility:visible;display:inline;overflow:visible;enable-background:accumulate" id="path8349-4-5" d="m 320.3125,56.46875 0,33.40625 c 0.15005,-0.06457 0.25598,-0.06736 0.53125,-0.3125 0.42617,-0.379514 0.94037,-0.9727 1.5,-1.71875 1.11926,-1.4921 2.43798,-3.601817 3.65625,-6 2.43653,-4.796367 4.5625,-10.733863 4.5625,-14.96875 0,-5.662738 -4.55734,-10.23915 -10.25,-10.40625 z" transform="matrix(0.54840595,0,0,0.54840595,137.96564,147.87687)"/><path style="opacity:.79497908;color:#000;fill:url(#linearGradient8442);fill-opacity:1;fill-rule:nonzero;stroke:none;stroke-width:.99999994000000003;marker:none;visibility:visible;display:inline;overflow:visible;enable-background:accumulate" id="path8349-4-5-8" d="m 320.3125,56.46875 0,33.40625 c 0.15005,-0.06457 0.25598,-0.06736 0.53125,-0.3125 0.42617,-0.379514 0.94037,-0.9727 1.5,-1.71875 1.11926,-1.4921 2.43798,-3.601817 3.65625,-6 2.43653,-4.796367 4.5625,-10.733863 4.5625,-14.96875 0,-5.662738 -4.55734,-10.23915 -10.25,-10.40625 z" transform="matrix(0.41043389,0,0,0.37418152,179.53289,199.37044)"/></g><g id="layer4" style="display:inline"><g id="g19836" transform="matrix(2.7558118,0,0,2.7558118,-383.91999,509.16633)" style="display:inline;enable-background:new"><g id="g8241"><ellipse id="path14763" cx="149.375" cy="194.625" rx="13.625" ry="7.875" transform="matrix(1.6984127,0,0,1.6984127,-104.3254,-335.92857)" style="color:#000;display:inline;overflow:visible;visibility:visible;opacity:.34979428;fill:url(#radialGradient14765-2-6-4-7);fill-opacity:1;fill-rule:nonzero;stroke:none;stroke-width:2;marker:none;filter:url(#filter14775-6-3-4-3);enable-background:accumulate"/><ellipse style="color:#000;display:inline;overflow:visible;visibility:visible;opacity:.34979428;fill:url(#radialGradient14761-8-0-0-9);fill-opacity:1;fill-rule:nonzero;stroke:none;stroke-width:2;marker:none;enable-background:accumulate" id="path14753" cx="149.375" cy="194.625" rx="13.625" ry="7.875" transform="translate(0,-200)"/><path style="color:#000;display:inline;overflow:visible;visibility:visible;fill:url(#radialGradient14676-2-6-4-1);fill-opacity:1;fill-rule:nonzero;stroke:none;stroke-width:3.43406582;marker:none;enable-background:accumulate" id="path14659" d="M 195,-101.5 C 195,-64.87104 159.24272,-2 149.5,-2.75 139.75728,-3.5 104,-64.12104 104,-101.5 c 0,-25.12896 20.37104,-45.5 45.5,-45.5 25.12896,0 45.5,20.37104 45.5,45.5 z"/><path id="path14721" d="m 160.5,96.75 c 0,25.15725 -24.55857,68.33791 -31.25,67.8228 C 122.55857,164.05769 98,122.42236 98,96.75 98,79.491102 111.9911,65.5 129.25,65.5 c 17.2589,0 31.25,13.991102 31.25,31.25 z" clip-path="url(#clipPath14725-8-4-0-6-2)" transform="matrix(1.456,0,0,1.456,-38.688,-242.368)" style="color:#000;display:inline;overflow:visible;visibility:visible;opacity:.34979428;fill:none;stroke:url(#linearGradient19676-8-7-7-1);stroke-width:1.37362635;stroke-miterlimit:4;stroke-dasharray:none;stroke-opacity:1;marker:none;filter:url(#filter14733-2-7-8-1);enable-background:accumulate"/><path style="color:#000;display:inline;overflow:visible;visibility:visible;opacity:.4526749;fill:url(#radialGradient60491-5-4-4);fill-opacity:1;fill-rule:nonzero;stroke:none;stroke-width:.21483366;marker:none;filter:url(#filter14695-8-6-5-8);enable-background:accumulate" id="path14678-0-6-0" d="m 149.48978,55.151966 c -17.69399,0 -32.0378,11.056095 -32.0378,24.694481 0,0.983974 0.0869,1.953955 0.23216,2.907864 1.8761,-12.260479 15.39495,-21.764248 31.80564,-21.764248 16.41069,0 29.95856,9.503769 31.83466,21.764248 0.1452,-0.953909 0.20314,-1.92389 0.20314,-2.907864 0,-13.638386 -14.34381,-24.694481 -32.0378,-24.694481 z" transform="matrix(1.0256584,0,0,1.0037411,-3.6486692,-198.35238)"/><path style="color:#000;display:inline;overflow:visible;visibility:visible;opacity:.62551437;fill:url(#radialGradient14987-9-4-1-4);fill-opacity:1;fill-rule:nonzero;stroke:none;stroke-width:2;marker:none;enable-background:accumulate" id="path14979" d="m 184.75,-63.75 c -5.78327,16.45665 -14.30494,33.46099 -26.75,51.25 l -3.25,2.5 c 14.72061,-20.20524 22.47835,-41.53119 26,-60.25 z"/><path id="path8349-5" d="m 320.31641,56.472656 v 33.416016 c 0.14953,-0.0634 0.25976,-0.07354 0.53906,-0.322266 0.42617,-0.379514 0.94428,-0.968793 1.50391,-1.714844 1.11925,-1.4921 2.41259,-3.613535 3.63085,-6.011718 2.43654,-4.796367 4.56836,-10.729957 4.56836,-14.964844 0,-5.661688 -4.55101,-10.233632 -10.24218,-10.402344 z" transform="matrix(4.2968899,0,0,4.2246636,-1227.0756,-381.82153)" style="color:#000;display:inline;overflow:visible;visibility:visible;opacity:.51046023;fill:url(#linearGradient11405);fill-opacity:1;fill-rule:nonzero;stroke:none;stroke-width:.21483365;marker:none;enable-background:accumulate"/><path id="path19678" d="m 149.56768,-4.38663 c -3.61774,0 -7.96955,-8.83884 -7.96955,-8.83884 l 16.08668,-0.88388 c 0,0 -4.15154,9.72272 -8.11713,9.72272 z" style="color:#000;display:inline;overflow:visible;visibility:visible;opacity:.37037036;fill:url(#radialGradient20198-5-6);fill-opacity:1;fill-rule:nonzero;stroke:none;stroke-width:1;marker:none;enable-background:accumulate"/><path style="color:#000;display:inline;overflow:visible;visibility:visible;fill:none;stroke:url(#radialGradient22699);stroke-width:1;stroke-miterlimit:4;stroke-dasharray:none;stroke-opacity:1;marker:none;filter:url(#filter22713);enable-background:accumulate" id="path22685" d="m 149.5,-143.04688 c -22.99221,0 -41.54687,18.55467 -41.54688,41.54688 0,17.428747 8.6783,41.725405 18.66602,61.314453 4.99386,9.794524 10.29835,18.465715 14.83789,24.591797 2.26977,3.063041 4.36106,5.492795 6.00391,7.0429688 1.1679,1.1020152 1.92413,1.4913138 2.17773,1.6699218 0.30097,-0.1628702 1.03471,-0.4934614 1.96875,-1.3339844 1.59199,-1.4325869 3.67577,-3.8069402 5.9375,-6.8535152 4.52346,-6.093151 9.83103,-14.881037 14.82617,-24.816407 9.9903,-19.870738 18.67579,-44.587302 18.67579,-61.615234 0,-22.99221 -18.55467,-41.54687 -41.54688,-41.54688 z"/></g></g></g></svg>