<svg xmlns="http://www.w3.org/2000/svg" xmlns:svg="http://www.w3.org/2000/svg" xmlns:xlink="http://www.w3.org/1999/xlink" id="svg11300" width="400" height="300" version="1.0" style="display:inline;enable-background:new"><title id="title8836">Optical Drive</title><metadata id="metadata154"/><defs id="defs3"><linearGradient id="linearGradient6979"><stop id="stop6981" offset="0" style="stop-color:#888a85;stop-opacity:1"/><stop id="stop6983" offset="1" style="stop-color:#555753;stop-opacity:1"/></linearGradient><linearGradient id="linearGradient6963"><stop id="stop6965" offset="0" style="stop-color:#000;stop-opacity:1"/><stop id="stop6967" offset="1" style="stop-color:#000;stop-opacity:0"/></linearGradient><linearGradient id="linearGradient7153"><stop id="stop7155" offset="0" style="stop-color:#fff;stop-opacity:1"/><stop id="stop7157" offset="1" style="stop-color:#fff;stop-opacity:0"/></linearGradient><linearGradient id="linearGradient7131"><stop id="stop7133" offset="0" style="stop-color:#fff;stop-opacity:1"/><stop id="stop7135" offset="1" style="stop-color:#d3d7cf;stop-opacity:1"/></linearGradient><linearGradient id="linearGradient7101"><stop id="stop7103" offset="0" style="stop-color:#babdb6;stop-opacity:1"/><stop id="stop7105" offset="1" style="stop-color:#fff;stop-opacity:1"/></linearGradient><linearGradient id="linearGradient3374"><stop id="stop3376" offset="0" style="stop-color:#729fcf;stop-opacity:1"/><stop id="stop3378" offset="1" style="stop-color:#729fcf;stop-opacity:0"/></linearGradient><linearGradient id="linearGradient3362"><stop id="stop3364" offset="0" style="stop-color:#3465a4;stop-opacity:1"/><stop id="stop3366" offset="1" style="stop-color:#3465a4;stop-opacity:0"/></linearGradient><linearGradient id="linearGradient3268"><stop id="stop3270" offset="0" style="stop-color:#000;stop-opacity:1"/><stop id="stop3272" offset="1" style="stop-color:#000;stop-opacity:0"/></linearGradient><radialGradient id="radialGradient5998" cx="10.737" cy="19.5" r="8.263" fx="10.737" fy="19.5" gradientTransform="matrix(1,0,0,0.3025696,0,13.599894)" gradientUnits="userSpaceOnUse" xlink:href="#linearGradient3268"/><radialGradient id="radialGradient6000" cx="10.281" cy="8.071" r="4.525" fx="10.281" fy="8.071" gradientTransform="matrix(1,0,0,0.8273492,0,1.1222303)" gradientUnits="userSpaceOnUse" xlink:href="#linearGradient3374"/><radialGradient id="radialGradient6002" cx="10.281" cy="9.842" r="4.525" fx="10.281" fy="9.842" gradientTransform="matrix(4.680847,0,0,1.2767377,-37.843708,-3.3008494)" gradientUnits="userSpaceOnUse" xlink:href="#linearGradient3362"/><radialGradient id="radialGradient6004" cx="10.281" cy="7.825" r="4.525" fx="10.281" fy="7.825" gradientTransform="matrix(0.6984472,0,0,0.5778597,3.1003396,2.7439118)" gradientUnits="userSpaceOnUse" xlink:href="#linearGradient3374"/><radialGradient id="radialGradient6006" cx="10.281" cy="9.842" r="4.525" fx="10.281" fy="9.842" gradientTransform="matrix(4.680847,0,0,1.2767377,-37.843708,-3.3008494)" gradientUnits="userSpaceOnUse" xlink:href="#linearGradient3362"/><linearGradient id="linearGradient7121" x1="24.837" x2="21.036" y1="44.528" y2="21.042" gradientUnits="userSpaceOnUse" xlink:href="#linearGradient7101"/><radialGradient id="radialGradient7127" cx="10.281" cy="8.071" r="4.525" fx="10.281" fy="8.071" gradientTransform="matrix(1,0,0,0.8273492,0,1.1222303)" gradientUnits="userSpaceOnUse" xlink:href="#linearGradient3374"/><radialGradient id="radialGradient7129" cx="10.281" cy="10.018" r="4.525" fx="10.281" fy="10.018" gradientTransform="matrix(4.680847,0,0,1.2767377,-37.843708,-3.3008494)" gradientUnits="userSpaceOnUse" xlink:href="#linearGradient3362"/><radialGradient id="radialGradient7137" cx="8.906" cy="1.729" r="1.995" fx="8.906" fy="1.729" gradientTransform="matrix(0.7375073,0,0,0.7201806,2.4345312,0.6617371)" gradientUnits="userSpaceOnUse" xlink:href="#linearGradient7131"/><radialGradient id="radialGradient7159" cx="8.305" cy="1.126" r="2.051" fx="8.305" fy="1.126" gradientTransform="matrix(1.8597707,0,0,1.8172614,-7.1401269,-0.8942366)" gradientUnits="userSpaceOnUse" xlink:href="#linearGradient7153"/><linearGradient id="linearGradient6969" x1="11.225" x2="11.225" y1="43.135" y2="23.038" gradientUnits="userSpaceOnUse" xlink:href="#linearGradient6963"/><linearGradient id="linearGradient6985" x1="39.068" x2="39.421" y1="28.5" y2="10.935" gradientUnits="userSpaceOnUse" xlink:href="#linearGradient6979"/><radialGradient id="radialGradient6965" cx="10.737" cy="19.5" r="8.263" fx="10.737" fy="19.5" gradientTransform="matrix(1,0,0,0.3025696,0,13.599894)" gradientUnits="userSpaceOnUse" xlink:href="#linearGradient3268"/><linearGradient id="linearGradient6971" x1="11.225" x2="11.225" y1="43.135" y2="23.038" gradientUnits="userSpaceOnUse" xlink:href="#linearGradient6963"/><linearGradient id="linearGradient6977" x1="24.837" x2="21.036" y1="44.528" y2="21.042" gradientUnits="userSpaceOnUse" xlink:href="#linearGradient7101"/><linearGradient id="linearGradient6980" x1="39.068" x2="39.421" y1="28.5" y2="10.935" gradientUnits="userSpaceOnUse" xlink:href="#linearGradient6979"/><radialGradient id="radialGradient7007" cx="8.906" cy="1.729" r="1.995" fx="8.906" fy="1.729" gradientTransform="matrix(0.7375073,0,0,0.7201806,2.4345312,0.6617371)" gradientUnits="userSpaceOnUse" xlink:href="#linearGradient7131"/><radialGradient id="radialGradient7009" cx="8.305" cy="1.126" r="2.051" fx="8.305" fy="1.126" gradientTransform="matrix(1.8597707,0,0,1.8172614,-7.1401269,-0.8942366)" gradientUnits="userSpaceOnUse" xlink:href="#linearGradient7153"/><radialGradient id="radialGradient7011" cx="10.281" cy="7.825" r="4.525" fx="10.281" fy="7.825" gradientTransform="matrix(0.6984472,0,0,0.5778597,3.1003396,2.7439118)" gradientUnits="userSpaceOnUse" xlink:href="#linearGradient3374"/><radialGradient id="radialGradient7013" cx="10.281" cy="9.842" r="4.525" fx="10.281" fy="9.842" gradientTransform="matrix(4.680847,0,0,1.2767377,-37.843708,-3.3008494)" gradientUnits="userSpaceOnUse" xlink:href="#linearGradient3362"/><radialGradient id="radialGradient7015" cx="10.281" cy="8.071" r="4.525" fx="10.281" fy="8.071" gradientTransform="matrix(1,0,0,0.8273492,0,1.1222303)" gradientUnits="userSpaceOnUse" xlink:href="#linearGradient3374"/><radialGradient id="radialGradient7017" cx="10.281" cy="9.842" r="4.525" fx="10.281" fy="9.842" gradientTransform="matrix(4.680847,0,0,1.2767377,-37.843708,-3.3008494)" gradientUnits="userSpaceOnUse" xlink:href="#linearGradient3362"/><radialGradient id="radialGradient7019" cx="10.281" cy="8.071" r="4.525" fx="10.281" fy="8.071" gradientTransform="matrix(1,0,0,0.8273492,0,1.1222303)" gradientUnits="userSpaceOnUse" xlink:href="#linearGradient3374"/><radialGradient id="radialGradient7021" cx="10.281" cy="10.018" r="4.525" fx="10.281" fy="10.018" gradientTransform="matrix(4.680847,0,0,1.2767377,-37.843708,-3.3008494)" gradientUnits="userSpaceOnUse" xlink:href="#linearGradient3362"/><radialGradient id="radialGradient3274" cx="10.737" cy="19.5" r="8.263" fx="10.737" fy="19.5" gradientTransform="matrix(1,0,0,0.3025696,0,13.599894)" gradientUnits="userSpaceOnUse" xlink:href="#linearGradient3268"/><radialGradient id="radialGradient3392" cx="10.281" cy="8.071" r="4.525" fx="10.281" fy="8.071" gradientTransform="matrix(1,0,0,0.8273492,0,1.1222303)" gradientUnits="userSpaceOnUse" xlink:href="#linearGradient3374"/><radialGradient id="radialGradient3394" cx="10.281" cy="9.842" r="4.525" fx="10.281" fy="9.842" gradientTransform="matrix(4.680847,0,0,1.2767377,-37.843708,-3.3008494)" gradientUnits="userSpaceOnUse" xlink:href="#linearGradient3362"/><radialGradient id="radialGradient3396" cx="10.281" cy="7.825" r="4.525" fx="10.281" fy="7.825" gradientTransform="matrix(0.6984472,0,0,0.5778597,3.1003396,2.7439118)" gradientUnits="userSpaceOnUse" xlink:href="#linearGradient3374"/><radialGradient id="radialGradient3398" cx="10.281" cy="9.842" r="4.525" fx="10.281" fy="9.842" gradientTransform="matrix(4.680847,0,0,1.2767377,-37.843708,-3.3008494)" gradientUnits="userSpaceOnUse" xlink:href="#linearGradient3362"/></defs><g id="layer6" style="display:none"><rect id="rect6284" width="48" height="48" x="296" y="50" style="fill:#eeeeec;fill-opacity:1;fill-rule:nonzero;stroke:none;stroke-width:2;marker:none;visibility:visible;display:inline;overflow:visible;enable-background:accumulate"/><rect id="rect6592" width="32" height="32" x="303" y="126" style="fill:#eeeeec;fill-opacity:1;fill-rule:nonzero;stroke:none;stroke-width:2;marker:none;visibility:visible;display:inline;overflow:visible;enable-background:accumulate"/><rect id="rect6749" width="22" height="22" x="303" y="177" style="fill:#eeeeec;fill-opacity:1;fill-rule:nonzero;stroke:none;stroke-width:2;marker:none;visibility:visible;display:inline;overflow:visible;enable-background:accumulate"/><rect id="rect6833" width="16" height="16" x="303" y="219" style="fill:#eeeeec;fill-opacity:1;fill-rule:nonzero;stroke:none;stroke-width:2;marker:none;visibility:visible;display:inline;overflow:visible;enable-background:accumulate"/><text id="context" x="20.971" y="21.514" xml:space="preserve" style="font-size:18.30070686px;font-style:normal;font-weight:400;fill:#000;fill-opacity:1;stroke:none;display:inline;enable-background:new;font-family:Bitstream Vera Sans"><tspan id="tspan2716" x="20.971" y="21.514">devices</tspan></text><text id="icon-name" x="191.971" y="21.514" xml:space="preserve" style="font-size:18.30070686px;font-style:normal;font-variant:normal;font-weight:700;font-stretch:normal;text-align:start;line-height:125%;writing-mode:lr-tb;text-anchor:start;fill:#000;fill-opacity:1;stroke:none;display:inline;enable-background:new;font-family:Droid Sans;-inkscape-font-specification:Droid Sans Bold"><tspan id="tspan3023" x="191.971" y="21.514">network-wireless</tspan></text></g><g id="layer2" style="display:inline"><g id="g48" transform="translate(296,50) scale(1.000000,1.000000)" style="display:inline;enable-background:new"><path id="path3258" d="M 19 19.5 A 8.2625628 2.5 0 1 1 2.4748745,19.5 A 8.2625628 2.5 0 1 1 19 19.5 z" transform="matrix(2.3050967,0,0,2.3778947,-1.1985194,-5.819495)" style="opacity:.1;fill:url(#radialGradient5998);fill-opacity:1;stroke:none;stroke-width:1;stroke-linecap:round;stroke-linejoin:round;stroke-miterlimit:4;stroke-dasharray:none;stroke-dashoffset:0;stroke-opacity:1"/><path id="path7125" d="M 14.5625 6.5 A 4.28125 3.5 0 1 1 6,6.5 A 4.28125 3.5 0 1 1 14.5625 6.5 z" transform="matrix(4.5547445,0,0,5.5069915,-22.828467,-20.795445)" style="fill:url(#radialGradient7127);fill-opacity:1;stroke:url(#radialGradient7129);stroke-width:.19966908;stroke-linecap:round;stroke-linejoin:round;stroke-miterlimit:4;stroke-dasharray:none;stroke-dashoffset:0;stroke-opacity:1;opacity:.6"/><path id="path6961" d="M 23.875,12.5625 C 23.755186,12.593695 23.653478,12.672801 23.59375,12.78125 L 7.59375,43.78125 C 7.5217395,43.921791 7.5285298,44.089768 7.6116494,44.224038 C 7.694769,44.358309 7.8420946,44.439288 8,44.4375 L 11.5,44.4375 C 11.672029,44.438521 11.829638,44.341531 11.90625,44.1875 L 14.3125,39.1875 L 35.375,42.71875 L 36.09375,44.1875 C 36.170362,44.341531 36.327971,44.438521 36.5,44.4375 L 40,44.4375 C 40.157905,44.439288 40.305231,44.358309 40.388351,44.224038 C 40.47147,44.089768 40.478261,43.921791 40.40625,43.78125 L 24.40625,12.78125 C 24.304601,12.590301 24.081632,12.498491 23.875,12.5625 L 23.875,12.5625 z M 24,19 L 27.1875,25.625 L 21.53125,24.15625 L 24,19 z M 20.25,26.84375 L 25.96875,28.3125 L 17.59375,32.40625 L 20.25,26.84375 z M 29.4375,30.375 L 33.3125,38.4375 L 18.09375,35.875 L 29.4375,30.375 z" transform="matrix(1,0,0,0.4005165,0,26.139566)" style="opacity:.15298504;fill:url(#linearGradient6969);fill-opacity:1;fill-rule:evenodd;stroke:none;stroke-width:1px;stroke-linecap:butt;stroke-linejoin:miter;stroke-opacity:1"/><path id="path3319" d="M 14.5625 6.5 A 4.28125 3.5 0 1 1 6,6.5 A 4.28125 3.5 0 1 1 14.5625 6.5 z" transform="matrix(3.3868613,0,0,4.0945293,-10.821168,-11.614441)" style="fill:url(#radialGradient6000);fill-opacity:1;stroke:url(#radialGradient6002);stroke-width:.26853403;stroke-linecap:round;stroke-linejoin:round;stroke-miterlimit:4;stroke-dasharray:none;stroke-dashoffset:0;stroke-opacity:1;opacity:.8"/><g id="g7115" transform="translate(0,-0.5)"><path id="path7060" d="M 24,13 L 8,44 L 11.5,44 L 14.0625,38.6875 L 35.6875,42.3125 L 36.5,44 L 40,44 L 24,13 z M 24,17.96875 L 28,26.3125 L 20.90625,24.46875 L 24,17.96875 z M 20,26.3125 L 27.28125,28.1875 L 16.625,33.375 L 20,26.3125 z M 29.65625,29.78125 L 34.09375,39 L 16.65625,36.09375 L 29.65625,29.78125 z" style="fill:url(#linearGradient7121);fill-opacity:1;fill-rule:evenodd;stroke:url(#linearGradient6985);stroke-width:1px;stroke-linecap:butt;stroke-linejoin:miter;stroke-opacity:1"/><path id="path7092" d="M 38.40625,43.03125 L 24,15.125 L 9.59375,43.03125" style="fill:none;fill-opacity:1;fill-rule:evenodd;stroke:#fff;stroke-width:1px;stroke-linecap:round;stroke-linejoin:miter;stroke-opacity:1"/><path id="path7097" d="M 15.78125,34.90625 L 28.8125,28.5625" style="fill:none;fill-rule:evenodd;stroke:#fff;stroke-width:1px;stroke-linecap:round;stroke-linejoin:miter;stroke-opacity:1"/><path id="path7099" d="M 15.09375,36.84375 L 34.75,40.125" style="fill:none;fill-rule:evenodd;stroke:#fff;stroke-width:1px;stroke-linecap:round;stroke-linejoin:miter;stroke-opacity:1"/></g><path id="path3382" d="M 14.5625 6.5 A 4.28125 3.5 0 1 1 6,6.5 A 4.28125 3.5 0 1 1 14.5625 6.5 z" transform="matrix(2.2189781,0,0,2.7142858,1.1861314,-2.6428575)" style="fill:url(#radialGradient6004);fill-opacity:1;stroke:url(#radialGradient6006);stroke-width:.40747008;stroke-linecap:round;stroke-linejoin:round;stroke-miterlimit:4;stroke-dasharray:none;stroke-dashoffset:0;stroke-opacity:1"/><g id="g3232" transform="matrix(2.2398427,0,0,2.230092,-19.676933,9.388622)"><path id="path3234" d="M 11 2.25 A 1.796875 1.75 0 1 1 7.40625,2.25 A 1.796875 1.75 0 1 1 11 2.25 z" transform="matrix(1.1130433,0,0,1.1428572,9.2565233,-7.1428636e-2)" style="opacity:1;fill:url(#radialGradient7137);fill-opacity:1;stroke:#555753;stroke-width:.39671427;stroke-linecap:round;stroke-linejoin:round;stroke-miterlimit:4;stroke-dasharray:none;stroke-dashoffset:0;stroke-opacity:1"/><path id="path3236" d="M 20 1.5 A 0.5 0.5 0 1 1 19,1.5 A 0.5 0.5 0 1 1 20 1.5 z" transform="matrix(1.8125,0,0,1.8125,-16.465404,-0.9288198)" style="opacity:1;fill:#fff;fill-opacity:1;stroke:none;stroke-width:1;stroke-linecap:round;stroke-linejoin:round;stroke-miterlimit:4;stroke-dasharray:none;stroke-dashoffset:0;stroke-opacity:1"/></g><path id="path7147" d="M 11 2.25 A 1.796875 1.75 0 1 1 7.40625,2.25 A 1.796875 1.75 0 1 1 11 2.25 z" transform="matrix(1.9478265,0,0,1.9910495,6.0739089,10.483991)" style="fill:none;fill-opacity:1;stroke:url(#radialGradient7159);stroke-width:.50778961;stroke-linecap:round;stroke-linejoin:round;stroke-miterlimit:4;stroke-dasharray:none;stroke-dashoffset:0;stroke-opacity:1"/></g><g id="g32" transform="translate(303,126) scale(1.000000,1.000000)" style="display:inline;enable-background:new"><path id="path87" d="M 19 19.5 A 8.2625628 2.5 0 1 1 2.4748745,19.5 A 8.2625628 2.5 0 1 1 19 19.5 z" transform="matrix(1.5367312,0,0,1.5852632,-0.799013,-3.8796651)" style="opacity:.1;fill:url(#radialGradient6965);fill-opacity:1;stroke:none;stroke-width:1;stroke-linecap:round;stroke-linejoin:round;stroke-miterlimit:4;stroke-dasharray:none;stroke-dashoffset:0;stroke-opacity:1"/><path id="path89" d="M 14.5625 6.5 A 4.28125 3.5 0 1 1 6,6.5 A 4.28125 3.5 0 1 1 14.5625 6.5 z" transform="matrix(3.3868614,0,0,4.0951262,-18.821169,-16.618321)" style="opacity:.6;fill:url(#radialGradient7019);fill-opacity:1;stroke:url(#radialGradient7021);stroke-width:.26851448;stroke-linecap:round;stroke-linejoin:round;stroke-miterlimit:4;stroke-dasharray:none;stroke-dashoffset:0;stroke-opacity:1"/><path id="path91" d="M 23.875,12.5625 C 23.755186,12.593695 23.653478,12.672801 23.59375,12.78125 L 7.59375,43.78125 C 7.5217395,43.921791 7.5285298,44.089768 7.6116494,44.224038 C 7.694769,44.358309 7.8420946,44.439288 8,44.4375 L 11.5,44.4375 C 11.672029,44.438521 11.829638,44.341531 11.90625,44.1875 L 14.3125,39.1875 L 35.375,42.71875 L 36.09375,44.1875 C 36.170362,44.341531 36.327971,44.438521 36.5,44.4375 L 40,44.4375 C 40.157905,44.439288 40.305231,44.358309 40.388351,44.224038 C 40.47147,44.089768 40.478261,43.921791 40.40625,43.78125 L 24.40625,12.78125 C 24.304601,12.590301 24.081632,12.498491 23.875,12.5625 L 23.875,12.5625 z M 24,19 L 27.1875,25.625 L 21.53125,24.15625 L 24,19 z M 20.25,26.84375 L 25.96875,28.3125 L 17.59375,32.40625 L 20.25,26.84375 z M 29.4375,30.375 L 33.3125,38.4375 L 18.09375,35.875 L 29.4375,30.375 z" transform="matrix(0.6666667,0,0,0.267011,0,17.426377)" style="opacity:.15298504;fill:url(#linearGradient6971);fill-opacity:1;fill-rule:evenodd;stroke:none;stroke-width:1px;stroke-linecap:butt;stroke-linejoin:miter;stroke-opacity:1"/><path id="path93" d="M 14.5625 6.5 A 4.28125 3.5 0 1 1 6,6.5 A 4.28125 3.5 0 1 1 14.5625 6.5 z" transform="matrix(2.4525547,0,0,2.9651406,-9.215328,-9.2734154)" style="opacity:.8;fill:url(#radialGradient7015);fill-opacity:1;stroke:url(#radialGradient7017);stroke-width:.37082419;stroke-linecap:round;stroke-linejoin:round;stroke-miterlimit:4;stroke-dasharray:none;stroke-dashoffset:0;stroke-opacity:1"/><g id="g95" transform="matrix(0.6666667,0,0,0.6666667,0,-0.3333349)"><path id="path97" d="M 24,13 L 8,44 L 11.5,44 L 14.0625,38.6875 L 35.6875,42.3125 L 36.5,44 L 40,44 L 24,13 z M 24,17.96875 L 28,26.3125 L 20.90625,24.46875 L 24,17.96875 z M 20,26.3125 L 27.28125,28.1875 L 16.625,33.375 L 20,26.3125 z M 29.65625,29.78125 L 34.09375,39 L 16.65625,36.09375 L 29.65625,29.78125 z" style="fill:url(#linearGradient6977);fill-opacity:1;fill-rule:evenodd;stroke:url(#linearGradient6980);stroke-width:1.5px;stroke-linecap:butt;stroke-linejoin:miter;stroke-opacity:1"/><path id="path99" d="M 38.40625,43.03125 L 24,15.125 L 9.59375,43.03125" style="fill:none;fill-opacity:1;fill-rule:evenodd;stroke:#fff;stroke-width:1.5px;stroke-linecap:round;stroke-linejoin:miter;stroke-opacity:1"/><path id="path101" d="M 15.78125,34.90625 L 28.8125,28.5625" style="fill:none;fill-rule:evenodd;stroke:#fff;stroke-width:1.5px;stroke-linecap:round;stroke-linejoin:miter;stroke-opacity:1"/><path id="path103" d="M 15.09375,36.84375 L 34.75,40.125" style="fill:none;fill-rule:evenodd;stroke:#fff;stroke-width:1.5px;stroke-linecap:round;stroke-linejoin:miter;stroke-opacity:1"/></g><path id="path105" d="M 14.5625 6.5 A 4.28125 3.5 0 1 1 6,6.5 A 4.28125 3.5 0 1 1 14.5625 6.5 z" transform="matrix(1.5182483,0,0,1.8571432,0.39051,-2.0714313)" style="fill:url(#radialGradient7011);fill-opacity:1;stroke:url(#radialGradient7013);stroke-width:.59553313;stroke-linecap:round;stroke-linejoin:round;stroke-miterlimit:4;stroke-dasharray:none;stroke-dashoffset:0;stroke-opacity:1"/><g id="g107" transform="matrix(1.2848822,0,0,1.2792888,-9.0552036,6.7776782)"><path id="path109" d="M 11 2.25 A 1.796875 1.75 0 1 1 7.40625,2.25 A 1.796875 1.75 0 1 1 11 2.25 z" transform="matrix(1.1130433,0,0,1.1428572,9.2565233,-7.1428636e-2)" style="opacity:1;fill:url(#radialGradient7007);fill-opacity:1;stroke:#555753;stroke-width:.69156349;stroke-linecap:round;stroke-linejoin:round;stroke-miterlimit:4;stroke-dasharray:none;stroke-dashoffset:0;stroke-opacity:1"/><path id="path111" d="M 20 1.5 A 0.5 0.5 0 1 1 19,1.5 A 0.5 0.5 0 1 1 20 1.5 z" transform="matrix(1.8125,0,0,1.8125,-16.465404,-0.9288198)" style="opacity:1;fill:#fff;fill-opacity:1;stroke:none;stroke-width:1;stroke-linecap:round;stroke-linejoin:round;stroke-miterlimit:4;stroke-dasharray:none;stroke-dashoffset:0;stroke-opacity:1"/></g><path id="path113" d="M 11 2.25 A 1.796875 1.75 0 1 1 7.40625,2.25 A 1.796875 1.75 0 1 1 11 2.25 z" transform="matrix(0.8347831,0,0,0.8529311,8.3173876,8.0568054)" style="fill:none;fill-opacity:1;stroke:url(#radialGradient7009);stroke-width:1.1851033;stroke-linecap:round;stroke-linejoin:round;stroke-miterlimit:4;stroke-dasharray:none;stroke-dashoffset:0;stroke-opacity:1"/></g><g id="g22" transform="translate(303,177) scale(1.000000,1.000000)" style="display:inline;enable-background:new"><path id="path116" d="M 14.5625 6.5 A 4.28125 3.5 0 1 1 6,6.5 A 4.28125 3.5 0 1 1 14.5625 6.5 z" transform="matrix(1.8686133,0,0,2.2857143,-8.7116804,-8.3571429)" style="fill:url(#radialGradient3392);fill-opacity:1;stroke:url(#radialGradient3394);stroke-width:.48387069;stroke-linecap:round;stroke-linejoin:round;stroke-miterlimit:4;stroke-dasharray:none;stroke-dashoffset:0;stroke-opacity:1"/><path id="path3222" d="M 8.5,12 L 13,14" style="fill:none;fill-opacity:1;fill-rule:evenodd;stroke:#888a85;stroke-width:3;stroke-linecap:round;stroke-linejoin:miter;stroke-miterlimit:4;stroke-dasharray:none;stroke-opacity:1"/><path id="path119" d="M 19 19.5 A 8.2625628 2.5 0 1 1 2.4748745,19.5 A 8.2625628 2.5 0 1 1 19 19.5 z" transform="matrix(1.1497643,0,0,1.2,-1.8455223,-4.4)" style="opacity:.25;fill:url(#radialGradient3274);fill-opacity:1;stroke:none;stroke-width:1;stroke-linecap:round;stroke-linejoin:round;stroke-miterlimit:4;stroke-dasharray:none;stroke-dashoffset:0;stroke-opacity:1"/><path id="path3203" d="M 10.5,6.5 L 15.5,19.5" style="fill:none;fill-opacity:1;fill-rule:evenodd;stroke:#888a85;stroke-width:3;stroke-linecap:round;stroke-linejoin:miter;stroke-miterlimit:4;stroke-dasharray:none;stroke-opacity:1"/><path id="path3209" d="M 7,17.5 L 15.5,19.5" style="fill:none;fill-opacity:1;fill-rule:evenodd;stroke:#888a85;stroke-width:3;stroke-linecap:round;stroke-linejoin:miter;stroke-miterlimit:4;stroke-dasharray:none;stroke-opacity:1"/><path id="path3218" d="M 7,17.5 L 13,14" style="fill:none;fill-opacity:1;fill-rule:evenodd;stroke:#888a85;stroke-width:3;stroke-linecap:round;stroke-linejoin:miter;stroke-miterlimit:4;stroke-dasharray:none;stroke-opacity:1"/><g id="g3179" transform="translate(-8,3)"><path id="path5726" d="M 18.5,3.5 L 13.5,16.5" style="fill:none;fill-opacity:1;fill-rule:evenodd;stroke:#888a85;stroke-width:3;stroke-linecap:round;stroke-linejoin:miter;stroke-miterlimit:4;stroke-dasharray:none;stroke-opacity:1"/><path id="path3186" d="M 18.5,3.5 L 13.5,16.5" style="fill:none;fill-opacity:1;fill-rule:evenodd;stroke:#fff;stroke-width:1;stroke-linecap:round;stroke-linejoin:miter;stroke-miterlimit:4;stroke-dasharray:none;stroke-opacity:1"/></g><path id="path3205" d="M 7,17.5 L 15.5,19.5" style="fill:none;fill-opacity:1;fill-rule:evenodd;stroke:#fff;stroke-width:1;stroke-linecap:round;stroke-linejoin:miter;stroke-miterlimit:4;stroke-dasharray:none;stroke-opacity:1"/><path id="path3216" d="M 10.5,6.5 L 15.5,19.5" style="fill:none;fill-opacity:1;fill-rule:evenodd;stroke:#fff;stroke-width:1;stroke-linecap:round;stroke-linejoin:miter;stroke-miterlimit:4;stroke-dasharray:none;stroke-opacity:1"/><path id="path3220" d="M 7,17.5 L 13,14" style="fill:none;fill-opacity:1;fill-rule:evenodd;stroke:#fff;stroke-width:1;stroke-linecap:round;stroke-linejoin:miter;stroke-miterlimit:4;stroke-dasharray:none;stroke-opacity:1"/><path id="path3224" d="M 8.5,12 L 13,14" style="fill:none;fill-opacity:1;fill-rule:evenodd;stroke:#fff;stroke-width:1;stroke-linecap:round;stroke-linejoin:miter;stroke-miterlimit:4;stroke-dasharray:none;stroke-opacity:1"/><path id="path131" d="M 14.5625 6.5 A 4.28125 3.5 0 1 1 6,6.5 A 4.28125 3.5 0 1 1 14.5625 6.5 z" transform="matrix(1.1678832,0,0,1.4285714,-1.5072991,-2.7857142)" style="fill:url(#radialGradient3396);fill-opacity:1;stroke:url(#radialGradient3398);stroke-width:.77419317;stroke-linecap:round;stroke-linejoin:round;stroke-miterlimit:4;stroke-dasharray:none;stroke-dashoffset:0;stroke-opacity:1"/><g id="g133" transform="translate(-9,4)"><path id="path135" d="M 11 2.25 A 1.796875 1.75 0 1 1 7.40625,2.25 A 1.796875 1.75 0 1 1 11 2.25 z" transform="matrix(1.1130433,0,0,1.1428572,9.2565233,-7.1428636e-2)" style="opacity:1;fill:#eeeeec;fill-opacity:1;stroke:#555753;stroke-width:.88664132;stroke-linecap:round;stroke-linejoin:round;stroke-miterlimit:4;stroke-dasharray:none;stroke-dashoffset:0;stroke-opacity:1"/><path id="path137" d="M 20 1.5 A 0.5 0.5 0 1 1 19,1.5 A 0.5 0.5 0 1 1 20 1.5 z" transform="matrix(1.8125,0,0,1.8125,-16.4375,-1.125)" style="opacity:1;fill:#fff;fill-opacity:1;stroke:none;stroke-width:1;stroke-linecap:round;stroke-linejoin:round;stroke-miterlimit:4;stroke-dasharray:none;stroke-dashoffset:0;stroke-opacity:1"/></g></g><g id="g16" transform="translate(303,219) scale(1.000000,1.000000)" style="display:inline;enable-background:new"><path id="path140" d="M 14.5625 6.5 A 4.28125 3.5 0 1 1 6,6.5 A 4.28125 3.5 0 1 1 14.5625 6.5 z" transform="matrix(1.7518249,0,0,2.142857,-10.010949,-8.92857)" style="fill:url(#radialGradient3392);fill-opacity:1;stroke:url(#radialGradient3394);stroke-width:.51612878;stroke-linecap:round;stroke-linejoin:round;stroke-miterlimit:4;stroke-dasharray:none;stroke-dashoffset:0;stroke-opacity:1"/><path id="path5962" d="M 8,5 L 3.5,14.5" style="fill:#000;fill-opacity:1;fill-rule:evenodd;stroke:#888a85;stroke-width:3;stroke-linecap:round;stroke-linejoin:miter;stroke-miterlimit:4;stroke-dasharray:none;stroke-opacity:1"/><path id="path5964" d="M 4.5,12.5 L 12,13.5" style="fill:#000;fill-opacity:1;fill-rule:evenodd;stroke:#888a85;stroke-width:3;stroke-linecap:round;stroke-linejoin:miter;stroke-miterlimit:4;stroke-dasharray:none;stroke-opacity:1"/><path id="path5966" d="M 8,5 L 12.5,14.5" style="fill:#000;fill-opacity:1;fill-rule:evenodd;stroke:#888a85;stroke-width:3;stroke-linecap:round;stroke-linejoin:miter;stroke-miterlimit:4;stroke-dasharray:none;stroke-opacity:1"/><path id="path5968" d="M 4.5,12.5 L 10.5,10.5" style="fill:#000;fill-opacity:1;fill-rule:evenodd;stroke:#888a85;stroke-width:3;stroke-linecap:round;stroke-linejoin:miter;stroke-miterlimit:4;stroke-dasharray:none;stroke-opacity:1"/><path id="path5970" d="M 6.5,8.5 L 10.5,10.5" style="fill:#000;fill-opacity:1;fill-rule:evenodd;stroke:#888a85;stroke-width:3;stroke-linecap:round;stroke-linejoin:miter;stroke-miterlimit:4;stroke-dasharray:none;stroke-opacity:1"/><path id="path147" d="M 8,5 L 3.5,14.5" style="fill:#000;fill-opacity:1;fill-rule:evenodd;stroke:#fff;stroke-width:1;stroke-linecap:round;stroke-linejoin:miter;stroke-miterlimit:4;stroke-dasharray:none;stroke-opacity:1"/><path id="path149" d="M 4.5,12.5 L 12,13.5" style="fill:#000;fill-opacity:1;fill-rule:evenodd;stroke:#fff;stroke-width:1;stroke-linecap:round;stroke-linejoin:miter;stroke-miterlimit:4;stroke-dasharray:none;stroke-opacity:1"/><path id="path151" d="M 8,5 L 12.5,14.5" style="fill:#000;fill-opacity:1;fill-rule:evenodd;stroke:#fff;stroke-width:1;stroke-linecap:round;stroke-linejoin:miter;stroke-miterlimit:4;stroke-dasharray:none;stroke-opacity:1"/><path id="path153" d="M 4.5,12.5 L 10.5,10.5" style="fill:#000;fill-opacity:1;fill-rule:evenodd;stroke:#fff;stroke-width:1;stroke-linecap:round;stroke-linejoin:miter;stroke-miterlimit:4;stroke-dasharray:none;stroke-opacity:1"/><path id="path155" d="M 6.5,8.5 L 10.5,10.5" style="fill:#000;fill-opacity:1;fill-rule:evenodd;stroke:#fff;stroke-width:1;stroke-linecap:round;stroke-linejoin:miter;stroke-miterlimit:4;stroke-dasharray:none;stroke-opacity:1"/><path id="path157" d="M 14.5625 6.5 A 4.28125 3.5 0 1 1 6,6.5 A 4.28125 3.5 0 1 1 14.5625 6.5 z" transform="matrix(1.0510949,0,0,1.2857143,-2.8065695,-3.3571429)" style="fill:url(#radialGradient3396);fill-opacity:1;stroke:url(#radialGradient3398);stroke-width:.86021465;stroke-linecap:round;stroke-linejoin:round;stroke-miterlimit:4;stroke-dasharray:none;stroke-dashoffset:0;stroke-opacity:1"/><g id="g159" transform="matrix(0.7573052,0,0,0.7573052,-6.7820614,3.1213474)"><path id="path161" d="M 11 2.25 A 1.796875 1.75 0 1 1 7.40625,2.25 A 1.796875 1.75 0 1 1 11 2.25 z" transform="matrix(1.1130433,0,0,1.1428572,9.2565233,-7.1428636e-2)" style="opacity:1;fill:#eeeeec;fill-opacity:1;stroke:#555753;stroke-width:1.17078459;stroke-linecap:round;stroke-linejoin:round;stroke-miterlimit:4;stroke-dasharray:none;stroke-dashoffset:0;stroke-opacity:1"/><path id="path163" d="M 20 1.5 A 0.5 0.5 0 1 1 19,1.5 A 0.5 0.5 0 1 1 20 1.5 z" transform="matrix(1.8125,0,0,1.8125,-16.4375,-1.125)" style="opacity:1;fill:#fff;fill-opacity:1;stroke:none;stroke-width:1;stroke-linecap:round;stroke-linejoin:round;stroke-miterlimit:4;stroke-dasharray:none;stroke-dashoffset:0;stroke-opacity:1"/></g></g></g></svg>