<svg xmlns="http://www.w3.org/2000/svg" xmlns:svg="http://www.w3.org/2000/svg" xmlns:xlink="http://www.w3.org/1999/xlink" id="svg11300" width="400" height="300" version="1.0" style="display:inline;enable-background:new"><title id="title8836">Optical Drive</title><metadata id="metadata154"/><defs id="defs3"><linearGradient id="linearGradient6986"><stop id="stop6988" offset="0" style="stop-color:#000;stop-opacity:1"/><stop id="stop6990" offset="1" style="stop-color:#000;stop-opacity:0"/></linearGradient><linearGradient id="linearGradient6957"><stop id="stop6959" offset="0" style="stop-color:#888a85;stop-opacity:0"/><stop id="stop6961" offset="1" style="stop-color:#888a85;stop-opacity:1"/></linearGradient><linearGradient id="linearGradient6936"><stop id="stop6938" offset="0" style="stop-color:#babdb6;stop-opacity:1"/><stop id="stop6940" offset="1" style="stop-color:#eeeeec;stop-opacity:1"/></linearGradient><linearGradient id="linearGradient6928"><stop id="stop6930" offset="0" style="stop-color:#fff;stop-opacity:1"/><stop id="stop6932" offset="1" style="stop-color:#fff;stop-opacity:0"/></linearGradient><linearGradient id="linearGradient3374"><stop id="stop3376" offset="0" style="stop-color:#729fcf;stop-opacity:1"/><stop id="stop3378" offset="1" style="stop-color:#729fcf;stop-opacity:0"/></linearGradient><linearGradient id="linearGradient3362"><stop id="stop3364" offset="0" style="stop-color:#3465a4;stop-opacity:1"/><stop id="stop3366" offset="1" style="stop-color:#3465a4;stop-opacity:0"/></linearGradient><linearGradient id="linearGradient3268"><stop id="stop3270" offset="0" style="stop-color:#000;stop-opacity:1"/><stop id="stop3272" offset="1" style="stop-color:#000;stop-opacity:0"/></linearGradient><radialGradient id="radialGradient3274" cx="10.737" cy="19.5" r="8.263" fx="10.737" fy="19.5" gradientTransform="matrix(1,0,0,0.3025696,0,13.599894)" gradientUnits="userSpaceOnUse" xlink:href="#linearGradient3268"/><radialGradient id="radialGradient3392" cx="10.281" cy="8.071" r="4.525" fx="10.281" fy="8.071" gradientTransform="matrix(1,0,0,0.8273492,0,1.1222303)" gradientUnits="userSpaceOnUse" xlink:href="#linearGradient3374"/><radialGradient id="radialGradient3394" cx="10.281" cy="9.842" r="4.525" fx="10.281" fy="9.842" gradientTransform="matrix(4.680847,0,0,1.2767377,-37.843708,-3.3008494)" gradientUnits="userSpaceOnUse" xlink:href="#linearGradient3362"/><radialGradient id="radialGradient3396" cx="10.281" cy="7.825" r="4.525" fx="10.281" fy="7.825" gradientTransform="matrix(0.6984472,0,0,0.5778597,3.1003396,2.7439118)" gradientUnits="userSpaceOnUse" xlink:href="#linearGradient3374"/><radialGradient id="radialGradient3398" cx="10.281" cy="9.842" r="4.525" fx="10.281" fy="9.842" gradientTransform="matrix(4.680847,0,0,1.2767377,-37.843708,-3.3008494)" gradientUnits="userSpaceOnUse" xlink:href="#linearGradient3362"/><linearGradient id="linearGradient6970" x1="16.25" x2="15.631" y1="19.159" y2="12.395" gradientUnits="userSpaceOnUse" xlink:href="#linearGradient6936"/><linearGradient id="linearGradient6972" x1="13.125" x2="18.125" y1="12.75" y2="27.438" gradientUnits="userSpaceOnUse" xlink:href="#linearGradient6928"/><radialGradient id="radialGradient6974" cx="15.662" cy="15.876" r="1.703" fx="15.662" fy="15.876" gradientTransform="matrix(2.2343144,0,0,3.5249431,-19.996079,-40.612086)" gradientUnits="userSpaceOnUse" xlink:href="#linearGradient6957"/><radialGradient id="radialGradient6992" cx="16.5" cy="18.75" r="5.5" fx="16.5" fy="18.75" gradientTransform="matrix(1,0,0,0.5,0,9.375)" gradientUnits="userSpaceOnUse" xlink:href="#linearGradient6986"/><linearGradient id="linearGradient7025"><stop id="stop7027" offset="0" style="stop-color:#fff;stop-opacity:1"/><stop id="stop7029" offset="1" style="stop-color:#fff;stop-opacity:0"/></linearGradient><linearGradient id="linearGradient6941"><stop id="stop6943" offset="0" style="stop-color:#888a85;stop-opacity:0"/><stop id="stop6945" offset="1" style="stop-color:#888a85;stop-opacity:1"/></linearGradient><radialGradient id="radialGradient6947" cx="11.912" cy="11.422" r=".938" fx="11.912" fy="11.422" gradientTransform="matrix(2.276954,-4.3346294e-8,0,4.0788598,-15.122201,-35.166333)" gradientUnits="userSpaceOnUse" xlink:href="#linearGradient6941"/><radialGradient id="radialGradient7031" cx="11.375" cy="8.92" r="4.375" fx="11.375" fy="8.92" gradientTransform="matrix(-2.7427798,0,0,-1.5515066,42.574113,22.894802)" gradientUnits="userSpaceOnUse" xlink:href="#linearGradient7025"/></defs><g id="layer6" style="display:none"><rect id="rect6749" width="22" height="22" x="303" y="177" style="fill:#eeeeec;fill-opacity:1;fill-rule:nonzero;stroke:none;stroke-width:2;marker:none;visibility:visible;display:inline;overflow:visible;enable-background:accumulate"/><rect id="rect6833" width="16" height="16" x="303" y="219" style="fill:#eeeeec;fill-opacity:1;fill-rule:nonzero;stroke:none;stroke-width:2;marker:none;visibility:visible;display:inline;overflow:visible;enable-background:accumulate"/><text id="context" x="20.971" y="21.514" xml:space="preserve" style="font-size:18.30070686px;font-style:normal;font-weight:400;fill:#000;fill-opacity:1;stroke:none;display:inline;enable-background:new;font-family:Bitstream Vera Sans"><tspan id="tspan2716" x="20.971" y="21.514">status</tspan></text><text id="icon-name" x="191.971" y="21.514" xml:space="preserve" style="font-size:18.30070686px;font-style:normal;font-variant:normal;font-weight:700;font-stretch:normal;text-align:start;line-height:125%;writing-mode:lr-tb;text-anchor:start;fill:#000;fill-opacity:1;stroke:none;display:inline;enable-background:new;font-family:Droid Sans;-inkscape-font-specification:Droid Sans Bold"><tspan id="tspan3023" x="191.971" y="21.514">network-wireless-encrypted</tspan></text></g><g id="layer2" style="display:inline"><g id="g22" transform="translate(303,177) scale(1.000000,1.000000)" style="display:inline;enable-background:new"><path id="path3319" d="M 14.5625 6.5 A 4.28125 3.5 0 1 1 6,6.5 A 4.28125 3.5 0 1 1 14.5625 6.5 z" transform="matrix(1.8686133,0,0,2.2857143,-8.7116804,-8.3571429)" style="fill:url(#radialGradient3392);fill-opacity:1;stroke:url(#radialGradient3394);stroke-width:.48387069;stroke-linecap:round;stroke-linejoin:round;stroke-miterlimit:4;stroke-dasharray:none;stroke-dashoffset:0;stroke-opacity:1"/><path id="path3222" d="M 8.5,12 L 13,14" style="fill:none;fill-opacity:1;fill-rule:evenodd;stroke:#888a85;stroke-width:3;stroke-linecap:round;stroke-linejoin:miter;stroke-miterlimit:4;stroke-dasharray:none;stroke-opacity:1"/><path id="path3258" d="M 19 19.5 A 8.2625628 2.5 0 1 1 2.4748745,19.5 A 8.2625628 2.5 0 1 1 19 19.5 z" transform="matrix(1.1497643,0,0,1.2,-1.8455223,-4.4)" style="opacity:.25;fill:url(#radialGradient3274);fill-opacity:1;stroke:none;stroke-width:1;stroke-linecap:round;stroke-linejoin:round;stroke-miterlimit:4;stroke-dasharray:none;stroke-dashoffset:0;stroke-opacity:1"/><path id="path3203" d="M 10.5,6.5 L 15.5,19.5" style="fill:none;fill-opacity:1;fill-rule:evenodd;stroke:#888a85;stroke-width:3;stroke-linecap:round;stroke-linejoin:miter;stroke-miterlimit:4;stroke-dasharray:none;stroke-opacity:1"/><path id="path3209" d="M 7,17.5 L 15.5,19.5" style="fill:none;fill-opacity:1;fill-rule:evenodd;stroke:#888a85;stroke-width:3;stroke-linecap:round;stroke-linejoin:miter;stroke-miterlimit:4;stroke-dasharray:none;stroke-opacity:1"/><path id="path3218" d="M 7,17.5 L 13,14" style="fill:none;fill-opacity:1;fill-rule:evenodd;stroke:#888a85;stroke-width:3;stroke-linecap:round;stroke-linejoin:miter;stroke-miterlimit:4;stroke-dasharray:none;stroke-opacity:1"/><g id="g3179" transform="translate(-8,3)"><path id="path5726" d="M 18.5,3.5 L 13.5,16.5" style="fill:none;fill-opacity:1;fill-rule:evenodd;stroke:#888a85;stroke-width:3;stroke-linecap:round;stroke-linejoin:miter;stroke-miterlimit:4;stroke-dasharray:none;stroke-opacity:1"/><path id="path3186" d="M 18.5,3.5 L 13.5,16.5" style="fill:none;fill-opacity:1;fill-rule:evenodd;stroke:#fff;stroke-width:1;stroke-linecap:round;stroke-linejoin:miter;stroke-miterlimit:4;stroke-dasharray:none;stroke-opacity:1"/></g><path id="path3205" d="M 7,17.5 L 15.5,19.5" style="fill:none;fill-opacity:1;fill-rule:evenodd;stroke:#fff;stroke-width:1;stroke-linecap:round;stroke-linejoin:miter;stroke-miterlimit:4;stroke-dasharray:none;stroke-opacity:1"/><path id="path6976" d="M 22 18.75 A 5.5 2.75 0 1 1 11,18.75 A 5.5 2.75 0 1 1 22 18.75 z" transform="matrix(1,0,0,0.7272724,0,6.8636418)" style="opacity:.3;fill:url(#radialGradient6992);fill-opacity:1;fill-rule:evenodd;stroke:none;stroke-width:1;stroke-linecap:square;stroke-linejoin:miter;stroke-miterlimit:4;stroke-dasharray:none;stroke-dashoffset:.69999992;stroke-opacity:1"/><path id="path3216" d="M 10.5,6.5 L 15.5,19.5" style="fill:none;fill-opacity:1;fill-rule:evenodd;stroke:#fff;stroke-width:1;stroke-linecap:round;stroke-linejoin:miter;stroke-miterlimit:4;stroke-dasharray:none;stroke-opacity:1"/><path id="path3220" d="M 7,17.5 L 13,14" style="fill:none;fill-opacity:1;fill-rule:evenodd;stroke:#fff;stroke-width:1;stroke-linecap:round;stroke-linejoin:miter;stroke-miterlimit:4;stroke-dasharray:none;stroke-opacity:1"/><path id="path3224" d="M 8.5,12 L 13,14" style="fill:none;fill-opacity:1;fill-rule:evenodd;stroke:#fff;stroke-width:1;stroke-linecap:round;stroke-linejoin:miter;stroke-miterlimit:4;stroke-dasharray:none;stroke-opacity:1"/><path id="path3382" d="M 14.5625 6.5 A 4.28125 3.5 0 1 1 6,6.5 A 4.28125 3.5 0 1 1 14.5625 6.5 z" transform="matrix(1.1678832,0,0,1.4285714,-1.5072991,-2.7857142)" style="fill:url(#radialGradient3396);fill-opacity:1;stroke:url(#radialGradient3398);stroke-width:.77419317;stroke-linecap:round;stroke-linejoin:round;stroke-miterlimit:4;stroke-dasharray:none;stroke-dashoffset:0;stroke-opacity:1"/><g id="g3232" transform="translate(-9,4)"><path id="path3234" d="M 11 2.25 A 1.796875 1.75 0 1 1 7.40625,2.25 A 1.796875 1.75 0 1 1 11 2.25 z" transform="matrix(1.1130433,0,0,1.1428572,9.2565233,-7.1428636e-2)" style="opacity:1;fill:#eeeeec;fill-opacity:1;stroke:#555753;stroke-width:.88664132;stroke-linecap:round;stroke-linejoin:round;stroke-miterlimit:4;stroke-dasharray:none;stroke-dashoffset:0;stroke-opacity:1"/><path id="path3236" d="M 20 1.5 A 0.5 0.5 0 1 1 19,1.5 A 0.5 0.5 0 1 1 20 1.5 z" transform="matrix(1.8125,0,0,1.8125,-16.4375,-1.125)" style="opacity:1;fill:#fff;fill-opacity:1;stroke:none;stroke-width:1;stroke-linecap:round;stroke-linejoin:round;stroke-miterlimit:4;stroke-dasharray:none;stroke-dashoffset:0;stroke-opacity:1"/></g><g id="g6965"><path id="rect5952" d="M 11.5,12.5 L 16.500001,10.5 L 21.499998,12.5 C 21.499998,21.014693 16.499999,21.5 16.499999,21.5 C 16.499999,21.5 11.5,21.014693 11.5,12.5 z" style="opacity:1;fill:url(#linearGradient6970);fill-opacity:1;fill-rule:evenodd;stroke:#7f817b;stroke-width:.99999988;stroke-linecap:square;stroke-linejoin:miter;stroke-miterlimit:4;stroke-dashoffset:.69999992;stroke-opacity:1"/><path id="path6926" d="M 16.5,11.5 L 12.53125,13.09375 C 12.665096,16.658672 13.675615,18.569838 14.65625,19.5 C 15.619582,20.41375 16.371535,20.517016 16.5,20.53125 C 16.628465,20.517016 17.380418,20.41375 18.34375,19.5 C 19.324385,18.569838 20.334904,16.658672 20.46875,13.09375 L 16.5,11.5 z" style="opacity:.80075187;fill:none;fill-opacity:1;fill-rule:evenodd;stroke:url(#linearGradient6972);stroke-width:.99999988;stroke-linecap:square;stroke-linejoin:miter;stroke-miterlimit:4;stroke-dashoffset:.69999992;stroke-opacity:1"/><path id="path6944" d="M 16.5,12.0625 L 16.5,20 C 16.596126,19.991643 17.13238,19.979215 18,19.15625 C 18.839422,18.360032 19.709579,16.595801 19.90625,13.4375 L 16.5,12.0625 z" style="opacity:.80075187;fill:url(#radialGradient6974);fill-opacity:1;fill-rule:evenodd;stroke:none;stroke-width:.99999988;stroke-linecap:square;stroke-linejoin:miter;stroke-miterlimit:4;stroke-dashoffset:.69999992;stroke-opacity:1"/></g></g><g id="g16" transform="translate(303,219) scale(1.000000,1.000000)" style="display:inline;enable-background:new"><path id="path86" d="M 14.5625 6.5 A 4.28125 3.5 0 1 1 6,6.5 A 4.28125 3.5 0 1 1 14.5625 6.5 z" transform="matrix(1.7518249,0,0,2.142857,-10.010949,-8.92857)" style="fill:url(#radialGradient3392);fill-opacity:1;stroke:url(#radialGradient3394);stroke-width:.51612878;stroke-linecap:round;stroke-linejoin:round;stroke-miterlimit:4;stroke-dasharray:none;stroke-dashoffset:0;stroke-opacity:1"/><path id="path5962" d="M 8,5 L 3.5,14.5" style="fill:#000;fill-opacity:1;fill-rule:evenodd;stroke:#888a85;stroke-width:3;stroke-linecap:round;stroke-linejoin:miter;stroke-miterlimit:4;stroke-dasharray:none;stroke-opacity:1"/><path id="path5964" d="M 4.5,12.5 L 12,13.5" style="fill:#000;fill-opacity:1;fill-rule:evenodd;stroke:#888a85;stroke-width:3;stroke-linecap:round;stroke-linejoin:miter;stroke-miterlimit:4;stroke-dasharray:none;stroke-opacity:1"/><path id="path5966" d="M 8,5 L 11.5,13.5" style="fill:#000;fill-opacity:1;fill-rule:evenodd;stroke:#888a85;stroke-width:3;stroke-linecap:round;stroke-linejoin:miter;stroke-miterlimit:4;stroke-dasharray:none;stroke-opacity:1"/><path id="path5968" d="M 4.5,12.5 L 10.5,10.5" style="fill:#000;fill-opacity:1;fill-rule:evenodd;stroke:#888a85;stroke-width:3;stroke-linecap:round;stroke-linejoin:miter;stroke-miterlimit:4;stroke-dasharray:none;stroke-opacity:1"/><path id="path5970" d="M 6.5,8.5 L 10.5,10.5" style="fill:#000;fill-opacity:1;fill-rule:evenodd;stroke:#888a85;stroke-width:3;stroke-linecap:round;stroke-linejoin:miter;stroke-miterlimit:4;stroke-dasharray:none;stroke-opacity:1"/><path id="path93" d="M 8,5 L 3.5,14.5" style="fill:#000;fill-opacity:1;fill-rule:evenodd;stroke:#fff;stroke-width:1;stroke-linecap:round;stroke-linejoin:miter;stroke-miterlimit:4;stroke-dasharray:none;stroke-opacity:1"/><path id="path95" d="M 4.5,12.5 L 12,13.5" style="fill:#000;fill-opacity:1;fill-rule:evenodd;stroke:#fff;stroke-width:1;stroke-linecap:round;stroke-linejoin:miter;stroke-miterlimit:4;stroke-dasharray:none;stroke-opacity:1"/><path id="path97" d="M 8,5 L 12.5,14.5" style="fill:#000;fill-opacity:1;fill-rule:evenodd;stroke:#fff;stroke-width:1;stroke-linecap:round;stroke-linejoin:miter;stroke-miterlimit:4;stroke-dasharray:none;stroke-opacity:1"/><path id="path99" d="M 4.5,12.5 L 10.5,10.5" style="fill:#000;fill-opacity:1;fill-rule:evenodd;stroke:#fff;stroke-width:1;stroke-linecap:round;stroke-linejoin:miter;stroke-miterlimit:4;stroke-dasharray:none;stroke-opacity:1"/><path id="path101" d="M 6.5,8.5 L 10.5,10.5" style="fill:#000;fill-opacity:1;fill-rule:evenodd;stroke:#fff;stroke-width:1;stroke-linecap:round;stroke-linejoin:miter;stroke-miterlimit:4;stroke-dasharray:none;stroke-opacity:1"/><path id="path103" d="M 14.5625 6.5 A 4.28125 3.5 0 1 1 6,6.5 A 4.28125 3.5 0 1 1 14.5625 6.5 z" transform="matrix(1.0510949,0,0,1.2857143,-2.8065695,-3.3571429)" style="fill:url(#radialGradient3396);fill-opacity:1;stroke:url(#radialGradient3398);stroke-width:.86021465;stroke-linecap:round;stroke-linejoin:round;stroke-miterlimit:4;stroke-dasharray:none;stroke-dashoffset:0;stroke-opacity:1"/><g id="g105" transform="matrix(0.7573052,0,0,0.7573052,-6.7820614,3.1213474)"><path id="path107" d="M 11 2.25 A 1.796875 1.75 0 1 1 7.40625,2.25 A 1.796875 1.75 0 1 1 11 2.25 z" transform="matrix(1.1130433,0,0,1.1428572,9.2565233,-7.1428636e-2)" style="opacity:1;fill:#eeeeec;fill-opacity:1;stroke:#555753;stroke-width:1.17078459;stroke-linecap:round;stroke-linejoin:round;stroke-miterlimit:4;stroke-dasharray:none;stroke-dashoffset:0;stroke-opacity:1"/><path id="path109" d="M 20 1.5 A 0.5 0.5 0 1 1 19,1.5 A 0.5 0.5 0 1 1 20 1.5 z" transform="matrix(1.8125,0,0,1.8125,-16.4375,-1.125)" style="opacity:1;fill:#fff;fill-opacity:1;stroke:none;stroke-width:1;stroke-linecap:round;stroke-linejoin:round;stroke-miterlimit:4;stroke-dasharray:none;stroke-dashoffset:0;stroke-opacity:1"/></g><path id="path6985" d="M 12,6 C 11.088349,6.0020238 10.202831,6.1460095 9.4375,6.375 C 8.6721694,6.6039905 8.0465074,6.8284926 7.4375,7.4375 C 7.1564327,7.7195659 6.99904,8.1018053 7,8.5 C 7,11.287862 7.5986162,13.246133 8.4375,14.5625 L 11.03125,14.90625 L 11.15625,15.15625 L 13.84375,13.84375 L 13.46875,13.09375 C 13.442014,12.999277 13.387687,12.89904 13.34375,12.8125 L 12.6875,11.46875 C 14.205193,10.366628 15.296624,8.7524743 15.75,6.875 C 15.380213,6.6739406 14.999882,6.506566 14.5625,6.375 C 13.796612,6.1446184 12.921641,5.9979539 12,6 z" style="fill:url(#radialGradient7031);fill-opacity:1;fill-rule:evenodd;stroke:none;stroke-width:3;stroke-linecap:round;stroke-linejoin:miter;stroke-miterlimit:4;stroke-dasharray:none;stroke-opacity:1;opacity:.4"/><path id="rect5946" d="M 8.5,8.5 C 8.9966701,8.0033299 10.510034,7.5033077 12,7.5 C 13.509945,7.4966478 14.99667,7.9966701 15.5,8.5 C 15.5,15 12,15.5 12,15.5 C 12,15.5 8.5,15 8.5,8.5 z" style="fill:url(#linearGradient6957);fill-opacity:1;fill-rule:evenodd;stroke:#7f817b;stroke-width:1;stroke-linecap:square;stroke-linejoin:round;stroke-miterlimit:4;stroke-dashoffset:.69999992;stroke-opacity:1"/><path id="path6920" d="M 12,8.5 C 11.365364,8.5014089 10.691117,8.6212152 10.15625,8.78125 C 9.8282297,8.8793952 9.7346397,8.9369237 9.5625,9.03125 C 9.670028,11.649394 10.340516,13.076892 10.96875,13.75 C 11.572443,14.396814 11.906926,14.424341 12,14.4375 C 12.093074,14.424341 12.427557,14.396814 13.03125,13.75 C 13.662465,13.073698 14.335449,11.643169 14.4375,9 C 14.265539,8.9048835 14.164237,8.8464035 13.84375,8.75 C 13.314786,8.5908861 12.644626,8.4985689 12,8.5 z" style="fill:none;fill-opacity:1;fill-rule:evenodd;stroke:url(#linearGradient6928);stroke-width:1;stroke-linecap:square;stroke-linejoin:miter;stroke-miterlimit:4;stroke-dashoffset:.69999992;stroke-opacity:1"/><path id="path6930" d="M 12,9 L 12,13.84375 C 12.106874,13.820143 12.225827,13.867418 12.65625,13.40625 C 13.16045,12.866036 13.719351,11.59064 13.875,9.34375 C 13.77354,9.2989191 13.810889,9.2871157 13.6875,9.25 C 13.208128,9.1058035 12.586643,8.9986976 12,9 z" style="fill:url(#radialGradient6947);fill-opacity:1;fill-rule:evenodd;stroke:none;stroke-width:1;stroke-linecap:square;stroke-linejoin:miter;stroke-miterlimit:4;stroke-dashoffset:.69999992;stroke-opacity:1"/></g></g></svg>