<svg xmlns="http://www.w3.org/2000/svg" xmlns:svg="http://www.w3.org/2000/svg" xmlns:xlink="http://www.w3.org/1999/xlink" id="svg11300" width="400" height="300" version="1.0" style="display:inline;enable-background:new"><title id="title8836">Optical Drive</title><metadata id="metadata154"/><defs id="defs3"><linearGradient id="linearGradient4606"><stop style="stop-color:#000;stop-opacity:1" id="stop4608" offset="0"/><stop style="stop-color:#000;stop-opacity:0" id="stop4610" offset="1"/></linearGradient><linearGradient id="linearGradient4598"><stop style="stop-color:#fff;stop-opacity:1" id="stop4600" offset="0"/><stop style="stop-color:#fff;stop-opacity:0" id="stop4602" offset="1"/></linearGradient><linearGradient id="linearGradient4374"><stop style="stop-color:#fff;stop-opacity:1" id="stop4376" offset="0"/><stop style="stop-color:#fff;stop-opacity:0" id="stop4378" offset="1"/></linearGradient><linearGradient id="linearGradient4206"><stop style="stop-color:#fff;stop-opacity:1" id="stop4208" offset="0"/><stop style="stop-color:#babdb6;stop-opacity:1" id="stop4210" offset="1"/></linearGradient><linearGradient id="linearGradient4175"><stop style="stop-color:#babdb6;stop-opacity:1" id="stop4177" offset="0"/><stop style="stop-color:#fff;stop-opacity:1" id="stop4179" offset="1"/></linearGradient><linearGradient id="linearGradient4097"><stop style="stop-color:#000;stop-opacity:1" id="stop4099" offset="0"/><stop style="stop-color:#000;stop-opacity:0" id="stop4101" offset="1"/></linearGradient><linearGradient id="linearGradient3989"><stop style="stop-color:#babdb6;stop-opacity:1" id="stop3991" offset="0"/><stop style="stop-color:#eeeeec;stop-opacity:1" id="stop3993" offset="1"/></linearGradient><linearGradient id="linearGradient3983"><stop style="stop-color:#555753;stop-opacity:1" id="stop3985" offset="0"/><stop style="stop-color:#888a85;stop-opacity:1" id="stop3987" offset="1"/></linearGradient><linearGradient id="linearGradient4321"><stop style="stop-color:#d3d7cf;stop-opacity:1" id="stop4323" offset="0"/><stop style="stop-color:#eeeeec;stop-opacity:1" id="stop4325" offset="1"/></linearGradient><linearGradient id="linearGradient4181"><stop style="stop-color:#888a85;stop-opacity:1" id="stop4183" offset="0"/><stop style="stop-color:#babdb6;stop-opacity:1" id="stop4185" offset="1"/></linearGradient><linearGradient id="linearGradient3301"><stop style="stop-color:#eeeeec;stop-opacity:1" id="stop3303" offset="0"/><stop style="stop-color:#babdb6;stop-opacity:1" id="stop3305" offset="1"/></linearGradient><linearGradient id="linearGradient7340"><stop id="stop7342" offset="0" style="stop-color:#555753;stop-opacity:1"/><stop id="stop7344" offset="1" style="stop-color:#888a85;stop-opacity:1"/></linearGradient><linearGradient id="linearGradient6991"><stop id="stop6993" offset="0" style="stop-color:#d3d7cf;stop-opacity:1"/><stop id="stop6995" offset="1" style="stop-color:#fff;stop-opacity:1"/></linearGradient><linearGradient id="linearGradient7019"><stop id="stop7021" offset="0" style="stop-color:#9ebdde;stop-opacity:1"/><stop id="stop7023" offset="1" style="stop-color:#9ebdde;stop-opacity:0"/></linearGradient><linearGradient id="linearGradient7011"><stop id="stop7013" offset="0" style="stop-color:#3465a4;stop-opacity:1"/><stop id="stop7015" offset="1" style="stop-color:#3465a4;stop-opacity:0"/></linearGradient><linearGradient id="linearGradient7113"><stop id="stop7115" offset="0" style="stop-color:#fce94f;stop-opacity:1"/><stop id="stop7117" offset="1" style="stop-color:#fce94f;stop-opacity:0"/></linearGradient><linearGradient id="linearGradient5940"><stop id="stop5942" offset="0" style="stop-color:#2e3436;stop-opacity:1"/><stop id="stop5944" offset="1" style="stop-color:#555753;stop-opacity:1"/></linearGradient><linearGradient id="linearGradient7119" x1="-5.469" x2="-5.469" y1="10" y2="8.499" gradientUnits="userSpaceOnUse" xlink:href="#linearGradient7113"/><linearGradient id="linearGradient3103" x1="-6" x2="-8.818" y1="11.652" y2="1.162" gradientTransform="translate(324,219)" gradientUnits="userSpaceOnUse" xlink:href="#linearGradient6991"/><linearGradient id="linearGradient3138" x1="-6.625" x2="-6.625" y1="7.676" y2="9.162" gradientTransform="translate(322,178)" gradientUnits="userSpaceOnUse" xlink:href="#linearGradient5940"/><linearGradient id="linearGradient3143" x1="-2.642" x2="-7.506" y1="19.709" y2="2.225" gradientTransform="translate(322.00002,178)" gradientUnits="userSpaceOnUse" xlink:href="#linearGradient6991"/><linearGradient id="linearGradient3202" x1="17.55" x2="20.711" y1="7.197" y2="14.261" gradientTransform="matrix(1.1428571,0,0,1.1374457,299.14286,122.57305)" gradientUnits="userSpaceOnUse" xlink:href="#linearGradient3983"/><linearGradient id="linearGradient3261" x1="25.054" x2="27.755" y1="16.167" y2="24.536" gradientTransform="matrix(1.0874899,0,0,1.086371,294.41905,40.056653)" gradientUnits="userSpaceOnUse" xlink:href="#linearGradient7340"/><linearGradient id="linearGradient3278" x1="-6.411" x2="-10.072" y1="25.756" y2="1.873" gradientTransform="matrix(1.4999997,0,0,1.4,336.25,52.8)" gradientUnits="userSpaceOnUse" xlink:href="#linearGradient6991"/><linearGradient id="linearGradient3307" x1="309.4" x2="309.4" y1="226.124" y2="223.498" gradientTransform="translate(1,0)" gradientUnits="userSpaceOnUse" xlink:href="#linearGradient3301"/><linearGradient id="linearGradient7098-5"><stop id="stop7100-5" offset="0" style="stop-color:#9ebdde;stop-opacity:1"/><stop id="stop7102-0" offset="1" style="stop-color:#729fcf;stop-opacity:0"/></linearGradient><linearGradient id="linearGradient7090-1"><stop id="stop7092-9" offset="0" style="stop-color:#3465a4;stop-opacity:1"/><stop id="stop7094-7" offset="1" style="stop-color:#3465a4;stop-opacity:0"/></linearGradient><linearGradient id="linearGradient4104" x1="15.619" x2="17.4" y1="10.556" y2="14.525" gradientTransform="translate(364.16,-65.760933)" gradientUnits="userSpaceOnUse" xlink:href="#linearGradient7098-5"/><linearGradient id="linearGradient4106" x1="14.275" x2="16.056" y1="12.65" y2="16.119" gradientTransform="translate(364.16,-65.760933)" gradientUnits="userSpaceOnUse" xlink:href="#linearGradient7090-1"/><linearGradient id="linearGradient4187" x1="308.977" x2="307.808" y1="227.873" y2="219" gradientTransform="translate(1,0)" gradientUnits="userSpaceOnUse" xlink:href="#linearGradient4181"/><linearGradient id="linearGradient4327" x1="313.578" x2="313.578" y1="184.281" y2="185.502" gradientUnits="userSpaceOnUse" xlink:href="#linearGradient4321"/><linearGradient id="linearGradient7098-5-4"><stop id="stop7100-5-6" offset="0" style="stop-color:#9ebdde;stop-opacity:1"/><stop id="stop7102-0-9" offset="1" style="stop-color:#729fcf;stop-opacity:0"/></linearGradient><linearGradient id="linearGradient7090-1-4"><stop id="stop7092-9-0" offset="0" style="stop-color:#3465a4;stop-opacity:1"/><stop id="stop7094-7-5" offset="1" style="stop-color:#3465a4;stop-opacity:0"/></linearGradient><linearGradient id="linearGradient3133" x1="15.619" x2="17.4" y1="10.556" y2="14.525" gradientTransform="matrix(0.70710678,0.70710678,-0.70710678,0.70710678,305.00001,175)" gradientUnits="userSpaceOnUse" xlink:href="#linearGradient7098-5-4"/><linearGradient id="linearGradient3135" x1="14.275" x2="16.056" y1="12.65" y2="16.119" gradientTransform="matrix(0.70710678,0.70710678,-0.70710678,0.70710678,305.00001,175)" gradientUnits="userSpaceOnUse" xlink:href="#linearGradient7090-1-4"/><linearGradient id="linearGradient3073" x1="19.976" x2="21.744" y1="26.166" y2="30.939" gradientTransform="translate(304,124)" gradientUnits="userSpaceOnUse" xlink:href="#linearGradient7019"/><linearGradient id="linearGradient3075" x1="23.158" x2="24.926" y1="26.166" y2="31.735" gradientTransform="translate(304,124)" gradientUnits="userSpaceOnUse" xlink:href="#linearGradient7011"/><linearGradient id="linearGradient3995" x1="324.656" x2="324.656" y1="133.842" y2="137.976" gradientTransform="matrix(0.83333333,0,0,1,53.166667,0)" gradientUnits="userSpaceOnUse" xlink:href="#linearGradient3989"/><linearGradient id="linearGradient3999" x1="-9.538" x2="-11.568" y1="17.405" y2=".091" gradientTransform="matrix(2.0000002,0,0,1.9333333,346.5,126.53333)" gradientUnits="userSpaceOnUse" xlink:href="#linearGradient6991"/><filter id="filter4039" width="1.227" height="1.255" x="-.113" y="-.128"><feGaussianBlur id="feGaussianBlur4041" stdDeviation=".85"/></filter><radialGradient id="radialGradient4105" cx="309.941" cy="157.401" r="13.985" fx="309.941" fy="157.401" gradientTransform="matrix(3.121138,-0.57413945,0.17064323,0.92765117,-698.22361,185.85881)" gradientUnits="userSpaceOnUse" xlink:href="#linearGradient4097"/><filter id="filter4139"><feGaussianBlur id="feGaussianBlur4141" stdDeviation=".497"/></filter><linearGradient id="linearGradient4182" x1="326.507" x2="326.507" y1="61.705" y2="60.689" gradientUnits="userSpaceOnUse" xlink:href="#linearGradient4175"/><linearGradient id="linearGradient4212" x1="322.313" x2="328.378" y1="62.625" y2="68.741" gradientTransform="matrix(0.75,0,0,0.83333333,81.625,10.416667)" gradientUnits="userSpaceOnUse" xlink:href="#linearGradient4206"/><linearGradient id="linearGradient4206-9"><stop style="stop-color:#fff;stop-opacity:1" id="stop4208-2" offset="0"/><stop style="stop-color:#babdb6;stop-opacity:1" id="stop4210-9" offset="1"/></linearGradient><linearGradient id="linearGradient4231" x1="325.375" x2="328.378" y1="63.274" y2="68.741" gradientTransform="matrix(0.5,0,0,0.5,-489.74999,-97.749995)" gradientUnits="userSpaceOnUse" xlink:href="#linearGradient4206-9"/><linearGradient id="linearGradient3983-4"><stop style="stop-color:#555753;stop-opacity:1" id="stop3985-7" offset="0"/><stop style="stop-color:#888a85;stop-opacity:1" id="stop3987-8" offset="1"/></linearGradient><linearGradient id="linearGradient4269" x1="17.55" x2="20.711" y1="7.197" y2="14.261" gradientTransform="matrix(1.1428571,0,0,1.1374457,299.14286,122.57305)" gradientUnits="userSpaceOnUse" xlink:href="#linearGradient3983-4"/><linearGradient id="linearGradient7340-2"><stop id="stop7342-3" offset="0" style="stop-color:#555753;stop-opacity:1"/><stop id="stop7344-1" offset="1" style="stop-color:#888a85;stop-opacity:1"/></linearGradient><linearGradient id="linearGradient4307" x1="25.054" x2="27.755" y1="16.167" y2="24.536" gradientTransform="matrix(1.0874899,0,0,1.086371,294.41905,40.056658)" gradientUnits="userSpaceOnUse" xlink:href="#linearGradient7340-2"/><linearGradient id="linearGradient4380" x1="320" x2="330.25" y1="60.75" y2="87.75" gradientUnits="userSpaceOnUse" xlink:href="#linearGradient4374"/><linearGradient id="linearGradient4206-9-5"><stop style="stop-color:#fff;stop-opacity:1" id="stop4208-2-4" offset="0"/><stop style="stop-color:#babdb6;stop-opacity:1" id="stop4210-9-5" offset="1"/></linearGradient><linearGradient id="linearGradient4501" x1="325.375" x2="328.378" y1="63.274" y2="68.741" gradientTransform="matrix(0.5,0,0,0.5,-489.74999,-97.749995)" gradientUnits="userSpaceOnUse" xlink:href="#linearGradient4206-9-5"/><linearGradient id="linearGradient3248-0" x1="-47.165" x2="-46.15" y1="39.381" y2="44.167" gradientTransform="translate(386,50)" gradientUnits="userSpaceOnUse" xlink:href="#linearGradient7652-3"/><linearGradient id="linearGradient7652-3"><stop id="stop7654-5" offset="0" style="stop-color:#729fcf;stop-opacity:1"/><stop id="stop7656-1" offset="1" style="stop-color:#729fcf;stop-opacity:0"/></linearGradient><linearGradient id="linearGradient3250-1" x1="-48" x2="-46.75" y1="40.375" y2="45.688" gradientTransform="translate(386,50)" gradientUnits="userSpaceOnUse" xlink:href="#linearGradient7576-4"/><linearGradient id="linearGradient7576-4"><stop id="stop7578-7" offset="0" style="stop-color:#3465a4;stop-opacity:1"/><stop id="stop7580-4" offset="1" style="stop-color:#3465a4;stop-opacity:0"/></linearGradient><linearGradient id="linearGradient4604" x1="335.774" x2="336.852" y1="90.5" y2="96" gradientUnits="userSpaceOnUse" xlink:href="#linearGradient4598"/><radialGradient id="radialGradient4612" cx="306.539" cy="86.378" r="21.914" fx="306.539" fy="86.378" gradientTransform="matrix(2.2376604,-0.54035734,0.14852311,0.61504532,-392.04956,204.36749)" gradientUnits="userSpaceOnUse" xlink:href="#linearGradient4606"/><filter id="filter4618"><feGaussianBlur id="feGaussianBlur4620" stdDeviation=".897"/></filter><filter id="filter4684"><feGaussianBlur id="feGaussianBlur4686" stdDeviation=".719"/></filter></defs><g id="layer6" style="display:none"><rect id="rect6284" width="48" height="48" x="296" y="50" style="fill:#eeeeec;fill-opacity:1;fill-rule:nonzero;stroke:none;stroke-width:2;marker:none;visibility:visible;display:inline;overflow:visible;enable-background:accumulate"/><rect id="rect6592" width="32" height="32" x="303" y="126" style="fill:#eeeeec;fill-opacity:1;fill-rule:nonzero;stroke:none;stroke-width:2;marker:none;visibility:visible;display:inline;overflow:visible;enable-background:accumulate"/><rect id="rect6749-1" width="24" height="24" x="302" y="176" style="fill:#fff;fill-opacity:1;fill-rule:nonzero;stroke:none;stroke-width:2;marker:none;visibility:visible;display:inline;overflow:visible;enable-background:accumulate"/><rect id="rect6749" width="22" height="22" x="303" y="177" style="fill:#eeeeec;fill-opacity:1;fill-rule:nonzero;stroke:none;stroke-width:2;marker:none;visibility:visible;display:inline;overflow:visible;enable-background:accumulate"/><rect id="rect6833" width="16" height="16" x="303" y="219" style="fill:#eeeeec;fill-opacity:1;fill-rule:nonzero;stroke:none;stroke-width:2;marker:none;visibility:visible;display:inline;overflow:visible;enable-background:accumulate"/><text id="context" x="20.971" y="21.514" xml:space="preserve" style="font-size:18.30070686px;font-style:normal;font-weight:400;fill:#000;fill-opacity:1;stroke:none;display:inline;enable-background:new;font-family:Bitstream Vera Sans"><tspan id="tspan2716" x="20.971" y="21.514">devices</tspan></text><text id="icon-name" x="191.971" y="21.514" xml:space="preserve" style="font-size:18.30070686px;font-style:normal;font-variant:normal;font-weight:700;font-stretch:normal;text-align:start;line-height:125%;writing-mode:lr-tb;text-anchor:start;fill:#000;fill-opacity:1;stroke:none;display:inline;enable-background:new;font-family:Droid Sans;-inkscape-font-specification:Droid Sans Bold"><tspan id="tspan3023" x="191.971" y="21.514">network-wired</tspan></text></g><g id="layer2" style="display:inline"><rect style="fill:#000;fill-opacity:1;fill-rule:evenodd;stroke:#000;stroke-width:1.00000011999999994;stroke-linecap:round;stroke-linejoin:round;stroke-miterlimit:4;stroke-opacity:.99236641999999997;stroke-dasharray:none;stroke-dashoffset:.69999992;display:inline;enable-background:new;opacity:.19069767000000001;filter:url(#filter4684)" id="rect5925-9" width="24" height="21" x="315.5" y="54.5" rx="1.567" ry="1.567"/><rect style="fill:url(#linearGradient3278);fill-opacity:1;fill-rule:evenodd;stroke:#888a85;stroke-width:1.00000011999999994;stroke-linecap:round;stroke-linejoin:round;stroke-miterlimit:4;stroke-opacity:.99236641999999997;stroke-dasharray:none;stroke-dashoffset:.69999992" id="rect5925" width="24" height="21" x="314.5" y="53.5" rx="1.567" ry="1.567"/><path style="fill:url(#linearGradient4307);fill-opacity:1;fill-rule:evenodd;stroke:#fff;display:inline;enable-background:new;stroke-width:2;stroke-miterlimit:4;stroke-dasharray:none" id="rect7327-3" d="m 325.03854,59.06815 c -0.63902,0 -1.15546,0.515912 -1.15546,1.154269 l 0,0.287788 c 0,0.293222 -0.22931,0.543185 -0.54375,0.543185 l -0.12132,0 c -0.63902,0 -1.15546,0.703412 -1.15546,1.341769 l 0,5.44493 c 0,0.638358 0.51644,1.154269 1.15546,1.154269 l 6.56398,0 c 0.63902,0 1.15546,-0.515912 1.15546,-1.154269 l 0,-5.44493 c 0,-0.638358 -0.51644,-1.341769 -1.15546,-1.341769 l -0.14343,0 c -0.26177,0.01767 -0.54374,-0.186296 -0.54374,-0.526211 l 0,-0.304762 c 0,-0.638358 -0.51644,-1.154269 -1.15546,-1.154269 l -2.90082,0 z"/><path style="fill:url(#linearGradient3261);fill-opacity:1;fill-rule:evenodd;stroke:none" id="rect7327" d="m 325.03854,59.068145 c -0.63902,0 -1.15546,0.515912 -1.15546,1.154269 l 0,0.287788 c 0,0.293222 -0.22931,0.543185 -0.54375,0.543185 l -0.12132,0 c -0.63902,0 -1.15546,0.703412 -1.15546,1.341769 l 0,5.44493 c 0,0.638358 0.51644,1.154269 1.15546,1.154269 l 6.56398,0 c 0.63902,0 1.15546,-0.515912 1.15546,-1.154269 l 0,-5.44493 c 0,-0.638358 -0.51644,-1.341769 -1.15546,-1.341769 l -0.14343,0 c -0.26177,0.01767 -0.54374,-0.186296 -0.54374,-0.526211 l 0,-0.304762 c 0,-0.638358 -0.51644,-1.154269 -1.15546,-1.154269 l -2.90082,0 z"/><path style="fill:#000;fill-opacity:1;fill-rule:evenodd;stroke:#000;stroke-width:1.00000011999999994;stroke-linecap:round;stroke-linejoin:round;stroke-miterlimit:4;stroke-opacity:.99236641999999997;stroke-dashoffset:.69999992;display:inline;enable-background:new;filter:url(#filter4039);opacity:.2" id="rect207-7" d="m 314.52629,128.5 15.94743,0 c 0.56856,0 1.02628,0.45772 1.02628,1.02629 l 0,13.94742 c 0,0.56857 -0.45772,1.02629 -1.02628,1.02629 l -15.94743,0 c -0.56857,0 -1.02629,-0.45772 -1.02629,-1.02629 l 0,-13.94742 c 0,-0.56857 0.45772,-1.02629 1.02629,-1.02629 z"/><path style="fill:#fff;fill-opacity:1;fill-rule:evenodd;stroke:none" id="path200" d="m 308,138 3,0 2,0 -3,0 -2,0 z"/><path style="fill:url(#linearGradient3999);fill-opacity:1;fill-rule:evenodd;stroke:#888a85;stroke-width:1.00000011999999994;stroke-linecap:round;stroke-linejoin:round;stroke-miterlimit:4;stroke-dashoffset:.69999992;stroke-opacity:.99236641999999997" id="rect207" d="m 313.52629,127.5 15.94743,0 c 0.56856,0 1.02628,0.45772 1.02628,1.02629 l 0,13.94742 c 0,0.56857 -0.45772,1.02629 -1.02628,1.02629 l -15.94743,0 c -0.56857,0 -1.02629,-0.45772 -1.02629,-1.02629 l 0,-13.94742 c 0,-0.56857 0.45772,-1.02629 1.02629,-1.02629 z"/><path style="fill:none;stroke:#fff;stroke-width:1.00000024;stroke-linecap:round;stroke-linejoin:round;stroke-miterlimit:4;stroke-dashoffset:.69999992;stroke-opacity:.99236642" id="rect4540" d="m 313.5,128.5 16.01624,0 0,14 -16.01624,0 0,-14 z"/><path style="opacity:.27906976999999999;fill:url(#radialGradient4105);fill-opacity:1;fill-rule:evenodd;stroke:none;display:inline;enable-background:new;filter:url(#filter4139)" id="path6027-4" d="m 320.59597,136.56564 c 0,0 -11.49644,11.52132 -13.68972,13.55936 -1.09664,1.01902 -1.92098,1.88333 -2.28125,2.90625 -0.18014,0.51146 -0.16392,1.2412 0.28125,1.75 0.44517,0.5088 1.02219,0.6651 1.65625,0.71875 3.26522,0.27628 7.89308,-0.77797 12.375,-1.84375 4.48192,-1.06578 8.85037,-2.15625 10.84375,-2.15625 0.4568,0 0.51239,0.0378 0.59375,0.0625 -0.15031,0.36549 -0.82179,1.30184 -1.78125,2.21875 -2.00785,1.9188 -8.71875,7.59375 -8.71875,7.59375 L 321,163 c 0,0 6.82221,-5.70005 9,-7.78125 1.08889,-1.0406 2.04311,-2.00758 2.40625,-3.1875 0.18157,-0.58996 0.072,-1.44844 -0.5,-1.9375 -0.57196,-0.48906 -1.27354,-0.59375 -2.125,-0.59375 -2.64075,0 -6.85817,1.15953 -11.3125,2.21875 -4.45433,1.05922 -9.10608,2.00496 -11.75,1.78125 -0.0748,-0.006 -0.0114,0.0102 -0.0625,0 0.17326,-0.3335 0.705,-1.05137 1.625,-1.90625 2.01927,-1.87635 13.43972,-13.40311 13.43972,-13.40311 l 0.69463,-1.59387 -1.81963,-0.0311 0,-3e-5 z"/><path style="fill:url(#linearGradient4269);fill-opacity:1;stroke:#fff;display:inline;enable-background:new;stroke-width:2;stroke-miterlimit:4;stroke-dasharray:none" id="path3729-7" d="m 319,132 0.0156,1.02259 c 0,-0.0937 -0.30134,0 -0.30134,0 -0.4375,0 -0.71429,0.27386 -0.71429,0.56873 l 0,4.83103 c 0,0.29487 0.25189,0.56872 0.71429,0.56872 l 5.57142,0 c 0.4624,0 0.71429,-0.27386 0.71429,-0.56872 l 0,-4.75291 c 0,-0.29486 -0.26116,-0.6781 -0.71429,-0.64685 L 324,133 l 0,-1 c 0,0 -5,0 -5,0 z"/><path style="fill:url(#linearGradient3202);fill-opacity:1;stroke:none" id="path3729" d="m 319,132 0.0156,1.02259 c 0,-0.0937 -0.30134,0 -0.30134,0 -0.4375,0 -0.71429,0.27386 -0.71429,0.56873 l 0,4.83103 c 0,0.29487 0.25189,0.56872 0.71429,0.56872 l 5.57142,0 c 0.4624,0 0.71429,-0.27386 0.71429,-0.56872 l 0,-4.75291 c 0,-0.29486 -0.26116,-0.6781 -0.71429,-0.64685 L 324,133 l 0,-1 c 0,0 -5,0 -5,0 z"/><rect style="opacity:.06511625;fill:#000;fill-opacity:1;fill-rule:evenodd;stroke:#000;stroke-width:1;stroke-linecap:round;stroke-linejoin:round;stroke-miterlimit:4;stroke-opacity:.99236642;stroke-dasharray:none;stroke-dashoffset:.69999992;display:inline;enable-background:new" id="rect247-1" width="15" height="13" x="309.5" y="180.5" rx="1.438" ry="1.438"/><rect style="fill:url(#linearGradient3143);fill-opacity:1;fill-rule:evenodd;stroke:#888a85;stroke-width:1;stroke-linecap:round;stroke-linejoin:round;stroke-miterlimit:4;stroke-opacity:.99236642;stroke-dasharray:none;stroke-dashoffset:.69999992" id="rect247" width="15" height="13" x="308.5" y="179.5" rx="1.438" ry="1.438"/><path style="fill:#fff;fill-opacity:1;fill-rule:evenodd;stroke:none;display:inline;enable-background:new" id="path4287" d="M 312.34375,180 A 1.5027521,1.5027521 0 0 0 311.0625,181.0625 1.5027521,1.5027521 0 0 0 310,182.5 l 0,4 a 1.5027521,1.5027521 0 0 0 1.5,1.5 l 5,0 a 1.5027521,1.5027521 0 0 0 1.5,-1.5 l 0,-4 A 1.5027521,1.5027521 0 0 0 316.9375,181.0625 1.5027521,1.5027521 0 0 0 315.5,180 l -3,0 a 1.5027521,1.5027521 0 0 0 -0.15625,0 z" transform="translate(2,2)"/><path style="fill:url(#linearGradient3138);fill-opacity:1;fill-rule:evenodd;stroke:#888a85;stroke-width:1;stroke-linecap:round;stroke-linejoin:round;stroke-miterlimit:4;stroke-opacity:.99236642;stroke-dasharray:none;stroke-dashoffset:.69999992" id="rect5927" d="m 314.5,183.5 0,1 -1,0 0,4 5,0 0,-4 -1,0 0,-1 -3,0 z"/><rect style="fill:url(#linearGradient3103);fill-opacity:1;fill-rule:evenodd;stroke:url(#linearGradient4187);stroke-width:1;stroke-linecap:round;stroke-linejoin:round;stroke-miterlimit:4;stroke-opacity:.99236642;stroke-dasharray:none;stroke-dashoffset:.69999992" id="rect267" width="11" height="11" x="306.5" y="219.5" rx="1.259" ry="1.247"/><path style="fill:#babdb6;fill-opacity:1;fill-rule:evenodd;stroke:#888a85;stroke-width:1;stroke-linecap:round;stroke-linejoin:round;stroke-miterlimit:4;stroke-opacity:.99236642;stroke-dasharray:none;stroke-dashoffset:.69999992" id="path269" d="m 310.5,222.5 0,1 -1,0 0,4 5,0 0,-4 -1,0 0,-1 -3,0 z"/><path style="fill:#fff;fill-opacity:1;fill-rule:evenodd;stroke:none" id="path281" d="m 309,231 3,0 2,0 -3,0 -2,0 z"/><rect style="color:#000;fill:#888a85;fill-opacity:1;fill-rule:nonzero;stroke:url(#linearGradient3307);stroke-width:1;stroke-linecap:square;stroke-linejoin:round;stroke-miterlimit:4;stroke-opacity:1;stroke-dasharray:none;stroke-dashoffset:0;marker:none;visibility:visible;display:inline;overflow:visible;enable-background:accumulate" id="rect3299" width="3" height="2" x="310.5" y="224.5" rx="0" ry="0"/><rect style="fill:none;stroke:#fff;stroke-width:1;stroke-linecap:round;stroke-linejoin:round;stroke-miterlimit:4;stroke-opacity:.99236642;stroke-dasharray:none;stroke-dashoffset:.69999992;display:inline;enable-background:new" id="rect267-7" width="9" height="9" x="307.5" y="220.5" rx=".5" ry=".5"/><rect style="color:#000;fill:#eeeeec;fill-opacity:1;fill-rule:nonzero;stroke:none;stroke-width:1;marker:none;visibility:visible;display:inline;overflow:visible;enable-background:accumulate" id="rect3309" width="2" height="1" x="311" y="223"/><path style="fill:url(#linearGradient4104);fill-opacity:1;fill-rule:evenodd;stroke:url(#linearGradient4106);stroke-width:1;stroke-linecap:round;stroke-linejoin:round;stroke-miterlimit:4;stroke-dashoffset:.69999992;stroke-opacity:1;display:inline;enable-background:new" id="rect298" d="m 380.42343,-61.809897 c 0.554,0 1,0.446 1,1 l 0,13.414214 c 0,0.554 -0.446,1 -1,1 -0.554,0 -1,-0.446 -1,-1 l 0,-13.414214 c 0,-0.554 0.446,-1 1,-1 z" transform="matrix(0.70710678,0.70710678,-0.70710678,0.70710678,0,0)"/><rect style="fill:none;stroke:#fff;stroke-width:1;stroke-linecap:round;stroke-linejoin:round;stroke-miterlimit:4;stroke-opacity:.99236642;stroke-dasharray:none;stroke-dashoffset:.69999992;display:inline;enable-background:new" id="rect247-2" width="13" height="11" x="309.5" y="180.5" rx=".5" ry=".5"/><g id="g4335" transform="translate(2,2)"><rect id="rect4289" width="4" height="3" x="312" y="183" rx="0" ry="0" style="color:#000;fill:url(#linearGradient4327);fill-opacity:1;fill-rule:nonzero;stroke:none;stroke-width:1;marker:none;visibility:visible;display:inline;overflow:visible;enable-background:accumulate"/><rect id="rect4289-3" width="2" height="1" x="313" y="182" rx="0" ry="0" style="color:#000;fill:#eeeeec;fill-opacity:1;fill-rule:nonzero;stroke:none;stroke-width:1;marker:none;visibility:visible;display:inline;overflow:visible;enable-background:accumulate"/><rect id="rect4333" width="2" height="1" x="313" y="184" rx="0" ry="0" style="color:#000;fill:#555753;fill-opacity:1;fill-rule:nonzero;stroke:none;stroke-width:1;marker:none;visibility:visible;display:inline;overflow:visible;enable-background:accumulate"/></g><path style="fill:url(#linearGradient3133);fill-opacity:1;fill-rule:evenodd;stroke:url(#linearGradient3135);stroke-width:1;stroke-linecap:round;stroke-linejoin:round;stroke-miterlimit:4;stroke-opacity:1;stroke-dashoffset:.69999992;display:inline;enable-background:new" id="rect298-6" d="m 316.70613,186.29374 c 0.39174,0.39174 0.39174,1.02248 0,1.41422 l -12.48528,12.48528 c -0.39174,0.39173 -1.02247,0.39173 -1.41421,0 -0.39174,-0.39174 -0.39174,-1.02248 0,-1.41422 l 12.48528,-12.48528 c 0.39174,-0.39173 1.02248,-0.39173 1.41421,0 z"/><rect style="color:#000;fill:url(#linearGradient3995);fill-opacity:1;fill-rule:nonzero;stroke:none;stroke-width:1;marker:none;visibility:visible;display:inline;overflow:visible;enable-background:accumulate" id="rect3097" width="5" height="4.031" x="319" y="134"/><rect style="color:#000;fill:#555753;fill-opacity:1;fill-rule:nonzero;stroke:none;stroke-width:1;marker:none;visibility:visible;display:inline;overflow:visible;enable-background:accumulate" id="rect3097-6" width="3" height="2.125" x="320" y="135" rx=".531" ry=".594"/><path style="fill:url(#linearGradient3073);fill-opacity:1;fill-rule:evenodd;stroke:url(#linearGradient3075);stroke-width:1;stroke-linecap:butt;stroke-linejoin:round;stroke-miterlimit:4;stroke-opacity:1;stroke-dasharray:none" id="path6027" d="m 320.59597,135.56564 c 0,0 -11.49644,11.52132 -13.68972,13.55936 -1.09664,1.01902 -1.92098,1.88333 -2.28125,2.90625 -0.18014,0.51146 -0.16392,1.2412 0.28125,1.75 0.44517,0.5088 1.02219,0.6651 1.65625,0.71875 3.26522,0.27628 7.89308,-0.77797 12.375,-1.84375 4.48192,-1.06578 8.85037,-2.15625 10.84375,-2.15625 0.4568,0 0.51239,0.0378 0.59375,0.0625 -0.15031,0.36549 -0.82179,1.30184 -1.78125,2.21875 -2.00785,1.9188 -8.71875,7.59375 -8.71875,7.59375 L 321,162 c 0,0 6.82221,-5.70005 9,-7.78125 1.08889,-1.0406 2.04311,-2.00758 2.40625,-3.1875 0.18157,-0.58996 0.072,-1.44844 -0.5,-1.9375 -0.57196,-0.48906 -1.27354,-0.59375 -2.125,-0.59375 -2.64075,0 -6.85817,1.15953 -11.3125,2.21875 -4.45433,1.05922 -9.10608,2.00496 -11.75,1.78125 -0.0748,-0.006 -0.0114,0.0102 -0.0625,0 0.17326,-0.3335 0.705,-1.05137 1.625,-1.90625 2.01927,-1.87635 13.43972,-13.40311 13.43972,-13.40311 l 0.69463,-1.59387 -1.81963,-0.0311 0,-3e-5 z"/><rect style="color:#000;fill:#fff;fill-opacity:1;fill-rule:nonzero;stroke:none;stroke-width:1;marker:none;visibility:visible;display:inline;overflow:visible;enable-background:accumulate" id="rect3097-7" width="3" height="1" x="320" y="-134" transform="scale(1,-1)"/><rect style="color:#000;fill:url(#linearGradient4182);fill-opacity:1;fill-rule:nonzero;stroke:none;stroke-width:1;marker:none;visibility:visible;display:inline;overflow:visible;enable-background:accumulate" id="rect4143-7" width="3" height="2" x="325" y="60" rx=".398" ry=".398"/><path style="fill:none;stroke:url(#radialGradient4612);stroke-width:2;stroke-linecap:butt;stroke-linejoin:miter;stroke-miterlimit:4;stroke-opacity:1;stroke-dasharray:none;display:inline;enable-background:new;filter:url(#filter4618);opacity:.49441862" id="path7502-1-6" d="m 327.73483,103.70711 c 0,0 20,-14 12,-16 -8,-2 -28.06547,7.626656 -38,7 C 291.62421,94.069347 324.22712,84.876669 326.5,67"/><rect style="color:#000;fill:#d3d7cf;fill-opacity:1;fill-rule:nonzero;stroke:url(#linearGradient4212);stroke-width:1;marker:none;visibility:visible;display:inline;overflow:visible;enable-background:accumulate" id="rect4143-1" width="6" height="5" x="323.5" y="62.5" rx=".177" ry=".177"/><rect style="color:#000;fill:#888a85;fill-opacity:1;fill-rule:nonzero;stroke:url(#linearGradient4231);stroke-width:1;marker:none;visibility:visible;display:inline;overflow:visible;enable-background:accumulate" id="rect4143-1-1" width="4" height="3" x="-328.5" y="-66.5" rx=".177" ry=".177" transform="scale(-1,-1)"/><rect style="fill:none;stroke:url(#linearGradient4380);stroke-width:1.00000011999999994;stroke-linecap:round;stroke-linejoin:round;stroke-miterlimit:4;stroke-opacity:.99236641999999997;stroke-dasharray:none;stroke-dashoffset:.69999992;display:inline;enable-background:new;fill-opacity:1" id="rect5925-8" width="22" height="19" x="315.5" y="54.5" rx=".567" ry=".567"/><path style="font-size:medium;font-style:normal;font-variant:normal;font-weight:400;font-stretch:normal;text-indent:0;text-align:start;text-decoration:none;line-height:normal;letter-spacing:normal;word-spacing:normal;text-transform:none;direction:ltr;block-progression:tb;writing-mode:lr-tb;text-anchor:start;color:#000;fill:url(#linearGradient3248-0);fill-opacity:1;stroke:url(#linearGradient3250-1);stroke-width:1;marker:none;visibility:visible;display:inline;overflow:visible;enable-background:accumulate;font-family:Abandoned Bitplane;-inkscape-font-specification:Abandoned Bitplane;stroke-miterlimit:4;stroke-dasharray:none;fill-rule:evenodd;stroke-linecap:butt;stroke-linejoin:round;stroke-opacity:1;stroke-dashoffset:0" id="path7502-1" d="m 325,63.8125 c -1.02776,8.083507 -9.29138,14.946781 -16.375,19.75 -3.54181,2.401609 -6.67554,4.247084 -8.53125,5.71875 -0.46393,0.367917 -0.85503,0.711268 -1.1875,1.125 -0.33247,0.413732 -0.73206,1.020169 -0.5625,1.90625 0.16956,0.886081 0.91401,1.362314 1.46875,1.5625 0.55474,0.200186 1.10532,0.299142 1.8125,0.34375 5.51222,0.347703 13.00435,-2.019008 20.25,-4.09375 7.24565,-2.074742 14.33564,-3.759841 17.5,-2.96875 0.72893,0.182233 0.74555,0.332074 0.75,0.34375 0.004,0.01168 0.0333,0.30418 -0.25,0.90625 -0.56665,1.20414 -2.21388,3.147783 -4.15625,4.96875 -3.88473,3.641934 -8.84375,7.09375 -8.84375,7.09375 l 1.71875,2.46875 c 0,0 5.04098,-3.516934 9.15625,-7.375 2.05763,-1.929033 3.9104,-3.89164 4.84375,-5.875 0.46667,-0.99168 0.74555,-2.113238 0.3125,-3.25 -0.43305,-1.136762 -1.54143,-1.869733 -2.8125,-2.1875 -4.83564,-1.208909 -11.76053,0.918078 -19.03125,3 -6.8869,1.972017 -13.91596,3.964738 -18.40625,3.9375 1.62422,-1.194952 4.33625,-2.873794 7.65625,-5.125 7.2584,-4.921728 16.44238,-12.081838 17.6875,-21.875 l -3,-0.375 z"/><path style="color:#000;fill:none;fill-opacity:1;fill-rule:nonzero;stroke:url(#linearGradient4501);stroke-width:1;marker:none;visibility:visible;display:inline;overflow:visible;enable-background:accumulate" id="rect4143-1-1-2" d="m -324.5,-63.676777 c 0,0.09793 -0.0788,0.176777 -0.17678,0.176777 l -3.64644,0 c -0.0979,0 -0.17678,-0.07884 -0.17678,-0.176777 l 0,-2.646446 c 0,-0.09794 0.0788,-0.176777 0.17678,-0.176777" transform="scale(-1,-1)"/><path style="fill:none;stroke:url(#linearGradient4604);stroke-width:1;stroke-linecap:butt;stroke-linejoin:miter;stroke-miterlimit:4;stroke-opacity:1;stroke-dasharray:none;display:inline;enable-background:new;opacity:.61395348999999999" id="path7502-1-6-3" d="m 327.08838,101.35356 c 0,0 20,-14.000003 12,-16.000003 -8,-2 -28.06547,7.626656 -38,7 -10.11062,-0.637763 22.49229,-9.830441 24.76517,-27.70711"/></g></svg>