<svg xmlns="http://www.w3.org/2000/svg" xmlns:svg="http://www.w3.org/2000/svg" xmlns:xlink="http://www.w3.org/1999/xlink" id="svg11300" width="400" height="300" version="1.0" style="display:inline;enable-background:new"><title id="title8836">Optical Drive</title><metadata id="metadata154"/><defs id="defs3"><linearGradient id="linearGradient3428"><stop id="stop3430" offset="0" style="stop-color:black;stop-opacity:0"/><stop id="stop3436" offset=".5" style="stop-color:black;stop-opacity:1"/><stop id="stop3432" offset="1" style="stop-color:black;stop-opacity:0"/></linearGradient><linearGradient id="linearGradient3434" x1="11.508" x2="11.508" y1="39" y2="47.016" gradientUnits="userSpaceOnUse" xlink:href="#linearGradient3428"/><radialGradient id="radialGradient3424" cx="3" cy="43" r="2" fx="3" fy="43" gradientTransform="matrix(2,0,0,2,35,-43)" gradientUnits="userSpaceOnUse" xlink:href="#linearGradient3414"/><linearGradient id="linearGradient3414"><stop id="stop3416" offset="0" style="stop-color:black;stop-opacity:1"/><stop id="stop3418" offset="1" style="stop-color:black;stop-opacity:0"/></linearGradient><radialGradient id="radialGradient3420" cx="3" cy="43" r="2" fx="3" fy="43" gradientTransform="matrix(2,0,0,2,-13,-129)" gradientUnits="userSpaceOnUse" xlink:href="#linearGradient3414"/><linearGradient id="linearGradient7698"><stop id="stop7700" offset="0" style="stop-color:white;stop-opacity:1"/><stop id="stop7702" offset="1" style="stop-color:white;stop-opacity:.31073445"/></linearGradient><linearGradient id="linearGradient7687"><stop id="stop7689" offset="0" style="stop-color:#686a65;stop-opacity:1"/><stop id="stop7691" offset="1" style="stop-color:#454743;stop-opacity:1"/></linearGradient><linearGradient id="linearGradient7675"><stop id="stop7677" offset="0" style="stop-color:#9faf80;stop-opacity:1"/><stop id="stop7679" offset="1" style="stop-color:#899c65;stop-opacity:1"/></linearGradient><radialGradient id="radialGradient7683" cx="22.26" cy="26" r="12.5" fx="22.26" fy="26" gradientTransform="matrix(1.980484,6.843139e-4,0,0.998169,-20.08555,1.110599)" gradientUnits="userSpaceOnUse" xlink:href="#linearGradient7675"/><linearGradient id="linearGradient7693" x1="12.627" x2="33.638" y1="7.998" y2="34.464" gradientTransform="matrix(0.966667,0,0,1,2.249993,0)" gradientUnits="userSpaceOnUse" xlink:href="#linearGradient7687"/><linearGradient id="linearGradient7704" x1="26.143" x2="25.571" y1="18.357" y2="46.143" gradientTransform="matrix(0.964286,0,0,1,2.303577,0)" gradientUnits="userSpaceOnUse" xlink:href="#linearGradient7698"/><radialGradient id="radialGradient6735" cx="3" cy="43" r="2" fx="3" fy="43" gradientTransform="matrix(2,0,0,2,-13,-129)" gradientUnits="userSpaceOnUse" xlink:href="#linearGradient3414"/><radialGradient id="radialGradient6737" cx="3" cy="43" r="2" fx="3" fy="43" gradientTransform="matrix(2,0,0,2,35,-43)" gradientUnits="userSpaceOnUse" xlink:href="#linearGradient3414"/><linearGradient id="linearGradient6739" x1="11.508" x2="11.508" y1="39" y2="47.016" gradientUnits="userSpaceOnUse" xlink:href="#linearGradient3428"/><radialGradient id="radialGradient9116" cx="3" cy="43" r="2" fx="3" fy="43" gradientTransform="matrix(2,0,0,2,-13,-129)" gradientUnits="userSpaceOnUse" xlink:href="#linearGradient3414"/><radialGradient id="radialGradient9118" cx="3" cy="43" r="2" fx="3" fy="43" gradientTransform="matrix(2,0,0,2,35,-43)" gradientUnits="userSpaceOnUse" xlink:href="#linearGradient3414"/><linearGradient id="linearGradient9120" x1="11.508" x2="11.508" y1="39" y2="47.016" gradientUnits="userSpaceOnUse" xlink:href="#linearGradient3428"/><linearGradient id="linearGradient9122" x1="12.627" x2="33.638" y1="7.998" y2="34.464" gradientTransform="matrix(0.5,0,0,0.474758,-0.250001,-0.686898)" gradientUnits="userSpaceOnUse" xlink:href="#linearGradient7687"/><radialGradient id="radialGradient9124" cx="22.26" cy="26" r="12.5" fx="22.26" fy="26" gradientTransform="matrix(0.947188,3.177175e-4,0,0.463435,-10.08439,0.462064)" gradientUnits="userSpaceOnUse" xlink:href="#linearGradient7675"/><linearGradient id="linearGradient9126" x1="26.143" x2="25.571" y1="18.357" y2="46.143" gradientTransform="matrix(0.464286,0,0,0.448095,0.553569,-6.833287e-2)" gradientUnits="userSpaceOnUse" xlink:href="#linearGradient7698"/></defs><g id="layer6" style="display:none"><rect id="rect6284" width="48" height="48" x="296" y="50" style="fill:#eeeeec;fill-opacity:1;fill-rule:nonzero;stroke:none;stroke-width:2;marker:none;visibility:visible;display:inline;overflow:visible;enable-background:accumulate"/><rect id="rect6592" width="32" height="32" x="303" y="126" style="fill:#eeeeec;fill-opacity:1;fill-rule:nonzero;stroke:none;stroke-width:2;marker:none;visibility:visible;display:inline;overflow:visible;enable-background:accumulate"/><rect id="rect6749" width="22" height="22" x="303" y="177" style="fill:#eeeeec;fill-opacity:1;fill-rule:nonzero;stroke:none;stroke-width:2;marker:none;visibility:visible;display:inline;overflow:visible;enable-background:accumulate"/><rect id="rect6833" width="16" height="16" x="303" y="219" style="fill:#eeeeec;fill-opacity:1;fill-rule:nonzero;stroke:none;stroke-width:2;marker:none;visibility:visible;display:inline;overflow:visible;enable-background:accumulate"/><text id="context" x="20.971" y="21.514" xml:space="preserve" style="font-size:18.30070686px;font-style:normal;font-weight:400;fill:#000;fill-opacity:1;stroke:none;display:inline;enable-background:new;font-family:Bitstream Vera Sans"><tspan id="tspan2716" x="20.971" y="21.514">devices</tspan></text><text id="icon-name" x="191.971" y="21.514" xml:space="preserve" style="font-size:18.30070686px;font-style:normal;font-variant:normal;font-weight:700;font-stretch:normal;text-align:start;line-height:125%;writing-mode:lr-tb;text-anchor:start;fill:#000;fill-opacity:1;stroke:none;display:inline;enable-background:new;font-family:Droid Sans;-inkscape-font-specification:Droid Sans Bold"><tspan id="tspan3023" x="191.971" y="21.514">pda</tspan></text></g><g id="layer2" style="display:inline"><g id="g48" transform="translate(296,50) scale(1.000000,1.000000)" style="display:inline;enable-background:new"><g id="g6727" transform="matrix(0.809524,0,0,0.874999,4.571429,5.875065)" style="opacity:.2"><rect id="rect6729" width="4" height="8" x="-7" y="-47" transform="scale(-1,-1)" style="opacity:1;color:#000;fill:url(#radialGradient6735);fill-opacity:1;fill-rule:nonzero;stroke:none;stroke-width:1;stroke-linecap:square;stroke-linejoin:round;marker:none;marker-start:none;marker-mid:none;marker-end:none;stroke-miterlimit:6;stroke-dasharray:none;stroke-dashoffset:1.4;stroke-opacity:1;visibility:visible;display:inline;overflow:visible"/><rect id="rect6731" width="4" height="8" x="41" y="39" style="opacity:1;color:#000;fill:url(#radialGradient6737);fill-opacity:1;fill-rule:nonzero;stroke:none;stroke-width:1;stroke-linecap:square;stroke-linejoin:round;marker:none;marker-start:none;marker-mid:none;marker-end:none;stroke-miterlimit:6;stroke-dasharray:none;stroke-dashoffset:1.4;stroke-opacity:1;visibility:visible;display:inline;overflow:visible"/><rect id="rect6733" width="34" height="8" x="7" y="39" style="opacity:1;color:#000;fill:url(#linearGradient6739);fill-opacity:1;fill-rule:nonzero;stroke:none;stroke-width:1;stroke-linecap:square;stroke-linejoin:round;marker:none;marker-start:none;marker-mid:none;marker-end:none;stroke-miterlimit:6;stroke-dasharray:none;stroke-dashoffset:1.4;stroke-opacity:1;visibility:visible;display:inline;overflow:visible"/></g><g id="g3438" transform="matrix(0.714286,0,0,0.624999,6.857144,16.62502)" style="opacity:.3"><rect id="rect3404" width="4" height="8" x="-7" y="-47" transform="scale(-1,-1)" style="opacity:1;color:#000;fill:url(#radialGradient3420);fill-opacity:1;fill-rule:nonzero;stroke:none;stroke-width:1;stroke-linecap:square;stroke-linejoin:round;marker:none;marker-start:none;marker-mid:none;marker-end:none;stroke-miterlimit:6;stroke-dasharray:none;stroke-dashoffset:1.4;stroke-opacity:1;visibility:visible;display:inline;overflow:visible"/><rect id="rect3422" width="4" height="8" x="41" y="39" style="opacity:1;color:#000;fill:url(#radialGradient3424);fill-opacity:1;fill-rule:nonzero;stroke:none;stroke-width:1;stroke-linecap:square;stroke-linejoin:round;marker:none;marker-start:none;marker-mid:none;marker-end:none;stroke-miterlimit:6;stroke-dasharray:none;stroke-dashoffset:1.4;stroke-opacity:1;visibility:visible;display:inline;overflow:visible"/><rect id="rect3426" width="34" height="8" x="7" y="39" style="opacity:1;color:#000;fill:url(#linearGradient3434);fill-opacity:1;fill-rule:nonzero;stroke:none;stroke-width:1;stroke-linecap:square;stroke-linejoin:round;marker:none;marker-start:none;marker-mid:none;marker-end:none;stroke-miterlimit:6;stroke-dasharray:none;stroke-dashoffset:1.4;stroke-opacity:1;visibility:visible;display:inline;overflow:visible"/></g><rect id="rect6722" width="25" height="10" x="11.5" y="34.5" rx="1.429" ry="1.429" style="opacity:1;fill:#555753;fill-opacity:1;stroke:#2e3436;stroke-width:1.0000006;stroke-linecap:round;stroke-linejoin:miter;stroke-miterlimit:4;stroke-dasharray:none;stroke-opacity:1"/><rect id="rect9076" width="23" height="8" x="12.5" y="35.5" rx=".286" ry=".286" style="opacity:.1;fill:none;fill-opacity:1;stroke:#fff;stroke-width:.99999928;stroke-linecap:round;stroke-linejoin:miter;stroke-miterlimit:4;stroke-dasharray:none;stroke-opacity:1"/><path id="rect5508" d="M 10.880958,2.5000012 L 37.119075,2.5000012 C 37.884123,2.5000012 38.500028,3.1534728 38.500028,3.9651841 L 38.500028,38.983055 C 38.500028,39.794765 37.884123,40.448237 37.119075,40.448237 C 37.119075,40.448237 30.559546,42.520318 24.000015,42.520318 C 17.440487,42.520318 10.880958,40.448237 10.880958,40.448237 C 10.115909,40.448237 9.5000036,39.794765 9.5000036,38.983055 L 9.5000036,3.9651841 C 9.5000036,3.1534728 10.115909,2.5000012 10.880958,2.5000012 z" style="opacity:1;fill:url(#linearGradient7693);fill-opacity:1;stroke:#2e3436;stroke-width:1.00000083;stroke-linecap:round;stroke-linejoin:miter;stroke-miterlimit:4;stroke-opacity:1"/><path id="path6724" d="M 14.091628 38.049999 A 1.6667517 1.6667517 0 1 1 10.758124,38.049999 A 1.6667517 1.6667517 0 1 1 14.091628 38.049999 z" transform="matrix(1.199938,0,0,1.199937,-0.40908,-8.157605)" style="opacity:1;fill:#72746f;fill-opacity:1;stroke:#393e3e;stroke-width:.83337653;stroke-linecap:round;stroke-linejoin:miter;stroke-miterlimit:4;stroke-dasharray:none;stroke-opacity:1"/><rect id="rect6734" width="23" height="28" x="12.5" y="5.5" rx="1.429" ry="1.429" style="opacity:1;fill:url(#radialGradient7683);fill-opacity:1;stroke:#2e3436;stroke-width:1;stroke-linecap:round;stroke-linejoin:miter;stroke-miterlimit:4;stroke-dasharray:none;stroke-opacity:1"/><rect id="rect6736" width="21" height="26" x="13.5" y="6.5" rx=".5" ry=".5" style="opacity:.16304351;fill:none;fill-opacity:1;stroke:#000;stroke-width:1.00000036;stroke-linecap:round;stroke-linejoin:miter;stroke-miterlimit:4;stroke-dasharray:none;stroke-opacity:1"/><path id="path6738" d="M 11,42 C 11,42 17.431218,44 23.931218,44 C 30.431218,44 37,42 37,42 L 37,41 C 37,41 30.568782,43 24.068782,43 C 17.568782,43 11,41 11,41 L 11,42 z" style="opacity:.2;fill:#000;fill-opacity:1;fill-rule:evenodd;stroke:none;stroke-width:1px;stroke-linecap:butt;stroke-linejoin:miter;stroke-opacity:1"/><path id="path7685" d="M 14,24.080965 C 14,24.080965 14.905293,18.297996 24.476188,18.080965 C 34.045924,17.863961 33.999996,7 33.999996,7 L 14,7 L 14,24.080965 z" style="opacity:.1;fill:#fff;fill-opacity:1;fill-rule:evenodd;stroke:none;stroke-width:1px;stroke-linecap:butt;stroke-linejoin:miter;stroke-opacity:1"/><path id="rect7695" d="M 11.257661,3.4999995 L 36.742365,3.4999995 C 37.162105,3.4999995 37.500017,3.8504279 37.500017,4.2857134 L 37.500017,39.372698 C 37.500017,39.372698 31.222383,41.447286 24.472382,41.438357 C 17.72238,41.429428 10.500009,39.336983 10.500009,39.336983 L 10.500009,4.2857134 C 10.500009,3.8504279 10.837922,3.4999995 11.257661,3.4999995 z" style="opacity:.3;fill:none;fill-opacity:1;stroke:url(#linearGradient7704);stroke-width:1.00000024;stroke-linecap:round;stroke-linejoin:miter;stroke-miterlimit:4;stroke-opacity:1"/><path id="path9070" d="M 14.091628 38.049999 A 1.6667517 1.6667517 0 1 1 10.758124,38.049999 A 1.6667517 1.6667517 0 1 1 14.091628 38.049999 z" transform="matrix(1.199938,0,0,1.199937,5.590918,-8.157599)" style="opacity:1;fill:#72746f;fill-opacity:1;stroke:#393e3e;stroke-width:.83337653;stroke-linecap:round;stroke-linejoin:miter;stroke-miterlimit:4;stroke-dasharray:none;stroke-opacity:1"/><path id="path9072" d="M 14.091628 38.049999 A 1.6667517 1.6667517 0 1 1 10.758124,38.049999 A 1.6667517 1.6667517 0 1 1 14.091628 38.049999 z" transform="matrix(1.199938,0,0,1.199937,12.59092,-8.157605)" style="opacity:1;fill:#72746f;fill-opacity:1;stroke:#393e3e;stroke-width:.83337653;stroke-linecap:round;stroke-linejoin:miter;stroke-miterlimit:4;stroke-dasharray:none;stroke-opacity:1"/><path id="path9074" d="M 14.091628 38.049999 A 1.6667517 1.6667517 0 1 1 10.758124,38.049999 A 1.6667517 1.6667517 0 1 1 14.091628 38.049999 z" transform="matrix(1.199938,0,0,1.199937,18.59092,-8.157605)" style="opacity:1;fill:#72746f;fill-opacity:1;stroke:#393e3e;stroke-width:.83337653;stroke-linecap:round;stroke-linejoin:miter;stroke-miterlimit:4;stroke-dasharray:none;stroke-opacity:1"/></g><g id="g32" transform="translate(303,126) scale(1.000000,1.000000)" style="display:inline;enable-background:new"><g id="g74" transform="matrix(0.52381,0,0,0.5,3.428571,8.5)" style="opacity:.4"><rect id="rect76" width="4" height="8" x="-7" y="-47" transform="scale(-1,-1)" style="opacity:1;color:#000;fill:url(#radialGradient3420);fill-opacity:1;fill-rule:nonzero;stroke:none;stroke-width:1;stroke-linecap:square;stroke-linejoin:round;marker:none;marker-start:none;marker-mid:none;marker-end:none;stroke-miterlimit:6;stroke-dasharray:none;stroke-dashoffset:1.4;stroke-opacity:1;visibility:visible;display:inline;overflow:visible"/><rect id="rect78" width="4" height="8" x="41" y="39" style="opacity:1;color:#000;fill:url(#radialGradient3424);fill-opacity:1;fill-rule:nonzero;stroke:none;stroke-width:1;stroke-linecap:square;stroke-linejoin:round;marker:none;marker-start:none;marker-mid:none;marker-end:none;stroke-miterlimit:6;stroke-dasharray:none;stroke-dashoffset:1.4;stroke-opacity:1;visibility:visible;display:inline;overflow:visible"/><rect id="rect80" width="34" height="8" x="7" y="39" style="opacity:1;color:#000;fill:url(#linearGradient3434);fill-opacity:1;fill-rule:nonzero;stroke:none;stroke-width:1;stroke-linecap:square;stroke-linejoin:round;marker:none;marker-start:none;marker-mid:none;marker-end:none;stroke-miterlimit:6;stroke-dasharray:none;stroke-dashoffset:1.4;stroke-opacity:1;visibility:visible;display:inline;overflow:visible"/></g><rect id="rect82" width="17" height="7" x="7.5" y="23.5" rx="1.429" ry="1.429" style="opacity:1;fill:#555753;fill-opacity:1;stroke:#2e3436;stroke-width:1.00000119;stroke-linecap:round;stroke-linejoin:miter;stroke-miterlimit:4;stroke-dasharray:none;stroke-opacity:1"/><rect id="rect84" width="15" height="5" x="8.5" y="24.5" rx=".286" ry=".286" style="opacity:.1;fill:none;fill-opacity:1;stroke:#fff;stroke-width:.99999946;stroke-linecap:round;stroke-linejoin:miter;stroke-miterlimit:4;stroke-dasharray:none;stroke-opacity:1"/><path id="path86" d="M 6.5000012,1.5000013 L 25.500009,1.5000013 C 26.054009,1.5000013 26.500008,1.9408707 26.500008,2.4884978 L 26.500008,26.113562 C 26.500008,26.661188 26.054009,27.102058 25.500009,27.102058 C 25.500009,27.102058 20.750006,28.500002 16.000003,28.500002 C 11.250003,28.500002 6.5000012,27.102058 6.5000012,27.102058 C 5.9460004,27.102058 5.5000001,26.661188 5.5000001,26.113562 L 5.5000001,2.4884978 C 5.5000001,1.9408707 5.9460004,1.5000013 6.5000012,1.5000013 z" style="opacity:1;fill:url(#linearGradient7693);fill-opacity:1;stroke:#2e3436;stroke-width:1.00000143;stroke-linecap:round;stroke-linejoin:miter;stroke-miterlimit:4;stroke-opacity:1"/><rect id="rect88" width="15" height="18.976" x="8.5" y="4.524" rx="1.429" ry="1.429" style="opacity:1;fill:url(#radialGradient7683);fill-opacity:1;stroke:#2e3436;stroke-width:1.00000012;stroke-linecap:round;stroke-linejoin:miter;stroke-miterlimit:4;stroke-dasharray:none;stroke-opacity:1"/><rect id="rect90" width="13" height="17" x="9.5" y="5.5" rx=".5" ry=".5" style="opacity:.16304351;fill:none;fill-opacity:1;stroke:#000;stroke-width:1.00000083;stroke-linecap:round;stroke-linejoin:miter;stroke-miterlimit:4;stroke-dasharray:none;stroke-opacity:1"/><path id="path92" d="M 9.9999995,16.973857 C 9.9999995,16.973857 10.543176,13.258523 16.285713,13.11909 C 22.027555,12.979674 21.999998,6 21.999998,6 L 9.9999995,6 L 9.9999995,16.973857 z" style="opacity:.15;fill:#fff;fill-opacity:1;fill-rule:evenodd;stroke:none;stroke-width:1px;stroke-linecap:butt;stroke-linejoin:miter;stroke-opacity:1"/><path id="path94" d="M 7.0331656,2.5000011 L 24.966842,2.5000011 C 25.262214,2.5000011 25.500005,2.7309207 25.500005,3.0177579 L 25.500005,26.138799 C 25.500005,26.138799 21.082412,27.505877 16.332412,27.499993 C 11.582411,27.494108 6.5000032,26.115263 6.5000032,26.115263 L 6.5000032,3.0177579 C 6.5000032,2.7309207 6.7377937,2.5000011 7.0331656,2.5000011 z" style="opacity:.3;fill:none;fill-opacity:1;stroke:url(#linearGradient7704);stroke-width:1.00000024;stroke-linecap:round;stroke-linejoin:miter;stroke-miterlimit:4;stroke-opacity:1"/><path id="path96" d="M 14.091628 38.049999 A 1.6667517 1.6667517 0 1 1 10.758124,38.049999 A 1.6667517 1.6667517 0 1 1 14.091628 38.049999 z" transform="matrix(0.599968,0,0,0.599975,14.54547,2.170961)" style="opacity:1;fill:#72746f;fill-opacity:1;stroke:none;stroke-width:1.2457211;stroke-linecap:round;stroke-linejoin:miter;stroke-miterlimit:4;stroke-dasharray:none;stroke-opacity:1"/><path id="path6731" d="M 14.091628 38.049999 A 1.6667517 1.6667517 0 1 1 10.758124,38.049999 A 1.6667517 1.6667517 0 1 1 14.091628 38.049999 z" transform="matrix(0.599968,0,0,0.599975,11.54547,2.170961)" style="opacity:1;fill:#72746f;fill-opacity:1;stroke:none;stroke-width:1.2457211;stroke-linecap:round;stroke-linejoin:miter;stroke-miterlimit:4;stroke-dasharray:none;stroke-opacity:1"/><path id="path6733" d="M 14.091628 38.049999 A 1.6667517 1.6667517 0 1 1 10.758124,38.049999 A 1.6667517 1.6667517 0 1 1 14.091628 38.049999 z" transform="matrix(0.599968,0,0,0.599975,5.545474,2.170961)" style="opacity:1;fill:#72746f;fill-opacity:1;stroke:none;stroke-width:1.2457211;stroke-linecap:round;stroke-linejoin:miter;stroke-miterlimit:4;stroke-dasharray:none;stroke-opacity:1"/><path id="path6735" d="M 14.091628 38.049999 A 1.6667517 1.6667517 0 1 1 10.758124,38.049999 A 1.6667517 1.6667517 0 1 1 14.091628 38.049999 z" transform="matrix(0.599968,0,0,0.599975,2.545474,2.170961)" style="opacity:1;fill:#72746f;fill-opacity:1;stroke:none;stroke-width:1.2457211;stroke-linecap:round;stroke-linejoin:miter;stroke-miterlimit:4;stroke-dasharray:none;stroke-opacity:1"/></g><g id="g22" transform="translate(303,177) scale(1.000000,1.000000)" style="display:inline;enable-background:new"><g id="g9078" transform="matrix(0.428571,0,0,0.5,0.714286,-1.5)" style="opacity:.4"><rect id="rect9080" width="4" height="8" x="-7" y="-47" transform="scale(-1,-1)" style="opacity:1;color:#000;fill:url(#radialGradient9116);fill-opacity:1;fill-rule:nonzero;stroke:none;stroke-width:1;stroke-linecap:square;stroke-linejoin:round;marker:none;marker-start:none;marker-mid:none;marker-end:none;stroke-miterlimit:6;stroke-dasharray:none;stroke-dashoffset:1.4;stroke-opacity:1;visibility:visible;display:inline;overflow:visible"/><rect id="rect9082" width="4" height="8" x="41" y="39" style="opacity:1;color:#000;fill:url(#radialGradient9118);fill-opacity:1;fill-rule:nonzero;stroke:none;stroke-width:1;stroke-linecap:square;stroke-linejoin:round;marker:none;marker-start:none;marker-mid:none;marker-end:none;stroke-miterlimit:6;stroke-dasharray:none;stroke-dashoffset:1.4;stroke-opacity:1;visibility:visible;display:inline;overflow:visible"/><rect id="rect9084" width="34" height="8" x="7" y="39" style="opacity:1;color:#000;fill:url(#linearGradient9120);fill-opacity:1;fill-rule:nonzero;stroke:none;stroke-width:1;stroke-linecap:square;stroke-linejoin:round;marker:none;marker-start:none;marker-mid:none;marker-end:none;stroke-miterlimit:6;stroke-dasharray:none;stroke-dashoffset:1.4;stroke-opacity:1;visibility:visible;display:inline;overflow:visible"/></g><rect id="rect9086" width="13" height="5.304" x="4.5" y="15.196" rx="0" ry="0" style="opacity:1;fill:#555753;fill-opacity:1;stroke:#2e3436;stroke-width:1;stroke-linecap:round;stroke-linejoin:round;stroke-miterlimit:4;stroke-dasharray:none;stroke-opacity:1"/><rect id="rect9088" width="11" height="3.444" x="5.5" y="16.056" rx="0" ry="0" style="opacity:.1;fill:none;fill-opacity:1;stroke:#fff;stroke-width:.99999946;stroke-linecap:round;stroke-linejoin:miter;stroke-miterlimit:4;stroke-dasharray:none;stroke-opacity:1"/><path id="path9090" d="M 4.2142842,0.50000089 L 17.785707,0.50000089 C 18.181422,0.50000089 18.499992,0.81024242 18.499992,1.1956098 L 18.499992,17.82066 C 18.499992,18.206025 18.181422,18.516268 17.785707,18.516268 L 4.2142842,18.516268 C 3.8185697,18.516268 3.4999985,18.206025 3.4999985,17.82066 L 3.4999985,1.1956098 C 3.4999985,0.81024242 3.8185697,0.50000089 4.2142842,0.50000089 z" style="opacity:1;fill:url(#linearGradient9122);fill-opacity:1;stroke:#2e3436;stroke-width:1.00000107;stroke-linecap:round;stroke-linejoin:miter;stroke-miterlimit:4;stroke-opacity:1"/><rect id="rect9094" width="11" height="13" x="5.5" y="2.5" rx=".469" ry=".469" style="opacity:1;fill:url(#radialGradient9124);fill-opacity:1;stroke:#2e3436;stroke-width:1.00000048;stroke-linecap:round;stroke-linejoin:miter;stroke-miterlimit:4;stroke-dasharray:none;stroke-opacity:1"/><rect id="rect9096" width="9" height="11" x="6.5" y="3.5" rx="0" ry="0" style="opacity:.16304351;fill:none;fill-opacity:1;stroke:#000;stroke-width:1.00000083;stroke-linecap:round;stroke-linejoin:miter;stroke-miterlimit:4;stroke-dasharray:none;stroke-opacity:1"/><path id="path9106" d="M 5.9999999,11.44586 C 5.9999999,11.44586 6.4526465,8.586412 11.238094,8.479099 C 16.022962,8.3717985 15.999998,3 15.999998,3 L 5.9999999,3 L 5.9999999,11.44586 z" style="opacity:.2;fill:#fff;fill-opacity:1;fill-rule:evenodd;stroke:none;stroke-width:1px;stroke-linecap:butt;stroke-linejoin:miter;stroke-opacity:1"/><path id="path9108" d="M 4.864797,1.5000001 L 17.135216,1.5000001 C 17.337315,1.5000001 17.500012,1.6570251 17.500012,1.8520747 L 17.500012,17.523868 L 4.5000014,17.507863 L 4.5000014,1.8520747 C 4.5000014,1.6570251 4.6627004,1.5000001 4.864797,1.5000001 z" style="opacity:.3;fill:none;fill-opacity:1;stroke:url(#linearGradient9126);stroke-width:1.00000083;stroke-linecap:round;stroke-linejoin:miter;stroke-miterlimit:4;stroke-opacity:1"/></g><g id="g16" transform="translate(303,219) scale(1.000000,1.000000)" style="display:inline;enable-background:new"><rect id="rect114" width="7" height="4" x="4.5" y="11.5" rx="0" ry="0" style="opacity:1;fill:#555753;fill-opacity:1;stroke:#2e3436;stroke-width:1.00000012;stroke-linecap:round;stroke-linejoin:miter;stroke-miterlimit:4;stroke-dasharray:none;stroke-opacity:1"/><path id="path116" d="M 3.0238088,0.50000023 L 12.97618,0.50000023 C 13.266371,0.50000023 13.499989,0.74108124 13.499989,1.0405406 L 13.499989,13.959455 C 13.499989,14.258912 13.266371,14.499996 12.97618,14.499996 L 3.0238088,14.499996 C 2.7336182,14.499996 2.4999995,14.258912 2.4999995,13.959455 L 2.4999995,1.0405406 C 2.4999995,0.74108124 2.7336182,0.50000023 3.0238088,0.50000023 z" style="opacity:1;fill:url(#linearGradient9122);fill-opacity:1;stroke:#2e3436;stroke-width:1.00000072;stroke-linecap:round;stroke-linejoin:miter;stroke-miterlimit:4;stroke-opacity:1"/><rect id="rect118" width="7" height="9" x="4.5" y="2.5" rx="0" ry="0" style="opacity:1;fill:url(#radialGradient9124);fill-opacity:1;stroke:#2e3436;stroke-width:1.00000048;stroke-linecap:round;stroke-linejoin:miter;stroke-miterlimit:4;stroke-dasharray:none;stroke-opacity:1"/></g></g></svg>