<svg xmlns="http://www.w3.org/2000/svg" xmlns:svg="http://www.w3.org/2000/svg" xmlns:xlink="http://www.w3.org/1999/xlink" id="svg11300" width="400" height="300" version="1.0" style="display:inline;enable-background:new"><title id="title457">Accessibility Preferences</title><defs id="defs3"><linearGradient id="linearGradient9073"><stop style="stop-color:#000;stop-opacity:1" id="stop9075" offset="0"/><stop style="stop-color:#000;stop-opacity:0" id="stop9077" offset="1"/></linearGradient><linearGradient id="linearGradient9063"><stop style="stop-color:#000;stop-opacity:1" id="stop9065" offset="0"/><stop style="stop-color:#000;stop-opacity:0" id="stop9067" offset="1"/></linearGradient><linearGradient id="linearGradient9921"><stop id="stop9923" offset="0" style="stop-color:#fff;stop-opacity:1"/><stop id="stop9925" offset="1" style="stop-color:#d2d2cd;stop-opacity:1"/></linearGradient><linearGradient id="linearGradient9879"><stop style="stop-color:#fff;stop-opacity:1" id="stop9881" offset="0"/><stop style="stop-color:#e4e4e1;stop-opacity:1" id="stop9883" offset="1"/></linearGradient><linearGradient id="linearGradient8987"><stop style="stop-color:#fff;stop-opacity:1" id="stop8989" offset="0"/><stop style="stop-color:#fff;stop-opacity:0" id="stop8991" offset="1"/></linearGradient><linearGradient id="linearGradient8972"><stop style="stop-color:#fff;stop-opacity:1" id="stop8974" offset="0"/><stop style="stop-color:#fff;stop-opacity:0" id="stop8976" offset="1"/></linearGradient><linearGradient id="linearGradient6983"><stop style="stop-color:#2e3436;stop-opacity:1" id="stop6985" offset="0"/><stop style="stop-color:#2e3436;stop-opacity:0" id="stop6987" offset="1"/></linearGradient><linearGradient id="linearGradient6915"><stop style="stop-color:#7fa5d7;stop-opacity:1" id="stop6917" offset="0"/><stop style="stop-color:#3a71b7;stop-opacity:1" id="stop6919" offset="1"/></linearGradient><radialGradient id="radialGradient6939" cx="-464.707" cy="-357.845" r="63.512" fx="-464.707" fy="-357.845" gradientTransform="matrix(1.1869922,0,0,0.8727603,86.896626,-45.532075)" gradientUnits="userSpaceOnUse" xlink:href="#linearGradient6915"/><radialGradient id="radialGradient6989" cx="318.035" cy="90.563" r="18.606" fx="318.035" fy="90.563" gradientTransform="matrix(0.9288572,2.6280209e-6,-8.1854474e-7,0.3017001,22.656541,62.141708)" gradientUnits="userSpaceOnUse" xlink:href="#linearGradient6983"/><radialGradient id="radialGradient5243" cx="318.035" cy="90.563" r="18.606" fx="318.035" fy="90.563" gradientTransform="matrix(0.9288572,2.6280209e-6,-8.1854474e-7,0.3017001,22.656541,62.141708)" gradientUnits="userSpaceOnUse" xlink:href="#linearGradient6983"/><radialGradient id="radialGradient5245" cx="-464.707" cy="-357.845" r="63.512" fx="-464.707" fy="-357.845" gradientTransform="matrix(1.1869922,0,0,0.8727603,86.896626,-45.532075)" gradientUnits="userSpaceOnUse" xlink:href="#linearGradient6915"/><radialGradient id="radialGradient5269" cx="318.035" cy="90.563" r="18.606" fx="318.035" fy="90.563" gradientTransform="matrix(0.9288572,2.6280209e-6,-8.1854474e-7,0.3017001,22.656541,62.141708)" gradientUnits="userSpaceOnUse" xlink:href="#linearGradient6983"/><radialGradient id="radialGradient5271" cx="-464.707" cy="-357.845" r="63.512" fx="-464.707" fy="-357.845" gradientTransform="matrix(1.1869922,0,0,0.8727603,86.896626,-45.532075)" gradientUnits="userSpaceOnUse" xlink:href="#linearGradient6915"/><radialGradient id="radialGradient5295" cx="-464.707" cy="-357.845" r="63.512" fx="-464.707" fy="-357.845" gradientTransform="matrix(1.1869922,0,0,0.8727603,86.896626,-45.532075)" gradientUnits="userSpaceOnUse" xlink:href="#linearGradient6915"/><radialGradient id="radialGradient8978" cx="323.855" cy="72.046" r="15.419" fx="323.855" fy="72.046" gradientTransform="matrix(1.0541479,0,0,2.7641865,-17.53606,-127.10337)" gradientUnits="userSpaceOnUse" xlink:href="#linearGradient8972"/><radialGradient id="radialGradient8993" cx="320.484" cy="55.028" r="16.234" fx="320.484" fy="55.028" gradientTransform="matrix(2.2696808,0,0,2.5886157,-407.01413,-89.281881)" gradientUnits="userSpaceOnUse" xlink:href="#linearGradient8987"/><radialGradient id="radialGradient8978-8" cx="323.855" cy="72.046" r="15.419" fx="323.855" fy="72.046" gradientTransform="matrix(1.0541479,0,0,2.7641865,-17.53606,-127.10337)" gradientUnits="userSpaceOnUse" xlink:href="#linearGradient8972-4"/><linearGradient id="linearGradient8972-4"><stop style="stop-color:#fff;stop-opacity:1" id="stop8974-0" offset="0"/><stop style="stop-color:#fff;stop-opacity:0" id="stop8976-2" offset="1"/></linearGradient><radialGradient id="radialGradient8978-7" cx="323.855" cy="72.046" r="15.419" fx="323.855" fy="72.046" gradientTransform="matrix(1.0541479,0,0,2.7641865,-17.53606,-127.10337)" gradientUnits="userSpaceOnUse" xlink:href="#linearGradient8972-5"/><linearGradient id="linearGradient8972-5"><stop style="stop-color:#fff;stop-opacity:1" id="stop8974-05" offset="0"/><stop style="stop-color:#fff;stop-opacity:0" id="stop8976-0" offset="1"/></linearGradient><radialGradient id="radialGradient8978-5" cx="323.855" cy="72.046" r="15.419" fx="323.855" fy="72.046" gradientTransform="matrix(1.0541479,0,0,2.7641865,-17.53606,-127.10337)" gradientUnits="userSpaceOnUse" xlink:href="#linearGradient8972-8"/><linearGradient id="linearGradient8972-8"><stop style="stop-color:#fff;stop-opacity:1" id="stop8974-8" offset="0"/><stop style="stop-color:#fff;stop-opacity:0" id="stop8976-7" offset="1"/></linearGradient><linearGradient id="linearGradient8987-7"><stop style="stop-color:#fff;stop-opacity:1" id="stop8989-0" offset="0"/><stop style="stop-color:#fff;stop-opacity:0" id="stop8991-0" offset="1"/></linearGradient><radialGradient id="radialGradient9102" cx="320.484" cy="55.028" r="16.234" fx="320.484" fy="55.028" gradientTransform="matrix(1.5512444,0,0,1.7692248,-177.9058,30.211614)" gradientUnits="userSpaceOnUse" xlink:href="#linearGradient8987-7"/><linearGradient id="linearGradient8987-3"><stop style="stop-color:#fff;stop-opacity:1" id="stop8989-3" offset="0"/><stop style="stop-color:#fff;stop-opacity:0" id="stop8991-8" offset="1"/></linearGradient><radialGradient id="radialGradient9102-9" cx="320.484" cy="55.028" r="16.234" fx="320.484" fy="55.028" gradientTransform="matrix(1.1043286,0,0,1.2595086,-39.894758,108.2696)" gradientUnits="userSpaceOnUse" xlink:href="#linearGradient8987-3"/><linearGradient id="linearGradient8987-0"><stop style="stop-color:#fff;stop-opacity:1" id="stop8989-8" offset="0"/><stop style="stop-color:#fff;stop-opacity:0" id="stop8991-4" offset="1"/></linearGradient><radialGradient id="radialGradient9102-0" cx="320.484" cy="55.028" r="16.234" fx="320.484" fy="55.028" gradientTransform="matrix(0.8523606,0,0,0.97213407,38.14968,165.426)" gradientUnits="userSpaceOnUse" xlink:href="#linearGradient8987-0"/><linearGradient id="linearGradient5734"><stop id="stop5736" offset="0" style="stop-color:#fff;stop-opacity:1"/><stop id="stop5738" offset="1" style="stop-color:#fff;stop-opacity:0"/></linearGradient><linearGradient id="linearGradient6915-0"><stop style="stop-color:#7fa5d7;stop-opacity:1" id="stop6917-9" offset="0"/><stop style="stop-color:#3a71b7;stop-opacity:1" id="stop6919-5" offset="1"/></linearGradient><linearGradient id="linearGradient8987-2"><stop style="stop-color:#fff;stop-opacity:1" id="stop8989-7" offset="0"/><stop style="stop-color:#fff;stop-opacity:0" id="stop8991-3" offset="1"/></linearGradient><radialGradient id="radialGradient9083" cx="-186.5" cy="103.5" r="79.5" fx="-186.5" fy="103.5" gradientUnits="userSpaceOnUse" xlink:href="#linearGradient9073"/><radialGradient id="radialGradient9085" cx="-186.5" cy="103.5" r="79.5" fx="-186.5" fy="103.5" gradientTransform="matrix(0.9680443,0,0,0.9680443,-5.9597364,3.307414)" gradientUnits="userSpaceOnUse" xlink:href="#linearGradient9063"/><linearGradient id="linearGradient9198" x1="-183.782" x2="-183.782" y1="165.256" y2="54.467" gradientUnits="userSpaceOnUse" xlink:href="#linearGradient6915-0"/><radialGradient id="radialGradient9200" cx="-186.5" cy="234.357" r="76.5" fx="-186.5" fy="234.357" gradientTransform="matrix(1.6217398,0,0,0.8317378,80.454479,80.674856)" gradientUnits="userSpaceOnUse" xlink:href="#linearGradient5734"/><radialGradient id="radialGradient9202" cx="-186.5" cy="234.357" r="76.5" fx="-186.5" fy="234.357" gradientTransform="matrix(1.1019514,0,0,-0.5651552,19.01394,151.21372)" gradientUnits="userSpaceOnUse" xlink:href="#linearGradient5734"/><radialGradient id="radialGradient9204" cx="-170.872" cy="127.751" r="12.5" fx="-170.872" fy="127.751" gradientTransform="matrix(1,0,0,1.1280507,0,-15.592641)" gradientUnits="userSpaceOnUse" xlink:href="#linearGradient9879"/><radialGradient id="radialGradient9206" cx="-170.872" cy="127.751" r="12.5" fx="-170.872" fy="127.751" gradientTransform="matrix(1,0,0,1.1280507,0,-15.592641)" gradientUnits="userSpaceOnUse" xlink:href="#linearGradient9879"/><radialGradient id="radialGradient9208" cx="-170.872" cy="127.751" r="12.5" fx="-170.872" fy="127.751" gradientTransform="matrix(1,0,0,1.1280507,0,-15.592641)" gradientUnits="userSpaceOnUse" xlink:href="#linearGradient9921"/><radialGradient id="radialGradient9210" cx="320.484" cy="55.028" r="16.234" fx="320.484" fy="55.028" gradientTransform="matrix(9.931303,0,0,11.326848,-3401.9856,-591.14007)" gradientUnits="userSpaceOnUse" xlink:href="#linearGradient8987-2"/><radialGradient id="radialGradient9102-0-5" cx="320.484" cy="55.028" r="16.234" fx="320.484" fy="55.028" gradientTransform="matrix(0.8523606,0,0,0.97213407,38.149681,165.426)" gradientUnits="userSpaceOnUse" xlink:href="#linearGradient8987-0-0"/><linearGradient id="linearGradient8987-0-0"><stop style="stop-color:#fff;stop-opacity:1" id="stop8989-8-4" offset="0"/><stop style="stop-color:#fff;stop-opacity:0" id="stop8991-4-8" offset="1"/></linearGradient><radialGradient id="radialGradient9102-9-5" cx="320.484" cy="55.028" r="16.234" fx="320.484" fy="55.028" gradientTransform="matrix(1.1043286,0,0,1.2595086,-39.894759,108.2696)" gradientUnits="userSpaceOnUse" xlink:href="#linearGradient8987-3-1"/><linearGradient id="linearGradient8987-3-1"><stop style="stop-color:#fff;stop-opacity:1" id="stop8989-3-8" offset="0"/><stop style="stop-color:#fff;stop-opacity:0" id="stop8991-8-3" offset="1"/></linearGradient><radialGradient id="radialGradient5243-7" cx="318.035" cy="90.563" r="18.606" fx="318.035" fy="90.563" gradientTransform="matrix(0.9288572,2.6280209e-6,-8.1854474e-7,0.3017001,22.656541,62.141708)" gradientUnits="userSpaceOnUse" xlink:href="#linearGradient6983-4"/><linearGradient id="linearGradient6983-4"><stop style="stop-color:#2e3436;stop-opacity:1" id="stop6985-8" offset="0"/><stop style="stop-color:#2e3436;stop-opacity:0" id="stop6987-9" offset="1"/></linearGradient><filter id="filter7079-2" width="1.169" height="1.519" x="-.084" y="-.26" color-interpolation-filters="sRGB"><feGaussianBlur id="feGaussianBlur7081-4" stdDeviation="1.309"/></filter><radialGradient id="radialGradient5245-1" cx="-464.707" cy="-357.845" r="63.512" fx="-464.707" fy="-357.845" gradientTransform="matrix(1.1869922,0,0,0.8727603,86.896626,-45.532075)" gradientUnits="userSpaceOnUse" xlink:href="#linearGradient6915-7"/><linearGradient id="linearGradient6915-7"><stop style="stop-color:#7fa5d7;stop-opacity:1" id="stop6917-0" offset="0"/><stop style="stop-color:#3a71b7;stop-opacity:1" id="stop6919-1" offset="1"/></linearGradient><radialGradient id="radialGradient8978-8-1" cx="323.855" cy="72.046" r="15.419" fx="323.855" fy="72.046" gradientTransform="matrix(1.0541479,0,0,2.7641865,-17.53606,-127.10337)" gradientUnits="userSpaceOnUse" xlink:href="#linearGradient8972-4-1"/><linearGradient id="linearGradient8972-4-1"><stop style="stop-color:#fff;stop-opacity:1" id="stop8974-0-0" offset="0"/><stop style="stop-color:#fff;stop-opacity:0" id="stop8976-2-2" offset="1"/></linearGradient><radialGradient id="radialGradient9102-8" cx="320.484" cy="55.028" r="16.234" fx="320.484" fy="55.028" gradientTransform="matrix(1.5512444,0,0,1.7692248,-177.9058,30.211614)" gradientUnits="userSpaceOnUse" xlink:href="#linearGradient8987-7-7"/><linearGradient id="linearGradient8987-7-7"><stop style="stop-color:#fff;stop-opacity:1" id="stop8989-0-3" offset="0"/><stop style="stop-color:#fff;stop-opacity:0" id="stop8991-0-2" offset="1"/></linearGradient><radialGradient id="radialGradient6989-1" cx="318.035" cy="90.563" r="18.606" fx="318.035" fy="90.563" gradientTransform="matrix(0.9288572,2.6280209e-6,-8.1854474e-7,0.3017001,22.656541,62.141708)" gradientUnits="userSpaceOnUse" xlink:href="#linearGradient6983-4"/><radialGradient id="radialGradient6939-7" cx="-464.707" cy="-357.845" r="63.512" fx="-464.707" fy="-357.845" gradientTransform="matrix(1.1869922,0,0,0.8727603,86.896626,-45.532075)" gradientUnits="userSpaceOnUse" xlink:href="#linearGradient6915-7"/><radialGradient id="radialGradient8978-80" cx="323.855" cy="72.046" r="15.419" fx="323.855" fy="72.046" gradientTransform="matrix(1.0541479,0,0,2.7641865,-17.53606,-127.10337)" gradientUnits="userSpaceOnUse" xlink:href="#linearGradient8972-43"/><linearGradient id="linearGradient8972-43"><stop style="stop-color:#fff;stop-opacity:1" id="stop8974-2" offset="0"/><stop style="stop-color:#fff;stop-opacity:0" id="stop8976-03" offset="1"/></linearGradient><radialGradient id="radialGradient8993-7" cx="320.484" cy="55.028" r="16.234" fx="320.484" fy="55.028" gradientTransform="matrix(2.2696808,0,0,2.5886157,-407.01413,-89.281881)" gradientUnits="userSpaceOnUse" xlink:href="#linearGradient8987-1"/><linearGradient id="linearGradient8987-1"><stop style="stop-color:#fff;stop-opacity:1" id="stop8989-4" offset="0"/><stop style="stop-color:#fff;stop-opacity:0" id="stop8991-2" offset="1"/></linearGradient><radialGradient id="radialGradient8978-5-0" cx="323.855" cy="72.046" r="15.419" fx="323.855" fy="72.046" gradientTransform="matrix(1.0541479,0,0,2.7641865,-17.53606,-127.10337)" gradientUnits="userSpaceOnUse" xlink:href="#linearGradient8972-8-8"/><linearGradient id="linearGradient8972-8-8"><stop style="stop-color:#fff;stop-opacity:1" id="stop8974-8-0" offset="0"/><stop style="stop-color:#fff;stop-opacity:0" id="stop8976-7-9" offset="1"/></linearGradient><radialGradient id="radialGradient5295-2" cx="-464.707" cy="-357.845" r="63.512" fx="-464.707" fy="-357.845" gradientTransform="matrix(1.1869922,0,0,0.8727603,86.896626,-45.532075)" gradientUnits="userSpaceOnUse" xlink:href="#linearGradient6915-7"/><radialGradient id="radialGradient8978-7-5" cx="323.855" cy="72.046" r="15.419" fx="323.855" fy="72.046" gradientTransform="matrix(1.0541479,0,0,2.7641865,-17.53606,-127.10337)" gradientUnits="userSpaceOnUse" xlink:href="#linearGradient8972-5-2"/><linearGradient id="linearGradient8972-5-2"><stop style="stop-color:#fff;stop-opacity:1" id="stop8974-05-9" offset="0"/><stop style="stop-color:#fff;stop-opacity:0" id="stop8976-0-7" offset="1"/></linearGradient><radialGradient id="radialGradient5271-4" cx="-464.707" cy="-357.845" r="63.512" fx="-464.707" fy="-357.845" gradientTransform="matrix(1.1869922,0,0,0.8727603,86.896626,-45.532075)" gradientUnits="userSpaceOnUse" xlink:href="#linearGradient6915-7"/><radialGradient id="radialGradient3424" cx="318.035" cy="90.563" r="18.606" fx="318.035" fy="90.563" gradientTransform="matrix(0.9288572,2.6280209e-6,-8.1854474e-7,0.3017001,22.656541,62.141708)" gradientUnits="userSpaceOnUse" xlink:href="#linearGradient6983-4"/><linearGradient id="linearGradient9063-9"><stop style="stop-color:#000;stop-opacity:1" id="stop9065-4" offset="0"/><stop style="stop-color:#000;stop-opacity:0" id="stop9067-7" offset="1"/></linearGradient><radialGradient id="radialGradient9083-9" cx="-186.5" cy="103.5" r="79.5" fx="-186.5" fy="103.5" gradientUnits="userSpaceOnUse" xlink:href="#linearGradient9073-0"/><linearGradient id="linearGradient9073-0"><stop style="stop-color:#000;stop-opacity:1" id="stop9075-3" offset="0"/><stop style="stop-color:#000;stop-opacity:0" id="stop9077-0" offset="1"/></linearGradient><clipPath id="clipPath9194-7" clipPathUnits="userSpaceOnUse"><path id="path9196-0" d="m -107,103.5 a 79.5,79.5 0 1 1 -159,0 79.5,79.5 0 1 1 159,0 z" transform="matrix(1.4716981,0,0,1.4716981,52.4717,-2.20755)" style="fill:#000;fill-opacity:1;fill-rule:nonzero;stroke:none;stroke-width:.67948717;marker:none;visibility:visible;display:inline;overflow:visible;enable-background:accumulate"/></clipPath><linearGradient id="linearGradient9198-7" x1="-183.782" x2="-183.782" y1="165.256" y2="54.467" gradientUnits="userSpaceOnUse" xlink:href="#linearGradient6915-0-9"/><linearGradient id="linearGradient6915-0-9"><stop style="stop-color:#7fa5d7;stop-opacity:1" id="stop6917-9-7" offset="0"/><stop style="stop-color:#3a71b7;stop-opacity:1" id="stop6919-5-6" offset="1"/></linearGradient><radialGradient id="radialGradient9200-2" cx="-186.5" cy="234.357" r="76.5" fx="-186.5" fy="234.357" gradientTransform="matrix(1.6217398,0,0,0.8317378,80.454479,80.674856)" gradientUnits="userSpaceOnUse" xlink:href="#linearGradient5734-5"/><linearGradient id="linearGradient5734-5"><stop id="stop5736-9" offset="0" style="stop-color:#fff;stop-opacity:1"/><stop id="stop5738-9" offset="1" style="stop-color:#fff;stop-opacity:0"/></linearGradient><radialGradient id="radialGradient9202-6" cx="-186.5" cy="234.357" r="76.5" fx="-186.5" fy="234.357" gradientTransform="matrix(1.1019514,0,0,-0.5651552,19.01394,151.21372)" gradientUnits="userSpaceOnUse" xlink:href="#linearGradient5734-5"/><filter id="filter5750-8" color-interpolation-filters="sRGB"><feGaussianBlur id="feGaussianBlur5752-1" stdDeviation="1.476"/></filter><radialGradient id="radialGradient9208-0" cx="-170.872" cy="127.751" r="12.5" fx="-170.872" fy="127.751" gradientTransform="matrix(1,0,0,1.1280507,0,-15.592641)" gradientUnits="userSpaceOnUse" xlink:href="#linearGradient9921-7"/><linearGradient id="linearGradient9921-7"><stop id="stop9923-5" offset="0" style="stop-color:#fff;stop-opacity:1"/><stop id="stop9925-5" offset="1" style="stop-color:#d2d2cd;stop-opacity:1"/></linearGradient><radialGradient id="radialGradient9204-4" cx="-170.872" cy="127.751" r="12.5" fx="-170.872" fy="127.751" gradientTransform="matrix(1,0,0,1.1280507,0,-15.592641)" gradientUnits="userSpaceOnUse" xlink:href="#linearGradient9879-4"/><linearGradient id="linearGradient9879-4"><stop style="stop-color:#fff;stop-opacity:1" id="stop9881-6" offset="0"/><stop style="stop-color:#e4e4e1;stop-opacity:1" id="stop9883-2" offset="1"/></linearGradient><radialGradient id="radialGradient9206-9" cx="-170.872" cy="127.751" r="12.5" fx="-170.872" fy="127.751" gradientTransform="matrix(1,0,0,1.1280507,0,-15.592641)" gradientUnits="userSpaceOnUse" xlink:href="#linearGradient9879-4"/><radialGradient id="radialGradient9210-7" cx="320.484" cy="55.028" r="16.234" fx="320.484" fy="55.028" gradientTransform="matrix(9.931303,0,0,11.326848,-3401.9856,-591.14007)" gradientUnits="userSpaceOnUse" xlink:href="#linearGradient8987-2-6"/><linearGradient id="linearGradient8987-2-6"><stop style="stop-color:#fff;stop-opacity:1" id="stop8989-7-8" offset="0"/><stop style="stop-color:#fff;stop-opacity:0" id="stop8991-3-4" offset="1"/></linearGradient><filter id="filter9927-6" color-interpolation-filters="sRGB"><feGaussianBlur id="feGaussianBlur9929-0" stdDeviation="1.59"/></filter><radialGradient id="radialGradient3713" cx="-186.5" cy="103.5" r="79.5" fx="-186.5" fy="103.5" gradientTransform="matrix(0.9680443,0,0,0.9680443,-5.9597364,3.307414)" gradientUnits="userSpaceOnUse" xlink:href="#linearGradient9063-9"/><radialGradient id="radialGradient220912" cx="-186.5" cy="103.5" r="79.5" fx="-186.5" fy="103.5" gradientTransform="matrix(0.9680443,0,0,0.9680443,-5.9597364,3.307414)" gradientUnits="userSpaceOnUse" xlink:href="#linearGradient9063-9"/><radialGradient id="radialGradient220914" cx="-186.5" cy="103.5" r="79.5" fx="-186.5" fy="103.5" gradientUnits="userSpaceOnUse" xlink:href="#linearGradient9073-0"/><linearGradient id="linearGradient220916" x1="-183.782" x2="-183.782" y1="165.256" y2="54.467" gradientUnits="userSpaceOnUse" xlink:href="#linearGradient6915-0-9"/><radialGradient id="radialGradient220918" cx="-186.5" cy="234.357" r="76.5" fx="-186.5" fy="234.357" gradientTransform="matrix(1.6217398,0,0,0.8317378,80.454479,80.674856)" gradientUnits="userSpaceOnUse" xlink:href="#linearGradient5734-5"/><radialGradient id="radialGradient220920" cx="-186.5" cy="234.357" r="76.5" fx="-186.5" fy="234.357" gradientTransform="matrix(1.1019514,0,0,-0.5651552,19.01394,151.21372)" gradientUnits="userSpaceOnUse" xlink:href="#linearGradient5734-5"/><radialGradient id="radialGradient220922" cx="-170.872" cy="127.751" r="12.5" fx="-170.872" fy="127.751" gradientTransform="matrix(1,0,0,1.1280507,0,-15.592641)" gradientUnits="userSpaceOnUse" xlink:href="#linearGradient9879-4"/><radialGradient id="radialGradient220924" cx="-170.872" cy="127.751" r="12.5" fx="-170.872" fy="127.751" gradientTransform="matrix(1,0,0,1.1280507,0,-15.592641)" gradientUnits="userSpaceOnUse" xlink:href="#linearGradient9879-4"/><radialGradient id="radialGradient220926" cx="-170.872" cy="127.751" r="12.5" fx="-170.872" fy="127.751" gradientTransform="matrix(1,0,0,1.1280507,0,-15.592641)" gradientUnits="userSpaceOnUse" xlink:href="#linearGradient9921-7"/><radialGradient id="radialGradient220928" cx="320.484" cy="55.028" r="16.234" fx="320.484" fy="55.028" gradientTransform="matrix(9.931303,0,0,11.326848,-3401.9856,-591.14007)" gradientUnits="userSpaceOnUse" xlink:href="#linearGradient8987-2-6"/><filter id="filter221470" width="1.572" height="1.572" x="-.286" y="-.286"><feGaussianBlur id="feGaussianBlur221472" stdDeviation="18.934"/></filter><filter id="filter221486" width="1.242" height="1.242" x="-.121" y="-.121"><feGaussianBlur id="feGaussianBlur221488" stdDeviation="8.025"/></filter></defs><metadata id="metadata4"/><g id="layer2" style="display:inline"><g id="layer3" style="display:none"><rect id="rect2993" width="48" height="48" x="296" y="49" style="fill:#eeeeec;fill-opacity:1;fill-rule:nonzero;stroke:none;stroke-width:2;marker:none;visibility:visible;display:inline;overflow:visible;enable-background:accumulate"/><rect style="fill:#eeeeec;fill-opacity:1;fill-rule:nonzero;stroke:none;stroke-width:2;marker:none;visibility:visible;display:inline;overflow:visible;enable-background:accumulate" id="rect2995" width="32" height="32" x="303" y="125"/><rect id="rect2997" width="22" height="22" x="303" y="175.831" style="fill:#eeeeec;fill-opacity:1;fill-rule:nonzero;stroke:none;stroke-width:2;marker:none;visibility:visible;display:inline;overflow:visible;enable-background:accumulate"/><rect style="fill:#eeeeec;fill-opacity:1;fill-rule:nonzero;stroke:none;stroke-width:2;marker:none;visibility:visible;display:inline;overflow:visible;enable-background:accumulate" id="rect2999" width="16" height="16" x="303" y="218"/><rect style="fill:#eeeeec;fill-opacity:1;fill-rule:nonzero;stroke:none;stroke-width:2;marker:none;visibility:visible;display:inline;overflow:visible;enable-background:accumulate" id="rect3001" width="24" height="24" x="302" y="175"/><rect style="fill:#eeeeec;fill-opacity:1;fill-rule:nonzero;stroke:none;stroke-width:2;marker:none;visibility:visible;display:inline;overflow:visible;enable-background:accumulate" id="rect3007" width="256" height="256" x="20" y="29"/><text style="font-size:18.30070686px;font-style:normal;font-variant:normal;font-weight:700;font-stretch:normal;text-align:start;line-height:125%;writing-mode:lr-tb;text-anchor:start;fill:#000;fill-opacity:1;stroke:none;display:inline;enable-background:new;font-family:Droid Sans;-inkscape-font-specification:Droid Sans Bold" id="text3029" x="89.971" y="20.286" xml:space="preserve"><tspan id="tspan3031" x="89.971" y="20.286">preferences-desktop-accessibility</tspan></text><text style="font-size:18.30070686px;font-style:normal;font-weight:400;fill:#000;fill-opacity:1;stroke:none;display:inline;enable-background:new;font-family:Bitstream Vera Sans" id="text3003" x="20.971" y="20.286" xml:space="preserve"><tspan id="tspan3005" x="20.971" y="20.286">apps</tspan></text><path style="opacity:.29455285;fill:#729fcf;fill-opacity:1;fill-rule:nonzero;stroke:none;stroke-width:2;marker:none;visibility:visible;display:inline;overflow:visible;enable-background:accumulate" id="rect3068-1" d="m 20.0625,29 0,238 0,18 237.9375,0 18,0 0.0625,0 0,-18 -0.0625,0 0,-238 -18,0 0,238 -219.9375,0 0,-238 -18,0 z"/></g><g id="layer1" style="display:inline"><path style="opacity:.78341011;fill:url(#radialGradient3424);fill-opacity:1;stroke:none;display:inline;filter:url(#filter7079-2);enable-background:new" id="path5253" d="m 336.67121,88.88443 a 18.605747,6.0546017 0 1 1 -37.2115,0 18.605747,6.0546017 0 1 1 37.2115,0 z" transform="matrix(0.5993245,0,0,0.3032477,123.53488,169.20153)"/><path style="fill:url(#radialGradient5271-4);fill-opacity:1;stroke:#1b3f74;stroke-width:5.90475988;stroke-linecap:round;stroke-linejoin:miter;stroke-miterlimit:4;stroke-opacity:1;stroke-dasharray:none;stroke-dashoffset:0;display:inline;enable-background:new" id="path5255" d="m -401,-398 a 62,62 0 1 1 -124,0 62,62 0 1 1 124,0 z" transform="matrix(0.169355,0,0,0.1693548,392.41134,254.4032)"/><path style="fill:#204a87;fill-opacity:1;stroke:none;display:inline;enable-background:new" id="path5259" d="m 12.408371,7.1446853 a 1.3102987,1.3102987 0 1 1 -2.6205976,0 1.3102987,1.3102987 0 1 1 2.6205976,0 z" transform="matrix(1.5263698,0,0,1.5263701,297.06024,169.09457)"/><path style="fill:#fff;fill-opacity:1;stroke:none;display:inline;enable-background:new" id="path5261" d="m 12.408371,7.1446853 a 1.3102987,1.3102987 0 1 1 -2.6205976,0 1.3102987,1.3102987 0 1 1 2.6205976,0 z" transform="matrix(1.526371,0,0,1.5263686,297.06023,170.09458)"/><path style="fill:#204a87;fill-opacity:1;fill-rule:evenodd;stroke:none;display:inline;enable-background:new" id="path5263" d="m 319.42435,182.98205 -11.27371,0.0176 c -0.15259,0.0801 -0.25264,0.27002 -0.25474,0.45074 -0.002,0.18072 0.10405,0.33658 0.25474,0.42068 l 4.13969,0.55585 1.7303,3.72225 -0.12907,0.15025 0.56687,-0.12051 1.04825,-3.52986 4.22902,-0.79558 c 0.1696,-0.12627 0.24329,-0.36533 0.16983,-0.57092 -0.0735,-0.20562 -0.27537,-0.32542 -0.48118,-0.30049 l 0,-1e-5 z"/><path style="fill:#fff;fill-opacity:1;fill-rule:evenodd;stroke:none;display:inline;enable-background:new" id="path5265" d="m 319.3931,184.05751 -11.27372,0.0796 c -0.15258,0.0778 -0.25261,0.26223 -0.25473,0.43772 -0.002,0.17552 0.10404,0.32688 0.25473,0.40854 l 4.92446,1.07703 -1.00057,2.40866 -1.92947,4.77744 c -0.14069,0.21754 -0.0978,0.49692 0.11321,0.64195 0.21103,0.14507 0.51029,0.10086 0.651,-0.1167 l 3.20106,-5.15678 3.18782,5.14785 c 0.12506,0.22565 0.40384,0.30403 0.62268,0.17511 0.21885,-0.12893 0.29488,-0.41637 0.16982,-0.642 l -1.99611,-4.79798 -1.02887,-2.44059 4.67004,-1.15358 c 0,0 0.24329,-0.35477 0.16983,-0.55444 -0.0735,-0.19967 -0.27537,-0.31602 -0.48118,-0.29183 z"/><path id="path5267" d="m 338.88094,72.046448 a 15.026019,15.644737 0 1 1 -30.05204,0 15.026019,15.644737 0 1 1 30.05204,0 z" transform="matrix(0.632237,0,0,0.607233,109.24693,143.25102)" style="opacity:.84615383;fill:none;stroke:url(#radialGradient8978-7-5);stroke-width:1.61392128;stroke-linecap:round;stroke-linejoin:miter;stroke-miterlimit:4;stroke-opacity:1;stroke-dasharray:none;stroke-dashoffset:0;marker:none;visibility:visible;display:inline;overflow:visible;enable-background:accumulate"/><path style="fill:url(#radialGradient5295-2);fill-opacity:1;stroke:#1b3f74;stroke-width:8.26666451;stroke-linecap:round;stroke-linejoin:miter;stroke-miterlimit:4;stroke-opacity:1;stroke-dasharray:none;stroke-dashoffset:0;display:inline;enable-background:new" id="path5279" d="m -401,-398 a 62,62 0 1 1 -124,0 62,62 0 1 1 124,0 z" transform="matrix(0.1209678,0,0,0.1209677,367.00812,274.14515)"/><path style="fill:#204a87;fill-opacity:1;stroke:none;display:inline;enable-background:new" id="path5283" d="m 12.408371,7.1446853 a 1.3102987,1.3102987 0 1 1 -2.6205976,0 1.3102987,1.3102987 0 1 1 2.6205976,0 z" transform="matrix(0.7631865,0,0,0.763183,302.5301,215.5473)"/><path style="fill:#fff;fill-opacity:1;stroke:none;display:inline;enable-background:new" id="path5285" d="m 12.408371,7.1446853 a 1.3102987,1.3102987 0 1 1 -2.6205976,0 1.3102987,1.3102987 0 1 1 2.6205976,0 z" transform="matrix(0.7631833,0,0,0.7631854,302.53014,216.54728)"/><path style="fill:#fff;fill-opacity:1;fill-rule:evenodd;stroke:none;display:inline;enable-background:new" id="path5289" d="m 314.98783,224.00222 -7.9664,0.056 0.0221,0.97127 3.00339,-0.0153 -0.0202,2.09302 -1.80128,3.36248 c -0.10052,0.15312 -0.0699,0.34975 0.0809,0.45183 0.15078,0.1021 0.36459,0.071 0.46512,-0.0821 l 2.19869,-2.85607 2.36601,2.84978 c 0.0893,0.15882 0.28853,0.21399 0.44489,0.12325 0.15636,-0.0907 0.21068,-0.29305 0.12133,-0.45186 l -1.85804,-3.37694 -0.0404,-2.0934 2.96334,-0.0606 0.0206,-0.97128 -5e-5,-8e-5 z"/><path id="path5291" d="m 338.88094,72.046448 a 15.026019,15.644737 0 1 1 -30.05204,0 15.026019,15.644737 0 1 1 30.05204,0 z" transform="matrix(0.432583,0,0,0.4154751,170.90585,196.06649)" style="opacity:.84615383;fill:none;stroke:url(#radialGradient8978-5-0);stroke-width:2.35880876;stroke-linecap:round;stroke-linejoin:miter;stroke-miterlimit:4;stroke-opacity:1;stroke-dasharray:none;stroke-dashoffset:0;marker:none;visibility:visible;display:inline;overflow:visible;enable-background:accumulate"/><path style="fill:none;stroke:#204a87;stroke-width:1px;stroke-linecap:butt;stroke-linejoin:miter;stroke-opacity:1;display:inline;enable-background:new" id="path5301" d="m 306.99177,223.5 8.02124,0"/><g style="display:inline;enable-background:new" id="g9104" transform="translate(1.1653914e-6,-4.0209186e-6)"><path id="path6981" d="m 336.67121,88.88443 c 0,3.343864 -8.33008,6.054602 -18.60575,6.054602 -10.27567,0 -18.60575,-2.710738 -18.60575,-6.054602 0,-3.343864 8.33008,-6.054602 18.60575,-6.054602 10.27567,0 18.60575,2.710738 18.60575,6.054602 z" transform="matrix(1.1824306,0,0,0.5985401,-56.090345,38.284382)" style="opacity:.78341011;fill:url(#radialGradient6989-1);fill-opacity:1;stroke:none;filter:url(#filter7079-2)"/><path id="path6626" d="m -401,-398 c 0,34.24165 -27.75835,62 -62,62 -34.24165,0 -62,-27.75835 -62,-62 0,-34.24165 27.75835,-62 62,-62 34.24165,0 62,27.75835 62,62 z" transform="matrix(0.3306452,0,0,0.3306451,473.08873,204.59676)" style="fill:url(#radialGradient6939-7);fill-opacity:1;stroke:#1b3f74;stroke-width:3.02439022;stroke-linecap:round;stroke-linejoin:miter;stroke-miterlimit:4;stroke-opacity:1;stroke-dasharray:none;stroke-dashoffset:0"/><path id="path6967" d="m 12.408371,7.1446853 c 0,0.7236579 -0.586641,1.3102986 -1.310299,1.3102986 -0.723658,0 -1.3102986,-0.5866407 -1.3102986,-1.3102986 0,-0.723658 0.5866406,-1.3102987 1.3102986,-1.3102987 0.723658,0 1.310299,0.5866407 1.310299,1.3102987 z" transform="matrix(2.4645233,0,0,2.4645236,292.33604,44.329254)" style="fill:#204a87;fill-opacity:1;stroke:none;display:inline;enable-background:new"/><path id="path6668" d="m 12.408371,7.1446853 c 0,0.7236579 -0.586641,1.3102986 -1.310299,1.3102986 -0.723658,0 -1.3102986,-0.5866407 -1.3102986,-1.3102986 0,-0.723658 0.5866406,-1.3102987 1.3102986,-1.3102987 0.723658,0 1.310299,0.5866407 1.310299,1.3102987 z" transform="matrix(2.4645233,0,0,2.4645236,292.30132,45.419794)" style="fill:#fff;fill-opacity:1;stroke:none"/><path id="path6965" d="m 330.02647,65.365797 c -0.1374,0.02396 -0.26724,0.08228 -0.37853,0.170143 l -10.14825,1.703056 -10.09363,-1.726542 c -0.26092,-0.203657 -0.62776,-0.264643 -0.91931,-0.113442 -0.29155,0.151199 -0.48268,0.509569 -0.48669,0.850583 -0.004,0.341059 0.19878,0.635187 0.48669,0.793887 l 7.90935,2.700172 -0.0541,6.198685 -2.79087,9.283631 c -0.2688,0.422738 -0.18689,0.965653 0.2163,1.247483 0.4032,0.281872 0.97498,0.195989 1.2438,-0.226798 l 4.50391,-10.020773 4.41891,10.003456 c 0.23896,0.438472 0.77158,0.590787 1.18971,0.340242 0.41814,-0.250542 0.5634,-0.809053 0.32447,-1.247528 l -2.73908,-9.323571 -0.10815,-5.835642 8.02033,-3.152571 c 0.32404,-0.238287 0.46483,-0.6894 0.32447,-1.077386 -0.14038,-0.388029 -0.5261,-0.614101 -0.91934,-0.567085 l 1e-5,0 z" style="fill:#204a87;fill-opacity:1;fill-rule:evenodd;stroke:none;display:inline;enable-background:new"/><path id="path6670" d="m 330.94183,66.461792 c -0.14936,0.0242 -0.29049,0.08311 -0.41145,0.171849 l -11.03073,1.72013 -10.97132,-1.743852 c -0.28361,-0.205699 -0.68235,-0.267296 -0.99925,-0.114579 -0.3169,0.152715 -0.52465,0.514678 -0.52902,0.85911 -0.004,0.344479 0.21606,0.641556 0.52902,0.801847 l 8.5971,2.727243 -0.0588,6.260831 -3.03357,9.376706 c -0.29217,0.426976 -0.20312,0.975334 0.23512,1.259989 0.43826,0.284698 1.05975,0.197954 1.35195,-0.229071 l 4.89557,-10.121238 4.80316,10.103747 c 0.25972,0.442868 0.83867,0.59671 1.29316,0.343653 0.45449,-0.253054 0.61239,-0.817164 0.35268,-1.260035 l -2.97726,-9.417046 -0.11754,-5.894149 8.71773,-3.184177 c 0.35223,-0.240676 0.50525,-0.696312 0.35269,-1.088188 -0.15257,-0.391919 -0.57185,-0.620258 -0.99927,-0.57277 l 3e-5,0 z" style="fill:#fff;fill-opacity:1;fill-rule:evenodd;stroke:none"/><path style="opacity:.84615383;fill:none;stroke:url(#radialGradient8978-80);stroke-width:.78626961;stroke-linecap:round;stroke-linejoin:miter;stroke-miterlimit:4;stroke-opacity:1;stroke-dasharray:none;stroke-dashoffset:0" id="path6629" d="m 338.88094,72.046448 c 0,8.64035 -6.72738,15.644737 -15.02602,15.644737 -8.29864,0 -15.02602,-7.004387 -15.02602,-15.644737 0,-8.64035 6.72738,-15.644737 15.02602,-15.644737 8.29864,0 15.02602,7.004387 15.02602,15.644737 z" transform="matrix(1.2977488,0,0,1.2464255,-100.28235,-16.800529)"/><path id="path8980" d="m 319.9118,54 c -10.47332,0 -18.9734,8.500092 -18.9734,18.973416 0,7.513125 4.39444,13.984991 10.73337,17.057834 0,0 -4.01642,-26.946676 20.85858,-31.196676 C 329.86836,55.909642 324.75898,54 319.9118,54 z" style="opacity:.32692309;fill:url(#radialGradient8993-7);fill-opacity:1;stroke:none"/></g><g style="display:inline;enable-background:new" id="g9133" transform="translate(1.1653914e-6,-4.0209186e-6)"><path id="path5225" d="m 336.67121,88.88443 c 0,3.343864 -8.33008,6.054602 -18.60575,6.054602 -10.27567,0 -18.60575,-2.710738 -18.60575,-6.054602 0,-3.343864 8.33008,-6.054602 18.60575,-6.054602 10.27567,0 18.60575,2.710738 18.60575,6.054602 z" transform="matrix(0.8463622,0,0,0.428351,49.690712,116.1906)" style="opacity:.78341011;fill:url(#radialGradient5243-7);fill-opacity:1;stroke:none;display:inline;filter:url(#filter7079-2);enable-background:new"/><path id="path5227" d="m -401,-398 c 0,34.24165 -27.75835,62 -62,62 -34.24165,0 -62,-27.75835 -62,-62 0,-34.24165 27.75835,-62 62,-62 34.24165,0 62,27.75835 62,62 z" transform="matrix(0.2338707,0,0,0.2338709,427.28217,234.08062)" style="fill:url(#radialGradient5245-1);fill-opacity:1;stroke:#1b3f74;stroke-width:4.2758646;stroke-linecap:round;stroke-linejoin:miter;stroke-miterlimit:4;stroke-opacity:1;stroke-dasharray:none;stroke-dashoffset:0;display:inline;enable-background:new"/><path id="path5231" d="m 12.408371,7.1446853 c 0,0.7236579 -0.586641,1.3102986 -1.310299,1.3102986 -0.723658,0 -1.3102986,-0.5866407 -1.3102986,-1.3102986 0,-0.723658 0.5866406,-1.3102987 1.3102986,-1.3102987 0.723658,0 1.310299,0.5866407 1.310299,1.3102987 z" transform="matrix(1.7640607,0,0,1.7637603,299.11088,119.70954)" style="fill:#204a87;fill-opacity:1;stroke:none;display:inline;enable-background:new"/><path id="path5233" d="m 12.408371,7.1446853 c 0,0.7236579 -0.586641,1.3102986 -1.310299,1.3102986 -0.723658,0 -1.3102986,-0.5866407 -1.3102986,-1.3102986 0,-0.723658 0.5866406,-1.3102987 1.3102986,-1.3102987 0.723658,0 1.310299,0.5866407 1.310299,1.3102987 z" transform="matrix(1.7640607,0,0,1.7637603,299.11088,120.70954)" style="fill:#fff;fill-opacity:1;stroke:none;display:inline;enable-background:new"/><path id="path5235" d="m 326.28044,135.03821 c -0.10155,0.0179 -0.19753,0.0616 -0.27979,0.12735 l -7.50088,1.27477 -7.46051,-1.29235 c -0.19285,-0.15244 -0.464,-0.19809 -0.67948,-0.0849 -0.2155,0.11317 -0.35678,0.38141 -0.35974,0.63668 -0.003,0.25528 0.14693,0.47544 0.35974,0.59424 l 5.84604,2.02113 -0.04,4.63986 -2.06282,6.949 c -0.19868,0.31643 -0.13814,0.72281 0.15987,0.93376 0.29802,0.21099 0.72064,0.14671 0.91933,-0.16975 l 3.32898,-7.50078 3.26615,7.48781 c 0.17662,0.32821 0.5703,0.44222 0.87935,0.25468 0.30906,-0.18753 0.41643,-0.60559 0.23983,-0.93381 l -2.02454,-6.97889 -0.0799,-4.3681 5.92806,-2.35977 c 0.23951,-0.17837 0.34358,-0.51604 0.23983,-0.80646 -0.10376,-0.29044 -0.38886,-0.45966 -0.67951,-0.42446 l -10e-6,-1e-5 z" style="fill:#204a87;fill-opacity:1;fill-rule:evenodd;stroke:none;display:inline;enable-background:new"/><path id="path5237" d="m 326.28044,136.03582 c -0.10156,0.0168 -0.19752,0.0577 -0.27977,0.1194 l -7.50091,1.19511 -7.46049,-1.21159 c -0.19285,-0.14292 -0.464,-0.18571 -0.6795,-0.0796 -0.21549,0.10612 -0.35675,0.3576 -0.35973,0.59689 -0.003,0.23934 0.14692,0.44574 0.35973,0.55711 l 5.84604,1.89481 -0.04,4.34986 -2.06283,6.51468 c -0.19868,0.29666 -0.13812,0.67764 0.15988,0.8754 0.29801,0.19781 0.72063,0.13754 0.91933,-0.15914 l 3.32898,-7.03197 3.26615,7.01981 c 0.17661,0.3077 0.5703,0.41458 0.87935,0.23877 0.30906,-0.17582 0.41643,-0.56775 0.23982,-0.87545 l -2.02454,-6.5427 -0.0799,-4.0951 5.92805,-2.21228 c 0.23952,-0.16722 0.34357,-0.48378 0.23983,-0.75605 -0.10374,-0.27229 -0.38886,-0.43094 -0.67951,-0.39795 l 2e-5,-1e-5 z" style="fill:#fff;fill-opacity:1;fill-rule:evenodd;stroke:none;display:inline;enable-background:new"/><path style="opacity:.84615383;fill:none;stroke:url(#radialGradient8978-8-1);stroke-width:1.13572276;stroke-linecap:round;stroke-linejoin:miter;stroke-miterlimit:4;stroke-opacity:1;stroke-dasharray:none;stroke-dashoffset:0;marker:none;visibility:visible;display:inline;overflow:visible;enable-background:accumulate" id="path5239" d="m 338.88094,72.046448 c 0,8.64035 -6.72738,15.644737 -15.02602,15.644737 -8.29864,0 -15.02602,-7.004387 -15.02602,-15.644737 0,-8.64035 6.72738,-15.644737 15.02602,-15.644737 8.29864,0 15.02602,7.004387 15.02602,15.644737 z" transform="matrix(0.8984413,0,0,0.8629101,28.035367,78.830393)"/><path id="path8980-7" d="m 318.92166,128.13957 c -7.15813,0 -12.96763,5.80951 -12.96763,12.96764 0,5.13495 3.00344,9.55824 7.33587,11.65841 0,0 -2.74508,-18.41707 14.25608,-21.32179 -1.81937,-1.99908 -5.31145,-3.30426 -8.62432,-3.30426 z" style="opacity:.32692309;fill:url(#radialGradient9102-8);fill-opacity:1;stroke:none;display:inline;enable-background:new"/></g><path style="opacity:.32692309;fill:url(#radialGradient9102-9-5);fill-opacity:1;stroke:none;display:inline;enable-background:new" id="path8980-5" d="m 313.79601,177.98437 c -5.09588,0 -9.23164,4.13579 -9.23164,9.23165 0,3.65556 2.13814,6.80449 5.22239,8.2996 0,0 -1.95421,-13.11109 10.14888,-15.17895 -1.29521,-1.42315 -3.78121,-2.3523 -6.13963,-2.3523 l 0,0 z"/><path style="opacity:.32692309;fill:url(#radialGradient9102-0-5);fill-opacity:1;stroke:none;display:inline;enable-background:new" id="path8980-9" d="m 311.14094,219.23437 c -3.93316,0 -7.12531,3.19214 -7.12531,7.12531 0,2.8215 1.6503,5.25196 4.03084,6.40594 0,0 -1.50834,-10.1196 7.83327,-11.71566 -0.99969,-1.09844 -2.91847,-1.81559 -4.7388,-1.81559 l 0,0 z"/></g><g id="layer4" style="display:inline"><g id="g220891" transform="matrix(0.92741936,0,0,0.92741936,10.741934,17.399268)"><path id="path5774" d="m -107,103.5 a 79.5,79.5 0 1 1 -159,0 79.5,79.5 0 1 1 159,0 z" transform="matrix(1.0175455,0,0,0.22722829,337.77223,236.46665)" style="opacity:.7601626;fill:url(#radialGradient220912);fill-opacity:1;fill-rule:nonzero;stroke:none;stroke-width:1;marker:none;visibility:visible;display:inline;overflow:visible;enable-background:accumulate;filter:url(#filter221470)"/><path id="path9071" d="m -107,103.5 a 79.5,79.5 0 1 1 -159,0 79.5,79.5 0 1 1 159,0 z" transform="matrix(0.63816149,0,0,0.13159093,267.01709,249.91946)" style="fill:url(#radialGradient220914);fill-opacity:1;fill-rule:nonzero;stroke:none;stroke-width:1;marker:none;visibility:visible;display:inline;overflow:visible;enable-background:accumulate;opacity:.39430894;filter:url(#filter221486)"/><g id="g9177" clip-path="url(#clipPath9194-7)" transform="translate(370,-4.4e-6)" style="display:inline;enable-background:new"><path id="path5705" d="m -107,103.5 c 0,43.90664 -35.59336,79.5 -79.5,79.5 -43.90664,0 -79.5,-35.59336 -79.5,-79.5 0,-43.906638 35.59336,-79.5 79.5,-79.5 43.90664,0 79.5,35.593362 79.5,79.5 z" transform="matrix(1.4716981,0,0,1.4716981,52.4717,-2.207546)" style="fill:url(#linearGradient220916);fill-opacity:1;fill-rule:nonzero;stroke:none;stroke-width:.67948717;marker:none;visibility:visible;display:inline;overflow:visible;enable-background:accumulate"/><path id="path5727" d="m -334.53891,147.2158 c -0.0244,0.96519 -0.0461,1.92637 -0.0461,2.89741 0,62.14686 50.43803,112.58489 112.5849,112.5849 62.14687,0 112.58491,-50.43804 112.58491,-112.5849 0,-0.97104 -0.0215,-1.93222 -0.0461,-2.89741 -1.5899,60.76371 -51.39374,109.59552 -112.53877,109.59552 -61.14502,-2e-5 -110.94886,-48.83181 -112.53891,-109.59552 l 0,0 z" style="fill:url(#radialGradient220918);fill-opacity:1;fill-rule:nonzero;stroke:none;stroke-width:1;marker:none;visibility:visible;display:inline;overflow:visible;enable-background:accumulate"/><path id="path5742" d="m -262.96875,106 c -0.0166,-0.65583 -0.0313,-1.30894 -0.0313,-1.96875 0,-42.228 34.272,-76.49999 76.5,-76.5 42.228,0 76.5,34.272 76.5,76.5 0,0.65981 -0.0146,1.31292 -0.0313,1.96875 -1.08042,-41.28816 -34.92149,-74.46875 -76.46875,-74.46875 -41.54726,10e-6 -75.38833,33.18059 -76.46875,74.46875 l 10e-5,0 z" transform="matrix(1.4716981,0,0,1.4716981,52.4717,-2.207546)" style="opacity:.9;fill:url(#radialGradient220920);fill-opacity:1;fill-rule:nonzero;stroke:none;stroke-width:1;marker:none;visibility:visible;display:inline;overflow:visible;filter:url(#filter5750-8);enable-background:accumulate"/><g id="g9909" transform="matrix(1.4716981,0,0,1.4716981,52.4717,-2.207546)"><g id="g9875" transform="matrix(3.8266712,0,0,3.8266712,468.04966,-359.82979)" style="fill:#b8cfe7;fill-opacity:1"><path style="fill:#b8cfe7;fill-opacity:1;stroke:none;display:inline;enable-background:new" id="path6668-5" d="m 12.408371,7.1446853 c 0,0.7236579 -0.586641,1.3102986 -1.310299,1.3102986 -0.723658,0 -1.3102986,-0.5866407 -1.3102986,-1.3102986 0,-0.723658 0.5866406,-1.3102987 1.3102986,-1.3102987 0.723658,0 1.310299,0.5866407 1.310299,1.3102987 z" transform="matrix(2.4645233,0,0,2.4645236,-198.07046,93.289636)"/><path style="fill:#b8cfe7;fill-opacity:1;fill-rule:evenodd;stroke:none;display:inline;enable-background:new" id="path6670-7" d="m -159.42995,114.33163 c -0.14936,0.0242 -0.29049,0.0831 -0.41145,0.17185 l -11.03073,1.72013 -10.97132,-1.74385 c -0.28361,-0.2057 -0.68235,-0.2673 -0.99925,-0.11458 -0.3169,0.15272 -0.52465,0.51468 -0.52902,0.85911 -0.004,0.34448 0.21606,0.64156 0.52902,0.80185 l 8.5971,2.72724 -0.0588,6.26083 -3.03357,9.37671 c -0.29217,0.42698 -0.20312,0.97533 0.23512,1.25999 0.43826,0.2847 1.05975,0.19795 1.35195,-0.22907 l 4.89557,-10.12124 4.80316,10.10375 c 0.25972,0.44286 0.83867,0.59671 1.29316,0.34365 0.45449,-0.25305 0.61239,-0.81716 0.35268,-1.26004 l -2.97726,-9.41704 -0.11754,-5.89415 8.71773,-3.18418 c 0.35223,-0.24067 0.50525,-0.69631 0.35269,-1.08819 -0.15257,-0.39192 -0.57185,-0.62025 -0.99927,-0.57277 l 3e-5,0 z"/></g><g style="fill:#3a73ad;fill-opacity:1" id="g9903" transform="matrix(3.8266712,0,0,3.8266712,468.04966,-362.54775)"><path id="path9905" d="m 12.408371,7.1446853 c 0,0.7236579 -0.586641,1.3102986 -1.310299,1.3102986 -0.723658,0 -1.3102986,-0.5866407 -1.3102986,-1.3102986 0,-0.723658 0.5866406,-1.3102987 1.3102986,-1.3102987 0.723658,0 1.310299,0.5866407 1.310299,1.3102987 z" transform="matrix(2.4645233,0,0,2.4645236,-198.07046,93.289636)" style="fill:#3a73ad;fill-opacity:1;stroke:none;display:inline;enable-background:new"/><path id="path9907" d="m -159.42995,114.33163 c -0.14936,0.0242 -0.29049,0.0831 -0.41145,0.17185 l -11.03073,1.72013 -10.97132,-1.74385 c -0.28361,-0.2057 -0.68235,-0.2673 -0.99925,-0.11458 -0.3169,0.15272 -0.52465,0.51468 -0.52902,0.85911 -0.004,0.34448 0.21606,0.64156 0.52902,0.80185 l 8.5971,2.72724 -0.0588,6.26083 -3.03357,9.37671 c -0.29217,0.42698 -0.20312,0.97533 0.23512,1.25999 0.43826,0.2847 1.05975,0.19795 1.35195,-0.22907 l 4.89557,-10.12124 4.80316,10.10375 c 0.25972,0.44286 0.83867,0.59671 1.29316,0.34365 0.45449,-0.25305 0.61239,-0.81716 0.35268,-1.26004 l -2.97726,-9.41704 -0.11754,-5.89415 8.71773,-3.18418 c 0.35223,-0.24067 0.50525,-0.69631 0.35269,-1.08819 -0.15257,-0.39192 -0.57185,-0.62025 -0.99927,-0.57277 l 3e-5,0 z" style="fill:#3a73ad;fill-opacity:1;fill-rule:evenodd;stroke:none;display:inline;enable-background:new"/></g><g style="fill:url(#radialGradient220926);fill-opacity:1" id="g9891" transform="matrix(3.8266712,0,0,3.8266712,468.04966,-361.18877)"><path id="path9893" d="m 12.408371,7.1446853 c 0,0.7236579 -0.586641,1.3102986 -1.310299,1.3102986 -0.723658,0 -1.3102986,-0.5866407 -1.3102986,-1.3102986 0,-0.723658 0.5866406,-1.3102987 1.3102986,-1.3102987 0.723658,0 1.310299,0.5866407 1.310299,1.3102987 z" transform="matrix(2.4645233,0,0,2.4645236,-198.07046,93.289636)" style="fill:url(#radialGradient220922);fill-opacity:1;stroke:none;display:inline;enable-background:new"/><path id="path9895" d="m -159.42995,114.33163 c -0.14936,0.0242 -0.29049,0.0831 -0.41145,0.17185 l -11.03073,1.72013 -10.97132,-1.74385 c -0.28361,-0.2057 -0.68235,-0.2673 -0.99925,-0.11458 -0.3169,0.15272 -0.52465,0.51468 -0.52902,0.85911 -0.004,0.34448 0.21606,0.64156 0.52902,0.80185 l 8.5971,2.72724 -0.0588,6.26083 -3.03357,9.37671 c -0.29217,0.42698 -0.20312,0.97533 0.23512,1.25999 0.43826,0.2847 1.05975,0.19795 1.35195,-0.22907 l 4.89557,-10.12124 4.80316,10.10375 c 0.25972,0.44286 0.83867,0.59671 1.29316,0.34365 0.45449,-0.25305 0.61239,-0.81716 0.35268,-1.26004 l -2.97726,-9.41704 -0.11754,-5.89415 8.71773,-3.18418 c 0.35223,-0.24067 0.50525,-0.69631 0.35269,-1.08819 -0.15257,-0.39192 -0.57185,-0.62025 -0.99927,-0.57277 l 3e-5,0 z" style="fill:url(#radialGradient220924);fill-opacity:1;fill-rule:evenodd;stroke:none;display:inline;enable-background:new"/></g></g><path style="opacity:.32692321;fill:url(#radialGradient220928);fill-opacity:1;stroke:none;display:inline;enable-background:new" id="path8980-2" d="m -221.97955,37.156318 c -62.69453,0 -113.57702,50.882566 -113.57702,113.577112 0,44.97447 26.30563,83.71583 64.25124,102.11025 0,0 -24.04277,-161.306016 124.86195,-186.747024 -15.93499,-17.508992 -46.52035,-28.940338 -75.53617,-28.940338 l 0,0 z"/><path id="path5715" d="m -107,103.5 c 0,43.90664 -35.59336,79.5 -79.5,79.5 -43.90664,0 -79.5,-35.59336 -79.5,-79.5 0,-43.906638 35.59336,-79.5 79.5,-79.5 43.90664,0 79.5,35.593362 79.5,79.5 z" clip-path="none" transform="matrix(1.4716981,0,0,1.4716981,52.4717,-2.20755)" style="fill:none;stroke:#193a69;stroke-width:2.71794868;stroke-linecap:butt;stroke-linejoin:miter;stroke-miterlimit:4;stroke-opacity:1;stroke-dasharray:none;stroke-dashoffset:0;marker:none;visibility:visible;display:inline;overflow:visible;filter:url(#filter9927-6);enable-background:accumulate"/></g></g></g></g></svg>