<svg xmlns="http://www.w3.org/2000/svg" xmlns:svg="http://www.w3.org/2000/svg" xmlns:xlink="http://www.w3.org/1999/xlink" id="svg11300" width="400" height="300" version="1.0" style="display:inline;enable-background:new"><title id="title8836">Optical Drive</title><metadata id="metadata154"/><defs id="defs3"><linearGradient id="linearGradient24230"><stop id="stop24232" offset="0" style="stop-color:#677579;stop-opacity:1"/><stop id="stop24234" offset="1" style="stop-color:#333;stop-opacity:1"/></linearGradient><linearGradient id="linearGradient5048"><stop id="stop5050" offset="0" style="stop-color:black;stop-opacity:0"/><stop id="stop5056" offset=".5" style="stop-color:black;stop-opacity:1"/><stop id="stop5052" offset="1" style="stop-color:black;stop-opacity:0"/></linearGradient><linearGradient id="linearGradient4228"><stop id="stop4230" offset="0" style="stop-color:#d9d9d9;stop-opacity:1"/><stop id="stop4232" offset="1" style="stop-color:#c7c7c7;stop-opacity:1"/></linearGradient><linearGradient id="linearGradient4244"><stop id="stop4246" offset="0" style="stop-color:#f0f0f0;stop-opacity:1"/><stop id="stop4248" offset="1" style="stop-color:#e0e0e0;stop-opacity:1"/></linearGradient><linearGradient id="linearGradient5060"><stop id="stop5062" offset="0" style="stop-color:black;stop-opacity:1"/><stop id="stop5064" offset="1" style="stop-color:black;stop-opacity:0"/></linearGradient><linearGradient id="linearGradient6613" x1="7.605" x2="36.183" y1="28.481" y2="40.944" gradientTransform="matrix(1.0039034,0,0,1,-0.2863699,4.084439)" gradientUnits="userSpaceOnUse" xlink:href="#linearGradient4228"/><radialGradient id="radialGradient6615" cx="15.571" cy="2.959" r="20.936" fx="15.571" fy="2.959" gradientTransform="matrix(1.2901853,0.7884154,-0.7129611,1.1796023,-2.6322372,-1.0775827)" gradientUnits="userSpaceOnUse" xlink:href="#linearGradient4244"/><linearGradient id="linearGradient6626" x1="12.513" x2="12.513" y1="30.586" y2="16.886" gradientTransform="matrix(-1,0,0,0.587604,48.51835,9.808271)" gradientUnits="userSpaceOnUse" xlink:href="#linearGradient24230"/><linearGradient id="linearGradient6628" x1="12.513" x2="12.513" y1="30.586" y2="16.886" gradientTransform="matrix(1,0,0,0.587604,-1.140279,9.808271)" gradientUnits="userSpaceOnUse" xlink:href="#linearGradient24230"/><linearGradient id="linearGradient6635" x1="12.513" x2="12.513" y1="30.586" y2="23.636" gradientTransform="translate(10.999998,-3.9739816)" gradientUnits="userSpaceOnUse" xlink:href="#linearGradient24230"/><filter id="filter7681" width="1.142" height="1.523" x="-.071" y="-.261"><feGaussianBlur id="feGaussianBlur7683" stdDeviation=".458"/></filter><linearGradient id="linearGradient7734" x1="302.857" x2="302.857" y1="366.648" y2="609.505" gradientTransform="matrix(6.702375e-2,0,0,4.7279468e-2,0.3013351,14.32798)" gradientUnits="userSpaceOnUse" xlink:href="#linearGradient5048"/><radialGradient id="radialGradient7736" cx="605.714" cy="486.648" r="117.143" fx="605.714" fy="486.648" gradientTransform="matrix(6.702375e-2,0,0,4.7279468e-2,0.3145254,14.32798)" gradientUnits="userSpaceOnUse" xlink:href="#linearGradient5060"/><radialGradient id="radialGradient7738" cx="605.714" cy="486.648" r="117.143" fx="605.714" fy="486.648" gradientTransform="matrix(-6.702375e-2,0,0,4.7279468e-2,48.736751,14.32798)" gradientUnits="userSpaceOnUse" xlink:href="#linearGradient5060"/><linearGradient id="linearGradient6060"><stop id="stop6062" offset="0" style="stop-color:#eeeeec;stop-opacity:1"/><stop id="stop6064" offset="1" style="stop-color:#e0e0e0;stop-opacity:1"/></linearGradient><linearGradient id="linearGradient7132"><stop id="stop7134" offset="0" style="stop-color:#fff;stop-opacity:1"/><stop id="stop7136" offset="1" style="stop-color:#fff;stop-opacity:0"/></linearGradient><linearGradient id="linearGradient7110"><stop id="stop7112" offset="0" style="stop-color:#2e3436;stop-opacity:1"/><stop id="stop7114" offset="1" style="stop-color:#888a85;stop-opacity:1"/></linearGradient><linearGradient id="linearGradient7223" x1="302.857" x2="302.857" y1="366.648" y2="609.505" gradientTransform="matrix(6.702375e-2,0,0,4.7279468e-2,0.3013351,14.32798)" gradientUnits="userSpaceOnUse" xlink:href="#linearGradient5048"/><radialGradient id="radialGradient7225" cx="605.714" cy="486.648" r="117.143" fx="605.714" fy="486.648" gradientTransform="matrix(6.702375e-2,0,0,4.7279468e-2,0.3145254,14.32798)" gradientUnits="userSpaceOnUse" xlink:href="#linearGradient5060"/><radialGradient id="radialGradient7227" cx="605.714" cy="486.648" r="117.143" fx="605.714" fy="486.648" gradientTransform="matrix(-6.702375e-2,0,0,4.7279468e-2,48.736751,14.32798)" gradientUnits="userSpaceOnUse" xlink:href="#linearGradient5060"/><linearGradient id="linearGradient6075" x1="2.475" x2="2.475" y1="11.482" y2="33.142" gradientTransform="translate(-1,-30)" gradientUnits="userSpaceOnUse" xlink:href="#linearGradient7132"/><linearGradient id="linearGradient6082" x1="5.318" x2="5.318" y1="5.674" y2="14.362" gradientTransform="matrix(0.6666668,0,0,0.8181819,0.9999992,-27.681818)" gradientUnits="userSpaceOnUse" xlink:href="#linearGradient7110"/><linearGradient id="linearGradient6085" x1="-1.004" x2="18.321" y1="14.594" y2="20.725" gradientTransform="translate(-1,-30)" gradientUnits="userSpaceOnUse" xlink:href="#linearGradient4228"/><radialGradient id="radialGradient6089" cx="6.7" cy="3.312" r="10" fx="6.7" fy="3.312" gradientTransform="matrix(1.8070971,1.4918964,-0.6365496,0.7710368,-4.6531289,-35.426535)" gradientUnits="userSpaceOnUse" xlink:href="#linearGradient6060"/><linearGradient id="linearGradient6097" x1="5.318" x2="5.318" y1="5.674" y2="14.362" gradientTransform="matrix(0.6666668,0,0,0.8181819,5.999999,-27.681818)" gradientUnits="userSpaceOnUse" xlink:href="#linearGradient7110"/><linearGradient id="linearGradient6101" x1="5.318" x2="5.318" y1="5.674" y2="14.362" gradientTransform="matrix(0.6666668,0,0,0.8181819,10.999999,-27.681818)" gradientUnits="userSpaceOnUse" xlink:href="#linearGradient7110"/><linearGradient id="linearGradient7316" x1="2.475" x2="2.475" y1="11.482" y2="33.142" gradientTransform="translate(-1,-2)" gradientUnits="userSpaceOnUse" xlink:href="#linearGradient7132"/><linearGradient id="linearGradient7329" x1="3.309" x2="13.008" y1="12.781" y2="19.1" gradientTransform="translate(-1,-3)" gradientUnits="userSpaceOnUse" xlink:href="#linearGradient4228"/><radialGradient id="radialGradient7336" cx="7.077" cy="6.061" r="10" fx="7.077" fy="6.061" gradientTransform="matrix(1.7252165,0,0,1.2865358,-6.3634131,-0.3008152)" gradientUnits="userSpaceOnUse" xlink:href="#linearGradient4244"/><linearGradient id="linearGradient7350" x1="5.318" x2="5.318" y1="5.903" y2="14.133" gradientTransform="matrix(0.4444445,0,0,0.6363637,0.9999993,1.1363634)" gradientUnits="userSpaceOnUse" xlink:href="#linearGradient7110"/><linearGradient id="linearGradient7356" x1="5.318" x2="5.318" y1="5.903" y2="14.133" gradientTransform="matrix(0.4444445,0,0,0.6363637,8.9999993,1.1363634)" gradientUnits="userSpaceOnUse" xlink:href="#linearGradient7110"/><linearGradient id="linearGradient7360" x1="5.318" x2="5.318" y1="5.903" y2="14.133" gradientTransform="matrix(0.4444445,0,0,0.6363637,4.9999993,1.1363634)" gradientUnits="userSpaceOnUse" xlink:href="#linearGradient7110"/></defs><g id="layer6" style="display:none"><rect id="rect6284" width="48" height="48" x="296" y="50" style="fill:#eeeeec;fill-opacity:1;fill-rule:nonzero;stroke:none;stroke-width:2;marker:none;visibility:visible;display:inline;overflow:visible;enable-background:accumulate"/><rect id="rect6592" width="32" height="32" x="303" y="126" style="fill:#eeeeec;fill-opacity:1;fill-rule:nonzero;stroke:none;stroke-width:2;marker:none;visibility:visible;display:inline;overflow:visible;enable-background:accumulate"/><rect id="rect6749" width="22" height="22" x="303" y="177" style="fill:#eeeeec;fill-opacity:1;fill-rule:nonzero;stroke:none;stroke-width:2;marker:none;visibility:visible;display:inline;overflow:visible;enable-background:accumulate"/><rect id="rect6833" width="16" height="16" x="303" y="219" style="fill:#eeeeec;fill-opacity:1;fill-rule:nonzero;stroke:none;stroke-width:2;marker:none;visibility:visible;display:inline;overflow:visible;enable-background:accumulate"/><text id="context" x="20.971" y="21.514" xml:space="preserve" style="font-size:18.30070686px;font-style:normal;font-weight:400;fill:#000;fill-opacity:1;stroke:none;display:inline;enable-background:new;font-family:Bitstream Vera Sans"><tspan id="tspan2716" x="20.971" y="21.514">categories</tspan></text><text id="icon-name" x="191.971" y="21.514" xml:space="preserve" style="font-size:18.30070686px;font-style:normal;font-variant:normal;font-weight:700;font-stretch:normal;text-align:start;line-height:125%;writing-mode:lr-tb;text-anchor:start;fill:#000;fill-opacity:1;stroke:none;display:inline;enable-background:new;font-family:Droid Sans;-inkscape-font-specification:Droid Sans Bold"><tspan id="tspan3023" x="191.971" y="21.514">preferences-desktop</tspan></text></g><g id="layer2" style="display:inline"><g id="g48" transform="translate(296,50) scale(1.000000,1.000000)" style="display:inline;enable-background:new"><g id="g7729" transform="translate(-0.75,0)"><rect id="rect6591" width="32.363" height="11.482" x="8.344" y="31.663" style="opacity:.85294118;color:#000;fill:url(#linearGradient7734);fill-opacity:1;fill-rule:nonzero;stroke:none;stroke-width:1;stroke-linecap:round;stroke-linejoin:miter;marker:none;marker-start:none;marker-mid:none;marker-end:none;stroke-miterlimit:4;stroke-dasharray:none;stroke-dashoffset:0;stroke-opacity:1;visibility:visible;display:inline;overflow:visible"/><path id="path6593" d="M 40.707082,31.663293 C 40.707082,31.663293 40.707082,43.144816 40.707082,43.144816 C 44.158639,43.16643 49.051268,40.572389 49.051266,37.403316 C 49.051266,34.234241 45.199588,31.663293 40.707082,31.663293 z" style="opacity:.85294118;color:#000;fill:url(#radialGradient7736);fill-opacity:1;fill-rule:nonzero;stroke:none;stroke-width:1;stroke-linecap:round;stroke-linejoin:miter;marker:none;marker-start:none;marker-mid:none;marker-end:none;stroke-miterlimit:4;stroke-dasharray:none;stroke-dashoffset:0;stroke-opacity:1;visibility:visible;display:inline;overflow:visible"/><path id="path6595" d="M 8.3441856,31.663293 C 8.3441856,31.663293 8.3441856,43.144816 8.3441856,43.144816 C 4.8926276,43.16643 2.6449977e-09,40.572389 2.6449977e-09,37.403316 C 2.6449977e-09,34.234241 3.8516777,31.663293 8.3441856,31.663293 z" style="opacity:.85294118;color:#000;fill:url(#radialGradient7738);fill-opacity:1;fill-rule:nonzero;stroke:none;stroke-width:1;stroke-linecap:round;stroke-linejoin:miter;marker:none;marker-start:none;marker-mid:none;marker-end:none;stroke-miterlimit:4;stroke-dasharray:none;stroke-dashoffset:0;stroke-opacity:1;visibility:visible;display:inline;overflow:visible"/></g><path id="path6597" d="M 9.022859,9 C 8.3954775,9 7.9876803,9.293946 7.7367287,9.854703 C 7.7367277,9.854703 3.2509523,29.876846 3.2509523,29.876846 C 3.2509523,29.876846 2.9999999,30.55712 2.9999999,31.681213 C 2.9999999,31.681213 2.9999999,37.404507 2.9999999,37.404507 C 2.9999999,38.50117 3.6602911,39.050598 4.6625603,39.050596 L 43.371985,39.050596 C 44.360589,39.050596 44.971807,38.323095 44.971807,37.182918 L 44.971807,31.459624 C 44.971807,31.459624 45.078174,30.679202 44.877699,30.13009 L 40.140971,10.012982 C 39.955742,9.494432 39.501639,9.012061 39.011684,9 L 9.022859,9 z" style="fill:none;fill-opacity:1;fill-rule:evenodd;stroke:#888a85;stroke-width:2;stroke-linecap:round;stroke-linejoin:round;stroke-miterlimit:4;stroke-dasharray:none;stroke-opacity:1"/><path id="path6599" d="M 3,31.081252 L 3.7675865,30.389037 L 41.524078,30.451537 L 45,30.768835 L 45,37.207367 C 45,38.332936 44.390613,39.050698 43.401915,39.050698 L 4.6683257,39.050698 C 3.6659643,39.050698 3,38.508647 3,37.426034 L 3,31.081252 z" style="fill:url(#linearGradient6613);fill-opacity:1;fill-rule:evenodd;stroke:none;stroke-width:1.02044296px;stroke-linecap:butt;stroke-linejoin:miter;stroke-opacity:1"/><path id="path6601" d="M 3.2892931,29.978281 C 2.5728183,31.455151 3.2886763,32.391701 4.3281833,32.391701 C 4.3281833,32.391701 43.447745,32.391701 43.447745,32.391701 C 44.570223,32.367686 45.29864,31.3711 44.880695,30.230429 L 40.151956,10.008597 C 39.966867,9.492291 39.495187,9.012007 39.005596,9 L 9.056921,9 C 8.4300044,9 8.0180309,9.306182 7.7672655,9.864512 C 7.7672655,9.864512 3.2892931,29.978281 3.2892931,29.978281 z" style="fill:url(#radialGradient6615);fill-opacity:1;fill-rule:evenodd;stroke:none;stroke-width:1px;stroke-linecap:butt;stroke-linejoin:miter;stroke-opacity:1"/><path id="path6603" d="M 44.85227,29.713128 C 44.916294,30.963102 44.435003,32.028968 43.519731,32.056878 C 43.519731,32.056878 5.1004819,32.056877 5.1004819,32.056878 C 3.8010855,32.056878 3.2180205,31.731931 3,31.188822 C 3.0924845,32.133154 3.8323278,32.838128 5.1004819,32.838128 C 5.1004819,32.838127 43.519731,32.838128 43.519731,32.838128 C 44.604221,32.805057 45.286355,31.414104 44.882555,29.843337 L 44.85227,29.713128 z" style="fill:#fff;fill-opacity:1;fill-rule:evenodd;stroke:none;stroke-width:1px;stroke-linecap:butt;stroke-linejoin:miter;stroke-opacity:1"/><path id="rect6619" d="M 10.981036,11.962093 L 16.007055,11.962093 L 14.592842,29.183918 L 8.1526087,29.183918 L 10.981036,11.962093 z" style="color:#000;fill:url(#linearGradient6628);fill-opacity:1;fill-rule:nonzero;stroke:none;stroke-width:1;stroke-linecap:butt;stroke-linejoin:miter;marker:none;marker-start:none;marker-mid:none;marker-end:none;stroke-miterlimit:4;stroke-dashoffset:0;stroke-opacity:1;visibility:visible;display:inline;overflow:visible"/><path id="path6624" d="M 36.397035,11.962093 L 31.371016,11.962093 L 32.785229,29.183918 L 39.225462,29.183918 L 36.397035,11.962093 z" style="color:#000;fill:url(#linearGradient6626);fill-opacity:1;fill-rule:nonzero;stroke:none;stroke-width:1;stroke-linecap:butt;stroke-linejoin:miter;marker:none;marker-start:none;marker-mid:none;marker-end:none;stroke-miterlimit:4;stroke-dashoffset:0;stroke-opacity:1;visibility:visible;display:inline;overflow:visible"/><path id="rect6630" d="M 21,12.02602 L 26.026019,12.02602 L 26.963519,29 L 20.0625,29 L 21,12.02602 z" style="color:#000;fill:url(#linearGradient6635);fill-opacity:1;fill-rule:nonzero;stroke:none;stroke-width:1;stroke-linecap:butt;stroke-linejoin:miter;marker:none;marker-start:none;marker-mid:none;marker-end:none;stroke-miterlimit:4;stroke-dashoffset:0;stroke-opacity:1;visibility:visible;display:inline;overflow:visible"/><g id="g7685" transform="translate(-1,-2)"><rect id="rect7619" width="12.875" height="3.5" x="18.125" y="28.625" rx="1.75" ry="1.75" transform="matrix(1.0873786,0,0,1.0873786,-2.1462379,-2.6541262)" style="opacity:.36470588;color:#000;fill:#000;fill-opacity:1;fill-rule:evenodd;stroke:none;stroke-width:1px;stroke-linecap:butt;stroke-linejoin:miter;marker:none;marker-start:none;marker-mid:none;marker-end:none;stroke-miterlimit:4;stroke-dasharray:none;stroke-dashoffset:0;stroke-opacity:1;visibility:visible;display:inline;overflow:visible;filter:url(#filter7681);enable-background:accumulate"/><path id="path7612" d="M 28.0625,23 L 20.5,23.09375 L 20.125,23.71875 L 18.875,30.9375 L 18.90625,31 L 30.0625,31 L 28.65625,24.75 L 28.0625,23 z" style="opacity:1;color:#000;fill:#babdb6;fill-opacity:1;fill-rule:evenodd;stroke:#555753;stroke-width:1px;stroke-linecap:butt;stroke-linejoin:miter;marker:none;marker-start:none;marker-mid:none;marker-end:none;stroke-miterlimit:4;stroke-dasharray:none;stroke-dashoffset:0;stroke-opacity:1;visibility:visible;display:inline;overflow:visible;enable-background:accumulate"/><path id="path6637" d="M 18.915106,30.985244 L 30.052038,30.985244 L 28.637825,24.930641 L 20.152543,25.01903 L 18.915106,30.985244 z" style="opacity:1;color:#000;fill:#babdb6;fill-opacity:1;fill-rule:evenodd;stroke:none;stroke-width:1px;stroke-linecap:butt;stroke-linejoin:miter;marker:none;marker-start:none;marker-mid:none;marker-end:none;stroke-miterlimit:4;stroke-dasharray:none;stroke-dashoffset:0;stroke-opacity:1;visibility:visible;display:inline;overflow:visible;enable-background:accumulate"/><path id="path7608" d="M 20.513864,23.088388 L 20.071737,25.024391 L 28.624881,25.042697 L 28.0633,22.986098 L 20.513864,23.088388 z" style="opacity:1;color:#000;fill:#eeeeec;fill-opacity:1;fill-rule:evenodd;stroke:none;stroke-width:1px;stroke-linecap:butt;stroke-linejoin:miter;marker:none;marker-start:none;marker-mid:none;marker-end:none;stroke-miterlimit:4;stroke-dasharray:none;stroke-dashoffset:0;stroke-opacity:1;visibility:visible;display:inline;overflow:visible;enable-background:accumulate"/><path id="path7610" d="M 20.461903,23.11868 L 20.135768,23.716759 L 18.870912,30.941049 L 19.939155,26.005165 L 28.895407,26.010527 L 28.687381,24.99092 L 20.178432,24.967253 L 20.461903,23.11868 z" style="opacity:1;color:#000;fill:#fff;fill-opacity:1;fill-rule:evenodd;stroke:none;stroke-width:1px;stroke-linecap:butt;stroke-linejoin:miter;marker:none;marker-start:none;marker-mid:none;marker-end:none;stroke-miterlimit:4;stroke-dasharray:none;stroke-dashoffset:0;stroke-opacity:1;visibility:visible;display:inline;overflow:visible;enable-background:accumulate"/></g><g id="g7692" transform="matrix(0.9642857,0,0,0.9642857,-10.391072,-11.813167)"><rect id="rect7694" width="12.875" height="3.5" x="18.125" y="28.625" rx="1.75" ry="1.75" transform="matrix(1.0873786,0,0,1.0873786,-2.1462379,-2.6541262)" style="opacity:.36470588;color:#000;fill:#000;fill-opacity:1;fill-rule:evenodd;stroke:none;stroke-width:1px;stroke-linecap:butt;stroke-linejoin:miter;marker:none;marker-start:none;marker-mid:none;marker-end:none;stroke-miterlimit:4;stroke-dasharray:none;stroke-dashoffset:0;stroke-opacity:1;visibility:visible;display:inline;overflow:visible;filter:url(#filter7681);enable-background:accumulate"/><path id="path7696" d="M 28.0625,23.1875 L 20.5,23.09375 L 20.125,23.71875 L 18.875,30.9375 L 18.90625,31 L 30.0625,31 L 28.65625,24.75 L 28.0625,23.1875 z" style="opacity:1;color:#000;fill:#babdb6;fill-opacity:1;fill-rule:evenodd;stroke:#555753;stroke-width:1.03703701px;stroke-linecap:butt;stroke-linejoin:miter;marker:none;marker-start:none;marker-mid:none;marker-end:none;stroke-miterlimit:4;stroke-dasharray:none;stroke-dashoffset:0;stroke-opacity:1;visibility:visible;display:inline;overflow:visible;enable-background:accumulate"/><path id="path7698" d="M 18.915106,30.985244 L 30.052038,30.985244 L 28.637825,24.930641 L 20.152543,25.01903 L 18.915106,30.985244 z" style="opacity:1;color:#000;fill:#babdb6;fill-opacity:1;fill-rule:evenodd;stroke:none;stroke-width:1px;stroke-linecap:butt;stroke-linejoin:miter;marker:none;marker-start:none;marker-mid:none;marker-end:none;stroke-miterlimit:4;stroke-dasharray:none;stroke-dashoffset:0;stroke-opacity:1;visibility:visible;display:inline;overflow:visible;enable-background:accumulate"/><path id="path7700" d="M 20.513864,23.088388 L 20.071737,25.024391 L 28.624881,25.042697 L 28.0633,23.173598 L 20.513864,23.088388 z" style="opacity:1;color:#000;fill:#eeeeec;fill-opacity:1;fill-rule:evenodd;stroke:none;stroke-width:1px;stroke-linecap:butt;stroke-linejoin:miter;marker:none;marker-start:none;marker-mid:none;marker-end:none;stroke-miterlimit:4;stroke-dasharray:none;stroke-dashoffset:0;stroke-opacity:1;visibility:visible;display:inline;overflow:visible;enable-background:accumulate"/><path id="path7702" d="M 20.461903,23.11868 L 20.135768,23.716759 L 18.870912,30.941049 L 19.939155,26.005165 L 28.895407,26.010527 L 28.687381,24.99092 L 20.178432,24.967253 L 20.461903,23.11868 z" style="opacity:1;color:#000;fill:#fff;fill-opacity:1;fill-rule:evenodd;stroke:none;stroke-width:1px;stroke-linecap:butt;stroke-linejoin:miter;marker:none;marker-start:none;marker-mid:none;marker-end:none;stroke-miterlimit:4;stroke-dasharray:none;stroke-dashoffset:0;stroke-opacity:1;visibility:visible;display:inline;overflow:visible;enable-background:accumulate"/></g><g id="g7704" transform="translate(11.25,-4.9375)"><rect id="rect7706" width="12.875" height="3.5" x="18.125" y="28.625" rx="1.75" ry="1.75" transform="matrix(1.0873786,0,0,1.0873786,-2.1462379,-2.6541262)" style="opacity:.36470588;color:#000;fill:#000;fill-opacity:1;fill-rule:evenodd;stroke:none;stroke-width:1px;stroke-linecap:butt;stroke-linejoin:miter;marker:none;marker-start:none;marker-mid:none;marker-end:none;stroke-miterlimit:4;stroke-dasharray:none;stroke-dashoffset:0;stroke-opacity:1;visibility:visible;display:inline;overflow:visible;filter:url(#filter7681);enable-background:accumulate"/><path id="path7708" d="M 28.0625,23 L 20.5,23.09375 L 20.125,23.71875 L 18.875,30.9375 L 18.90625,31 L 30.0625,31 L 28.65625,24.75 L 28.0625,23 z" style="opacity:1;color:#000;fill:#babdb6;fill-opacity:1;fill-rule:evenodd;stroke:#555753;stroke-width:1px;stroke-linecap:butt;stroke-linejoin:miter;marker:none;marker-start:none;marker-mid:none;marker-end:none;stroke-miterlimit:4;stroke-dasharray:none;stroke-dashoffset:0;stroke-opacity:1;visibility:visible;display:inline;overflow:visible;enable-background:accumulate"/><path id="path7710" d="M 18.915106,30.985244 L 30.052038,30.985244 L 28.637825,24.930641 L 20.152543,25.01903 L 18.915106,30.985244 z" style="opacity:1;color:#000;fill:#babdb6;fill-opacity:1;fill-rule:evenodd;stroke:none;stroke-width:1px;stroke-linecap:butt;stroke-linejoin:miter;marker:none;marker-start:none;marker-mid:none;marker-end:none;stroke-miterlimit:4;stroke-dasharray:none;stroke-dashoffset:0;stroke-opacity:1;visibility:visible;display:inline;overflow:visible;enable-background:accumulate"/><path id="path7712" d="M 20.513864,23.088388 L 20.071737,25.024391 L 28.624881,25.042697 L 28.0633,22.986098 L 20.513864,23.088388 z" style="opacity:1;color:#000;fill:#eeeeec;fill-opacity:1;fill-rule:evenodd;stroke:none;stroke-width:1px;stroke-linecap:butt;stroke-linejoin:miter;marker:none;marker-start:none;marker-mid:none;marker-end:none;stroke-miterlimit:4;stroke-dasharray:none;stroke-dashoffset:0;stroke-opacity:1;visibility:visible;display:inline;overflow:visible;enable-background:accumulate"/><path id="path7714" d="M 20.461903,23.11868 L 20.135768,23.716759 L 18.870912,30.941049 L 19.939155,26.005165 L 28.895407,26.010527 L 28.687381,24.99092 L 20.178432,24.967253 L 20.461903,23.11868 z" style="opacity:1;color:#000;fill:#fff;fill-opacity:1;fill-rule:evenodd;stroke:none;stroke-width:1px;stroke-linecap:butt;stroke-linejoin:miter;marker:none;marker-start:none;marker-mid:none;marker-end:none;stroke-miterlimit:4;stroke-dasharray:none;stroke-dashoffset:0;stroke-opacity:1;visibility:visible;display:inline;overflow:visible;enable-background:accumulate"/></g></g><g id="g32" transform="translate(303,126) scale(1.000000,1.000000)" style="display:inline;enable-background:new"><g id="g99" transform="matrix(0.6669265,0,0,0.6754598,-0.4412422,4.21821e-2)" style="opacity:.56470588"><rect id="rect101" width="32.363" height="11.482" x="8.344" y="31.663" style="opacity:.85294118;color:#000;fill:url(#linearGradient7734);fill-opacity:1;fill-rule:nonzero;stroke:none;stroke-width:1;stroke-linecap:round;stroke-linejoin:miter;marker:none;marker-start:none;marker-mid:none;marker-end:none;stroke-miterlimit:4;stroke-dasharray:none;stroke-dashoffset:0;stroke-opacity:1;visibility:visible;display:inline;overflow:visible"/><path id="path103" d="M 40.707082,31.663293 C 40.707082,31.663293 40.707082,43.144816 40.707082,43.144816 C 44.158639,43.16643 49.051268,40.572389 49.051266,37.403316 C 49.051266,34.234241 45.199588,31.663293 40.707082,31.663293 z" style="opacity:.85294118;color:#000;fill:url(#radialGradient7736);fill-opacity:1;fill-rule:nonzero;stroke:none;stroke-width:1;stroke-linecap:round;stroke-linejoin:miter;marker:none;marker-start:none;marker-mid:none;marker-end:none;stroke-miterlimit:4;stroke-dasharray:none;stroke-dashoffset:0;stroke-opacity:1;visibility:visible;display:inline;overflow:visible"/><path id="path105" d="M 8.3441856,31.663293 C 8.3441856,31.663293 8.3441856,43.144816 8.3441856,43.144816 C 4.8926276,43.16643 2.6449977e-09,40.572389 2.6449977e-09,37.403316 C 2.6449977e-09,34.234241 3.8516777,31.663293 8.3441856,31.663293 z" style="opacity:.85294118;color:#000;fill:url(#radialGradient7738);fill-opacity:1;fill-rule:nonzero;stroke:none;stroke-width:1;stroke-linecap:round;stroke-linejoin:miter;marker:none;marker-start:none;marker-mid:none;marker-end:none;stroke-miterlimit:4;stroke-dasharray:none;stroke-dashoffset:0;stroke-opacity:1;visibility:visible;display:inline;overflow:visible"/></g><path id="path107" d="M 6.0765357,6.12132 C 5.6581186,6.12132 5.3861477,6.3157674 5.2187815,6.6867121 C 5.2187808,6.6867121 2.2270987,20.868998 2.2270987,20.868998 C 2.2270987,20.868998 2.0597318,21.319005 2.0597318,22.062601 C 2.0597318,22.062601 2.0597318,24.9111 2.0597318,24.9111 C 2.0597318,25.636551 2.5000975,26.000001 3.1685375,25.999999 L 28.984875,25.999999 C 29.644201,25.999999 30.051839,25.518752 30.051839,24.764517 L 30.051839,21.916017 C 30.051839,21.916017 30.122778,21.399763 29.989075,21.036521 L 26.830026,6.7914148 C 26.706492,6.4483903 26.403639,6.1292985 26.076875,6.12132 L 6.0765357,6.12132 z" style="fill:none;fill-opacity:1;fill-rule:evenodd;stroke:#888a85;stroke-width:2;stroke-linecap:round;stroke-linejoin:round;stroke-miterlimit:4;stroke-dasharray:none;stroke-opacity:1"/><path id="path109" d="M 2.0597321,22.002803 L 2.5716559,21.568753 L 27.75246,21.607944 L 30.070645,21.806904 L 30.070645,24.84415 C 30.070645,25.549931 29.664228,26 29.004839,26 L 3.1723827,26 C 2.5038813,26 2.0597321,25.66011 2.0597321,24.981263 L 2.0597321,22.002803 z" style="fill:url(#linearGradient6613);fill-opacity:1;fill-rule:evenodd;stroke:none;stroke-width:1.02044296px;stroke-linecap:butt;stroke-linejoin:miter;stroke-opacity:1"/><path id="path111" d="M 2.2526693,21.258557 C 1.7748333,22.324216 2.252258,23 2.9455327,23 C 2.9455327,23 29.035404,23 29.035404,23 C 29.784015,22.982672 30.269814,22.263568 29.991076,21.440498 L 26.837355,6.8490912 C 26.713915,6.4765417 26.399338,6.1299845 26.072817,6.1213207 L 6.0992532,6.1213207 C 5.6811458,6.1213207 5.4063898,6.3422515 5.2391478,6.7451241 C 5.2391478,6.7451241 2.2526693,21.258557 2.2526693,21.258557 z" style="fill:url(#radialGradient6615);fill-opacity:1;fill-rule:evenodd;stroke:none;stroke-width:1px;stroke-linecap:butt;stroke-linejoin:miter;stroke-opacity:1"/><path id="path113" d="M 29.912387,20.889188 C 29.955088,21.733495 29.634101,22.453445 29.023682,22.472297 C 29.023682,22.472297 3.4008671,22.472296 3.4008671,22.472297 C 2.5342651,22.472297 2.1454038,22.252809 2,21.88596 C 2.0616804,22.523818 2.5551016,23 3.4008671,23 C 3.4008671,22.999999 29.023682,23 29.023682,23 C 29.746957,22.977662 30.201889,22.038129 29.932585,20.977139 L 29.912387,20.889188 z" style="fill:#fff;fill-opacity:1;fill-rule:evenodd;stroke:none;stroke-width:1px;stroke-linecap:butt;stroke-linejoin:miter;stroke-opacity:1"/><path id="path115" d="M 7.3824965,8.1220958 L 10.734481,8.1220958 L 9.7913059,19.754744 L 5.4961435,19.754744 L 7.3824965,8.1220958 z" style="color:#000;fill:url(#linearGradient6628);fill-opacity:1;fill-rule:nonzero;stroke:none;stroke-width:1;stroke-linecap:butt;stroke-linejoin:miter;marker:none;marker-start:none;marker-mid:none;marker-end:none;stroke-miterlimit:4;stroke-dashoffset:0;stroke-opacity:1;visibility:visible;display:inline;overflow:visible"/><path id="path117" d="M 24.333098,8.1220958 L 20.981113,8.1220958 L 21.924291,19.754744 L 26.219452,19.754744 L 24.333098,8.1220958 z" style="color:#000;fill:url(#linearGradient6626);fill-opacity:1;fill-rule:nonzero;stroke:none;stroke-width:1;stroke-linecap:butt;stroke-linejoin:miter;marker:none;marker-start:none;marker-mid:none;marker-end:none;stroke-miterlimit:4;stroke-dashoffset:0;stroke-opacity:1;visibility:visible;display:inline;overflow:visible"/><path id="path119" d="M 14.064407,8.1652756 L 17.416393,8.1652756 L 18.041637,19.630515 L 13.439164,19.630515 L 14.064407,8.1652756 z" style="color:#000;fill:url(#linearGradient6635);fill-opacity:1;fill-rule:nonzero;stroke:none;stroke-width:1;stroke-linecap:butt;stroke-linejoin:miter;marker:none;marker-start:none;marker-mid:none;marker-end:none;stroke-miterlimit:4;stroke-dashoffset:0;stroke-opacity:1;visibility:visible;display:inline;overflow:visible"/><g id="g121" transform="matrix(0.6297872,0,0,0.5243663,-7.0606373,-4.1355463)"><path id="path123" d="M 28.0625,23.1875 L 20.5,23.09375 L 20.125,23.71875 L 18.875,30.9375 L 18.90625,31 L 30.0625,31 L 28.65625,24.75 L 28.0625,23.1875 z" style="opacity:1;color:#000;fill:#babdb6;fill-opacity:1;fill-rule:evenodd;stroke:#555753;stroke-width:3.48029232;stroke-linecap:butt;stroke-linejoin:miter;marker:none;marker-start:none;marker-mid:none;marker-end:none;stroke-miterlimit:4;stroke-dasharray:none;stroke-dashoffset:0;stroke-opacity:1;visibility:visible;display:inline;overflow:visible;enable-background:accumulate"/><path id="path125" d="M 18.915106,30.985244 L 30.052038,30.985244 L 28.637825,24.930641 L 20.152543,25.01903 L 18.915106,30.985244 z" style="opacity:1;color:#000;fill:#babdb6;fill-opacity:1;fill-rule:evenodd;stroke:none;stroke-width:1px;stroke-linecap:butt;stroke-linejoin:miter;marker:none;marker-start:none;marker-mid:none;marker-end:none;stroke-miterlimit:4;stroke-dasharray:none;stroke-dashoffset:0;stroke-opacity:1;visibility:visible;display:inline;overflow:visible;enable-background:accumulate"/><path id="path127" d="M 20.513864,23.088388 L 20.071737,25.024391 L 28.624881,25.042697 L 28.0633,23.173598 L 20.513864,23.088388 z" style="opacity:1;color:#000;fill:#eeeeec;fill-opacity:1;fill-rule:evenodd;stroke:none;stroke-width:1px;stroke-linecap:butt;stroke-linejoin:miter;marker:none;marker-start:none;marker-mid:none;marker-end:none;stroke-miterlimit:4;stroke-dasharray:none;stroke-dashoffset:0;stroke-opacity:1;visibility:visible;display:inline;overflow:visible;enable-background:accumulate"/><path id="path129" d="M 20.461903,23.11868 L 20.135768,23.716759 L 18.870912,30.941049 L 19.939155,26.005165 L 28.895407,26.010527 L 28.687381,24.99092 L 20.178432,24.967253 L 20.461903,23.11868 z" style="opacity:1;color:#000;fill:#fff;fill-opacity:1;fill-rule:evenodd;stroke:none;stroke-width:1px;stroke-linecap:butt;stroke-linejoin:miter;marker:none;marker-start:none;marker-mid:none;marker-end:none;stroke-miterlimit:4;stroke-dasharray:none;stroke-dashoffset:0;stroke-opacity:1;visibility:visible;display:inline;overflow:visible;enable-background:accumulate"/></g><g id="g7866" transform="matrix(0.6297872,0,0,0.5162911,0.1127666,3.0359392)"><path id="path7868" d="M 28.0625,23.1875 L 20.5,23.09375 L 20.125,23.71875 L 18.875,30.9375 L 18.90625,31 L 30.0625,31 L 28.65625,24.75 L 28.0625,23.1875 z" style="opacity:1;color:#000;fill:#babdb6;fill-opacity:1;fill-rule:evenodd;stroke:#555753;stroke-width:3.50740385;stroke-linecap:butt;stroke-linejoin:miter;marker:none;marker-start:none;marker-mid:none;marker-end:none;stroke-miterlimit:4;stroke-dasharray:none;stroke-dashoffset:0;stroke-opacity:1;visibility:visible;display:inline;overflow:visible;enable-background:accumulate"/><path id="path7870" d="M 18.915106,30.985244 L 30.052038,30.985244 L 28.637825,24.930641 L 20.152543,25.01903 L 18.915106,30.985244 z" style="opacity:1;color:#000;fill:#babdb6;fill-opacity:1;fill-rule:evenodd;stroke:none;stroke-width:1px;stroke-linecap:butt;stroke-linejoin:miter;marker:none;marker-start:none;marker-mid:none;marker-end:none;stroke-miterlimit:4;stroke-dasharray:none;stroke-dashoffset:0;stroke-opacity:1;visibility:visible;display:inline;overflow:visible;enable-background:accumulate"/><path id="path7872" d="M 20.513864,23.088388 L 20.071737,25.024391 L 28.624881,25.042697 L 28.0633,23.173598 L 20.513864,23.088388 z" style="opacity:1;color:#000;fill:#eeeeec;fill-opacity:1;fill-rule:evenodd;stroke:none;stroke-width:1px;stroke-linecap:butt;stroke-linejoin:miter;marker:none;marker-start:none;marker-mid:none;marker-end:none;stroke-miterlimit:4;stroke-dasharray:none;stroke-dashoffset:0;stroke-opacity:1;visibility:visible;display:inline;overflow:visible;enable-background:accumulate"/><path id="path7874" d="M 20.461903,23.11868 L 20.135768,23.716759 L 18.870912,30.941049 L 19.939155,26.005165 L 28.895407,26.010527 L 28.687381,24.99092 L 20.178432,24.967253 L 20.461903,23.11868 z" style="opacity:1;color:#000;fill:#fff;fill-opacity:1;fill-rule:evenodd;stroke:none;stroke-width:1px;stroke-linecap:butt;stroke-linejoin:miter;marker:none;marker-start:none;marker-mid:none;marker-end:none;stroke-miterlimit:4;stroke-dasharray:none;stroke-dashoffset:0;stroke-opacity:1;visibility:visible;display:inline;overflow:visible;enable-background:accumulate"/></g><g id="g7876" transform="matrix(0.6297872,0,0,0.5195203,8.9420223,0.9673636)"><path id="path7878" d="M 28.0625,23.1875 L 20.5,23.09375 L 20.125,23.71875 L 18.875,30.9375 L 18.90625,31 L 30.0625,31 L 28.65625,24.75 L 28.0625,23.1875 z" style="opacity:1;color:#000;fill:#babdb6;fill-opacity:1;fill-rule:evenodd;stroke:#555753;stroke-width:3.49648643;stroke-linecap:butt;stroke-linejoin:miter;marker:none;marker-start:none;marker-mid:none;marker-end:none;stroke-miterlimit:4;stroke-dasharray:none;stroke-dashoffset:0;stroke-opacity:1;visibility:visible;display:inline;overflow:visible;enable-background:accumulate"/><path id="path7880" d="M 18.915106,30.985244 L 30.052038,30.985244 L 28.637825,24.930641 L 20.152543,25.01903 L 18.915106,30.985244 z" style="opacity:1;color:#000;fill:#babdb6;fill-opacity:1;fill-rule:evenodd;stroke:none;stroke-width:1px;stroke-linecap:butt;stroke-linejoin:miter;marker:none;marker-start:none;marker-mid:none;marker-end:none;stroke-miterlimit:4;stroke-dasharray:none;stroke-dashoffset:0;stroke-opacity:1;visibility:visible;display:inline;overflow:visible;enable-background:accumulate"/><path id="path7882" d="M 20.513864,23.088388 L 20.071737,25.024391 L 28.624881,25.042697 L 28.0633,23.173598 L 20.513864,23.088388 z" style="opacity:1;color:#000;fill:#eeeeec;fill-opacity:1;fill-rule:evenodd;stroke:none;stroke-width:1px;stroke-linecap:butt;stroke-linejoin:miter;marker:none;marker-start:none;marker-mid:none;marker-end:none;stroke-miterlimit:4;stroke-dasharray:none;stroke-dashoffset:0;stroke-opacity:1;visibility:visible;display:inline;overflow:visible;enable-background:accumulate"/><path id="path7884" d="M 20.461903,23.11868 L 20.135768,23.716759 L 18.870912,30.941049 L 19.939155,26.005165 L 28.895407,26.010527 L 28.687381,24.99092 L 20.178432,24.967253 L 20.461903,23.11868 z" style="opacity:1;color:#000;fill:#fff;fill-opacity:1;fill-rule:evenodd;stroke:none;stroke-width:1px;stroke-linecap:butt;stroke-linejoin:miter;marker:none;marker-start:none;marker-mid:none;marker-end:none;stroke-miterlimit:4;stroke-dasharray:none;stroke-dashoffset:0;stroke-opacity:1;visibility:visible;display:inline;overflow:visible;enable-background:accumulate"/></g></g><g id="g22" transform="translate(303,177) scale(1.000000,1.000000)" style="display:inline;enable-background:new"><g id="g6108" transform="translate(0,30)"><g id="g143" transform="matrix(0.4478919,0,0,0.4748967,-0.5,-28.27407)" style="opacity:.56470588"><rect id="rect145" width="32.363" height="11.482" x="8.344" y="31.663" style="opacity:.85294118;color:#000;fill:url(#linearGradient7223);fill-opacity:1;fill-rule:nonzero;stroke:none;stroke-width:1;stroke-linecap:round;stroke-linejoin:miter;marker:none;marker-start:none;marker-mid:none;marker-end:none;stroke-miterlimit:4;stroke-dasharray:none;stroke-dashoffset:0;stroke-opacity:1;visibility:visible;display:inline;overflow:visible"/><path id="path147" d="M 40.707082,31.663293 C 40.707082,31.663293 40.707082,43.144816 40.707082,43.144816 C 44.158639,43.16643 49.051268,40.572389 49.051266,37.403316 C 49.051266,34.234241 45.199588,31.663293 40.707082,31.663293 z" style="opacity:.85294118;color:#000;fill:url(#radialGradient7225);fill-opacity:1;fill-rule:nonzero;stroke:none;stroke-width:1;stroke-linecap:round;stroke-linejoin:miter;marker:none;marker-start:none;marker-mid:none;marker-end:none;stroke-miterlimit:4;stroke-dasharray:none;stroke-dashoffset:0;stroke-opacity:1;visibility:visible;display:inline;overflow:visible"/><path id="path149" d="M 8.3441856,31.663293 C 8.3441856,31.663293 8.3441856,43.144816 8.3441856,43.144816 C 4.8926276,43.16643 2.6449977e-09,40.572389 2.6449977e-09,37.403316 C 2.6449977e-09,34.234241 3.8516777,31.663293 8.3441856,31.663293 z" style="opacity:.85294118;color:#000;fill:url(#radialGradient7227);fill-opacity:1;fill-rule:nonzero;stroke:none;stroke-width:1;stroke-linecap:round;stroke-linejoin:miter;marker:none;marker-start:none;marker-mid:none;marker-end:none;stroke-miterlimit:4;stroke-dasharray:none;stroke-dashoffset:0;stroke-opacity:1;visibility:visible;display:inline;overflow:visible"/></g><rect id="rect6108" width="20" height="18" x=".5" y="-27.5" rx="2.042" ry="2.042" style="fill:url(#radialGradient6089);fill-opacity:1;fill-rule:evenodd;stroke:#888a85;stroke-width:1.00000012;stroke-linecap:square;stroke-linejoin:round;stroke-miterlimit:4;stroke-dasharray:none;stroke-dashoffset:.69999992;stroke-opacity:1"/><path id="path7149" d="M 1,-14.5 L 1,-12.5 C 1,-11.66307 1.66307,-11 2.5,-11 L 18.472272,-11 C 19.309202,-11 19.972272,-11.66307 19.972272,-12.5 L 19.972272,-14.5 C 19.972272,-13.66307 19.309202,-13 18.472272,-13 L 2.5,-13 C 1.66307,-13 1,-13.66307 1,-14.5 z" style="fill:#fff;fill-opacity:1;fill-rule:evenodd;stroke:none;stroke-width:1.00000012;stroke-linecap:square;stroke-linejoin:round;stroke-miterlimit:4;stroke-dasharray:none;stroke-dashoffset:.69999992;stroke-opacity:1"/><path id="rect7083" d="M 1,-13.5 L 1,-11.5 C 1,-10.66307 1.66307,-10 2.5,-10 L 18.472272,-10 C 19.309202,-10 19.972272,-10.66307 19.972272,-11.5 L 19.972272,-13.5 C 19.972272,-12.66307 19.309202,-12 18.472272,-12 L 2.5,-12 C 1.66307,-12 1,-12.66307 1,-13.5 z" style="fill:url(#linearGradient6085);fill-opacity:1;fill-rule:evenodd;stroke:none;stroke-width:1.00000012;stroke-linecap:square;stroke-linejoin:round;stroke-miterlimit:4;stroke-dasharray:none;stroke-dashoffset:.69999992;stroke-opacity:1"/><g id="g6103"><rect id="rect7092" width="3" height="9" x="4" y="-24" style="fill:url(#linearGradient6082);fill-opacity:1;fill-rule:evenodd;stroke:none;stroke-width:.99999994;stroke-linecap:square;stroke-linejoin:round;stroke-miterlimit:4;stroke-dasharray:none;stroke-dashoffset:.69999992;stroke-opacity:1"/><rect id="rect6095" width="3" height="9" x="9" y="-24" style="fill:url(#linearGradient6097);fill-opacity:1;fill-rule:evenodd;stroke:none;stroke-width:.99999994;stroke-linecap:square;stroke-linejoin:round;stroke-miterlimit:4;stroke-dasharray:none;stroke-dashoffset:.69999992;stroke-opacity:1"/><rect id="rect6099" width="3" height="9" x="14" y="-24" style="fill:url(#linearGradient6101);fill-opacity:1;fill-rule:evenodd;stroke:none;stroke-width:.99999994;stroke-linecap:square;stroke-linejoin:round;stroke-miterlimit:4;stroke-dasharray:none;stroke-dashoffset:.69999992;stroke-opacity:1"/></g><g id="g7174" transform="translate(-1,-29.5)"><g id="g7178"><rect id="rect7098" width="4" height="3" x="4.5" y="5" style="opacity:1;fill:#fff;fill-opacity:1;fill-rule:evenodd;stroke:#555753;stroke-width:1;stroke-linecap:square;stroke-linejoin:miter;stroke-miterlimit:4;stroke-dasharray:none;stroke-dashoffset:.69999992;stroke-opacity:1"/><rect id="rect7104" width="3" height="1" x="5" y="6.5" style="opacity:1;fill:#babdb6;fill-opacity:1;fill-rule:evenodd;stroke:none;stroke-width:1;stroke-linecap:square;stroke-linejoin:round;stroke-miterlimit:4;stroke-dasharray:none;stroke-dashoffset:.69999992;stroke-opacity:1"/></g></g><rect id="rect7130" width="18" height="16" x="1.5" y="-26.5" rx="1.046" ry="1.046" style="opacity:.6;fill:none;fill-opacity:1;fill-rule:evenodd;stroke:url(#linearGradient6075);stroke-width:1;stroke-linecap:square;stroke-linejoin:round;stroke-miterlimit:4;stroke-dasharray:none;stroke-dashoffset:.69999992;stroke-opacity:1"/><g id="g7182" transform="translate(4,-22.5)"><g id="g7184"><rect id="rect7186" width="4" height="3" x="4.5" y="5" style="opacity:1;fill:#fff;fill-opacity:1;fill-rule:evenodd;stroke:#555753;stroke-width:1;stroke-linecap:square;stroke-linejoin:miter;stroke-miterlimit:4;stroke-dasharray:none;stroke-dashoffset:.69999992;stroke-opacity:1"/><rect id="rect7188" width="3" height="1" x="5" y="6.5" style="opacity:1;fill:#babdb6;fill-opacity:1;fill-rule:evenodd;stroke:none;stroke-width:1;stroke-linecap:square;stroke-linejoin:round;stroke-miterlimit:4;stroke-dasharray:none;stroke-dashoffset:.69999992;stroke-opacity:1"/></g></g><g id="g7190" transform="translate(9,-26.5)"><g id="g7192"><rect id="rect7194" width="4" height="3" x="4.5" y="5" style="opacity:1;fill:#fff;fill-opacity:1;fill-rule:evenodd;stroke:#555753;stroke-width:1;stroke-linecap:square;stroke-linejoin:miter;stroke-miterlimit:4;stroke-dasharray:none;stroke-dashoffset:.69999992;stroke-opacity:1"/><rect id="rect7196" width="3" height="1" x="5" y="6.5" style="opacity:1;fill:#babdb6;fill-opacity:1;fill-rule:evenodd;stroke:none;stroke-width:1;stroke-linecap:square;stroke-linejoin:round;stroke-miterlimit:4;stroke-dasharray:none;stroke-dashoffset:.69999992;stroke-opacity:1"/></g></g></g></g><g id="g16" transform="translate(303,219) scale(1.000000,1.000000)" style="display:inline;enable-background:new"><g id="g6039"><rect id="rect7251" width="15" height="14" x=".5" y="1.5" rx="2.042" ry="2.042" style="fill:url(#radialGradient7336);fill-opacity:1;fill-rule:evenodd;stroke:#888a85;stroke-width:1.00000012;stroke-linecap:square;stroke-linejoin:round;stroke-miterlimit:4;stroke-dasharray:none;stroke-dashoffset:.69999992;stroke-opacity:1"/><path id="path7255" d="M 1,10.5 L 1,12.5 C 1,13.33693 1.66307,14 2.5,14 L 13.472272,14 C 14.309202,14 14.972272,13.33693 14.972272,12.5 L 14.972272,10.5 C 14.972272,11.33693 14.309202,12 13.472272,12 L 2.5,12 C 1.66307,12 1,11.33693 1,10.5 z" style="fill:#fff;fill-opacity:1;fill-rule:evenodd;stroke:none;stroke-width:1.00000012;stroke-linecap:square;stroke-linejoin:round;stroke-miterlimit:4;stroke-dasharray:none;stroke-dashoffset:.69999992;stroke-opacity:1"/><path id="path7257" d="M 1,11.5 L 1,13.5 C 1,14.33693 1.66307,15 2.5,15 L 13.472272,15 C 14.309202,15 14.972272,14.33693 14.972272,13.5 L 14.972272,11.5 C 14.972272,12.33693 14.309202,13 13.472272,13 L 2.5,13 C 1.66307,13 1,12.33693 1,11.5 z" style="fill:url(#linearGradient7329);fill-opacity:1;fill-rule:evenodd;stroke:none;stroke-width:1.00000012;stroke-linecap:square;stroke-linejoin:round;stroke-miterlimit:4;stroke-dasharray:none;stroke-dashoffset:.69999992;stroke-opacity:1"/><rect id="rect7271" width="13" height="12" x="1.5" y="2.5" rx="1.046" ry="1.046" style="opacity:.6;fill:none;fill-opacity:1;fill-rule:evenodd;stroke:url(#linearGradient7316);stroke-width:1;stroke-linecap:square;stroke-linejoin:round;stroke-miterlimit:4;stroke-dasharray:none;stroke-dashoffset:.69999992;stroke-opacity:1"/><rect id="rect7344" width="2" height="7" x="3" y="4" style="fill:url(#linearGradient7350);fill-opacity:1;fill-rule:evenodd;stroke:none;stroke-width:.99999994;stroke-linecap:square;stroke-linejoin:round;stroke-miterlimit:4;stroke-dasharray:none;stroke-dashoffset:.69999992;stroke-opacity:1"/><rect id="rect7354" width="2" height="7" x="11" y="4" style="fill:url(#linearGradient7356);fill-opacity:1;fill-rule:evenodd;stroke:none;stroke-width:.99999994;stroke-linecap:square;stroke-linejoin:round;stroke-miterlimit:4;stroke-dasharray:none;stroke-dashoffset:.69999992;stroke-opacity:1"/><rect id="rect7358" width="2" height="7" x="7" y="4" style="fill:url(#linearGradient7360);fill-opacity:1;fill-rule:evenodd;stroke:none;stroke-width:.99999994;stroke-linecap:square;stroke-linejoin:round;stroke-miterlimit:4;stroke-dasharray:none;stroke-dashoffset:.69999992;stroke-opacity:1"/><g id="g7362" transform="translate(-2,-1.5)"><g id="g7364"><rect id="rect7366" width="3" height="3" x="4.5" y="5" style="opacity:1;fill:#fff;fill-opacity:1;fill-rule:evenodd;stroke:#555753;stroke-width:1;stroke-linecap:square;stroke-linejoin:miter;stroke-miterlimit:4;stroke-dasharray:none;stroke-dashoffset:.69999992;stroke-opacity:1"/><rect id="rect7368" width="2" height="1" x="5" y="6.5" style="opacity:1;fill:#babdb6;fill-opacity:1;fill-rule:evenodd;stroke:none;stroke-width:1;stroke-linecap:square;stroke-linejoin:round;stroke-miterlimit:4;stroke-dasharray:none;stroke-dashoffset:.69999992;stroke-opacity:1"/></g></g><g id="g7370" transform="translate(2,3.5)"><g id="g7372"><rect id="rect7374" width="3" height="3" x="4.5" y="5" style="opacity:1;fill:#fff;fill-opacity:1;fill-rule:evenodd;stroke:#555753;stroke-width:1;stroke-linecap:square;stroke-linejoin:miter;stroke-miterlimit:4;stroke-dasharray:none;stroke-dashoffset:.69999992;stroke-opacity:1"/><rect id="rect7376" width="2" height="1" x="5" y="6.5" style="opacity:1;fill:#babdb6;fill-opacity:1;fill-rule:evenodd;stroke:none;stroke-width:1;stroke-linecap:square;stroke-linejoin:round;stroke-miterlimit:4;stroke-dasharray:none;stroke-dashoffset:.69999992;stroke-opacity:1"/></g></g><g id="g7378" transform="translate(6,0.5)"><g id="g7380"><rect id="rect7382" width="3" height="3" x="4.5" y="5" style="opacity:1;fill:#fff;fill-opacity:1;fill-rule:evenodd;stroke:#555753;stroke-width:1;stroke-linecap:square;stroke-linejoin:miter;stroke-miterlimit:4;stroke-dasharray:none;stroke-dashoffset:.69999992;stroke-opacity:1"/><rect id="rect7384" width="2" height="1" x="5" y="6.5" style="opacity:1;fill:#babdb6;fill-opacity:1;fill-rule:evenodd;stroke:none;stroke-width:1;stroke-linecap:square;stroke-linejoin:round;stroke-miterlimit:4;stroke-dasharray:none;stroke-dashoffset:.69999992;stroke-opacity:1"/></g></g></g></g></g></svg>