<svg xmlns="http://www.w3.org/2000/svg" xmlns:svg="http://www.w3.org/2000/svg" xmlns:xlink="http://www.w3.org/1999/xlink" id="svg11300" width="400" height="300" version="1.0" style="display:inline;enable-background:new"><title id="title8836">Optical Drive</title><metadata id="metadata154"/><defs id="defs3"><linearGradient id="linearGradient4683"><stop id="stop4685" offset="0" style="stop-color:#000;stop-opacity:0"/><stop style="stop-color:#000;stop-opacity:0" id="stop4687" offset=".526"/><stop id="stop4689" offset="1" style="stop-color:#000;stop-opacity:1"/></linearGradient><linearGradient id="linearGradient4546"><stop style="stop-color:#000;stop-opacity:1" id="stop4548" offset="0"/><stop style="stop-color:#000;stop-opacity:0" id="stop4550" offset="1"/></linearGradient><linearGradient id="linearGradient4478"><stop style="stop-color:#000;stop-opacity:1" id="stop4480" offset="0"/><stop style="stop-color:#000;stop-opacity:0" id="stop4482" offset="1"/></linearGradient><linearGradient id="linearGradient4432"><stop style="stop-color:#fff;stop-opacity:0" id="stop4434" offset="0"/><stop style="stop-color:#fff;stop-opacity:1" id="stop4436" offset="1"/></linearGradient><linearGradient id="linearGradient12303"><stop style="stop-color:#ecd300;stop-opacity:1" id="stop12305" offset="0"/><stop id="stop12311" offset=".849" style="stop-color:#e9d000;stop-opacity:1"/><stop style="stop-color:#ccb600;stop-opacity:1" id="stop12307" offset="1"/></linearGradient><pattern id="pattern11902" patternTransform="matrix(0,1.9807263,-1.9807263,0,-216.99187,210.04454)" xlink:href="#pattern11886"/><pattern id="pattern11886" patternTransform="matrix(0,1.9807263,-1.9807263,0,-216.99187,210.04454)" xlink:href="#Strips1_1white"/><pattern id="Strips1_1white" width="2" height="1" patternTransform="translate(0,0) scale(10,10)" patternUnits="userSpaceOnUse"><rect id="rect11094" width="1" height="2" x="0" y="-.5" style="fill:#fff;stroke:none"/></pattern><linearGradient id="linearGradient11839"><stop style="stop-color:#eeeeec;stop-opacity:1" id="stop11841" offset="0"/><stop style="stop-color:#eeeeec;stop-opacity:0" id="stop11843" offset="1"/></linearGradient><linearGradient id="linearGradient10339"><stop style="stop-color:#ffe925;stop-opacity:1" id="stop10341" offset="0"/><stop style="stop-color:#cbb500;stop-opacity:1" id="stop10343" offset="1"/></linearGradient><linearGradient id="linearGradient10578"><stop style="stop-color:#fff;stop-opacity:1" id="stop10580" offset="0"/><stop style="stop-color:#fff;stop-opacity:0" id="stop10582" offset="1"/></linearGradient><linearGradient id="linearGradient10480"><stop style="stop-color:#eeeeec;stop-opacity:1" id="stop10482" offset="0"/><stop id="stop10488" offset=".431" style="stop-color:#eeeeec;stop-opacity:.74468085"/><stop style="stop-color:#eeeeec;stop-opacity:.098" id="stop10484" offset="1"/></linearGradient><linearGradient id="linearGradient6250"><stop id="stop6252" offset="0" style="stop-color:#9ea09c;stop-opacity:1"/><stop id="stop6254" offset="1" style="stop-color:#474745;stop-opacity:1"/></linearGradient><linearGradient id="linearGradient6256" x1="3.937" x2="37.158" y1="16.133" y2="16.383" gradientUnits="userSpaceOnUse" xlink:href="#linearGradient6250"/><linearGradient id="linearGradient6066"><stop id="stop6068" offset="0" style="stop-color:#fff;stop-opacity:1"/><stop id="stop6070" offset="1" style="stop-color:#fff;stop-opacity:0"/></linearGradient><linearGradient id="linearGradient5940"><stop id="stop5942" offset="0" style="stop-color:#fff;stop-opacity:1"/><stop id="stop5944" offset="1" style="stop-color:#fff;stop-opacity:0"/></linearGradient><linearGradient id="linearGradient5902"><stop id="stop5904" offset="0" style="stop-color:#fff;stop-opacity:1"/><stop id="stop5906" offset="1" style="stop-color:#fff;stop-opacity:0"/></linearGradient><linearGradient id="linearGradient5892"><stop id="stop5894" offset="0" style="stop-color:#c9b400;stop-opacity:1"/><stop id="stop5896" offset="1" style="stop-color:#edd400;stop-opacity:1"/></linearGradient><linearGradient id="linearGradient5880"><stop id="stop5882" offset="0" style="stop-color:#fff;stop-opacity:0"/><stop id="stop5884" offset=".505" style="stop-color:#fff;stop-opacity:1"/><stop id="stop5886" offset="1" style="stop-color:#fff;stop-opacity:0"/></linearGradient><linearGradient id="linearGradient5776"><stop id="stop5778" offset="0" style="stop-color:#fff;stop-opacity:1"/><stop id="stop5780" offset="1" style="stop-color:#fff;stop-opacity:0"/></linearGradient><linearGradient id="linearGradient5694"><stop id="stop5696" offset="0" style="stop-color:#fff;stop-opacity:1"/><stop id="stop5698" offset="1" style="stop-color:#fff;stop-opacity:0"/></linearGradient><linearGradient id="linearGradient5666"><stop id="stop5668" offset="0" style="stop-color:#fff;stop-opacity:0"/><stop id="stop5682" offset=".5" style="stop-color:#fff;stop-opacity:1"/><stop id="stop5670" offset="1" style="stop-color:#fff;stop-opacity:0"/></linearGradient><linearGradient id="linearGradient5556"><stop id="stop5558" offset="0" style="stop-color:#ef2929;stop-opacity:1"/><stop id="stop5560" offset="1" style="stop-color:#c00;stop-opacity:1"/></linearGradient><linearGradient id="linearGradient5541"><stop id="stop5543" offset="0" style="stop-color:#fff8ff;stop-opacity:1"/><stop id="stop5545" offset="1" style="stop-color:#746f76;stop-opacity:1"/></linearGradient><linearGradient id="linearGradient15679"><stop id="stop15681" offset="0" style="stop-color:#000;stop-opacity:1"/><stop id="stop15683" offset="1" style="stop-color:#000;stop-opacity:0"/></linearGradient><radialGradient id="radialGradient5566" cx="23.313" cy="40.938" r="17.188" fx="23.313" fy="40.938" gradientTransform="matrix(1,0,0,0.316364,0,27.98636)" gradientUnits="userSpaceOnUse" xlink:href="#linearGradient15679"/><filter id="filter5652" width="1.226" height="1.715" x="-.113" y="-.358"><feGaussianBlur id="feGaussianBlur5654" stdDeviation="1.621"/></filter><linearGradient id="linearGradient5664" x1="10.25" x2="37.75" y1="23.75" y2="23.75" gradientTransform="translate(0,-1)" gradientUnits="userSpaceOnUse" xlink:href="#linearGradient5541"/><linearGradient id="linearGradient5672" x1="-1.727" x2="49.579" y1="23.737" y2="23.737" gradientUnits="userSpaceOnUse" xlink:href="#linearGradient5666"/><radialGradient id="radialGradient5700" cx="33.358" cy="25.907" r="2.563" fx="33.358" fy="25.907" gradientTransform="matrix(8.4634146,0,0,6.1219512,-258.8872,-133.28963)" gradientUnits="userSpaceOnUse" xlink:href="#linearGradient5694"/><filter id="filter5770" width="2.133" height="1.185" x="-.566" y="-.093"><feGaussianBlur id="feGaussianBlur5772" stdDeviation="1.209"/></filter><linearGradient id="linearGradient5782" x1="27.875" x2="28.25" y1="46.625" y2="26.5" gradientTransform="translate(0,-1)" gradientUnits="userSpaceOnUse" xlink:href="#linearGradient5776"/><filter id="filter5852" width="1.558" height="1.971" x="-.279" y="-.485"><feGaussianBlur id="feGaussianBlur5854" stdDeviation="3.094"/></filter><linearGradient id="linearGradient5868" x1="18.5" x2="29.253" y1="25.5" y2="25.5" gradientTransform="matrix(1.4883722,0,0,0.9817305,-11.472384,-0.5988031)" gradientUnits="userSpaceOnUse" xlink:href="#linearGradient5556"/><linearGradient id="linearGradient5878" x1="11" x2="38.75" y1="4.375" y2="4.375" gradientTransform="translate(8.8388348e-2,0.941222)" gradientUnits="userSpaceOnUse" xlink:href="#linearGradient5880"/><radialGradient id="radialGradient5908" cx="24" cy="32.17" r="2" fx="24" fy="32.17" gradientTransform="matrix(19.693848,0,0,2.5786779,-448.65235,-49.190333)" gradientUnits="userSpaceOnUse" xlink:href="#linearGradient5902"/><filter id="filter5934" width="1.41" height="1.28" x="-.205" y="-.14"><feGaussianBlur id="feGaussianBlur5936" stdDeviation=".342"/></filter><linearGradient id="linearGradient5946" x1="20.875" x2="33.313" y1="12.813" y2="12.813" gradientTransform="translate(0,-1)" gradientUnits="userSpaceOnUse" xlink:href="#linearGradient5940"/><filter id="filter5980" width="1.186" height="1.528" x="-.093" y="-.264"><feGaussianBlur id="feGaussianBlur5982" stdDeviation=".481"/></filter><filter id="filter6034" width="1.133" height="1.318" x="-.067" y="-.159"><feGaussianBlur id="feGaussianBlur6036" stdDeviation=".533"/></filter><filter id="filter6060"><feGaussianBlur id="feGaussianBlur6062" stdDeviation=".452"/></filter><linearGradient id="linearGradient6072" x1="23.969" x2="25.375" y1="20.563" y2="24.625" gradientTransform="matrix(-0.7583621,0.6518335,-0.6518335,-0.7583621,61.809724,31.599971)" gradientUnits="userSpaceOnUse" xlink:href="#linearGradient6066"/><radialGradient id="radialGradient6077" cx="24.976" cy="25.602" r="9.582" fx="24.976" fy="25.602" gradientTransform="matrix(0.688706,0.8012609,-3.6519258,3.1389251,105.02195,-70.172568)" gradientUnits="userSpaceOnUse" xlink:href="#linearGradient5892"/><radialGradient id="radialGradient6081" cx="24.976" cy="25.602" r="9.582" fx="24.976" fy="25.602" gradientTransform="matrix(1.2288985e-7,-1.0565676,4.8155387,5.5559779e-6,-99.10926,50.013268)" gradientUnits="userSpaceOnUse" xlink:href="#linearGradient5892"/><radialGradient id="radialGradient6092" cx="24.976" cy="25.602" r="9.582" fx="24.976" fy="25.602" gradientTransform="matrix(-0.688706,0.8012609,3.6519258,3.1389251,-57.511851,-70.172568)" gradientUnits="userSpaceOnUse" xlink:href="#linearGradient5892"/><radialGradient id="radialGradient6094" cx="24" cy="32.17" r="2" fx="24" fy="32.17" gradientTransform="matrix(19.693848,0,0,2.5786779,-448.65235,-49.190333)" gradientUnits="userSpaceOnUse" xlink:href="#linearGradient5902"/><linearGradient id="linearGradient6096" x1="23.969" x2="25.375" y1="20.563" y2="24.625" gradientTransform="matrix(0.7583621,0.6518335,0.6518335,-0.7583621,-14.299629,31.599971)" gradientUnits="userSpaceOnUse" xlink:href="#linearGradient6066"/><filter id="filter6138" width="1.274" height="1.247" x="-.137" y="-.123"><feGaussianBlur id="feGaussianBlur6140" stdDeviation=".128"/></filter><filter id="filter6154" width="1.248" height="1.216" x="-.124" y="-.108"><feGaussianBlur id="feGaussianBlur6156" stdDeviation=".114"/></filter><radialGradient id="radialGradient4902" cx="24.976" cy="25.602" r="9.582" fx="24.976" fy="25.602" gradientTransform="matrix(6.681315e-8,-0.5434493,2.6181274,2.8577366e-6,-55.793617,25.303804)" gradientUnits="userSpaceOnUse" xlink:href="#linearGradient5892"/><linearGradient id="linearGradient4904" x1="1.273" x2="31.829" y1="23.612" y2="23.612" gradientTransform="matrix(0.6788434,0,0,0.6521912,0.7829414,0.7321377)" gradientUnits="userSpaceOnUse" xlink:href="#linearGradient5666"/><linearGradient id="linearGradient5363"><stop id="stop5365" offset="0" style="stop-color:#fff;stop-opacity:1"/><stop id="stop5367" offset="1" style="stop-color:#fff;stop-opacity:0"/></linearGradient><linearGradient id="linearGradient4782" x1="10.25" x2="37.75" y1="23.75" y2="23.75" gradientTransform="matrix(0.401886,0,0,0.3685613,-1.6499948,-0.9029284)" gradientUnits="userSpaceOnUse" xlink:href="#linearGradient5541"/><linearGradient id="linearGradient4784" x1="3.937" x2="27.908" y1="16.133" y2="16.133" gradientTransform="matrix(0.5641498,0,0,0.52095,-1.0152949,-0.2607046)" gradientUnits="userSpaceOnUse" xlink:href="#linearGradient6250"/><filter id="filter10529" width="1.025" height="1.507" x="-.013" y="-.253"><feGaussianBlur id="feGaussianBlur10531" stdDeviation=".825"/></filter><filter id="filter10574"><feGaussianBlur id="feGaussianBlur10576" stdDeviation=".363"/></filter><filter id="filter10674"><feGaussianBlur id="feGaussianBlur10676" stdDeviation=".349"/></filter><filter id="filter10785"><feGaussianBlur id="feGaussianBlur10787" stdDeviation="1.313"/></filter><mask id="mask11898" maskUnits="userSpaceOnUse"><path style="opacity:.50212767;fill:url(#pattern11902);fill-opacity:1;fill-rule:nonzero;stroke:none;stroke-width:1.00199997;stroke-linecap:round;stroke-linejoin:round;marker:none;marker-start:none;marker-mid:none;marker-end:none;stroke-miterlimit:4;stroke-dashoffset:0;stroke-opacity:.46632122;visibility:visible;display:inline;overflow:visible;enable-background:accumulate" id="path11900" d="M -214,198 L -214,215.62478 C -214,218.04865 -216.1185,220 -218.75,220 C -221.3815,220 -223.5,218.04865 -223.5,215.62478 L -223.5,198 L -214,198 z"/></mask><filter id="filter12138"><feGaussianBlur id="feGaussianBlur12140" stdDeviation=".43"/></filter><filter id="filter12175"><feGaussianBlur id="feGaussianBlur12177" stdDeviation=".428"/></filter><filter id="filter12285" width="1.169" height="1.482" x="-.085" y="-.241"><feGaussianBlur id="feGaussianBlur12287" stdDeviation=".439"/></filter><filter id="filter12491"><feGaussianBlur id="feGaussianBlur12493" stdDeviation=".991"/></filter><linearGradient id="linearGradient12506" x1="3.937" x2="27" y1="16.133" y2="16" gradientUnits="userSpaceOnUse" xlink:href="#linearGradient5666"/><linearGradient id="linearGradient12518" x1="6.912" x2="26.912" y1="5.059" y2="5.059" gradientTransform="translate(8.8388348e-2,0.941222)" gradientUnits="userSpaceOnUse" xlink:href="#linearGradient5880"/><linearGradient id="linearGradient12530" x1="3.937" x2="27.908" y1="16.133" y2="16.133" gradientTransform="matrix(0.5641498,0,0,0.52095,-1.0152949,-0.2607046)" gradientUnits="userSpaceOnUse" xlink:href="#linearGradient5363"/><linearGradient id="linearGradient4056" x1="136.5" x2="228.623" y1="42.158" y2="43.908" gradientTransform="translate(0,1)" gradientUnits="userSpaceOnUse" spreadMethod="reflect" xlink:href="#linearGradient10480"/><linearGradient id="linearGradient4117" x1="20.894" x2="27.489" y1="24.67" y2="24.67" gradientTransform="matrix(7.937985,0,0,5.235896,-45.186091,24.806388)" gradientUnits="userSpaceOnUse" xlink:href="#linearGradient5556"/><radialGradient id="radialGradient4148" cx="37.23" cy="25.455" r="9.582" fx="37.23" fy="25.455" gradientTransform="matrix(-4.5381531e-7,-4.3248773,4.7999005,1.3063699e-7,22.760188,241.45337)" gradientUnits="userSpaceOnUse" xlink:href="#linearGradient12303"/><linearGradient id="linearGradient4150" x1="20.875" x2="33.313" y1="12.813" y2="12.813" gradientTransform="translate(0,-1)" gradientUnits="userSpaceOnUse" xlink:href="#linearGradient5940"/><linearGradient id="linearGradient4152" x1="138.344" x2="153.203" y1="67.078" y2="142" gradientUnits="userSpaceOnUse" xlink:href="#linearGradient10578"/><radialGradient id="radialGradient4154" cx="24.976" cy="25.602" r="9.582" fx="24.976" fy="25.602" gradientTransform="matrix(-0.03001055,5.6349469,25.682509,0.1367537,-874.27129,45.763841)" gradientUnits="userSpaceOnUse" xlink:href="#linearGradient5892"/><linearGradient id="linearGradient4156" x1="-223.5" x2="-214" y1="209" y2="209" gradientUnits="userSpaceOnUse" xlink:href="#linearGradient11839"/><radialGradient id="radialGradient4158" cx="-245.8" cy="190.773" r="6" fx="-245.8" fy="190.773" gradientTransform="matrix(1,0,0,0.9166667,0,16.125)" gradientUnits="userSpaceOnUse" xlink:href="#linearGradient10339"/><radialGradient id="radialGradient4160" cx="-246" cy="190.773" r="6" fx="-246" fy="190.773" gradientTransform="matrix(1,0,0,0.9166667,0,16.125)" gradientUnits="userSpaceOnUse" xlink:href="#linearGradient10339"/><radialGradient id="radialGradient4162" cx="-246" cy="190.773" r="6" fx="-246" fy="190.773" gradientTransform="matrix(1,0,0,0.9166667,0,16.125)" gradientUnits="userSpaceOnUse" xlink:href="#linearGradient10339"/><radialGradient id="radialGradient4164" cx="24.976" cy="25.602" r="9.582" fx="24.976" fy="25.602" gradientTransform="matrix(-0.03001055,5.6349469,25.682509,0.1367537,-874.27129,45.763841)" gradientUnits="userSpaceOnUse" xlink:href="#linearGradient5892"/><linearGradient id="linearGradient4166" x1="-223.5" x2="-214" y1="209" y2="209" gradientUnits="userSpaceOnUse" xlink:href="#linearGradient11839"/><radialGradient id="radialGradient4168" cx="-245.8" cy="190.773" r="6" fx="-245.8" fy="190.773" gradientTransform="matrix(1,0,0,0.9166667,0,16.125)" gradientUnits="userSpaceOnUse" xlink:href="#linearGradient10339"/><radialGradient id="radialGradient4170" cx="-246" cy="190.773" r="6" fx="-246" fy="190.773" gradientTransform="matrix(1,0,0,0.9166667,0,16.125)" gradientUnits="userSpaceOnUse" xlink:href="#linearGradient10339"/><radialGradient id="radialGradient4172" cx="-246" cy="190.773" r="6" fx="-246" fy="190.773" gradientTransform="matrix(1,0,0,0.9166667,0,16.125)" gradientUnits="userSpaceOnUse" xlink:href="#linearGradient10339"/><radialGradient id="radialGradient4174" cx="24" cy="32.17" r="2" fx="24" fy="32.17" gradientTransform="matrix(19.693848,0,0,2.5786779,-448.65235,-49.190333)" gradientUnits="userSpaceOnUse" xlink:href="#linearGradient5902"/><radialGradient id="radialGradient4176" cx="24" cy="32.17" r="2" fx="24" fy="32.17" gradientTransform="matrix(19.693848,0,0,2.5786779,-448.65235,-49.190333)" gradientUnits="userSpaceOnUse" xlink:href="#linearGradient5902"/><clipPath id="clipPath4186" clipPathUnits="userSpaceOnUse"><path id="path4188" d="m 59.38187,76.36526 c 9.23715,46.03876 11.10252,92.06603 -1.3483,139.73694 -1.10323,4.22397 -1.87699,7.75076 0.67415,10.08012 0,0 43.11225,41.34376 84.94333,41.81358 42.3077,0.47519 82.36238,-40.46956 82.36238,-40.46956 3.57289,-3.15062 2.84536,-6.94424 2.02246,-10.75214 -10.33682,-34.64739 -7.20844,-100.90127 0.67414,-163.972893 1.19737,-5.566767 -1.38845,-9.789161 -5.39323,-10.080123 -55.15153,-4.006963 -91.86647,-4.043646 -147.75525,0 -4.78185,0.345975 -7.93726,5.795981 -5.39322,9.408116 l 10.78645,12.012146 c 3.05843,3.358941 -0.23249,10.242602 -8.76399,7.771756 l -5.4775,-1.596019 c -4.04492,-1.344017 -8.08984,2.268028 -7.33142,6.048077 z" style="fill:#999;fill-opacity:1;fill-rule:nonzero;stroke:none;stroke-width:1;marker:none;visibility:visible;display:inline;overflow:visible;enable-background:accumulate"/></clipPath><filter id="filter4198"><feGaussianBlur id="feGaussianBlur4200" stdDeviation="1.001"/></filter><radialGradient id="radialGradient4206" cx="33.997" cy="26.367" r="2.563" fx="33.997" fy="26.367" gradientTransform="matrix(45.138211,0,0,32.650406,-1364.7318,-682.87802)" gradientUnits="userSpaceOnUse" xlink:href="#linearGradient5694"/><radialGradient id="radialGradient4208" cx="76.75" cy="130.08" r="86" fx="76.75" fy="130.08" gradientTransform="matrix(1.9957793,1.3625384e-7,0,5.8399563,-73.167723,-581.73522)" gradientUnits="userSpaceOnUse" xlink:href="#linearGradient5541"/><linearGradient id="linearGradient5776-2-3"><stop id="stop5778-4-6" offset="0" style="stop-color:#fff;stop-opacity:1"/><stop id="stop5780-6-6" offset="1" style="stop-color:#fff;stop-opacity:0"/></linearGradient><linearGradient id="linearGradient4271" x1="28.25" x2="28.25" y1="44.413" y2="29.703" gradientTransform="matrix(5.2961151,0,0,5.2961151,17.38384,32.92293)" gradientUnits="userSpaceOnUse" xlink:href="#linearGradient5776-2-3"/><filter id="filter4392-9" color-interpolation-filters="sRGB"><feGaussianBlur id="feGaussianBlur4394-2" stdDeviation="1.974"/></filter><radialGradient id="radialGradient4438" cx="143.007" cy="160.029" r="89.837" fx="143.007" fy="160.029" gradientTransform="matrix(3.1487743,0,0,1.3212277,-307.28967,-48.396623)" gradientUnits="userSpaceOnUse" xlink:href="#linearGradient4432"/><linearGradient id="linearGradient4484" x1="146" x2="146" y1="256" y2="189.932" gradientTransform="matrix(1,0,-0.1316525,1,35.28287,1)" gradientUnits="userSpaceOnUse" xlink:href="#linearGradient4478"/><filter id="filter4486" width="1.189" height="1.33" x="-.094" y="-.165"><feGaussianBlur id="feGaussianBlur4488" stdDeviation="7.167"/></filter><linearGradient id="linearGradient4552" x1="143.002" x2="-61.094" y1="164.851" y2="-101.149" gradientUnits="userSpaceOnUse" xlink:href="#linearGradient4546"/><filter id="filter4578" width="2.17" height="1.191" x="-.585" y="-.096"><feGaussianBlur id="feGaussianBlur4580" stdDeviation="6.664"/></filter><radialGradient id="radialGradient4660" cx="136.636" cy="148.779" r="86.002" fx="136.636" fy="148.779" gradientTransform="matrix(1.2558074,-3.8017375e-7,2.3383974e-6,7.7243016,-36.58138,-1034.5411)" gradientUnits="userSpaceOnUse" xlink:href="#linearGradient4683"/><filter id="filter3903" width="1.196" height="1.341" x="-.098" y="-.171"><feGaussianBlur id="feGaussianBlur3905" stdDeviation="5.758"/></filter></defs><g id="layer6" style="display:none"><rect id="rect6284" width="48" height="48" x="296" y="50" style="fill:#eeeeec;fill-opacity:1;fill-rule:nonzero;stroke:none;stroke-width:2;marker:none;visibility:visible;display:inline;overflow:visible;enable-background:accumulate"/><rect id="rect6592" width="32" height="32" x="303" y="126" style="fill:#eeeeec;fill-opacity:1;fill-rule:nonzero;stroke:none;stroke-width:2;marker:none;visibility:visible;display:inline;overflow:visible;enable-background:accumulate"/><rect id="rect6749" width="22" height="22" x="303" y="177" style="fill:#eeeeec;fill-opacity:1;fill-rule:nonzero;stroke:none;stroke-width:2;marker:none;visibility:visible;display:inline;overflow:visible;enable-background:accumulate"/><rect id="rect6833" width="16" height="16" x="303" y="219" style="fill:#eeeeec;fill-opacity:1;fill-rule:nonzero;stroke:none;stroke-width:2;marker:none;visibility:visible;display:inline;overflow:visible;enable-background:accumulate"/><text id="context" x="20.971" y="21.514" xml:space="preserve" style="font-size:18.30070686px;font-style:normal;font-weight:400;fill:#000;fill-opacity:1;stroke:none;display:inline;enable-background:new;font-family:Bitstream Vera Sans"><tspan id="tspan2716" x="20.971" y="21.514">status</tspan></text><text id="icon-name" x="191.971" y="21.514" xml:space="preserve" style="font-size:18.30070686px;font-style:normal;font-variant:normal;font-weight:700;font-stretch:normal;text-align:start;line-height:125%;writing-mode:lr-tb;text-anchor:start;fill:#000;fill-opacity:1;stroke:none;display:inline;enable-background:new;font-family:Droid Sans;-inkscape-font-specification:Droid Sans Bold"><tspan id="tspan3023" x="191.971" y="21.514">security-high</tspan></text><rect style="fill:#eeeeec;fill-opacity:1;fill-rule:nonzero;stroke:none;stroke-width:2;marker:none;visibility:visible;display:inline;overflow:visible;enable-background:accumulate" id="rect9477" width="256" height="256" x="16" y="28"/></g><g id="layer2" style="display:inline"><g id="g48" transform="translate(296,50)" style="display:inline;enable-background:new"><path id="path5564" d="m 40.5,40.9375 c 0,3.003048 -7.695106,5.4375 -17.1875,5.4375 -9.492394,0 -17.1875,-2.434452 -17.1875,-5.4375 0,-3.003048 7.695106,-5.4375 17.1875,-5.4375 9.492394,0 17.1875,2.434452 17.1875,5.4375 z" transform="matrix(1.1163636,0,0,1.1565771,-2.5573973,-8.784877)" style="fill:url(#radialGradient5566);fill-opacity:1;fill-rule:nonzero;stroke:none;stroke-width:1.00000024;marker:none;visibility:visible;display:block;overflow:visible;filter:url(#filter5652)"/><path id="path5539" d="M 8.25,9.257583 C 9.9627303,17.821235 10.308604,26.382751 8,35.25 c -0.2045584,0.7857 -0.3480272,1.441716 0.125,1.875 0,0 7.993777,7.690336 15.75,7.777728 7.8446,0.08839 15.271447,-7.527728 15.271447,-7.527728 0.66248,-0.586045 0.527583,-1.291696 0.375,-2 -1.916628,-6.44475 -1.336573,-18.76861 0.125,-30.500539 0.222012,-1.0354726 -0.269289,-1.543714 -1,-1.875 -10.237919,-0.6541792 -17.027901,-0.6952862 -27.396447,0 -0.880865,0.1212254 -1.47171,1.0781083 -1,1.75 l 2,2.234375 c 0.567087,0.6247953 -0.04311,1.9052225 -1.625,1.4456214 L 9.609375,8.1325824 c -0.75,-0.25 -1.5,0.4218751 -1.359375,1.1250006 z" style="fill:url(#linearGradient5664);fill-opacity:1;fill-rule:nonzero;stroke:url(#linearGradient6256);stroke-width:1;stroke-linecap:round;stroke-linejoin:round;stroke-miterlimit:4;stroke-opacity:1;stroke-dasharray:none;stroke-dashoffset:0;marker:none;visibility:visible;display:inline;overflow:visible;enable-background:accumulate"/><path id="path5549" d="M 16.150888,3.0410214 C 17.478949,17.078525 16.932609,27.962497 15.9375,42 c 5.421764,3.260876 10.429791,2.595516 16,0.331354 C 30.218576,28.4734 30.82195,17.350892 32.088388,3.1612308 26.457734,2.4142136 21.346725,2.747373 16.150888,3.0410214 z" style="fill:url(#linearGradient5868);fill-opacity:1;fill-rule:nonzero;stroke:none;stroke-width:1;marker:none;visibility:visible;display:inline;overflow:visible;enable-background:accumulate"/><path id="path5662" d="m 25,3.5 c -4.238452,-0.0051 -8.504367,0.1551194 -13.65625,0.5 -0.01177,7.881e-4 -0.01947,-7.901e-4 -0.03125,0 -0.0938,0.035749 -0.183246,0.095839 -0.21875,0.15625 -0.04467,0.076001 -0.028,0.035886 -0.03125,0.03125 L 13,6.3125 l -0.03125,0 c 0.0071,0.00779 -0.0069,0.023372 0,0.03125 C 13.579855,7.0412081 13.547487,8.0397041 13,8.71875 12.44633,9.4054654 11.408742,9.6844218 10.34375,9.375 l -1,-0.3125 a 0.99185758,0.99185758 0 0 1 -0.03125,0 c -0.052192,-0.017397 -0.074786,0.094822 -0.09375,0 1.732646,8.663233 2.103941,17.396114 -0.25,26.4375 -0.099566,0.38243 -0.155228,0.672441 -0.15625,0.8125 -0.00102,0.140059 -0.0471,0.07923 -0.03125,0.09375 a 0.99185758,0.99185758 0 0 1 0.03125,0 c 0,0 1.925867,1.868625 4.8125,3.75 2.886633,1.881375 6.695916,3.709955 10.25,3.75 7.19545,0.08107 14.5625,-7.21875 14.5625,-7.21875 A 0.99185758,0.99185758 0 0 1 38.5,36.625 c 0.158262,-0.140002 0.143938,-0.142509 0.15625,-0.28125 0.01231,-0.138741 -0.01907,-0.40331 -0.09375,-0.75 l 0.03125,0 C 36.581529,28.755348 37.223045,16.505064 38.6875,4.75 a 0.99185758,0.99185758 0 0 1 0,-0.09375 c 0.07259,-0.3385872 0.03906,-0.406328 0,-0.46875 C 38.660144,4.1437821 38.504491,4.0786779 38.375,4 33.378658,3.684059 29.179871,3.5050261 25,3.5 z" xlink:href="#path5539" style="opacity:.56626503;fill:none;stroke:url(#linearGradient5672);stroke-width:1;stroke-linecap:round;stroke-linejoin:round;stroke-miterlimit:4;stroke-opacity:1;stroke-dasharray:none;stroke-dashoffset:0;marker:none;visibility:visible;display:inline;overflow:visible;enable-background:accumulate"/><path id="path5684" d="m 37,6.7499999 c 0,0 -2.375,20.6250001 0.25,27.1250001 0,0 -5.125,4.25 -5.125,4.25 L 37,6.7499999 z" style="fill:url(#radialGradient5700);fill-opacity:1;fill-rule:nonzero;stroke:none;stroke-width:1;marker:none;visibility:visible;display:inline;overflow:visible;filter:url(#filter5770);enable-background:accumulate"/><path id="path5774" d="M 12.75,25.5 10.375,35.75 C 18.505783,40.753549 28.212016,44.172673 37,35.375 L 34.75,25.75 c -6.999699,2.585742 -14.333635,2.497591 -22,-0.25 z" style="opacity:.5;fill:url(#linearGradient5782);fill-opacity:1;fill-rule:nonzero;stroke:none;stroke-width:1;marker:none;visibility:visible;display:inline;overflow:visible;filter:url(#filter5852);enable-background:accumulate"/><path id="path6008" d="m 17.031078,14.8125 15.067906,0 1.660061,-6.242444 -1.723244,1.338264 -2.076796,-0.069401 1.805412,0.973581 -0.845909,2 -2.007395,0.02474 -0.934297,-1.024744 -1.022685,1 -1.925226,0 -0.59375,-2.4375 -0.504556,2.487451 -1.906238,-0.04995 -1.041673,-1.16195 -0.915309,1.1425 -2.120992,0.01945 -0.97849,-1.957445 L 18.022008,9.781956 16,9.75675 14.594509,8.746833 z" style="fill:#000;fill-opacity:1;fill-rule:nonzero;stroke:none;stroke-width:1;marker:none;visibility:visible;display:inline;overflow:visible;filter:url(#filter6034);enable-background:accumulate"/><path id="path5656" d="m 17.031078,14.0625 15.067906,0 1.660061,-6.242444 -1.723244,1.338264 -2.076796,-0.069401 1.805412,0.973581 -0.845909,2 -2.007395,0.02474 -0.934297,-1.024744 -1.022685,1 -1.925226,0 -0.59375,-2.03125 -0.504556,2.081201 -1.906238,-0.04995 -1.041673,-1.16195 -0.915309,1.1425 -2.120992,0.01945 -0.97849,-1.957445 L 18.022008,9.031956 16,9.00675 14.594509,7.996833 z" style="fill:url(#radialGradient6081);fill-opacity:1;fill-rule:nonzero;stroke:none;stroke-width:1;marker:none;visibility:visible;display:inline;overflow:visible;enable-background:accumulate"/><path id="path6038" d="m 23.96875,17.4375 c -0.502063,0 -0.90625,0.404187 -0.90625,0.90625 l 0,3.09375 -3.625,0 c -0.796375,0 -1.4375,0.446 -1.4375,1 0,0.554 0.641125,1 1.4375,1 l 2.625,0 c -0.0064,0.04101 0,0.08288 0,0.125 l 0,11.28125 c 0,0.684466 0.864125,3.90625 1.9375,3.90625 1.073375,0 1.9375,-3.221784 1.9375,-3.90625 l 0,-11.28125 c 0,-0.04212 0.0064,-0.08399 0,-0.125 l 2.6875,0 c 0.796375,0 1.4375,-0.446 1.4375,-1 0,-0.554 -0.641125,-1 -1.4375,-1 l -3.75,0 0,-3.09375 c 0,-0.502062 -0.404187,-0.90625 -0.90625,-0.90625 z" transform="matrix(-0.7583621,0.6518335,-0.6518335,-0.7583621,62.074888,32.483851)" style="fill:#000;fill-opacity:1;fill-rule:nonzero;stroke:none;stroke-width:2;marker:none;visibility:visible;display:inline;overflow:visible;filter:url(#filter6060);enable-background:accumulate"/><path id="rect5858" d="m 32.551563,34.331449 c 0.380745,-0.327262 0.423803,-0.897245 0.09654,-1.27799 l -2.01661,-2.346183 2.749063,-2.362896 c 0.603941,-0.519104 0.799428,-1.27524 0.438312,-1.695373 -0.361115,-0.420133 -1.138038,-0.340456 -1.741979,0.178648 l -1.9907,1.711063 c -0.02189,-0.03527 -0.05402,-0.06285 -0.08148,-0.09479 L 22.651214,19.88865 c -0.446158,-0.519073 -3.201544,-2.399086 -4.015551,-1.699425 -0.814007,0.699662 0.63074,3.706207 1.076898,4.22528 l 7.353496,8.555273 c 0.02746,0.03194 0.0499,0.06786 0.08148,0.09479 l -2.038098,1.751802 c -0.603941,0.519104 -0.799428,1.275241 -0.438312,1.695373 0.361116,0.420133 1.138038,0.340456 1.741979,-0.178648 l 2.843858,-2.444376 2.01661,2.346183 c 0.327261,0.380745 0.897244,0.423803 1.27799,0.09654 z" style="fill:url(#radialGradient6077);fill-opacity:1;fill-rule:nonzero;stroke:none;stroke-width:2;marker:none;visibility:visible;display:inline;overflow:visible;enable-background:accumulate"/><path id="path5870" d="M 11.59283,4.2126685 C 19.208407,3.2737316 29.124703,3.1875029 39.0625,4.407751" style="fill:none;stroke:url(#linearGradient5878);stroke-width:1;stroke-linecap:round;stroke-linejoin:round;stroke-miterlimit:4;stroke-opacity:1;stroke-dasharray:none;stroke-dashoffset:0;marker:none;visibility:visible;display:inline;overflow:visible;enable-background:accumulate"/><path id="path5900" d="M 22.125,31.375 22,35.5 c 1.472909,-1.670788 2.734868,-2.075873 3.875,-1.75 L 26,29.875 c -1.430983,-0.475215 -2.775545,-0.345484 -3.875,1.5 z" transform="matrix(-0.7583621,0.6518335,-0.6518335,-0.7583621,65.809724,36.224971)" style="fill:url(#radialGradient5908);fill-opacity:1;fill-rule:nonzero;stroke:none;stroke-width:1;marker:none;visibility:visible;display:inline;overflow:visible;filter:url(#filter5934);enable-background:accumulate"/><path id="path5938" d="m 20.875,14 4.375,0 7.3125,-1.6875 0.75,-2.6875 -1.75,0.875 L 30.875,12.125 28.8125,12.25 28,11.3125 27,12.0625 26,12.125 20.875,14 z" style="fill:url(#linearGradient5946);fill-opacity:1;fill-rule:nonzero;stroke:none;stroke-width:1;marker:none;visibility:visible;display:inline;overflow:visible;filter:url(#filter5980);enable-background:accumulate"/><path id="path6064" d="m 33.77813,26.601609 -9.093688,7.733865 c 0.47521,0.304615 1.090367,0.323834 2.12116,-0.504566 l 2.458019,-2.030321 1.99624,2.322484 c 0,0 0.983617,0.473185 1.3154,0.188008 0.331784,-0.285177 0.01173,-1.328717 0.01173,-1.328717 l -1.955501,-2.275086 2.41728,-2.077719 c 0.934569,-0.809575 1.113448,-1.473146 0.729356,-2.027948 z" style="opacity:.34939761;fill:url(#linearGradient6072);fill-opacity:1;fill-rule:nonzero;stroke:none;stroke-width:1;marker:none;visibility:visible;display:inline;overflow:visible;enable-background:accumulate"/><path id="path6084" d="m 23.96875,17.4375 c -0.502063,0 -0.90625,0.404187 -0.90625,0.90625 l 0,3.09375 -3.625,0 c -0.796375,0 -1.4375,0.446 -1.4375,1 0,0.554 0.641125,1 1.4375,1 l 2.625,0 c -0.0064,0.04101 0,0.08288 0,0.125 l 0,11.28125 c 0,0.684466 0.864125,3.90625 1.9375,3.90625 1.073375,0 1.9375,-3.221784 1.9375,-3.90625 l 0,-11.28125 c 0,-0.04212 0.0064,-0.08399 0,-0.125 l 2.6875,0 c 0.796375,0 1.4375,-0.446 1.4375,-1 0,-0.554 -0.641125,-1 -1.4375,-1 l -3.75,0 0,-3.09375 c 0,-0.502062 -0.404187,-0.90625 -0.90625,-0.90625 z" transform="matrix(0.7583621,0.6518335,0.6518335,-0.7583621,-14.564793,32.483851)" style="fill:#000;fill-opacity:1;fill-rule:nonzero;stroke:none;stroke-width:2;marker:none;visibility:visible;display:inline;overflow:visible;filter:url(#filter6060);enable-background:accumulate"/><path id="path6100" d="m 27.310514,31.006697 1.648761,-1.481772 -10.215867,-10.82673 c -0.891742,2.153489 3.959953,7.294601 8.567106,12.308502 z" style="opacity:.34939761;fill:#fff;fill-opacity:1;fill-rule:nonzero;stroke:none;stroke-width:1;marker:none;visibility:visible;display:inline;overflow:visible;enable-background:accumulate"/><path id="path6086" d="m 14.958532,34.331449 c -0.380745,-0.327262 -0.423803,-0.897245 -0.09654,-1.27799 l 2.01661,-2.346183 -2.749063,-2.362896 c -0.603941,-0.519104 -0.799428,-1.27524 -0.438312,-1.695373 0.361115,-0.420133 1.138038,-0.340456 1.741979,0.178648 l 1.9907,1.711063 c 0.02189,-0.03527 0.05402,-0.06285 0.08148,-0.09479 l 7.353496,-8.555273 c 0.446158,-0.519073 3.201544,-2.399086 4.015551,-1.699425 0.814007,0.699662 -0.63074,3.706207 -1.076898,4.22528 l -7.353496,8.555273 c -0.02746,0.03194 -0.0499,0.06786 -0.08148,0.09479 l 2.038098,1.751802 c 0.603941,0.519104 0.799428,1.275241 0.438312,1.695373 -0.361116,0.420133 -1.138038,0.340456 -1.741979,-0.178648 l -2.843858,-2.444376 -2.01661,2.346183 c -0.327261,0.380745 -0.897244,0.423803 -1.27799,0.09654 z" style="fill:url(#radialGradient6092);fill-opacity:1;fill-rule:nonzero;stroke:none;stroke-width:2;marker:none;visibility:visible;display:inline;overflow:visible;enable-background:accumulate"/><path id="path6088" d="M 22.125,31.375 22,35.5 c 1.472909,-1.670788 2.734868,-2.075873 3.875,-1.75 L 26,29.875 c -1.430983,-0.475215 -2.775545,-0.345484 -3.875,1.5 z" transform="matrix(0.7583621,0.6518335,0.6518335,-0.7583621,-14.299629,31.599971)" style="fill:url(#radialGradient6094);fill-opacity:1;fill-rule:nonzero;stroke:none;stroke-width:1;marker:none;visibility:visible;display:inline;overflow:visible;filter:url(#filter5934);enable-background:accumulate"/><path id="path6090" d="m 13.731965,26.601609 9.093688,7.733865 c -0.47521,0.304615 -1.090367,0.323834 -2.12116,-0.504566 l -2.458019,-2.030321 -1.99624,2.322484 c 0,0 -0.983617,0.473185 -1.3154,0.188008 C 14.60305,34.025902 14.9231,32.982362 14.9231,32.982362 l 1.955501,-2.275086 -2.41728,-2.077719 c -0.934569,-0.809575 -1.113448,-1.473146 -0.729356,-2.027948 z" style="opacity:.33132552;fill:url(#linearGradient6096);fill-opacity:1;fill-rule:nonzero;stroke:none;stroke-width:1;marker:none;visibility:visible;display:inline;overflow:visible;enable-background:accumulate"/><path id="path6098" d="M 17.5625,28.4375 19.25,29.875 28.625,18.3125 c -2.252797,-0.598023 -6.704461,4.893121 -11.0625,10.125 z" style="opacity:.34939761;fill:#fff;fill-opacity:1;fill-rule:nonzero;stroke:none;stroke-width:1;marker:none;visibility:visible;display:inline;overflow:visible;enable-background:accumulate"/><rect id="rect6102" width=".792" height="3.014" x="33.749" y="11.231" rx=".397" ry=".397" transform="matrix(0.7123524,0.7018219,-0.6466182,0.7628138,0,-1)" style="fill:#fff;fill-opacity:1;fill-rule:nonzero;stroke:none;stroke-width:1;marker:none;visibility:visible;display:inline;overflow:visible;filter:url(#filter6154);enable-background:accumulate"/><rect id="rect6104" width=".792" height="3.014" x="2.45" y="44.13" rx=".397" ry=".397" transform="matrix(0.8173621,-0.5761242,0.635602,0.7720169,0,-1)" style="fill:#fff;fill-opacity:1;fill-rule:nonzero;stroke:none;stroke-width:1;marker:none;visibility:visible;display:inline;overflow:visible;filter:url(#filter6138);enable-background:accumulate"/></g><g id="g32" transform="translate(303,126)" style="display:inline;enable-background:new"><path id="path122" d="m 40.5,40.9375 c 0,3.003048 -7.695106,5.4375 -17.1875,5.4375 -9.492394,0 -17.1875,-2.434452 -17.1875,-5.4375 0,-3.003048 7.695106,-5.4375 17.1875,-5.4375 9.492394,0 17.1875,2.434452 17.1875,5.4375 z" transform="matrix(0.795269,0,0,0.8249453,-2.9468804,-7.0510243)" style="fill:url(#radialGradient5566);fill-opacity:1;fill-rule:nonzero;stroke:none;stroke-width:1.00000024;marker:none;visibility:visible;display:block;overflow:visible;filter:url(#filter5652)"/><path id="path124" d="M 4.7520348,6.0242338 C 5.9721404,12.08284 6.2185321,18.139935 4.5739412,24.41333 c -0.1457222,0.555867 -0.2479257,1.019984 0.089047,1.326524 0,0 5.4735928,4.86623 10.9989288,4.928057 5.588294,0.06253 11.351824,-4.751187 11.351824,-4.751187 0.471934,-0.414615 0.375837,-0.913849 0.267141,-1.414959 -1.98421,-6.084379 -1.586272,-13.455272 0.08905,-21.5784992 0.158156,-0.7325753 -0.191834,-1.0921457 -0.712374,-1.3265236 0,0 -19.7683952,0 -19.7683952,0 -0.62751,0.085764 -1.048413,0.7627392 -0.7123787,1.2380887 L 7.601533,4.4156049 C 8.005512,4.8576346 7.570823,5.7635104 6.4439245,5.4383522 L 5.7204191,5.2283192 C 5.1861381,5.0514494 4.6518572,5.5267871 4.7520348,6.0242338 z" style="fill:url(#linearGradient5664);fill-opacity:1;fill-rule:nonzero;stroke:url(#linearGradient6256);stroke-width:1;stroke-linecap:round;stroke-linejoin:round;stroke-miterlimit:4;stroke-opacity:1;stroke-dasharray:none;stroke-dashoffset:0;marker:none;visibility:visible;display:inline;overflow:visible;enable-background:accumulate"/><path id="path126" d="m 11,1.2217822 c 0,0 -1,28.2663238 -1,28.2663238 4.74621,2.001972 7.437361,1.96224 11.935766,-0.17657 0,0 -0.02509,-28.186536 -0.02509,-28.186536 0,0 -10.910673,0.096782 -10.910673,0.096782 z" style="fill:url(#linearGradient5868);fill-opacity:1;fill-rule:nonzero;stroke:none;stroke-width:1;marker:none;visibility:visible;display:inline;overflow:visible;enable-background:accumulate"/><path id="path130" d="m 37,6.7499999 c 0,0 -2.375,20.6250001 0.25,27.1250001 0,0 -5.125,4.25 -5.125,4.25 L 37,6.7499999 z" transform="matrix(0.7123746,0,0,0.7132644,-1.1250556,-0.7850839)" style="fill:url(#radialGradient5700);fill-opacity:1;fill-rule:nonzero;stroke:none;stroke-width:1;marker:none;visibility:visible;display:inline;overflow:visible;filter:url(#filter5770);enable-background:accumulate"/><path id="path132" d="M 12.75,25.5 10.375,35.75 C 18.505783,40.753549 28.212016,44.172673 37,35.375 L 34.75,25.75 c -6.999699,2.585742 -14.333635,2.497591 -22,-0.25 z" transform="matrix(0.7123746,0,0,0.7132644,-1.1250556,-0.7850839)" style="opacity:.5;fill:url(#linearGradient5782);fill-opacity:1;fill-rule:nonzero;stroke:none;stroke-width:1;marker:none;visibility:visible;display:inline;overflow:visible;filter:url(#filter5852);enable-background:accumulate"/><path id="path134" d="m 17.031078,14.8125 15.067906,0 1.660061,-6.242444 -1.723244,1.338264 -2.076796,-0.069401 1.805412,0.973581 -0.845909,2 -2.007395,0.02474 -0.934297,-1.024744 -1.022685,1 -1.925226,0 -0.350939,-2.649499 -0.747367,2.69945 -1.906238,-0.04995 -1.041673,-1.16195 -0.915309,1.1425 -2.120992,0.01945 -0.97849,-1.957445 L 18.022008,9.781956 16,9.75675 14.594509,8.746833 z" transform="matrix(0.7123746,0,0,0.7132644,-1.1250556,-0.7850839)" style="fill:#000;fill-opacity:1;fill-rule:nonzero;stroke:none;stroke-width:1;marker:none;visibility:visible;display:inline;overflow:visible;filter:url(#filter6034);enable-background:accumulate"/><path id="path136" d="m 9.99732,10 12.584451,0 1.651618,-5.5250863 -1.439225,1.1190906 -1.734501,-0.058035 1.507849,0.8141332 -0.706491,1.6724513 -1.676539,0.020692 -0.780308,-0.8569171 -0.85413,0.8362254 -1.607913,0 -0.375,-1.9600538 L 16.024849,8.064325 14.432791,8.022555 13.562804,7.0509015 12.798352,8.0062892 11.026937,8.0225538 10.209719,6.385688 11.090096,5.4883351 9.4013488,5.4672573 8.2275067,4.622739 z" style="fill:url(#radialGradient6081);fill-opacity:1;fill-rule:nonzero;stroke:none;stroke-width:1;marker:none;visibility:visible;display:inline;overflow:visible;enable-background:accumulate"/><path id="path138" d="m 23.96875,17.4375 c -0.502063,0 -0.90625,0.404187 -0.90625,0.90625 l 0,3.09375 -3.625,0 c -0.796375,0 -1.4375,0.446 -1.4375,1 0,0.554 0.641125,1 1.4375,1 l 2.625,0 c -0.0064,0.04101 0,0.08288 0,0.125 l 0,11.28125 c 0,0.684466 0.864125,3.90625 1.9375,3.90625 1.073375,0 1.9375,-3.221784 1.9375,-3.90625 l 0,-11.28125 c 0,-0.04212 0.0064,-0.08399 0,-0.125 l 2.6875,0 c 0.796375,0 1.4375,-0.446 1.4375,-1 0,-0.554 -0.641125,-1 -1.4375,-1 l -3.75,0 0,-3.09375 c 0,-0.502062 -0.404187,-0.90625 -0.90625,-0.90625 z" transform="matrix(-0.5402379,0.4649297,-0.4643496,-0.5409127,43.095516,22.384492)" style="fill:#000;fill-opacity:1;fill-rule:nonzero;stroke:none;stroke-width:2;marker:none;visibility:visible;display:inline;overflow:visible;filter:url(#filter6060);enable-background:accumulate"/><path id="path140" d="m 22.06385,23.702318 c 0.271233,-0.233425 0.301907,-0.639973 0.06877,-0.911545 l -1.436582,-1.673449 1.958362,-1.68537 c 0.430233,-0.370258 0.569493,-0.909583 0.312243,-1.209249 -0.257249,-0.299666 -0.81071,-0.242835 -1.240942,0.127423 l -1.418124,1.220441 c -0.01559,-0.02516 -0.03848,-0.04483 -0.05804,-0.06761 l -5.238444,-6.102172 c -0.317831,-0.370236 -2.280698,-1.711183 -2.860576,-1.21214 -0.579878,0.499044 0.449323,2.643506 0.767155,3.013742 l 5.238443,6.102172 c 0.01956,0.02278 0.03555,0.0484 0.05804,0.06761 l -1.451889,1.249498 c -0.430233,0.370259 -0.569493,0.909584 -0.312243,1.20925 0.25725,0.299666 0.81071,0.242835 1.240942,-0.127424 l 2.025892,-1.743486 1.436582,1.673449 c 0.233132,0.271572 0.639173,0.302283 0.910407,0.06886 z" style="fill:url(#radialGradient6077);fill-opacity:1;fill-rule:nonzero;stroke:none;stroke-width:2;marker:none;visibility:visible;display:inline;overflow:visible;enable-background:accumulate"/><path id="path142" d="m 7.2217703,2.5290218 c 0,0 19.5686947,0.1391454 19.5686947,0.1391454" style="fill:none;stroke:url(#linearGradient12518);stroke-width:1;stroke-linecap:round;stroke-linejoin:round;stroke-miterlimit:4;stroke-opacity:1;stroke-dasharray:none;stroke-dashoffset:0;marker:none;visibility:visible;display:inline;overflow:visible;enable-background:accumulate"/><path id="path144" d="M 22.125,31.375 22,35.5 c 1.472909,-1.670788 2.734868,-2.075873 3.875,-1.75 L 26,29.875 c -1.430983,-0.475215 -2.775545,-0.345484 -3.875,1.5 z" transform="matrix(-0.5402379,0.4649297,-0.4643496,-0.5409127,45.756118,25.0529)" style="fill:url(#radialGradient5908);fill-opacity:1;fill-rule:nonzero;stroke:none;stroke-width:1;marker:none;visibility:visible;display:inline;overflow:visible;filter:url(#filter5934);enable-background:accumulate"/><path id="path146" d="m 20.875,14 4.375,0 7.3125,-1.6875 0.75,-2.6875 -1.75,0.875 L 30.875,12.125 28.8125,12.25 28,11.3125 27,12.0625 26,12.125 20.875,14 z" transform="matrix(0.7123746,0,0,0.7132644,-1.1250556,-0.7850839)" style="fill:url(#linearGradient5946);fill-opacity:1;fill-rule:nonzero;stroke:none;stroke-width:1;marker:none;visibility:visible;display:inline;overflow:visible;filter:url(#filter5980);enable-background:accumulate"/><path id="path148" d="m 22.937625,18.188898 -6.478112,5.516291 c 0.338528,0.217271 0.77675,0.230979 1.511061,-0.359889 l 1.75103,-1.448156 1.42207,1.656545 c 0,0 0.700704,0.337506 0.937058,0.1341 0.236354,-0.203407 0.0084,-0.947727 0.0084,-0.947727 l -1.393049,-1.622738 1.722009,-1.481963 c 0.665763,-0.577441 0.793192,-1.050743 0.519574,-1.446463 z" style="opacity:.34939761;fill:url(#linearGradient6072);fill-opacity:1;fill-rule:nonzero;stroke:none;stroke-width:1;marker:none;visibility:visible;display:inline;overflow:visible;enable-background:accumulate"/><path id="path150" d="m 23.96875,17.4375 c -0.502063,0 -0.90625,0.404187 -0.90625,0.90625 l 0,3.09375 -3.625,0 c -0.796375,0 -1.4375,0.446 -1.4375,1 0,0.554 0.641125,1 1.4375,1 l 2.625,0 c -0.0064,0.04101 0,0.08288 0,0.125 l 0,11.28125 c 0,0.684466 0.864125,3.90625 1.9375,3.90625 1.073375,0 1.9375,-3.221784 1.9375,-3.90625 l 0,-11.28125 c 0,-0.04212 0.0064,-0.08399 0,-0.125 l 2.6875,0 c 0.796375,0 1.4375,-0.446 1.4375,-1 0,-0.554 -0.641125,-1 -1.4375,-1 l -3.75,0 0,-3.09375 c 0,-0.502062 -0.404187,-0.90625 -0.90625,-0.90625 z" transform="matrix(0.5402379,0.4649297,0.4643496,-0.5409127,-11.500644,22.384492)" style="fill:#000;fill-opacity:1;fill-rule:nonzero;stroke:none;stroke-width:2;marker:none;visibility:visible;display:inline;overflow:visible;filter:url(#filter6060);enable-background:accumulate"/><path id="path152" d="m 18.33026,21.33089 1.174536,-1.056895 -7.277524,-7.722321 c -0.635255,1.536007 2.820969,5.202979 6.102988,8.779216 z" style="opacity:.34939761;fill:#fff;fill-opacity:1;fill-rule:nonzero;stroke:none;stroke-width:1;marker:none;visibility:visible;display:inline;overflow:visible;enable-background:accumulate"/><path id="path154" d="M 9.531022,23.702318 C 9.259789,23.468893 9.229116,23.062345 9.462249,22.790773 l 1.436582,-1.673449 -1.958363,-1.68537 C 8.510236,19.061696 8.370976,18.522371 8.628226,18.222705 8.885475,17.923039 9.438935,17.97987 9.869167,18.350128 l 1.418124,1.220441 c 0.01559,-0.02516 0.03849,-0.04483 0.05804,-0.06761 l 5.238443,-6.102172 c 0.317832,-0.370236 2.280699,-1.711183 2.860577,-1.21214 0.579877,0.499044 -0.449324,2.643506 -0.767155,3.013742 l -5.238444,6.102172 c -0.01956,0.02278 -0.03555,0.0484 -0.05804,0.06761 l 1.451889,1.249498 c 0.430232,0.370259 0.569492,0.909584 0.312242,1.20925 -0.25725,0.299666 -0.810709,0.242835 -1.240941,-0.127424 l -2.025893,-1.743486 -1.436581,1.673449 c -0.233133,0.271572 -0.639174,0.302283 -0.910408,0.06886 z" style="fill:url(#radialGradient6092);fill-opacity:1;fill-rule:nonzero;stroke:none;stroke-width:2;marker:none;visibility:visible;display:inline;overflow:visible;enable-background:accumulate"/><path id="path156" d="M 22.125,31.375 22,35.5 c 1.472909,-1.670788 2.734868,-2.075873 3.875,-1.75 L 26,29.875 c -1.430983,-0.475215 -2.775545,-0.345484 -3.875,1.5 z" transform="matrix(0.5402379,0.4649297,0.4643496,-0.5409127,-11.311748,21.754052)" style="fill:url(#radialGradient6094);fill-opacity:1;fill-rule:nonzero;stroke:none;stroke-width:1;marker:none;visibility:visible;display:inline;overflow:visible;filter:url(#filter5934);enable-background:accumulate"/><path id="path158" d="m 8.657247,18.188898 6.478112,5.516291 c -0.338527,0.217271 -0.77675,0.230979 -1.51106,-0.359889 l -1.751031,-1.448156 -1.42207,1.656545 c 0,0 -0.700704,0.337506 -0.937058,0.1341 C 9.277786,23.484382 9.50578,22.740062 9.50578,22.740062 L 10.89883,21.117324 9.176821,19.635361 C 8.511059,19.05792 8.38363,18.584618 8.657247,18.188898 z" style="opacity:.33132552;fill:url(#linearGradient6096);fill-opacity:1;fill-rule:nonzero;stroke:none;stroke-width:1;marker:none;visibility:visible;display:inline;overflow:visible;enable-background:accumulate"/><path id="path160" d="m 11.386023,19.498374 1.202132,1.025317 6.678512,-8.24712 c -1.604836,-0.426548 -4.776088,3.490089 -7.880644,7.221803 z" style="opacity:.34939761;fill:#fff;fill-opacity:1;fill-rule:nonzero;stroke:none;stroke-width:1;marker:none;visibility:visible;display:inline;overflow:visible;enable-background:accumulate"/><path style="opacity:.6;fill:none;stroke:url(#linearGradient12506);stroke-width:1;stroke-linecap:round;stroke-linejoin:round;stroke-miterlimit:4;stroke-opacity:1;stroke-dasharray:none;stroke-dashoffset:0;marker:none;visibility:visible;display:inline;overflow:visible;enable-background:accumulate" id="path12502" d="M 7.25,2.5625 8.3125,3.75 C 8.856502,4.345241 8.8151878,5.2354655 8.34375,5.8125 7.8723122,6.3895345 6.9848377,6.6140828 6.15625,6.375 L 5.78125,6.25 C 6.9510235,12.274646 7.152153,18.354009 5.5,24.65625 c -0.057102,0.217821 -0.084169,0.351429 -0.09375,0.4375 0.1474174,0.124906 5.354888,4.538975 10.25,4.59375 4.996548,0.05591 10.6287,-4.452753 10.6875,-4.5 0.03608,-0.0317 0.0325,-0.03357 0.03125,-0.03125 -0.0013,0.0023 0.02921,-0.01182 0.03125,-0.03125 0.0032,-0.0301 -0.0353,-0.159946 -0.0625,-0.3125 C 24.275912,18.471684 24.744957,10.956749 26.4375,2.75 a 0.97236903,0.97236903 0 0 1 0,-0.03125 c 0.04003,-0.1854341 -0.0078,-0.137404 0,-0.125 0.0024,0.00382 -0.05404,-0.023805 -0.0625,-0.03125 l -19.125,0 z"/><rect id="rect162" width=".792" height="3.014" x="33.749" y="11.231" rx=".556" ry=".556" transform="matrix(0.5074617,0.5005846,-0.4606344,0.544088,-1.1250556,-1.4983483)" style="fill:#fff;fill-opacity:1;fill-rule:nonzero;stroke:none;stroke-width:1;marker:none;visibility:visible;display:inline;overflow:visible;filter:url(#filter6154);enable-background:accumulate"/><rect id="rect164" width=".792" height="3.014" x="2.45" y="44.13" rx=".557" ry=".556" transform="matrix(0.582268,-0.4109289,0.4527867,0.5506522,-1.1250556,-1.4983483)" style="fill:#fff;fill-opacity:1;fill-rule:nonzero;stroke:none;stroke-width:1;marker:none;visibility:visible;display:inline;overflow:visible;filter:url(#filter6138);enable-background:accumulate"/></g><g id="g22" transform="translate(303,177)" style="display:inline;enable-background:new"><path id="path167" d="m 40.5,40.9375 c 0,3.003048 -7.695106,5.4375 -17.1875,5.4375 -9.492394,0 -17.1875,-2.434452 -17.1875,-5.4375 0,-3.003048 7.695106,-5.4375 17.1875,-5.4375 9.492394,0 17.1875,2.434452 17.1875,5.4375 z" transform="matrix(0.5434136,0,0,0.44049,-1.4065306,1.1868972)" style="fill:url(#radialGradient5566);fill-opacity:1;fill-rule:nonzero;stroke:none;stroke-width:1.00000024;marker:none;visibility:visible;display:block;overflow:visible;filter:url(#filter5652)"/><path id="path169" d="m 3.5665435,4.4737721 c 0,0 -0.05147,12.1329809 -0.05147,12.1329809 0,0 -0.078164,0.672978 0.1566983,0.87523 0,0 3.8622991,2.989729 7.7133442,3.030522 3.894926,0.04126 7.911988,-2.913825 7.911988,-2.913825 0.328928,-0.27356 0.253108,-0.933578 0.253108,-0.933578 0,0 -0.0049,-14.2373241 -0.0049,-14.2373241 0.110231,-0.4833474 -0.133705,-0.7205891 -0.49651,-0.8752298 0,0 -13.9927741,0 -13.9927741,0 C 4.6187162,1.6091348 4.3253554,2.0557974 4.5595644,2.3694293 L 5.552585,3.4124115 C 5.8341502,3.7040591 5.5311809,4.3017489 4.7457558,4.087212 L 4.2414874,3.9486339 C 3.8691045,3.8319366 3.4967218,4.1455607 3.5665435,4.4737721 z" style="fill:url(#linearGradient5664);fill-opacity:1;fill-rule:nonzero;stroke:url(#linearGradient6256);stroke-width:1;stroke-linecap:round;stroke-linejoin:round;stroke-miterlimit:4;stroke-opacity:1;stroke-dasharray:none;stroke-dashoffset:0;marker:none;visibility:visible;display:inline;overflow:visible;enable-background:accumulate"/><path id="path171" d="m 7.8300388,1.0305956 c 0,0 0.125767,19.2869994 0.125767,19.2869994 C 11,21.237627 12.778756,21.185159 15,20.32892 c 0,0 -0.06738,-19.3630672 -0.06738,-19.3630672 0,0 -7.1025802,0.0647428 -7.1025802,0.0647428 z" style="fill:url(#linearGradient5868);fill-opacity:1;fill-rule:nonzero;stroke:none;stroke-width:1;marker:none;visibility:visible;display:inline;overflow:visible;enable-background:accumulate"/><path id="path173" d="m 5.7469838,2.4862586 0.7000573,0.7540961 c 0.3739455,0.3931026 0.3237433,0.9223249 0,1.3030253 C 6.1232979,4.9240805 5.5281598,5.0467843 4.9620712,4.8898566 L 4.686291,4.8083327 c 0,0 -0.148497,12.0043943 -0.148497,12.0043943 -0.03829,0.140324 -0.05696,0.229969 -0.063642,0.285334 0.1226023,0.09956 3.6324143,2.409767 6.93693,2.445292 3.401952,0.03657 7.015651,-2.40453 7.015651,-2.40453 0.04676,-0.03947 -0.0025,0.0024 0,-0.02038 0.0019,-0.01736 -0.0036,-0.107374 -0.02121,-0.20381 -0.0068,-0.01999 -0.01451,-0.04112 -0.02121,-0.06114 0,0 0.06364,-14.2653255 0.06364,-14.2653255 -1.12e-4,-0.00679 -1.12e-4,-0.013588 0,-0.020381 0.02664,-0.1185744 0.01402,-0.092587 0.02121,-0.081524 -0.283966,0 -12.1605967,0 -12.7221777,0 z" style="opacity:.60240933;fill:none;stroke:url(#linearGradient4904);stroke-width:1;stroke-linecap:round;stroke-linejoin:round;stroke-miterlimit:4;stroke-opacity:1;stroke-dashoffset:0;marker:none;visibility:visible;display:inline;overflow:visible;enable-background:accumulate"/><path id="path175" d="m 37,6.7499999 c 0,0 -2.375,20.6250001 0.25,27.1250001 0,0 -5.125,4.25 -5.125,4.25 L 37,6.7499999 z" transform="matrix(0.4637384,0,0,0.4651847,-0.0630753,0.2201129)" style="fill:url(#radialGradient5700);fill-opacity:1;fill-rule:nonzero;stroke:none;stroke-width:1;marker:none;visibility:visible;display:inline;overflow:visible;filter:url(#filter5770);enable-background:accumulate"/><path id="path177" d="M 12.75,25.5 10.375,35.75 C 18.505783,40.753549 28.212016,44.172673 37,35.375 L 34.75,25.75 c -6.999699,2.585742 -14.333635,2.497591 -22,-0.25 z" transform="matrix(0.4637384,0,0,0.4651847,-0.0630753,0.2201129)" style="opacity:.5;fill:url(#linearGradient5782);fill-opacity:1;fill-rule:nonzero;stroke:none;stroke-width:1;marker:none;visibility:visible;display:inline;overflow:visible;filter:url(#filter5852);enable-background:accumulate"/><path id="path179" d="M 7.1773187,7 15.369488,7 16.44465,3.601578 15.50775,4.2899188 14.378633,4.2542221 15.360205,4.7549868 14.806547,6 12.04197,5.9711939 11.21875,4.8125 10.53125,5.9968864 8,6.0336939 7.3155852,4.7768751 7.8886891,4.2249228 6.789356,4.2119581 6.0252136,3.6925038 z" style="fill:url(#radialGradient4902);fill-opacity:1;fill-rule:nonzero;stroke:none;stroke-width:1;marker:none;visibility:visible;display:inline;overflow:visible;enable-background:accumulate"/><path id="path181" d="m 16.18499,16.704888 c 0.196275,-0.169231 0.218472,-0.463975 0.04977,-0.660863 l -1.03957,-1.213238 1.417152,-1.22188 c 0.311334,-0.268434 0.412108,-0.659441 0.225951,-0.876697 -0.186155,-0.217255 -0.586663,-0.176053 -0.897996,0.09238 l -1.026212,0.88481 c -0.01128,-0.01824 -0.02785,-0.0325 -0.042,-0.04902 L 11.081326,9.2363542 C 10.851331,8.9679359 9.4309191,7.9957596 9.0112957,8.357562 c -0.4196235,0.3618031 0.3251485,1.916522 0.5551448,2.18494 l 3.7907515,4.424028 c 0.01415,0.01652 0.02572,0.03509 0.042,0.04902 l -1.050646,0.905877 c -0.311334,0.268434 -0.412108,0.659441 -0.225951,0.876697 0.186156,0.217255 0.586662,0.176053 0.897995,-0.09238 l 1.466019,-1.264014 1.03957,1.213238 c 0.168703,0.196888 0.462531,0.219153 0.658808,0.04992 z" style="fill:url(#radialGradient6077);fill-opacity:1;fill-rule:nonzero;stroke:none;stroke-width:2;marker:none;visibility:visible;display:inline;overflow:visible;enable-background:accumulate"/><path id="path183" d="m 5.3705038,2.3815435 c 0,0 12.7387402,0.090749 12.7387402,0.090749" style="fill:none;stroke:url(#linearGradient5878);stroke-width:1;stroke-linecap:round;stroke-linejoin:round;stroke-miterlimit:4;stroke-opacity:1;stroke-dasharray:none;stroke-dashoffset:0;marker:none;visibility:visible;display:inline;overflow:visible;enable-background:accumulate"/><path id="path185" d="M 6.861661,16.723194 C 6.6653858,16.553963 6.6431895,16.259219 6.8118941,16.062331 L 7.8514636,14.849093 6.434312,13.627213 C 6.1229785,13.358779 6.0222043,12.967772 6.2083609,12.750516 c 0.1861559,-0.217255 0.5866622,-0.176053 0.8979957,0.09238 l 1.0262126,0.88481 c 0.011283,-0.01824 0.02785,-0.0325 0.042004,-0.04902 L 11.965325,9.25466 c 0.229996,-0.2684183 1.650407,-1.2405946 2.07003,-0.8787922 0.419623,0.3618031 -0.325149,1.9165222 -0.555145,2.1849402 l -3.7907524,4.424028 c -0.014153,0.01652 -0.025722,0.03509 -0.042002,0.04902 l 1.0506464,0.905877 c 0.311334,0.268434 0.412107,0.659441 0.225951,0.876697 -0.186156,0.217255 -0.586662,0.176053 -0.897995,-0.09238 L 8.5600383,15.460033 7.5204695,16.673271 c -0.1687046,0.196888 -0.4625324,0.219153 -0.6588085,0.04992 z" style="fill:url(#radialGradient6092);fill-opacity:1;fill-rule:nonzero;stroke:none;stroke-width:2;marker:none;visibility:visible;display:inline;overflow:visible;enable-background:accumulate"/></g><g id="g16" transform="translate(303,219)" style="display:inline;enable-background:new"><path id="path188" d="M 1.4501944,8.3153952 C 1.4301945,12 6.6423358,13.270218 8.0855379,15.541272 9.434193,13.357116 14.466991,11.849658 14.429374,8.3614662 c 0,0 -0.0039,-6.4363828 -0.0039,-6.4363828 8.36e-4,-0.8235769 -0.329194,-1.40864262 -1.329963,-1.35396509 0,0 -10.3979686,0 -10.3979686,0 -0.7761373,0.0616594 -1.232612,0.79320619 -1.2768061,1.36603939 0,0 0.029487,6.3782375 0.029487,6.3782375 z" style="fill:url(#linearGradient4782);fill-opacity:1;fill-rule:nonzero;stroke:url(#linearGradient4784);stroke-width:.99999994;stroke-linecap:round;stroke-linejoin:round;stroke-miterlimit:4;stroke-opacity:1;stroke-dasharray:none;stroke-dashoffset:0;marker:none;visibility:visible;display:inline;overflow:visible;enable-background:accumulate"/><path id="path190" d="m 4.94308,0.14298321 c 0,0 0.05692,12.20857179 0.05692,12.20857179 1.7879806,1.152501 3,2.471668 3,2.471668 0,0 1.5422891,-1.509156 3.121599,-2.547271 0,0 -0.05806,-12.20604811 -0.05806,-12.20604811 0,0 -6.120456,0.07307932 -6.120456,0.07307932 z" style="fill:url(#linearGradient5868);fill-opacity:1;fill-rule:nonzero;stroke:none;stroke-width:1;marker:none;visibility:visible;display:inline;overflow:visible;enable-background:accumulate"/><path id="path192" d="m 37,6.7499999 c 0,0 -2.375,20.6250001 0.25,27.1250001 0,0 -5.125,4.25 -5.125,4.25 L 37,6.7499999 z" transform="matrix(0.3753596,0,0,0.3148527,-1.4460348,-0.962423)" style="fill:url(#radialGradient5700);fill-opacity:1;fill-rule:nonzero;stroke:none;stroke-width:1;marker:none;visibility:visible;display:inline;overflow:visible;filter:url(#filter5770);enable-background:accumulate"/><path id="path194" d="M 4.1178983,8 12.066837,8 13.110077,4.601578 12.200994,5.2899188 11.105401,5.2542221 12.05783,5.7549868 11.52061,7 9.2153359,6.9711939 8.0029,4.7771314 7.0168026,6.9656364 4.9161534,7.0336939 4.2520591,5.7768751 4.8081473,5.2249228 3.7414542,5.2119581 3,4.6925038 z" style="fill:url(#radialGradient4902);fill-opacity:1;fill-rule:nonzero;stroke:none;stroke-width:1;marker:none;visibility:visible;display:inline;overflow:visible;enable-background:accumulate"/><path style="fill:none;stroke:url(#linearGradient12530);stroke-width:.99999994;stroke-linecap:round;stroke-linejoin:round;stroke-miterlimit:4;stroke-opacity:1;stroke-dasharray:none;stroke-dashoffset:0;marker:none;visibility:visible;display:inline;overflow:visible;enable-background:accumulate" id="path12526" d="m 2.78125,1.5625 c -0.088603,0.00704 -0.1698555,0.027681 -0.25,0.125 C 2.4511055,1.7848191 2.4103801,1.9464668 2.40625,2 L 2.4375,8.3125 c -0.00743,1.3682877 0.9631773,2.305304 2.375,3.3125 1.0968094,0.782465 2.29829,1.554824 3.28125,2.53125 0.9277731,-0.948548 2.053494,-1.70995 3.09375,-2.5 1.352303,-1.027042 2.263607,-2.0195275 2.25,-3.28125 l 0,-6.4375 c 2.76e-4,-0.2723837 -0.07282,-0.3871127 -0.0625,-0.375 0.01032,0.012113 0.07443,-0.016018 -0.21875,0 a 1.0001,1.0001 0 0 1 -0.0625,0 l -10.3125,0 z"/></g></g><g id="layer4" style="display:inline"><path style="opacity:.3;fill:url(#linearGradient4484);fill-opacity:1;fill-rule:nonzero;stroke:none;stroke-width:1;marker:none;visibility:visible;display:inline;overflow:visible;filter:url(#filter4486);enable-background:accumulate" id="path9483-3" d="m 70.907822,181.45171 c 6.468129,21.0328 5.56517,42.06035 -9.752838,63.8388 -1.357281,1.92971 -2.343161,3.54092 0.06788,4.60509 0,0 40.625606,18.8879 82.428436,19.10253 42.27912,0.21709 84.79644,-18.48851 84.79644,-18.48851 3.76238,-1.43936 3.26302,-3.17247 2.66915,-4.91211 -8.25294,-15.82866 -1.13969,-46.09673 10.53636,-74.91099 1.53218,-2.54318 -0.79968,-4.47218 -4.78696,-4.6051 -54.91053,-1.83058 -91.62326,-1.84734 -147.75525,0 -4.802659,0.15806 -8.285862,2.64789 -5.959075,4.29809 l 10.063974,5.48775 c 2.856406,1.53453 -0.848535,4.67933 -9.231424,3.55052 l -5.381509,-0.72913 c -3.964082,-0.61402 -8.226251,1.03615 -7.695183,2.76306 z"/><g id="g4178" clip-path="url(#clipPath4186)"><path style="fill:url(#radialGradient4208);fill-opacity:1;fill-rule:nonzero;stroke:none;stroke-width:1;marker:none;visibility:visible;display:inline;overflow:visible;enable-background:accumulate" id="path9483" d="m 59.38187,76.365264 c 9.23715,46.038756 11.10252,92.066026 -1.3483,139.736936 -1.10323,4.22397 -1.87699,7.75076 0.67415,10.08012 0,0 43.11225,41.34376 84.94333,41.81358 42.3077,0.47519 82.36238,-40.46956 82.36238,-40.46956 3.57289,-3.15062 2.84536,-6.94424 2.02246,-10.75214 -10.33682,-34.64739 -7.20844,-100.90127 0.67414,-163.972889 1.19737,-5.566767 -1.38845,-9.789161 -5.39323,-10.080123 -55.15153,-4.006963 -91.86647,-4.043646 -147.75525,0 -4.78185,0.345975 -7.93726,5.795981 -5.39322,9.408116 L 80.95478,64.14145 c 3.05843,3.358941 -0.23249,10.242602 -8.76399,7.771756 l -5.4775,-1.596019 c -4.04492,-1.344017 -8.08984,2.268028 -7.33142,6.048077 z"/><path style="fill:url(#radialGradient4660);fill-opacity:1;fill-rule:nonzero;stroke:none;stroke-width:1;marker:none;visibility:visible;display:inline;overflow:visible;enable-background:accumulate;opacity:.32489451000000003" id="path9483-9" d="m 59.38187,76.36526 c 9.23715,46.03876 11.10252,92.06603 -1.3483,139.73694 -1.10323,4.22397 -1.87699,7.75076 0.67415,10.08012 0,0 43.11225,41.34376 84.94333,41.81358 42.3077,0.47519 82.36238,-40.46956 82.36238,-40.46956 3.57289,-3.15062 2.84536,-6.94424 2.02246,-10.75214 -10.33682,-34.64739 -7.20844,-100.90127 0.67414,-163.972893 1.19737,-5.566767 -1.38845,-9.789161 -5.39323,-10.080123 -55.15153,-4.006963 -91.86647,-4.043646 -147.75525,0 -4.78185,0.345975 -7.93726,5.795981 -5.39322,9.408116 l 10.78645,12.012146 c 3.05843,3.358941 -0.23249,10.242602 -8.76399,7.771756 l -5.4775,-1.596019 c -4.04492,-1.344017 -8.08984,2.268028 -7.33142,6.048077 z"/><path style="fill:url(#linearGradient4117);fill-opacity:1;fill-rule:nonzero;stroke:none;stroke-width:1;marker:none;visibility:visible;display:inline;overflow:visible;enable-background:accumulate" id="path9485" d="m 102,41.187536 c 7.08299,74.866684 5.35143,140.299334 0.0442,215.166014 28.65348,14.85297 53.7451,16.02069 83.95581,0.28727 -9.1676,-73.90908 -6.75434,-140.21262 0,-215.89082 -28.85497,-1.169498 -57.125,-1 -84,0.437536 z"/><path id="path5774-3" d="m 84.909309,173.26998 -12.578274,54.28518 c 43.061545,26.49938 94.466915,44.60743 141.009065,-1.98605 l -11.91627,-50.9751 c -37.0712,13.69438 -75.9126,13.22753 -116.514521,-1.32403 z" transform="matrix(1.1008015,0,0,1,-16.898034,0)" style="opacity:.6751055;fill:url(#linearGradient4271);fill-opacity:1;fill-rule:nonzero;stroke:none;stroke-width:1;marker:none;visibility:visible;display:inline;overflow:visible;filter:url(#filter3903);enable-background:accumulate"/><path style="fill:url(#radialGradient4206);fill-opacity:1;fill-rule:nonzero;stroke:none;stroke-width:1;marker:none;visibility:visible;display:inline;overflow:visible;enable-background:accumulate;filter:url(#filter4578);opacity:.80059071" id="path9489" d="m 213.33329,64.000004 c 0,0 -12.66667,109.999996 1.33333,144.666666 0,0 -27.33333,22.66667 -27.33333,22.66667 l 26,-167.333336 z"/><path id="path10478" d="m 227.6234,48.793373 c -0.79663,-2.407048 -1.47541,-4.87141 -5.3066,-5.072185 -55.21541,-3.516909 -89.83532,-3.737904 -145.755245,0 -3.619472,0.234876 -5.377456,2.615717 -6.080117,5.093914 C 75,41 110.36668,45.028718 148,45 c 38.14203,-0.02911 75,-4 79.6234,3.793373 z" style="opacity:1;fill:url(#linearGradient4056);fill-opacity:1;fill-rule:nonzero;stroke:none;stroke-width:1;marker:none;visibility:visible;display:inline;overflow:visible;filter:url(#filter10529);enable-background:accumulate"/><path id="rect10502" d="m 67,71 c 3.366741,1.209255 15.672569,5.920874 16,-4 1.520321,17.944707 -23.164334,-3.74116 -22,12 -2.757729,-6.272205 2,-9.5 6,-8 z" style="opacity:.29361704;fill:#fff;fill-opacity:1;fill-rule:nonzero;stroke:none;stroke-width:1.00199997;marker:none;visibility:visible;display:inline;overflow:visible;filter:url(#filter10674);enable-background:accumulate"/><path style="fill:none;stroke:url(#radialGradient4438);stroke-width:1;marker:none;visibility:visible;display:inline;overflow:visible;filter:url(#filter4392-9);enable-background:accumulate;fill-opacity:1" id="path4382" d="m 149.71875,41.09375 c -23.01735,-0.0046 -46.14012,1.011019 -74.0625,3.03125 -1.883279,0.136258 -3.458679,1.30213 -4.3125,2.78125 -0.853821,1.47912 -0.953322,3.097053 -0.03125,4.40625 L 82,63.21875 c 2.020135,2.218627 1.909723,5.598061 0,7.90625 -1.909723,2.308189 -5.572205,3.470707 -10.21875,2.125 L 66.3125,71.65625 a 1.4065135,1.4065135 0 0 1 -0.03125,0 c -3.059472,-1.016579 -6.065239,1.77604 -5.53125,4.4375 9.265499,46.18006 11.171682,92.42546 -1.34375,140.34375 -0.547302,2.09547 -0.992226,3.95257 -1,5.40625 -0.0078,1.45368 0.287817,2.43396 1.25,3.3125 a 1.4065135,1.4065135 0 0 1 0.03125,0.0313 c 0,0 10.70357,10.24299 26.59375,20.5625 15.89018,10.31951 36.94852,20.61398 57.40625,20.84375 C 185.07805,267.05864 225,226.5625 225,226.5625 a 1.4065135,1.4065135 0 0 1 0.0625,-0.0937 c 1.54145,-1.35927 2.04905,-2.65359 2.1875,-4.1875 0.13845,-1.53391 -0.1848,-3.29512 -0.59375,-5.1875 C 216.18788,181.87893 219.42708,115.71937 227.3125,52.625 a 1.4065135,1.4065135 0 0 1 0.0313,-0.09375 c 0.53928,-2.507187 0.20869,-4.626058 -0.59375,-6.0625 -0.80244,-1.436442 -1.99889,-2.232418 -3.53125,-2.34375 -27.55401,-2.001901 -50.48265,-3.026673 -73.5,-3.03125 z" transform="translate(3.5298448e-7,4.0977818e-6)"/><path style="fill:none;stroke:url(#linearGradient4552);stroke-width:1;marker:none;visibility:visible;display:inline;overflow:visible;filter:url(#filter4198);enable-background:accumulate;fill-opacity:1" id="path9483-2-9" d="m 59.38187,75.36526 c 9.23715,46.03876 11.10252,92.06603 -1.3483,139.73694 -1.10323,4.22397 -1.87699,7.75076 0.67415,10.08012 0,0 43.11225,43.34376 84.94333,43.81358 42.3077,0.47519 82.36238,-42.46956 82.36238,-42.46956 3.57289,-3.15062 2.84536,-6.94424 2.02246,-10.75214 -10.33682,-34.64739 -7.20844,-100.90127 0.67414,-163.972893 1.19737,-5.566767 -1.38845,-9.789161 -5.39323,-10.080123 -55.15153,-4.006963 -91.86647,-4.043646 -147.75525,0 -4.78185,0.345975 -7.93726,5.795981 -5.39322,9.408116 l 10.78645,12.012146 c 3.05843,3.358941 -0.23249,10.242602 -8.76399,7.771756 l -5.4775,-1.596019 c -4.04492,-1.344017 -8.08984,2.268028 -7.33142,6.048077 z"/></g><g id="g4122"><path id="path10762" d="m 144.625,94.59375 -10.15625,-0.25 -5.5625,-6.21875 -4.875,6.09375 -11.3125,0.125 -5.21875,-10.4375 5.625,-5.75 -10.78125,-0.125 -7.5,-5.375 13,32.34375 80.34375,0 8.875,-33.28125 -9.21875,7.125 -11.0625,-0.375 9.625,5.1875 -4.5,10.6875 -10.71875,0.125 L 166.21875,89 160.75,94.34375 l -10.25,0 -3.375,-16.625 z" style="opacity:.46413502;fill:#000;fill-opacity:1;fill-rule:nonzero;stroke:none;stroke-width:1;marker:none;visibility:visible;display:inline;overflow:visible;filter:url(#filter10785);enable-background:accumulate"/><path style="fill:url(#radialGradient4148);fill-opacity:1;fill-rule:nonzero;stroke:none;stroke-width:1;marker:none;visibility:visible;display:inline;overflow:visible;enable-background:accumulate" id="path9495" d="m 106.83237,103 80.36217,0 8.85366,-33.29303 -9.19064,7.137408 -11.07624,-0.370139 9.62886,5.192432 -4.51151,10.666667 -10.70611,0.131968 -4.98292,-5.465301 -5.45432,5.333333 -8.76787,0 -3.875,-19.375 -4.10763,19.641405 -9.54161,-0.266405 -5.55558,-6.197067 -4.88165,6.093334 -11.31196,0.103733 -5.21861,-10.439707 5.62192,-5.723194 -10.78404,-0.134432 -7.495952,-5.386224 z"/><path style="fill:url(#linearGradient4150);fill-opacity:1;fill-rule:nonzero;stroke:none;stroke-width:1;marker:none;visibility:visible;display:inline;overflow:visible;filter:url(#filter12285);enable-background:accumulate" id="path9505" d="m 20.875,14 4.375,0 7.3125,-1.6875 0.75,-2.6875 -1.75,0.875 L 30.875,12.125 28.8125,12.25 28,11.3125 27,12.0625 26,12.125 20.875,14 z" transform="matrix(5.3333333,0,0,5.3333333,15.999957,28.000005)"/><path id="path10541" d="m 196.0625,69.71875 -9.21875,7.125 -11.0625,-0.375 1.90625,1.03125 10.15625,0.34375 7.625,-5.90625 z m -102.21875,0.9375 13,32.34375 0.59375,0 -12.59375,-31.34375 7.5,5.375 8.8125,0.09375 0.96875,-0.96875 -10.78125,-0.125 z m 49.28125,21.9375 -9.5625,-0.25 0.90625,1 9.65625,0.25 2.95527,-19.814772 z m 42.125,-10.5625 -4.34375,10.3125 -10.625,0.125 0.90625,1 10.71875,-0.125 4.5,-10.6875 z m -57.34375,4.09375 -4.875,6.09375 -10.8125,0.125 0.5,1 11.3125,-0.125 4.8125,-6.03125 z m 37.3125,0.875 -5.46875,5.34375 -9.25,0 0,1 10.25,0 5.40625,-5.28125 z" style="fill:url(#linearGradient4152);fill-opacity:1;fill-rule:nonzero;stroke:none;stroke-width:1;marker:none;visibility:visible;display:inline;overflow:visible;filter:url(#filter10574);enable-background:accumulate"/><path id="path12434" d="m 119.09375,126.15625 c -0.82173,0.0799 -1.52118,0.34449 -2.0625,0.8125 -4.33057,3.74406 3.42499,19.76975 5.8125,22.53125 l 8.5,9.8125 -19.1875,22.1875 -0.3125,1.125 c -3.50584,-2.61435 -6.77695,-4.78686 -9.5625,-6.375 -0.14956,-1.50613 -0.89214,-3.01708 -2.1875,-4.125 -2.516946,-2.15275 -6.151647,-2.02595 -8.125,0.28125 -1.973353,2.3072 -1.548198,5.941 0.96875,8.09375 1.293323,1.10618 2.897258,1.61502 4.40625,1.53125 2.70551,3.38646 6.60195,7.46132 11.25,11.71875 l -1.75,2.0625 -8.875,10.21875 c -0.267031,0.30886 -0.480329,0.65211 -0.65625,1 -0.764061,1.28955 -0.738131,2.90043 -0.03125,4.28125 0.0043,0.009 -0.0044,0.0223 0,0.0313 0.214591,0.41333 0.50473,0.80104 0.84375,1.15625 0.112459,0.11896 0.217151,0.2343 0.34375,0.34375 0.01126,0.01 0.01989,0.0215 0.03125,0.0313 0.04715,0.0403 0.108152,0.0554 0.15625,0.0937 0.103637,0.0819 0.204421,0.17786 0.3125,0.25 1.72744,1.17068 3.91099,1.15856 5.40625,-0.0313 0.33711,-0.23113 0.62581,-0.51937 0.90625,-0.84375 l 10.625,-12.25 c 5.31322,4.3137 10.34746,7.79786 14.375,10.09375 0.14956,1.50613 0.89214,3.01708 2.1875,4.125 2.51695,2.15275 6.15164,2.02595 8.125,-0.28125 1.97335,-2.3072 1.5482,-5.941 -0.96875,-8.09375 -1.29536,-1.10792 -2.89514,-1.61701 -4.40625,-1.53125 -2.12446,-2.65917 -4.99641,-5.73436 -8.375,-9 L 127.78125,195 145,175.09375 162.1875,195 l 0.9375,0.40625 c -3.37996,3.26676 -6.24988,6.34 -8.375,9 -1.51111,-0.0858 -3.11089,0.42333 -4.40625,1.53125 -2.51695,2.15275 -2.9421,5.78655 -0.96875,8.09375 1.97335,2.3072 5.60805,2.434 8.125,0.28125 1.29536,-1.10792 2.03794,-2.61887 2.1875,-4.125 4.02754,-2.29589 9.06178,-5.78005 14.375,-10.09375 l 10.59375,12.25 c 0.26071,0.30156 0.56474,0.56024 0.875,0.78125 1.49588,1.23184 3.72077,1.27836 5.46875,0.0937 0.031,-0.021 0.0631,-0.0407 0.0937,-0.0625 0.12251,-0.086 0.25861,-0.18236 0.375,-0.28125 0.0114,-0.01 0.02,-0.0215 0.0313,-0.0313 0.1266,-0.10945 0.23129,-0.22479 0.34375,-0.34375 1.28674,-1.34818 1.67243,-3.20647 1.09375,-4.78125 -0.0851,-0.23172 -0.15325,-0.47147 -0.28125,-0.6875 -0.17592,-0.34789 -0.42047,-0.69114 -0.6875,-1 l -8.34375,-9.65625 -2.25,-2.625 c 4.64805,-4.25743 8.51325,-8.33229 11.21875,-11.71875 1.51803,0.0923 3.10421,-0.41762 4.40625,-1.53125 2.51694,-2.15275 2.97335,-5.78655 1,-8.09375 -1.97335,-2.3072 -5.60805,-2.434 -8.125,-0.28125 -1.29536,1.10792 -2.03794,2.61887 -2.1875,4.125 -2.78284,1.58659 -6.06054,3.76406 -9.5625,6.375 l -0.3125,-1.125 -19.1875,-22.1875 8.5,-9.8125 c 2.38751,-2.7615 10.14306,-18.78719 5.8125,-22.53125 -4.33056,-3.74406 -19.05,6.23851 -21.4375,9 L 145,143.5 l -6.53125,-7.53125 c -2.08906,-2.4163 -13.62289,-10.37193 -19.375,-9.8125 z" style="opacity:.5443038;fill:#000;fill-opacity:1;fill-rule:nonzero;stroke:none;stroke-width:2;marker:none;visibility:visible;display:inline;overflow:visible;filter:url(#filter12491);enable-background:accumulate"/><g id="g12198" transform="translate(331,0)" style="display:inline;enable-background:new"><g id="g11921" transform="matrix(-0.7599475,0.6499845,0.6499845,0.7599475,-449.76099,185.86486)"><path id="path11923" d="m -218.77387,219.99482 c -2.67763,-0.0143 -4.82179,-2.18138 -4.80752,-4.85902 l 0.0879,-16.49976 -5.27289,-11.36158 0.32042,-60.16581 c 0.0195,-3.65043 4.71957,-20.8085 10.44415,-20.77801 5.72459,0.0305 10.24168,17.23764 10.22223,20.88808 l -0.32043,60.1658 -5.72695,11.303 -0.0879,16.49976 c -0.0143,2.67763 -2.18137,4.82179 -4.859,4.80754 z" style="fill:url(#radialGradient4154);fill-opacity:1;fill-rule:nonzero;stroke:none;stroke-width:2;marker:none;visibility:visible;display:inline;overflow:visible;enable-background:accumulate"/><path id="path11925" d="m -214,198 0,17.62478 c 0,2.42387 -2.1185,4.37522 -4.75,4.37522 -2.6315,0 -4.75,-1.95135 -4.75,-4.37522 l 0,-17.62478 9.5,0 z" mask="url(#mask11898)" style="opacity:.43829789;fill:url(#linearGradient4156);fill-opacity:1;fill-rule:nonzero;stroke:none;stroke-width:1.00199997;marker:none;visibility:visible;display:inline;overflow:visible;enable-background:accumulate"/><path style="fill:url(#radialGradient4158);fill-opacity:1;fill-rule:nonzero;stroke:none;stroke-width:1.00199997;marker:none;visibility:visible;display:inline;overflow:visible;enable-background:accumulate" id="path11927" d="m -238,193.5 c 0,3.03757 -2.68629,5.5 -6,5.5 -3.31371,0 -6,-2.46243 -6,-5.5 0,-3.03757 2.68629,-5.5 6,-5.5 3.31371,0 6,2.46243 6,5.5 z" transform="matrix(5,0,0,1,1002,0)"/><path style="fill:url(#radialGradient4160);fill-opacity:1;fill-rule:nonzero;stroke:none;stroke-width:1.00199997;marker:none;visibility:visible;display:inline;overflow:visible;enable-background:accumulate" id="path11929" d="m -238,193.5 c 0,3.03757 -2.68629,5.5 -6,5.5 -3.31371,0 -6,-2.46243 -6,-5.5 0,-3.03757 2.68629,-5.5 6,-5.5 3.31371,0 6,2.46243 6,5.5 z"/><path id="path11931" d="m -238,193.5 c 0,3.03757 -2.68629,5.5 -6,5.5 -3.31371,0 -6,-2.46243 -6,-5.5 0,-3.03757 2.68629,-5.5 6,-5.5 3.31371,0 6,2.46243 6,5.5 z" transform="translate(52,0)" style="fill:url(#radialGradient4162);fill-opacity:1;fill-rule:nonzero;stroke:none;stroke-width:1.00199997;marker:none;visibility:visible;display:inline;overflow:visible;enable-background:accumulate"/></g><path style="opacity:.34939761;fill:#fff;fill-opacity:1;fill-rule:nonzero;stroke:none;stroke-width:1;marker:none;visibility:visible;display:inline;overflow:visible;enable-background:accumulate" id="path11943" d="m -169.34397,193.36905 8.79339,-7.90278 -54.48462,-57.74256 c -4.75596,11.48528 21.11975,38.90454 45.69123,65.64534 z"/><path style="opacity:.5;fill:#fff;fill-opacity:1;fill-rule:nonzero;stroke:none;stroke-width:2;marker:none;visibility:visible;display:inline;overflow:visible;filter:url(#filter12175);enable-background:accumulate" id="path12144" d="m -211.90625,124.125 c -0.34664,-0.0178 -0.68543,6.6e-4 -1,0.0313 -0.82173,0.0799 -1.52118,0.34449 -2.0625,0.8125 -4.33057,3.74406 3.42499,19.76975 5.8125,22.53125 l 39.34375,45.5 0.90625,0.40625 c -0.84422,0.81769 -1.63107,1.61469 -2.40625,2.40625 -0.41981,0.42868 -0.85184,0.86204 -1.25,1.28125 -0.32524,0.34022 -0.65848,0.69812 -0.96875,1.03125 -0.70194,0.75939 -1.37984,1.50166 -2,2.21875 -0.61303,0.70886 -1.1917,1.40279 -1.71875,2.0625 -1.51111,-0.0858 -3.11089,0.42333 -4.40625,1.53125 -2.51695,2.15275 -2.9421,5.78655 -0.96875,8.09375 0.71089,0.83116 1.64408,1.36441 2.65625,1.625 -0.23425,-0.1906 -0.45393,-0.38846 -0.65625,-0.625 -0.12333,-0.1442 -0.23908,-0.28362 -0.34375,-0.4375 -0.10467,-0.15388 -0.19509,-0.33781 -0.28125,-0.5 -0.17231,-0.32437 -0.30709,-0.65062 -0.40625,-1 -0.0496,-0.17469 -0.0935,-0.35237 -0.125,-0.53125 -0.34666,-1.96772 0.3946,-4.14498 2.125,-5.625 0.48576,-0.41547 1.01185,-0.75274 1.5625,-1 0.18355,-0.0824 0.37481,-0.15499 0.5625,-0.21875 0.18769,-0.0638 0.37221,-0.11113 0.5625,-0.15625 0.19029,-0.0451 0.37114,-0.0673 0.5625,-0.0937 0.38272,-0.053 0.77847,-0.0839 1.15625,-0.0625 0.53128,-0.665 1.09804,-1.34928 1.71875,-2.0625 0.62071,-0.71322 1.29719,-1.46417 2,-2.21875 0.31027,-0.33313 0.64351,-0.69103 0.96875,-1.03125 0.39816,-0.41921 0.83019,-0.85257 1.25,-1.28125 0.77252,-0.78394 1.56716,-1.59502 2.40625,-2.40625 2.1419,-2.07459 4.48427,-4.22329 7,-6.375 2.7478,-2.3502 5.44862,-4.48679 8.03125,-6.40625 0.87549,-0.65274 1.75052,-1.27891 2.59375,-1.875 0.84323,-0.59609 1.66624,-1.15297 2.46875,-1.6875 0.68389,-0.45552 1.32012,-0.87375 1.96875,-1.28125 0.22124,-0.13899 0.43952,-0.27308 0.65625,-0.40625 0.64697,-0.39718 1.27096,-0.78062 1.875,-1.125 0.11217,-1.1296 0.55016,-2.25579 1.3125,-3.21875 0.12706,-0.16049 0.26168,-0.31846 0.40625,-0.46875 0.14457,-0.15029 0.30683,-0.29901 0.46875,-0.4375 0.15458,-0.13221 0.30649,-0.26021 0.46875,-0.375 0.0487,-0.0345 0.10692,-0.0608 0.15625,-0.0937 0.0395,-0.0263 0.0851,-0.0372 0.125,-0.0625 0.17488,-0.11165 0.35023,-0.21998 0.53125,-0.3125 0.22387,-0.11334 0.45652,-0.22823 0.6875,-0.3125 0.0221,-0.008 0.0403,-0.0234 0.0625,-0.0313 0.0889,-0.0314 0.19166,-0.0354 0.28125,-0.0625 0.0959,-0.0288 0.18469,-0.0699 0.28125,-0.0937 0.0215,-0.005 0.0409,-0.0261 0.0625,-0.0313 0.11269,-0.0265 0.23054,-0.0426 0.34375,-0.0625 0.0509,-0.009 0.10522,-0.0234 0.15625,-0.0313 0.0717,-0.0107 0.14705,-0.0231 0.21875,-0.0313 0.0214,-0.002 0.041,0.002 0.0625,0 0.21628,-0.0222 0.44112,-0.0328 0.65625,-0.0313 0.0512,4.2e-4 0.10513,-0.002 0.15625,0 0.41686,0.0143 0.82002,0.0848 1.21875,0.1875 -0.22681,-0.18455 -0.46798,-0.3571 -0.71875,-0.5 -0.0414,-0.0234 -0.083,-0.0403 -0.125,-0.0625 -0.21426,-0.11485 -0.42894,-0.19685 -0.65625,-0.28125 -0.0824,-0.0302 -0.16622,-0.0676 -0.25,-0.0937 -0.08,-0.0252 -0.16884,-0.041 -0.25,-0.0625 -0.19402,-0.0508 -0.39469,-0.0956 -0.59375,-0.125 -0.13438,-0.0203 -0.27006,-0.0209 -0.40625,-0.0313 -0.0731,-0.005 -0.14532,-0.0287 -0.21875,-0.0313 -0.17382,-0.006 -0.35576,-0.009 -0.53125,0 -0.0103,5.2e-4 -0.021,-6.2e-4 -0.0313,0 -0.32359,0.0194 -0.6484,0.0514 -0.96875,0.125 -0.31379,0.073 -0.6317,0.18853 -0.9375,0.3125 -0.31122,0.1277 -0.6413,0.28711 -0.9375,0.46875 -0.29144,0.1786 -0.57497,0.39511 -0.84375,0.625 -1.29536,1.10792 -2.03794,2.61887 -2.1875,4.125 -0.60404,0.34438 -1.22803,0.72782 -1.875,1.125 -0.24337,0.14951 -0.50088,0.31191 -0.75,0.46875 -0.41363,0.26018 -0.82188,0.50168 -1.25,0.78125 -0.0451,0.0295 -0.0797,0.0641 -0.125,0.0937 -0.64466,0.42247 -1.29511,0.84831 -1.96875,1.3125 -0.0756,0.0521 -0.14285,0.10361 -0.21875,0.15625 -0.64965,0.4499 -1.3277,0.92007 -2,1.40625 -0.0976,0.0708 -0.18326,0.14729 -0.28125,0.21875 -2.90354,2.11187 -5.98849,4.53608 -9.125,7.21875 -2.39038,2.0445 -4.63235,4.08469 -6.6875,6.0625 L -207.15625,148.5 c -2.38751,-2.7615 -10.14307,-18.78719 -5.8125,-22.53125 0.54132,-0.46801 1.24077,-0.73258 2.0625,-0.8125 2.03316,-0.19774 4.78831,0.65946 7.59375,1.96875 -3.02294,-1.60825 -6.16727,-2.87556 -8.59375,-3 z m 55.96875,74.96875 c -0.2325,0.18876 -0.45613,0.34569 -0.6875,0.53125 l 9.28125,10.71875 c 0.26071,0.30156 0.56474,0.56024 0.875,0.78125 0.51924,0.42759 1.13677,0.70371 1.78125,0.84375 -0.23729,-0.18488 -0.45383,-0.39086 -0.65625,-0.625 l -10.59375,-12.25 z"/><g id="g11904" transform="matrix(0.7599475,0.6499845,-0.6499845,0.7599475,75.72346,185.86486)"><path style="fill:url(#radialGradient4164);fill-opacity:1;fill-rule:nonzero;stroke:none;stroke-width:2;marker:none;visibility:visible;display:inline;overflow:visible;enable-background:accumulate" id="path10322" d="m -218.77387,219.99482 c -2.67763,-0.0143 -4.82179,-2.18138 -4.80752,-4.85902 l 0.0879,-16.49976 -5.27289,-11.36158 0.32042,-60.16581 c 0.0195,-3.65043 4.71957,-20.8085 10.44415,-20.77801 5.72459,0.0305 10.24168,17.23764 10.22223,20.88808 l -0.32043,60.1658 -5.72695,11.303 -0.0879,16.49976 c -0.0143,2.67763 -2.18137,4.82179 -4.859,4.80754 z"/><path style="opacity:.43829789;fill:url(#linearGradient4166);fill-opacity:1;fill-rule:nonzero;stroke:none;stroke-width:1.00199997;marker:none;visibility:visible;display:inline;overflow:visible;enable-background:accumulate" id="path11888" d="m -214,198 0,17.62478 c 0,2.42387 -2.1185,4.37522 -4.75,4.37522 -2.6315,0 -4.75,-1.95135 -4.75,-4.37522 l 0,-17.62478 9.5,0 z" mask="url(#mask11898)"/><path id="path10337" d="m -238,193.5 c 0,3.03757 -2.68629,5.5 -6,5.5 -3.31371,0 -6,-2.46243 -6,-5.5 0,-3.03757 2.68629,-5.5 6,-5.5 3.31371,0 6,2.46243 6,5.5 z" transform="matrix(5,0,0,1,1002,0)" style="fill:url(#radialGradient4168);fill-opacity:1;fill-rule:nonzero;stroke:none;stroke-width:1.00199997;marker:none;visibility:visible;display:inline;overflow:visible;enable-background:accumulate"/><path id="path10333" d="m -238,193.5 c 0,3.03757 -2.68629,5.5 -6,5.5 -3.31371,0 -6,-2.46243 -6,-5.5 0,-3.03757 2.68629,-5.5 6,-5.5 3.31371,0 6,2.46243 6,5.5 z" style="fill:url(#radialGradient4170);fill-opacity:1;fill-rule:nonzero;stroke:none;stroke-width:1.00199997;marker:none;visibility:visible;display:inline;overflow:visible;enable-background:accumulate"/><path style="fill:url(#radialGradient4172);fill-opacity:1;fill-rule:nonzero;stroke:none;stroke-width:1.00199997;marker:none;visibility:visible;display:inline;overflow:visible;enable-background:accumulate" id="path10351" d="m -238,193.5 c 0,3.03757 -2.68629,5.5 -6,5.5 -3.31371,0 -6,-2.46243 -6,-5.5 0,-3.03757 2.68629,-5.5 6,-5.5 3.31371,0 6,2.46243 6,5.5 z" transform="translate(52,0)"/></g><path style="opacity:.34939761;fill:#fff;fill-opacity:1;fill-rule:nonzero;stroke:none;stroke-width:1;marker:none;visibility:visible;display:inline;overflow:visible;enable-background:accumulate" id="path11945" d="m -220.33338,180.66667 9,7.66667 50,-61.66667 c -12.01491,-3.18945 -35.75712,26.09665 -59,54 z"/><path style="fill:url(#radialGradient4174);fill-opacity:1;fill-rule:nonzero;stroke:none;stroke-width:1;marker:none;visibility:visible;display:inline;overflow:visible;filter:url(#filter5934);enable-background:accumulate" id="path12097" d="M 22.125,31.375 22,35.5 c 1.472909,-1.670788 2.734868,-2.075873 3.875,-1.75 L 26,29.875 c -1.430983,-0.475215 -2.775545,-0.345484 -3.875,1.5 z" transform="matrix(-4.0445978,3.4764453,-3.4764453,-4.0445978,35.98515,221.19985)"/><path style="fill:url(#radialGradient4176);fill-opacity:1;fill-rule:nonzero;stroke:none;stroke-width:1;marker:none;visibility:visible;display:inline;overflow:visible;filter:url(#filter5934);enable-background:accumulate" id="path12099" d="M 22.125,31.375 22,35.5 c 1.472909,-1.670788 2.734868,-2.075873 3.875,-1.75 L 26,29.875 c -1.430983,-0.475215 -2.775545,-0.345484 -3.875,1.5 z" transform="matrix(4.0445978,3.4764453,3.4764453,-4.0445978,-391.26473,199.53318)"/><path style="opacity:.5;fill:#fff;fill-opacity:1;fill-rule:nonzero;stroke:none;stroke-width:2;marker:none;visibility:visible;display:inline;overflow:visible;filter:url(#filter12138);enable-background:accumulate" id="path12107" d="m -161.75,124.15625 c -5.92622,0.0291 -16.73555,7.48249 -18.75,9.8125 l -39.34375,45.53125 -0.21875,0.75 c 0.62629,0.44932 1.26259,0.89501 1.90625,1.375 l 0.3125,-1.125 39.34375,-45.53125 c 2.01445,-2.33001 12.82378,-9.78336 18.75,-9.8125 0.33379,-0.002 0.63924,0.0169 0.9375,0.0625 -0.0799,-0.0884 -0.15978,-0.172 -0.25,-0.25 -0.67665,-0.58501 -1.59005,-0.8179 -2.6875,-0.8125 z m -74.4375,44.4375 c -1.46996,0.051 -2.85708,0.6589 -3.84375,1.8125 -1.97335,2.3072 -1.5482,5.941 0.96875,8.09375 0.718,0.6141 1.53493,1.03454 2.375,1.28125 -0.12637,-0.0932 -0.25375,-0.17755 -0.375,-0.28125 -2.51695,-2.15275 -2.9421,-5.78655 -0.96875,-8.09375 1.41402,-1.65325 3.68365,-2.18482 5.78125,-1.5625 -1.1863,-0.88127 -2.60348,-1.29629 -3.9375,-1.25 z m 2.3125,12.375 c 2.65577,3.19622 6.22805,6.89693 10.46875,10.78125 l -1.75,2.0625 -8.875,10.21875 c -0.26703,0.30886 -0.48033,0.65211 -0.65625,1 -0.128,0.21603 -0.1961,0.45578 -0.28125,0.6875 -0.42314,1.15149 -0.33846,2.44425 0.25,3.59375 0.004,0.009 -0.004,0.0223 0,0.0313 0.0106,0.0204 0.0203,0.0422 0.0313,0.0625 0.20991,0.39086 0.49023,0.75609 0.8125,1.09375 0.11246,0.11896 0.21715,0.2343 0.34375,0.34375 0.0113,0.01 0.0199,0.0215 0.0313,0.0313 0.0471,0.0403 0.10815,0.0554 0.15625,0.0937 0.10364,0.0819 0.20442,0.17786 0.3125,0.25 0.50109,0.33959 1.04586,0.55269 1.59375,0.6875 -0.0206,-0.0108 -0.0445,-0.0158 -0.0625,-0.0313 -0.0114,-0.01 -0.02,-0.0215 -0.0313,-0.0313 -0.1266,-0.10945 -0.23129,-0.22479 -0.34375,-0.34375 -0.32227,-0.33766 -0.60259,-0.70289 -0.8125,-1.09375 -0.0109,-0.0203 -0.0206,-0.0421 -0.0313,-0.0625 -0.004,-0.009 0.004,-0.0223 0,-0.0313 -0.58846,-1.1495 -0.67314,-2.44226 -0.25,-3.59375 0.0851,-0.23172 0.15325,-0.47147 0.28125,-0.6875 0.17592,-0.34789 0.38922,-0.69114 0.65625,-1 l 8.875,-10.21875 1.75,-2.0625 c -4.64805,-4.25743 -8.5445,-8.33229 -11.25,-11.71875 -0.39764,0.0221 -0.81535,-0.002 -1.21875,-0.0625 z m 19.78125,18.125 -0.28125,0.34375 c 4.66699,3.67357 9.07127,6.70639 12.65625,8.75 0.14956,1.50613 0.89214,3.01708 2.1875,4.125 0.7134,0.61017 1.51404,1.03509 2.34375,1.28125 -0.12089,-0.0898 -0.22737,-0.18171 -0.34375,-0.28125 -1.29536,-1.10792 -2.03794,-2.61887 -2.1875,-4.125 -4.02754,-2.29589 -9.06178,-5.78005 -14.375,-10.09375 z m 18.53125,3.375 c 0.26037,0.31259 0.53983,0.63532 0.78125,0.9375 0.67221,-0.0382 1.35855,0.0524 2.03125,0.25 -0.86704,-0.63996 -1.82876,-1.04094 -2.8125,-1.1875 z"/></g></g></g></svg>