<svg xmlns="http://www.w3.org/2000/svg" xmlns:svg="http://www.w3.org/2000/svg" xmlns:xlink="http://www.w3.org/1999/xlink" id="svg11300" width="400" height="300" version="1.0" style="display:inline;enable-background:new"><title id="title10372">Available Software Updates</title><defs id="defs3"><linearGradient id="linearGradient11275"><stop style="stop-color:#73d216;stop-opacity:1" id="stop11277" offset="0"/><stop style="stop-color:#73d216;stop-opacity:0" id="stop11279" offset="1"/></linearGradient><linearGradient id="linearGradient11225"><stop style="stop-color:#fff;stop-opacity:1" id="stop11227" offset="0"/><stop style="stop-color:#fff;stop-opacity:0" id="stop11229" offset="1"/></linearGradient><linearGradient id="linearGradient3511"><stop style="stop-color:#274d03;stop-opacity:1" id="stop3513" offset="0"/><stop style="stop-color:#274d03;stop-opacity:0" id="stop3515" offset="1"/></linearGradient><linearGradient id="linearGradient3499"><stop style="stop-color:#fff;stop-opacity:1" id="stop3501" offset="0"/><stop style="stop-color:#fff;stop-opacity:0" id="stop3503" offset="1"/></linearGradient><linearGradient id="linearGradient3476"><stop style="stop-color:#fff;stop-opacity:1" id="stop3478" offset="0"/><stop style="stop-color:#fff;stop-opacity:0" id="stop3480" offset="1"/></linearGradient><linearGradient id="linearGradient3448"><stop style="stop-color:#fff;stop-opacity:1" id="stop3450" offset="0"/><stop style="stop-color:#fff;stop-opacity:0" id="stop3452" offset="1"/></linearGradient><linearGradient id="linearGradient3435"><stop style="stop-color:#68bf14;stop-opacity:1" id="stop3437" offset="0"/><stop style="stop-color:#4e9a06;stop-opacity:1" id="stop3439" offset="1"/></linearGradient><linearGradient id="linearGradient3285"><stop style="stop-color:#fff;stop-opacity:1" id="stop3287" offset="0"/><stop style="stop-color:#fff;stop-opacity:0" id="stop3289" offset="1"/></linearGradient><linearGradient id="linearGradient3275"><stop style="stop-color:#73d216;stop-opacity:1" id="stop3277" offset="0"/><stop style="stop-color:#4e9a06;stop-opacity:1" id="stop3279" offset="1"/></linearGradient><linearGradient id="linearGradient3371"><stop style="stop-color:#73d216;stop-opacity:1" id="stop3373" offset="0"/><stop style="stop-color:#4e9a06;stop-opacity:1" id="stop3375" offset="1"/></linearGradient><linearGradient id="linearGradient3239"><stop style="stop-color:#fff;stop-opacity:1" id="stop3241" offset="0"/><stop style="stop-color:#fff;stop-opacity:0" id="stop3243" offset="1"/></linearGradient><linearGradient id="linearGradient3245" x1="307" x2="308.856" y1="220.5" y2="236.131" gradientTransform="matrix(1.000063,0,0,1,-1.96201e-2,0)" gradientUnits="userSpaceOnUse" xlink:href="#linearGradient3239"/><radialGradient id="radialGradient3377" cx="311.5" cy="233.857" r="7.5" fx="311.5" fy="233.857" gradientTransform="matrix(1.7142858,0,0,1.0666667,-223.00004,-15.133349)" gradientUnits="userSpaceOnUse" xlink:href="#linearGradient3371"/><radialGradient id="radialGradient3392" cx="311.5" cy="233.274" r="7.5" fx="311.5" fy="233.274" gradientTransform="matrix(1.9666668,0,0,1.4933334,-298.61674,-151.98671)" gradientUnits="userSpaceOnUse" xlink:href="#linearGradient3371"/><linearGradient id="linearGradient3455" x1="307" x2="308.856" y1="220.5" y2="236.131" gradientTransform="matrix(1.4616305,0,0,1.4556199,-140.56714,-143.4642)" gradientUnits="userSpaceOnUse" xlink:href="#linearGradient3239"/><filter id="filter3471" width="1.126" height="3.52" x="-.063" y="-1.26"><feGaussianBlur id="feGaussianBlur3473" stdDeviation=".525"/></filter><radialGradient id="radialGradient3281" cx="320" cy="90.562" r="21" fx="320" fy="90.562" gradientTransform="matrix(1.1905357,0,0,1,-60.971428,0)" gradientUnits="userSpaceOnUse" xlink:href="#linearGradient3275"/><linearGradient id="linearGradient3291" x1="320" x2="320" y1="52" y2="115.538" gradientUnits="userSpaceOnUse" xlink:href="#linearGradient3285"/><filter id="filter3295" width="1.063" height="2.32" x="-.031" y="-.66"><feGaussianBlur id="feGaussianBlur3297" stdDeviation=".55"/></filter><filter id="filter3301" width="1.119" height="3.492" x="-.059" y="-1.246"><feGaussianBlur id="feGaussianBlur3303" stdDeviation="1.038"/></filter><radialGradient id="radialGradient3329" cx="320" cy="90.578" r="21" fx="320" fy="90.578" gradientTransform="matrix(1.2366638,0,0,1,-75.732429,60)" gradientUnits="userSpaceOnUse" xlink:href="#linearGradient3275"/><linearGradient id="linearGradient3331" x1="320" x2="320" y1="52" y2="115.538" gradientTransform="matrix(0.9787784,0,0,0.9787783,6.7909233,61.527957)" gradientUnits="userSpaceOnUse" xlink:href="#linearGradient3285"/><clipPath id="clipPath3423" clipPathUnits="userSpaceOnUse"><rect style="opacity:1;fill:#999;fill-opacity:1;fill-rule:evenodd;stroke:none;stroke-width:12;stroke-linecap:round;stroke-linejoin:round;marker:none;marker-start:none;marker-mid:none;marker-end:none;stroke-miterlimit:4;stroke-dasharray:none;stroke-dashoffset:0;stroke-opacity:1;visibility:visible;display:inline;overflow:visible;enable-background:new" id="rect3425" width="224" height="224" x="36" y="364" rx="5.938" ry="5.938"/></clipPath><filter id="filter3431"><feGaussianBlur id="feGaussianBlur3433" stdDeviation="2.26"/></filter><radialGradient id="radialGradient3441" cx="148" cy="543.258" r="112" fx="148" fy="543.258" gradientTransform="matrix(1.59089,0,0,1.34089,-87.451726,-145.44918)" gradientUnits="userSpaceOnUse" xlink:href="#linearGradient3435"/><filter id="filter3456" width="1.025" height="1.868" x="-.012" y="-.434"><feGaussianBlur id="feGaussianBlur3458" stdDeviation="1.111"/></filter><radialGradient id="radialGradient3461" cx="148" cy="53" r="108" fx="148" fy="53" gradientTransform="matrix(1.6687487,0,0,0.2364047,-98.974807,356.54282)" gradientUnits="userSpaceOnUse" xlink:href="#linearGradient3448"/><filter id="filter3485" width="1.173" height="1.392" x="-.086" y="-.196"><feGaussianBlur id="feGaussianBlur3487" stdDeviation="7.819"/></filter><linearGradient id="linearGradient3489" x1="61.5" x2="61.5" y1="280.026" y2="198.133" gradientTransform="translate(0,322)" gradientUnits="userSpaceOnUse" xlink:href="#linearGradient3476"/><radialGradient id="radialGradient3495" cx="148" cy="53" r="108" fx="148" fy="53" gradientTransform="matrix(1.6687487,0,0,0.2364047,-98.974807,356.54282)" gradientUnits="userSpaceOnUse" xlink:href="#linearGradient3448"/><radialGradient id="radialGradient3505" cx="148" cy="476" r="109" fx="148" fy="476" gradientTransform="matrix(2.437931,0.1422017,-0.05352297,0.9176063,-187.3369,18.173633)" gradientUnits="userSpaceOnUse" xlink:href="#linearGradient3499"/><filter id="filter3507"><feGaussianBlur id="feGaussianBlur3509" stdDeviation="1.11"/></filter><linearGradient id="linearGradient3517" x1="137" x2="137" y1="542.401" y2="-87.094" gradientUnits="userSpaceOnUse" xlink:href="#linearGradient3511"/><filter id="filter3521" width="1.063" height="2.428" x="-.031" y="-.714"><feGaussianBlur id="feGaussianBlur3523" stdDeviation="2.975"/></filter><filter id="filter3531" width="1.125" height="3.856" x="-.063" y="-1.428"><feGaussianBlur id="feGaussianBlur3533" stdDeviation="5.95"/></filter><radialGradient id="radialGradient11231" cx="69.01" cy="41.97" r="108.5" fx="69.01" fy="41.97" gradientTransform="matrix(2.1337521,-0.1382488,0.06120856,0.9447015,-60.35655,119.84958)" gradientUnits="userSpaceOnUse" xlink:href="#linearGradient11225"/><radialGradient id="radialGradient11281" cx="36" cy="351" r="112" fx="36" fy="351" gradientTransform="matrix(2.7881314,-1.5982143e-7,7.4211595e-8,1.2946429,-64.372756,-103.41963)" gradientUnits="userSpaceOnUse" xlink:href="#linearGradient11275"/><radialGradient id="radialGradient11285" cx="69.01" cy="41.97" r="108.5" fx="69.01" fy="41.97" gradientTransform="matrix(0.3963208,-2.5678182e-2,1.1368811e-2,0.1754678,281.30008,65.716739)" gradientUnits="userSpaceOnUse" xlink:href="#linearGradient11225"/><radialGradient id="radialGradient11289" cx="69.01" cy="41.97" r="108.5" fx="69.01" fy="41.97" gradientTransform="matrix(0.2774246,-1.7974727e-2,7.9581677e-3,0.1228275,291.91006,136.60172)" gradientUnits="userSpaceOnUse" xlink:href="#linearGradient11225"/><radialGradient id="radialGradient11293" cx="69.01" cy="41.97" r="108.5" fx="69.01" fy="41.97" gradientTransform="matrix(0.1981604,-1.2839091e-2,5.6844055e-3,8.77339e-2,294.65004,183.85837)" gradientUnits="userSpaceOnUse" xlink:href="#linearGradient11225"/><radialGradient id="radialGradient11297" cx="69.01" cy="41.97" r="108.5" fx="69.01" fy="41.97" gradientTransform="matrix(0.1387123,-8.9873637e-3,3.9790838e-3,6.141373e-2,297.45503,224.80086)" gradientUnits="userSpaceOnUse" xlink:href="#linearGradient11225"/></defs><metadata id="metadata4"/><g id="layer1" style="display:inline"><g id="layer6" style="display:none"><rect id="rect6284" width="48" height="48" x="296.063" y="49.996" style="fill:#eeeeec;fill-opacity:1;fill-rule:nonzero;stroke:none;stroke-width:2;marker:none;visibility:visible;display:inline;overflow:visible;enable-background:accumulate"/><rect style="fill:#eeeeec;fill-opacity:1;fill-rule:nonzero;stroke:none;stroke-width:2;marker:none;visibility:visible;display:inline;overflow:visible;enable-background:accumulate" id="rect6592" width="32" height="32" x="303" y="125.996"/><rect id="rect6749" width="22" height="22" x="303" y="177.059" style="fill:#eeeeec;fill-opacity:1;fill-rule:nonzero;stroke:none;stroke-width:2;marker:none;visibility:visible;display:inline;overflow:visible;enable-background:accumulate"/><rect style="fill:#eeeeec;fill-opacity:1;fill-rule:nonzero;stroke:none;stroke-width:2;marker:none;visibility:visible;display:inline;overflow:visible;enable-background:accumulate" id="rect6833" width="16" height="16" x="303" y="219"/><rect style="fill:#eeeeec;fill-opacity:1;fill-rule:nonzero;stroke:none;stroke-width:2;marker:none;visibility:visible;display:inline;overflow:visible;enable-background:accumulate" id="rect8104" width="24" height="24" x="302" y="176"/><rect style="fill:#eeeeec;fill-opacity:1;fill-rule:nonzero;stroke:none;stroke-width:2;marker:none;visibility:visible;display:inline;overflow:visible;enable-background:accumulate" id="rect6282" width="256" height="256" x="20" y="32"/><text style="font-size:18.30070686px;font-style:normal;font-weight:400;fill:#000;fill-opacity:1;stroke:none;display:inline;enable-background:new;font-family:Bitstream Vera Sans" id="context" x="20.971" y="21.514" xml:space="preserve"><tspan id="tspan2716" x="20.971" y="21.514">actions</tspan></text><text id="text3021" x="153.971" y="21.514" xml:space="preserve" style="font-size:18.30070686px;font-style:normal;font-variant:normal;font-weight:700;font-stretch:normal;text-align:start;line-height:125%;writing-mode:lr-tb;text-anchor:start;fill:#000;fill-opacity:1;stroke:none;display:inline;enable-background:new;font-family:Droid Sans;-inkscape-font-specification:Droid Sans Bold"><tspan id="tspan3023" x="153.971" y="21.514">system-log-out</tspan></text><path style="fill:none;fill-rule:evenodd;stroke:#000;stroke-width:2;stroke-linecap:round;stroke-linejoin:round;stroke-miterlimit:4;stroke-dasharray:none;stroke-opacity:1;display:inline;enable-background:new" id="path3212" d="M 411.5,70.5 L 414.5,66 L 423.5,66 L 427.5,71 L 432.5,71"/><path style="fill:none;fill-rule:evenodd;stroke:#000;stroke-width:3;stroke-linecap:round;stroke-linejoin:round;stroke-miterlimit:4;stroke-dasharray:none;stroke-opacity:1;display:inline;enable-background:new" id="path3214" d="M 404,81.5 L 416.5,81.5 L 417,73 L 420.5,66.5"/><path style="fill:none;fill-rule:evenodd;stroke:#000;stroke-width:3;stroke-linecap:round;stroke-linejoin:miter;stroke-miterlimit:4;stroke-dasharray:none;stroke-opacity:1;display:inline;enable-background:new" id="path3216" d="M 427,88 L 420,74 L 423.5,67.5"/></g><g id="layer2" style="display:inline"><rect style="opacity:1;fill:url(#radialGradient3377);fill-opacity:1;fill-rule:evenodd;stroke:#3a7304;stroke-width:.99999994;stroke-linecap:round;stroke-linejoin:miter;marker:none;marker-start:none;marker-mid:none;marker-end:none;stroke-miterlimit:4;stroke-dasharray:none;stroke-dashoffset:0;stroke-opacity:1;visibility:visible;display:inline;overflow:visible;enable-background:new" id="rect2465" width="15" height="15" x="303.5" y="219.5" rx=".875" ry=".875"/><path style="opacity:1;fill:#fff;fill-opacity:1;fill-rule:evenodd;stroke:none;stroke-width:2;stroke-linecap:round;stroke-linejoin:round;marker:none;marker-start:none;marker-mid:none;marker-end:none;stroke-miterlimit:4;stroke-dasharray:none;stroke-dashoffset:0;stroke-opacity:1;visibility:visible;display:inline;overflow:visible;enable-background:new" id="rect3358" d="M 307.0625,221 C 307.03134,221 307,221.02787 307,221.0625 L 307,229.09375 C 306.41298,229.29701 306,229.84213 306,230.5 C 306,231.15787 306.41298,231.70299 307,231.90625 L 307,232.9375 C 307,232.97213 307.03134,233 307.0625,233 L 314.375,233 C 314.25059,232.96607 314.13153,232.87081 314.0625,232.75 L 311,227.5625 L 311,230.5 C 310.99997,230.77613 310.77613,230.99997 310.5,231 L 307.5,231 C 307.31968,231.00255 307.15339,230.90575 307.0625,230.75 C 306.97159,230.59425 306.97158,230.40575 307.0625,230.25 C 307.1534,230.09425 307.31968,229.99745 307.5,230 L 310,230 L 310,227.5 C 310.002,227.44658 310.01255,227.39383 310.03125,227.34375 L 310.8125,225 L 309.8125,225 L 308.9375,226.71875 C 308.88621,226.91601 308.73336,227.06737 308.53125,227.09375 C 308.32914,227.12011 308.13144,227.02126 308.03125,226.84375 C 307.93108,226.66625 307.93546,226.44064 308.0625,226.28125 L 309.0625,224.28125 C 309.12688,224.13897 309.25403,224.03493 309.40625,224 C 309.43743,223.99706 309.46882,223.99706 309.5,224 L 313,224 C 313.15738,223.99505 313.30791,224.06452 313.40625,224.1875 L 314.75,226 L 316,226 L 316,221.0625 C 316,221.02787 315.96866,221 315.9375,221 L 307.0625,221 z M 313.25,221.5 C 313.94,221.5 314.5,222.06 314.5,222.75 C 314.5,223.44 313.94,224 313.25,224 C 312.56,224 312,223.44 312,222.75 C 312,222.06 312.56,221.5 313.25,221.5 z M 313.28125,225.71875 L 312.53125,227.9375 L 314.9375,232.25 C 315.07557,232.49162 314.99162,232.79943 314.75,232.9375 C 314.68959,232.97202 314.62749,232.99223 314.5625,233 L 315.9375,233 C 315.96866,233 316,232.97213 316,232.9375 L 316,227 L 314.5,227 C 314.34262,227.00495 314.19209,226.93548 314.09375,226.8125 L 313.28125,225.71875 z"/><rect style="opacity:.2;fill:none;fill-opacity:1;fill-rule:evenodd;stroke:url(#linearGradient3245);stroke-width:.99999994;stroke-linecap:round;stroke-linejoin:miter;marker:none;marker-start:none;marker-mid:none;marker-end:none;stroke-miterlimit:4;stroke-dasharray:none;stroke-dashoffset:0;stroke-opacity:1;visibility:visible;display:inline;overflow:visible;enable-background:new" id="rect2467" width="13" height="13" x="304.5" y="220.5" rx=".063" ry=".063"/><rect style="opacity:1;fill:#000;fill-opacity:1;fill-rule:evenodd;stroke:none;stroke-width:2;stroke-linecap:square;stroke-linejoin:round;marker:none;marker-start:none;marker-mid:none;marker-end:none;stroke-miterlimit:4;stroke-dasharray:none;stroke-dashoffset:0;stroke-opacity:1;visibility:visible;display:inline;overflow:visible;filter:url(#filter3471);enable-background:new" id="rect3457" width="20" height="1" x="304" y="197" rx=".091" ry=".091" transform="matrix(1.0618718,0,0,1,-19.427759,0)"/><rect style="opacity:1;fill:url(#radialGradient3392);fill-opacity:1;fill-rule:evenodd;stroke:#3a7304;stroke-width:1;stroke-linecap:round;stroke-linejoin:miter;marker:none;marker-start:none;marker-mid:none;marker-end:none;stroke-miterlimit:4;stroke-dasharray:none;stroke-dashoffset:0;stroke-opacity:1;visibility:visible;display:inline;overflow:visible;enable-background:new" id="rect3390" width="21" height="21" x="303.5" y="176.5" rx="1.225" ry="1.225"/><path style="fill:#fff;fill-opacity:1;fill-rule:evenodd;stroke:none;stroke-width:2;stroke-linecap:round;stroke-linejoin:round;marker:none;marker-start:none;marker-mid:none;marker-end:none;stroke-miterlimit:4;stroke-dasharray:none;stroke-dashoffset:0;stroke-opacity:1;visibility:visible;display:inline;overflow:visible;enable-background:new" id="rect3394" d="M 308,178 L 308,190.53125 L 307,190.53125 C 306.82914,190.53431 306.67348,190.6301 306.59375,190.78125 L 305.59375,192.78125 C 305.51777,192.92524 305.51092,193.10983 305.59375,193.25 C 305.67658,193.39016 305.83721,193.46584 306,193.46875 L 308,193.46875 L 308,195 L 306,197 L 314,197 L 316,195 L 313,188.65625 L 313,192 C 312.99994,192.55226 312.55226,192.99994 312,193 L 306,193 L 307,191 L 311,191 L 311,187.78125 L 311,187.71875 L 311.03125,187.6875 L 313,184 L 311.3125,184 L 309.9375,186.71875 C 309.88621,186.91601 309.73336,187.06737 309.53125,187.09375 C 309.32914,187.12011 309.13144,187.02126 309.03125,186.84375 C 308.93108,186.66625 308.93546,186.44064 309.0625,186.28125 L 310.5625,183.28125 C 310.62688,183.13897 310.75403,183.03493 310.90625,183 C 310.93743,182.99706 310.96882,182.99706 311,183 L 316,183 C 316.16297,183.00235 316.31458,183.08398 316.40625,183.21875 L 318.25,186 L 320,186 L 320,178 L 308,178 z M 316.75,179 C 317.716,179 318.5,179.784 318.5,180.75 C 318.5,181.716 317.716,182.5 316.75,182.5 C 315.784,182.5 315,181.716 315,180.75 C 315,179.784 315.784,179 316.75,179 z M 316.15625,184.625 L 314.625,187.5625 L 318,195 L 316,197 L 318,197 L 320,195 L 320,187 L 318,187 C 317.83703,186.99765 317.68542,186.91602 317.59375,186.78125 L 316.15625,184.625 z"/><rect style="opacity:.2;fill:none;fill-opacity:1;fill-rule:evenodd;stroke:url(#linearGradient3455);stroke-width:1;stroke-linecap:round;stroke-linejoin:miter;marker:none;marker-start:none;marker-mid:none;marker-end:none;stroke-miterlimit:4;stroke-dasharray:none;stroke-dashoffset:0;stroke-opacity:1;visibility:visible;display:inline;overflow:visible;enable-background:new" id="rect3453" width="19" height="18.923" x="304.5" y="177.5" rx=".091" ry=".091"/><g id="g3333"><rect id="rect3299" width="42" height="2" x="299" y="91" rx="1" ry="1" transform="matrix(0.9761905,0,0,1.109375,7.6190476,-9.953125)" style="opacity:.5;fill:#000;fill-opacity:1;fill-rule:evenodd;stroke:none;stroke-width:1;stroke-linecap:round;stroke-linejoin:round;marker:none;marker-start:none;marker-mid:none;marker-end:none;stroke-miterlimit:4;stroke-dasharray:none;stroke-dashoffset:0;stroke-opacity:1;visibility:visible;display:inline;overflow:visible;filter:url(#filter3301);enable-background:new"/><rect id="rect3293" width="42" height="2" x="299" y="91" rx="1" ry="1" transform="matrix(0.9761905,0,0,1.109375,7.6190476,-9.953125)" style="opacity:.5;fill:#000;fill-opacity:1;fill-rule:evenodd;stroke:none;stroke-width:1;stroke-linecap:round;stroke-linejoin:round;marker:none;marker-start:none;marker-mid:none;marker-end:none;stroke-miterlimit:4;stroke-dasharray:none;stroke-dashoffset:0;stroke-opacity:1;visibility:visible;display:inline;overflow:visible;filter:url(#filter3295);enable-background:new"/></g><rect style="opacity:1;fill:url(#radialGradient3281);fill-opacity:1;fill-rule:evenodd;stroke:#3a7304;stroke-width:1;stroke-linecap:round;stroke-linejoin:round;marker:none;marker-start:none;marker-mid:none;marker-end:none;stroke-miterlimit:4;stroke-dasharray:none;stroke-dashoffset:0;stroke-opacity:1;visibility:visible;display:inline;overflow:visible;enable-background:new" id="rect3273" width="41" height="41" x="299.5" y="51.5" rx="2.061" ry="2.061"/><path style="opacity:1;fill:#fff;fill-opacity:1;fill-rule:evenodd;stroke:none;stroke-width:3;stroke-linecap:round;stroke-linejoin:round;marker:none;marker-start:none;marker-mid:none;marker-end:none;stroke-miterlimit:4;stroke-dasharray:none;stroke-dashoffset:0;stroke-opacity:1;visibility:visible;display:inline;overflow:visible;enable-background:new" id="rect3254" d="M 308,55 L 308,79.0625 C 305.77312,79.449861 304.0625,81.515699 304.0625,84 L 308,84 L 308,89 L 306,91 L 323.5,91 L 325.5,89 L 328.5,89 L 326.5,91 L 330,91 L 332,89 L 332,72 L 327.5,72 C 327.19614,72.000175 326.90868,71.862194 326.71875,71.625 L 324.5,68.8125 L 321.6875,74.03125 L 328.34375,87.34375 C 328.46488,87.548794 328.51671,87.772132 328.53125,88 L 325.3125,88 L 318.65625,74.65625 L 318.4375,74.1875 L 318,81.59375 C 317.95036,82.385322 317.29313,83.001476 316.5,83 L 305.125,83 C 305.54209,81.27612 307.00416,80 308.75,80 L 315.09375,80 L 315.5,72.90625 C 315.51588,72.686683 315.5799,72.473302 315.6875,72.28125 L 318.53125,67 L 315.0625,67 L 312.34375,71.0625 C 312.03309,71.52849 311.40349,71.65441 310.9375,71.34375 C 310.47151,71.03309 310.34559,70.40349 310.65625,69.9375 L 313.65625,65.4375 C 313.82661,65.185089 314.10268,65.024044 314.40625,65 C 314.43748,64.998534 314.46877,64.998534 314.5,65 L 320.25,65 C 320.32057,64.987199 320.39582,64.971303 320.46875,64.96875 C 320.60471,64.964685 320.74533,64.969872 320.875,65 L 323.5,65 C 323.80386,64.999825 324.09132,65.137806 324.28125,65.375 L 327.96875,70 L 332,70 L 332,55 L 308,55 z M 323.5,58 C 325.156,58.000001 326.5,59.344002 326.5,61 C 326.5,62.655998 325.156,64 323.5,64 C 321.844,64 320.5,62.655998 320.5,61 C 320.50001,59.344003 321.844,58 323.5,58 z"/><rect style="opacity:.2;fill:none;fill-opacity:1;fill-rule:evenodd;stroke:url(#linearGradient3291);stroke-width:1;stroke-linecap:round;stroke-linejoin:round;marker:none;marker-start:none;marker-mid:none;marker-end:none;stroke-miterlimit:4;stroke-dasharray:none;stroke-dashoffset:0;stroke-opacity:1;visibility:visible;display:inline;overflow:visible;enable-background:new" id="rect3283" width="39" height="39" x="300.5" y="52.5" rx="1.063" ry="1.063"/><g style="display:inline;enable-background:new" id="g3337" transform="matrix(0.7317071,0,0,0.7746479,84.853714,84.007042)"><rect id="rect3339" width="42" height="2" x="299" y="91" rx="1" ry="1" transform="matrix(0.9761905,0,0,1.109375,7.6190476,-9.953125)" style="opacity:.5;fill:#000;fill-opacity:1;fill-rule:evenodd;stroke:none;stroke-width:1;stroke-linecap:round;stroke-linejoin:round;marker:none;marker-start:none;marker-mid:none;marker-end:none;stroke-miterlimit:4;stroke-dasharray:none;stroke-dashoffset:0;stroke-opacity:1;visibility:visible;display:inline;overflow:visible;filter:url(#filter3301);enable-background:new"/><rect id="rect3341" width="42" height="2" x="299" y="91" rx="1" ry="1" transform="matrix(0.9761905,0,0,1.109375,7.6190476,-9.953125)" style="opacity:.5;fill:#000;fill-opacity:1;fill-rule:evenodd;stroke:none;stroke-width:1;stroke-linecap:round;stroke-linejoin:round;marker:none;marker-start:none;marker-mid:none;marker-end:none;stroke-miterlimit:4;stroke-dasharray:none;stroke-dashoffset:0;stroke-opacity:1;visibility:visible;display:inline;overflow:visible;filter:url(#filter3295);enable-background:new"/></g><g id="g3324" transform="matrix(0.7073158,0,0,0.7072924,92.658923,47.636917)"><rect id="rect3314" width="41" height="41" x="299.5" y="111.5" rx="2.061" ry="2.061" style="opacity:1;fill:url(#radialGradient3329);fill-opacity:1;fill-rule:evenodd;stroke:#3a7304;stroke-width:1.41381931000000005;stroke-linecap:round;stroke-linejoin:round;marker:none;marker-start:none;marker-mid:none;marker-end:none;stroke-miterlimit:4;stroke-dasharray:none;stroke-dashoffset:0;stroke-opacity:1;visibility:visible;display:inline;overflow:visible;enable-background:new"/><path id="path3316" d="M 308.68966,115.0074 L 308.68966,139.0699 C 306.46278,139.45726 304.0625,141.5157 304.0625,144 L 308.68966,144.0074 L 308.68966,149.0074 L 306.68966,151.0074 L 323.5,151 L 325.5,149 L 328.5,149 L 326.5,151 L 329.31039,151.00069 L 331.31039,149.00069 L 331.31039,132.00069 L 327.5,132 C 327.19614,132.00017 326.90868,131.86219 326.71875,131.625 L 324.5,128.8125 L 321.6875,134.03125 L 328.34375,147.34375 C 328.46488,147.54879 328.51671,147.77213 328.53125,148 L 325.3125,148 L 318.65625,134.65625 L 318.4375,134.1875 L 318,141.59375 C 317.95036,142.38532 317.29313,143.00148 316.5,143 L 305.125,143 C 305.54209,141.27612 307.00416,140 308.75,140 L 315.09375,140 L 315.5,132.90625 C 315.51588,132.68668 315.5799,132.4733 315.6875,132.28125 L 318.53125,127 L 315.0625,127 L 312.34375,131.0625 C 312.03309,131.52849 311.40349,131.65441 310.9375,131.34375 C 310.47151,131.03309 310.34559,130.40349 310.65625,129.9375 L 313.65625,125.4375 C 313.82661,125.18509 314.10268,125.02404 314.40625,125 C 314.43748,124.99853 314.46877,124.99853 314.5,125 L 320.25,125 C 320.32057,124.9872 320.39582,124.9713 320.46875,124.96875 C 320.60471,124.96469 320.74533,124.96987 320.875,125 L 323.5,125 C 323.80386,124.99983 324.09132,125.13781 324.28125,125.375 L 327.96875,130 L 331.31039,130.00069 L 331.31039,115.00069 L 308.68966,115.0074 z M 323.5,118 C 325.156,118 326.5,119.344 326.5,121 C 326.5,122.656 325.156,124 323.5,124 C 321.844,124 320.5,122.656 320.5,121 C 320.50001,119.344 321.844,118 323.5,118 z" style="opacity:1;fill:#fff;fill-opacity:1;fill-rule:evenodd;stroke:none;stroke-width:3;stroke-linecap:round;stroke-linejoin:round;marker:none;marker-start:none;marker-mid:none;marker-end:none;stroke-miterlimit:4;stroke-dasharray:none;stroke-dashoffset:0;stroke-opacity:1;visibility:visible;display:inline;overflow:visible;enable-background:new"/><rect id="rect3318" width="38.172" height="38.172" x="300.914" y="112.914" rx="1.04" ry="1.04" style="opacity:.2;fill:none;fill-opacity:1;fill-rule:evenodd;stroke:url(#linearGradient3331);stroke-width:1.41381931;stroke-linecap:round;stroke-linejoin:round;marker:none;marker-start:none;marker-mid:none;marker-end:none;stroke-miterlimit:4;stroke-dasharray:none;stroke-dashoffset:0;stroke-opacity:1;visibility:visible;display:inline;overflow:visible;enable-background:new"/></g><path style="opacity:.3;fill:url(#radialGradient11285);fill-opacity:1;fill-rule:evenodd;stroke:none;stroke-width:12;stroke-linecap:round;stroke-linejoin:round;marker:none;marker-start:none;marker-mid:none;marker-end:none;stroke-miterlimit:4;stroke-dasharray:none;stroke-dashoffset:0;stroke-opacity:1;visibility:visible;display:inline;overflow:visible;enable-background:new" id="path11283" d="M 300.44931,52 C 300.18923,52 300,52.189231 300,52.449309 L 300,74.47441 L 340,70.815912 L 340,52.449309 C 340,52.189229 339.81077,52 339.55069,52 L 300.44931,52 z"/><path style="opacity:.3;fill:url(#radialGradient11289);fill-opacity:1;fill-rule:evenodd;stroke:none;stroke-width:12;stroke-linecap:round;stroke-linejoin:round;marker:none;marker-start:none;marker-mid:none;marker-end:none;stroke-miterlimit:4;stroke-dasharray:none;stroke-dashoffset:0;stroke-opacity:1;visibility:visible;display:inline;overflow:visible;enable-background:new" id="path11287" d="M 305.31452,127 C 305.13246,127 305,127.13247 305,127.31452 L 305,142.73209 L 333,140.17115 L 333,127.31452 C 333,127.13246 332.86754,127 332.68548,127 L 305.31452,127 z"/><path style="opacity:.3;fill:url(#radialGradient11293);fill-opacity:1;fill-rule:evenodd;stroke:none;stroke-width:12;stroke-linecap:round;stroke-linejoin:round;marker:none;marker-start:none;marker-mid:none;marker-end:none;stroke-miterlimit:4;stroke-dasharray:none;stroke-dashoffset:0;stroke-opacity:1;visibility:visible;display:inline;overflow:visible;enable-background:new" id="path11291" d="M 304.22465,177 C 304.09461,177 304,177.09462 304,177.22466 L 304,188.23721 L 324,186.40796 L 324,177.22466 C 324,177.09462 323.90539,177 323.77535,177 L 304.22465,177 z"/><path style="opacity:.4;fill:url(#radialGradient11297);fill-opacity:1;fill-rule:evenodd;stroke:none;stroke-width:12;stroke-linecap:round;stroke-linejoin:round;marker:none;marker-start:none;marker-mid:none;marker-end:none;stroke-miterlimit:4;stroke-dasharray:none;stroke-dashoffset:0;stroke-opacity:1;visibility:visible;display:inline;overflow:visible;enable-background:new" id="path11295" d="M 304.15726,220 C 304.06623,220 304,220.06624 304,220.15726 L 304,227.86605 L 318,226.58557 L 318,220.15726 C 318,220.06624 317.93377,220 317.84274,220 L 304.15726,220 z"/></g><g id="layer3" style="display:inline;opacity:1"><rect style="opacity:.7;fill:#000;fill-opacity:1;fill-rule:evenodd;stroke:none;stroke-width:2;marker:none;visibility:visible;display:inline;overflow:visible;filter:url(#filter3531);enable-background:new" id="rect3525" width="228" height="10" x="34" y="260" rx="6.053" ry="5" transform="matrix(0.9912281,0,0,0.787868,1.2982456,55.275649)"/><rect style="opacity:.7;fill:#000;fill-opacity:1;fill-rule:evenodd;stroke:none;stroke-width:2;marker:none;visibility:visible;display:inline;overflow:visible;filter:url(#filter3521);enable-background:new" id="rect3519" width="228" height="10" x="34" y="260" rx="6.053" ry="5" transform="matrix(0.9912281,0,0,0.787868,1.2982456,55.275649)"/><g id="g3417" clip-path="url(#clipPath3423)" transform="translate(0,-322)"><rect id="rect3413" width="224" height="224" x="36" y="364" rx="5.938" ry="5.938" style="fill:url(#radialGradient3441);fill-opacity:1;fill-rule:evenodd;stroke:none;stroke-width:12;marker:none;visibility:visible;display:inline;overflow:visible;enable-background:new"/><rect id="rect11273" width="224" height="224" x="36" y="364" rx="5.938" ry="5.938" style="opacity:.5;fill:url(#radialGradient11281);fill-opacity:1;fill-rule:evenodd;stroke:none;stroke-width:12;marker:none;visibility:visible;display:inline;overflow:visible;enable-background:new"/><rect id="rect3497" width="216" height="224" x="40" y="364" rx="5.725" ry="5.938" transform="matrix(1.0092593,0,0,1,-1.3703703,0)" style="opacity:.4;fill:none;stroke:url(#radialGradient3505);stroke-width:1.99080455;stroke-linecap:round;stroke-linejoin:round;stroke-miterlimit:4;stroke-opacity:1;stroke-dasharray:none;stroke-dashoffset:0;marker:none;visibility:visible;display:inline;overflow:visible;filter:url(#filter3507);enable-background:new"/><path style="opacity:.3;fill:url(#linearGradient3489);fill-opacity:1;fill-rule:evenodd;stroke:none;stroke-width:12;marker:none;visibility:visible;display:inline;overflow:visible;filter:url(#filter3485);enable-background:new" id="rect3463" d="m 39.5,490.75 0,90 c 0,3.18658 2.563418,5.75 5.75,5.75 l 205.5,0 c 3.18658,0 5.75,-2.56342 5.75,-5.75 l 0,-90 c 0,3.18658 -2.56342,5.75 -5.75,5.75 l -205.5,0 c -3.186582,0 -5.75,-2.56342 -5.75,-5.75 z"/><path style="opacity:.5;fill:url(#radialGradient3461);fill-opacity:1;fill-rule:evenodd;stroke:none;stroke-width:12;marker:none;visibility:visible;display:inline;overflow:visible;filter:url(#filter3456);enable-background:new" id="rect3411" d="M 45.725446,366 C 42.553549,366 40,367.14072 40,368.56139 l 0,3.58314 c 0,-1.42067 2.553549,-2.56139 5.725446,-2.56139 l 204.549104,0 c 3.17191,0 5.72545,1.14072 5.72545,2.56139 l 0,-3.58314 C 256,367.14072 253.44646,366 250.27455,366 l -204.549104,0 z" transform="matrix(1,0,0,0.7558804,0,92.34776)"/><rect id="rect3415" width="224" height="224" x="36" y="364" rx="5.938" ry="5.938" style="fill:none;stroke:url(#linearGradient3517);stroke-width:2;stroke-linecap:round;stroke-linejoin:round;stroke-miterlimit:4;stroke-opacity:1;stroke-dasharray:none;stroke-dashoffset:0;marker:none;visibility:visible;display:inline;overflow:visible;filter:url(#filter3431);enable-background:new"/><path style="opacity:.7;fill:url(#radialGradient3495);fill-opacity:1;fill-rule:evenodd;stroke:none;stroke-width:12;marker:none;visibility:visible;display:inline;overflow:visible;filter:url(#filter3456);enable-background:new" id="path3493" d="M 45.725446,366 C 42.553549,366 40,367.14072 40,368.56139 l 0,3.58314 c 0,-1.42067 2.553549,-2.56139 5.725446,-2.56139 l 204.549104,0 c 3.17191,0 5.72545,1.14072 5.72545,2.56139 l 0,-3.58314 C 256,367.14072 253.44646,366 250.27455,366 l -204.549104,0 z" transform="matrix(1,0,0,-1,0,952.14453)"/></g><path style="fill:#fff;fill-opacity:1;fill-rule:evenodd;stroke:none;stroke-width:12;marker:none;visibility:visible;display:inline;overflow:visible;enable-background:new" id="rect3384" d="m 80,58 0,136.25 c -11.902428,1.53197 -20.999998,9.79818 -21,19.75 0,1.36971 0.171624,2.70746 0.5,4 l 20.5,0 0,28 -12,16 98,0 12,-16 18,0 -12,16 20,0 12,-16 0,-92 -26,0 c -1.75372,0.002 -3.42069,-0.76265 -4.5625,-2.09375 L 170.625,134.625 156.9375,162 196,242 c 0,0 -18,0 -18,0 l -38,-68 c 0,0 -4.03125,32.65625 -4.03125,32.65625 -0.3418,4.14798 -3.80671,7.34114 -7.96875,7.34375 l -64,0 c 0,-8.83199 8.96,-16 20,-16 l 36.65625,0 3.375,-40.65625 c 0.084,-1.01152 0.35977,-1.99781 0.8125,-2.90625 L 139.0625,126 l -19.6875,0 -14.25,23.15625 c -1.74315,2.83046 -5.45079,3.7119 -8.28125,1.96875 -2.83046,-1.74315 -3.7119,-5.45079 -1.96875,-8.28125 l 16,-26 c 1.09771,-1.7745 3.03843,-2.85136 5.125,-2.84375 l 50,0 c 1.75372,-0.002 3.42069,0.76265 4.5625,2.09375 L 192.78125,142 216,142 216,58 80,58 z m 88,20 c 8.832,0 16,7.168 16,16 0,8.832 -7.168,16 -16,16 -8.832,0 -16,-7.168 -16,-16 0,-8.832 7.168,-16 16,-16 z"/><path style="opacity:.3;fill:url(#radialGradient11231);fill-opacity:1;fill-rule:evenodd;stroke:none;stroke-width:12;marker:none;visibility:visible;display:inline;overflow:visible;enable-background:new" id="path11218" d="m 42.741004,46 c -1.40023,0 -2.419034,1.018803 -2.419034,2.419034 l 0,118.580966 215.35606,-19.69697 0,-98.883996 C 255.67803,47.018793 254.65924,46 253.259,46 L 42.741004,46 z"/></g></g></svg>