<svg xmlns="http://www.w3.org/2000/svg" xmlns:svg="http://www.w3.org/2000/svg" xmlns:xlink="http://www.w3.org/1999/xlink" id="svg11300" width="400" height="300" version="1.0" style="display:inline;enable-background:new"><title id="title8836">Optical Drive</title><metadata id="metadata154"/><defs id="defs3"><linearGradient id="linearGradient3799"><stop id="stop3801" offset="0" style="stop-color:#555753;stop-opacity:1"/><stop id="stop3803" offset="1" style="stop-color:#555753;stop-opacity:0"/></linearGradient><linearGradient id="linearGradient5154"><stop id="stop5156" offset="0" style="stop-color:#fff;stop-opacity:1"/><stop id="stop5158" offset="1" style="stop-color:#fff;stop-opacity:0"/></linearGradient><linearGradient id="linearGradient5162"><stop id="stop5166" offset="0" style="stop-color:#9c9e99;stop-opacity:1"/><stop id="stop5164" offset="1" style="stop-color:#868883;stop-opacity:1"/></linearGradient><linearGradient id="linearGradient5186"><stop id="stop5188" offset="0" style="stop-color:black;stop-opacity:1"/><stop id="stop5190" offset="1" style="stop-color:black;stop-opacity:0"/></linearGradient><radialGradient id="radialGradient3884" cx="11.004" cy="9.3" r="7.965" fx="11.004" fy="9.3" gradientTransform="matrix(1.5405641,0,0,1.5392619,-4.0668303,-13.331411)" gradientUnits="userSpaceOnUse" xlink:href="#linearGradient5162"/><linearGradient id="linearGradient3886" x1="10.365" x2="10.365" y1="5.298" y2="24.067" gradientUnits="userSpaceOnUse" xlink:href="#linearGradient5154"/><radialGradient id="radialGradient3888" cx="16.502" cy="8.055" r="10.111" fx="16.502" fy="8.055" gradientTransform="matrix(1.1574281,0,0,0.5826333,-2.5978912,8.124026)" gradientUnits="userSpaceOnUse" xlink:href="#linearGradient3799"/><radialGradient id="radialGradient2185" cx="10.563" cy="17.625" r="8.563" fx="10.563" fy="17.625" gradientTransform="matrix(0.9522895,0,0,0.3336489,0.5039423,11.744441)" gradientUnits="userSpaceOnUse" xlink:href="#linearGradient5186"/><radialGradient id="radialGradient2189" cx="10.563" cy="17.625" r="8.563" fx="10.563" fy="17.625" gradientTransform="matrix(0.9642909,0,0,0.3378538,0.3771775,11.67033)" gradientUnits="userSpaceOnUse" xlink:href="#linearGradient5186"/><radialGradient id="radialGradient2192" cx="10.563" cy="17.625" r="8.563" fx="10.563" fy="17.625" gradientTransform="matrix(1,0,0,0.350365,0,11.44982)" gradientUnits="userSpaceOnUse" xlink:href="#linearGradient5186"/><radialGradient id="radialGradient3813" cx="11.004" cy="9.3" r="7.965" fx="11.004" fy="9.3" gradientTransform="matrix(1.5405641,0,0,1.5392619,-4.0668303,-13.331411)" gradientUnits="userSpaceOnUse" xlink:href="#linearGradient5162"/><linearGradient id="linearGradient3815" x1="10.365" x2="10.365" y1="5.298" y2="24.067" gradientUnits="userSpaceOnUse" xlink:href="#linearGradient5154"/><radialGradient id="radialGradient3817" cx="16.502" cy="8.055" r="10.111" fx="16.502" fy="8.055" gradientTransform="matrix(1.1574281,0,0,0.5826333,-2.5978912,8.124026)" gradientUnits="userSpaceOnUse" xlink:href="#linearGradient3799"/><radialGradient id="radialGradient5192" cx="10.563" cy="17.625" r="8.563" fx="10.563" fy="17.625" gradientTransform="matrix(1,0,0,0.350365,0,11.44982)" gradientUnits="userSpaceOnUse" xlink:href="#linearGradient5186"/><radialGradient id="radialGradient5168" cx="11.004" cy="9.3" r="7.965" fx="11.004" fy="9.3" gradientTransform="matrix(1,0,0,0.9991547,0,9.2886165e-3)" gradientUnits="userSpaceOnUse" xlink:href="#linearGradient5162"/><radialGradient id="radialGradient2174" cx="10.563" cy="17.625" r="8.563" fx="10.563" fy="17.625" gradientTransform="matrix(1,0,0,0.350365,0,11.44982)" gradientUnits="userSpaceOnUse" xlink:href="#linearGradient5186"/><radialGradient id="radialGradient2178" cx="10.563" cy="17.625" r="8.563" fx="10.563" fy="17.625" gradientTransform="matrix(1,0,0,0.350365,0,11.44982)" gradientUnits="userSpaceOnUse" xlink:href="#linearGradient5186"/><linearGradient id="linearGradient3187"><stop id="stop3189" offset="0" style="stop-color:#d3d7cf;stop-opacity:1"/><stop id="stop3191" offset="1" style="stop-color:#b1b4ac;stop-opacity:1"/></linearGradient><radialGradient id="radialGradient3697" cx="6.444" cy="4.695" r="7.369" fx="6.444" fy="4.695" gradientTransform="matrix(1.3308754,0,0,1.3287746,-2.6277766,-2.6068479)" gradientUnits="userSpaceOnUse" xlink:href="#linearGradient3187"/></defs><g id="layer6" style="display:none"><rect id="rect6284" width="48" height="48" x="296" y="50" style="fill:#eeeeec;fill-opacity:1;fill-rule:nonzero;stroke:none;stroke-width:2;marker:none;visibility:visible;display:inline;overflow:visible;enable-background:accumulate"/><rect id="rect6592" width="32" height="32" x="303" y="126" style="fill:#eeeeec;fill-opacity:1;fill-rule:nonzero;stroke:none;stroke-width:2;marker:none;visibility:visible;display:inline;overflow:visible;enable-background:accumulate"/><rect id="rect6749" width="22" height="22" x="303" y="177" style="fill:#eeeeec;fill-opacity:1;fill-rule:nonzero;stroke:none;stroke-width:2;marker:none;visibility:visible;display:inline;overflow:visible;enable-background:accumulate"/><rect id="rect6833" width="16" height="16" x="303" y="219" style="fill:#eeeeec;fill-opacity:1;fill-rule:nonzero;stroke:none;stroke-width:2;marker:none;visibility:visible;display:inline;overflow:visible;enable-background:accumulate"/><text id="context" x="20.971" y="21.514" xml:space="preserve" style="font-size:18.30070686px;font-style:normal;font-weight:400;fill:#000;fill-opacity:1;stroke:none;display:inline;enable-background:new;font-family:Bitstream Vera Sans"><tspan id="tspan2716" x="20.971" y="21.514">actions</tspan></text><text id="icon-name" x="191.971" y="21.514" xml:space="preserve" style="font-size:18.30070686px;font-style:normal;font-variant:normal;font-weight:700;font-stretch:normal;text-align:start;line-height:125%;writing-mode:lr-tb;text-anchor:start;fill:#000;fill-opacity:1;stroke:none;display:inline;enable-background:new;font-family:Droid Sans;-inkscape-font-specification:Droid Sans Bold"><tspan id="tspan3023" x="191.971" y="21.514">window-close</tspan></text><rect style="fill:#eeeeec;fill-opacity:1;fill-rule:nonzero;stroke:none;stroke-width:2;marker:none;visibility:visible;display:inline;overflow:visible;enable-background:accumulate" id="rect2880" width="24" height="24" x="302" y="176"/></g><g id="layer2" style="display:inline"><g id="g48" transform="translate(296,50)" style="display:inline;enable-background:new"><path id="path3819" d="m 19.125,17.625 c 0,1.656854 -3.833562,3 -8.5625,3 -4.7289382,0 -8.5625,-1.343146 -8.5625,-3 0,-1.656854 3.8335618,-3 8.5625,-3 4.728938,0 8.5625,1.343146 8.5625,3 z" transform="matrix(2.5841197,0,0,1.3158205,-2.2947635,11.602319)" style="opacity:.09195401;color:#000;fill:url(#radialGradient2192);fill-opacity:1;fill-rule:nonzero;stroke:none;stroke-width:1;marker:none;visibility:visible;display:inline;overflow:visible"/><path id="path2183" d="m 19.125,17.625 c 0,1.656854 -3.833562,3 -8.5625,3 -4.7289382,0 -8.5625,-1.343146 -8.5625,-3 0,-1.656854 3.8335618,-3 8.5625,-3 4.728938,0 8.5625,1.343146 8.5625,3 z" transform="matrix(1.0510949,0,0,1.401731,2.89781,11.499684)" style="opacity:.2030651;color:#000;fill:url(#radialGradient2185);fill-opacity:1;fill-rule:nonzero;stroke:none;stroke-width:1;marker:none;visibility:visible;display:inline;overflow:visible"/><path id="path2187" d="m 19.125,17.625 c 0,1.656854 -3.833562,3 -8.5625,3 -4.7289382,0 -8.5625,-1.343146 -8.5625,-3 0,-1.656854 3.8335618,-3 8.5625,-3 4.728938,0 8.5625,1.343146 8.5625,3 z" transform="matrix(1.0510949,0,0,1.401731,23.89781,11.499684)" style="opacity:.2030651;color:#000;fill:url(#radialGradient2189);fill-opacity:1;fill-rule:nonzero;stroke:none;stroke-width:1;marker:none;visibility:visible;display:inline;overflow:visible"/><g id="g3821" transform="matrix(1.2307692,0,0,1.2307692,3.222518,7.3727903)"><g id="g3823" transform="translate(4.5267189,9.405604)"><path id="path3825" d="M 4.3116263,-7.9047834 C 3.1284911,-7.9138208 2.0467982,-7.191319 1.5988112,-6.0962397 1.150825,-5.0011613 1.426782,-3.7540848 2.2770152,-2.9312886 L 8.7877699,3.5794713 2.2770152,10.090223 c -1.1361699,1.136169 -1.1361699,2.978273 0,4.114442 1.1361698,1.136169 2.9782651,1.136169 4.1144348,0 l 6.510757,-6.5107603 6.510757,6.5107603 c 0.730144,0.750985 1.791232,1.038707 2.803236,0.76863 1.012014,-0.270076 1.820949,-1.064894 2.079824,-2.079826 0.258878,-1.014931 -0.05483,-2.081437 -0.813839,-2.803246 l -6.510756,-6.5107517 6.510756,-6.5107599 c 0.856689,-0.8284531 1.137986,-2.1106871 0.678203,-3.2101648 -0.459782,-1.0994771 -1.566617,-1.7913567 -2.758026,-1.76333 -0.755832,0.029848 -1.469928,0.3544399 -1.989398,0.9042714 L 12.902207,-0.4897543 6.39145,-7.000512 C 5.8500755,-7.572344 5.0990546,-7.8988742 4.3116263,-7.9047834 z" style="color:#000;fill:url(#radialGradient3884);fill-opacity:1;fill-rule:nonzero;stroke:#555753;stroke-width:.8125;stroke-linecap:round;stroke-linejoin:round;stroke-miterlimit:4;stroke-opacity:1;stroke-dasharray:none;stroke-dashoffset:0;marker:none;visibility:visible;display:inline;overflow:visible"/></g><path id="path3827" d="m 4.3125,-7.09375 c -0.8421023,-0.00643 -1.6493386,0.5317165 -1.96875,1.3125 -0.3191796,0.7802175 -0.1195703,1.6504232 0.5,2.25 a 0.82386178,0.82386178 0 0 1 0.03125,0 L 9.375,3 a 0.82386178,0.82386178 0 0 1 0,1.1875 l -6.5,6.5 c -0.8195574,0.819557 -0.8195574,2.117943 0,2.9375 0.8195578,0.819557 2.1179424,0.819557 2.9375,0 l 6.5,-6.53125 a 0.82386178,0.82386178 0 0 1 1.1875,0 L 20,13.625 a 0.82386178,0.82386178 0 0 1 0,0.03125 c 0.518211,0.533002 1.25952,0.728864 2,0.53125 0.734866,-0.196114 1.284374,-0.777144 1.46875,-1.5 0.185199,-0.726074 -0.01788,-1.482078 -0.5625,-2 a 0.82386178,0.82386178 0 0 1 -0.03125,0 l -6.5,-6.5 A 0.82386178,0.82386178 0 0 1 16.375,3 l 6.5,-6.53125 a 0.82386178,0.82386178 0 0 1 0.03125,0 c 0.616222,-0.5959119 0.823578,-1.5387301 0.5,-2.3125 -0.326093,-0.7797863 -1.101768,-1.2703949 -1.96875,-1.25 C 20.897653,-7.072431 20.368639,-6.8276849 20,-6.4375 a 0.82386178,0.82386178 0 0 1 0,0.03125 l -6.5,6.5 a 0.82386178,0.82386178 0 0 1 -1.1875,0 l -6.5,-6.5 a 0.82386178,0.82386178 0 0 1 0,-0.03125 c -0.3833186,-0.404884 -0.9376651,-0.65203 -1.5,-0.65625 z" transform="translate(4.5477906,9.4068256)" xlink:href="#path4262" style="opacity:.36206898;color:#000;fill:none;stroke:url(#linearGradient3886);stroke-width:.8125;stroke-linecap:round;stroke-linejoin:round;stroke-miterlimit:4;stroke-opacity:1;stroke-dasharray:none;stroke-dashoffset:0;marker:none;visibility:visible;display:inline;overflow:visible"/><path id="path3829" d="m 14,13 c 4.242641,-1.237437 3.154067,0.132583 6.911612,0.132583 L 27.823223,20.044194 24,23 17.500893,16.443651 11,22.779029 7.6013979,19.448855 14,13 z" style="opacity:.3;fill:url(#radialGradient3888);fill-opacity:1;fill-rule:evenodd;stroke:none"/></g></g><g id="g32" transform="translate(303,126)" style="display:inline;enable-background:new"><g id="g2423" transform="matrix(0.7796762,0,0,0.7796762,-3.4919057,-1.4553067)"><path id="path60" d="m 19.125,17.625 c 0,1.656854 -3.833562,3 -8.5625,3 -4.7289382,0 -8.5625,-1.343146 -8.5625,-3 0,-1.656854 3.8335618,-3 8.5625,-3 4.728938,0 8.5625,1.343146 8.5625,3 z" transform="matrix(2.5841197,0,0,1.3158205,-2.2947635,11.602319)" style="opacity:.09195401;color:#000;fill:url(#radialGradient2192);fill-opacity:1;fill-rule:nonzero;stroke:none;stroke-width:1;marker:none;visibility:visible;display:inline;overflow:visible"/><path id="path62" d="m 19.125,17.625 c 0,1.656854 -3.833562,3 -8.5625,3 -4.7289382,0 -8.5625,-1.343146 -8.5625,-3 0,-1.656854 3.8335618,-3 8.5625,-3 4.728938,0 8.5625,1.343146 8.5625,3 z" transform="matrix(1.0510949,0,0,1.401731,2.89781,11.499684)" style="opacity:.2030651;color:#000;fill:url(#radialGradient2185);fill-opacity:1;fill-rule:nonzero;stroke:none;stroke-width:1;marker:none;visibility:visible;display:inline;overflow:visible"/><path id="path64" d="m 19.125,17.625 c 0,1.656854 -3.833562,3 -8.5625,3 -4.7289382,0 -8.5625,-1.343146 -8.5625,-3 0,-1.656854 3.8335618,-3 8.5625,-3 4.728938,0 8.5625,1.343146 8.5625,3 z" transform="matrix(1.0510949,0,0,1.401731,23.89781,11.499684)" style="opacity:.2030651;color:#000;fill:url(#radialGradient2189);fill-opacity:1;fill-rule:nonzero;stroke:none;stroke-width:1;marker:none;visibility:visible;display:inline;overflow:visible"/></g><g id="g3807" transform="translate(-1.4120549,3)"><g id="g3706" transform="translate(4.5267189,9.405604)"><path id="path4262" d="M 4.3116263,-7.9047834 C 3.1284911,-7.9138208 2.0467982,-7.191319 1.5988112,-6.0962397 1.150825,-5.0011613 1.426782,-3.7540848 2.2770152,-2.9312886 L 8.7877699,3.5794713 2.2770152,10.090223 c -1.1361699,1.136169 -1.1361699,2.978273 0,4.114442 1.1361698,1.136169 2.9782651,1.136169 4.1144348,0 l 6.510757,-6.5107603 6.510757,6.5107603 c 0.730144,0.750985 1.791232,1.038707 2.803236,0.76863 1.012014,-0.270076 1.820949,-1.064894 2.079824,-2.079826 0.258878,-1.014931 -0.05483,-2.081437 -0.813839,-2.803246 l -6.510756,-6.5107517 6.510756,-6.5107599 c 0.856689,-0.8284531 1.137986,-2.1106871 0.678203,-3.2101648 -0.459782,-1.0994771 -1.566617,-1.7913567 -2.758026,-1.76333 -0.755832,0.029848 -1.469928,0.3544399 -1.989398,0.9042714 L 12.902207,-0.4897543 6.39145,-7.000512 C 5.8500755,-7.572344 5.0990546,-7.8988742 4.3116263,-7.9047834 z" style="color:#000;fill:url(#radialGradient3813);fill-opacity:1;fill-rule:nonzero;stroke:#555753;stroke-width:1;stroke-linecap:round;stroke-linejoin:round;stroke-miterlimit:4;stroke-opacity:1;stroke-dasharray:none;stroke-dashoffset:0;marker:none;visibility:visible;display:inline;overflow:visible"/></g><path id="path5143" d="m 4.3125,-6.90625 c -0.7647127,-0.00584 -1.4910158,0.4780387 -1.78125,1.1875 -0.2899499,0.708767 -0.1297266,1.5135778 0.4375,2.0625 a 1.0108183,1.0108183 0 0 1 0.03125,0 L 9.5,2.875 a 1.0108183,1.0108183 0 0 1 0,1.4375 l -6.5,6.5 c -0.7477094,0.747709 -0.7477094,1.939791 0,2.6875 0.7477099,0.747709 1.9397902,0.747709 2.6875,0 l 6.5,-6.53125 a 1.0108183,1.0108183 0 0 1 1.4375,0 l 6.5,6.53125 c 0.470117,0.483536 1.164886,0.681171 1.84375,0.5 0.671973,-0.179329 1.17628,-0.687174 1.34375,-1.34375 0.16848,-0.660524 -0.03529,-1.372095 -0.53125,-1.84375 a 1.0108183,1.0108183 0 0 1 -0.03125,0 l -6.5,-6.5 a 1.0108183,1.0108183 0 0 1 0,-1.4375 l 6.5,-6.53125 a 1.0108183,1.0108183 0 0 1 0.03125,0 c 0.561654,-0.543142 0.730169,-1.425142 0.4375,-2.125 -0.295755,-0.7072398 -0.987889,-1.143663 -1.78125,-1.125 -0.490834,0.019383 -0.946839,0.2397933 -1.28125,0.59375 A 1.0108183,1.0108183 0 0 1 20.125,-6.28125 l -6.5,6.5 a 1.0108183,1.0108183 0 0 1 -1.4375,0 l -6.5,-6.5 a 1.0108183,1.0108183 0 0 1 0,-0.03125 C 5.3400485,-6.6794989 4.8237551,-6.9024133 4.3125,-6.90625 z" transform="translate(4.5477906,9.4068256)" xlink:href="#path4262" style="opacity:.36206898;color:#000;fill:none;stroke:url(#linearGradient3815);stroke-width:1;stroke-linecap:round;stroke-linejoin:round;stroke-miterlimit:4;stroke-opacity:1;stroke-dasharray:none;stroke-dashoffset:0;marker:none;visibility:visible;display:inline;overflow:visible"/><path id="path3797" d="m 14,13 c 4.242641,-1.237437 3.154067,0.132583 6.911612,0.132583 L 27.823223,20.044194 24,23 17.500893,16.443651 11,22.779029 7.6013979,19.448855 14,13 z" style="opacity:.3;fill:url(#radialGradient3817);fill-opacity:1;fill-rule:evenodd;stroke:none"/></g></g><g id="g22" transform="translate(303,177)" style="display:inline;enable-background:new"><path id="path5184" d="m 19.125,17.625 c 0,1.656854 -3.833562,3 -8.5625,3 -4.7289382,0 -8.5625,-1.343146 -8.5625,-3 0,-1.656854 3.8335618,-3 8.5625,-3 4.728938,0 8.5625,1.343146 8.5625,3 z" transform="matrix(0.5839416,0,0,1,-0.1678833,0.125)" style="opacity:.28089887;color:#000;fill:url(#radialGradient5192);fill-opacity:1;fill-rule:nonzero;stroke:none;stroke-width:1;marker:none;visibility:visible;display:inline;overflow:visible"/><path id="path2172" d="m 19.125,17.625 c 0,1.656854 -3.833562,3 -8.5625,3 -4.7289382,0 -8.5625,-1.343146 -8.5625,-3 0,-1.656854 3.8335618,-3 8.5625,-3 4.728938,0 8.5625,1.343146 8.5625,3 z" transform="matrix(0.6423357,0,0,1,9.7153286,0.125)" style="opacity:.28089887;color:#000;fill:url(#radialGradient2174);fill-opacity:1;fill-rule:nonzero;stroke:none;stroke-width:1;marker:none;visibility:visible;display:inline;overflow:visible"/><path id="path2176" d="m 19.125,17.625 c 0,1.656854 -3.833562,3 -8.5625,3 -4.7289382,0 -8.5625,-1.343146 -8.5625,-3 0,-1.656854 3.8335618,-3 8.5625,-3 4.728938,0 8.5625,1.343146 8.5625,3 z" transform="matrix(0.5839416,0,0,0.8697917,4.8321167,1.2792957)" style="opacity:.10980392;color:#000;fill:url(#radialGradient2178);fill-opacity:1;fill-rule:nonzero;stroke:none;stroke-width:1;marker:none;visibility:visible;display:inline;overflow:visible"/><path id="path75" d="M 5.4385638,3.5317828 C 4.6705756,3.5259165 3.9684349,3.9949017 3.6776408,4.7057318 3.3868472,5.4165612 3.5659744,6.2260546 4.1178717,6.7601422 L 8.3440861,10.98636 4.1178717,15.212572 c -0.7375024,0.737502 -0.7375024,1.933235 0,2.670737 0.7375024,0.737502 1.9332301,0.737502 2.6707324,0 l 4.2262159,-4.226218 4.226216,4.226218 c 0.473946,0.487474 1.162711,0.674238 1.819616,0.498927 0.656911,-0.175309 1.182001,-0.691236 1.350041,-1.350041 0.16804,-0.658805 -0.03559,-1.351087 -0.528274,-1.819623 L 13.656204,10.98636 17.882419,6.7601422 C 18.438507,6.2223826 18.6211,5.3900681 18.32265,4.6763829 18.024199,3.9626983 17.305738,3.5135903 16.532379,3.5317828 16.041759,3.5511578 15.57823,3.7618543 15.241036,4.118757 L 11.01482,8.3449734 6.7886041,4.118757 C 6.437191,3.7475735 5.9496937,3.5356185 5.4385638,3.5317828 z" style="color:#000;fill:url(#radialGradient5168);fill-opacity:1;fill-rule:nonzero;stroke:#555753;stroke-width:1;stroke-linecap:round;stroke-linejoin:round;stroke-miterlimit:4;stroke-opacity:1;stroke-dasharray:none;stroke-dashoffset:0;marker:none;visibility:visible;display:inline;overflow:visible"/></g><path style="fill:url(#radialGradient3697);fill-opacity:1;fill-rule:nonzero;stroke:#555753;stroke-width:1.65438366;stroke-linecap:round;stroke-linejoin:round;stroke-miterlimit:4;stroke-opacity:1;stroke-dasharray:none;stroke-dashoffset:0;marker:none;visibility:visible;display:inline;overflow:visible" id="path80" d="m 4.3125,-7.40625 c -0.9783652,-0.00747 -1.879215,0.5936367 -2.25,1.5 -0.3706455,0.9060231 -0.1492338,1.9362338 0.5625,2.625 L 9.125,3.25 a 0.49468013,0.49468013 0 0 1 0,0.6875 l -6.5,6.5 c -0.9460629,0.946062 -0.9460629,2.491438 0,3.4375 0.946063,0.946062 2.4914371,0.946062 3.4375,0 l 6.5,-6.53125 a 0.49468013,0.49468013 0 0 1 0.6875,0 l 6.5,6.53125 c 0.602891,0.620099 1.49478,0.851568 2.34375,0.625 0.845603,-0.225666 1.504607,-0.879192 1.71875,-1.71875 0.214638,-0.841489 -0.05722,-1.744363 -0.6875,-2.34375 l -6.5,-6.5 a 0.49468013,0.49468013 0 0 1 0,-0.6875 l 6.5,-6.53125 c 0.712303,-0.6888259 0.9405,-1.7835905 0.5625,-2.6875 -0.375496,-0.8979229 -1.265878,-1.448464 -2.25,-1.4375 -0.0102,4.028e-4 -0.02106,-5.344e-4 -0.03125,0 -0.615223,0.032264 -1.203083,0.3034229 -1.625,0.75 a 0.49468013,0.49468013 0 0 1 -0.03125,0 l -6.5,6.5 a 0.49468013,0.49468013 0 0 1 -0.6875,0 l -6.5,-6.5 c -0.4464713,-0.4715896 -1.097727,-0.7451051 -1.75,-0.75 z" transform="matrix(0.42302742,0,0,0.42320923,305.54601,225.48419)" xlink:href="#path4262"/><path style="color:#000;fill:none;fill-opacity:1;fill-rule:nonzero;stroke:#fff;stroke-width:1;stroke-linecap:round;stroke-linejoin:round;stroke-miterlimit:4;stroke-opacity:1;stroke-dasharray:none;stroke-dashoffset:0;marker:none;visibility:visible;display:inline;overflow:visible;enable-background:new;opacity:.35" id="path2920" d="m 308.4375,181.46875 c -0.37212,-0.003 -0.72457,0.22602 -0.875,0.59375 -0.14921,0.36474 -0.0753,0.7467 0.21875,1.03125 l 4.21875,4.25 a 0.93454175,0.93454175 0 0 1 0,1.3125 l -4.21875,4.21875 c -0.38473,0.38473 -0.38473,0.95902 0,1.34375 0.38472,0.38472 0.95903,0.38472 1.34375,0 L 313.34375,190 a 0.93454175,0.93454175 0 0 1 1.3125,0 l 4.25,4.21875 c 0.24543,0.25243 0.5656,0.34091 0.90625,0.25 0.33942,-0.0906 0.60478,-0.33194 0.6875,-0.65625 0.0844,-0.33072 -0.0237,-0.6613 -0.28125,-0.90625 a 0.93454175,0.93454175 0 0 1 0,-0.0312 L 316,188.65625 a 0.93454175,0.93454175 0 0 1 0,-1.3125 l 4.21875,-4.25 c 0.29096,-0.28137 0.36843,-0.67332 0.21875,-1.03125 -0.15034,-0.35949 -0.48592,-0.6029 -0.875,-0.59375 -0.23788,0.009 -0.44487,0.12184 -0.625,0.3125 a 0.93454175,0.93454175 0 0 1 -0.0312,0 l -4.25,4.21875 a 0.93454175,0.93454175 0 0 1 -1.3125,0 l -4.21875,-4.21875 a 0.93454175,0.93454175 0 0 1 -0.0312,0 c -0.1846,-0.19499 -0.40727,-0.31063 -0.65625,-0.3125 z"/></g></svg>